<?xml version="1.0" standalone="no"?>
<!DOCTYPE svg PUBLIC "-//W3C//DTD SVG 1.1//EN" "http://www.w3.org/Graphics/SVG/1.1/DTD/svg11.dtd" >
<svg xmlns="http://www.w3.org/2000/svg" xmlns:xlink="http://www.w3.org/1999/xlink" version="1.1">
<metadata>
Created by FontForge 20201107 at Sun May 18 00:56:53 2025
 By 
LEGO and Typewell are trademarks of the LEGO Group. (c) The LEGO Group 2024. All rights reserved.
</metadata>
<defs>
<font id="LEGOTypewell-Regular" horiz-adv-x="0" >
  <font-face 
    font-family="LEGO Typewell"
    font-weight="400"
    font-stretch="normal"
    units-per-em="2048"
    panose-1="0 0 0 0 0 0 0 0 0 0"
    ascent="1638"
    descent="-410"
    x-height="1106"
    cap-height="1475"
    bbox="-343 -481 2296 2044"
    underline-thickness="102"
    underline-position="-204"
    unicode-range="U+000D-FEFF"
  />
<missing-glyph horiz-adv-x="1224" 
d="M102 0v1237h189v172q0 28 18.5 47t46.5 19h512q28 0 47 -19t19 -47v-172h188v-1237h-1020zM612 408q129 0 220.5 91t91.5 220t-91.5 220t-220.5 91t-220 -91t-91 -220t91 -220t220 -91z" />
    <glyph glyph-name="f_f" unicode="ff" horiz-adv-x="1320" 
d="M241 0v932h-198v174h198v185q0 147 88.5 226.5t233.5 79.5h142v-176h-127q-67 0 -107 -41.5t-40 -111.5v-162h387v185q0 147 88.5 226.5t233.5 79.5h142v-176h-126q-67 0 -107.5 -41.5t-40.5 -111.5v-162h274v-174h-274v-932h-190v932h-387v-932h-190z" />
    <glyph glyph-name="fi" unicode="fi" horiz-adv-x="1191" 
d="M241 0v932h-198v174h198v185q0 147 88.5 226.5t233.5 79.5h124v-176h-109q-67 0 -107 -41.5t-40 -111.5v-162h597v-1106h-190v932h-407v-932h-190zM933 1304q-56 0 -96 40t-40 97t40 96.5t96 39.5q57 0 97 -39.5t40 -96.5t-40 -97t-97 -40z" />
    <glyph glyph-name="fl" unicode="fl" horiz-adv-x="1302" 
d="M241 0v932h-198v174h198v185q0 147 88.5 226.5t233.5 79.5h469v-1267q0 -152 129 -152h100v-178h-99q-154 0 -237 78.5t-83 227.5v1115h-264q-67 0 -107 -41.5t-40 -111.5v-162h256v-174h-256v-932h-190z" />
    <glyph glyph-name="f_f_i" unicode="ffi" horiz-adv-x="1748" 
d="M818 0v932h-387v-932h-190v932h-198v174h198v185q0 147 88.5 226.5t233.5 79.5h124v-176h-109q-67 0 -107 -41.5t-40 -111.5v-162h387v185q0 147 88.5 226.5t233.5 79.5h125v-176h-109q-67 0 -107.5 -41.5t-40.5 -111.5v-162h578v-1106h-190v932h-388v-932h-190z
M1491 1304q-57 0 -97 40t-40 97t40 96.5t97 39.5t97 -39.5t40 -96.5t-40 -97t-97 -40z" />
    <glyph glyph-name=".notdef" horiz-adv-x="1224" 
d="M102 0v1237h189v172q0 28 18.5 47t46.5 19h512q28 0 47 -19t19 -47v-172h188v-1237h-1020zM612 408q129 0 220.5 91t91.5 220t-91.5 220t-220.5 91t-220 -91t-91 -220t91 -220t220 -91z" />
    <glyph glyph-name=".null" 
 />
    <glyph glyph-name="nonmarkingreturn" horiz-adv-x="682" 
 />
    <glyph glyph-name="NULL" 
 />
    <glyph glyph-name="NULL" 
 />
    <glyph glyph-name="CR" unicode="&#xd;" horiz-adv-x="507" 
 />
    <glyph glyph-name="space" unicode=" " horiz-adv-x="507" 
 />
    <glyph glyph-name="exclam" unicode="!" horiz-adv-x="507" 
d="M196 464l-40 384v627h196v-627l-40 -384h-116zM254 -30q-57 0 -97 40t-40 96q0 57 40 97t97 40t97 -40t40 -97q0 -56 -40 -96t-97 -40z" />
    <glyph glyph-name="quotedbl" unicode="&#x22;" horiz-adv-x="698" 
d="M140 1072l-45 368v35h196v-34l-45 -369h-106zM453 1072l-45 368v35h196v-34l-45 -369h-106z" />
    <glyph glyph-name="quotedbl" unicode="&#x2033;" horiz-adv-x="698" 
d="M140 1072l-45 368v35h196v-34l-45 -369h-106zM453 1072l-45 368v35h196v-34l-45 -369h-106z" />
    <glyph glyph-name="numbersign" unicode="#" horiz-adv-x="1409" 
d="M144 0v34l91 376h-162v163h202l82 340h-223v164h262l97 398h176v-34l-88 -364h412l97 398h176v-34l-88 -364h160v-164h-199l-82 -340h219v-163h-259l-99 -410h-177v34l91 376h-413l-98 -410h-177zM459 573h413l82 340h-413z" />
    <glyph glyph-name="dollar" unicode="$" horiz-adv-x="1198" 
d="M534 -195v170q-311 29 -480 297l149 129q88 -130 181.5 -188.5t221.5 -58.5q109 0 187 42t111 119q12 30 12 68v42q0 37 -12 63q-22 53 -80.5 89t-160.5 63l-192 51q-286 77 -347 303q-7 22 -7 53v87q0 30 9 63q33 119 144 201t264 100v171h166v-171q131 -13 230.5 -72.5
t181.5 -169.5l-146 -122q-71 101 -153.5 143.5t-202.5 42.5q-107 0 -183 -45t-102 -124q-4 -11 -4 -40v-36q0 -24 4 -36q19 -63 76 -104t160 -69l201 -56q145 -41 236.5 -111t112.5 -163q7 -24 7 -56v-144q0 -28 -13 -65q-37 -118 -143.5 -197t-261.5 -97v-172h-166z" />
    <glyph glyph-name="percent" unicode="%" horiz-adv-x="1576" 
d="M393 778q-137 0 -233.5 83t-110.5 213q-1 9 -1 29v74q0 19 1 31q14 133 110 214t234 81q142 0 236 -80.5t108 -214.5q1 -12 1 -31v-74q0 -20 -1 -29q-14 -130 -110.5 -213t-233.5 -83zM393 927q66 0 117.5 43t64.5 115q1 11 1 29v53q0 19 -1 30q-12 75 -61.5 116
t-120.5 41t-120.5 -41t-61.5 -116q-2 -10 -2 -30v-53q0 -18 2 -29q13 -72 64.5 -115t117.5 -43zM259 0v30l880 1445h177v-30l-880 -1445h-177zM1183 -28q-137 0 -233.5 82.5t-110.5 212.5q-1 5 -1 30v73q0 25 1 31q14 133 110 214t234 81q142 0 236 -80.5t108 -214.5
q1 -12 1 -31v-73q0 -21 -1 -30q-14 -130 -110.5 -212.5t-233.5 -82.5zM1183 120q66 0 117.5 43t64.5 116q1 11 1 29v53q0 19 -1 30q-12 75 -61.5 116t-120.5 41q-72 0 -121 -41t-61 -116q-1 -10 -1 -30v-53q0 -18 1 -29q13 -73 64.5 -116t117.5 -43z" />
    <glyph glyph-name="ampersand" unicode="&#x26;" horiz-adv-x="1284" 
d="M526 -28q-171 0 -292 90t-149 247q-1 14 -1 25v134q0 12 1 24q15 110 90 187.5t183 121.5q-69 85 -97 130t-35 97q-2 22 -2 34v108q0 12 2 34q34 141 148.5 220t278.5 79q313 0 434 -255l-149 -96q-43 84 -114 133t-165 49q-105 0 -167.5 -45t-76.5 -128q-1 -7 -1 -21
v-46q0 -10 1 -22q2 -16 7.5 -31.5t10.5 -26.5t17.5 -28.5t20 -26.5t27 -32.5t28.5 -34.5l363 -446l139 379h179v-34l-191 -501l208 -256v-34h-222l-100 125q-134 -153 -376 -153zM274 369q5 -96 73 -157t183 -61q153 0 259 115l-324 403q-88 -37 -133.5 -86t-56.5 -119
q-1 -12 -1 -25v-70z" />
    <glyph glyph-name="quotesingle" unicode="'" horiz-adv-x="385" 
d="M140 1072l-45 368v35h196v-34l-45 -369h-106z" />
    <glyph glyph-name="quotesingle" unicode="&#x2032;" horiz-adv-x="385" 
d="M140 1072l-45 368v35h196v-34l-45 -369h-106z" />
    <glyph glyph-name="parenleft" unicode="(" horiz-adv-x="624" 
d="M400 -246q-121 128 -198.5 303t-98.5 365v631q21 190 98.5 364t198.5 303h203v-33q-141 -159 -215.5 -323.5t-94.5 -370.5v-512q20 -206 94.5 -370t215.5 -323v-34h-203z" />
    <glyph glyph-name="parenright" unicode=")" horiz-adv-x="624" 
d="M225 -246h-202v34q140 159 214.5 323t94.5 370v512q-20 206 -94.5 370.5t-214.5 323.5v33h202q121 -129 198.5 -303t98.5 -364v-631q-21 -190 -98.5 -365t-198.5 -303z" />
    <glyph glyph-name="asterisk" unicode="*" horiz-adv-x="1005" 
d="M365 687l-128 73l138 239h-275v148h275l-138 239l128 73l138 -237l138 237l128 -73l-138 -239h274v-148h-274l138 -239l-128 -73l-138 238z" />
    <glyph glyph-name="plus" unicode="+" horiz-adv-x="1011" 
d="M420 304v350h-347v167h347v349h172v-349h348v-167h-348v-350h-172z" />
    <glyph glyph-name="comma" unicode="," horiz-adv-x="516" 
d="M143 -185v416h229v-34l-126 -382h-103z" />
    <glyph glyph-name="hyphen" unicode="-" horiz-adv-x="833" 
d="M99 528v171h636v-171h-636z" />
    <glyph glyph-name="period" unicode="." horiz-adv-x="536" 
d="M269 -28q-57 0 -97 40t-40 97t40 96.5t97 39.5t97 -39.5t40 -96.5t-40 -97t-97 -40z" />
    <glyph glyph-name="slash" unicode="/" horiz-adv-x="1021" 
d="M26 -389v34l766 1952h203v-33l-765 -1953h-204z" />
    <glyph glyph-name="zero" unicode="0" horiz-adv-x="1318" 
d="M660 -28q-227 0 -365.5 152.5t-164.5 442.5q-1 7 -1 47v246q0 38 1 48q24 289 163.5 442t366.5 153q226 0 365.5 -153t164.5 -442q1 -21 1 -48v-246q0 -32 -1 -47q-26 -290 -164.5 -442.5t-365.5 -152.5zM660 151q143 0 233 109t102 318q1 16 1 43v233q0 27 -1 44
q-13 209 -103 317.5t-232 108.5t-232 -108.5t-103 -317.5q-2 -17 -2 -44v-233q0 -27 2 -43q12 -209 102 -318t233 -109z" />
    <glyph glyph-name="one" unicode="1" horiz-adv-x="808" 
d="M438 0v1253l-349 -297h-35v200l384 319h195v-1475h-195z" />
    <glyph glyph-name="two" unicode="2" horiz-adv-x="1177" 
d="M125 0v179l528 501q100 95 144 164t54 154q1 10 1 31v50q0 11 -2 29q-17 102 -87 158.5t-184 56.5q-243 0 -332 -271l-155 93q55 171 183.5 264t316.5 93q184 0 308.5 -98t145.5 -263q1 -6 1 -20v-101q0 -22 -1 -33q-6 -66 -21 -115t-50.5 -103t-82.5 -105t-131 -131
l-369 -354h655v-179h-922z" />
    <glyph glyph-name="three" unicode="3" horiz-adv-x="1191" 
d="M579 -29q-181 0 -305 85t-199 263l170 95q104 -264 333 -264q110 0 183 48t99 135q18 109 -1 212q-54 167 -282 167h-102l-25 25v134l371 425h-670v179h882v-179l-364 -431q308 -17 381 -275q25 -152 0 -305q-42 -146 -168.5 -230t-302.5 -84z" />
    <glyph glyph-name="four" unicode="4" horiz-adv-x="1210" 
d="M71 272v177l599 1026h209v-34l-582 -992h444v288h187v-288h220v-177h-220v-272h-187v272h-670z" />
    <glyph glyph-name="five" unicode="5" horiz-adv-x="1177" 
d="M585 -28q-184 0 -308 84.5t-198 262.5l170 95q58 -136 140 -199.5t196 -63.5q113 0 186 52t96 147q4 23 4 53v82q0 31 -5 51q-24 89 -92 129.5t-185 40.5h-392l-25 25l73 744h765v-179h-609l-36 -416h260q184 0 297 -81.5t141 -242.5q3 -23 3 -47v-134q0 -25 -3 -48
q-35 -169 -160 -262t-318 -93z" />
    <glyph glyph-name="six" unicode="6" horiz-adv-x="1251" 
d="M626 -28q-198 0 -332.5 109.5t-172.5 300.5q-5 42 -5 115q0 74 3 108q16 98 48 173t95 169l352 528h205l-1 -34l-337 -493q66 47 169 47q191 0 314.5 -98t157.5 -269q13 -73 13 -141q0 -69 -13 -136q-37 -171 -173 -275t-323 -104zM625 153q121 0 198 56.5t105 162.5
q10 51 10 114t-11 121q-29 105 -107 162t-195 57q-113 0 -193.5 -59t-107.5 -158q-12 -59 -12 -120t12 -117q27 -99 108 -159t193 -60z" />
    <glyph glyph-name="seven" unicode="7" horiz-adv-x="1056" 
d="M247 0v34l544 1258h-737v183h935v-177l-537 -1298h-205z" />
    <glyph glyph-name="eight" unicode="8" horiz-adv-x="1290" 
d="M645 -28q-213 0 -349.5 94.5t-164.5 250.5q-4 16 -4 38v89q0 20 4 40q18 103 82.5 177t152.5 99q-85 47 -131 110t-60 150q-3 39 -3 40v86q0 11 4 41q29 149 152.5 232.5t316.5 83.5t316.5 -83.5t152.5 -232.5q3 -15 3 -41v-86q0 -27 -2 -40q-14 -87 -60 -150t-131 -110
q88 -25 152 -99t83 -177q3 -23 3 -40v-89q0 -20 -3 -38q-29 -157 -165 -251t-349 -94zM645 151q118 0 201.5 51t111.5 143q4 15 4 36v71q0 23 -4 38q-55 188 -313 188q-259 0 -314 -188q-4 -15 -4 -38v-71q0 -21 4 -36q28 -92 112 -143t202 -51zM645 841q108 0 177.5 43.5
t92.5 124.5q4 16 4 38v82q0 23 -5 38q-24 79 -93 122.5t-176 43.5t-176 -43.5t-93 -122.5q-6 -18 -6 -38v-82q0 -22 4 -38q23 -81 93 -124.5t178 -43.5z" />
    <glyph glyph-name="nine" unicode="9" horiz-adv-x="1251" 
d="M625 1503q198 0 332 -109.5t172 -300.5q6 -51 6 -115q0 -75 -3 -109q-16 -98 -48 -173t-95 -169l-352 -527h-205l1 34l337 492q-66 -47 -169 -47q-191 0 -314.5 98t-157.5 269q-13 73 -13 141q0 69 13 136q37 171 173 275.5t323 104.5zM626 1321q-121 0 -198 -56.5
t-105 -162.5q-11 -57 -11 -114t12 -120q29 -105 107 -162t195 -57q114 0 194 58.5t107 157.5q11 54 11 120t-11 117q-27 99 -108 159t-193 60z" />
    <glyph glyph-name="colon" unicode=":" horiz-adv-x="516" 
d="M291 -28q-57 0 -96.5 40t-39.5 97t39.5 96.5t96.5 39.5t97 -39.5t40 -96.5t-40 -97t-97 -40zM291 861q-57 0 -96.5 40t-39.5 97t39.5 97t96.5 40t97 -40t40 -97t-40 -97t-97 -40z" />
    <glyph glyph-name="semicolon" unicode=";" horiz-adv-x="516" 
d="M166 -185v416h229v-34l-126 -382h-103zM296 861q-57 0 -97 40t-40 97t40 97t97 40t97 -40t40 -97t-40 -97t-97 -40z" />
    <glyph glyph-name="less" unicode="&#x3c;" horiz-adv-x="1011" 
d="M937 237h-29l-837 405v192l837 404h29v-176l-682 -324l682 -326v-175z" />
    <glyph glyph-name="equal" unicode="=" horiz-adv-x="1011" 
d="M73 868v167h867v-167h-867zM73 437v167h867v-167h-867z" />
    <glyph glyph-name="greater" unicode="&#x3e;" horiz-adv-x="1011" 
d="M75 237v175l682 326l-682 324v176h29l838 -404v-192l-838 -405h-29z" />
    <glyph glyph-name="question" unicode="?" horiz-adv-x="978" 
d="M394 464l-15 349h75q223 0 248 195q3 12 3 39v72q0 23 -3 35q-14 83 -75.5 130.5t-155.5 47.5q-202 0 -289 -199l-152 90q56 134 169.5 207t276.5 73q177 0 288.5 -88t132.5 -240q2 -7 2 -34v-101q0 -14 -0.5 -23.5t-0.5 -10.5q-14 -143 -103 -231.5t-230 -105.5
l-29 -205h-142zM465 -28q-57 0 -96.5 40t-39.5 97t39.5 96.5t96.5 39.5t97 -39.5t40 -96.5t-40.5 -97t-96.5 -40z" />
    <glyph glyph-name="at" unicode="@" horiz-adv-x="1869" 
d="M910 -332q-219 0 -397 95t-288.5 269t-135.5 403q-1 16 -1 44v225q0 25 1 37q35 351 265.5 556.5t582.5 205.5t573.5 -191t260.5 -524q1 -13 1 -37v-184q0 -28 -1 -42q-15 -189 -99.5 -288.5t-227.5 -99.5q-87 0 -154 40t-101 112q-54 -73 -133.5 -112.5t-176.5 -39.5
q-161 0 -268.5 99t-124.5 263q-1 11 -1 29v114q0 17 1 25q16 161 125 262t266 101q188 0 285 -132l12 106h166v-595q4 -53 31 -81t73 -28q122 0 140 232q2 12 2 33v165q0 24 -2 35q-23 258 -198 411t-449 153q-278 0 -454.5 -163.5t-204.5 -450.5q-1 -16 -1 -38v-174
q0 -22 1 -39q29 -282 201.5 -452t429.5 -170q155 0 245.5 30t190.5 104l91 -149q-191 -159 -526 -159zM908 300q102 0 168 60t78 164q1 7 1 24v71q0 18 -1 27q-11 103 -77 162t-169 59q-102 0 -167.5 -60t-78.5 -166q0 -5 -1 -20l-1 -9v1v-51q4 -120 71.5 -191t176.5 -71z
" />
    <glyph glyph-name="A" unicode="A" horiz-adv-x="1413" 
d="M28 0v34l550 1441h250l556 -1441v-34h-205l-136 362h-676l-134 -362h-205zM433 540h543l-260 693h-26z" />
    <glyph glyph-name="B" unicode="B" horiz-adv-x="1353" 
d="M179 0v1475h574q164 0 273 -74.5t135 -212.5q2 -22 2 -34v-97q0 -16 -2 -34q-12 -82 -47.5 -132t-103.5 -86q90 -26 152.5 -92.5t83.5 -164.5q4 -21 4 -49v-140q0 -28 -3 -41q-28 -147 -148 -232.5t-300 -85.5h-620zM770 178q231 0 272 173q5 25 5 46v85q0 23 -5 46
q-42 173 -272 173h-388v-523h388zM382 869h354q97 0 150.5 36t74.5 105q6 20 6 42v62q0 24 -6 43q-44 140 -233 140h-346v-428z" />
    <glyph glyph-name="C" unicode="C" horiz-adv-x="1415" 
d="M782 -28q-248 0 -419 134t-232 368q-19 71 -19 146v236q0 72 19 139q60 236 236.5 372t428.5 136q186 0 319 -63t236 -198l-142 -125q-87 111 -177.5 157t-229.5 46q-181 0 -304 -93.5t-169 -258.5q-14 -54 -14 -115v-231q0 -59 14 -112q46 -164 166 -260t287 -96
q146 0 243.5 47.5t180.5 158.5l143 -126q-106 -137 -241 -199.5t-326 -62.5z" />
    <glyph glyph-name="D" unicode="D" horiz-adv-x="1419" 
d="M179 0v1475h470q275 0 447 -143t210 -394q2 -30 2 -46v-303q0 -16 -2 -46q-38 -254 -210 -398.5t-447 -144.5h-470zM652 182q198 0 312.5 99.5t137.5 288.5q2 16 2 51v234q0 34 -2 50q-23 188 -137.5 287.5t-312.5 99.5h-270v-1110h270z" />
    <glyph glyph-name="E" unicode="E" horiz-adv-x="1200" 
d="M179 0v1475h933v-183h-730v-445h545v-181h-545v-484h730v-182h-933z" />
    <glyph glyph-name="F" unicode="F" horiz-adv-x="1126" 
d="M179 0v1475h882v-183h-679v-491h577v-182h-577v-619h-203z" />
    <glyph glyph-name="G" unicode="G" horiz-adv-x="1492" 
d="M782 -28q-267 0 -450 165.5t-218 435.5q-2 23 -2 47v236q0 24 2 46q35 272 219 436.5t459 164.5q188 0 320 -63t237 -200l-140 -127q-84 110 -176 158.5t-237 48.5q-190 0 -319.5 -113t-159.5 -307q-2 -46 -2 -52v-221q0 -6 2 -52q32 -190 159 -305.5t306 -115.5
q249 0 388 172v304h-433v178h633v-530q-94 -149 -244.5 -227.5t-343.5 -78.5z" />
    <glyph glyph-name="H" unicode="H" horiz-adv-x="1531" 
d="M179 0v1475h203v-647h768v647h204v-1475h-204v646h-768v-646h-203z" />
    <glyph glyph-name="I" unicode="I" horiz-adv-x="561" 
d="M179 0v1475h203v-1475h-203z" />
    <glyph glyph-name="J" unicode="J" horiz-adv-x="1103" 
d="M492 -28q-290 0 -456 242l143 132q65 -99 137.5 -142.5t164.5 -43.5q98 0 159.5 44.5t79.5 128.5q10 44 10 88v1054h203v-1029q0 -224 -115.5 -349t-325.5 -125z" />
    <glyph glyph-name="K" unicode="K" horiz-adv-x="1218" 
d="M179 0v1475h203v-648h86l491 648h221v-34l-548 -704l548 -702v-35h-221l-491 648h-86v-648h-203z" />
    <glyph glyph-name="L" unicode="L" horiz-adv-x="1105" 
d="M179 0v1475h203v-1293h676v-182h-879z" />
    <glyph glyph-name="M" unicode="M" horiz-adv-x="1734" 
d="M179 0v1475h228l448 -768h25l448 768h228v-1475h-202v1116h-25l-385 -670h-153l-385 668h-26v-1114h-201z" />
    <glyph glyph-name="N" unicode="N" horiz-adv-x="1542" 
d="M179 0v1475h214l746 -1098h26v1098h199v-1475h-214l-746 1098h-26v-1098h-199z" />
    <glyph glyph-name="O" unicode="O" horiz-adv-x="1591" 
d="M796 -28q-273 0 -460.5 164.5t-221.5 443.5q-2 14 -2 44v227q0 29 2 43q34 279 221.5 444t460.5 165t460 -165t221 -444q3 -42 3 -43v-227q0 -2 -3 -44q-34 -279 -221 -443.5t-460 -164.5zM796 154q190 0 321 115.5t157 316.5q2 30 2 46v211q0 16 -2 46
q-26 201 -156.5 316t-321.5 115t-322 -115t-157 -316q-2 -30 -2 -46v-211q0 -16 2 -46q26 -201 157 -316.5t322 -115.5z" />
    <glyph glyph-name="P" unicode="P" horiz-adv-x="1280" 
d="M179 0v1475h557q167 0 279.5 -60.5t160.5 -180.5q25 -53 25 -130v-176q0 -79 -25 -132q-47 -116 -160 -179t-280 -63h-354v-554h-203zM729 736q191 0 252 136q21 41 21 104v77q0 65 -21 104q-61 135 -252 135h-347v-556h347z" />
    <glyph glyph-name="Q" unicode="Q" horiz-adv-x="1591" 
d="M989 -451q-136 0 -214 78.5t-78 221.5v129q-236 29 -394 189.5t-189 412.5q-2 14 -2 44v227q0 29 2 43q34 279 221.5 444t460.5 165t460 -165t221 -444q3 -42 3 -43v-227q0 -2 -3 -44q-31 -253 -189.5 -413.5t-395.5 -189.5v-121q0 -60 32 -95t89 -35h228v-177h-252z
M796 154q190 0 321 115.5t157 316.5q2 30 2 46v211q0 16 -2 46q-26 201 -156.5 316t-321.5 115t-322 -115t-157 -316q-2 -30 -2 -46v-211q0 -16 2 -46q26 -201 157 -316.5t322 -115.5z" />
    <glyph glyph-name="R" unicode="R" horiz-adv-x="1327" 
d="M179 0v1475h560q200 0 321 -84.5t144 -234.5q3 -22 3 -48v-166q0 -28 -6 -52q-20 -95 -88 -170t-177 -114l291 -572v-34h-206l-284 567h-355v-567h-203zM754 749q210 0 250 179q5 19 5 48v89q0 31 -5 50q-42 177 -250 177h-372v-543h372z" />
    <glyph glyph-name="S" unicode="S" horiz-adv-x="1247" 
d="M637 -28q-370 0 -559 300l149 129q88 -130 181.5 -188.5t221.5 -58.5q109 0 187 42t111 119q13 33 13 68v42q0 35 -13 63q-23 53 -81.5 89t-159.5 63l-192 51q-286 77 -347 303q-7 22 -7 53v87q0 26 10 63q37 135 171.5 220.5t312.5 85.5q166 0 286 -60t215 -187
l-146 -122q-71 101 -153.5 143.5t-202.5 42.5q-107 0 -182.5 -45t-102.5 -124q-5 -18 -5 -40v-36q0 -13 5 -36q19 -63 76 -104t160 -69l201 -56q145 -41 236.5 -111t112.5 -163q7 -24 7 -56v-144q0 -28 -13 -65q-43 -135 -173.5 -217t-318.5 -82z" />
    <glyph glyph-name="T" unicode="T" horiz-adv-x="1171" 
d="M484 0v1292h-438v183h1080v-183h-439v-1292h-203z" />
    <glyph glyph-name="U" unicode="U" horiz-adv-x="1462" 
d="M732 -28q-257 0 -408 145.5t-151 390.5v967h203v-991q0 -39 9 -80q26 -117 116.5 -183.5t230.5 -66.5q139 0 229.5 66.5t116.5 183.5q9 41 9 80v991h204v-967q0 -247 -150 -391.5t-409 -144.5z" />
    <glyph glyph-name="V" unicode="V" horiz-adv-x="1413" 
d="M581 0l-554 1441v34h215l452 -1228h26l454 1228h213v-34l-555 -1441h-251z" />
    <glyph glyph-name="W" unicode="W" horiz-adv-x="1970" 
d="M401 0l-335 1441v34h212l252 -1174h30l300 1174h251l301 -1174h29l252 1174h211v-34l-335 -1441h-256l-313 1175h-30l-313 -1175h-256z" />
    <glyph glyph-name="X" unicode="X" horiz-adv-x="1327" 
d="M42 0v36l481 728l-462 675v36h221l368 -557h26l370 557h220v-36l-462 -675l480 -728v-36h-221l-387 606h-26l-387 -606h-221z" />
    <glyph glyph-name="Y" unicode="Y" horiz-adv-x="1257" 
d="M527 0v560l-501 881v34h213l377 -687h26l376 687h213v-34l-500 -881v-560h-204z" />
    <glyph glyph-name="Z" unicode="Z" horiz-adv-x="1173" 
d="M84 0v181l738 1086v25h-710v183h957v-183l-739 -1084v-26h752v-182h-998z" />
    <glyph glyph-name="bracketleft" unicode="[" horiz-adv-x="665" 
d="M159 -246v1966h451v-181h-261v-1603h261v-182h-451z" />
    <glyph glyph-name="backslash" unicode="\" horiz-adv-x="1021" 
d="M995 -389h-204l-765 1953v33h203l766 -1952v-34z" />
    <glyph glyph-name="bracketright" unicode="]" horiz-adv-x="665" 
d="M505 -246h-450v182h260v1603h-260v181h450v-1966z" />
    <glyph glyph-name="asciicircum" unicode="^" horiz-adv-x="1011" 
d="M66 885v29l344 561h192l345 -561v-29h-180l-261 431l-261 -431h-179z" />
    <glyph glyph-name="underscore" unicode="_" horiz-adv-x="880" 
d="M-4 -157v157h889v-157h-889z" />
    <glyph glyph-name="grave" unicode="`" horiz-adv-x="600" 
d="M348 1241l-240 277v34h231l153 -277v-34h-144z" />
    <glyph glyph-name="a" unicode="a" horiz-adv-x="1140" 
d="M467 -28q-151 0 -253 81t-115 212v127q20 135 129 213t279 78q160 0 288 -75v112q0 113 -46 161.5t-161 48.5h-391v176h404q209 0 296.5 -91.5t87.5 -292.5v-722h-145l-43 146q-65 -89 -145 -131.5t-185 -42.5zM504 141q88 0 156.5 33.5t134.5 109.5v153q-106 87 -275 87
q-103 0 -165.5 -43.5t-70.5 -122.5v-54q7 -72 68.5 -117.5t151.5 -45.5z" />
    <glyph glyph-name="b" unicode="b" horiz-adv-x="1300" 
d="M728 -28q-129 0 -218.5 40t-156.5 128l-45 -140h-145v1597h190v-620q63 75 156.5 116t203.5 41q185 0 306.5 -95.5t166.5 -267.5q18 -102 18 -218t-20 -221q-45 -171 -163.5 -265.5t-292.5 -94.5zM672 145q129 0 212.5 66.5t116.5 188.5q14 75 14 153t-14 154
q-33 120 -117.5 187.5t-211.5 67.5q-102 0 -186 -57t-133 -160v-393q50 -109 126 -158t193 -49z" />
    <glyph glyph-name="c" unicode="c" horiz-adv-x="1153" 
d="M634 -28q-203 0 -348 119t-184 318q-5 56 -5 144t5 144q41 200 185.5 318.5t346.5 118.5q156 0 267.5 -55.5t188.5 -170.5l-139 -119q-60 94 -135 133.5t-188 39.5q-125 0 -219 -75.5t-119 -198.5q-4 -74 -4 -135q0 -62 4 -134q26 -120 121.5 -197t216.5 -77
q103 0 177 37t143 130l132 -123q-81 -112 -190.5 -164.5t-255.5 -52.5z" />
    <glyph glyph-name="d" unicode="d" horiz-adv-x="1300" 
d="M573 -28q-174 0 -292.5 94.5t-163.5 265.5q-20 105 -20 221q0 119 19 218q45 172 166 267.5t306 95.5q110 0 203.5 -41t156.5 -116v620h190v-1597h-145l-45 140q-66 -88 -156 -128t-219 -40zM629 145q117 0 193 49t126 158v393q-49 103 -133 160t-186 57
q-127 0 -212.5 -68t-118.5 -187q-14 -76 -14 -154t14 -153q33 -122 117.5 -188.5t213.5 -66.5z" />
    <glyph glyph-name="e" unicode="e" horiz-adv-x="1218" 
d="M632 -28q-216 0 -351.5 118t-178.5 318q-5 24 -5 60v170q0 33 5 56q44 197 179 318.5t341 121.5q205 0 334.5 -112t165.5 -302q5 -24 5 -60v-139l-25 -25h-817q15 -165 106 -258t241 -93q108 0 182 39.5t140 125.5l133 -117q-163 -221 -455 -221zM289 650h654
q-9 139 -97 227t-222 88q-138 0 -225.5 -86.5t-109.5 -228.5z" />
    <glyph glyph-name="f" unicode="f" horiz-adv-x="743" 
d="M241 0v932h-198v174h198v185q0 147 88.5 226.5t233.5 79.5h142v-176h-127q-67 0 -107 -41.5t-40 -111.5v-162h274v-174h-274v-932h-190z" />
    <glyph glyph-name="g" unicode="g" horiz-adv-x="1300" 
d="M249 -451v177h481q118 0 168 45t50 156v209q-63 -75 -156.5 -116t-203.5 -41q-197 0 -325 112t-162 314q-12 181 8 341q42 180 168.5 284.5t305.5 104.5q240 0 366 -168l44 139h145v-1183q0 -195 -94 -284.5t-292 -89.5h-503zM630 145q101 0 185 59.5t133 163.5v386
q-96 208 -318 208q-126 0 -210.5 -65.5t-119.5 -189.5q-23 -119 -8 -261q27 -142 115.5 -221.5t222.5 -79.5z" />
    <glyph glyph-name="h" unicode="h" horiz-adv-x="1251" 
d="M163 0v1597h189v-636q48 78 132 125.5t203 47.5q194 0 302 -109t108 -307v-718h-190v699q-7 114 -75.5 186.5t-192.5 72.5q-99 0 -174 -54t-112 -149v-755h-190z" />
    <glyph glyph-name="i" unicode="i" horiz-adv-x="516" 
d="M163 0v1106h190v-1106h-190zM258 1304q-56 0 -96 40t-40 97t40 96.5t96 39.5q57 0 97 -39.5t40 -96.5t-40 -97t-97 -40z" />
    <glyph glyph-name="j" unicode="j" horiz-adv-x="516" 
d="M-81 -451v177h97q67 0 107 41.5t40 111.5v1227h190v-1250q0 -147 -88.5 -227t-233.5 -80h-112zM258 1304q-56 0 -96 40t-40 97t40 96.5t96 39.5q57 0 97 -39.5t40 -96.5t-40 -97t-97 -40z" />
    <glyph glyph-name="k" unicode="k" horiz-adv-x="1069" 
d="M163 0v1597h190v-956h82l387 465h206v-34l-435 -519l435 -519v-34h-210l-383 465h-82v-465h-190z" />
    <glyph glyph-name="l" unicode="l" horiz-adv-x="618" 
d="M477 0q-154 0 -237 78.5t-83 227.5v1291h190v-1267q0 -152 130 -152h99v-178h-99z" />
    <glyph glyph-name="m" unicode="m" horiz-adv-x="1855" 
d="M163 0v1106h145l44 -145q47 81 132 127t187 46q107 0 188.5 -52.5t124.5 -149.5q119 202 345 202q174 0 272.5 -109t98.5 -300v-725h-190v713q-6 116 -68 180.5t-167 64.5q-172 0 -248 -199v-759h-190v713q-6 119 -66 182t-169 63q-173 0 -249 -199v-759h-190z" />
    <glyph glyph-name="n" unicode="n" horiz-adv-x="1251" 
d="M163 0v1106h145l44 -145q49 77 136 125t201 48q193 0 300.5 -113t107.5 -312v-709h-190v699q-7 114 -74 186.5t-191 72.5q-99 0 -175.5 -54.5t-113.5 -148.5v-755h-190z" />
    <glyph glyph-name="o" unicode="o" horiz-adv-x="1271" 
d="M636 -28q-127 0 -237.5 49t-190.5 147t-105 231q-6 31 -6 67v174q0 36 6 67q25 133 105 231t190.5 147t237.5 49t237.5 -49t190.5 -147t105 -231q7 -37 7 -67v-174q0 -30 -7 -67q-25 -133 -105 -231t-190.5 -147t-237.5 -49zM636 145q80 0 151 30t124 93t70 149
q5 30 5 61v150q0 31 -5 61q-17 86 -70 149.5t-124 93.5t-151 30t-151 -30t-124 -93.5t-69 -149.5q-5 -23 -5 -61v-150q0 -38 5 -61q24 -128 122 -200t222 -72z" />
    <glyph glyph-name="p" unicode="p" horiz-adv-x="1300" 
d="M163 -451v1557h145l45 -140q67 87 157 128t218 41q174 0 292.5 -95t163.5 -266q42 -222 2 -438q-45 -172 -166.5 -268t-306.5 -96q-110 0 -203.5 41t-156.5 117v-581h-190zM672 145q127 0 212.5 67.5t118.5 186.5q29 154 0 307q-33 122 -117.5 189t-213.5 67
q-116 0 -192.5 -49.5t-126.5 -158.5v-393q49 -103 133 -159.5t186 -56.5z" />
    <glyph glyph-name="q" unicode="q" horiz-adv-x="1300" 
d="M948 130q-63 -76 -156.5 -117t-203.5 -41q-199 0 -326.5 112.5t-160.5 313.5q-12 185 8 348q42 183 165 286t300 103q128 0 217.5 -40.5t156.5 -128.5l45 140h145v-1557h-190v581zM629 145q102 0 186 56.5t133 159.5v393q-51 110 -126.5 159t-192.5 49q-125 0 -210.5 -65
t-120.5 -190q-23 -123 -8 -268q27 -141 115.5 -217.5t223.5 -76.5z" />
    <glyph glyph-name="r" unicode="r" horiz-adv-x="794" 
d="M163 0v1106h145l42 -136q72 136 230 136h126v-182h-144q-199 0 -209 -217v-707h-190z" />
    <glyph glyph-name="s" unicode="s" horiz-adv-x="1007" 
d="M498 -28q-138 0 -250 62t-173 171l138 117q38 -84 118 -135t168 -51t146.5 35t75.5 97q2 18 2 30v30q0 9 -2 23q-12 45 -53 74t-126 50l-170 43q-216 56 -253 229q-4 24 -4 36v72q0 12 4 32q27 108 135.5 177.5t255.5 69.5q258 0 399 -201l-131 -110q-50 76 -116 111.5
t-157 35.5q-77 0 -132 -30.5t-70 -81.5q-2 -8 -2 -23v-18q0 -8 2 -20q11 -48 52.5 -78t118.5 -49l153 -36q222 -53 275 -214q8 -22 8 -47v-96q0 -31 -8 -54q-36 -116 -142 -183.5t-262 -67.5z" />
    <glyph glyph-name="t" unicode="t" horiz-adv-x="751" 
d="M562 0q-145 0 -234 79.5t-89 226.5v626h-169v174h169v104l101 183h89v-287h253v-174h-253v-603q0 -70 40 -111t108 -41h97v-177h-112z" />
    <glyph glyph-name="u" unicode="u" horiz-adv-x="1239" 
d="M559 -28q-192 0 -298 109t-106 307v718h190v-699q7 -113 74 -186t187 -73q98 0 170 54t110 149v755h190v-1106h-144l-45 146q-107 -174 -328 -174z" />
    <glyph glyph-name="v" unicode="v" horiz-adv-x="1150" 
d="M461 0l-423 1072v34h196l329 -890h25l332 890h192v-34l-422 -1072h-229z" />
    <glyph glyph-name="w" unicode="w" horiz-adv-x="1679" 
d="M367 0l-314 1072v34h190l219 -830h26l255 830h193l255 -830h26l219 830h191v-34l-314 -1072h-208l-252 824h-26l-252 -824h-208z" />
    <glyph glyph-name="x" unicode="x" horiz-adv-x="1116" 
d="M46 0v36l366 542l-345 492v36h216l260 -401h30l260 401h216v-36l-344 -492l365 -542v-36h-216l-281 445h-30l-281 -445h-216z" />
    <glyph glyph-name="y" unicode="y" horiz-adv-x="1157" 
d="M170 -451v177h131q90 0 134 36.5t44 112.5q0 41 -38 140l-407 1057v34h197l342 -930h27l304 930h192v-34l-438 -1252q-54 -156 -130.5 -213.5t-232.5 -57.5h-125z" />
    <glyph glyph-name="z" unicode="z" horiz-adv-x="1007" 
d="M83 0v172l572 732v26h-552v176h794v-172l-573 -732v-25h593v-177h-834z" />
    <glyph glyph-name="braceleft" unicode="{" horiz-adv-x="823" 
d="M530 -246q-209 0 -209 210v556q0 56 -35.5 91.5t-91.5 35.5h-132v181h132q56 0 91.5 35.5t35.5 90.5v557q0 209 209 209h241v-181h-261v-597q0 -79 -38.5 -134t-95.5 -71q57 -16 95.5 -71t38.5 -134v-596h261v-182h-241z" />
    <glyph glyph-name="bar" unicode="|" horiz-adv-x="505" 
d="M158 -389v1986h190v-1986h-190z" />
    <glyph glyph-name="braceright" unicode="}" horiz-adv-x="823" 
d="M294 -246h-241v182h260v596q0 79 38.5 134t95.5 71q-57 16 -95.5 71t-38.5 134v597h-260v181h241q209 0 209 -209v-557q0 -55 35.5 -90.5t91.5 -35.5h132v-181h-132q-56 0 -91.5 -35.5t-35.5 -91.5v-556q0 -210 -209 -210z" />
    <glyph glyph-name="asciitilde" unicode="~" horiz-adv-x="1011" 
d="M729 559q-52 0 -91.5 15.5t-86.5 47.5l-126 76q-44 30 -67.5 42t-46.5 12q-35 0 -56.5 -26.5t-21.5 -71.5v-77h-160v99q0 105 58.5 168t154.5 63q52 0 91 -15.5t86 -47.5l126 -77q43 -30 66.5 -41.5t47.5 -11.5q36 0 57 25.5t21 70.5v79h161v-100q0 -104 -58.5 -167
t-154.5 -63z" />
    <glyph glyph-name="uni00A0" unicode="&#xa0;" horiz-adv-x="507" 
 />
    <glyph glyph-name="exclamdown" unicode="&#xa1;" horiz-adv-x="479" 
d="M142 -451v689l40 384h116l40 -384v-689h-196zM240 843q-57 0 -97 39.5t-40 96.5t40 97t97 40t97 -40t40 -97t-40 -96.5t-97 -39.5z" />
    <glyph glyph-name="cent" unicode="&#xa2;" horiz-adv-x="1175" 
d="M544 0v166q-163 30 -274.5 143.5t-145.5 283.5q-4 45 -4 144q0 100 4 145q35 170 147 283t273 143v167h166v-158q263 -18 402 -225l-138 -119q-60 94 -135.5 133.5t-188.5 39.5q-125 0 -218.5 -75.5t-118.5 -198.5q-5 -92 -5 -135q0 -44 5 -134q26 -120 121 -197t216 -77
q103 0 176.5 37.5t143.5 130.5l133 -123q-144 -200 -393 -216v-158h-166z" />
    <glyph glyph-name="sterling" unicode="&#xa3;" horiz-adv-x="1204" 
d="M77 0v182h191v427h-169v183h169v334q0 28 6 54q33 153 149.5 238.5t285.5 85.5q155 0 260 -68.5t168 -220.5l-169 -104q-75 214 -260 214q-92 0 -153.5 -48.5t-78.5 -132.5q-4 -14 -4 -44v-308h351v-183h-351v-427h642v-182h-1037z" />
    <glyph glyph-name="currency" unicode="&#xa4;" horiz-adv-x="1417" 
d="M709 166q-173 0 -305 85l-200 -199l-116 115l196 197q-77 103 -102 237q-5 33 -5 66v140q0 32 5 67q25 136 101 237l-195 195l116 117l200 -200q132 86 305 86q172 0 304 -85l200 199l116 -117l-195 -195q76 -101 101 -237q6 -32 6 -67v-140q0 -36 -6 -66
q-25 -136 -101 -237l195 -196l-117 -116l-199 199q-132 -85 -304 -85zM709 337q123 0 218 74t119 204q5 22 5 61v121q0 39 -5 62q-24 129 -119 203.5t-218 74.5q-124 0 -219.5 -74.5t-118.5 -203.5q-5 -18 -5 -62v-121q0 -43 5 -61q23 -130 118.5 -204t219.5 -74z" />
    <glyph glyph-name="yen" unicode="&#xa5;" horiz-adv-x="1273" 
d="M196 556v165h260l-408 720v34h213l376 -687h26l377 687h213v-34l-409 -720h261v-165h-353v-182h353v-166h-353v-208h-204v208h-352v166h352v182h-352z" />
    <glyph glyph-name="brokenbar" unicode="&#xa6;" horiz-adv-x="505" 
d="M158 766v831h190v-831h-190zM158 -389v831h190v-831h-190z" />
    <glyph glyph-name="section" unicode="&#xa7;" horiz-adv-x="1212" 
d="M603 -396q-315 0 -494 250l142 122q73 -105 157 -147.5t196 -42.5q120 0 193 45.5t95 123.5q2 16 2 23v35q0 6 -2 20q-17 58 -75.5 94t-157.5 62l-194 51q-176 46 -264.5 118.5t-103.5 190.5q-1 8 -1 23v127q0 21 1 30q16 92 87 162q-52 63 -66 151q-2 20 -2 31v80
q0 10 2 28q25 140 160.5 231t330.5 91q316 0 494 -249l-141 -122q-72 105 -156.5 146.5t-197.5 41.5q-120 0 -192.5 -45.5t-94.5 -123.5q-3 -12 -3 -23v-33q0 -11 3 -21q16 -58 74.5 -93.5t157.5 -61.5l195 -51q176 -46 264 -118.5t103 -191.5q1 -8 1 -23v-127q0 -20 -1 -29
q-16 -94 -86 -163q53 -63 66 -150q2 -22 2 -32v-79q0 -11 -2 -29q-25 -140 -161 -231t-331 -91zM298 620q0 -10 1 -20q12 -72 79.5 -116.5t189.5 -74.5l181 -45q66 -17 124 -41q32 36 40 80q1 10 1 19v65q0 10 -1 20q-11 72 -78.5 116.5t-189.5 74.5l-182 46q-68 17 -124 40
q-32 -37 -40 -79q-1 -11 -1 -20v-65z" />
    <glyph glyph-name="dieresis" unicode="&#xa8;" horiz-adv-x="841" 
d="M231 1270q-53 0 -90 37t-37 90q0 52 37.5 89t89.5 37t89.5 -37t37.5 -89t-37.5 -89.5t-89.5 -37.5zM610 1270q-52 0 -89.5 37t-37.5 90q0 52 37.5 89t89.5 37t89.5 -37t37.5 -89t-37.5 -89.5t-89.5 -37.5z" />
    <glyph glyph-name="copyright" unicode="&#xa9;" horiz-adv-x="1693" 
d="M846 -25q-330 0 -533.5 209t-203.5 553q0 170 55 313t152.5 241.5t234 153t295.5 54.5q214 0 382 -95t262 -269t94 -398t-94.5 -398t-262.5 -269t-381 -95zM857 336q-153 0 -254.5 95t-115.5 248v58v59q15 155 117 249t253 94q207 0 314 -154l-105 -90q-41 60 -90.5 87.5
t-123.5 27.5q-95 0 -153 -61.5t-65 -161.5v-50v-50q8 -98 67 -160t151 -62q72 0 119.5 26t94.5 86l99 -92q-56 -78 -129 -113.5t-179 -35.5zM846 97q267 0 435.5 175.5t168.5 464.5q0 290 -168.5 465.5t-435.5 175.5q-131 0 -242.5 -45.5t-191 -128t-124.5 -203t-45 -264.5
q0 -289 168 -464.5t435 -175.5z" />
    <glyph glyph-name="ordfeminine" unicode="&#xaa;" horiz-adv-x="825" 
d="M328 717q-97 0 -166.5 57.5t-77.5 143.5v80q10 91 80.5 146.5t180.5 55.5q118 0 201 -48v55q0 69 -36 100.5t-113 31.5h-247v136h268q145 0 213.5 -61.5t68.5 -191.5v-491h-129l-25 84q-44 -51 -95.5 -74.5t-122.5 -23.5zM381 848q93 0 165 85v87q-66 53 -159 53
q-133 0 -146 -98v-31q6 -42 43.5 -69t96.5 -27z" />
    <glyph glyph-name="guillemotleft" unicode="&#xab;" horiz-adv-x="956" 
d="M690 197l-265 419v71l265 419h169v-34l-264 -421l264 -421v-33h-169zM359 197l-264 419v71l264 419h170v-34l-264 -421l264 -421v-33h-170z" />
    <glyph glyph-name="logicalnot" unicode="&#xac;" horiz-adv-x="1011" 
d="M69 654v167h866v-517h-172v350h-694z" />
    <glyph glyph-name="uni00AD" unicode="&#xad;" horiz-adv-x="833" 
d="M99 528v171h636v-171h-636z" />
    <glyph glyph-name="registered" unicode="&#xae;" horiz-adv-x="1693" 
d="M846 -25q-330 0 -533.5 209t-203.5 553q0 170 55 313t152.5 241.5t234 153t295.5 54.5q214 0 382 -95t262 -269t94 -398t-94.5 -398t-262.5 -269t-381 -95zM846 97q267 0 435.5 175.5t168.5 464.5q0 290 -168.5 465.5t-435.5 175.5q-131 0 -242.5 -45.5t-191 -128
t-124.5 -203t-45 -264.5q0 -289 168 -464.5t435 -175.5zM598 348v778h314q110 0 174 -51.5t74 -141.5v-98q-8 -62 -43.5 -108t-96.5 -68l153 -293v-18h-135l-152 294h-160v-294h-128zM909 753q119 0 129 109v43q-9 109 -129 109h-183v-261h183z" />
    <glyph glyph-name="macron" unicode="&#xaf;" horiz-adv-x="940" 
d="M181 1320v153h579v-153h-579z" />
    <glyph glyph-name="degree" unicode="&#xb0;" horiz-adv-x="915" 
d="M458 867q-156 0 -260 100.5t-104 253.5t103.5 253.5t260.5 100.5t261 -100.5t104 -253.5q0 -154 -104 -254t-261 -100zM460 1002q95 0 154.5 61t59.5 158q0 98 -60 161t-154 63q-97 0 -157 -62t-60 -162q0 -99 59 -159t158 -60z" />
    <glyph glyph-name="plusminus" unicode="&#xb1;" horiz-adv-x="1011" 
d="M73 0v167h867v-167h-867zM420 458v349h-347v167h347v350h172v-350h348v-167h-348v-349h-172z" />
    <glyph glyph-name="two.sups" unicode="&#xb2;" horiz-adv-x="638" 
d="M62 737v128l267 226q76 66 91 117q6 20 6 31v28q0 16 -5 26q-27 68 -118 68q-98 0 -148 -113l-117 73q80 174 275 174q99 0 164 -42.5t87 -115.5q7 -18 7 -42v-57q0 -16 -3 -29q-7 -54 -40.5 -99t-88.5 -94l-166 -145h302v-134h-513z" />
    <glyph glyph-name="three.sups" unicode="&#xb3;" horiz-adv-x="649" 
d="M316 717q-104 0 -172.5 43t-113.5 132l122 76q54 -117 161 -117q44 0 75 19t43 54q6 14 6 32v31q0 19 -6 31q-26 67 -127 67h-50l-13 13v79l157 163h-319v135h486v-129l-155 -166q68 -11 115 -50t61 -98q3 -9 3 -28v-75q0 -22 -3 -32q-25 -81 -96.5 -130.5t-173.5 -49.5z
" />
    <glyph glyph-name="acute" unicode="&#xb4;" horiz-adv-x="600" 
d="M108 1241v34l152 277h232v-34l-241 -277h-143z" />
    <glyph glyph-name="uni00B5" unicode="&#xb5;" horiz-adv-x="1306" 
d="M147 -451v1557h190v-667q0 -48 10 -88q20 -101 86.5 -152t165.5 -51q96 0 168 52t112 151v755h190v-786q0 -79 32.5 -111t96.5 -32h36v-177h-51q-211 0 -278 162q-45 -88 -121 -136t-174 -48q-178 0 -273 111v-540h-190z" />
    <glyph glyph-name="paragraph" unicode="&#xb6;" horiz-adv-x="1374" 
d="M649 -369v989h-184q-188 0 -297 83t-131 242q-1 8 -1 25v157q0 19 1 27q23 156 131.5 238.5t292.5 82.5h754v-1844h-172v1685h-222v-1685h-172z" />
    <glyph glyph-name="periodcentered" unicode="&#xb7;" horiz-adv-x="493" 
d="M281 601q-57 0 -97 39.5t-40 96.5t40 97t97 40t96.5 -40t39.5 -97t-39.5 -96.5t-96.5 -39.5z" />
    <glyph glyph-name="cedilla" unicode="&#xb8;" horiz-adv-x="598" 
d="M123 -437v154h58q77 0 115.5 36.5t38.5 99.5q0 107 -87 147h181q70 -61 70 -181q0 -114 -81 -185t-211 -71h-84z" />
    <glyph glyph-name="one.sups" unicode="&#xb9;" horiz-adv-x="483" 
d="M241 737v563l-178 -144h-24v156l203 163h150v-738h-151z" />
    <glyph glyph-name="ordmasculine" unicode="&#xba;" horiz-adv-x="907" 
d="M454 717q-137 0 -238.5 76t-127.5 210q-4 28 -4 44v112q0 17 4 45q26 134 127 209.5t239 75.5q137 0 238 -75.5t127 -209.5q3 -21 3 -45v-112q0 -23 -3 -44q-26 -134 -127 -210t-238 -76zM454 862q77 0 134 44.5t71 121.5q4 16 4 36v77q0 22 -4 37q-14 77 -71 123
t-134 46t-134.5 -46t-72.5 -123q-4 -22 -4 -37v-77q0 -12 4 -36q15 -77 72.5 -121.5t134.5 -44.5z" />
    <glyph glyph-name="guillemotright" unicode="&#xbb;" horiz-adv-x="956" 
d="M597 197h-169v33l264 421l-264 421v34h169l265 -419v-71zM267 197h-169v33l264 421l-264 421v34h169l265 -419v-71z" />
    <glyph glyph-name="onequarter" unicode="&#xbc;" horiz-adv-x="1464" 
d="M215 0v30l842 1445h175v-30l-841 -1445h-176zM846 131v134l250 472h147v-25l-238 -447h173v124h148v-124h102v-134h-102v-131h-148v131h-332zM240 737v563l-177 -144h-25v156l203 163h151v-738h-152z" />
    <glyph glyph-name="onehalf" unicode="&#xbd;" horiz-adv-x="1544" 
d="M215 0v30l842 1445h175v-30l-841 -1445h-176zM966 0v128l266 225q77 67 92 118q5 17 5 31v27q0 19 -4 27q-27 68 -119 68q-98 0 -148 -113l-117 73q80 174 275 174q99 0 164 -42.5t87 -115.5q7 -18 7 -42v-58q0 -14 -3 -28q-7 -54 -40.5 -99t-88.5 -94l-165 -145h301
v-134h-512zM240 737v563l-177 -144h-25v156l203 163h151v-738h-152z" />
    <glyph glyph-name="threequarters" unicode="&#xbe;" horiz-adv-x="1605" 
d="M338 0v30l842 1445h175v-30l-841 -1445h-176zM969 131v134l250 472h147v-25l-238 -447h172v124h149v-124h102v-134h-102v-131h-149v131h-331zM359 717q-104 0 -172.5 43t-113.5 132l122 76q54 -117 161 -117q44 0 75 19t43 54q6 14 6 32v31q0 19 -6 31q-26 67 -127 67
h-50l-13 13v79l157 163h-319v135h486v-129l-155 -166q68 -11 115 -50t61 -98q3 -9 3 -28v-75q0 -22 -3 -32q-25 -81 -96.5 -130.5t-173.5 -49.5z" />
    <glyph glyph-name="questiondown" unicode="&#xbf;" horiz-adv-x="956" 
d="M485 -465q-176 0 -287.5 88t-132.5 241q-3 10 -3 33v101q0 14 0.5 23.5t0.5 10.5q14 143 103 231.5t230 105.5l29 253h142l15 -397h-75q-223 0 -248 -195q-2 -8 -2 -38v-73q0 -27 2 -35q14 -83 75.5 -130.5t155.5 -47.5q202 0 289 199l152 -90q-56 -134 -169.5 -207
t-276.5 -73zM495 862q-57 0 -97 40t-40 97q0 56 40 96t97 40t97 -40t40 -96q0 -57 -40 -97t-97 -40z" />
    <glyph glyph-name="Agrave" unicode="&#xc0;" horiz-adv-x="1380" 
d="M28 0v34l550 1441h250l556 -1441v-34h-205l-136 362h-676l-134 -362h-205zM620 1610l-240 277v34h231l152 -277v-34h-143zM433 540h543l-260 693h-26z" />
    <glyph glyph-name="Aacute" unicode="&#xc1;" horiz-adv-x="1380" 
d="M28 0v34l550 1441h250l556 -1441v-34h-205l-136 362h-676l-134 -362h-205zM618 1610v34l152 277h231v-34l-240 -277h-143zM433 540h543l-260 693h-26z" />
    <glyph glyph-name="Acircumflex" unicode="&#xc2;" horiz-adv-x="1380" 
d="M28 0v34l550 1441h250l556 -1441v-34h-205l-136 362h-676l-134 -362h-205zM363 1610v34l259 277h161l258 -277v-34h-180l-159 174l-159 -174h-180zM433 540h543l-260 693h-26z" />
    <glyph glyph-name="Atilde" unicode="&#xc3;" horiz-adv-x="1380" 
d="M28 0v34l550 1441h250l556 -1441v-34h-205l-136 362h-676l-134 -362h-205zM364 1703q0 92 49.5 146t129.5 54q45 0 76.5 -11t68.5 -35l62 -41q56 -38 86 -38q60 0 60 73v55h153v-80q0 -93 -49 -145.5t-130 -52.5q-77 0 -152 51l-64 43q-47 31 -77 31q-60 0 -60 -75v-53
h-153v78zM433 540h543l-260 693h-26z" />
    <glyph glyph-name="Adieresis" unicode="&#xc4;" horiz-adv-x="1380" 
d="M28 0v34l550 1441h250l556 -1441v-34h-205l-136 362h-676l-134 -362h-205zM517 1638q-53 0 -90 37t-37 90q0 52 37.5 89.5t89.5 37.5t89 -37.5t37 -89.5t-37 -89.5t-89 -37.5zM895 1638q-52 0 -89 37t-37 90q0 52 37 89.5t89 37.5t89.5 -37.5t37.5 -89.5t-37.5 -89.5
t-89.5 -37.5zM433 540h543l-260 693h-26z" />
    <glyph glyph-name="Aring" unicode="&#xc5;" horiz-adv-x="1380" 
d="M28 0v34l540 1415q-85 58 -85 165q0 87 59 145.5t149 58.5q91 0 150 -58t59 -146q0 -94 -67 -151l551 -1429v-34h-205l-136 362h-676l-134 -362h-205zM691 1520q39 0 67 27.5t28 66.5q0 42 -27 70t-68 28q-42 0 -68.5 -27.5t-26.5 -70.5q0 -41 26.5 -67.5t68.5 -26.5z
M433 540h543l-260 693h-26z" />
    <glyph glyph-name="AE" unicode="&#xc6;" horiz-adv-x="2125" 
d="M28 0v30l1005 1445h1004v-179h-729v-451h545v-177h-545v-489h729v-180h-929v362h-628l-246 -361h-206zM602 541h506v705h-26z" />
    <glyph glyph-name="Ccedilla" unicode="&#xc7;" horiz-adv-x="1415" 
d="M555 -437v154h58q77 0 115.5 36.5t38.5 99.5q0 77 -49 121q-223 17 -376.5 149t-210.5 351q-19 71 -19 146v236q0 72 19 139q60 236 236.5 372t428.5 136q186 0 319 -63t236 -198l-142 -125q-87 111 -177.5 157t-229.5 46q-181 0 -304 -93.5t-169 -258.5
q-14 -54 -14 -115v-231q0 -59 14 -112q46 -164 166 -260t287 -96q146 0 243.5 47.5t180.5 158.5l143 -126q-92 -119 -204.5 -181.5t-261.5 -76.5q47 -57 47 -157q0 -114 -81 -185t-211 -71h-83z" />
    <glyph glyph-name="Egrave" unicode="&#xc8;" horiz-adv-x="1200" 
d="M179 0v1475h933v-183h-730v-445h545v-181h-545v-484h730v-182h-933zM573 1610l-240 277v34h231l152 -277v-34h-143z" />
    <glyph glyph-name="Eacute" unicode="&#xc9;" horiz-adv-x="1200" 
d="M179 0v1475h933v-183h-730v-445h545v-181h-545v-484h730v-182h-933zM571 1610v34l152 277h231v-34l-240 -277h-143z" />
    <glyph glyph-name="Ecircumflex" unicode="&#xca;" horiz-adv-x="1200" 
d="M179 0v1475h933v-183h-730v-445h545v-181h-545v-484h730v-182h-933zM306 1610v34l258 277h162l258 -277v-34h-180l-159 174l-159 -174h-180z" />
    <glyph glyph-name="Edieresis" unicode="&#xcb;" horiz-adv-x="1200" 
d="M179 0v1475h933v-183h-730v-445h545v-181h-545v-484h730v-182h-933zM455 1638q-53 0 -90 37t-37 90q0 52 37.5 89.5t89.5 37.5t89 -37.5t37 -89.5t-37 -89.5t-89 -37.5zM834 1638q-52 0 -89.5 37t-37.5 90q0 52 37.5 89.5t89.5 37.5t89 -37.5t37 -89.5t-37 -89.5
t-89 -37.5z" />
    <glyph glyph-name="Igrave" unicode="&#xcc;" horiz-adv-x="561" 
d="M179 0v1475h203v-1475h-203zM209 1610l-240 277v34h231l152 -277v-34h-143z" />
    <glyph glyph-name="Iacute" unicode="&#xcd;" horiz-adv-x="561" 
d="M179 0v1475h203v-1475h-203zM207 1610v34l152 277h231v-34l-240 -277h-143z" />
    <glyph glyph-name="Icircumflex" unicode="&#xce;" horiz-adv-x="561" 
d="M179 0v1475h203v-1475h-203zM-58 1610v34l258 277h161l259 -277v-34h-180l-159 174l-159 -174h-180z" />
    <glyph glyph-name="Idieresis" unicode="&#xcf;" horiz-adv-x="561" 
d="M179 0v1475h203v-1475h-203zM91 1638q-53 0 -90 37t-37 90q0 52 37.5 89.5t89.5 37.5t89 -37.5t37 -89.5t-37 -89.5t-89 -37.5zM470 1638q-52 0 -89.5 37t-37.5 90q0 52 37.5 89.5t89.5 37.5t89 -37.5t37 -89.5t-37 -89.5t-89 -37.5z" />
    <glyph glyph-name="Eth" unicode="&#xd0;" horiz-adv-x="1454" 
d="M212 0v666h-147v142h147v667h471q275 0 446.5 -143t209.5 -394q2 -30 2 -46v-303q0 -16 -2 -46q-38 -254 -209.5 -398.5t-446.5 -144.5h-471zM686 182q198 0 312.5 99.5t137.5 288.5q2 32 2 51v234q0 18 -2 50q-23 188 -137.5 287.5t-312.5 99.5h-270v-484h304v-142h-304
v-484h270z" />
    <glyph glyph-name="Ntilde" unicode="&#xd1;" horiz-adv-x="1544" 
d="M179 0v1475h214l746 -1098h26v1098h199v-1475h-214l-746 1098h-26v-1098h-199zM430 1703q0 92 49 146t129 54q45 0 76.5 -11t68.5 -35l63 -41q56 -38 86 -38q60 0 60 73v55h153v-80q0 -93 -49 -145.5t-130 -52.5q-77 0 -152 51l-65 43q-47 31 -76 31q-60 0 -60 -75v-53
h-153v78z" />
    <glyph glyph-name="Ograve" unicode="&#xd2;" horiz-adv-x="1591" 
d="M796 -28q-273 0 -460.5 164.5t-221.5 443.5q-2 14 -2 44v227q0 29 2 43q34 279 221.5 444t460.5 165t460 -165t221 -444q3 -42 3 -43v-227q0 -2 -3 -44q-34 -279 -221 -443.5t-460 -164.5zM796 154q190 0 321 115.5t157 316.5q2 30 2 46v211q0 16 -2 46
q-26 201 -156.5 316t-321.5 115t-322 -115t-157 -316q-2 -30 -2 -46v-211q0 -16 2 -46q26 -201 157 -316.5t322 -115.5zM724 1610l-240 277v34h231l152 -277v-34h-143z" />
    <glyph glyph-name="Oacute" unicode="&#xd3;" horiz-adv-x="1591" 
d="M796 -28q-273 0 -460.5 164.5t-221.5 443.5q-2 14 -2 44v227q0 29 2 43q34 279 221.5 444t460.5 165t460 -165t221 -444q3 -42 3 -43v-227q0 -2 -3 -44q-34 -279 -221 -443.5t-460 -164.5zM796 154q190 0 321 115.5t157 316.5q2 30 2 46v211q0 16 -2 46
q-26 201 -156.5 316t-321.5 115t-322 -115t-157 -316q-2 -30 -2 -46v-211q0 -16 2 -46q26 -201 157 -316.5t322 -115.5zM722 1610v34l152 277h231v-34l-240 -277h-143z" />
    <glyph glyph-name="Ocircumflex" unicode="&#xd4;" horiz-adv-x="1591" 
d="M796 -28q-273 0 -460.5 164.5t-221.5 443.5q-2 14 -2 44v227q0 29 2 43q34 279 221.5 444t460.5 165t460 -165t221 -444q3 -42 3 -43v-227q0 -2 -3 -44q-34 -279 -221 -443.5t-460 -164.5zM796 154q190 0 321 115.5t157 316.5q2 30 2 46v211q0 16 -2 46
q-26 201 -156.5 316t-321.5 115t-322 -115t-157 -316q-2 -30 -2 -46v-211q0 -16 2 -46q26 -201 157 -316.5t322 -115.5zM457 1610v34l258 277h162l258 -277v-34h-180l-159 174l-159 -174h-180z" />
    <glyph glyph-name="Otilde" unicode="&#xd5;" horiz-adv-x="1591" 
d="M796 -28q-273 0 -460.5 164.5t-221.5 443.5q-2 14 -2 44v227q0 29 2 43q34 279 221.5 444t460.5 165t460 -165t221 -444q3 -42 3 -43v-227q0 -2 -3 -44q-34 -279 -221 -443.5t-460 -164.5zM796 154q190 0 321 115.5t157 316.5q2 30 2 46v211q0 16 -2 46
q-26 201 -156.5 316t-321.5 115t-322 -115t-157 -316q-2 -30 -2 -46v-211q0 -16 2 -46q26 -201 157 -316.5t322 -115.5zM453 1703q0 92 49.5 146t129.5 54q45 0 76.5 -11t68.5 -35l62 -41q56 -38 86 -38q60 0 60 73v55h153v-80q0 -93 -49 -145.5t-130 -52.5q-77 0 -152 51
l-64 43q-47 31 -77 31q-60 0 -60 -75v-53h-153v78z" />
    <glyph glyph-name="Odieresis" unicode="&#xd6;" horiz-adv-x="1591" 
d="M796 -28q-273 0 -460.5 164.5t-221.5 443.5q-2 14 -2 44v227q0 29 2 43q34 279 221.5 444t460.5 165t460 -165t221 -444q3 -42 3 -43v-227q0 -2 -3 -44q-34 -279 -221 -443.5t-460 -164.5zM796 154q190 0 321 115.5t157 316.5q2 30 2 46v211q0 16 -2 46
q-26 201 -156.5 316t-321.5 115t-322 -115t-157 -316q-2 -30 -2 -46v-211q0 -16 2 -46q26 -201 157 -316.5t322 -115.5zM606 1638q-52 0 -89.5 37t-37.5 90q0 52 37.5 89.5t89.5 37.5t89 -37.5t37 -89.5t-37 -89.5t-89 -37.5zM985 1638q-53 0 -90 37t-37 90q0 52 37.5 89.5
t89.5 37.5t89 -37.5t37 -89.5t-37 -89.5t-89 -37.5z" />
    <glyph glyph-name="multiply" unicode="&#xd7;" horiz-adv-x="1011" 
d="M223 336l-118 118l284 283l-284 284l118 117l283 -283l284 283l117 -117l-283 -284l283 -283l-117 -118l-284 284z" />
    <glyph glyph-name="Oslash" unicode="&#xd8;" horiz-adv-x="1607" 
d="M178 -28l-92 83v24l159 169q-98 142 -122 332q-2 14 -2 44v227q0 29 2 43q34 279 221.5 444t460.5 165q279 0 465 -169l160 169l91 -79v-25l-160 -169q101 -141 125 -336q3 -42 3 -43v-227q0 -2 -3 -44q-34 -279 -221 -443.5t-460 -164.5q-282 0 -467 170zM805 154
q190 0 321 115.5t157 316.5q2 30 2 46v211q0 16 -2 46q-13 107 -60 194l-753 -801q133 -128 335 -128zM325 632q0 -16 2 -46q13 -105 58 -190l753 798q-131 126 -333 126q-191 0 -321.5 -115t-156.5 -316q-2 -30 -2 -46v-211z" />
    <glyph glyph-name="Ugrave" unicode="&#xd9;" horiz-adv-x="1462" 
d="M732 -28q-257 0 -408 145.5t-151 390.5v967h203v-991q0 -39 9 -80q26 -117 116.5 -183.5t230.5 -66.5q139 0 229.5 66.5t116.5 183.5q9 41 9 80v991h204v-967q0 -247 -150 -391.5t-409 -144.5zM660 1610l-240 277v34h232l152 -277v-34h-144z" />
    <glyph glyph-name="Uacute" unicode="&#xda;" horiz-adv-x="1462" 
d="M732 -28q-257 0 -408 145.5t-151 390.5v967h203v-991q0 -39 9 -80q26 -117 116.5 -183.5t230.5 -66.5q139 0 229.5 66.5t116.5 183.5q9 41 9 80v991h204v-967q0 -247 -150 -391.5t-409 -144.5zM658 1610v34l152 277h232v-34l-240 -277h-144z" />
    <glyph glyph-name="Ucircumflex" unicode="&#xdb;" horiz-adv-x="1462" 
d="M732 -28q-257 0 -408 145.5t-151 390.5v967h203v-991q0 -39 9 -80q26 -117 116.5 -183.5t230.5 -66.5q139 0 229.5 66.5t116.5 183.5q9 41 9 80v991h204v-967q0 -247 -150 -391.5t-409 -144.5zM393 1610v34l259 277h161l259 -277v-34h-181l-158 174l-160 -174h-180z" />
    <glyph glyph-name="Udieresis" unicode="&#xdc;" horiz-adv-x="1462" 
d="M732 -28q-257 0 -408 145.5t-151 390.5v967h203v-991q0 -39 9 -80q26 -117 116.5 -183.5t230.5 -66.5q139 0 229.5 66.5t116.5 183.5q9 41 9 80v991h204v-967q0 -247 -150 -391.5t-409 -144.5zM542 1638q-52 0 -89.5 37t-37.5 90q0 52 37.5 89.5t89.5 37.5t89.5 -37.5
t37.5 -89.5t-37.5 -89.5t-89.5 -37.5zM921 1638q-53 0 -90 37t-37 90q0 52 37.5 89.5t89.5 37.5t89.5 -37.5t37.5 -89.5t-37.5 -89.5t-89.5 -37.5z" />
    <glyph glyph-name="Yacute" unicode="&#xdd;" horiz-adv-x="1257" 
d="M527 0v560l-501 881v34h213l377 -687h26l376 687h213v-34l-500 -881v-560h-204zM554 1610v34l153 277h231v-34l-240 -277h-144z" />
    <glyph glyph-name="Thorn" unicode="&#xde;" horiz-adv-x="1280" 
d="M179 1475h203v-274h354q191 0 306 -77.5t154 -221.5q5 -23 5 -68v-184q0 -44 -5 -65q-39 -145 -154.5 -225t-305.5 -80h-354v-280h-203v1475zM382 462h347q221 0 268 179q5 21 5 62v77q0 39 -5 59q-47 179 -268 179h-347v-556z" />
    <glyph glyph-name="germandbls" unicode="&#xdf;" horiz-adv-x="1273" 
d="M157 1159q0 206 134.5 336.5t344.5 130.5q171 0 286 -72.5t156 -206.5q15 -42 15 -85v-111q0 -53 -20 -95q-38 -116 -160 -172q83 -24 143.5 -75.5t89.5 -131.5q32 -57 32 -128v-177q0 -59 -30 -121q-48 -116 -161.5 -183.5t-269.5 -67.5h-205v174h190q91 0 160.5 38
t102.5 114q23 37 23 114v83q0 79 -30 124q-33 74 -101.5 107t-183.5 33h-161v169h130q96 0 160.5 38t90.5 113q12 30 12 70v51q0 36 -14 66q-29 73 -95.5 114t-158.5 41q-123 0 -206.5 -79t-83.5 -231v-1139h-190v1159z" />
    <glyph glyph-name="agrave" unicode="&#xe0;" horiz-adv-x="1140" 
d="M467 -28q-151 0 -253 81t-115 212v127q20 135 129 213t279 78q160 0 288 -75v112q0 113 -46 161.5t-161 48.5h-391v176h404q209 0 296.5 -91.5t87.5 -292.5v-722h-145l-43 146q-65 -89 -145 -131.5t-185 -42.5zM504 141q88 0 156.5 33.5t134.5 109.5v153q-106 87 -275 87
q-103 0 -165.5 -43.5t-70.5 -122.5v-54q7 -72 68.5 -117.5t151.5 -45.5zM507 1241l-240 277v34h232l152 -277v-34h-144z" />
    <glyph glyph-name="aacute" unicode="&#xe1;" horiz-adv-x="1140" 
d="M467 -28q-151 0 -253 81t-115 212v127q20 135 129 213t279 78q160 0 288 -75v112q0 113 -46 161.5t-161 48.5h-391v176h404q209 0 296.5 -91.5t87.5 -292.5v-722h-145l-43 146q-65 -89 -145 -131.5t-185 -42.5zM504 141q88 0 156.5 33.5t134.5 109.5v153q-106 87 -275 87
q-103 0 -165.5 -43.5t-70.5 -122.5v-54q7 -72 68.5 -117.5t151.5 -45.5zM505 1241v34l152 277h232v-34l-240 -277h-144z" />
    <glyph glyph-name="acircumflex" unicode="&#xe2;" horiz-adv-x="1140" 
d="M467 -28q-151 0 -253 81t-115 212v127q20 135 129 213t279 78q160 0 288 -75v112q0 113 -46 161.5t-161 48.5h-391v176h404q209 0 296.5 -91.5t87.5 -292.5v-722h-145l-43 146q-65 -89 -145 -131.5t-185 -42.5zM504 141q88 0 156.5 33.5t134.5 109.5v153q-106 87 -275 87
q-103 0 -165.5 -43.5t-70.5 -122.5v-54q7 -72 68.5 -117.5t151.5 -45.5zM240 1241v34l259 277h161l259 -277v-34h-181l-158 175l-160 -175h-180z" />
    <glyph glyph-name="atilde" unicode="&#xe3;" horiz-adv-x="1140" 
d="M467 -28q-151 0 -253 81t-115 212v127q20 135 129 213t279 78q160 0 288 -75v112q0 113 -46 161.5t-161 48.5h-391v176h404q209 0 296.5 -91.5t87.5 -292.5v-722h-145l-43 146q-65 -89 -145 -131.5t-185 -42.5zM504 141q88 0 156.5 33.5t134.5 109.5v153q-106 87 -275 87
q-103 0 -165.5 -43.5t-70.5 -122.5v-54q7 -72 68.5 -117.5t151.5 -45.5zM237 1335q0 92 49 145.5t129 53.5q45 0 76.5 -11t68.5 -35l63 -41q56 -38 86 -38q60 0 60 73v55h153v-80q0 -93 -49 -145.5t-130 -52.5q-77 0 -152 51l-65 43q-47 31 -76 31q-60 0 -60 -74v-54h-153
v79z" />
    <glyph glyph-name="adieresis" unicode="&#xe4;" horiz-adv-x="1140" 
d="M467 -28q-151 0 -253 81t-115 212v127q20 135 129 213t279 78q160 0 288 -75v112q0 113 -46 161.5t-161 48.5h-391v176h404q209 0 296.5 -91.5t87.5 -292.5v-722h-145l-43 146q-65 -89 -145 -131.5t-185 -42.5zM504 141q88 0 156.5 33.5t134.5 109.5v153q-106 87 -275 87
q-103 0 -165.5 -43.5t-70.5 -122.5v-54q7 -72 68.5 -117.5t151.5 -45.5zM389 1270q-53 0 -90 37t-37 90q0 52 37.5 89t89.5 37t89.5 -37t37.5 -89t-37.5 -89.5t-89.5 -37.5zM768 1270q-52 0 -89.5 37t-37.5 90q0 52 37.5 89t89.5 37t89 -37t37 -89t-37 -89.5t-89 -37.5z" />
    <glyph glyph-name="aring" unicode="&#xe5;" horiz-adv-x="1140" 
d="M467 -28q-151 0 -253 81t-115 212v127q20 135 129 213t279 78q160 0 288 -75v112q0 113 -46 161.5t-161 48.5h-391v176h404q209 0 296.5 -91.5t87.5 -292.5v-722h-145l-43 146q-65 -89 -145 -131.5t-185 -42.5zM504 141q88 0 156.5 33.5t134.5 109.5v153q-106 87 -275 87
q-103 0 -165.5 -43.5t-70.5 -122.5v-54q7 -72 68.5 -117.5t151.5 -45.5zM579 1219q-90 0 -149 57.5t-59 143.5q0 87 59 145t149 58q91 0 149.5 -57.5t58.5 -145.5q0 -87 -59 -144t-149 -57zM579 1325q39 0 67 27.5t28 67.5q0 42 -27 69.5t-68 27.5q-42 0 -69 -27t-27 -70
q0 -41 27 -68t69 -27z" />
    <glyph glyph-name="ae" unicode="&#xe6;" horiz-adv-x="1923" 
d="M1338 -28q-304 0 -451 233q-83 -123 -179.5 -178t-240.5 -55q-149 0 -252 78.5t-116 203.5v127q20 124 129 196.5t279 72.5h288v70q0 113 -46 161.5t-161 48.5h-391v176h413q241 0 324 -146q147 174 393 174q205 0 335 -112t165 -302q6 -28 6 -60v-139l-25 -25h-820
q16 -165 107.5 -258t242.5 -93q107 0 181 39.5t140 125.5l134 -117q-163 -221 -455 -221zM504 141q89 0 157.5 38.5t133.5 126.5v189h-275q-105 0 -166.5 -39t-69.5 -109v-54q7 -67 69 -109.5t151 -42.5zM1649 650q-10 139 -98 227t-222 88q-139 0 -227.5 -86.5
t-110.5 -228.5h658z" />
    <glyph glyph-name="ccedilla" unicode="&#xe7;" horiz-adv-x="1153" 
d="M412 -437v154h58q77 0 115.5 36.5t38.5 99.5q0 77 -49 121q-182 17 -309.5 133.5t-163.5 301.5q-5 56 -5 144t5 144q41 200 185.5 318.5t346.5 118.5q156 0 267.5 -55.5t188.5 -170.5l-139 -119q-60 94 -135 133.5t-188 39.5q-125 0 -219 -75.5t-119 -198.5
q-4 -74 -4 -135q0 -62 4 -134q26 -120 121.5 -197t216.5 -77q103 0 177 37t143 130l132 -123q-129 -178 -342 -210q49 -58 49 -160q0 -114 -81 -185t-211 -71h-83z" />
    <glyph glyph-name="egrave" unicode="&#xe8;" horiz-adv-x="1218" 
d="M632 -28q-216 0 -351.5 118t-178.5 318q-5 24 -5 60v170q0 33 5 56q44 197 179 318.5t341 121.5q205 0 334.5 -112t165.5 -302q5 -24 5 -60v-139l-25 -25h-817q15 -165 106 -258t241 -93q108 0 182 39.5t140 125.5l133 -117q-163 -221 -455 -221zM553 1241l-240 277v34
h232l152 -277v-34h-144zM289 650h654q-9 139 -97 227t-222 88q-138 0 -225.5 -86.5t-109.5 -228.5z" />
    <glyph glyph-name="eacute" unicode="&#xe9;" horiz-adv-x="1218" 
d="M632 -28q-216 0 -351.5 118t-178.5 318q-5 24 -5 60v170q0 33 5 56q44 197 179 318.5t341 121.5q205 0 334.5 -112t165.5 -302q5 -24 5 -60v-139l-25 -25h-817q15 -165 106 -258t241 -93q108 0 182 39.5t140 125.5l133 -117q-163 -221 -455 -221zM551 1241v34l152 277
h232v-34l-240 -277h-144zM289 650h654q-9 139 -97 227t-222 88q-138 0 -225.5 -86.5t-109.5 -228.5z" />
    <glyph glyph-name="ecircumflex" unicode="&#xea;" horiz-adv-x="1218" 
d="M632 -28q-216 0 -351.5 118t-178.5 318q-5 24 -5 60v170q0 33 5 56q44 197 179 318.5t341 121.5q205 0 334.5 -112t165.5 -302q5 -24 5 -60v-139l-25 -25h-817q15 -165 106 -258t241 -93q108 0 182 39.5t140 125.5l133 -117q-163 -221 -455 -221zM286 1241v34l259 277
h161l259 -277v-34h-181l-158 175l-160 -175h-180zM289 650h654q-9 139 -97 227t-222 88q-138 0 -225.5 -86.5t-109.5 -228.5z" />
    <glyph glyph-name="edieresis" unicode="&#xeb;" horiz-adv-x="1218" 
d="M632 -28q-216 0 -351.5 118t-178.5 318q-5 24 -5 60v170q0 33 5 56q44 197 179 318.5t341 121.5q205 0 334.5 -112t165.5 -302q5 -24 5 -60v-139l-25 -25h-817q15 -165 106 -258t241 -93q108 0 182 39.5t140 125.5l133 -117q-163 -221 -455 -221zM435 1270q-53 0 -90 37
t-37 90q0 52 37.5 89t89.5 37t89.5 -37t37.5 -89t-37.5 -89.5t-89.5 -37.5zM814 1270q-52 0 -89.5 37t-37.5 90q0 52 37.5 89t89.5 37t89.5 -37t37.5 -89t-37.5 -89.5t-89.5 -37.5zM289 650h654q-9 139 -97 227t-222 88q-138 0 -225.5 -86.5t-109.5 -228.5z" />
    <glyph glyph-name="igrave" unicode="&#xec;" horiz-adv-x="516" 
d="M163 0v1106h190v-1106h-190zM186 1241l-240 277v34h232l152 -277v-34h-144z" />
    <glyph glyph-name="iacute" unicode="&#xed;" horiz-adv-x="516" 
d="M163 0v1106h190v-1106h-190zM184 1241v34l152 277h232v-34l-240 -277h-144z" />
    <glyph glyph-name="icircumflex" unicode="&#xee;" horiz-adv-x="516" 
d="M163 0v1106h190v-1106h-190zM-81 1241v34l259 277h161l259 -277v-34h-181l-158 175l-160 -175h-180z" />
    <glyph glyph-name="idieresis" unicode="&#xef;" horiz-adv-x="516" 
d="M163 0v1106h190v-1106h-190zM68 1270q-52 0 -89.5 37t-37.5 90q0 52 37.5 89t89.5 37t89.5 -37t37.5 -89t-37.5 -89.5t-89.5 -37.5zM447 1270q-53 0 -90 37t-37 90q0 52 37.5 89t89.5 37t89 -37t37 -89t-37 -89.5t-89 -37.5z" />
    <glyph glyph-name="eth" unicode="&#xf0;" horiz-adv-x="1271" 
d="M636 -28q-202 0 -349 118t-184 309q-6 31 -6 61v134q0 27 6 66q37 190 186 308t347 117q140 0 241 -59q-70 145 -164 259l-340 -111l-45 142l275 90q-88 86 -193 158v33h225q74 -48 151 -131l298 98l47 -142l-243 -80q114 -154 192 -331.5t89 -329.5q7 -46 7 -67v-154
q0 -25 -7 -61q-37 -191 -184 -309t-349 -118zM636 145q131 0 227.5 75.5t119.5 196.5q4 18 4 55v110q0 46 -4 61q-23 121 -119.5 195.5t-227.5 74.5q-132 0 -227 -74.5t-119 -195.5q-5 -19 -5 -61v-110q0 -32 5 -55q24 -121 119.5 -196.5t226.5 -75.5z" />
    <glyph glyph-name="ntilde" unicode="&#xf1;" horiz-adv-x="1251" 
d="M163 0v1106h145l44 -145q49 77 136 125t201 48q193 0 300.5 -113t107.5 -312v-709h-190v699q-7 114 -74 186.5t-191 72.5q-99 0 -175.5 -54.5t-113.5 -148.5v-755h-190zM310 1335q0 92 49 145.5t129 53.5q45 0 76.5 -11t68.5 -35l63 -41q56 -38 86 -38q60 0 60 73v55h153
v-80q0 -93 -49 -145.5t-130 -52.5q-77 0 -152 51l-64 43q-47 31 -77 31q-60 0 -60 -74v-54h-153v79z" />
    <glyph glyph-name="ograve" unicode="&#xf2;" horiz-adv-x="1263" 
d="M636 -28q-127 0 -237.5 49t-190.5 147t-105 231q-6 31 -6 67v174q0 36 6 67q25 133 105 231t190.5 147t237.5 49t237.5 -49t190.5 -147t105 -231q7 -37 7 -67v-174q0 -30 -7 -67q-25 -133 -105 -231t-190.5 -147t-237.5 -49zM636 145q80 0 151 30t124 93t70 149
q5 30 5 61v150q0 31 -5 61q-17 86 -70 149.5t-124 93.5t-151 30t-151 -30t-124 -93.5t-69 -149.5q-5 -23 -5 -61v-150q0 -38 5 -61q24 -128 122 -200t222 -72zM560 1241l-240 277v34h231l152 -277v-34h-143z" />
    <glyph glyph-name="oacute" unicode="&#xf3;" horiz-adv-x="1263" 
d="M636 -28q-127 0 -237.5 49t-190.5 147t-105 231q-6 31 -6 67v174q0 36 6 67q25 133 105 231t190.5 147t237.5 49t237.5 -49t190.5 -147t105 -231q7 -37 7 -67v-174q0 -30 -7 -67q-25 -133 -105 -231t-190.5 -147t-237.5 -49zM636 145q80 0 151 30t124 93t70 149
q5 30 5 61v150q0 31 -5 61q-17 86 -70 149.5t-124 93.5t-151 30t-151 -30t-124 -93.5t-69 -149.5q-5 -23 -5 -61v-150q0 -38 5 -61q24 -128 122 -200t222 -72zM558 1241v34l152 277h232v-34l-241 -277h-143z" />
    <glyph glyph-name="ocircumflex" unicode="&#xf4;" horiz-adv-x="1263" 
d="M636 -28q-127 0 -237.5 49t-190.5 147t-105 231q-6 31 -6 67v174q0 36 6 67q25 133 105 231t190.5 147t237.5 49t237.5 -49t190.5 -147t105 -231q7 -37 7 -67v-174q0 -30 -7 -67q-25 -133 -105 -231t-190.5 -147t-237.5 -49zM636 145q80 0 151 30t124 93t70 149
q5 30 5 61v150q0 31 -5 61q-17 86 -70 149.5t-124 93.5t-151 30t-151 -30t-124 -93.5t-69 -149.5q-5 -23 -5 -61v-150q0 -38 5 -61q24 -128 122 -200t222 -72zM293 1241v34l258 277h162l258 -277v-34h-180l-159 175l-159 -175h-180z" />
    <glyph glyph-name="otilde" unicode="&#xf5;" horiz-adv-x="1271" 
d="M636 -28q-127 0 -237.5 49t-190.5 147t-105 231q-6 31 -6 67v174q0 36 6 67q25 133 105 231t190.5 147t237.5 49t237.5 -49t190.5 -147t105 -231q7 -37 7 -67v-174q0 -30 -7 -67q-25 -133 -105 -231t-190.5 -147t-237.5 -49zM636 145q80 0 151 30t124 93t70 149
q5 30 5 61v150q0 31 -5 61q-17 86 -70 149.5t-124 93.5t-151 30t-151 -30t-124 -93.5t-69 -149.5q-5 -23 -5 -61v-150q0 -38 5 -61q24 -128 122 -200t222 -72zM294 1335q0 92 49.5 145.5t129.5 53.5q45 0 76.5 -11t68.5 -35l62 -41q56 -38 86 -38q60 0 60 73v55h153v-80
q0 -93 -49 -145.5t-129 -52.5q-77 0 -152 51l-65 43q-47 31 -77 31q-60 0 -60 -74v-54h-153v79z" />
    <glyph glyph-name="odieresis" unicode="&#xf6;" horiz-adv-x="1263" 
d="M636 -28q-127 0 -237.5 49t-190.5 147t-105 231q-6 31 -6 67v174q0 36 6 67q25 133 105 231t190.5 147t237.5 49t237.5 -49t190.5 -147t105 -231q7 -37 7 -67v-174q0 -30 -7 -67q-25 -133 -105 -231t-190.5 -147t-237.5 -49zM636 145q80 0 151 30t124 93t70 149
q5 30 5 61v150q0 31 -5 61q-17 86 -70 149.5t-124 93.5t-151 30t-151 -30t-124 -93.5t-69 -149.5q-5 -23 -5 -61v-150q0 -38 5 -61q24 -128 122 -200t222 -72zM442 1270q-52 0 -89.5 37t-37.5 90q0 52 37.5 89t89.5 37t89 -37t37 -89t-37 -89.5t-89 -37.5zM821 1270
q-53 0 -90 37t-37 90q0 52 37.5 89t89.5 37t89 -37t37 -89t-37 -89.5t-89 -37.5z" />
    <glyph glyph-name="divide" unicode="&#xf7;" horiz-adv-x="1011" 
d="M73 654v167h867v-167h-867zM507 264q-57 0 -96.5 40t-39.5 97t39.5 97t96.5 40t97 -40t40 -97t-40 -97t-97 -40zM507 937q-57 0 -96.5 40t-39.5 97t39.5 96.5t96.5 39.5t97 -39.5t40 -96.5q0 -56 -40 -96.5t-97 -40.5z" />
    <glyph glyph-name="oslash" unicode="&#xf8;" horiz-adv-x="1284" 
d="M192 -28l-90 81v25l100 106q-69 94 -92 215q-6 31 -6 67v174q0 36 6 67q25 133 105 231t190.5 147t237.5 49q197 0 345 -114l106 114l89 -77v-25l-101 -108q71 -94 94 -217q6 -31 6 -67v-174q0 -36 -6 -67q-25 -133 -105 -231t-190.5 -147t-237.5 -49q-197 0 -345 114z
M643 145q80 0 151 30t124 93t70 149q4 24 4 61v150q0 37 -4 61q-9 47 -35 97l-532 -569q95 -72 222 -72zM294 478q0 -43 4 -61q11 -53 33 -95l534 568q-95 72 -222 72q-80 0 -151 -30t-124.5 -93.5t-69.5 -149.5q-4 -18 -4 -61v-150z" />
    <glyph glyph-name="ugrave" unicode="&#xf9;" horiz-adv-x="1239" 
d="M559 -28q-192 0 -298 109t-106 307v718h190v-699q7 -113 74 -186t187 -73q98 0 170 54t110 149v755h190v-1106h-144l-45 146q-107 -174 -328 -174zM543 1241l-240 277v34h232l152 -277v-34h-144z" />
    <glyph glyph-name="uacute" unicode="&#xfa;" horiz-adv-x="1239" 
d="M559 -28q-192 0 -298 109t-106 307v718h190v-699q7 -113 74 -186t187 -73q98 0 170 54t110 149v755h190v-1106h-144l-45 146q-107 -174 -328 -174zM541 1241v34l152 277h232v-34l-240 -277h-144z" />
    <glyph glyph-name="ucircumflex" unicode="&#xfb;" horiz-adv-x="1239" 
d="M559 -28q-192 0 -298 109t-106 307v718h190v-699q7 -113 74 -186t187 -73q98 0 170 54t110 149v755h190v-1106h-144l-45 146q-107 -174 -328 -174zM276 1241v34l259 277h161l258 -277v-34h-180l-159 175l-159 -175h-180z" />
    <glyph glyph-name="udieresis" unicode="&#xfc;" horiz-adv-x="1239" 
d="M559 -28q-192 0 -298 109t-106 307v718h190v-699q7 -113 74 -186t187 -73q98 0 170 54t110 149v755h190v-1106h-144l-45 146q-107 -174 -328 -174zM425 1270q-53 0 -90 37t-37 90q0 52 37.5 89t89.5 37t89 -37t37 -89t-37 -89.5t-89 -37.5zM804 1270q-52 0 -89.5 37
t-37.5 90q0 52 37.5 89t89.5 37t89 -37t37 -89t-37 -89.5t-89 -37.5z" />
    <glyph glyph-name="yacute" unicode="&#xfd;" horiz-adv-x="1157" 
d="M170 -451v177h131q90 0 134 36.5t44 112.5q0 41 -38 140l-407 1057v34h197l342 -930h27l304 930h192v-34l-438 -1252q-54 -156 -130.5 -213.5t-232.5 -57.5h-125zM491 1241v34l152 277h231v-34l-240 -277h-143z" />
    <glyph glyph-name="thorn" unicode="&#xfe;" horiz-adv-x="1300" 
d="M163 -451v2048h190v-620q63 75 156.5 116t203.5 41q185 0 306.5 -95.5t166.5 -267.5q18 -102 18 -219q0 -115 -20 -220q-46 -170 -165.5 -265t-299.5 -95q-124 0 -212 38t-154 120v-581h-190zM672 145q129 0 213.5 67t117.5 188q14 75 14 153t-14 154q-33 119 -118.5 187
t-212.5 68q-102 0 -186 -57t-133 -160v-393q50 -107 127 -157t192 -50z" />
    <glyph glyph-name="ydieresis" unicode="&#xff;" horiz-adv-x="1157" 
d="M170 -451v177h131q90 0 134 36.5t44 112.5q0 41 -38 140l-407 1057v34h197l342 -930h27l304 930h192v-34l-438 -1252q-54 -156 -130.5 -213.5t-232.5 -57.5h-125zM375 1270q-53 0 -90 37t-37 90q0 52 37.5 89t89.5 37t89 -37t37 -89t-37 -89.5t-89 -37.5zM754 1270
q-52 0 -89.5 37t-37.5 90q0 52 37.5 89t89.5 37t89 -37t37 -89t-37 -89.5t-89 -37.5z" />
    <glyph glyph-name="Amacron" unicode="&#x100;" horiz-adv-x="1380" 
d="M28 0v34l550 1441h250l556 -1441v-34h-205l-136 362h-676l-134 -362h-205zM418 1689v153h579v-153h-579zM433 540h543l-260 693h-26z" />
    <glyph glyph-name="amacron" unicode="&#x101;" horiz-adv-x="1140" 
d="M467 -28q-151 0 -253 81t-115 212v127q20 135 129 213t279 78q160 0 288 -75v112q0 113 -46 161.5t-161 48.5h-391v176h404q209 0 296.5 -91.5t87.5 -292.5v-722h-145l-43 146q-65 -89 -145 -131.5t-185 -42.5zM504 141q88 0 156.5 33.5t134.5 109.5v153q-106 87 -275 87
q-103 0 -165.5 -43.5t-70.5 -122.5v-54q7 -72 68.5 -117.5t151.5 -45.5zM290 1320v153h579v-153h-579z" />
    <glyph glyph-name="Abreve" unicode="&#x102;" horiz-adv-x="1380" 
d="M28 0v34l550 1441h250l556 -1441v-34h-205l-136 362h-676l-134 -362h-205zM706 1610q-152 0 -236.5 83.5t-84.5 227.5h160q0 -81 42 -128.5t118 -47.5t117.5 47.5t41.5 128.5h161q0 -144 -84 -227.5t-235 -83.5zM433 540h543l-260 693h-26z" />
    <glyph glyph-name="abreve" unicode="&#x103;" horiz-adv-x="1140" 
d="M467 -28q-151 0 -253 81t-115 212v127q20 135 129 213t279 78q160 0 288 -75v112q0 113 -46 161.5t-161 48.5h-391v176h404q209 0 296.5 -91.5t87.5 -292.5v-722h-145l-43 146q-65 -89 -145 -131.5t-185 -42.5zM504 141q88 0 156.5 33.5t134.5 109.5v153q-106 87 -275 87
q-103 0 -165.5 -43.5t-70.5 -122.5v-54q7 -72 68.5 -117.5t151.5 -45.5zM581 1241q-152 0 -236.5 83.5t-84.5 227.5h160q0 -81 42 -128t118 -47t117.5 47t41.5 128h161q0 -144 -84 -227.5t-235 -83.5z" />
    <glyph glyph-name="Aogonek" unicode="&#x104;" horiz-adv-x="1413" 
d="M28 0v34l550 1441h250l556 -1441v-34q-71 -24 -114.5 -71t-43.5 -111q0 -49 28.5 -75t79.5 -26h50v-154h-76q-116 0 -181 63.5t-65 169.5q0 128 112 217l-131 349h-676l-134 -362h-205zM433 540h543l-260 693h-26z" />
    <glyph glyph-name="aogonek" unicode="&#x105;" horiz-adv-x="1140" 
d="M467 -28q-151 0 -253 81t-115 212v127q20 135 129 213t279 78q160 0 288 -75v112q0 113 -46 161.5t-161 48.5h-391v176h404q209 0 296.5 -91.5t87.5 -292.5v-722q-71 -24 -114.5 -71t-43.5 -111q0 -49 28.5 -75t79.5 -26h50v-154h-76q-116 0 -181 63.5t-65 169.5
q0 84 46.5 148t116.5 103l-29 99q-65 -89 -145 -131.5t-185 -42.5zM504 141q88 0 156.5 33.5t134.5 109.5v153q-106 87 -275 87q-103 0 -165.5 -43.5t-70.5 -122.5v-54q7 -72 68.5 -117.5t151.5 -45.5z" />
    <glyph glyph-name="Cacute" unicode="&#x106;" horiz-adv-x="1415" 
d="M782 -28q-248 0 -419 134t-232 368q-19 71 -19 146v236q0 72 19 139q60 236 236.5 372t428.5 136q186 0 319 -63t236 -198l-142 -125q-87 111 -177.5 157t-229.5 46q-181 0 -304 -93.5t-169 -258.5q-14 -54 -14 -115v-231q0 -59 14 -112q46 -164 166 -260t287 -96
q146 0 243.5 47.5t180.5 158.5l143 -126q-106 -137 -241 -199.5t-326 -62.5zM705 1610v34l152 277h232v-34l-241 -277h-143z" />
    <glyph glyph-name="cacute" unicode="&#x107;" horiz-adv-x="1153" 
d="M634 -28q-203 0 -348 119t-184 318q-5 56 -5 144t5 144q41 200 185.5 318.5t346.5 118.5q156 0 267.5 -55.5t188.5 -170.5l-139 -119q-60 94 -135 133.5t-188 39.5q-125 0 -219 -75.5t-119 -198.5q-4 -74 -4 -135q0 -62 4 -134q26 -120 121.5 -197t216.5 -77
q103 0 177 37t143 130l132 -123q-81 -112 -190.5 -164.5t-255.5 -52.5zM549 1241v34l152 277h232v-34l-240 -277h-144z" />
    <glyph glyph-name="Ccircumflex" unicode="&#x108;" horiz-adv-x="1415" 
d="M782 -28q-248 0 -419 134t-232 368q-19 71 -19 146v236q0 72 19 139q60 236 236.5 372t428.5 136q186 0 319 -63t236 -198l-142 -125q-87 111 -177.5 157t-229.5 46q-181 0 -304 -93.5t-169 -258.5q-14 -54 -14 -115v-231q0 -59 14 -112q46 -164 166 -260t287 -96
q146 0 243.5 47.5t180.5 158.5l143 -126q-106 -137 -241 -199.5t-326 -62.5zM439 1610v34l259 277h161l259 -277v-34h-181l-158 174l-159 -174h-181z" />
    <glyph glyph-name="ccircumflex" unicode="&#x109;" horiz-adv-x="1153" 
d="M634 -28q-203 0 -348 119t-184 318q-5 56 -5 144t5 144q41 200 185.5 318.5t346.5 118.5q156 0 267.5 -55.5t188.5 -170.5l-139 -119q-60 94 -135 133.5t-188 39.5q-125 0 -219 -75.5t-119 -198.5q-4 -74 -4 -135q0 -62 4 -134q26 -120 121.5 -197t216.5 -77
q103 0 177 37t143 130l132 -123q-81 -112 -190.5 -164.5t-255.5 -52.5zM284 1241v34l259 277h161l259 -277v-34h-181l-158 175l-160 -175h-180z" />
    <glyph glyph-name="Cdotaccent" unicode="&#x10a;" horiz-adv-x="1415" 
d="M782 -28q-248 0 -419 134t-232 368q-19 71 -19 146v236q0 72 19 139q60 236 236.5 372t428.5 136q186 0 319 -63t236 -198l-142 -125q-87 111 -177.5 157t-229.5 46q-181 0 -304 -93.5t-169 -258.5q-14 -54 -14 -115v-231q0 -59 14 -112q46 -164 166 -260t287 -96
q146 0 243.5 47.5t180.5 158.5l143 -126q-106 -137 -241 -199.5t-326 -62.5zM778 1673q-56 0 -96 39.5t-40 96.5t40 97t96 40q57 0 97 -40t40 -97t-40 -96.5t-97 -39.5z" />
    <glyph glyph-name="cdotaccent" unicode="&#x10b;" horiz-adv-x="1153" 
d="M634 -28q-203 0 -348 119t-184 318q-5 56 -5 144t5 144q41 200 185.5 318.5t346.5 118.5q156 0 267.5 -55.5t188.5 -170.5l-139 -119q-60 94 -135 133.5t-188 39.5q-125 0 -219 -75.5t-119 -198.5q-4 -74 -4 -135q0 -62 4 -134q26 -120 121.5 -197t216.5 -77
q103 0 177 37t143 130l132 -123q-81 -112 -190.5 -164.5t-255.5 -52.5zM623 1304q-56 0 -96 40t-40 97t40 96.5t96 39.5q57 0 97 -39.5t40 -96.5t-40 -97t-97 -40z" />
    <glyph glyph-name="Ccaron" unicode="&#x10c;" horiz-adv-x="1415" 
d="M782 -28q-248 0 -419 134t-232 368q-19 71 -19 146v236q0 72 19 139q60 236 236.5 372t428.5 136q186 0 319 -63t236 -198l-142 -125q-87 111 -177.5 157t-229.5 46q-181 0 -304 -93.5t-169 -258.5q-14 -54 -14 -115v-231q0 -59 14 -112q46 -164 166 -260t287 -96
q146 0 243.5 47.5t180.5 158.5l143 -126q-106 -137 -241 -199.5t-326 -62.5zM698 1610l-259 277v34h181l159 -175l158 175h181v-34l-259 -277h-161z" />
    <glyph glyph-name="ccaron" unicode="&#x10d;" horiz-adv-x="1153" 
d="M634 -28q-203 0 -348 119t-184 318q-5 56 -5 144t5 144q41 200 185.5 318.5t346.5 118.5q156 0 267.5 -55.5t188.5 -170.5l-139 -119q-60 94 -135 133.5t-188 39.5q-125 0 -219 -75.5t-119 -198.5q-4 -74 -4 -135q0 -62 4 -134q26 -120 121.5 -197t216.5 -77
q103 0 177 37t143 130l132 -123q-81 -112 -190.5 -164.5t-255.5 -52.5zM543 1241l-259 277v34h180l160 -174l158 174h181v-34l-259 -277h-161z" />
    <glyph glyph-name="Dcaron" unicode="&#x10e;" horiz-adv-x="1419" 
d="M179 0v1475h470q275 0 447 -143t210 -394q2 -30 2 -46v-303q0 -16 -2 -46q-38 -254 -210 -398.5t-447 -144.5h-470zM652 182q198 0 312.5 99.5t137.5 288.5q2 16 2 51v234q0 34 -2 50q-23 188 -137.5 287.5t-312.5 99.5h-270v-1110h270zM521 1610l-259 277v34h180
l160 -175l158 175h181v-34l-259 -277h-161z" />
    <glyph glyph-name="dcaron" unicode="&#x10f;" horiz-adv-x="1390" 
d="M573 -28q-174 0 -292.5 94.5t-163.5 265.5q-20 105 -20 221q0 119 19 218q45 172 166 267.5t306 95.5q110 0 203.5 -41t156.5 -116v620h190v-1597h-145l-45 140q-66 -88 -156 -128t-219 -40zM629 145q117 0 193 49t126 158v393q-49 103 -133 160t-186 57
q-127 0 -212.5 -68t-118.5 -187q-14 -76 -14 -154t14 -153q33 -122 117.5 -188.5t213.5 -66.5zM1320 1208v389h188v-29l-81 -360h-107z" />
    <glyph glyph-name="Dcroat" unicode="&#x110;" horiz-adv-x="1454" 
d="M212 0v666h-147v142h147v667h471q275 0 446.5 -143t209.5 -394q2 -30 2 -46v-303q0 -16 -2 -46q-38 -254 -209.5 -398.5t-446.5 -144.5h-471zM686 182q198 0 312.5 99.5t137.5 288.5q2 32 2 51v234q0 18 -2 50q-23 188 -137.5 287.5t-312.5 99.5h-270v-484h304v-142h-304
v-484h270z" />
    <glyph glyph-name="dcroat" unicode="&#x111;" horiz-adv-x="1312" 
d="M573 -28q-174 0 -292.5 94.5t-163.5 265.5q-20 105 -20 221q0 119 19 218q45 172 166 267.5t306 95.5q110 0 203.5 -41t156.5 -116v289h-333v171h333v160h190v-160h113v-171h-113v-1266h-145l-45 140q-66 -88 -156 -128t-219 -40zM629 145q117 0 193 49t126 158v393
q-49 103 -133 160t-186 57q-127 0 -212.5 -68t-118.5 -187q-14 -76 -14 -154t14 -153q33 -122 117.5 -188.5t213.5 -66.5z" />
    <glyph glyph-name="Emacron" unicode="&#x112;" horiz-adv-x="1200" 
d="M179 0v1475h933v-183h-730v-445h545v-181h-545v-484h730v-182h-933zM355 1689v153h579v-153h-579z" />
    <glyph glyph-name="emacron" unicode="&#x113;" horiz-adv-x="1218" 
d="M632 -28q-216 0 -351.5 118t-178.5 318q-5 24 -5 60v170q0 33 5 56q44 197 179 318.5t341 121.5q205 0 334.5 -112t165.5 -302q5 -24 5 -60v-139l-25 -25h-817q15 -165 106 -258t241 -93q108 0 182 39.5t140 125.5l133 -117q-163 -221 -455 -221zM336 1320v153h579v-153
h-579zM289 650h654q-9 139 -97 227t-222 88q-138 0 -225.5 -86.5t-109.5 -228.5z" />
    <glyph glyph-name="Ebreve" unicode="&#x114;" horiz-adv-x="1200" 
d="M179 0v1475h933v-183h-730v-445h545v-181h-545v-484h730v-182h-933zM646 1610q-152 0 -236.5 83.5t-84.5 227.5h161q0 -81 41.5 -128.5t117.5 -47.5t117.5 47.5t41.5 128.5h161q0 -144 -84 -227.5t-235 -83.5z" />
    <glyph glyph-name="ebreve" unicode="&#x115;" horiz-adv-x="1218" 
d="M632 -28q-216 0 -351.5 118t-178.5 318q-5 24 -5 60v170q0 33 5 56q44 197 179 318.5t341 121.5q205 0 334.5 -112t165.5 -302q5 -24 5 -60v-139l-25 -25h-817q15 -165 106 -258t241 -93q108 0 182 39.5t140 125.5l133 -117q-163 -221 -455 -221zM627 1241
q-152 0 -236.5 83.5t-84.5 227.5h160q0 -81 42 -128t118 -47t117.5 47t41.5 128h161q0 -144 -84 -227.5t-235 -83.5zM289 650h654q-9 139 -97 227t-222 88q-138 0 -225.5 -86.5t-109.5 -228.5z" />
    <glyph glyph-name="Edotaccent" unicode="&#x116;" horiz-adv-x="1200" 
d="M179 0v1475h933v-183h-730v-445h545v-181h-545v-484h730v-182h-933zM645 1673q-57 0 -97 39.5t-40 96.5t40.5 97t96.5 40q57 0 96.5 -40t39.5 -97t-39.5 -96.5t-96.5 -39.5z" />
    <glyph glyph-name="edotaccent" unicode="&#x117;" horiz-adv-x="1218" 
d="M632 -28q-216 0 -351.5 118t-178.5 318q-5 24 -5 60v170q0 33 5 56q44 197 179 318.5t341 121.5q205 0 334.5 -112t165.5 -302q5 -24 5 -60v-139l-25 -25h-817q15 -165 106 -258t241 -93q108 0 182 39.5t140 125.5l133 -117q-163 -221 -455 -221zM625 1304q-56 0 -96 40
t-40 97t40 96.5t96 39.5q57 0 97 -39.5t40 -96.5t-40 -97t-97 -40zM289 650h654q-9 139 -97 227t-222 88q-138 0 -225.5 -86.5t-109.5 -228.5z" />
    <glyph glyph-name="Eogonek" unicode="&#x118;" horiz-adv-x="1200" 
d="M179 0v1475h933v-183h-730v-445h545v-181h-545v-484h730v-182q-71 -24 -115 -71t-44 -111q0 -49 29 -75t80 -26h50v-154h-76q-116 0 -181 63.5t-65 169.5q0 119 96 204h-707z" />
    <glyph glyph-name="eogonek" unicode="&#x119;" horiz-adv-x="1218" 
d="M743 -437q-116 0 -181 63.5t-65 169.5q0 100 70 179q-189 17 -307 132.5t-158 300.5q-5 24 -5 60v170q0 33 5 56q44 197 179 318.5t341 121.5q205 0 334.5 -112t165.5 -302q5 -24 5 -60v-139l-25 -25h-817q15 -165 106 -258t241 -93q108 0 182 39.5t140 125.5l133 -117
q-116 -157 -293 -202q-61 -26 -97.5 -70.5t-36.5 -102.5q0 -49 29 -75t80 -26h50v-154h-76zM289 650h654q-9 139 -97 227t-222 88q-138 0 -225.5 -86.5t-109.5 -228.5z" />
    <glyph glyph-name="Ecaron" unicode="&#x11a;" horiz-adv-x="1200" 
d="M179 0v1475h933v-183h-730v-445h545v-181h-545v-484h730v-182h-933zM564 1610l-258 277v34h180l159 -175l159 175h180v-34l-258 -277h-162z" />
    <glyph glyph-name="ecaron" unicode="&#x11b;" horiz-adv-x="1218" 
d="M632 -28q-216 0 -351.5 118t-178.5 318q-5 24 -5 60v170q0 33 5 56q44 197 179 318.5t341 121.5q205 0 334.5 -112t165.5 -302q5 -24 5 -60v-139l-25 -25h-817q15 -165 106 -258t241 -93q108 0 182 39.5t140 125.5l133 -117q-163 -221 -455 -221zM545 1241l-259 277v34
h180l160 -174l158 174h181v-34l-259 -277h-161zM289 650h654q-9 139 -97 227t-222 88q-138 0 -225.5 -86.5t-109.5 -228.5z" />
    <glyph glyph-name="Gcircumflex" unicode="&#x11c;" horiz-adv-x="1492" 
d="M782 -28q-267 0 -450 165.5t-218 435.5q-2 23 -2 47v236q0 24 2 46q35 272 219 436.5t459 164.5q188 0 320 -63t237 -200l-140 -127q-84 110 -176 158.5t-237 48.5q-190 0 -319.5 -113t-159.5 -307q-2 -46 -2 -52v-221q0 -6 2 -52q32 -190 159 -305.5t306 -115.5
q249 0 388 172v304h-433v178h633v-530q-94 -149 -244.5 -227.5t-343.5 -78.5zM438 1610v34l259 277h161l259 -277v-34h-181l-158 174l-160 -174h-180z" />
    <glyph glyph-name="gcircumflex" unicode="&#x11d;" horiz-adv-x="1302" 
d="M249 -451v177h481q118 0 168 45t50 156v209q-63 -75 -156.5 -116t-203.5 -41q-197 0 -325 112t-162 314q-12 181 8 341q42 180 168.5 284.5t305.5 104.5q240 0 366 -168l44 139h145v-1183q0 -195 -94 -284.5t-292 -89.5h-503zM630 145q101 0 185 59.5t133 163.5v386
q-96 208 -318 208q-126 0 -210.5 -65.5t-119.5 -189.5q-23 -119 -8 -261q27 -142 115.5 -221.5t222.5 -79.5zM282 1241v34l259 277h161l259 -277v-34h-181l-158 175l-160 -175h-180z" />
    <glyph glyph-name="Gbreve" unicode="&#x11e;" horiz-adv-x="1492" 
d="M782 -28q-267 0 -450 165.5t-218 435.5q-2 23 -2 47v236q0 24 2 46q35 272 219 436.5t459 164.5q188 0 320 -63t237 -200l-140 -127q-84 110 -176 158.5t-237 48.5q-190 0 -319.5 -113t-159.5 -307q-2 -46 -2 -52v-221q0 -6 2 -52q32 -190 159 -305.5t306 -115.5
q249 0 388 172v304h-433v178h633v-530q-94 -149 -244.5 -227.5t-343.5 -78.5zM801 1610q-152 0 -236.5 83.5t-84.5 227.5h161q0 -81 41.5 -128.5t117.5 -47.5t117.5 47.5t41.5 128.5h161q0 -144 -84 -227.5t-235 -83.5z" />
    <glyph glyph-name="gbreve" unicode="&#x11f;" horiz-adv-x="1302" 
d="M249 -451v177h481q118 0 168 45t50 156v209q-63 -75 -156.5 -116t-203.5 -41q-197 0 -325 112t-162 314q-12 181 8 341q42 180 168.5 284.5t305.5 104.5q240 0 366 -168l44 139h145v-1183q0 -195 -94 -284.5t-292 -89.5h-503zM630 145q101 0 185 59.5t133 163.5v386
q-96 208 -318 208q-126 0 -210.5 -65.5t-119.5 -189.5q-23 -119 -8 -261q27 -142 115.5 -221.5t222.5 -79.5zM623 1241q-152 0 -236.5 83.5t-84.5 227.5h160q0 -81 42 -128t118 -47t117.5 47t41.5 128h161q0 -144 -84 -227.5t-235 -83.5z" />
    <glyph glyph-name="Gdotaccent" unicode="&#x120;" horiz-adv-x="1492" 
d="M782 -28q-267 0 -450 165.5t-218 435.5q-2 23 -2 47v236q0 24 2 46q35 272 219 436.5t459 164.5q188 0 320 -63t237 -200l-140 -127q-84 110 -176 158.5t-237 48.5q-190 0 -319.5 -113t-159.5 -307q-2 -46 -2 -52v-221q0 -6 2 -52q32 -190 159 -305.5t306 -115.5
q249 0 388 172v304h-433v178h633v-530q-94 -149 -244.5 -227.5t-343.5 -78.5zM777 1673q-56 0 -96 39.5t-40 96.5t40 97t96 40q57 0 97 -40t40 -97t-40 -96.5t-97 -39.5z" />
    <glyph glyph-name="gdotaccent" unicode="&#x121;" horiz-adv-x="1302" 
d="M249 -451v177h481q118 0 168 45t50 156v209q-63 -75 -156.5 -116t-203.5 -41q-197 0 -325 112t-162 314q-12 181 8 341q42 180 168.5 284.5t305.5 104.5q240 0 366 -168l44 139h145v-1183q0 -195 -94 -284.5t-292 -89.5h-503zM630 145q101 0 185 59.5t133 163.5v386
q-96 208 -318 208q-126 0 -210.5 -65.5t-119.5 -189.5q-23 -119 -8 -261q27 -142 115.5 -221.5t222.5 -79.5zM621 1304q-56 0 -96 40t-40 97t40 96.5t96 39.5q57 0 97 -39.5t40 -96.5t-40 -97t-97 -40z" />
    <glyph glyph-name="uni0122" unicode="&#x122;" horiz-adv-x="1492" 
d="M782 -28q-267 0 -450 165.5t-218 435.5q-2 23 -2 47v236q0 24 2 46q35 272 219 436.5t459 164.5q188 0 320 -63t237 -200l-140 -127q-84 110 -176 158.5t-237 48.5q-190 0 -319.5 -113t-159.5 -307q-2 -46 -2 -52v-221q0 -6 2 -52q32 -190 159 -305.5t306 -115.5
q249 0 388 172v304h-433v178h633v-530q-94 -149 -244.5 -227.5t-343.5 -78.5zM687 -451v340h183v-29l-59 -311h-124z" />
    <glyph glyph-name="uni0123" unicode="&#x123;" horiz-adv-x="1302" 
d="M249 -451v177h481q118 0 168 45t50 156v209q-63 -75 -156.5 -116t-203.5 -41q-197 0 -325 112t-162 314q-12 181 8 341q42 180 168.5 284.5t305.5 104.5q240 0 366 -168l44 139h145v-1183q0 -195 -94 -284.5t-292 -89.5h-503zM630 145q101 0 185 59.5t133 163.5v386
q-96 208 -318 208q-126 0 -210.5 -65.5t-119.5 -189.5q-23 -119 -8 -261q27 -142 115.5 -221.5t222.5 -79.5zM529 1241v30l101 281h112v-311h-213z" />
    <glyph glyph-name="Hcircumflex" unicode="&#x124;" horiz-adv-x="1531" 
d="M179 0v1475h203v-647h768v647h204v-1475h-204v646h-768v-646h-203zM428 1610v34l258 277h161l259 -277v-34h-180l-159 174l-159 -174h-180z" />
    <glyph glyph-name="hcircumflex" unicode="&#x125;" horiz-adv-x="1251" 
d="M163 0v1597h189v-636q48 78 132 125.5t203 47.5q194 0 302 -109t108 -307v-718h-190v699q-7 114 -75.5 186.5t-192.5 72.5q-99 0 -174 -54t-112 -149v-755h-190zM166 1733v33l258 278h162l258 -278v-33h-180l-159 174l-159 -174h-180z" />
    <glyph glyph-name="Hbar" unicode="&#x126;" horiz-adv-x="1599" 
d="M211 0v1066h-124v172h124v237h204v-237h768v237h204v-237h127v-172h-127v-1066h-204v646h-768v-646h-204zM415 828h768v238h-768v-238z" />
    <glyph glyph-name="hbar" unicode="&#x127;" horiz-adv-x="1292" 
d="M204 0v1266h-142v171h142v160h189v-160h305v-171h-305v-305q48 78 132 125.5t203 47.5q194 0 302 -109t108 -307v-718h-190v699q-7 114 -75.5 186.5t-192.5 72.5q-99 0 -174 -54t-112 -149v-755h-190z" />
    <glyph glyph-name="Itilde" unicode="&#x128;" horiz-adv-x="561" 
d="M179 0v1475h203v-1475h-203zM-62 1703q0 92 49.5 146t129.5 54q45 0 76.5 -11t68.5 -35l62 -41q56 -38 86 -38q60 0 60 73v55h153v-80q0 -93 -49 -145.5t-130 -52.5q-77 0 -152 51l-64 43q-47 31 -77 31q-60 0 -60 -75v-53h-153v78z" />
    <glyph glyph-name="itilde" unicode="&#x129;" horiz-adv-x="516" 
d="M163 0v1106h190v-1106h-190zM-84 1335q0 92 49 145.5t129 53.5q45 0 76.5 -11t68.5 -35l63 -41q56 -38 86 -38q59 0 59 73v55h154v-80q0 -93 -49 -145.5t-130 -52.5q-77 0 -152 51l-65 43q-47 31 -76 31q-60 0 -60 -74v-54h-153v79z" />
    <glyph glyph-name="Imacron" unicode="&#x12a;" horiz-adv-x="561" 
d="M179 0v1475h203v-1475h-203zM-9 1689v153h579v-153h-579z" />
    <glyph glyph-name="imacron" unicode="&#x12b;" horiz-adv-x="516" 
d="M163 0v1106h190v-1106h-190zM-31 1320v153h579v-153h-579z" />
    <glyph glyph-name="Ibreve" unicode="&#x12c;" horiz-adv-x="561" 
d="M179 0v1475h203v-1475h-203zM282 1610q-152 0 -236.5 83.5t-84.5 227.5h161q0 -81 41.5 -128.5t117.5 -47.5t117.5 47.5t41.5 128.5h161q0 -144 -84 -227.5t-235 -83.5z" />
    <glyph glyph-name="ibreve" unicode="&#x12d;" horiz-adv-x="516" 
d="M163 0v1106h190v-1106h-190zM260 1241q-152 0 -236.5 83.5t-84.5 227.5h160q0 -81 42 -128t118 -47t117.5 47t41.5 128h161q0 -144 -84 -227.5t-235 -83.5z" />
    <glyph glyph-name="Iogonek" unicode="&#x12e;" horiz-adv-x="561" 
d="M307 -437q-116 0 -181 63.5t-65 169.5q0 133 118 222v1457h203v-1474l1 -1q-71 -24 -114.5 -71t-43.5 -111q0 -49 28.5 -75t79.5 -26h50v-154h-76z" />
    <glyph glyph-name="iogonek" unicode="&#x12f;" horiz-adv-x="516" 
d="M278 -437q-116 0 -181.5 63.5t-65.5 169.5q0 74 38 132t94 95v1083h190v-1106q-71 -24 -114.5 -71t-43.5 -111q0 -49 28.5 -75t79.5 -26h50v-154h-75zM258 1304q-56 0 -96 40t-40 97t40 96.5t96 39.5q57 0 97 -39.5t40 -96.5t-40 -97t-97 -40z" />
    <glyph glyph-name="Idotaccent" unicode="&#x130;" horiz-adv-x="561" 
d="M179 0v1475h203v-1475h-203zM281 1673q-57 0 -97 39.5t-40 96.5t40.5 97t96.5 40q57 0 96.5 -40t39.5 -97t-39.5 -96.5t-96.5 -39.5z" />
    <glyph glyph-name="dotlessi" unicode="&#x131;" horiz-adv-x="516" 
d="M163 0v1106h190v-1106h-190z" />
    <glyph glyph-name="IJ" unicode="&#x132;" horiz-adv-x="1617" 
d="M179 0v1475h203v-1475h-203zM1007 -28q-290 0 -456 242l143 132q65 -99 137.5 -142.5t164.5 -43.5q98 0 159.5 44.5t79.5 128.5q10 44 10 88v1054h203v-1029q0 -224 -115.5 -349t-325.5 -125z" />
    <glyph glyph-name="ij" unicode="&#x133;" horiz-adv-x="1032" 
d="M163 0v1106h190v-1106h-190zM258 1304q-56 0 -96 40t-40 97t40 96.5t96 39.5q57 0 97 -39.5t40 -96.5t-40 -97t-97 -40zM435 -451v177h97q67 0 107.5 41.5t40.5 111.5v1227h190v-1250q0 -147 -88.5 -227t-233.5 -80h-113zM775 1304q-56 0 -96.5 40t-40.5 97t40 96.5
t97 39.5t96.5 -39.5t39.5 -96.5t-39.5 -97t-96.5 -40z" />
    <glyph glyph-name="Jcircumflex" unicode="&#x134;" horiz-adv-x="1103" 
d="M492 -28q-290 0 -456 242l143 132q65 -99 137.5 -142.5t164.5 -43.5q98 0 159.5 44.5t79.5 128.5q10 44 10 88v1054h203v-1029q0 -224 -115.5 -349t-325.5 -125zM492 1610v34l259 277h161l258 -277v-34h-180l-159 174l-159 -174h-180z" />
    <glyph glyph-name="jcircumflex" unicode="&#x135;" horiz-adv-x="477" 
d="M-101 -451v177h97q67 0 107 41.5t40 111.5v1227h190v-1250q0 -147 -88.5 -227t-233.5 -80h-112zM-99 1241v34l259 277h161l259 -277v-34h-181l-158 175l-160 -175h-180z" />
    <glyph glyph-name="uni0136" unicode="&#x136;" horiz-adv-x="1218" 
d="M179 0v1475h203v-648h86l491 648h221v-34l-548 -704l548 -702v-35h-221l-491 648h-86v-648h-203zM554 -451v340h184v-29l-60 -311h-124z" />
    <glyph glyph-name="uni0137" unicode="&#x137;" horiz-adv-x="1069" 
d="M163 0v1597h190v-956h82l387 465h206v-34l-435 -519l435 -519v-34h-210l-383 465h-82v-465h-190zM464 -451v340h184v-29l-60 -311h-124z" />
    <glyph glyph-name="kgreenlandic" unicode="&#x138;" horiz-adv-x="1069" 
d="M163 0v1106h190v-465h82l387 465h206v-34l-437 -518l437 -520v-34h-210l-383 465h-82v-465h-190z" />
    <glyph glyph-name="Lacute" unicode="&#x139;" horiz-adv-x="1067" 
d="M179 0v1475h203v-1293h676v-182h-879zM182 1610v34l152 277h232v-34l-240 -277h-144z" />
    <glyph glyph-name="lacute" unicode="&#x13a;" horiz-adv-x="618" 
d="M477 0q-154 0 -237 78.5t-83 227.5v1291h190v-1267q0 -152 130 -152h99v-178h-99zM179 1733v33l152 278h231v-34l-240 -277h-143z" />
    <glyph glyph-name="uni013B" unicode="&#x13b;" horiz-adv-x="1067" 
d="M179 0v1475h203v-1293h676v-182h-879zM489 -451v340h184v-29l-59 -311h-125z" />
    <glyph glyph-name="uni013C" unicode="&#x13c;" horiz-adv-x="618" 
d="M477 0q-154 0 -237 78.5t-83 227.5v1291h190v-1267q0 -152 130 -152h99v-178h-99zM307 -451v340h184v-29l-59 -311h-125z" />
    <glyph glyph-name="Lcaron" unicode="&#x13d;" horiz-adv-x="1105" 
d="M179 0v1475h203v-1293h676v-182h-879zM844 1085v390h187v-30l-80 -360h-107z" />
    <glyph glyph-name="lcaron" unicode="&#x13e;" horiz-adv-x="606" 
d="M477 0q-154 0 -237 78.5t-83 227.5v1291h190v-1267q0 -152 130 -152h99v-178h-99zM516 1208v389h187v-29l-80 -360h-107z" />
    <glyph glyph-name="Ldot" unicode="&#x13f;" horiz-adv-x="1073" 
d="M179 0v1475h203v-1293h676v-182h-879zM824 601q-57 0 -96.5 39.5t-39.5 96.5t39.5 97t96.5 40t97 -40t40 -97t-40 -96.5t-97 -39.5z" />
    <glyph glyph-name="ldot" unicode="&#x140;" horiz-adv-x="794" 
d="M477 0q-154 0 -237 78.5t-83 227.5v1291h190v-1267q0 -152 130 -152h99v-178h-99zM660 601q-57 0 -96.5 39.5t-39.5 96.5t39.5 97t96.5 40t97 -40t40 -97t-40 -96.5t-97 -39.5z" />
    <glyph glyph-name="Lslash" unicode="&#x141;" horiz-adv-x="1179" 
d="M67 530v180l185 56v709h204v-647l249 76v-179l-249 -76v-467h676v-182h-880v587z" />
    <glyph glyph-name="lslash" unicode="&#x142;" horiz-adv-x="673" 
d="M64 638v194l149 48v717h190v-656l171 55v-193l-171 -55v-418q0 -152 129 -152h100v-178h-99q-154 0 -237 78.5t-83 227.5v381z" />
    <glyph glyph-name="Nacute" unicode="&#x143;" horiz-adv-x="1544" 
d="M179 0v1475h214l746 -1098h26v1098h199v-1475h-214l-746 1098h-26v-1098h-199zM698 1610v34l152 277h232v-34l-240 -277h-144z" />
    <glyph glyph-name="nacute" unicode="&#x144;" horiz-adv-x="1208" 
d="M163 0v1106h145l44 -145q49 77 136 125t201 48q193 0 300.5 -113t107.5 -312v-709h-190v699q-7 114 -74 186.5t-191 72.5q-99 0 -175.5 -54.5t-113.5 -148.5v-755h-190zM559 1241v34l152 277h231v-34l-240 -277h-143z" />
    <glyph glyph-name="uni0145" unicode="&#x145;" horiz-adv-x="1544" 
d="M179 0v1475h214l746 -1098h26v1098h199v-1475h-214l-746 1098h-26v-1098h-199zM680 -451v340h184v-29l-59 -311h-125z" />
    <glyph glyph-name="uni0146" unicode="&#x146;" horiz-adv-x="1251" 
d="M163 0v1106h145l44 -145q49 77 136 125t201 48q193 0 300.5 -113t107.5 -312v-709h-190v699q-7 114 -74 186.5t-191 72.5q-99 0 -175.5 -54.5t-113.5 -148.5v-755h-190zM538 -451v340h184v-29l-59 -311h-125z" />
    <glyph glyph-name="Ncaron" unicode="&#x147;" horiz-adv-x="1544" 
d="M179 0v1475h214l746 -1098h26v1098h199v-1475h-214l-746 1098h-26v-1098h-199zM692 1610l-259 277v34h180l160 -175l158 175h181v-34l-259 -277h-161z" />
    <glyph glyph-name="ncaron" unicode="&#x148;" horiz-adv-x="1251" 
d="M163 0v1106h145l44 -145q49 77 136 125t201 48q193 0 300.5 -113t107.5 -312v-709h-190v699q-7 114 -74 186.5t-191 72.5q-99 0 -175.5 -54.5t-113.5 -148.5v-755h-190zM572 1241l-259 277v34h181l159 -174l159 174h180v-34l-259 -277h-161z" />
    <glyph glyph-name="Eng" unicode="&#x14a;" horiz-adv-x="1542" 
d="M920 -451v177h97q67 0 107.5 41.5t40.5 111.5v121l-761 1098h-26v-1098h-199v1475h214l746 -1088h26v1088h199v-1619q0 -147 -89.5 -227t-234.5 -80h-120z" />
    <glyph glyph-name="eng" unicode="&#x14b;" horiz-adv-x="1251" 
d="M662 -451v177h97q67 0 107.5 41.5t40.5 111.5v820q-7 114 -75.5 186.5t-192.5 72.5q-99 0 -174 -54t-112 -149v-755h-190v1106h145l44 -145q111 173 335 173q193 0 301.5 -113t108.5 -312v-853q0 -147 -88.5 -227t-233.5 -80h-113z" />
    <glyph glyph-name="Omacron" unicode="&#x14c;" horiz-adv-x="1591" 
d="M796 -28q-273 0 -460.5 164.5t-221.5 443.5q-2 14 -2 44v227q0 29 2 43q34 279 221.5 444t460.5 165t460 -165t221 -444q3 -42 3 -43v-227q0 -2 -3 -44q-34 -279 -221 -443.5t-460 -164.5zM796 154q190 0 321 115.5t157 316.5q2 30 2 46v211q0 16 -2 46
q-26 201 -156.5 316t-321.5 115t-322 -115t-157 -316q-2 -30 -2 -46v-211q0 -16 2 -46q26 -201 157 -316.5t322 -115.5zM506 1689v153h579v-153h-579z" />
    <glyph glyph-name="omacron" unicode="&#x14d;" horiz-adv-x="1263" 
d="M636 -28q-127 0 -237.5 49t-190.5 147t-105 231q-6 31 -6 67v174q0 36 6 67q25 133 105 231t190.5 147t237.5 49t237.5 -49t190.5 -147t105 -231q7 -37 7 -67v-174q0 -30 -7 -67q-25 -133 -105 -231t-190.5 -147t-237.5 -49zM636 145q80 0 151 30t124 93t70 149
q5 30 5 61v150q0 31 -5 61q-17 86 -70 149.5t-124 93.5t-151 30t-151 -30t-124 -93.5t-69 -149.5q-5 -23 -5 -61v-150q0 -38 5 -61q24 -128 122 -200t222 -72zM343 1320v153h579v-153h-579z" />
    <glyph glyph-name="Obreve" unicode="&#x14e;" horiz-adv-x="1591" 
d="M796 -28q-273 0 -460.5 164.5t-221.5 443.5q-2 14 -2 44v227q0 29 2 43q34 279 221.5 444t460.5 165t460 -165t221 -444q3 -42 3 -43v-227q0 -2 -3 -44q-34 -279 -221 -443.5t-460 -164.5zM796 154q190 0 321 115.5t157 316.5q2 30 2 46v211q0 16 -2 46
q-26 201 -156.5 316t-321.5 115t-322 -115t-157 -316q-2 -30 -2 -46v-211q0 -16 2 -46q26 -201 157 -316.5t322 -115.5zM797 1610q-152 0 -236.5 83.5t-84.5 227.5h161q0 -81 41.5 -128.5t117.5 -47.5t117.5 47.5t41.5 128.5h161q0 -144 -84 -227.5t-235 -83.5z" />
    <glyph glyph-name="obreve" unicode="&#x14f;" horiz-adv-x="1263" 
d="M636 -28q-127 0 -237.5 49t-190.5 147t-105 231q-6 31 -6 67v174q0 36 6 67q25 133 105 231t190.5 147t237.5 49t237.5 -49t190.5 -147t105 -231q7 -37 7 -67v-174q0 -30 -7 -67q-25 -133 -105 -231t-190.5 -147t-237.5 -49zM636 145q80 0 151 30t124 93t70 149
q5 30 5 61v150q0 31 -5 61q-17 86 -70 149.5t-124 93.5t-151 30t-151 -30t-124 -93.5t-69 -149.5q-5 -23 -5 -61v-150q0 -38 5 -61q24 -128 122 -200t222 -72zM633 1241q-152 0 -236.5 83.5t-84.5 227.5h161q0 -81 41.5 -128t117.5 -47t117.5 47t41.5 128h161
q0 -144 -84 -227.5t-235 -83.5z" />
    <glyph glyph-name="Ohungarumlaut" unicode="&#x150;" horiz-adv-x="1591" 
d="M796 -28q-273 0 -460.5 164.5t-221.5 443.5q-2 14 -2 44v227q0 29 2 43q34 279 221.5 444t460.5 165t460 -165t221 -444q3 -42 3 -43v-227q0 -2 -3 -44q-34 -279 -221 -443.5t-460 -164.5zM796 154q190 0 321 115.5t157 316.5q2 30 2 46v211q0 16 -2 46
q-26 201 -156.5 316t-321.5 115t-322 -115t-157 -316q-2 -30 -2 -46v-211q0 -16 2 -46q26 -201 157 -316.5t322 -115.5zM561 1610v34l97 277h218v-34l-191 -277h-124zM907 1610v34l97 277h218v-34l-191 -277h-124z" />
    <glyph glyph-name="ohungarumlaut" unicode="&#x151;" horiz-adv-x="1263" 
d="M636 -28q-127 0 -237.5 49t-190.5 147t-105 231q-6 31 -6 67v174q0 36 6 67q25 133 105 231t190.5 147t237.5 49t237.5 -49t190.5 -147t105 -231q7 -37 7 -67v-174q0 -30 -7 -67q-25 -133 -105 -231t-190.5 -147t-237.5 -49zM636 145q80 0 151 30t124 93t70 149
q5 30 5 61v150q0 31 -5 61q-17 86 -70 149.5t-124 93.5t-151 30t-151 -30t-124 -93.5t-69 -149.5q-5 -23 -5 -61v-150q0 -38 5 -61q24 -128 122 -200t222 -72zM397 1241v34l97 277h218v-34l-191 -277h-124zM743 1241v34l97 277h218v-34l-191 -277h-124z" />
    <glyph glyph-name="OE" unicode="&#x152;" horiz-adv-x="2297" 
d="M796 -28q-275 0 -462 165.5t-220 442.5q-2 15 -2 63v190q0 48 2 61q34 277 220.5 443t461.5 166q318 0 480 -232v204h933v-183h-729v-445h544v-181h-544v-484h729v-182h-933v220q-83 -126 -200.5 -187t-279.5 -61zM796 154q192 0 322.5 115.5t155.5 316.5q2 18 2 63v178
q0 39 -2 62q-26 201 -156.5 316t-321.5 115q-192 0 -323 -115t-156 -316q-3 -35 -3 -62v-178q0 -36 3 -63q25 -201 156 -316.5t323 -115.5z" />
    <glyph glyph-name="oe" unicode="&#x153;" horiz-adv-x="2109" 
d="M636 -28q-127 0 -237.5 49t-190.5 147t-105 231q-6 31 -6 67v174q0 36 6 67q25 133 105 231t190.5 147t237.5 49q136 0 255 -58t194 -165q72 104 181.5 163.5t245.5 59.5q205 0 335.5 -112t165.5 -302q6 -38 6 -60v-139l-25 -25h-813q15 -165 105 -258t237 -93
q106 0 179.5 39t140.5 126l133 -117q-163 -221 -453 -221q-295 0 -442 218q-75 -104 -192.5 -161t-252.5 -57zM636 145q124 0 223 72t124 200q4 18 4 61v150q0 43 -4 61q-25 128 -124 200.5t-223 72.5q-80 0 -151 -30t-124.5 -93.5t-70.5 -149.5q-5 -23 -5 -61v-150
q0 -38 5 -61q25 -128 123.5 -200t222.5 -72zM1184 650h649q-10 139 -98 227t-222 88q-136 0 -222 -86.5t-107 -228.5z" />
    <glyph glyph-name="Racute" unicode="&#x154;" horiz-adv-x="1327" 
d="M179 0v1475h560q200 0 321 -84.5t144 -234.5q3 -22 3 -48v-166q0 -28 -6 -52q-20 -95 -88 -170t-177 -114l291 -572v-34h-206l-284 567h-355v-567h-203zM754 749q210 0 250 179q5 19 5 48v89q0 31 -5 50q-42 177 -250 177h-372v-543h372zM598 1610v34l152 277h231v-34
l-240 -277h-143z" />
    <glyph glyph-name="racute" unicode="&#x155;" horiz-adv-x="794" 
d="M163 0v1106h145l42 -136q72 136 230 136h126v-182h-144q-199 0 -209 -217v-707h-190zM360 1241v34l152 277h231v-34l-240 -277h-143z" />
    <glyph glyph-name="uni0156" unicode="&#x156;" horiz-adv-x="1327" 
d="M179 0v1475h560q200 0 321 -84.5t144 -234.5q3 -22 3 -48v-166q0 -28 -6 -52q-20 -95 -88 -170t-177 -114l291 -572v-34h-206l-284 567h-355v-567h-203zM754 749q210 0 250 179q5 19 5 48v89q0 31 -5 50q-42 177 -250 177h-372v-543h372zM580 -451v340h183v-29l-59 -311
h-124z" />
    <glyph glyph-name="uni0157" unicode="&#x157;" horiz-adv-x="794" 
d="M163 0v1106h145l42 -136q72 136 230 136h126v-182h-144q-199 0 -209 -217v-707h-190zM166 -451v340h184v-29l-59 -311h-125z" />
    <glyph glyph-name="Rcaron" unicode="&#x158;" horiz-adv-x="1327" 
d="M179 0v1475h560q200 0 321 -84.5t144 -234.5q3 -22 3 -48v-166q0 -28 -6 -52q-20 -95 -88 -170t-177 -114l291 -572v-34h-206l-284 567h-355v-567h-203zM754 749q210 0 250 179q5 19 5 48v89q0 31 -5 50q-42 177 -250 177h-372v-543h372zM591 1610l-259 277v34h181
l159 -175l158 175h181v-34l-259 -277h-161z" />
    <glyph glyph-name="rcaron" unicode="&#x159;" horiz-adv-x="794" 
d="M163 0v1106h145l42 -136q72 136 230 136h126v-182h-144q-199 0 -209 -217v-707h-190zM353 1241l-258 277v34h180l159 -174l159 174h180v-34l-258 -277h-162z" />
    <glyph glyph-name="Sacute" unicode="&#x15a;" horiz-adv-x="1247" 
d="M637 -28q-370 0 -559 300l149 129q88 -130 181.5 -188.5t221.5 -58.5q109 0 187 42t111 119q13 33 13 68v42q0 35 -13 63q-23 53 -81.5 89t-159.5 63l-192 51q-286 77 -347 303q-7 22 -7 53v87q0 26 10 63q37 135 171.5 220.5t312.5 85.5q166 0 286 -60t215 -187
l-146 -122q-71 101 -153.5 143.5t-202.5 42.5q-107 0 -182.5 -45t-102.5 -124q-5 -18 -5 -40v-36q0 -13 5 -36q19 -63 76 -104t160 -69l201 -56q145 -41 236.5 -111t112.5 -163q7 -24 7 -56v-144q0 -28 -13 -65q-43 -135 -173.5 -217t-318.5 -82zM561 1610v34l152 277h232
v-34l-240 -277h-144z" />
    <glyph glyph-name="sacute" unicode="&#x15b;" horiz-adv-x="1007" 
d="M498 -28q-138 0 -250 62t-173 171l138 117q38 -84 118 -135t168 -51t146.5 35t75.5 97q2 18 2 30v30q0 9 -2 23q-12 45 -53 74t-126 50l-170 43q-216 56 -253 229q-4 24 -4 36v72q0 12 4 32q27 108 135.5 177.5t255.5 69.5q258 0 399 -201l-131 -110q-50 76 -116 111.5
t-157 35.5q-77 0 -132 -30.5t-70 -81.5q-2 -8 -2 -23v-18q0 -8 2 -20q11 -48 52.5 -78t118.5 -49l153 -36q222 -53 275 -214q8 -22 8 -47v-96q0 -31 -8 -54q-36 -116 -142 -183.5t-262 -67.5zM420 1241v34l152 277h232v-34l-240 -277h-144z" />
    <glyph glyph-name="Scircumflex" unicode="&#x15c;" horiz-adv-x="1247" 
d="M637 -28q-370 0 -559 300l149 129q88 -130 181.5 -188.5t221.5 -58.5q109 0 187 42t111 119q13 33 13 68v42q0 35 -13 63q-23 53 -81.5 89t-159.5 63l-192 51q-286 77 -347 303q-7 22 -7 53v87q0 26 10 63q37 135 171.5 220.5t312.5 85.5q166 0 286 -60t215 -187
l-146 -122q-71 101 -153.5 143.5t-202.5 42.5q-107 0 -182.5 -45t-102.5 -124q-5 -18 -5 -40v-36q0 -13 5 -36q19 -63 76 -104t160 -69l201 -56q145 -41 236.5 -111t112.5 -163q7 -24 7 -56v-144q0 -28 -13 -65q-43 -135 -173.5 -217t-318.5 -82zM296 1610v34l258 277h162
l258 -277v-34h-180l-159 174l-159 -174h-180z" />
    <glyph glyph-name="scircumflex" unicode="&#x15d;" horiz-adv-x="1007" 
d="M498 -28q-138 0 -250 62t-173 171l138 117q38 -84 118 -135t168 -51t146.5 35t75.5 97q2 18 2 30v30q0 9 -2 23q-12 45 -53 74t-126 50l-170 43q-216 56 -253 229q-4 24 -4 36v72q0 12 4 32q27 108 135.5 177.5t255.5 69.5q258 0 399 -201l-131 -110q-50 76 -116 111.5
t-157 35.5q-77 0 -132 -30.5t-70 -81.5q-2 -8 -2 -23v-18q0 -8 2 -20q11 -48 52.5 -78t118.5 -49l153 -36q222 -53 275 -214q8 -22 8 -47v-96q0 -31 -8 -54q-36 -116 -142 -183.5t-262 -67.5zM155 1241v34l259 277h161l259 -277v-34h-181l-158 175l-160 -175h-180z" />
    <glyph glyph-name="Scedilla" unicode="&#x15e;" horiz-adv-x="1247" 
d="M411 -437v154h57q77 0 116 36.5t39 99.5q0 77 -49 121q-322 23 -496 298l149 129q88 -130 181.5 -188.5t221.5 -58.5q109 0 187 42t111 119q13 33 13 68v42q0 35 -13 63q-23 53 -81.5 89t-159.5 63l-192 51q-286 77 -347 303q-7 22 -7 53v87q0 26 10 63
q37 135 171.5 220.5t312.5 85.5q166 0 286 -60t215 -187l-146 -122q-71 101 -153.5 143.5t-202.5 42.5q-107 0 -182.5 -45t-102.5 -124q-5 -18 -5 -40v-36q0 -13 5 -36q19 -63 76 -104t160 -69l201 -56q145 -41 236.5 -111t112.5 -163q7 -24 7 -56v-144q0 -28 -13 -65
q-37 -116 -139.5 -194t-252.5 -99q49 -58 49 -159q0 -114 -81 -185t-211 -71h-83z" />
    <glyph glyph-name="scedilla" unicode="&#x15f;" horiz-adv-x="1007" 
d="M284 -437v154h58q77 0 115.5 36.5t38.5 99.5q0 78 -48 121q-122 10 -219.5 71t-153.5 160l138 117q38 -84 118 -135t168 -51t146.5 35t75.5 97q2 18 2 30v30q0 9 -2 23q-12 45 -53 74t-126 50l-170 43q-216 56 -253 229q-4 24 -4 36v72q0 12 4 32q27 108 135.5 177.5
t255.5 69.5q258 0 399 -201l-131 -110q-50 76 -116 111.5t-157 35.5q-77 0 -132 -30.5t-70 -81.5q-2 -8 -2 -23v-18q0 -8 2 -20q11 -48 52.5 -78t118.5 -49l153 -36q222 -53 275 -214q8 -22 8 -47v-96q0 -31 -8 -54q-29 -93 -105 -156t-189 -85q51 -58 51 -163
q0 -114 -80.5 -185t-210.5 -71h-84z" />
    <glyph glyph-name="Scaron" unicode="&#x160;" horiz-adv-x="1247" 
d="M637 -28q-370 0 -559 300l149 129q88 -130 181.5 -188.5t221.5 -58.5q109 0 187 42t111 119q13 33 13 68v42q0 35 -13 63q-23 53 -81.5 89t-159.5 63l-192 51q-286 77 -347 303q-7 22 -7 53v87q0 26 10 63q37 135 171.5 220.5t312.5 85.5q166 0 286 -60t215 -187
l-146 -122q-71 101 -153.5 143.5t-202.5 42.5q-107 0 -182.5 -45t-102.5 -124q-5 -18 -5 -40v-36q0 -13 5 -36q19 -63 76 -104t160 -69l201 -56q145 -41 236.5 -111t112.5 -163q7 -24 7 -56v-144q0 -28 -13 -65q-43 -135 -173.5 -217t-318.5 -82zM554 1610l-258 277v34h180
l159 -175l159 175h180v-34l-258 -277h-162z" />
    <glyph glyph-name="scaron" unicode="&#x161;" horiz-adv-x="1007" 
d="M498 -28q-138 0 -250 62t-173 171l138 117q38 -84 118 -135t168 -51t146.5 35t75.5 97q2 18 2 30v30q0 9 -2 23q-12 45 -53 74t-126 50l-170 43q-216 56 -253 229q-4 24 -4 36v72q0 12 4 32q27 108 135.5 177.5t255.5 69.5q258 0 399 -201l-131 -110q-50 76 -116 111.5
t-157 35.5q-77 0 -132 -30.5t-70 -81.5q-2 -8 -2 -23v-18q0 -8 2 -20q11 -48 52.5 -78t118.5 -49l153 -36q222 -53 275 -214q8 -22 8 -47v-96q0 -31 -8 -54q-36 -116 -142 -183.5t-262 -67.5zM414 1241l-259 277v34h180l160 -174l158 174h181v-34l-259 -277h-161z" />
    <glyph glyph-name="uni0162" unicode="&#x162;" horiz-adv-x="1171" 
d="M379 -437v154h58q77 0 115.5 36.5t38.5 99.5q0 105 -84 147h-23v1292h-438v183h1080v-183h-439v-1292q67 -63 67 -181q0 -114 -81 -185t-211 -71h-83z" />
    <glyph glyph-name="uni0163" unicode="&#x163;" horiz-adv-x="753" 
d="M294 -437v154h58q77 0 116 36.5t39 99.5q0 66 -26.5 108t-86.5 74q-155 84 -155 271v628h-169v172h169v104l101 183h89v-287h253v-172h-253v-605q0 -70 40 -111t108 -41h97v-177h-74q70 -61 70 -181q0 -114 -81 -185t-211 -71h-84z" />
    <glyph glyph-name="Tcaron" unicode="&#x164;" horiz-adv-x="1171" 
d="M484 0v1292h-438v183h1080v-183h-439v-1292h-203zM506 1610l-259 277v34h181l159 -175l158 175h181v-34l-259 -277h-161z" />
    <glyph glyph-name="tcaron" unicode="&#x165;" horiz-adv-x="702" 
d="M562 0q-145 0 -234 79.5t-89 226.5v626h-169v174h169v104l101 183h89v-287h253v-174h-253v-603q0 -70 40 -111t108 -41h97v-177h-112zM570 1208v389h187v-29l-80 -360h-107z" />
    <glyph glyph-name="Tbar" unicode="&#x166;" horiz-adv-x="1185" 
d="M207 670v173h292v449h-439v183h1081v-183h-439v-449h291v-173h-291v-670h-203v670h-292z" />
    <glyph glyph-name="tbar" unicode="&#x167;" horiz-adv-x="778" 
d="M70 519v150h196v263h-169v174h169v104l101 183h89v-287h253v-174h-253v-263h225v-150h-225v-190q0 -70 40 -111t108 -41h97v-177h-112q-145 0 -234 79.5t-89 226.5v213h-196z" />
    <glyph glyph-name="Utilde" unicode="&#x168;" horiz-adv-x="1462" 
d="M732 -28q-257 0 -408 145.5t-151 390.5v967h203v-991q0 -39 9 -80q26 -117 116.5 -183.5t230.5 -66.5q139 0 229.5 66.5t116.5 183.5q9 41 9 80v991h204v-967q0 -247 -150 -391.5t-409 -144.5zM390 1703q0 92 49 146t129 54q45 0 76.5 -11t68.5 -35l63 -41q56 -38 86 -38
q60 0 60 73v55h153v-80q0 -93 -49 -145.5t-130 -52.5q-77 0 -152 51l-65 43q-47 31 -76 31q-60 0 -60 -75v-53h-153v78z" />
    <glyph glyph-name="utilde" unicode="&#x169;" horiz-adv-x="1239" 
d="M559 -28q-192 0 -298 109t-106 307v718h190v-699q7 -113 74 -186t187 -73q98 0 170 54t110 149v755h190v-1106h-144l-45 146q-107 -174 -328 -174zM272 1335q0 92 49.5 145.5t129.5 53.5q45 0 76.5 -11t68.5 -35l62 -41q56 -38 86 -38q60 0 60 73v55h153v-80
q0 -93 -49 -145.5t-129 -52.5q-77 0 -152 51l-65 43q-47 31 -77 31q-60 0 -60 -74v-54h-153v79z" />
    <glyph glyph-name="Umacron" unicode="&#x16a;" horiz-adv-x="1462" 
d="M732 -28q-257 0 -408 145.5t-151 390.5v967h203v-991q0 -39 9 -80q26 -117 116.5 -183.5t230.5 -66.5q139 0 229.5 66.5t116.5 183.5q9 41 9 80v991h204v-967q0 -247 -150 -391.5t-409 -144.5zM443 1689v153h579v-153h-579z" />
    <glyph glyph-name="umacron" unicode="&#x16b;" horiz-adv-x="1239" 
d="M559 -28q-192 0 -298 109t-106 307v718h190v-699q7 -113 74 -186t187 -73q98 0 170 54t110 149v755h190v-1106h-144l-45 146q-107 -174 -328 -174zM326 1320v153h579v-153h-579z" />
    <glyph glyph-name="Ubreve" unicode="&#x16c;" horiz-adv-x="1462" 
d="M732 -28q-257 0 -408 145.5t-151 390.5v967h203v-991q0 -39 9 -80q26 -117 116.5 -183.5t230.5 -66.5q139 0 229.5 66.5t116.5 183.5q9 41 9 80v991h204v-967q0 -247 -150 -391.5t-409 -144.5zM734 1610q-152 0 -236.5 83.5t-84.5 227.5h160q0 -81 42 -128.5t118 -47.5
t117.5 47.5t41.5 128.5h161q0 -144 -84 -227.5t-235 -83.5z" />
    <glyph glyph-name="ubreve" unicode="&#x16d;" horiz-adv-x="1239" 
d="M559 -28q-192 0 -298 109t-106 307v718h190v-699q7 -113 74 -186t187 -73q98 0 170 54t110 149v755h190v-1106h-144l-45 146q-107 -174 -328 -174zM616 1241q-152 0 -236.5 83.5t-84.5 227.5h161q0 -81 41.5 -128t117.5 -47t118 47t42 128h160q0 -144 -84 -227.5
t-235 -83.5z" />
    <glyph glyph-name="Uring" unicode="&#x16e;" horiz-adv-x="1462" 
d="M732 -28q-257 0 -408 145.5t-151 390.5v967h203v-991q0 -39 9 -80q26 -117 116.5 -183.5t230.5 -66.5q139 0 229.5 66.5t116.5 183.5q9 41 9 80v991h204v-967q0 -247 -150 -391.5t-409 -144.5zM732 1588q-90 0 -149 57t-59 143q0 87 59 145.5t149 58.5q91 0 149.5 -58
t58.5 -146q0 -86 -58.5 -143t-149.5 -57zM732 1694q39 0 67 27.5t28 66.5q0 42 -27 70t-68 28q-42 0 -69 -27.5t-27 -70.5q0 -41 27 -67.5t69 -26.5z" />
    <glyph glyph-name="uring" unicode="&#x16f;" horiz-adv-x="1239" 
d="M559 -28q-192 0 -298 109t-106 307v718h190v-699q7 -113 74 -186t187 -73q98 0 170 54t110 149v755h190v-1106h-144l-45 146q-107 -174 -328 -174zM614 1219q-90 0 -148.5 57.5t-58.5 143.5q0 87 58.5 145t148.5 58q91 0 150 -58t59 -145q0 -86 -59 -143.5t-150 -57.5z
M614 1325q39 0 67.5 28t28.5 67q0 42 -27.5 69.5t-68.5 27.5q-42 0 -68.5 -27t-26.5 -70q0 -41 26.5 -68t68.5 -27z" />
    <glyph glyph-name="Uhungarumlaut" unicode="&#x170;" horiz-adv-x="1462" 
d="M732 -28q-257 0 -408 145.5t-151 390.5v967h203v-991q0 -39 9 -80q26 -117 116.5 -183.5t230.5 -66.5q139 0 229.5 66.5t116.5 183.5q9 41 9 80v991h204v-967q0 -247 -150 -391.5t-409 -144.5zM498 1610v34l96 277h219v-34l-192 -277h-123zM844 1610v34l97 277h218v-34
l-192 -277h-123z" />
    <glyph glyph-name="uhungarumlaut" unicode="&#x171;" horiz-adv-x="1239" 
d="M559 -28q-192 0 -298 109t-106 307v718h190v-699q7 -113 74 -186t187 -73q98 0 170 54t110 149v755h190v-1106h-144l-45 146q-107 -174 -328 -174zM380 1241v34l97 277h218v-34l-191 -277h-124zM727 1241v34l96 277h218v-34l-191 -277h-123z" />
    <glyph glyph-name="Uogonek" unicode="&#x172;" horiz-adv-x="1462" 
d="M857 -437q-116 0 -181.5 63.5t-65.5 169.5q0 98 70 177q-235 15 -371 159t-136 376v967h203v-991q0 -39 9 -80q26 -117 116.5 -183.5t230.5 -66.5q139 0 229.5 66.5t116.5 183.5q9 41 9 80v991h204v-967q0 -197 -98.5 -331.5t-274.5 -181.5q-65 -25 -104.5 -71
t-39.5 -106q0 -49 29 -75t80 -26h49v-154h-75z" />
    <glyph glyph-name="uogonek" unicode="&#x173;" horiz-adv-x="1239" 
d="M559 -28q-192 0 -298 109t-106 307v718h190v-699q7 -113 74 -186t187 -73q98 0 170 54t110 149v755h190v-1106q-71 -24 -114.5 -71t-43.5 -111q0 -49 29 -75t80 -26h49v-154h-76q-116 0 -181 63.5t-65 169.5q0 85 47 149t117 102l-31 99q-107 -174 -328 -174z" />
    <glyph glyph-name="Wcircumflex" unicode="&#x174;" horiz-adv-x="1970" 
d="M401 0l-335 1441v34h212l252 -1174h30l300 1174h251l301 -1174h29l252 1174h211v-34l-335 -1441h-256l-313 1175h-30l-313 -1175h-256zM646 1610v34l259 277h161l259 -277v-34h-181l-158 174l-160 -174h-180z" />
    <glyph glyph-name="wcircumflex" unicode="&#x175;" horiz-adv-x="1679" 
d="M367 0l-314 1072v34h190l219 -830h26l255 830h193l255 -830h26l219 830h191v-34l-314 -1072h-208l-252 824h-26l-252 -824h-208zM501 1241v34l258 277h162l258 -277v-34h-180l-159 175l-159 -175h-180z" />
    <glyph glyph-name="Ycircumflex" unicode="&#x176;" horiz-adv-x="1257" 
d="M527 0v560l-501 881v34h213l377 -687h26l376 687h213v-34l-500 -881v-560h-204zM289 1610v34l259 277h161l259 -277v-34h-181l-158 174l-159 -174h-181z" />
    <glyph glyph-name="ycircumflex" unicode="&#x177;" horiz-adv-x="1157" 
d="M170 -451v177h131q90 0 134 36.5t44 112.5q0 41 -38 140l-407 1057v34h197l342 -930h27l304 930h192v-34l-438 -1252q-54 -156 -130.5 -213.5t-232.5 -57.5h-125zM226 1241v34l258 277h162l258 -277v-34h-180l-159 175l-159 -175h-180z" />
    <glyph glyph-name="Ydieresis" unicode="&#x178;" horiz-adv-x="1257" 
d="M527 0v560l-501 881v34h213l377 -687h26l376 687h213v-34l-500 -881v-560h-204zM438 1638q-52 0 -89.5 37t-37.5 90q0 52 37.5 89.5t89.5 37.5t89.5 -37.5t37.5 -89.5t-37.5 -89.5t-89.5 -37.5zM817 1638q-53 0 -90 37t-37 90q0 52 37.5 89.5t89.5 37.5t89.5 -37.5
t37.5 -89.5t-37.5 -89.5t-89.5 -37.5z" />
    <glyph glyph-name="Zacute" unicode="&#x179;" horiz-adv-x="1173" 
d="M84 0v181l738 1086v25h-710v183h957v-183l-739 -1084v-26h752v-182h-998zM508 1610v34l152 277h232v-34l-240 -277h-144z" />
    <glyph glyph-name="zacute" unicode="&#x17a;" horiz-adv-x="1007" 
d="M83 0v172l572 732v26h-552v176h794v-172l-573 -732v-25h593v-177h-834zM427 1241v34l152 277h231v-34l-240 -277h-143z" />
    <glyph glyph-name="Zdotaccent" unicode="&#x17b;" horiz-adv-x="1173" 
d="M84 0v181l738 1086v25h-710v183h957v-183l-739 -1084v-26h752v-182h-998zM582 1673q-56 0 -96 39.5t-40 96.5t40 97t96 40q57 0 97 -40t40 -97t-40 -96.5t-97 -39.5z" />
    <glyph glyph-name="zdotaccent" unicode="&#x17c;" horiz-adv-x="1007" 
d="M83 0v172l572 732v26h-552v176h794v-172l-573 -732v-25h593v-177h-834zM501 1304q-56 0 -96 40t-40 97t40 96.5t96 39.5q57 0 96.5 -39.5t39.5 -96.5t-39.5 -97t-96.5 -40z" />
    <glyph glyph-name="Zcaron" unicode="&#x17d;" horiz-adv-x="1173" 
d="M84 0v181l738 1086v25h-710v183h957v-183l-739 -1084v-26h752v-182h-998zM502 1610l-259 277v34h180l160 -175l158 175h181v-34l-259 -277h-161z" />
    <glyph glyph-name="zcaron" unicode="&#x17e;" horiz-adv-x="1007" 
d="M83 0v172l572 732v26h-552v176h794v-172l-573 -732v-25h593v-177h-834zM420 1241l-258 277v34h180l159 -174l159 174h180v-34l-258 -277h-162z" />
    <glyph glyph-name="florin" unicode="&#x192;" horiz-adv-x="827" 
d="M304 934h-198v172h198v186q0 147 88.5 226.5t233.5 79.5h142v-176h-126q-67 0 -107.5 -41.5t-40.5 -111.5v-163h274v-172h-274v-1078q0 -147 -88.5 -227t-233.5 -80h-113v177h98q67 0 107 41.5t40 111.5v1055z" />
    <glyph glyph-name="uni01B5" unicode="&#x1b5;" horiz-adv-x="1181" 
d="M92 0v181l319 470h-201v171h317l302 445v25h-710v183h957v-183l-320 -470h217v-171h-334l-302 -443v-26h752v-182h-997z" />
    <glyph glyph-name="uni01B6" unicode="&#x1b6;" horiz-adv-x="1013" 
d="M159 478v150h288l216 276v26h-552v176h793v-172l-239 -306h189v-150h-306l-216 -276v-25h593v-177h-834v172l239 306h-171z" />
    <glyph glyph-name="AEacute" unicode="&#x1fc;" horiz-adv-x="2125" 
d="M28 0v30l1005 1445h1004v-179h-729v-451h545v-177h-545v-489h729v-180h-929v362h-628l-246 -361h-206zM602 541h506v705h-26zM1333 1610v34l152 277h232v-34l-240 -277h-144z" />
    <glyph glyph-name="aeacute" unicode="&#x1fd;" horiz-adv-x="1925" 
d="M1338 -28q-304 0 -451 233q-83 -123 -179.5 -178t-240.5 -55q-149 0 -252 78.5t-116 203.5v127q20 124 129 196.5t279 72.5h288v70q0 113 -46 161.5t-161 48.5h-391v176h413q241 0 324 -146q147 174 393 174q205 0 335 -112t165 -302q6 -28 6 -60v-139l-25 -25h-820
q16 -165 107.5 -258t242.5 -93q107 0 181 39.5t140 125.5l134 -117q-163 -221 -455 -221zM504 141q89 0 157.5 38.5t133.5 126.5v189h-275q-105 0 -166.5 -39t-69.5 -109v-54q7 -67 69 -109.5t151 -42.5zM1649 650q-10 139 -98 227t-222 88q-139 0 -227.5 -86.5
t-110.5 -228.5h658zM876 1241v34l152 277h231v-34l-240 -277h-143z" />
    <glyph glyph-name="uni0218" unicode="&#x218;" horiz-adv-x="1247" 
d="M637 -28q-370 0 -559 300l149 129q88 -130 181.5 -188.5t221.5 -58.5q109 0 187 42t111 119q13 33 13 68v42q0 35 -13 63q-23 53 -81.5 89t-159.5 63l-192 51q-286 77 -347 303q-7 22 -7 53v87q0 26 10 63q37 135 171.5 220.5t312.5 85.5q166 0 286 -60t215 -187
l-146 -122q-71 101 -153.5 143.5t-202.5 42.5q-107 0 -182.5 -45t-102.5 -124q-5 -18 -5 -40v-36q0 -13 5 -36q19 -63 76 -104t160 -69l201 -56q145 -41 236.5 -111t112.5 -163q7 -24 7 -56v-144q0 -28 -13 -65q-43 -135 -173.5 -217t-318.5 -82zM529 -451v340h184v-29
l-60 -311h-124z" />
    <glyph glyph-name="uni0219" unicode="&#x219;" horiz-adv-x="1007" 
d="M498 -28q-138 0 -250 62t-173 171l138 117q38 -84 118 -135t168 -51t146.5 35t75.5 97q2 18 2 30v30q0 9 -2 23q-12 45 -53 74t-126 50l-170 43q-216 56 -253 229q-4 24 -4 36v72q0 12 4 32q27 108 135.5 177.5t255.5 69.5q258 0 399 -201l-131 -110q-50 76 -116 111.5
t-157 35.5q-77 0 -132 -30.5t-70 -81.5q-2 -8 -2 -23v-18q0 -8 2 -20q11 -48 52.5 -78t118.5 -49l153 -36q222 -53 275 -214q8 -22 8 -47v-96q0 -31 -8 -54q-36 -116 -142 -183.5t-262 -67.5zM402 -451v340h184v-29l-59 -311h-125z" />
    <glyph glyph-name="uni021A" unicode="&#x21a;" horiz-adv-x="1171" 
d="M484 0v1292h-438v183h1080v-183h-439v-1292h-203zM495 -451v340h183v-29l-59 -311h-124z" />
    <glyph glyph-name="uni021B" unicode="&#x21b;" horiz-adv-x="751" 
d="M562 0q-145 0 -234 79.5t-89 226.5v626h-169v174h169v104l101 183h89v-287h253v-174h-253v-603q0 -70 40 -111t108 -41h97v-177h-112zM413 -451v340h183v-29l-59 -311h-124z" />
    <glyph glyph-name="uni0237" unicode="&#x237;" horiz-adv-x="477" 
d="M-101 -451v177h97q67 0 107 41.5t40 111.5v1227h190v-1250q0 -147 -88.5 -227t-233.5 -80h-112z" />
    <glyph glyph-name="circumflex" unicode="&#x2c6;" horiz-adv-x="980" 
d="M152 1241v34l258 277h161l259 -277v-34h-180l-159 175l-159 -175h-180z" />
    <glyph glyph-name="caron" unicode="&#x2c7;" horiz-adv-x="980" 
d="M410 1241l-258 277v34h180l159 -174l159 174h180v-34l-259 -277h-161z" />
    <glyph glyph-name="uni02C9" unicode="&#x2c9;" horiz-adv-x="940" 
d="M181 1320v153h579v-153h-579z" />
    <glyph glyph-name="breve" unicode="&#x2d8;" horiz-adv-x="978" 
d="M491 1241q-152 0 -236.5 83.5t-84.5 227.5h161q0 -81 41.5 -128t117.5 -47t117.5 47t41.5 128h161q0 -144 -84 -227.5t-235 -83.5z" />
    <glyph glyph-name="dotaccent" unicode="&#x2d9;" horiz-adv-x="468" 
d="M234 1304q-56 0 -96 40t-40 97t40 96.5t96 39.5q57 0 97 -39.5t40 -96.5t-40 -97t-97 -40z" />
    <glyph glyph-name="ring" unicode="&#x2da;" horiz-adv-x="620" 
d="M310 1219q-90 0 -149 57.5t-59 143.5q0 87 59 145t149 58q91 0 150 -58t59 -145q0 -86 -59 -143.5t-150 -57.5zM310 1325q39 0 67.5 28t28.5 67q0 42 -27.5 69.5t-68.5 27.5q-42 0 -68.5 -27t-26.5 -70q0 -41 26.5 -68t68.5 -27z" />
    <glyph glyph-name="ogonek" unicode="&#x2db;" horiz-adv-x="479" 
d="M325 -437q-116 0 -181.5 63.5t-65.5 169.5q0 103 67.5 175.5t154.5 101.5l100 -73q-71 -24 -114.5 -71t-43.5 -111q0 -49 29 -75t80 -26h49v-154h-75z" />
    <glyph glyph-name="tilde" unicode="&#x2dc;" horiz-adv-x="956" 
d="M135 1335q0 92 49.5 145.5t129.5 53.5q45 0 76.5 -11t68.5 -35l62 -41q56 -38 86 -38q60 0 60 73v55h153v-80q0 -93 -49 -145.5t-129 -52.5q-78 0 -153 51l-64 43q-47 31 -77 31q-60 0 -60 -74v-54h-153v79z" />
    <glyph glyph-name="hungarumlaut" unicode="&#x2dd;" horiz-adv-x="1013" 
d="M177 1241v34l96 277h219v-34l-192 -277h-123zM523 1241v34l97 277h218v-34l-192 -277h-123z" />
    <glyph glyph-name="gravecomb" unicode="&#x300;" 
d="M-72 1241l-240 277v34h232l152 -277v-34h-144z" />
    <glyph glyph-name="acutecomb" unicode="&#x301;" 
d="M-74 1241v34l152 277h232v-34l-240 -277h-144z" />
    <glyph glyph-name="uni0302" unicode="&#x302;" 
d="M-339 1241v34l259 277h161l258 -277v-34h-180l-158 175l-160 -175h-180z" />
    <glyph glyph-name="tildecomb" unicode="&#x303;" 
d="M-343 1335q0 92 49.5 145.5t129.5 53.5q45 0 76.5 -11t68.5 -35l63 -41q56 -38 86 -38q59 0 59 73v55h154v-80q0 -93 -49 -145.5t-130 -52.5q-77 0 -152 51l-65 43q-47 31 -77 31q-59 0 -59 -74v-54h-154v79z" />
    <glyph glyph-name="uni0304" unicode="&#x304;" 
d="M-289 1320v153h579v-153h-579z" />
    <glyph glyph-name="uni0306" unicode="&#x306;" 
d="M2 1241q-152 0 -236.5 83.5t-84.5 227.5h160q0 -81 42 -128t118 -47t117.5 47t41.5 128h161q0 -144 -84 -227.5t-235 -83.5z" />
    <glyph glyph-name="uni0307" unicode="&#x307;" 
d="M0 1304q-56 0 -96 40t-40 97t40 96.5t96 39.5q57 0 97 -39.5t40 -96.5t-40 -97t-97 -40z" />
    <glyph glyph-name="uni0308" unicode="&#x308;" 
d="M-190 1270q-52 0 -89.5 37t-37.5 90q0 52 37.5 89t89.5 37t89.5 -37t37.5 -89t-37.5 -89.5t-89.5 -37.5zM189 1270q-53 0 -90 37t-37 90q0 52 37.5 89t89.5 37t89 -37t37 -89t-37 -89.5t-89 -37.5z" />
    <glyph glyph-name="uni030A" unicode="&#x30a;" 
d="M-1 1219q-90 0 -148.5 57.5t-58.5 143.5q0 87 58.5 145t148.5 58q91 0 150 -58t59 -145q0 -86 -59 -143.5t-150 -57.5zM-1 1325q39 0 67.5 28t28.5 67q0 42 -27.5 69.5t-68.5 27.5q-42 0 -68.5 -27t-26.5 -70q0 -41 26.5 -68t68.5 -27z" />
    <glyph glyph-name="uni030B" unicode="&#x30b;" 
d="M-234 1241v34l96 277h218v-34l-191 -277h-123zM112 1241v34l96 277h218v-34l-191 -277h-123z" />
    <glyph glyph-name="uni030C" unicode="&#x30c;" 
d="M-80 1241l-259 277v34h180l160 -174l158 174h180v-34l-258 -277h-161z" />
    <glyph glyph-name="uni0312" unicode="&#x312;" 
d="M-92 1241v30l101 281h112v-311h-213z" />
    <glyph glyph-name="uni0326" unicode="&#x326;" 
d="M-92 -451v340h184v-29l-59 -311h-125z" />
    <glyph glyph-name="uni0327" unicode="&#x327;" 
d="M-187 -437v154h57q77 0 116 36.5t39 99.5q0 106 -88 147h181q70 -61 70 -181q0 -114 -81 -185t-211 -71h-83z" />
    <glyph glyph-name="uni0328" unicode="&#x328;" 
d="M86 -437q-116 0 -181.5 63.5t-65.5 169.5q0 103 67 175.5t154 101.5l101 -73q-71 -24 -114.5 -71t-43.5 -111q0 -49 29 -75t80 -26h49v-154h-75z" />
    <glyph glyph-name="uni0374" unicode="&#x374;" horiz-adv-x="829" 
d="M298 1072v403h233v-34l-119 -369h-114z" />
    <glyph glyph-name="uni0375" unicode="&#x375;" horiz-adv-x="829" 
d="M531 253v-403h-233v34l120 369h113z" />
    <glyph glyph-name="uni037E" unicode="&#x37e;" horiz-adv-x="516" 
d="M166 -185v416h229v-34l-126 -382h-103zM296 861q-57 0 -97 40t-40 97t40 97t97 40t97 -40t40 -97t-40 -97t-97 -40z" />
    <glyph glyph-name="tonos" unicode="&#x384;" horiz-adv-x="569" 
d="M108 1241v34l152 277h232v-34l-241 -277h-143z" />
    <glyph glyph-name="dieresistonos" unicode="&#x385;" horiz-adv-x="835" 
d="M127 1270q-53 0 -90 37t-37 90q0 52 37.5 89t89.5 37t89 -37t37 -89t-37 -89.5t-89 -37.5zM313 1241v311h225v-34l-81 -277h-144zM709 1270q-53 0 -90 37t-37 90q0 52 37.5 89t89.5 37t89.5 -37t37.5 -89t-37.5 -89.5t-89.5 -37.5z" />
    <glyph glyph-name="Alphatonos" unicode="&#x386;" horiz-adv-x="1406" 
d="M23 0v34l550 1441h250l556 -1441v-34h-205l-136 362h-676l-134 -362h-205zM73 1072v403h233v-34l-120 -369h-113zM428 540h543l-260 693h-26z" />
    <glyph glyph-name="anoteleia" unicode="&#x387;" horiz-adv-x="493" 
d="M281 601q-57 0 -97 39.5t-40 96.5t40 97t97 40t96.5 -40t39.5 -97t-39.5 -96.5t-96.5 -39.5z" />
    <glyph glyph-name="Epsilontonos" unicode="&#x388;" horiz-adv-x="1200" 
d="M179 0v1475h933v-183h-730v-445h545v-181h-545v-484h730v-182h-933zM-158 1072v403h233v-34l-120 -369h-113z" />
    <glyph glyph-name="Etatonos" unicode="&#x389;" horiz-adv-x="1531" 
d="M179 0v1475h203v-647h768v647h204v-1475h-204v646h-768v-646h-203zM-158 1072v403h233v-34l-120 -369h-113z" />
    <glyph glyph-name="Iotatonos" unicode="&#x38a;" horiz-adv-x="561" 
d="M179 0v1475h203v-1475h-203zM-158 1072v403h233v-34l-120 -369h-113z" />
    <glyph glyph-name="Omicrontonos" unicode="&#x38c;" horiz-adv-x="1591" 
d="M796 -28q-273 0 -460.5 164.5t-221.5 443.5q-2 14 -2 44v227q0 29 2 43q34 279 221.5 444t460.5 165t460 -165t221 -444q3 -42 3 -43v-227q0 -2 -3 -44q-34 -279 -221 -443.5t-460 -164.5zM796 154q190 0 321 115.5t157 316.5q2 30 2 46v211q0 16 -2 46
q-26 201 -156.5 316t-321.5 115t-322 -115t-157 -316q-2 -30 -2 -46v-211q0 -16 2 -46q26 -201 157 -316.5t322 -115.5zM-105 1072v403h233v-34l-120 -369h-113z" />
    <glyph glyph-name="Upsilontonos" unicode="&#x38e;" horiz-adv-x="1257" 
d="M528 0v560l-501 881v34h213l377 -687h26l376 687h213v-34l-500 -881v-560h-204zM-270 1072v403h233v-34l-120 -369h-113z" />
    <glyph glyph-name="Omegatonos" unicode="&#x38f;" horiz-adv-x="1611" 
d="M154 0v193h348l1 64q-152 59 -253.5 191.5t-125.5 286.5q-2 26 -2 41v128q0 15 2 39q34 253 217 406.5t465 153.5t464.5 -153.5t216.5 -406.5q3 -18 3 -39v-128q0 -22 -3 -41q-23 -173 -121.5 -294.5t-257.5 -183.5v-64h350v-193h-533v349q150 32 244 128.5t115 250.5
q2 28 2 43v125q0 15 -2 41q-25 177 -156 283t-322 106t-322 -106t-156 -283q-2 -26 -2 -41v-125q0 -29 2 -43q21 -138 116.5 -242.5t242.5 -136.5v-349h-533zM-111 1072v403h234v-34l-120 -369h-114z" />
    <glyph glyph-name="iotadieresistonos" unicode="&#x390;" horiz-adv-x="647" 
d="M495 0q-152 0 -242 79.5t-90 226.5v800h190v-779q0 -69 40 -109.5t108 -40.5h93v-177h-99zM-33 1270q-53 0 -90 37t-37 90q0 52 37.5 89t89.5 37t89 -37t37 -89t-37 -89.5t-89 -37.5zM153 1241v311h225v-34l-82 -277h-143zM549 1270q-53 0 -90 37t-37 90q0 52 37.5 89
t89.5 37t89 -37t37 -89t-37 -89.5t-89 -37.5z" />
    <glyph glyph-name="Alpha" unicode="&#x391;" horiz-adv-x="1413" 
d="M28 0v34l550 1441h250l556 -1441v-34h-205l-136 362h-676l-134 -362h-205zM433 540h543l-260 693h-26z" />
    <glyph glyph-name="Beta" unicode="&#x392;" horiz-adv-x="1353" 
d="M179 0v1475h574q164 0 273 -74.5t135 -212.5q2 -22 2 -34v-97q0 -16 -2 -34q-12 -82 -47.5 -132t-103.5 -86q90 -26 152.5 -92.5t83.5 -164.5q4 -21 4 -49v-140q0 -28 -3 -41q-28 -147 -148 -232.5t-300 -85.5h-620zM770 178q231 0 272 173q5 25 5 46v85q0 23 -5 46
q-42 173 -272 173h-388v-523h388zM382 869h354q97 0 150.5 36t74.5 105q6 20 6 42v62q0 24 -6 43q-44 140 -233 140h-346v-428z" />
    <glyph glyph-name="Gamma" unicode="&#x393;" horiz-adv-x="1126" 
d="M179 0v1475h882v-183h-679v-1292h-203z" />
    <glyph glyph-name="uni0394" unicode="&#x394;" horiz-adv-x="1331" 
d="M28 0v34l509 1441h250l515 -1441v-34h-1274zM299 196h731l-355 1037h-26z" />
    <glyph glyph-name="Epsilon" unicode="&#x395;" horiz-adv-x="1200" 
d="M179 0v1475h933v-183h-730v-445h545v-181h-545v-484h730v-182h-933z" />
    <glyph glyph-name="Zeta" unicode="&#x396;" horiz-adv-x="1173" 
d="M84 0v181l738 1086v25h-710v183h957v-183l-739 -1084v-26h752v-182h-998z" />
    <glyph glyph-name="Eta" unicode="&#x397;" horiz-adv-x="1531" 
d="M179 0v1475h203v-647h768v647h204v-1475h-204v646h-768v-646h-203z" />
    <glyph glyph-name="Theta" unicode="&#x398;" horiz-adv-x="1591" 
d="M796 -28q-273 0 -460.5 164.5t-221.5 443.5q-2 14 -2 44v227q0 29 2 43q34 279 221.5 444t460.5 165t460 -165t221 -444q3 -42 3 -43v-227q0 -2 -3 -44q-34 -279 -221 -443.5t-460 -164.5zM796 154q190 0 321 115.5t157 316.5q2 30 2 46v211q0 16 -2 46
q-26 201 -156.5 316t-321.5 115t-322 -115t-157 -316q-2 -30 -2 -46v-211q0 -16 2 -46q26 -201 157 -316.5t322 -115.5zM502 650v175h587v-175h-587z" />
    <glyph glyph-name="Iota" unicode="&#x399;" horiz-adv-x="561" 
d="M179 0v1475h203v-1475h-203z" />
    <glyph glyph-name="Kappa" unicode="&#x39a;" horiz-adv-x="1218" 
d="M179 0v1475h203v-648h86l491 648h221v-34l-548 -704l548 -702v-35h-221l-491 648h-86v-648h-203z" />
    <glyph glyph-name="Lambda" unicode="&#x39b;" horiz-adv-x="1409" 
d="M28 0v34l553 1441h248l553 -1441v-34h-210l-454 1224h-26l-454 -1224h-210z" />
    <glyph glyph-name="Mu" unicode="&#x39c;" horiz-adv-x="1734" 
d="M179 0v1475h228l448 -768h25l448 768h228v-1475h-202v1116h-25l-385 -670h-153l-385 668h-26v-1114h-201z" />
    <glyph glyph-name="Nu" unicode="&#x39d;" horiz-adv-x="1542" 
d="M179 0v1475h214l746 -1098h26v1098h199v-1475h-214l-746 1098h-26v-1098h-199z" />
    <glyph glyph-name="Xi" unicode="&#x39e;" horiz-adv-x="1273" 
d="M103 1292v183h1067v-183h-1067zM276 666v181h721v-181h-721zM103 0v182h1067v-182h-1067z" />
    <glyph glyph-name="Omicron" unicode="&#x39f;" horiz-adv-x="1591" 
d="M796 -28q-273 0 -460.5 164.5t-221.5 443.5q-2 14 -2 44v227q0 29 2 43q34 279 221.5 444t460.5 165t460 -165t221 -444q3 -42 3 -43v-227q0 -2 -3 -44q-34 -279 -221 -443.5t-460 -164.5zM796 154q190 0 321 115.5t157 316.5q2 30 2 46v211q0 16 -2 46
q-26 201 -156.5 316t-321.5 115t-322 -115t-157 -316q-2 -30 -2 -46v-211q0 -16 2 -46q26 -201 157 -316.5t322 -115.5z" />
    <glyph glyph-name="Pi" unicode="&#x3a0;" horiz-adv-x="1501" 
d="M179 0v1475h1144v-1475h-203v1292h-738v-1292h-203z" />
    <glyph glyph-name="Rho" unicode="&#x3a1;" horiz-adv-x="1280" 
d="M179 0v1475h557q167 0 279.5 -60.5t160.5 -180.5q25 -53 25 -130v-176q0 -79 -25 -132q-47 -116 -160 -179t-280 -63h-354v-554h-203zM729 736q191 0 252 136q21 41 21 104v77q0 65 -21 104q-61 135 -252 135h-347v-556h347z" />
    <glyph glyph-name="Sigma" unicode="&#x3a3;" horiz-adv-x="1245" 
d="M104 0v182l413 534v26l-386 550v183h1001v-183h-755v-25l356 -521v-35l-375 -503v-26h793v-182h-1047z" />
    <glyph glyph-name="Tau" unicode="&#x3a4;" horiz-adv-x="1171" 
d="M484 0v1292h-438v183h1080v-183h-439v-1292h-203z" />
    <glyph glyph-name="Upsilon" unicode="&#x3a5;" horiz-adv-x="1257" 
d="M527 0v560l-501 881v34h213l377 -687h26l376 687h213v-34l-500 -881v-560h-204z" />
    <glyph glyph-name="Phi" unicode="&#x3a6;" horiz-adv-x="1658" 
d="M654 173q-115 0 -210.5 33.5t-162 94t-108.5 140.5t-58 176q-8 121 0 241q21 129 87 227.5t182.5 157.5t269.5 59h74v173h203v-173h74q153 0 269.5 -59t182.5 -157.5t87 -227.5q8 -121 0 -241q-16 -96 -58 -176t-108.5 -140.5t-162 -94t-210.5 -33.5h-74v-173h-203v173
h-74zM318 633q22 -132 109.5 -205t234.5 -73h66v765h-66q-147 0 -234.5 -73t-109.5 -205q-9 -96 0 -209zM931 355h66q147 0 234 72.5t109 205.5q9 113 0 209q-22 133 -109 205.5t-234 72.5h-66v-765z" />
    <glyph glyph-name="Chi" unicode="&#x3a7;" horiz-adv-x="1327" 
d="M42 0v36l481 728l-462 675v36h221l368 -557h26l370 557h220v-36l-462 -675l480 -728v-36h-221l-387 606h-26l-387 -606h-221z" />
    <glyph glyph-name="Psi" unicode="&#x3a8;" horiz-adv-x="1466" 
d="M632 0v417q-247 9 -381.5 147.5t-134.5 376.5v534h204v-559q9 -147 87.5 -227.5t224.5 -88.5v875h203v-875q146 8 224.5 89.5t87.5 226.5v559h204v-534q0 -239 -135 -377t-381 -147v-417h-203z" />
    <glyph glyph-name="uni03A9" unicode="&#x3a9;" horiz-adv-x="1611" 
d="M154 0v193h348l1 64q-152 59 -253.5 191.5t-125.5 286.5q-2 26 -2 41v128q0 15 2 39q34 253 217 406.5t465 153.5t464.5 -153.5t216.5 -406.5q3 -18 3 -39v-128q0 -22 -3 -41q-23 -173 -121.5 -294.5t-257.5 -183.5v-64h350v-193h-533v349q150 32 244 128.5t115 250.5
q2 28 2 43v125q0 15 -2 41q-25 177 -156 283t-322 106t-322 -106t-156 -283q-2 -26 -2 -41v-125q0 -29 2 -43q21 -138 116.5 -242.5t242.5 -136.5v-349h-533z" />
    <glyph glyph-name="Iotadieresis" unicode="&#x3aa;" horiz-adv-x="561" 
d="M179 0v1475h203v-1475h-203zM91 1638q-53 0 -90 37t-37 90q0 52 37.5 89.5t89.5 37.5t89.5 -37.5t37.5 -89.5t-37.5 -89.5t-89.5 -37.5zM470 1638q-52 0 -89.5 37t-37.5 90q0 52 37.5 89.5t89.5 37.5t89 -37.5t37 -89.5t-37 -89.5t-89 -37.5z" />
    <glyph glyph-name="Upsilondieresis" unicode="&#x3ab;" horiz-adv-x="1257" 
d="M527 0v560l-501 881v34h213l377 -687h26l376 687h213v-34l-500 -881v-560h-204zM439 1638q-53 0 -90 37t-37 90q0 52 37.5 89.5t89.5 37.5t89.5 -37.5t37.5 -89.5t-37.5 -89.5t-89.5 -37.5zM818 1638q-52 0 -89.5 37t-37.5 90q0 52 37.5 89.5t89.5 37.5t89.5 -37.5
t37.5 -89.5t-37.5 -89.5t-89.5 -37.5z" />
    <glyph glyph-name="alphatonos" unicode="&#x3ac;" horiz-adv-x="1345" 
d="M572 -29q-171 0 -290.5 95t-164.5 266q-20 103 -20 220t19 219q44 172 165.5 268t296.5 96q115 0 210 -43.5t160 -125.5l44 140h146v-810q0 -119 113 -119h30v-177h-77q-195 0 -243 159q-75 -101 -167 -144.5t-222 -43.5zM629 145q117 0 193 49t126 158v393
q-49 103 -132.5 160t-186.5 57q-128 0 -214 -68t-117 -187q-29 -154 0 -307q31 -120 116.5 -187.5t214.5 -67.5zM592 1241v34l152 277h231v-34l-240 -277h-143z" />
    <glyph glyph-name="epsilontonos" unicode="&#x3ad;" horiz-adv-x="1042" 
d="M532 -28q-149 0 -256 61t-144 170q-28 112 0 217q48 135 190 171q-52 17 -94.5 59t-61.5 97q-22 85 -1 176q82 211 367 211q126 0 225.5 -59t153.5 -161l-133 -87q-88 149 -246 149q-152 0 -195 -99q-17 -58 0 -116q39 -100 167 -100h143v-148h-149q-141 0 -182 -115
q-16 -64 -1 -129q22 -65 78.5 -99.5t139.5 -34.5q94 0 158.5 44.5t113.5 143.5l153 -84q-54 -129 -162.5 -198t-263.5 -69zM459 1241v34l152 277h232v-34l-240 -277h-144z" />
    <glyph glyph-name="etatonos" unicode="&#x3ae;" horiz-adv-x="1310" 
d="M966 699q-7 114 -74.5 186.5t-191.5 72.5q-99 0 -175 -54.5t-113 -148.5v-755h-190v804q0 126 -113 126h-26v176h73q195 0 243 -158q49 84 140.5 135t208.5 51q193 0 300.5 -113t107.5 -312v-1160h-190v1150zM637 1241v34l153 277h231v-34l-240 -277h-144z" />
    <glyph glyph-name="iotatonos" unicode="&#x3af;" horiz-adv-x="591" 
d="M495 0q-152 0 -242 79.5t-90 226.5v800h190v-779q0 -69 40 -109.5t108 -40.5h93v-177h-99zM155 1241v34l152 277h232v-34l-241 -277h-143z" />
    <glyph glyph-name="upsilondieresistonos" unicode="&#x3b0;" horiz-adv-x="1200" 
d="M601 -28q-204 0 -325 119t-121 317v698h190v-704q8 -118 71 -186t185 -68t184.5 68t70.5 186v704h190v-698q0 -198 -120 -317t-325 -119zM309 1270q-53 0 -90 37t-37 90q0 52 37.5 89t89.5 37t89.5 -37t37.5 -89t-37.5 -89.5t-89.5 -37.5zM496 1241v311h224v-34l-81 -277
h-143zM891 1270q-53 0 -90 37t-37 90q0 52 37.5 89t89.5 37t89.5 -37t37.5 -89t-37.5 -89.5t-89.5 -37.5z" />
    <glyph glyph-name="alpha" unicode="&#x3b1;" horiz-adv-x="1345" 
d="M572 -29q-171 0 -290.5 95t-164.5 266q-20 103 -20 220t19 219q44 172 165.5 268t296.5 96q115 0 210 -43.5t160 -125.5l44 140h146v-810q0 -119 113 -119h30v-177h-77q-195 0 -243 159q-75 -101 -167 -144.5t-222 -43.5zM629 145q117 0 193 49t126 158v393
q-49 103 -132.5 160t-186.5 57q-128 0 -214 -68t-117 -187q-29 -154 0 -307q31 -120 116.5 -187.5t214.5 -67.5z" />
    <glyph glyph-name="beta" unicode="&#x3b2;" horiz-adv-x="1282" 
d="M163 1159q0 206 134.5 336.5t344.5 130.5q171 0 286 -72.5t156 -206.5q33 -154 -5 -291q-40 -114 -160 -172q81 -23 142 -74.5t91 -132.5q28 -84 31.5 -198t-14.5 -198q-43 -142 -164.5 -225.5t-292.5 -83.5q-115 0 -214 45t-145 137v-605h-190v1610zM691 146
q112 0 190 56.5t103 159.5q22 133 -5 253q-28 93 -103 132.5t-197 39.5h-161v169h129q96 0 161.5 38t91.5 113q12 42 11 94t-14 93q-30 74 -95.5 114.5t-158.5 40.5q-123 0 -206.5 -79t-83.5 -231v-712q17 -124 110.5 -202.5t227.5 -78.5z" />
    <glyph glyph-name="gamma" unicode="&#x3b3;" horiz-adv-x="1118" 
d="M464 -451v451l-430 1072v34h196l317 -827h25l320 827h193v-34l-431 -1072v-451h-190z" />
    <glyph glyph-name="delta" unicode="&#x3b4;" horiz-adv-x="1239" 
d="M618 -28q-194 0 -334.5 111t-178.5 292q-16 133 -1 272q38 184 174.5 295.5t330.5 111.5q18 0 46 -4l-431 375v172h832v-172h-538v-26l423 -394q158 -144 193 -332q16 -150 0 -302q-40 -180 -180.5 -289.5t-335.5 -109.5zM618 145q130 0 217 69t111 185q14 118 0 235
q-26 116 -113.5 184.5t-214.5 68.5q-128 0 -215 -68.5t-112 -184.5q-14 -124 0 -235q24 -117 111.5 -185.5t215.5 -68.5z" />
    <glyph glyph-name="epsilon" unicode="&#x3b5;" horiz-adv-x="1042" 
d="M532 -28q-149 0 -256 61t-144 170q-28 112 0 217q48 135 190 171q-52 17 -94.5 59t-61.5 97q-22 85 -1 176q82 211 367 211q126 0 225.5 -59t153.5 -161l-133 -87q-88 149 -246 149q-152 0 -195 -99q-17 -58 0 -116q39 -100 167 -100h143v-148h-149q-141 0 -182 -115
q-16 -64 -1 -129q22 -65 78.5 -99.5t139.5 -34.5q94 0 158.5 44.5t113.5 143.5l153 -84q-54 -129 -162.5 -198t-263.5 -69z" />
    <glyph glyph-name="zeta" unicode="&#x3b6;" horiz-adv-x="1101" 
d="M590 -451v173h83q81 0 126 33t48 96v25q-3 61 -44.5 92.5t-107.5 31.5h-127q-202 0 -322.5 111.5t-137.5 298.5v103q8 118 58 205t143 187l464 494v26h-610v172h853v-172l-565 -618q-34 -38 -56 -66t-45 -66t-36.5 -82t-19.5 -96v-73q8 -120 89.5 -185.5t213.5 -65.5h101
q150 0 235.5 -64.5t99.5 -185.5v-114q-13 -124 -102 -192t-235 -68h-106z" />
    <glyph glyph-name="eta" unicode="&#x3b7;" horiz-adv-x="1310" 
d="M966 699q-7 114 -74.5 186.5t-191.5 72.5q-99 0 -175 -54.5t-113 -148.5v-755h-190v804q0 126 -113 126h-26v176h73q195 0 243 -158q49 84 140.5 135t208.5 51q193 0 300.5 -113t107.5 -312v-1160h-190v1150z" />
    <glyph glyph-name="theta" unicode="&#x3b8;" horiz-adv-x="1271" 
d="M636 -28q-210 0 -355 141.5t-180 377.5q-10 247 0 495q35 236 181 376.5t354 140.5t353.5 -140.5t180.5 -376.5q10 -248 0 -495q-35 -236 -179.5 -377.5t-354.5 -141.5zM636 145q143 0 235.5 103t111.5 283q1 40 1 120h-696q0 -80 1 -120q20 -180 112.5 -283t234.5 -103z
M288 823h696v57.5t-1 57.5q-18 181 -110.5 286.5t-236.5 105.5t-236 -105.5t-111 -286.5q-1 -38 -1 -115z" />
    <glyph glyph-name="iota" unicode="&#x3b9;" horiz-adv-x="647" 
d="M495 0q-152 0 -242 79.5t-90 226.5v800h190v-779q0 -69 40 -109.5t108 -40.5h93v-177h-99z" />
    <glyph glyph-name="kappa" unicode="&#x3ba;" horiz-adv-x="1069" 
d="M163 0v1106h190v-465h82l387 465h206v-34l-435 -519l435 -519v-34h-210l-383 465h-82v-465h-190z" />
    <glyph glyph-name="lambda" unicode="&#x3bb;" horiz-adv-x="1157" 
d="M60 0v34l416 1117q30 84 30 122q0 150 -169 150h-141v174h135q160 0 235.5 -56t128.5 -216l427 -1291v-34h-194l-303 976h-25l-341 -976h-199z" />
    <glyph glyph-name="uni03BC" unicode="&#x3bc;" horiz-adv-x="1302" 
d="M155 -451v1557h190v-667q0 -52 9 -88q20 -101 86.5 -152t165.5 -51q96 0 168 52t112 151v755h190v-786q0 -79 33 -111t97 -32h36v-177h-52q-211 0 -278 162q-45 -88 -120.5 -136t-173.5 -48q-179 0 -273 111v-540h-190z" />
    <glyph glyph-name="nu" unicode="&#x3bd;" horiz-adv-x="1150" 
d="M461 0l-423 1072v34h196l329 -890h25l332 890h192v-34l-422 -1072h-229z" />
    <glyph glyph-name="xi" unicode="&#x3be;" horiz-adv-x="1028" 
d="M541 -451v173h82q166 0 174 129v25q-4 61 -45 92.5t-107 31.5h-89q-179 0 -293.5 90.5t-147.5 256.5q-11 105 0 208q30 120 102 193t172 98q-193 61 -231 234q-12 84 0 167q22 115 128 178h-199v172h871v-172h-379q-200 0 -241 -165q-11 -85 0 -166q23 -81 87 -126
t164 -45h173v-165h-202q-95 0 -167 -57t-93 -156q-7 -71 0 -153q21 -104 95.5 -161.5t196.5 -57.5h56q149 0 235 -64.5t100 -185.5v-114q-13 -124 -101.5 -192t-234.5 -68h-106z" />
    <glyph glyph-name="omicron" unicode="&#x3bf;" horiz-adv-x="1271" 
d="M636 -28q-127 0 -237.5 49t-190.5 147t-105 231q-6 31 -6 67v174q0 36 6 67q25 133 105 231t190.5 147t237.5 49t237.5 -49t190.5 -147t105 -231q7 -37 7 -67v-174q0 -30 -7 -67q-25 -133 -105 -231t-190.5 -147t-237.5 -49zM636 145q80 0 151 30t124 93t70 149
q5 30 5 61v150q0 31 -5 61q-17 86 -70 149.5t-124 93.5t-151 30t-151 -30t-124 -93.5t-69 -149.5q-5 -23 -5 -61v-150q0 -38 5 -61q24 -128 122 -200t222 -72z" />
    <glyph glyph-name="pi" unicode="&#x3c0;" horiz-adv-x="1363" 
d="M1203 0q-145 0 -233.5 79.5t-88.5 226.5v620h-400v-926h-190v926h-221v180h1224v-180h-223v-597q0 -70 40 -111t108 -41h75v-177h-91z" />
    <glyph glyph-name="rho" unicode="&#x3c1;" horiz-adv-x="1300" 
d="M163 678q24 218 161 337.5t353 119.5q204 0 332.5 -93.5t174.5 -267.5q42 -222 2 -438q-45 -172 -166.5 -268t-306.5 -96q-110 0 -203.5 41t-156.5 117v-581h-190v1129zM672 145q127 0 212.5 67.5t118.5 186.5q29 154 0 307q-33 122 -117.5 189t-213.5 67
q-143 0 -226 -83.5t-93 -239.5v-278q49 -103 133 -159.5t186 -56.5z" />
    <glyph glyph-name="uni03C2" unicode="&#x3c2;" horiz-adv-x="1146" 
d="M587 -451v173h83q166 0 174 129v25q-4 61 -45 92.5t-107 31.5h-59q-204 0 -349 114.5t-183 308.5q-11 136 0 274q41 200 185.5 318.5t346.5 118.5q156 0 267.5 -55.5t188.5 -170.5l-138 -119q-60 94 -135.5 133.5t-188.5 39.5q-125 0 -218.5 -75.5t-118.5 -198.5
q-10 -127 0 -255q26 -116 120 -188t223 -72h62q150 0 235.5 -64.5t99.5 -185.5v-114q-13 -124 -101.5 -192t-234.5 -68h-107z" />
    <glyph glyph-name="sigma" unicode="&#x3c3;" horiz-adv-x="1327" 
d="M635 -28q-127 0 -237.5 49t-190.5 147t-105 231q-11 148 0 294q25 129 103.5 223.5t189 142t240.5 47.5h605v-172h-237q138 -88 166 -253q11 -141 0 -282q-38 -198 -188.5 -312.5t-345.5 -114.5zM635 145q124 0 222.5 72t122.5 200q11 128 0 256q-24 121 -122.5 189.5
t-222.5 68.5t-222 -68.5t-122 -189.5q-11 -128 0 -256q17 -86 70 -149t123.5 -93t150.5 -30z" />
    <glyph glyph-name="tau" unicode="&#x3c4;" horiz-adv-x="989" 
d="M730 0q-152 0 -241.5 79t-89.5 227v625h-329v175h848v-175h-329v-602q0 -70 40 -110.5t108 -40.5h136v-178h-143z" />
    <glyph glyph-name="upsilon" unicode="&#x3c5;" horiz-adv-x="1200" 
d="M601 -28q-204 0 -325 119t-121 317v698h190v-704q8 -118 71 -186t185 -68t184.5 68t70.5 186v704h190v-698q0 -198 -120 -317t-325 -119z" />
    <glyph glyph-name="phi" unicode="&#x3c6;" horiz-adv-x="1437" 
d="M624 -451v423q-126 4 -234 54t-185.5 147t-101.5 226q-6 31 -6 67v174q0 36 6 67q24 129 101.5 226t185.5 147t234 54v463h190v-463q126 -4 234.5 -54t185.5 -147t101 -226q6 -31 6 -67v-174q0 -36 -6 -67q-24 -129 -101 -226t-185.5 -147t-234.5 -54v-423h-190zM287 478
q0 -38 5 -61q24 -124 117 -195t215 -77v816q-122 -6 -215 -77t-117 -195q-5 -23 -5 -61v-150zM814 145q123 6 215.5 77.5t116.5 194.5q5 23 5 61v150q0 38 -5 61q-24 124 -116.5 195t-215.5 77v-816z" />
    <glyph glyph-name="chi" unicode="&#x3c7;" horiz-adv-x="1128" 
d="M46 -451v36l380 804l-348 681v36h211l261 -549h29l259 549h213v-36l-348 -681l379 -804v-36h-211l-292 668h-29l-292 -668h-212z" />
    <glyph glyph-name="psi" unicode="&#x3c8;" horiz-adv-x="1398" 
d="M605 -451v423q-211 5 -330.5 123t-119.5 324v687h190v-692q7 -121 72 -191.5t188 -74.5v1245h190v-1244q123 4 187 74t71 191v692h190v-687q0 -206 -119 -324t-329 -123v-423h-190z" />
    <glyph glyph-name="omega" unicode="&#x3c9;" horiz-adv-x="1783" 
d="M566 -28q-186 0 -292.5 120t-118.5 325v210q19 289 233 479l122 -138q-84 -78 -123 -166t-44 -205v-144q6 -137 67.5 -218t166.5 -81q95 0 156 58t64 163v392h190v-392q3 -105 64 -163t156 -58q105 0 166.5 81t67.5 218v144q-5 117 -44 205t-123 166l122 138
q214 -190 233 -479v-210q-12 -205 -117.5 -325t-292.5 -120q-109 0 -188 44.5t-139 140.5q-60 -96 -138.5 -140.5t-187.5 -44.5z" />
    <glyph glyph-name="iotadieresis" unicode="&#x3ca;" horiz-adv-x="647" 
d="M495 0q-152 0 -242 79.5t-90 226.5v800h190v-779q0 -69 40 -109.5t108 -40.5h93v-177h-99zM68 1270q-52 0 -89.5 37t-37.5 90q0 52 37.5 89t89.5 37t89.5 -37t37.5 -89t-37.5 -89.5t-89.5 -37.5zM447 1270q-53 0 -90 37t-37 90q0 52 37.5 89t89.5 37t89 -37t37 -89
t-37 -89.5t-89 -37.5z" />
    <glyph glyph-name="upsilondieresis" unicode="&#x3cb;" horiz-adv-x="1200" 
d="M601 -28q-204 0 -325 119t-121 317v698h190v-704q8 -118 71 -186t185 -68t184.5 68t70.5 186v704h190v-698q0 -198 -120 -317t-325 -119zM411 1270q-53 0 -90 37t-37 90q0 52 37.5 89t89.5 37t89 -37t37 -89t-37 -89.5t-89 -37.5zM790 1270q-52 0 -89.5 37t-37.5 90
q0 52 37.5 89t89.5 37t89 -37t37 -89t-37 -89.5t-89 -37.5z" />
    <glyph glyph-name="omicrontonos" unicode="&#x3cc;" horiz-adv-x="1271" 
d="M636 -28q-127 0 -237.5 49t-190.5 147t-105 231q-6 31 -6 67v174q0 36 6 67q25 133 105 231t190.5 147t237.5 49t237.5 -49t190.5 -147t105 -231q7 -37 7 -67v-174q0 -30 -7 -67q-25 -133 -105 -231t-190.5 -147t-237.5 -49zM636 145q80 0 151 30t124 93t70 149
q5 30 5 61v150q0 31 -5 61q-17 86 -70 149.5t-124 93.5t-151 30t-151 -30t-124 -93.5t-69 -149.5q-5 -23 -5 -61v-150q0 -38 5 -61q24 -128 122 -200t222 -72zM563 1241v34l152 277h231v-34l-240 -277h-143z" />
    <glyph glyph-name="upsilontonos" unicode="&#x3cd;" horiz-adv-x="1200" 
d="M601 -28q-204 0 -325 119t-121 317v698h190v-704q8 -118 71 -186t185 -68t184.5 68t70.5 186v704h190v-698q0 -198 -120 -317t-325 -119zM527 1241v34l152 277h231v-34l-240 -277h-143z" />
    <glyph glyph-name="omegatonos" unicode="&#x3ce;" horiz-adv-x="1783" 
d="M566 -28q-186 0 -292.5 120t-118.5 325v210q19 289 233 479l122 -138q-84 -78 -123 -166t-44 -205v-144q6 -137 67.5 -218t166.5 -81q95 0 156 58t64 163v392h190v-392q3 -105 64 -163t156 -58q105 0 166.5 81t67.5 218v144q-5 117 -44 205t-123 166l122 138
q214 -190 233 -479v-210q-12 -205 -117.5 -325t-292.5 -120q-109 0 -188 44.5t-139 140.5q-60 -96 -138.5 -140.5t-187.5 -44.5zM820 1241v34l152 277h231v-34l-240 -277h-143z" />
    <glyph glyph-name="uni0400" unicode="&#x400;" horiz-adv-x="1200" 
d="M179 0v1475h933v-183h-730v-445h545v-181h-545v-484h730v-182h-933zM574 1610l-240 277v34h232l152 -277v-34h-144z" />
    <glyph glyph-name="uni0401" unicode="&#x401;" horiz-adv-x="1200" 
d="M179 0v1475h933v-183h-730v-445h545v-181h-545v-484h730v-182h-933zM456 1638q-52 0 -89.5 37t-37.5 90q0 52 37.5 89.5t89.5 37.5t89.5 -37.5t37.5 -89.5t-37.5 -89.5t-89.5 -37.5zM835 1638q-53 0 -90 37t-37 90q0 52 37.5 89.5t89.5 37.5t89.5 -37.5t37.5 -89.5
t-37.5 -89.5t-89.5 -37.5z" />
    <glyph glyph-name="uni0402" unicode="&#x402;" horiz-adv-x="1624" 
d="M484 0v1292h-438v183h1080v-183h-439v-530q50 82 144 133t218 51q153 0 258.5 -74t148.5 -224q28 -168 0 -327q-38 -161 -157.5 -241t-286.5 -80h-124v175h101q107 0 179 48.5t95 145.5q16 106 -1 209q-25 91 -92.5 138.5t-168.5 47.5q-99 0 -179.5 -48.5t-134.5 -135.5
v-580h-203z" />
    <glyph glyph-name="uni0403" unicode="&#x403;" horiz-adv-x="1126" 
d="M179 0v1475h882v-183h-679v-1292h-203zM546 1610v34l152 277h232v-34l-240 -277h-144z" />
    <glyph glyph-name="uni0404" unicode="&#x404;" horiz-adv-x="1417" 
d="M782 -28q-247 0 -418.5 134t-231.5 368q-20 118 -20.5 259.5t20.5 261.5q60 236 236 372t428 136q186 0 319 -63t236 -198l-142 -125q-86 111 -176.5 157t-229.5 46q-182 0 -304.5 -93.5t-168.5 -258.5q-9 -64 -12 -140h626v-182h-626q3 -73 12 -136q46 -164 166 -260
t286 -96q146 0 244 47.5t181 158.5l143 -126q-106 -137 -241.5 -199.5t-326.5 -62.5z" />
    <glyph glyph-name="uni0405" unicode="&#x405;" horiz-adv-x="1247" 
d="M637 -28q-370 0 -559 300l149 129q88 -130 181.5 -188.5t221.5 -58.5q109 0 187 42t111 119q13 33 13 68v42q0 35 -13 63q-23 53 -81.5 89t-159.5 63l-192 51q-286 77 -347 303q-7 22 -7 53v87q0 26 10 63q37 135 171.5 220.5t312.5 85.5q166 0 286 -60t215 -187
l-146 -122q-71 101 -153.5 143.5t-202.5 42.5q-107 0 -182.5 -45t-102.5 -124q-5 -18 -5 -40v-36q0 -13 5 -36q19 -63 76 -104t160 -69l201 -56q145 -41 236.5 -111t112.5 -163q7 -24 7 -56v-144q0 -28 -13 -65q-43 -135 -173.5 -217t-318.5 -82z" />
    <glyph glyph-name="uni0406" unicode="&#x406;" horiz-adv-x="520" 
d="M179 0v1475h203v-1475h-203z" />
    <glyph glyph-name="uni0407" unicode="&#x407;" horiz-adv-x="561" 
d="M179 0v1475h203v-1475h-203zM91 1638q-53 0 -90 37t-37 90q0 52 37.5 89.5t89.5 37.5t89 -37.5t37 -89.5t-37 -89.5t-89 -37.5zM470 1638q-52 0 -89.5 37t-37.5 90q0 52 37.5 89.5t89.5 37.5t89 -37.5t37 -89.5t-37 -89.5t-89 -37.5z" />
    <glyph glyph-name="uni0408" unicode="&#x408;" horiz-adv-x="1103" 
d="M492 -28q-290 0 -456 242l143 132q65 -99 137.5 -142.5t164.5 -43.5q98 0 159.5 44.5t79.5 128.5q10 44 10 88v1054h203v-1029q0 -224 -115.5 -349t-325.5 -125z" />
    <glyph glyph-name="uni0409" unicode="&#x409;" horiz-adv-x="2172" 
d="M62 0v182h43q135 0 197.5 121t62.5 394v778h912v-567h354q191 0 308 -81t152 -227q10 -146 0 -297q-35 -145 -151.5 -224t-308.5 -79h-557v1292h-517v-607q0 -341 -107 -513t-337 -172h-51zM1624 182q221 0 268 180q12 86 0 185q-47 179 -268 179h-347v-544h347z" />
    <glyph glyph-name="uni040A" unicode="&#x40a;" horiz-adv-x="2224" 
d="M179 0v1475h203v-647h757v647h203v-646h339q172 0 287.5 -63t160.5 -187q17 -77 17 -166t-17 -165q-45 -123 -160 -185.5t-288 -62.5h-542v646h-757v-646h-203zM1673 182q208 0 264 140q13 40 13 93t-13 94q-56 138 -264 138h-331v-465h331z" />
    <glyph glyph-name="uni040B" unicode="&#x40b;" horiz-adv-x="1634" 
d="M484 0v1292h-438v183h1080v-183h-439v-530q52 82 149.5 133t221.5 51q205 0 313 -108.5t108 -307.5v-530h-199v521q-14 243 -270 243q-99 0 -183.5 -49t-139.5 -135v-580h-203z" />
    <glyph glyph-name="uni040C" unicode="&#x40c;" horiz-adv-x="1218" 
d="M179 0v1475h203v-648h86l491 648h221v-34l-548 -704l548 -702v-35h-221l-491 648h-86v-648h-203zM572 1610v34l152 277h231v-34l-240 -277h-143z" />
    <glyph glyph-name="uni040D" unicode="&#x40d;" horiz-adv-x="1544" 
d="M179 0v1475h199v-1127h26l746 1127h214v-1475h-199v1127h-26l-746 -1127h-214zM700 1610l-240 277v34h231l152 -277v-34h-143z" />
    <glyph glyph-name="uni040E" unicode="&#x40e;" horiz-adv-x="1284" 
d="M277 0v30l260 470l-510 941v34h216l398 -756h26l403 756h208v-34l-793 -1441h-208zM638 1610q-152 0 -236.5 83.5t-84.5 227.5h161q0 -81 41.5 -128.5t117.5 -47.5t118 47.5t42 128.5h160q0 -144 -84 -227.5t-235 -83.5z" />
    <glyph glyph-name="uni040F" unicode="&#x40f;" horiz-adv-x="1492" 
d="M647 -299v299h-468v1475h203v-1293h728v1293h204v-1475h-469v-299h-198z" />
    <glyph glyph-name="uni0410" unicode="&#x410;" horiz-adv-x="1413" 
d="M28 0v34l550 1441h250l556 -1441v-34h-205l-136 362h-676l-134 -362h-205zM433 540h543l-260 693h-26z" />
    <glyph glyph-name="uni0411" unicode="&#x411;" horiz-adv-x="1277" 
d="M179 0v1475h933v-183h-730v-384h354q191 0 308 -81t152 -227q10 -146 0 -297q-35 -145 -151.5 -224t-308.5 -79h-557zM729 182q221 0 268 180q12 86 0 185q-47 179 -268 179h-347v-544h347z" />
    <glyph glyph-name="uni0412" unicode="&#x412;" horiz-adv-x="1353" 
d="M179 0v1475h574q164 0 273 -74.5t135 -212.5q2 -22 2 -34v-97q0 -16 -2 -34q-12 -82 -47.5 -132t-103.5 -86q90 -26 152.5 -92.5t83.5 -164.5q4 -21 4 -49v-140q0 -28 -3 -41q-28 -147 -148 -232.5t-300 -85.5h-620zM770 178q231 0 272 173q5 25 5 46v85q0 23 -5 46
q-42 173 -272 173h-388v-523h388zM382 869h354q97 0 150.5 36t74.5 105q6 20 6 42v62q0 24 -6 43q-44 140 -233 140h-346v-428z" />
    <glyph glyph-name="uni0413" unicode="&#x413;" horiz-adv-x="1126" 
d="M179 0v1475h882v-183h-679v-1292h-203z" />
    <glyph glyph-name="uni0414" unicode="&#x414;" horiz-adv-x="1579" 
d="M69 -299v481h190q94 182 123.5 333.5t29.5 438.5v521h872v-1293h200v-481h-198v299h-1019v-299h-198zM472 182h608v1110h-476v-340q0 -249 -31 -418t-101 -326v-26z" />
    <glyph glyph-name="uni0415" unicode="&#x415;" horiz-adv-x="1200" 
d="M179 0v1475h933v-183h-730v-445h545v-181h-545v-484h730v-182h-933z" />
    <glyph glyph-name="uni0416" unicode="&#x416;" horiz-adv-x="1773" 
d="M40 0v35l500 702l-500 704v34h212l446 -648h87v648h203v-648h87l446 648h212v-34l-500 -704l500 -702v-35h-212l-446 648h-87v-648h-203v648h-87l-446 -648h-212z" />
    <glyph glyph-name="uni0417" unicode="&#x417;" horiz-adv-x="1271" 
d="M618 -28q-396 0 -543 344l170 94q60 -136 151.5 -196t220.5 -60q122 0 202 49t111 140q23 96 -4 185q-29 81 -98 121.5t-163 40.5h-233v171h223q182 0 236 148q22 85 0 160q-28 73 -98.5 113t-175.5 40q-113 0 -198 -54t-130 -153l-165 96q71 141 198.5 216.5t295.5 75.5
q184 0 301.5 -72t163.5 -205q29 -119 3 -243q-22 -72 -73.5 -124.5t-119.5 -74.5q193 -64 241 -245q12 -109 1 -226q-36 -162 -174.5 -251.5t-342.5 -89.5z" />
    <glyph glyph-name="uni0418" unicode="&#x418;" horiz-adv-x="1542" 
d="M179 0v1475h199v-1127h26l746 1127h214v-1475h-199v1127h-26l-746 -1127h-214z" />
    <glyph glyph-name="uni0419" unicode="&#x419;" horiz-adv-x="1544" 
d="M179 0v1475h199v-1127h26l746 1127h214v-1475h-199v1127h-26l-746 -1127h-214zM773 1610q-152 0 -236.5 83.5t-84.5 227.5h161q0 -81 41.5 -128.5t117.5 -47.5t117.5 47.5t41.5 128.5h161q0 -144 -84 -227.5t-235 -83.5z" />
    <glyph glyph-name="uni041A" unicode="&#x41a;" horiz-adv-x="1218" 
d="M179 0v1475h203v-648h86l491 648h221v-34l-548 -704l548 -702v-35h-221l-491 648h-86v-648h-203z" />
    <glyph glyph-name="uni041B" unicode="&#x41b;" horiz-adv-x="1456" 
d="M62 0v182h43q135 0 197.5 121t62.5 394v778h912v-1475h-203v1292h-517v-607q0 -341 -107 -513t-337 -172h-51z" />
    <glyph glyph-name="uni041C" unicode="&#x41c;" horiz-adv-x="1693" 
d="M179 0v1475h228l448 -768h25l448 768h228v-1475h-202v1116h-25l-385 -670h-153l-385 668h-26v-1114h-201z" />
    <glyph glyph-name="uni041D" unicode="&#x41d;" horiz-adv-x="1490" 
d="M179 0v1475h203v-647h768v647h204v-1475h-204v646h-768v-646h-203z" />
    <glyph glyph-name="uni041E" unicode="&#x41e;" horiz-adv-x="1556" 
d="M796 -28q-273 0 -460.5 164.5t-221.5 443.5q-2 14 -2 44v227q0 29 2 43q34 279 221.5 444t460.5 165t460 -165t221 -444q3 -42 3 -43v-227q0 -2 -3 -44q-34 -279 -221 -443.5t-460 -164.5zM796 154q190 0 321 115.5t157 316.5q2 30 2 46v211q0 16 -2 46
q-26 201 -156.5 316t-321.5 115t-322 -115t-157 -316q-2 -30 -2 -46v-211q0 -16 2 -46q26 -201 157 -316.5t322 -115.5z" />
    <glyph glyph-name="uni041F" unicode="&#x41f;" horiz-adv-x="1501" 
d="M179 0v1475h1144v-1475h-203v1292h-738v-1292h-203z" />
    <glyph glyph-name="uni0420" unicode="&#x420;" horiz-adv-x="1280" 
d="M179 0v1475h557q167 0 279.5 -60.5t160.5 -180.5q25 -53 25 -130v-176q0 -79 -25 -132q-47 -116 -160 -179t-280 -63h-354v-554h-203zM729 736q191 0 252 136q21 41 21 104v77q0 65 -21 104q-61 135 -252 135h-347v-556h347z" />
    <glyph glyph-name="uni0421" unicode="&#x421;" horiz-adv-x="1415" 
d="M782 -28q-248 0 -419 134t-232 368q-19 71 -19 146v236q0 72 19 139q60 236 236.5 372t428.5 136q186 0 319 -63t236 -198l-142 -125q-87 111 -177.5 157t-229.5 46q-181 0 -304 -93.5t-169 -258.5q-14 -54 -14 -115v-231q0 -59 14 -112q46 -164 166 -260t287 -96
q146 0 243.5 47.5t180.5 158.5l143 -126q-106 -137 -241 -199.5t-326 -62.5z" />
    <glyph glyph-name="uni0422" unicode="&#x422;" horiz-adv-x="1142" 
d="M484 0v1292h-438v183h1080v-183h-439v-1292h-203z" />
    <glyph glyph-name="uni0423" unicode="&#x423;" horiz-adv-x="1304" 
d="M277 0v30l260 470l-510 941v34h216l398 -756h26l403 756h208v-34l-793 -1441h-208z" />
    <glyph glyph-name="uni0424" unicode="&#x424;" horiz-adv-x="1658" 
d="M643 185q-224 0 -360.5 116.5t-167.5 309.5q-8 127 0 252q31 193 167.5 309.5t360.5 116.5h85v214h203v-214h85q224 0 360.5 -116.5t167.5 -309.5q8 -125 0 -252q-31 -193 -167.5 -309.5t-360.5 -116.5h-85v-213h-203v213h-85zM318 635q21 -128 105.5 -197.5t226.5 -69.5
h78v739h-78q-142 0 -226.5 -69.5t-105.5 -197.5q-9 -94 0 -205zM931 368h78q142 0 226 69.5t105 197.5q9 111 0 205q-21 128 -105 197.5t-226 69.5h-78v-739z" />
    <glyph glyph-name="uni0425" unicode="&#x425;" horiz-adv-x="1327" 
d="M42 0v36l481 728l-462 675v36h221l368 -557h26l370 557h220v-36l-462 -675l480 -728v-36h-221l-387 606h-26l-387 -606h-221z" />
    <glyph glyph-name="uni0426" unicode="&#x426;" horiz-adv-x="1667" 
d="M1291 -299v299h-1112v1475h203v-1293h703v1293h204v-1293h200v-481h-198z" />
    <glyph glyph-name="uni0427" unicode="&#x427;" horiz-adv-x="1406" 
d="M677 459q-245 0 -374.5 137t-129.5 384v495h203v-519q0 -38 9 -79q52 -236 315 -236q191 0 326 132v702h203v-1475h-203v592q-61 -61 -154 -97t-195 -36z" />
    <glyph glyph-name="uni0428" unicode="&#x428;" horiz-adv-x="1976" 
d="M179 0v1475h203v-1293h504v1293h204v-1293h504v1293h204v-1475h-1619z" />
    <glyph glyph-name="uni0429" unicode="&#x429;" horiz-adv-x="2093" 
d="M1800 -299v299h-1621v1475h203v-1293h504v1293h204v-1293h504v1293h204v-1293h200v-481h-198z" />
    <glyph glyph-name="uni042A" unicode="&#x42a;" horiz-adv-x="1490" 
d="M46 1292v183h549v-567h354q191 0 308 -81t152 -227q5 -21 5 -53v-188q0 -33 -5 -56q-35 -145 -151.5 -224t-308.5 -79h-557v1292h-346zM942 182q221 0 268 180q5 20 5 54v76q0 34 -5 55q-47 179 -268 179h-347v-544h347z" />
    <glyph glyph-name="uni042B" unicode="&#x42b;" horiz-adv-x="1740" 
d="M179 0v1475h203v-567h354q191 0 308 -81t152 -227q5 -21 5 -53v-188q0 -33 -5 -56q-35 -145 -151.5 -224t-308.5 -79h-557zM729 182q221 0 268 180q5 20 5 54v76q0 34 -5 55q-47 179 -268 179h-347v-544h347zM1360 0v1475h203v-1475h-203z" />
    <glyph glyph-name="uni042C" unicode="&#x42c;" horiz-adv-x="1280" 
d="M179 0v1475h203v-567h354q191 0 308 -81t152 -227q5 -21 5 -53v-188q0 -33 -5 -56q-35 -145 -151.5 -224t-308.5 -79h-557zM729 182q221 0 268 180q5 20 5 54v76q0 34 -5 55q-47 179 -268 179h-347v-544h347z" />
    <glyph glyph-name="uni042D" unicode="&#x42d;" horiz-adv-x="1417" 
d="M639 -28q-193 0 -328.5 62.5t-242.5 199.5l142 126q82 -108 183 -157t246 -49q164 0 283 96.5t165 259.5q9 63 12 136h-626v182h626q-3 76 -12 140q-46 166 -167 259t-302 93q-132 0 -224.5 -46.5t-186.5 -156.5l-141 125q213 261 555 261q252 0 428 -136t236 -372
q21 -120 20.5 -261.5t-20.5 -259.5q-60 -234 -229.5 -368t-416.5 -134z" />
    <glyph glyph-name="uni042E" unicode="&#x42e;" horiz-adv-x="2041" 
d="M1270 -28q-173 0 -314 73t-231 211.5t-112 323.5q-3 42 -3 44v22h-228v-646h-203v1475h203v-647h228v23q0 1 3 43q22 185 112 324t231 212t314 73q174 0 315 -73.5t231 -212t112 -323.5q2 -14 2 -43v-227q0 -30 -2 -44q-22 -185 -112 -323.5t-231 -211.5t-315 -73z
M1270 154q182 0 305.5 115t148.5 317q2 30 2 46v211q0 16 -2 46q-25 201 -148.5 316t-305.5 115t-305.5 -115t-148.5 -316q-2 -30 -2 -46v-211q0 -16 2 -46q25 -202 148.5 -317t305.5 -115z" />
    <glyph glyph-name="uni042F" unicode="&#x42f;" horiz-adv-x="1327" 
d="M99 0v34l315 564q-119 37 -193 114t-96 178q-5 27 -5 52v166q0 33 3 48q22 150 143 234.5t322 84.5h560v-1475h-203v567h-325l-311 -567h-210zM572 749h373v543h-373q-207 0 -249 -177q-5 -19 -5 -50v-89q0 -29 5 -48q40 -179 249 -179z" />
    <glyph glyph-name="uni0430" unicode="&#x430;" horiz-adv-x="1140" 
d="M467 -28q-151 0 -253 81t-115 212v127q20 135 129 213t279 78q160 0 288 -75v112q0 113 -46 161.5t-161 48.5h-391v176h404q209 0 296.5 -91.5t87.5 -292.5v-722h-145l-43 146q-65 -89 -145 -131.5t-185 -42.5zM504 141q88 0 156.5 33.5t134.5 109.5v153q-106 87 -275 87
q-103 0 -165.5 -43.5t-70.5 -122.5v-54q7 -72 68.5 -117.5t151.5 -45.5z" />
    <glyph glyph-name="uni0431" unicode="&#x431;" horiz-adv-x="1273" 
d="M637 -28q-202 0 -349.5 118t-184.5 309q-5 23 -5 61v237q0 135 2 159q7 161 36 275.5t90 202t161.5 138t245.5 69.5l440 56v-173l-429 -56q-153 -20 -240.5 -106.5t-96.5 -259.5l-4 -81q128 176 379 176q191 0 321 -111t167 -305q6 -35 6 -67v-154q0 -33 -6 -61
q-37 -191 -184 -309t-349 -118zM637 145q130 0 225.5 75.5t119.5 196.5q4 24 4 55v123q0 44 -4 61q-24 120 -119 195t-226 75q-132 0 -227 -75t-118 -195q-4 -13 -4 -61v-123q0 -37 4 -55q23 -121 118.5 -196.5t226.5 -75.5z" />
    <glyph glyph-name="uni0432" unicode="&#x432;" horiz-adv-x="1165" 
d="M163 0v1106h510q251 0 307 -186q12 -25 12 -59v-71q0 -35 -12 -62q-22 -75 -103 -122q144 -37 178 -191q3 -12 3 -37v-106q0 -10 -2 -30q-26 -112 -114 -177t-227 -65h-552zM672 168q82 0 128.5 26.5t63.5 87.5q3 11 3 34v43q0 24 -3 34q-18 61 -64.5 88t-127.5 27h-319
v-340h319zM353 672h300q117 0 148 78q6 14 6 38v38q0 20 -10 37q-35 79 -149 79h-295v-270z" />
    <glyph glyph-name="uni0433" unicode="&#x433;" horiz-adv-x="958" 
d="M163 0v1106h738v-177h-548v-929h-190z" />
    <glyph glyph-name="uni0434" unicode="&#x434;" horiz-adv-x="1353" 
d="M53 -299v472h153q79 134 111.5 268t32.5 297v368h761v-933h159v-472h-189v299h-839v-299h-189zM412 173h509v761h-393v-202q0 -303 -116 -530v-29z" />
    <glyph glyph-name="uni0435" unicode="&#x435;" horiz-adv-x="1191" 
d="M632 -28q-216 0 -351.5 118t-178.5 318q-5 24 -5 60v170q0 33 5 56q44 197 179 318.5t341 121.5q205 0 334.5 -112t165.5 -302q5 -24 5 -60v-139l-25 -25h-817q15 -165 106 -258t241 -93q108 0 182 39.5t140 125.5l133 -117q-163 -221 -455 -221zM289 650h654
q-9 139 -97 227t-222 88q-138 0 -225.5 -86.5t-109.5 -228.5z" />
    <glyph glyph-name="uni0436" unicode="&#x436;" horiz-adv-x="1458" 
d="M41 0v34l384 523l-384 515v34h198l335 -465h60v465h190v-465h61l336 465h197v-34l-384 -515l384 -523v-34h-199l-334 465h-61v-465h-190v465h-60l-333 -465h-200z" />
    <glyph glyph-name="uni0437" unicode="&#x437;" horiz-adv-x="1032" 
d="M510 -28q-150 0 -261 69.5t-165 197.5l149 82q47 -98 112.5 -142t162.5 -44q83 0 140.5 34.5t78.5 99.5q16 68 -1 129q-40 115 -182 115h-149v148h143q128 0 167 100q17 58 0 116q-43 99 -196 99q-157 0 -245 -149l-133 87q53 102 153 161t226 59q292 0 367 -215
q21 -89 -1 -172q-19 -55 -61.5 -97t-94.5 -59q142 -36 190 -171q28 -105 0 -217q-38 -109 -144.5 -170t-255.5 -61z" />
    <glyph glyph-name="uni0438" unicode="&#x438;" horiz-adv-x="1306" 
d="M163 0v1106h190v-815l600 815h190v-1106h-190v815l-600 -815h-190z" />
    <glyph glyph-name="uni0439" unicode="&#x439;" horiz-adv-x="1306" 
d="M163 0v1106h190v-815l600 815h190v-1106h-190v815l-600 -815h-190zM655 1241q-152 0 -236.5 83.5t-84.5 227.5h161q0 -81 41.5 -128t117.5 -47t117.5 47t41.5 128h161q0 -144 -84 -227.5t-235 -83.5z" />
    <glyph glyph-name="uni043A" unicode="&#x43a;" horiz-adv-x="1069" 
d="M163 0v1106h190v-465h82l387 465h206v-34l-437 -518l437 -520v-34h-210l-383 465h-82v-465h-190z" />
    <glyph glyph-name="uni043B" unicode="&#x43b;" horiz-adv-x="1259" 
d="M54 0v174h42q90 0 134 96.5t44 303.5v532h823v-1106h-190v929h-454v-367q0 -281 -86 -421.5t-263 -140.5h-50z" />
    <glyph glyph-name="uni043C" unicode="&#x43c;" horiz-adv-x="1415" 
d="M163 0v1107h199l345 -580l345 580h199v-1107h-190v809l-298 -504h-112l-298 504v-809h-190z" />
    <glyph glyph-name="uni043D" unicode="&#x43d;" horiz-adv-x="1288" 
d="M934 0v476h-581v-476h-190v1106h190v-458h581v458h190v-1106h-190z" />
    <glyph glyph-name="uni043E" unicode="&#x43e;" horiz-adv-x="1251" 
d="M636 -28q-127 0 -237.5 49t-190.5 147t-105 231q-6 31 -6 67v174q0 36 6 67q25 133 105 231t190.5 147t237.5 49t237.5 -49t190.5 -147t105 -231q7 -37 7 -67v-174q0 -30 -7 -67q-25 -133 -105 -231t-190.5 -147t-237.5 -49zM636 145q80 0 151 30t124 93t70 149
q5 30 5 61v150q0 31 -5 61q-17 86 -70 149.5t-124 93.5t-151 30t-151 -30t-124 -93.5t-69 -149.5q-5 -23 -5 -61v-150q0 -38 5 -61q24 -128 122 -200t222 -72z" />
    <glyph glyph-name="uni043F" unicode="&#x43f;" horiz-adv-x="1261" 
d="M163 0v1106h936v-1106h-190v932h-556v-932h-190z" />
    <glyph glyph-name="uni0440" unicode="&#x440;" horiz-adv-x="1300" 
d="M163 -451v1557h145l45 -140q67 87 157 128t218 41q174 0 292.5 -95t163.5 -266q42 -222 2 -438q-45 -172 -166.5 -268t-306.5 -96q-110 0 -203.5 41t-156.5 117v-581h-190zM672 145q127 0 212.5 67.5t118.5 186.5q29 154 0 307q-33 122 -117.5 189t-213.5 67
q-116 0 -192.5 -49.5t-126.5 -158.5v-393q49 -103 133 -159.5t186 -56.5z" />
    <glyph glyph-name="uni0441" unicode="&#x441;" horiz-adv-x="1153" 
d="M634 -28q-203 0 -348 119t-184 318q-5 56 -5 144t5 144q41 200 185.5 318.5t346.5 118.5q156 0 267.5 -55.5t188.5 -170.5l-139 -119q-60 94 -135 133.5t-188 39.5q-125 0 -219 -75.5t-119 -198.5q-4 -74 -4 -135q0 -62 4 -134q26 -120 121.5 -197t216.5 -77
q103 0 177 37t143 130l132 -123q-81 -112 -190.5 -164.5t-255.5 -52.5z" />
    <glyph glyph-name="uni0442" unicode="&#x442;" horiz-adv-x="966" 
d="M389 0v932h-337v174h862v-174h-335v-932h-190z" />
    <glyph glyph-name="uni0443" unicode="&#x443;" horiz-adv-x="1120" 
d="M170 -451v177h131q90 0 134 36.5t44 112.5q0 41 -38 140l-407 1057v34h197l342 -930h27l304 930h192v-34l-438 -1252q-54 -156 -130.5 -213.5t-232.5 -57.5h-125z" />
    <glyph glyph-name="uni0444" unicode="&#x444;" horiz-adv-x="1437" 
d="M624 -451v423q-126 4 -234 54t-185.5 147t-101.5 226q-6 31 -6 67v174q0 36 6 67q24 129 101.5 226t185.5 147t234 54v463h190v-463q126 -4 234.5 -54t185.5 -147t101 -226q6 -31 6 -67v-174q0 -36 -6 -67q-24 -129 -101 -226t-185.5 -147t-234.5 -54v-423h-190zM287 478
q0 -38 5 -61q24 -124 117 -195t215 -77v816q-122 -6 -215 -77t-117 -195q-5 -23 -5 -61v-150zM814 145q123 6 215.5 77.5t116.5 194.5q5 23 5 61v150q0 38 -5 61q-24 124 -116.5 195t-215.5 77v-816z" />
    <glyph glyph-name="uni0445" unicode="&#x445;" horiz-adv-x="1116" 
d="M46 0v36l366 542l-345 492v36h216l260 -401h30l260 401h216v-36l-344 -492l365 -542v-36h-216l-281 445h-30l-281 -445h-216z" />
    <glyph glyph-name="uni0446" unicode="&#x446;" horiz-adv-x="1331" 
d="M1057 -299v299h-894v1106h190v-933h544v933h190v-933h159v-472h-189z" />
    <glyph glyph-name="uni0447" unicode="&#x447;" horiz-adv-x="1236" 
d="M884 449q-51 -64 -136 -105.5t-196 -41.5q-191 0 -294 108.5t-103 307.5v388h190v-374q7 -113 69.5 -183t185.5 -70q92 0 165.5 47t117.5 129v451h190v-1106h-189v449z" />
    <glyph glyph-name="uni0448" unicode="&#x448;" horiz-adv-x="1742" 
d="M163 0v1106h190v-933h423v933h190v-933h423v933h190v-1106h-1416z" />
    <glyph glyph-name="uni0449" unicode="&#x449;" horiz-adv-x="1822" 
d="M1549 -299v299h-1386v1106h190v-933h423v933h190v-933h423v933h190v-933h160v-472h-190z" />
    <glyph glyph-name="uni044A" unicode="&#x44a;" horiz-adv-x="1390" 
d="M400 0v936h-330v170h520v-352h303q168 0 268 -66.5t125 -198.5q14 -128 0 -220q-50 -269 -392 -269h-494zM911 174q72 0 123.5 35.5t65.5 105.5q7 54 2 123q-15 79 -66 112.5t-148 33.5h-298v-410h321z" />
    <glyph glyph-name="uni044B" unicode="&#x44b;" horiz-adv-x="1531" 
d="M163 0v1106h190v-352h303q340 0 393 -265q13 -107 0 -220q-53 -269 -392 -269h-494zM674 174q72 0 122.5 36t66.5 105q9 67 2 123q-18 81 -67.5 113.5t-146.5 32.5h-298v-410h321zM1180 0v1106h190v-1106h-190z" />
    <glyph glyph-name="uni044C" unicode="&#x44c;" horiz-adv-x="1153" 
d="M163 0v1106h190v-352h303q340 0 393 -265q13 -107 0 -220q-53 -269 -392 -269h-494zM674 174q72 0 122.5 36t66.5 105q9 67 2 123q-18 81 -67.5 113.5t-146.5 32.5h-298v-410h321z" />
    <glyph glyph-name="uni044D" unicode="&#x44d;" horiz-adv-x="1140" 
d="M508 -28q-289 0 -445 205l133 126q110 -158 313 -158q130 0 222.5 77t119.5 204l3 45h-484v164h484l-3 44q-27 128 -117 205.5t-218 77.5q-198 0 -311 -160l-138 118q155 214 447 214q202 0 343.5 -118t182.5 -319q4 -45 4 -144t-4 -144q-39 -200 -182.5 -318.5
t-349.5 -118.5z" />
    <glyph glyph-name="uni044E" unicode="&#x44e;" horiz-adv-x="1646" 
d="M163 0v1106h190v-458h162q2 26 4 39q38 213 179 330t334 117q189 0 331.5 -114t180.5 -313q6 -31 6 -67v-174q0 -36 -6 -67q-38 -199 -180.5 -313t-331.5 -114q-193 0 -334 117.5t-179 330.5q-3 17 -5 56h-161v-476h-190zM1032 145q118 0 208 71t115 201q5 23 5 61v150
q0 38 -5 61q-25 130 -115 201.5t-208 71.5q-121 0 -209.5 -71.5t-114.5 -201.5q-5 -23 -5 -61v-150q0 -38 5 -61q25 -130 114 -201t210 -71z" />
    <glyph glyph-name="uni044F" unicode="&#x44f;" horiz-adv-x="1112" 
d="M78 0v30l208 397q-66 30 -112 80.5t-64 114.5q-22 124 0 249q26 105 119 170t235 65h485v-1106h-190v386h-293l-191 -386h-197zM500 552h259v398h-259q-158 0 -197 -121q-18 -79 0 -157q39 -120 197 -120z" />
    <glyph glyph-name="uni0450" unicode="&#x450;" horiz-adv-x="1191" 
d="M632 -28q-216 0 -351.5 118t-178.5 318q-5 24 -5 60v170q0 33 5 56q44 197 179 318.5t341 121.5q205 0 334.5 -112t165.5 -302q5 -24 5 -60v-139l-25 -25h-817q15 -165 106 -258t241 -93q108 0 182 39.5t140 125.5l133 -117q-163 -221 -455 -221zM553 1241l-240 277v34
h232l152 -277v-34h-144zM289 650h654q-9 139 -97 227t-222 88q-138 0 -225.5 -86.5t-109.5 -228.5z" />
    <glyph glyph-name="uni0451" unicode="&#x451;" horiz-adv-x="1191" 
d="M632 -28q-216 0 -351.5 118t-178.5 318q-5 24 -5 60v170q0 33 5 56q44 197 179 318.5t341 121.5q205 0 334.5 -112t165.5 -302q5 -24 5 -60v-139l-25 -25h-817q15 -165 106 -258t241 -93q108 0 182 39.5t140 125.5l133 -117q-163 -221 -455 -221zM435 1270q-53 0 -90 37
t-37 90q0 52 37.5 89t89.5 37t89.5 -37t37.5 -89t-37.5 -89.5t-89.5 -37.5zM814 1270q-52 0 -89.5 37t-37.5 90q0 52 37.5 89t89.5 37t89.5 -37t37.5 -89t-37.5 -89.5t-89.5 -37.5zM289 650h654q-9 139 -97 227t-222 88q-138 0 -225.5 -86.5t-109.5 -228.5z" />
    <glyph glyph-name="uni0452" unicode="&#x452;" horiz-adv-x="1273" 
d="M683 -451v177h97q67 0 107.5 41.5t40.5 111.5v820q-7 114 -75.5 186.5t-192.5 72.5q-99 0 -174 -54t-112 -149v-755h-190v1281h-122v142h122v174h189v-174h325v-142h-325v-320q48 78 132 125.5t203 47.5q194 0 302 -109t108 -307v-862q0 -147 -88.5 -227t-233.5 -80h-113
z" />
    <glyph glyph-name="uni0453" unicode="&#x453;" horiz-adv-x="958" 
d="M163 0v1106h738v-177h-548v-929h-190zM458 1241v34l152 277h232v-34l-240 -277h-144z" />
    <glyph glyph-name="uni0454" unicode="&#x454;" horiz-adv-x="1146" 
d="M634 -28q-203 0 -348 119t-184 318q-5 56 -5 144t5 144q41 200 185.5 318.5t346.5 118.5q154 0 263 -52t184 -162l-138 -118q-60 88 -131.5 124t-179.5 36q-129 0 -222.5 -78t-119.5 -205l-2 -44h484v-164h-484l2 -45q27 -124 122.5 -202.5t219.5 -78.5q101 0 173 34.5
t141 120.5l133 -123q-157 -205 -445 -205z" />
    <glyph glyph-name="uni0455" unicode="&#x455;" horiz-adv-x="976" 
d="M498 -28q-138 0 -250 62t-173 171l138 117q38 -84 118 -135t168 -51t146.5 35t75.5 97q2 18 2 30v30q0 9 -2 23q-12 45 -53 74t-126 50l-170 43q-216 56 -253 229q-4 24 -4 36v72q0 12 4 32q27 108 135.5 177.5t255.5 69.5q258 0 399 -201l-131 -110q-50 76 -116 111.5
t-157 35.5q-77 0 -132 -30.5t-70 -81.5q-2 -8 -2 -23v-18q0 -8 2 -20q11 -48 52.5 -78t118.5 -49l153 -36q222 -53 275 -214q8 -22 8 -47v-96q0 -31 -8 -54q-36 -116 -142 -183.5t-262 -67.5z" />
    <glyph glyph-name="uni0456" unicode="&#x456;" horiz-adv-x="477" 
d="M163 0v1106h190v-1106h-190zM258 1304q-56 0 -96 40t-40 97t40 96.5t96 39.5q57 0 97 -39.5t40 -96.5t-40 -97t-97 -40z" />
    <glyph glyph-name="uni0457" unicode="&#x457;" horiz-adv-x="516" 
d="M163 0v1106h190v-1106h-190zM68 1270q-52 0 -89.5 37t-37.5 90q0 52 37.5 89t89.5 37t89.5 -37t37.5 -89t-37.5 -89.5t-89.5 -37.5zM447 1270q-53 0 -90 37t-37 90q0 52 37.5 89t89.5 37t89 -37t37 -89t-37 -89.5t-89 -37.5z" />
    <glyph glyph-name="uni0458" unicode="&#x458;" horiz-adv-x="516" 
d="M-81 -451v177h97q67 0 107 41.5t40 111.5v1227h190v-1250q0 -147 -88.5 -227t-233.5 -80h-112zM258 1304q-56 0 -96 40t-40 97t40 96.5t96 39.5q57 0 97 -39.5t40 -96.5t-40 -97t-97 -40z" />
    <glyph glyph-name="uni0459" unicode="&#x459;" horiz-adv-x="1851" 
d="M54 0v174h42q90 0 134 96.5t44 303.5v532h787v-352h294q340 0 393 -265q13 -107 0 -220q-53 -269 -392 -269h-485v929h-418v-367q0 -281 -86 -421.5t-263 -140.5h-50zM1373 174q72 0 122.5 36t66.5 105q9 67 2 123q-18 81 -67.5 113.5t-146.5 32.5h-289v-410h312z" />
    <glyph glyph-name="uni045A" unicode="&#x45a;" horiz-adv-x="1908" 
d="M163 0v1106h190v-417h581v417h190v-417h302q315 0 373 -233q24 -109 2 -214q-59 -242 -373 -242h-494v517h-581v-517h-190zM1450 174q131 0 165 113q14 61 0 114q-35 116 -188 116h-303v-343h326z" />
    <glyph glyph-name="uni045B" unicode="&#x45b;" horiz-adv-x="1292" 
d="M204 0v1266h-142v171h142v160h189v-160h305v-171h-305v-305q48 78 132 125.5t203 47.5q194 0 302 -109t108 -307v-718h-190v699q-7 114 -75.5 186.5t-192.5 72.5q-99 0 -174 -54t-112 -149v-755h-190z" />
    <glyph glyph-name="uni045C" unicode="&#x45c;" horiz-adv-x="1069" 
d="M163 0v1106h190v-465h82l387 465h206v-34l-437 -518l437 -520v-34h-210l-383 465h-82v-465h-190zM492 1241v34l152 277h231v-34l-240 -277h-143z" />
    <glyph glyph-name="uni045D" unicode="&#x45d;" horiz-adv-x="1306" 
d="M163 0v1106h190v-815l600 815h190v-1106h-190v815l-600 -815h-190zM582 1241l-240 277v34h231l152 -277v-34h-143z" />
    <glyph glyph-name="uni045E" unicode="&#x45e;" horiz-adv-x="1120" 
d="M170 -451v177h131q90 0 134 36.5t44 112.5q0 41 -38 140l-407 1057v34h197l342 -930h27l304 930h192v-34l-438 -1252q-54 -156 -130.5 -213.5t-232.5 -57.5h-125zM556 1241q-152 0 -236.5 83.5t-84.5 227.5h161q0 -81 41.5 -128t117.5 -47t117.5 47t41.5 128h161
q0 -144 -84 -227.5t-235 -83.5z" />
    <glyph glyph-name="uni045F" unicode="&#x45f;" horiz-adv-x="1236" 
d="M524 -299v299h-361v1106h190v-933h530v933h190v-1106h-360v-299h-189z" />
    <glyph glyph-name="uni0462" unicode="&#x462;" horiz-adv-x="1433" 
d="M334 0v1070h-288v182h288v223h204v-223h557v-182h-557v-244h390q160 0 266 -63.5t148 -186.5q14 -72 14 -163.5t-14 -164.5q-41 -124 -147 -186t-267 -62h-594zM902 182q198 0 246 147q21 83 0 170q-49 145 -246 145h-364v-462h364z" />
    <glyph glyph-name="uni0463" unicode="&#x463;" horiz-adv-x="1339" 
d="M349 0v934h-317v172h317v491h190v-491h407v-172h-407v-205h311q331 0 385 -265q13 -96 0 -195q-53 -269 -383 -269h-503zM867 174q69 0 117.5 34.5t64.5 97.5q9 63 2 115q-18 74 -65.5 106t-141.5 32h-305v-385h328z" />
    <glyph glyph-name="uni0472" unicode="&#x472;" horiz-adv-x="1591" 
d="M796 -28q-273 0 -460.5 164.5t-221.5 443.5q-2 14 -2 44v227q0 29 2 43q34 279 221.5 444t460.5 165t460 -165t221 -444q3 -42 3 -43v-227q0 -2 -3 -44q-34 -279 -221 -443.5t-460 -164.5zM796 154q190 0 321 115.5t157 316.5q2 30 2 46v14h-961v-14q0 -16 2 -46
q26 -201 157 -316.5t322 -115.5zM315 828h961v15q0 16 -2 46q-26 201 -156.5 316t-321.5 115t-322 -115t-157 -316q-2 -30 -2 -46v-15z" />
    <glyph glyph-name="uni0473" unicode="&#x473;" horiz-adv-x="1271" 
d="M636 -28q-127 0 -237.5 49t-190.5 147t-105 231q-6 31 -6 67v174q0 36 6 67q25 133 105 231t190.5 147t237.5 49t237.5 -49t190.5 -147t105 -231q7 -37 7 -67v-174q0 -30 -7 -67q-25 -133 -105 -231t-190.5 -147t-237.5 -49zM636 145q124 0 222 73.5t123 207.5q2 13 4 45
h-698q2 -32 5 -45q24 -134 121.5 -207.5t222.5 -73.5zM287 635h698q-2 32 -4 44q-25 135 -123 209t-222 74t-222 -74t-122 -209q-3 -13 -5 -44z" />
    <glyph glyph-name="uni0474" unicode="&#x474;" horiz-adv-x="1572" 
d="M581 0l-554 1441v34h215l452 -1228h26l399 1077q56 151 216 151h193v-183h-148q-51 0 -67 -46l-481 -1246h-251z" />
    <glyph glyph-name="uni0475" unicode="&#x475;" horiz-adv-x="1277" 
d="M461 0l-423 1072v34h196l329 -890h25l268 710q35 97 91.5 138.5t147.5 41.5h112v-172h-85q-62 0 -86 -64l-346 -870h-229z" />
    <glyph glyph-name="uni0490" unicode="&#x490;" horiz-adv-x="1126" 
d="M179 0v1475h684v299h198v-482h-679v-1292h-203z" />
    <glyph glyph-name="uni0491" unicode="&#x491;" horiz-adv-x="958" 
d="M163 0v1106h548v280h190v-457h-548v-929h-190z" />
    <glyph glyph-name="Wgrave" unicode="&#x1e80;" horiz-adv-x="1970" 
d="M401 0l-335 1441v34h212l252 -1174h30l300 1174h251l301 -1174h29l252 1174h211v-34l-335 -1441h-256l-313 1175h-30l-313 -1175h-256zM913 1610l-240 277v34h232l152 -277v-34h-144z" />
    <glyph glyph-name="wgrave" unicode="&#x1e81;" horiz-adv-x="1679" 
d="M367 0l-314 1072v34h190l219 -830h26l255 830h193l255 -830h26l219 830h191v-34l-314 -1072h-208l-252 824h-26l-252 -824h-208zM768 1241l-240 277v34h231l152 -277v-34h-143z" />
    <glyph glyph-name="Wacute" unicode="&#x1e82;" horiz-adv-x="1970" 
d="M401 0l-335 1441v34h212l252 -1174h30l300 1174h251l301 -1174h29l252 1174h211v-34l-335 -1441h-256l-313 1175h-30l-313 -1175h-256zM911 1610v34l152 277h232v-34l-240 -277h-144z" />
    <glyph glyph-name="wacute" unicode="&#x1e83;" horiz-adv-x="1679" 
d="M367 0l-314 1072v34h190l219 -830h26l255 830h193l255 -830h26l219 830h191v-34l-314 -1072h-208l-252 824h-26l-252 -824h-208zM766 1241v34l152 277h231v-34l-240 -277h-143z" />
    <glyph glyph-name="Wdieresis" unicode="&#x1e84;" horiz-adv-x="1970" 
d="M401 0l-335 1441v34h212l252 -1174h30l300 1174h251l301 -1174h29l252 1174h211v-34l-335 -1441h-256l-313 1175h-30l-313 -1175h-256zM795 1638q-53 0 -90 37t-37 90q0 52 37.5 89.5t89.5 37.5t89.5 -37.5t37.5 -89.5t-37.5 -89.5t-89.5 -37.5zM1174 1638
q-52 0 -89.5 37t-37.5 90q0 52 37.5 89.5t89.5 37.5t89 -37.5t37 -89.5t-37 -89.5t-89 -37.5z" />
    <glyph glyph-name="wdieresis" unicode="&#x1e85;" horiz-adv-x="1679" 
d="M367 0l-314 1072v34h190l219 -830h26l255 830h193l255 -830h26l219 830h191v-34l-314 -1072h-208l-252 824h-26l-252 -824h-208zM650 1270q-52 0 -89.5 37t-37.5 90q0 52 37.5 89t89.5 37t89 -37t37 -89t-37 -89.5t-89 -37.5zM1029 1270q-53 0 -90 37t-37 90
q0 52 37.5 89t89.5 37t89 -37t37 -89t-37 -89.5t-89 -37.5z" />
    <glyph glyph-name="uni1E9E" unicode="&#x1e9e;" horiz-adv-x="1323" 
d="M569 0v177h183q217 0 270 164q12 30 12 66v72q0 41 -12 73q-51 160 -305 160h-97l-25 25v134l369 425h-603v-1296h-203v1475h1018v-179l-361 -430q158 -12 256 -77t146 -185q17 -41 17 -97v-124q1 -48 -17 -92q-75 -291 -429 -291h-219z" />
    <glyph glyph-name="Ygrave" unicode="&#x1ef2;" horiz-adv-x="1257" 
d="M527 0v560l-501 881v34h213l377 -687h26l376 687h213v-34l-500 -881v-560h-204zM557 1610l-241 277v34h232l152 -277v-34h-143z" />
    <glyph glyph-name="ygrave" unicode="&#x1ef3;" horiz-adv-x="1157" 
d="M170 -451v177h131q90 0 134 36.5t44 112.5q0 41 -38 140l-407 1057v34h197l342 -930h27l304 930h192v-34l-438 -1252q-54 -156 -130.5 -213.5t-232.5 -57.5h-125zM493 1241l-240 277v34h231l152 -277v-34h-143z" />
    <glyph glyph-name="thinspace" unicode="&#x2009;" horiz-adv-x="305" 
 />
    <glyph glyph-name="endash" unicode="&#x2013;" horiz-adv-x="1122" 
d="M99 529v170h925v-170h-925z" />
    <glyph glyph-name="emdash" unicode="&#x2014;" horiz-adv-x="1736" 
d="M99 529v170h1538v-170h-1538z" />
    <glyph glyph-name="quoteleft" unicode="&#x2018;" horiz-adv-x="438" 
d="M321 1475v-403h-233v34l119 369h114z" />
    <glyph glyph-name="quoteright" unicode="&#x2019;" horiz-adv-x="415" 
d="M118 1072v403h233v-34l-120 -369h-113z" />
    <glyph glyph-name="quotesinglbase" unicode="&#x201a;" horiz-adv-x="456" 
d="M125 -143v402h234v-34l-120 -368h-114z" />
    <glyph glyph-name="quotedblleft" unicode="&#x201c;" horiz-adv-x="761" 
d="M645 1475v-403h-233v34l119 369h114zM321 1475v-403h-233v34l119 369h114z" />
    <glyph glyph-name="quotedblright" unicode="&#x201d;" horiz-adv-x="741" 
d="M118 1072v403h233v-34l-120 -369h-113zM442 1072v403h233v-34l-119 -369h-114z" />
    <glyph glyph-name="quotedblbase" unicode="&#x201e;" horiz-adv-x="780" 
d="M125 -143v402h234v-34l-120 -368h-114zM450 -143v402h233v-34l-120 -368h-113z" />
    <glyph glyph-name="dagger" unicode="&#x2020;" horiz-adv-x="718" 
d="M359 -481q-48 0 -68 65l-59 172q-4 11 -4 30l26 1071q-78 9 -172 44q-21 8 -21 39v2q0 27 21 35q88 35 182 47h7v319h-73q0 66 47 113t114 47t114.5 -47.5t47.5 -112.5h-74v-319h9q94 -12 182 -47q21 -8 21 -35v-2q0 -31 -21 -39q-94 -35 -173 -44l28 -1071q0 -17 -5 -30
l-62 -172q-22 -65 -67 -65z" />
    <glyph glyph-name="daggerdbl" unicode="&#x2021;" horiz-adv-x="759" 
d="M218 1343q0 66 47 113t114 47t114.5 -47.5t47.5 -112.5h-74v-319h10q92 -12 181 -47q21 -8 21 -35v-2q0 -31 -21 -39q-94 -35 -172 -44l1 -58q86 -10 171 -44q21 -8 21 -36v-3q0 -30 -21 -38q-93 -35 -166 -44l21 -848q0 -17 -5 -30l-61 -172q-22 -65 -68 -65t-68 65
l-59 172q-4 11 -4 30l21 848q-75 9 -167 44q-21 8 -21 38v3q0 28 21 36q85 34 171 44l2 58q-79 9 -173 44q-21 8 -21 39v2q0 27 21 35q88 35 182 47h7v319h-73z" />
    <glyph glyph-name="bullet" unicode="&#x2022;" horiz-adv-x="952" 
d="M476 378q-102 0 -187 51t-135 137v339q50 86 135 137t187 51t187.5 -51t135.5 -137v-339q-50 -86 -135.5 -137t-187.5 -51z" />
    <glyph glyph-name="ellipsis" unicode="&#x2026;" horiz-adv-x="1288" 
d="M269 -28q-57 0 -97 40t-40 97t40 96.5t97 39.5t97 -39.5t40 -96.5t-40 -97t-97 -40zM676 -28q-57 0 -96.5 40t-39.5 97t39.5 96.5t96.5 39.5t97 -39.5t40 -96.5t-40 -97t-97 -40zM1086 -28q-57 0 -97 40t-40 97t40 96.5t97 39.5t97 -39.5t40 -96.5t-40 -97t-97 -40z" />
    <glyph glyph-name="perthousand" unicode="&#x2030;" horiz-adv-x="2338" 
d="M1951 -28q-137 0 -233.5 82.5t-110.5 212.5q-1 9 -1 30v73q0 19 1 31q14 133 110 214t234 81q142 0 236 -80.5t108 -214.5q1 -12 1 -31v-73q0 -21 -1 -30q-14 -130 -110.5 -212.5t-233.5 -82.5zM1951 120q66 0 117.5 43t64.5 116q1 11 1 29v53q0 19 -1 30
q-12 75 -61.5 116t-120.5 41t-120.5 -41t-61.5 -116q-2 -10 -2 -30v-53q0 -18 2 -29q13 -73 64.5 -116t117.5 -43zM393 778q-137 0 -233.5 83t-110.5 213q-1 9 -1 29v74q0 19 1 31q14 133 110 214t234 81q142 0 236 -80.5t108 -214.5q1 -12 1 -31v-74q0 -20 -1 -29
q-14 -130 -110.5 -213t-233.5 -83zM393 927q66 0 117.5 43t64.5 115q1 11 1 29v53q0 19 -1 30q-12 75 -61.5 116t-120.5 41t-120.5 -41t-61.5 -116q-2 -10 -2 -30v-53q0 -18 2 -29q13 -72 64.5 -115t117.5 -43zM259 0v30l880 1445h177v-30l-880 -1445h-177zM1183 -28
q-137 0 -233.5 82.5t-110.5 212.5q-1 5 -1 30v73q0 25 1 31q14 133 110 214t234 81q142 0 236 -80.5t108 -214.5q1 -12 1 -31v-73q0 -21 -1 -30q-14 -130 -110.5 -212.5t-233.5 -82.5zM1183 120q66 0 117.5 43t64.5 116q1 11 1 29v53q0 19 -1 30q-12 75 -61.5 116t-120.5 41
q-72 0 -121 -41t-61 -116q-1 -10 -1 -30v-53q0 -18 1 -29q13 -73 64.5 -116t117.5 -43z" />
    <glyph glyph-name="guilsinglleft" unicode="&#x2039;" horiz-adv-x="626" 
d="M359 197l-264 419v71l264 419h170v-34l-264 -421l264 -421v-33h-170z" />
    <glyph glyph-name="guilsinglright" unicode="&#x203a;" horiz-adv-x="626" 
d="M267 197h-169v33l264 421l-264 421v34h169l265 -419v-71z" />
    <glyph glyph-name="fraction" unicode="&#x2044;" horiz-adv-x="352" 
d="M-333 0v30l841 1445h176v-30l-842 -1445h-175z" />
    <glyph glyph-name="zero.sups" unicode="&#x2070;" horiz-adv-x="688" 
d="M344 717q-117 0 -187.5 71.5t-89.5 191.5q-4 21 -4 51v151q0 30 4 51q19 120 89.5 191t187.5 71q116 0 187.5 -71t90.5 -191q3 -24 3 -51v-151q0 -27 -3 -51q-19 -120 -90.5 -191.5t-187.5 -71.5zM344 849q55 0 88 38t42 104q4 21 4 51v129q0 30 -4 51q-9 66 -42 103.5
t-88 37.5q-108 0 -130 -141q-4 -32 -4 -51v-129q0 -19 4 -51q22 -142 130 -142z" />
    <glyph glyph-name="four.sups" unicode="&#x2074;" horiz-adv-x="657" 
d="M42 868v134l250 473h147v-26l-238 -447h173v124h148v-124h102v-134h-102v-131h-148v131h-332z" />
    <glyph glyph-name="five.sups" unicode="&#x2075;" horiz-adv-x="636" 
d="M316 717q-93 0 -168 44t-113 130l116 78q60 -118 165 -118q43 0 73.5 22t42.5 57q3 7 3 24v23q0 22 -4 30q-27 67 -139 67h-194l-16 15l36 386h431v-135h-314l-12 -143h109q201 0 242 -143q9 -22 9 -53v-70q0 -29 -8 -49q-26 -79 -92.5 -122t-166.5 -43z" />
    <glyph glyph-name="six.sups" unicode="&#x2076;" horiz-adv-x="661" 
d="M333 717q-106 0 -176.5 52.5t-94.5 145.5q-7 21 -7 50v53q0 26 7 48q15 76 82 168l172 241h147v-26l-178 -235q41 17 76 17q100 0 164.5 -48t84.5 -137q3 -10 3 -35v-63q0 -25 -3 -35q-22 -89 -94.5 -142.5t-182.5 -53.5zM336 851q48 0 81.5 24t46.5 66q4 9 4 28v30
q0 23 -4 33q-29 84 -128 84q-50 0 -85 -22.5t-48 -64.5q-4 -9 -4 -30v-30q0 -20 4 -28q14 -42 49 -66t84 -24z" />
    <glyph glyph-name="seven.sups" unicode="&#x2077;" horiz-adv-x="579" 
d="M135 737v20l262 583h-367v135h511v-142l-252 -596h-154z" />
    <glyph glyph-name="eight.sups" unicode="&#x2078;" horiz-adv-x="655" 
d="M327 717q-102 0 -170.5 44t-90.5 119q-9 21 -9 44v28q0 23 7 40q12 45 47 78.5t80 48.5q-74 35 -99 110q-12 21 -12 46v31q0 25 12 51q22 66 82.5 102t152.5 36q90 0 151.5 -36t84.5 -102q11 -24 11 -51v-31q0 -25 -11 -47q-24 -73 -100 -109q46 -15 80.5 -48.5
t46.5 -78.5q8 -19 8 -40v-28q0 -24 -9 -44q-22 -75 -91 -119t-171 -44zM327 849q83 0 114 61q9 14 9 34v19q0 19 -9 34q-33 60 -114 60q-80 0 -113 -60q-10 -17 -10 -34v-19q0 -19 10 -34q30 -61 113 -61zM327 1178q72 0 101 54q7 13 7 29v23q0 18 -7 31q-27 52 -101 52
q-77 0 -102 -56q-5 -10 -5 -27v-23q0 -18 5 -28q27 -55 102 -55z" />
    <glyph glyph-name="nine.sups" unicode="&#x2079;" horiz-adv-x="661" 
d="M329 1495q106 0 176.5 -52.5t94.5 -146.5q7 -21 7 -49v-53q0 -26 -7 -48q-15 -76 -82 -168l-172 -241h-147v25l178 235q-38 -16 -76 -16q-100 0 -164.5 48t-84.5 137q-3 10 -3 35v63q0 24 3 34q22 90 94.5 143.5t182.5 53.5zM326 1361q-48 0 -81.5 -24t-46.5 -66
q-4 -9 -4 -28v-30q0 -23 4 -33q29 -84 128 -84q50 0 85 22.5t48 64.5q4 9 4 30v30q0 20 -4 28q-14 42 -49 66t-84 24z" />
    <glyph glyph-name="zero.subs" unicode="&#x2080;" horiz-adv-x="688" 
d="M344 -20q-117 0 -187.5 71.5t-89.5 191.5q-4 21 -4 50v152q0 30 4 51q19 120 89.5 191t187.5 71q116 0 187.5 -71t90.5 -191q3 -24 3 -51v-152q0 -26 -3 -50q-19 -120 -90.5 -191.5t-187.5 -71.5zM344 112q55 0 88 38t42 104q4 21 4 51v129q0 30 -4 51q-9 66 -42 103.5
t-88 37.5q-108 0 -130 -141q-4 -32 -4 -51v-129q0 -19 4 -51q22 -142 130 -142z" />
    <glyph glyph-name="one.subs" unicode="&#x2081;" horiz-adv-x="483" 
d="M241 0v563l-178 -144h-24v156l203 162h150v-737h-151z" />
    <glyph glyph-name="two.subs" unicode="&#x2082;" horiz-adv-x="638" 
d="M62 0v128l267 225q75 65 91 118q6 20 6 31v27q0 17 -5 27q-27 68 -118 68q-98 0 -148 -113l-117 73q80 174 275 174q99 0 164 -42.5t87 -115.5q7 -18 7 -42v-58q0 -14 -3 -28q-7 -54 -40.5 -99t-88.5 -94l-166 -145h302v-134h-513z" />
    <glyph glyph-name="three.subs" unicode="&#x2083;" horiz-adv-x="649" 
d="M316 -20q-104 0 -172.5 43t-113.5 132l122 75q53 -116 161 -116q44 0 75 19t43 54q6 13 6 32v30q0 20 -6 32q-26 67 -127 67h-50l-13 12v80l157 163h-319v134h486v-128l-155 -167q69 -11 115.5 -49.5t60.5 -97.5q3 -9 3 -29v-74q0 -22 -3 -32q-25 -81 -96.5 -130.5
t-173.5 -49.5z" />
    <glyph glyph-name="four.subs" unicode="&#x2084;" horiz-adv-x="657" 
d="M42 131v134l250 472h147v-25l-238 -447h173v124h148v-124h102v-134h-102v-131h-148v131h-332z" />
    <glyph glyph-name="five.subs" unicode="&#x2085;" horiz-adv-x="636" 
d="M316 -20q-93 0 -168 44t-113 130l116 77q59 -117 165 -117q43 0 73.5 22t42.5 57q3 7 3 24v23q0 21 -4 29q-27 68 -139 68h-194l-16 15l36 385h431v-134h-314l-12 -143h109q200 0 242 -144q9 -23 9 -52v-70q0 -29 -8 -49q-26 -79 -92.5 -122t-166.5 -43z" />
    <glyph glyph-name="six.subs" unicode="&#x2086;" horiz-adv-x="661" 
d="M333 -20q-106 0 -176.5 52.5t-94.5 145.5q-7 21 -7 49v54q0 26 7 48q15 76 82 168l172 240h147v-25l-178 -235q41 17 76 17q100 0 164.5 -48t84.5 -137q3 -10 3 -35v-64q0 -24 -3 -34q-22 -89 -94.5 -142.5t-182.5 -53.5zM336 114q48 0 81.5 23.5t46.5 65.5q4 9 4 29v30
q0 23 -4 33q-29 84 -128 84q-49 0 -84.5 -23t-48.5 -65q-4 -9 -4 -29v-30q0 -21 4 -29q13 -42 48.5 -65.5t84.5 -23.5z" />
    <glyph glyph-name="seven.subs" unicode="&#x2087;" horiz-adv-x="579" 
d="M135 0v19l262 584h-367v134h511v-142l-252 -595h-154z" />
    <glyph glyph-name="eight.subs" unicode="&#x2088;" horiz-adv-x="655" 
d="M327 -20q-102 0 -170.5 43.5t-90.5 118.5q-9 21 -9 44v29q0 22 7 39q12 45 47 78.5t80 48.5q-73 35 -99 111q-12 21 -12 46v30q0 26 12 52q22 66 82.5 102t152.5 36q90 0 151.5 -36t84.5 -102q11 -24 11 -52v-30q0 -25 -11 -47q-25 -74 -100 -110q46 -15 80.5 -48.5
t46.5 -78.5q8 -19 8 -39v-29q0 -24 -9 -44q-22 -75 -90.5 -118.5t-171.5 -43.5zM327 112q83 0 114 61q9 13 9 33v19q0 20 -9 35q-33 60 -114 60q-80 0 -113 -60q-10 -17 -10 -35v-19q0 -18 10 -33q30 -61 113 -61zM327 440q72 0 101 55q7 13 7 29v22q0 19 -7 32
q-27 52 -101 52q-77 0 -102 -56q-5 -10 -5 -28v-22q0 -18 5 -28q27 -56 102 -56z" />
    <glyph glyph-name="nine.subs" unicode="&#x2089;" horiz-adv-x="661" 
d="M329 758q106 0 176.5 -52.5t94.5 -146.5q7 -21 7 -49v-53q0 -26 -7 -48q-15 -76 -82 -168l-172 -241h-147v25l178 235q-38 -16 -76 -16q-100 0 -164.5 48t-84.5 137q-3 10 -3 34v64q0 24 3 34q22 90 94.5 143.5t182.5 53.5zM326 624q-48 0 -81.5 -24t-46.5 -66
q-4 -9 -4 -29v-29q0 -24 4 -34q29 -84 128 -84q49 0 84.5 23t48.5 65q4 9 4 30v29q0 21 -4 29q-14 42 -49 66t-84 24z" />
    <glyph glyph-name="Euro" unicode="&#x20ac;" horiz-adv-x="1572" 
d="M945 -28q-229 0 -407.5 137.5t-234.5 381.5h-191v156h174v183h-174v156h192q57 243 234.5 380t406.5 137q347 0 553 -265l-140 -130q-79 107 -178.5 159.5t-234.5 52.5q-157 0 -274 -87t-162 -247h547l-56 -156h-511v-183h567l-56 -156h-491q46 -160 164 -248.5
t272 -88.5q135 0 234.5 53t178.5 160l140 -130q-206 -265 -553 -265z" />
    <glyph glyph-name="uni20B4" unicode="&#x20b4;" horiz-adv-x="1492" 
d="M112 812v156h899q54 156 -25.5 254t-235.5 98q-223 0 -328 -172l-142 116q75 112 195 175.5t277 63.5q123 0 223 -41t160 -113t83.5 -170t-7.5 -211h170v-156h-1269zM747 -28q-69 0 -134 16.5t-116.5 45.5t-95.5 69t-72.5 87t-46.5 100t-17 107.5t15 109.5h-168v156h1269
v-156h-905q-25 -67 -13.5 -130.5t46 -113t99.5 -79.5t146 -30q114 0 199 40.5t152 134.5l139 -121q-87 -120 -208 -178t-289 -58z" />
    <glyph glyph-name="uni20B8" unicode="&#x20b8;" horiz-adv-x="1228" 
d="M513 0v920h-439v182h1081v-182h-439v-920h-203zM74 1292v183h1081v-183h-1081z" />
    <glyph glyph-name="uni20BA" unicode="&#x20ba;" horiz-adv-x="1275" 
d="M307 0v574l-198 -58v177l198 58v182l-198 -59v177l198 59v365h203v-306l295 87v-177l-295 -86v-182l295 87v-177l-295 -87v-439h244q67 0 114.5 12.5t85 43t56 88t18.5 142.5v113h195v-156q0 -205 -122 -321.5t-315 -116.5h-479z" />
    <glyph glyph-name="uni20BD" unicode="&#x20bd;" horiz-adv-x="1372" 
d="M93 556v161h185v758h558q343 0 439 -241q25 -53 25 -130v-176q0 -79 -25 -132q-47 -117 -159.5 -179.5t-279.5 -62.5h-355v-195h368v-156h-368v-203h-203v203h-185v156h185v197h-185zM828 736q191 0 252 136q22 43 22 104v77q0 63 -22 104q-61 135 -252 135h-347v-556
h347z" />
    <glyph glyph-name="uni2113" unicode="&#x2113;" horiz-adv-x="944" 
d="M536 0q-149 0 -231 79.5t-82 226.5v97l-139 -88v215l139 88v586q0 37 14 68q28 105 116 168t213 63q128 0 210 -57t112 -163q14 -34 14 -70v-129q0 -47 -7 -82q-27 -123 -102 -205.5t-236 -182.5l-144 -91v-194q0 -150 136 -150h214v-179h-227zM413 739l103 65
q92 58 134 107.5t55 113.5q7 29 7 86v64q0 33 -10 56q-15 46 -50.5 71.5t-86.5 25.5q-52 0 -90 -27.5t-52 -74.5q-10 -21 -10 -53v-434z" />
    <glyph glyph-name="uni2117" unicode="&#x2117;" horiz-adv-x="1693" 
d="M846 -25q-330 0 -533.5 209t-203.5 553q0 170 55 313t152.5 241.5t234 153t295.5 54.5q214 0 382 -95t262 -269t94 -398t-94.5 -398t-262.5 -269t-381 -95zM846 97q267 0 435.5 175.5t168.5 464.5q0 290 -168.5 465.5t-435.5 175.5q-131 0 -242.5 -45.5t-191 -128
t-124.5 -203t-45 -264.5q0 -289 168 -464.5t435 -175.5zM613 348v778h314q111 0 175 -51.5t74 -141.5v-98q-11 -87 -75.5 -140t-173.5 -53h-186v-294h-128zM924 753q119 0 129 109v43q-9 109 -129 109h-183v-261h183z" />
    <glyph glyph-name="uni2120" unicode="&#x2120;" horiz-adv-x="1660" 
d="M394 705q-204 0 -293 167l108 89q40 -67 82.5 -99t104.5 -32q124 0 133 94v11q-3 39 -26.5 60.5t-71.5 34.5l-99 24q-99 24 -145.5 71t-53.5 125v49q10 87 84 138.5t183 51.5q99 0 160.5 -35.5t105.5 -112.5l-100 -81q-60 108 -166 108q-112 0 -124 -89v-10q5 -65 98 -91
l103 -28q99 -26 144.5 -68t50.5 -110v-72q-12 -95 -87.5 -145t-190.5 -50zM769 717v758h188l187 -368h12l187 368h187v-758h-153v532h-12l-180 -348h-70l-181 348h-12v-532h-153z" />
    <glyph glyph-name="trademark" unicode="&#x2122;" horiz-adv-x="1626" 
d="M282 717v620h-205v138h568v-138h-205v-620h-158zM736 717v758h188l187 -368h12l187 368h187v-758h-153v532h-12l-181 -348h-69l-180 348h-13v-532h-153z" />
    <glyph glyph-name="uni2126" unicode="&#x2126;" horiz-adv-x="1570" 
d="M133 0v193h348l1 64q-152 59 -253.5 191.5t-125.5 286.5q-2 26 -2 41v128q0 15 2 39q34 253 217 406.5t465 153.5t464.5 -153.5t216.5 -406.5q3 -18 3 -39v-128q0 -22 -3 -41q-23 -173 -121.5 -294.5t-257.5 -183.5v-64h350v-193h-533v349q150 32 244 128.5t115 250.5
q2 28 2 43v125q0 15 -2 41q-25 177 -156 283t-322 106t-322 -106t-156 -283q-2 -26 -2 -41v-125q0 -29 2 -43q21 -138 116.5 -242.5t242.5 -136.5v-349h-533z" />
    <glyph glyph-name="estimated" unicode="&#x212e;" horiz-adv-x="1654" 
d="M836 -25q-211 0 -377 94t-258.5 263t-92.5 385q0 157 55.5 294.5t152 235.5t231.5 154.5t289 56.5q156 0 291 -55.5t231 -153t151 -235.5t55 -297q0 -18 -1 -26h-1152v-351q66 -102 167 -158.5t258 -56.5q190 0 315 77.5t196 238.5h169q-81 -228 -254 -347t-426 -119z
M411 828h847v284q-73 102 -176 149.5t-246 47.5q-271 0 -425 -195v-286z" />
    <glyph glyph-name="uni2153" unicode="&#x2153;" horiz-adv-x="1572" 
d="M215 0v30l842 1445h175v-30l-841 -1445h-176zM240 737v563l-177 -144h-25v156l203 163h151v-738h-152zM1235 -20q-104 0 -172.5 43t-113.5 132l122 75q53 -116 162 -116q44 0 75 19t43 54q5 11 5 32v30q0 22 -5 32q-26 67 -127 67h-50l-13 12v80l157 163h-320v134h487
v-128l-155 -167q68 -11 114.5 -49.5t60.5 -97.5q4 -12 4 -29v-74q0 -19 -4 -32q-25 -81 -96.5 -130.5t-173.5 -49.5z" />
    <glyph glyph-name="uni2154" unicode="&#x2154;" horiz-adv-x="1724" 
d="M362 0v30l842 1445h175v-30l-841 -1445h-176zM1382 -20q-104 0 -172.5 43t-113.5 132l122 75q53 -116 161 -116q44 0 75 19t43 54q6 13 6 32v30q0 20 -6 32q-26 67 -127 67h-50l-13 12v80l157 163h-319v134h486v-128l-155 -167q69 -11 115.5 -49.5t60.5 -97.5q3 -9 3 -29
v-74q0 -22 -3 -32q-25 -81 -96.5 -130.5t-173.5 -49.5zM86 737v128l266 226q77 67 92 117q6 20 6 31v28q0 16 -5 26q-27 68 -118 68q-99 0 -149 -113l-117 73q80 174 275 174q99 0 164 -42.5t87 -115.5q7 -18 7 -42v-57q0 -20 -2 -29q-7 -54 -40.5 -99t-88.5 -94l-166 -145
h302v-134h-513z" />
    <glyph glyph-name="oneeighth" unicode="&#x215b;" horiz-adv-x="1536" 
d="M215 0v30l842 1445h175v-30l-841 -1445h-176zM1210 -20q-102 0 -170.5 43.5t-90.5 118.5q-8 19 -8 44v29q0 25 6 39q12 45 47 78.5t81 48.5q-74 36 -100 111q-12 21 -12 46v30q0 26 12 52q22 66 82.5 102t152.5 36q90 0 151.5 -36t84.5 -102q12 -26 12 -52v-30
q0 -23 -12 -47q-25 -74 -100 -110q46 -15 81 -49t47 -78q7 -17 7 -39v-29q0 -27 -8 -44q-22 -75 -91 -118.5t-172 -43.5zM1210 112q84 0 114 61q9 13 9 33v19q0 20 -9 35q-33 60 -114 60q-80 0 -113 -60q-10 -17 -10 -35v-19q0 -18 10 -33q31 -61 113 -61zM1210 440
q72 0 101 55q7 13 7 29v22q0 19 -7 32q-27 52 -101 52q-77 0 -102 -56q-5 -10 -5 -28v-22q0 -18 5 -28q27 -56 102 -56zM240 737v563l-177 -144h-25v156l203 163h151v-738h-152z" />
    <glyph glyph-name="threeeighths" unicode="&#x215c;" horiz-adv-x="1677" 
d="M338 0v30l842 1445h175v-30l-841 -1445h-176zM1333 -20q-102 0 -170.5 43.5t-90.5 118.5q-9 21 -9 44v29q0 22 7 39q12 45 47 78.5t81 48.5q-74 36 -100 111q-12 21 -12 46v30q0 26 12 52q22 66 82.5 102t152.5 36q90 0 151.5 -36t84.5 -102q12 -26 12 -52v-30
q0 -23 -12 -47q-25 -74 -100 -110q46 -15 80.5 -48.5t46.5 -78.5q8 -19 8 -39v-29q0 -24 -9 -44q-22 -75 -90.5 -118.5t-171.5 -43.5zM1333 112q83 0 114 61q9 13 9 33v19q0 20 -9 35q-33 60 -114 60q-80 0 -113 -60q-10 -17 -10 -35v-19q0 -18 10 -33q30 -61 113 -61z
M1333 440q72 0 101 55q7 13 7 29v22q0 19 -7 32q-27 52 -101 52q-77 0 -102 -56q-5 -10 -5 -28v-22q0 -18 5 -28q27 -56 102 -56zM359 717q-104 0 -172.5 43t-113.5 132l122 76q54 -117 161 -117q44 0 75 19t43 54q6 14 6 32v31q0 19 -6 31q-26 67 -127 67h-50l-13 13v79
l157 163h-319v135h486v-129l-155 -166q68 -11 115 -50t61 -98q3 -9 3 -28v-75q0 -22 -3 -32q-25 -81 -96.5 -130.5t-173.5 -49.5z" />
    <glyph glyph-name="fiveeighths" unicode="&#x215d;" horiz-adv-x="1646" 
d="M322 0v30l841 1445h176v-30l-842 -1445h-175zM1317 -20q-102 0 -171 43.5t-91 118.5q-8 19 -8 44v29q0 22 7 39q12 45 47 78.5t80 48.5q-74 36 -100 111q-11 19 -11 46v30q0 28 11 52q22 66 83 102t153 36q90 0 151.5 -36t84.5 -102q11 -24 11 -52v-30q0 -25 -11 -47
q-25 -74 -100 -110q46 -15 80.5 -48.5t46.5 -78.5q7 -17 7 -39v-29q0 -27 -8 -44q-22 -75 -90.5 -118.5t-171.5 -43.5zM1317 112q83 0 114 61q9 13 9 33v19q0 20 -9 35q-33 60 -114 60t-114 -60q-9 -15 -9 -35v-19q0 -20 9 -33q31 -61 114 -61zM1317 440q72 0 101 55
q7 13 7 29v22q0 19 -7 32q-27 52 -101 52q-77 0 -102 -56q-6 -12 -6 -28v-22q0 -16 6 -28q27 -56 102 -56zM325 717q-93 0 -168 44t-113 130l116 78q60 -118 165 -118q43 0 73 22t42 57q4 9 4 24v23q0 20 -5 30q-27 67 -138 67h-195l-15 15l35 386h432v-135h-314l-12 -143
h108q202 0 243 -143q9 -22 9 -53v-70q0 -29 -8 -49q-26 -79 -92.5 -122t-166.5 -43z" />
    <glyph glyph-name="seveneighths" unicode="&#x215e;" horiz-adv-x="1458" 
d="M136 0v30l841 1445h176v-30l-842 -1445h-175zM1131 -20q-102 0 -171 43.5t-91 118.5q-8 19 -8 44v29q0 22 7 39q12 45 47 78.5t80 48.5q-74 36 -100 111q-11 19 -11 46v30q0 28 11 52q22 66 83 102t153 36q90 0 151.5 -36t84.5 -102q11 -24 11 -52v-30q0 -25 -11 -47
q-25 -74 -100 -110q46 -15 80.5 -48.5t46.5 -78.5q7 -17 7 -39v-29q0 -27 -8 -44q-22 -75 -90.5 -118.5t-171.5 -43.5zM1131 112q83 0 114 61q9 13 9 33v19q0 20 -9 35q-33 60 -114 60t-114 -60q-9 -15 -9 -35v-19q0 -20 9 -33q31 -61 114 -61zM1131 440q72 0 101 55
q7 13 7 29v22q0 19 -7 32q-27 52 -101 52q-77 0 -102 -56q-6 -12 -6 -28v-22q0 -16 6 -28q27 -56 102 -56zM158 737v20l262 583h-367v135h511v-142l-252 -596h-154z" />
    <glyph glyph-name="arrowleft" unicode="&#x2190;" horiz-adv-x="1558" 
d="M739 -45l-645 645v29l645 645l123 -123l-446 -452h1044v-170h-1044l446 -451z" />
    <glyph glyph-name="arrowup" unicode="&#x2191;" horiz-adv-x="1499" 
d="M1409 776l-123 -123l-451 446v-1044h-170v1044l-453 -446l-122 123l645 644h29z" />
    <glyph glyph-name="arrowright" unicode="&#x2192;" horiz-adv-x="1558" 
d="M821 -45l-123 123l446 451h-1044v170h1044l-446 452l123 123l644 -645v-29z" />
    <glyph glyph-name="arrowdown" unicode="&#x2193;" horiz-adv-x="1499" 
d="M90 699l123 123l452 -446v1044h170v-1044l452 446l122 -123l-645 -644h-29z" />
    <glyph glyph-name="arrowboth" unicode="&#x2194;" horiz-adv-x="2134" 
d="M736 -45l-645 645v29l645 645l123 -123l-447 -452h1310l-446 452l123 123l644 -645v-29l-644 -645l-123 123l446 451h-1310l447 -451z" />
    <glyph glyph-name="arrowupdn" unicode="&#x2195;" horiz-adv-x="1488" 
d="M207 885l-122 122l645 645h29l645 -645l-123 -122l-452 446v-1187l452 446l123 -123l-645 -644h-29l-645 644l122 123l452 -446v1187z" />
    <glyph glyph-name="uni2196" unicode="&#x2196;" horiz-adv-x="1259" 
d="M1068 1347v-173l-635 -5l738 -738l-120 -120l-738 738l-4 -635l-174 1v911l21 21h912z" />
    <glyph glyph-name="uni2197" unicode="&#x2197;" horiz-adv-x="1259" 
d="M192 1355h911l21 -21v-912h-173l-4 635l-739 -738l-120 120l738 738l-634 4v174z" />
    <glyph glyph-name="uni2198" unicode="&#x2198;" horiz-adv-x="1234" 
d="M178 130v173l635 4l-739 739l120 120l739 -739l4 635h173v-911l-21 -21h-911z" />
    <glyph glyph-name="uni2199" unicode="&#x2199;" horiz-adv-x="1234" 
d="M1058 130h-912l-21 21v911h173l5 -635l738 739l120 -120l-738 -739l635 -4v-173z" />
    <glyph glyph-name="partialdiff" unicode="&#x2202;" horiz-adv-x="1202" 
d="M593 -28q-195 0 -336 117t-177 308q-5 25 -5 63v154q0 25 5 70q36 191 175.5 306.5t337.5 115.5q115 0 213 -46q-76 146 -194 275.5t-265 228.5v33h225q113 -73 231 -220.5t205 -338t98 -357.5q6 -39 6 -67v-154q0 -30 -6 -61q-36 -191 -177.5 -309t-335.5 -118zM593 145
q123 0 213.5 74.5t113.5 195.5q4 24 4 57v130q0 44 -4 64q-23 121 -113 194t-214 73q-123 0 -212 -74t-112 -195q-6 -22 -6 -62v-130q0 -28 6 -55q23 -121 112.5 -196.5t211.5 -75.5z" />
    <glyph glyph-name="uni2206" unicode="&#x2206;" horiz-adv-x="1337" 
d="M32 0v34l509 1441h251l514 -1441v-34h-1274zM303 196h731l-355 1037h-26z" />
    <glyph glyph-name="product" unicode="&#x220f;" horiz-adv-x="1439" 
d="M159 -451v1926h1123v-1926h-204v1738h-716v-1738h-203z" />
    <glyph glyph-name="summation" unicode="&#x2211;" horiz-adv-x="1300" 
d="M63 -451v183l612 781l-612 779v183h1173v-183h-942l611 -779l-610 -781h941v-183h-1173z" />
    <glyph glyph-name="minus" unicode="&#x2212;" horiz-adv-x="1011" 
d="M73 654v167h867v-167h-867z" />
    <glyph glyph-name="uni2215" unicode="&#x2215;" horiz-adv-x="835" 
d="M35 0v34l595 1441h172v-34l-595 -1441h-172z" />
    <glyph glyph-name="uni2219" unicode="&#x2219;" horiz-adv-x="700" 
d="M350 319q-98 0 -166 68t-68 164q0 98 68 166.5t166 68.5q97 0 165 -68.5t68 -166.5q0 -95 -68.5 -163.5t-164.5 -68.5z" />
    <glyph glyph-name="radical" unicode="&#x221a;" horiz-adv-x="1191" 
d="M388 0l-293 698l1 39h199l190 -477h30l439 1215h193l1 -40l-541 -1435h-219z" />
    <glyph glyph-name="infinity" unicode="&#x221e;" horiz-adv-x="1368" 
d="M406 380q-123 0 -200.5 72t-99.5 187q-4 40 -4 94q0 53 4 93q22 115 99.5 187t200.5 72q82 0 152.5 -40t112.5 -121l13 -28l13 28q42 81 112.5 121t152.5 40q123 0 200.5 -72t99.5 -187q3 -45 3 -93q0 -49 -3 -94q-22 -115 -99.5 -187t-200.5 -72q-82 0 -152.5 40.5
t-112.5 121.5l-13 27l-13 -27q-42 -81 -112.5 -121.5t-152.5 -40.5zM412 549q99 0 148 92l49 92l-49 92q-49 91 -148 91q-58 0 -94.5 -31t-47.5 -79q-4 -23 -4 -74q0 -50 4 -73q11 -48 47.5 -79t94.5 -31zM955 549q58 0 94.5 31t47.5 79q4 23 4 73q0 51 -4 74
q-11 48 -47.5 79t-94.5 31q-99 0 -148 -91l-49 -92l49 -92q49 -92 148 -92z" />
    <glyph glyph-name="integral" unicode="&#x222b;" horiz-adv-x="784" 
d="M39 -451v177h97q67 0 107.5 41.5t40.5 111.5v1413q0 147 88.5 226.5t233.5 79.5h142v-176h-126q-67 0 -107.5 -41.5t-40.5 -111.5v-1427q0 -139 -89.5 -216t-232.5 -77h-113z" />
    <glyph glyph-name="approxequal" unicode="&#x2248;" horiz-adv-x="1011" 
d="M730 354q-52 0 -91.5 15.5t-86.5 47.5l-126 77q-43 30 -66.5 41.5t-47.5 11.5q-35 0 -56.5 -26t-21.5 -71v-78h-160v99q0 105 58.5 168t154.5 63q52 0 91 -15.5t86 -47.5l126 -76q77 -54 115 -54q35 0 56 26t21 71v79h161v-101q0 -104 -58.5 -167t-154.5 -63zM730 784
q-52 0 -91.5 15.5t-86.5 47.5l-126 77q-43 30 -66.5 41.5t-47.5 11.5q-35 0 -56.5 -26t-21.5 -71v-78h-160v99q0 105 58.5 168.5t154.5 63.5q52 0 90.5 -15.5t86.5 -48.5l126 -76q76 -53 115 -53q35 0 56 25.5t21 70.5v79h161v-101q0 -104 -58.5 -167t-154.5 -63z" />
    <glyph glyph-name="notequal" unicode="&#x2260;" horiz-adv-x="1011" 
d="M204 189l-94 68v25l109 155h-143v167h260l187 264h-447v167h565l170 241l95 -64v-25l-107 -152h144v-167h-262l-185 -264h447v-167h-565z" />
    <glyph glyph-name="lessequal" unicode="&#x2264;" horiz-adv-x="1011" 
d="M907 460l-837 336v192l837 336h29v-176l-664 -256l664 -257v-175h-29zM70 0v167h866v-167h-866z" />
    <glyph glyph-name="greaterequal" unicode="&#x2265;" horiz-adv-x="1011" 
d="M80 460v175l664 257l-664 256v176h29l837 -336v-192l-837 -336h-29zM74 0v167h866v-167h-866z" />
    <glyph glyph-name="lozenge" unicode="&#x25ca;" horiz-adv-x="1245" 
d="M529 0l-431 699v76l431 700h186l432 -700v-76l-432 -699h-186zM623 178l335 559l-335 560l-336 -560z" />
    <glyph glyph-name="uniF000" unicode="&#xf000;" horiz-adv-x="864" 
d="M338 -8q-26 0 -42.5 18t-16.5 43h-50q-4 0 -4 4v43h-45q-2 0 -2 2v35q0 7 5.5 12t13.5 5h52q-54 66 -54 116q0 65 57 104q22 -9 50.5 -10t47.5 8q54 51 146 51q72 0 129 -31q95 -53 127 -53q10 0 19.5 3.5t14.5 3.5q14 0 14 -22q0 -52 -36.5 -99.5t-91.5 -70.5h80
q7 0 12.5 -5.5t5.5 -11.5v-33q0 -4 -4 -4h-41v-43q0 -4 -4 -4h-64q0 -26 -17 -43.5t-42 -17.5q-26 0 -41.5 17t-15.5 44h-144v-2q0 -25 -17 -42t-42 -17zM264 397q-2 1 -2 5q0 22 -15 31.5t-50 9.5h-120q-17 0 -28.5 6.5t-11.5 16.5q0 32 48 24q67 -9 106 2.5t72 50.5
q23 28 63 28q32 0 53.5 -21t21.5 -52q0 -24 -9.5 -40.5t-22 -31.5t-17.5 -29q-11 -9 -42 -8.5t-46 8.5zM322 456q16 0 27 11t11 28t-11 28t-27 11t-27.5 -11t-11.5 -28t11.5 -28t27.5 -11zM322 481q-15 0 -15 14t15 14q14 0 14 -14t-14 -14z" />
    <glyph glyph-name="uniFEFF" unicode="&#xfeff;" 
 />
    <glyph glyph-name="IJ.loclNLD" horiz-adv-x="1284" 
d="M652 -28q-70 0 -133 11.5t-125.5 41.5t-108 76t-75 120t-31.5 169h203q4 -110 75 -170t186 -60q102 0 170 46t85 124q12 53 12 111v1034h203v-1027q0 -228 -121 -352t-340 -124zM179 623v852h203v-852h-203z" />
    <glyph glyph-name="i.loclTRK" horiz-adv-x="516" 
d="M163 0v1106h190v-1106h-190zM258 1304q-56 0 -96 40t-40 97t40 96.5t96 39.5q57 0 97 -39.5t40 -96.5t-40 -97t-97 -40z" />
    <glyph glyph-name="ij.loclNLD" horiz-adv-x="1196" 
d="M618 -451v177h98q67 0 107 41.5t40 111.5v265q-38 -76 -122.5 -124t-204.5 -48q-191 0 -297.5 109t-106.5 307v718h190v-699q7 -115 73 -187t192 -72q105 0 176.5 54t99.5 149v755h190v-1250q0 -147 -88.5 -227t-233.5 -80h-113zM227 1305q-57 0 -97 40t-40 97t40 96.5
t97 39.5t97 -39.5t40 -96.5t-40 -97t-97 -40zM958 1305q-57 0 -96.5 40t-39.5 97t39.5 96.5t96.5 39.5t97 -39.5t40 -96.5t-40.5 -97t-96.5 -40z" />
    <glyph glyph-name="a.ss01" horiz-adv-x="1300" 
d="M572 -29q-173 0 -297 103.5t-166 285.5q-20 164 -8 348q33 201 160.5 314t316.5 113q234 0 367 -169l48 140h145v-1106h-145l-48 140q-66 -87 -155.5 -128t-217.5 -41zM629 145q116 0 193 49.5t126 157.5v393q-47 103 -131.5 160t-187.5 57q-135 0 -224.5 -77
t-114.5 -218q-15 -146 8 -268q34 -123 120 -188.5t211 -65.5z" />
    <glyph glyph-name="aacute.ss01" horiz-adv-x="1302" 
d="M572 -29q-173 0 -297 103.5t-166 285.5q-20 164 -8 348q33 201 160.5 314t316.5 113q234 0 367 -169l48 140h145v-1106h-145l-48 140q-66 -87 -155.5 -128t-217.5 -41zM629 145q116 0 193 49.5t126 157.5v393q-47 103 -131.5 160t-187.5 57q-135 0 -224.5 -77
t-114.5 -218q-15 -146 8 -268q34 -123 120 -188.5t211 -65.5zM566 1241v34l152 277h232v-34l-240 -277h-144z" />
    <glyph glyph-name="abreve.ss01" horiz-adv-x="1302" 
d="M572 -29q-173 0 -297 103.5t-166 285.5q-20 164 -8 348q33 201 160.5 314t316.5 113q234 0 367 -169l48 140h145v-1106h-145l-48 140q-66 -87 -155.5 -128t-217.5 -41zM629 145q116 0 193 49.5t126 157.5v393q-47 103 -131.5 160t-187.5 57q-135 0 -224.5 -77
t-114.5 -218q-15 -146 8 -268q34 -123 120 -188.5t211 -65.5zM642 1241q-152 0 -236.5 83.5t-84.5 227.5h160q0 -81 42 -128t118 -47t117.5 47t41.5 128h161q0 -144 -84 -227.5t-235 -83.5z" />
    <glyph glyph-name="acircumflex.ss01" horiz-adv-x="1302" 
d="M572 -29q-173 0 -297 103.5t-166 285.5q-20 164 -8 348q33 201 160.5 314t316.5 113q234 0 367 -169l48 140h145v-1106h-145l-48 140q-66 -87 -155.5 -128t-217.5 -41zM629 145q116 0 193 49.5t126 157.5v393q-47 103 -131.5 160t-187.5 57q-135 0 -224.5 -77
t-114.5 -218q-15 -146 8 -268q34 -123 120 -188.5t211 -65.5zM301 1241v34l259 277h161l258 -277v-34h-180l-158 175l-160 -175h-180z" />
    <glyph glyph-name="adieresis.ss01" horiz-adv-x="1302" 
d="M572 -29q-173 0 -297 103.5t-166 285.5q-20 164 -8 348q33 201 160.5 314t316.5 113q234 0 367 -169l48 140h145v-1106h-145l-48 140q-66 -87 -155.5 -128t-217.5 -41zM629 145q116 0 193 49.5t126 157.5v393q-47 103 -131.5 160t-187.5 57q-135 0 -224.5 -77
t-114.5 -218q-15 -146 8 -268q34 -123 120 -188.5t211 -65.5zM450 1270q-52 0 -89.5 37t-37.5 90q0 52 37.5 89t89.5 37t89.5 -37t37.5 -89t-37.5 -89.5t-89.5 -37.5zM829 1270q-53 0 -90 37t-37 90q0 52 37.5 89t89.5 37t89 -37t37 -89t-37 -89.5t-89 -37.5z" />
    <glyph glyph-name="agrave.ss01" horiz-adv-x="1302" 
d="M572 -29q-173 0 -297 103.5t-166 285.5q-20 164 -8 348q33 201 160.5 314t316.5 113q234 0 367 -169l48 140h145v-1106h-145l-48 140q-66 -87 -155.5 -128t-217.5 -41zM629 145q116 0 193 49.5t126 157.5v393q-47 103 -131.5 160t-187.5 57q-135 0 -224.5 -77
t-114.5 -218q-15 -146 8 -268q34 -123 120 -188.5t211 -65.5zM568 1241l-240 277v34h232l152 -277v-34h-144z" />
    <glyph glyph-name="amacron.ss01" horiz-adv-x="1302" 
d="M572 -29q-173 0 -297 103.5t-166 285.5q-20 164 -8 348q33 201 160.5 314t316.5 113q234 0 367 -169l48 140h145v-1106h-145l-48 140q-66 -87 -155.5 -128t-217.5 -41zM629 145q116 0 193 49.5t126 157.5v393q-47 103 -131.5 160t-187.5 57q-135 0 -224.5 -77
t-114.5 -218q-15 -146 8 -268q34 -123 120 -188.5t211 -65.5zM351 1320v153h579v-153h-579z" />
    <glyph glyph-name="aogonek.ss01" horiz-adv-x="1302" 
d="M572 -29q-173 0 -297 103.5t-166 285.5q-20 164 -8 348q33 201 160.5 314t316.5 113q234 0 367 -169l48 140h145v-1106q-71 -24 -114.5 -71t-43.5 -111q0 -49 29 -75t80 -26h49v-154h-76q-116 0 -181 63.5t-65 169.5q0 84 46 147.5t115 102.5l-32 94q-66 -87 -155.5 -128
t-217.5 -41zM629 145q116 0 193 49.5t126 157.5v393q-47 103 -131.5 160t-187.5 57q-135 0 -224.5 -77t-114.5 -218q-15 -146 8 -268q34 -123 120 -188.5t211 -65.5z" />
    <glyph glyph-name="aring.ss01" horiz-adv-x="1302" 
d="M572 -29q-173 0 -297 103.5t-166 285.5q-20 164 -8 348q33 201 160.5 314t316.5 113q234 0 367 -169l48 140h145v-1106h-145l-48 140q-66 -87 -155.5 -128t-217.5 -41zM629 145q116 0 193 49.5t126 157.5v393q-47 103 -131.5 160t-187.5 57q-135 0 -224.5 -77
t-114.5 -218q-15 -146 8 -268q34 -123 120 -188.5t211 -65.5zM639 1219q-90 0 -148.5 57.5t-58.5 143.5q0 87 58.5 145t148.5 58q91 0 150 -58t59 -145q0 -86 -59 -143.5t-150 -57.5zM639 1325q39 0 67.5 28t28.5 67q0 42 -27.5 69.5t-68.5 27.5q-42 0 -68.5 -27t-26.5 -70
q0 -41 26.5 -68t68.5 -27z" />
    <glyph glyph-name="atilde.ss01" horiz-adv-x="1302" 
d="M572 -29q-173 0 -297 103.5t-166 285.5q-20 164 -8 348q33 201 160.5 314t316.5 113q234 0 367 -169l48 140h145v-1106h-145l-48 140q-66 -87 -155.5 -128t-217.5 -41zM629 145q116 0 193 49.5t126 157.5v393q-47 103 -131.5 160t-187.5 57q-135 0 -224.5 -77
t-114.5 -218q-15 -146 8 -268q34 -123 120 -188.5t211 -65.5zM297 1335q0 92 49.5 145.5t129.5 53.5q45 0 76.5 -11t68.5 -35l63 -41q56 -38 86 -38q59 0 59 73v55h154v-80q0 -93 -49 -145.5t-130 -52.5q-77 0 -152 51l-65 43q-47 31 -77 31q-59 0 -59 -74v-54h-154v79z" />
    <glyph glyph-name="ae.ss01" horiz-adv-x="2076" 
d="M572 -29q-173 0 -297 103.5t-166 285.5q-20 164 -8 348q33 201 160.5 314t316.5 113q115 0 210 -43.5t160 -125.5v140h196v-156q51 87 140.5 135.5t204.5 48.5q198 0 326.5 -112.5t163.5 -301.5q6 -29 6 -60v-139l-25 -25h-817q16 -165 107 -258t240 -93q107 0 181 39.5
t140 125.5l134 -117q-163 -221 -419 -221q-270 0 -384 189v-161h-194v140q-68 -88 -157.5 -128.5t-218.5 -40.5zM629 145q116 0 193 49.5t126 157.5v393q-47 103 -131.5 160t-187.5 57q-135 0 -224.5 -77t-114.5 -218q-15 -146 8 -268q34 -123 120 -188.5t211 -65.5z
M1799 650q-8 138 -96 226.5t-222 88.5q-138 0 -225.5 -87.5t-107.5 -227.5h651z" />
    <glyph glyph-name="aeacute.ss01" horiz-adv-x="2076" 
d="M572 -29q-173 0 -297 103.5t-166 285.5q-20 164 -8 348q33 201 160.5 314t316.5 113q115 0 210 -43.5t160 -125.5v140h196v-156q51 87 140.5 135.5t204.5 48.5q198 0 326.5 -112.5t163.5 -301.5q6 -29 6 -60v-139l-25 -25h-817q16 -165 107 -258t240 -93q107 0 181 39.5
t140 125.5l134 -117q-163 -221 -419 -221q-270 0 -384 189v-161h-194v140q-68 -88 -157.5 -128.5t-218.5 -40.5zM629 145q116 0 193 49.5t126 157.5v393q-47 103 -131.5 160t-187.5 57q-135 0 -224.5 -77t-114.5 -218q-15 -146 8 -268q34 -123 120 -188.5t211 -65.5z
M1799 650q-8 138 -96 226.5t-222 88.5q-138 0 -225.5 -87.5t-107.5 -227.5h651zM973 1241v34l152 277h231v-34l-240 -277h-143z" />
    <glyph glyph-name="l.ss03" horiz-adv-x="503" 
d="M157 0v1597h190v-1597h-190z" />
    <glyph glyph-name="lacute.ss03" horiz-adv-x="505" 
d="M157 0v1597h190v-1597h-190zM179 1733v33l152 278h231v-34l-240 -277h-143z" />
    <glyph glyph-name="lcaron.ss03" horiz-adv-x="505" 
d="M157 0v1597h190v-1597h-190zM539 1208v389h188v-29l-81 -360h-107z" />
    <glyph glyph-name="uni013C.ss03" horiz-adv-x="505" 
d="M157 0v1597h190v-1597h-190zM162 -451v340h184v-29l-59 -311h-125z" />
    <glyph glyph-name="ldot.ss03" horiz-adv-x="759" 
d="M157 0v1597h190v-1597h-190zM625 601q-57 0 -97 39.5t-40 96.5t40 97t97 40t97 -40t40 -97t-40 -96.5t-97 -39.5z" />
    <glyph glyph-name="lslash.ss03" horiz-adv-x="636" 
d="M64 638v194l161 52v713h190v-652l159 51v-193l-159 -51v-752h-190v691z" />
    <glyph glyph-name="fl.ss03" horiz-adv-x="1075" 
d="M241 0v932h-198v174h198v185q0 147 88.5 226.5t233.5 79.5h469v-1597h-190v1421h-264q-67 0 -107 -41.5t-40 -111.5v-162h256v-174h-256v-932h-190z" />
    <glyph glyph-name="zero.tf" horiz-adv-x="1228" 
d="M614 -28q-227 0 -365.5 152.5t-164.5 442.5q-1 15 -1 47v246q0 27 1 48q25 289 164.5 442t365.5 153q227 0 366.5 -153t163.5 -442q2 -21 2 -48v-246q0 -32 -2 -47q-26 -290 -164.5 -442.5t-365.5 -152.5zM614 151q143 0 233.5 109t102.5 318q1 8 1 43v233q0 36 -1 44
q-13 209 -103.5 317.5t-232.5 108.5t-232 -108.5t-103 -317.5q-1 -17 -1 -44v-233q0 -27 1 -43q12 -209 102 -318t233 -109z" />
    <glyph glyph-name="one.tf" horiz-adv-x="1228" 
d="M173 0v179h384v1074l-351 -297h-33v200l384 319h194v-1296h384v-179h-962z" />
    <glyph glyph-name="two.tf" horiz-adv-x="1228" 
d="M180 0v179l527 501q100 95 144.5 164t54.5 154q1 10 1 31v50q0 11 -2 29q-17 102 -87.5 158.5t-184.5 56.5q-243 0 -332 -271l-155 93q55 171 184 264t317 93q184 0 308 -98t145 -263q1 -6 1 -20v-101q0 -22 -1 -33q-6 -66 -21 -115t-50.5 -103t-82.5 -105t-131 -131
l-369 -354h655v-179h-921z" />
    <glyph glyph-name="three.tf" horiz-adv-x="1228" 
d="M626 -29q-181 0 -305 85t-199 263l170 95q104 -264 333 -264q110 0 183 48t99 135q18 109 -1 212q-54 167 -282 167h-102l-25 25v134l371 425h-670v179h882v-179l-364 -431q308 -17 381 -275q25 -152 0 -305q-42 -146 -168.5 -230t-302.5 -84z" />
    <glyph glyph-name="four.tf" horiz-adv-x="1228" 
d="M80 272v177l599 1026h209v-34l-581 -992h443v288h187v-288h220v-177h-220v-272h-187v272h-670z" />
    <glyph glyph-name="five.tf" horiz-adv-x="1228" 
d="M630 -28q-184 0 -308.5 84.5t-198.5 262.5l170 95q58 -136 140 -199.5t197 -63.5q113 0 185 52t96 147q5 28 5 53v82q0 27 -6 51q-24 89 -92 129.5t-185 40.5h-392l-25 25l74 744h765v-179h-610l-35 -416h259q184 0 297 -81.5t141 -242.5q4 -30 4 -47v-134q0 -18 -4 -48
q-35 -170 -159.5 -262.5t-317.5 -92.5z" />
    <glyph glyph-name="six.tf" horiz-adv-x="1228" 
d="M622 -28q-198 0 -332.5 109.5t-172.5 300.5q-5 42 -5 115q0 74 3 108q16 98 48 173t95 169l352 528h205l-1 -34l-337 -493q66 47 169 47q191 0 314.5 -98t157.5 -269q13 -73 13 -141q0 -69 -13 -136q-37 -171 -173 -275t-323 -104zM621 153q121 0 198 56.5t105 162.5
q10 51 10 114t-11 121q-29 105 -107 162t-195 57q-113 0 -193.5 -59t-107.5 -158q-12 -59 -12 -120t12 -117q27 -99 108 -159t193 -60z" />
    <glyph glyph-name="seven.tf" horiz-adv-x="1228" 
d="M351 0v34l544 1258h-737v183h935v-177l-537 -1298h-205z" />
    <glyph glyph-name="eight.tf" horiz-adv-x="1228" 
d="M614 -28q-212 0 -348.5 94t-164.5 251q-4 16 -4 38v89q0 20 4 40q18 103 82 177t152 99q-85 47 -131 110t-60 150q-2 26 -2 40v86q0 18 3 41q29 149 152.5 232.5t316.5 83.5t316.5 -83.5t152.5 -232.5q4 -20 4 -41v-86q0 -20 -3 -40q-14 -87 -60 -150t-131 -110
q88 -25 152 -99t83 -177q4 -30 4 -40v-89q0 -14 -4 -38q-29 -157 -165 -251t-349 -94zM614 151q118 0 202 51t112 143q4 15 4 36v71q0 23 -4 38q-55 188 -314 188q-258 0 -313 -188q-4 -15 -4 -38v-71q0 -21 4 -36q28 -92 111.5 -143t201.5 -51zM614 841q109 0 178.5 43.5
t92.5 124.5q4 16 4 38v82q0 23 -5 38q-24 79 -93.5 122.5t-176.5 43.5t-175.5 -43.5t-92.5 -122.5q-6 -18 -6 -38v-82q0 -22 4 -38q23 -81 92.5 -124.5t177.5 -43.5z" />
    <glyph glyph-name="nine.tf" horiz-adv-x="1228" 
d="M613 1503q198 0 332.5 -109.5t172.5 -300.5q6 -51 6 -115t-4 -109q-16 -99 -47.5 -174t-94.5 -168l-352 -527h-205l1 34l336 492q-66 -47 -168 -47q-191 0 -315 98.5t-158 268.5q-13 73 -13 141q0 69 13 136q37 171 173 275.5t323 104.5zM614 1321q-121 0 -197.5 -56
t-104.5 -163q-11 -57 -11 -114t12 -120q29 -105 106.5 -162t194.5 -57q114 0 194 58.5t107 157.5q12 59 12 120t-12 117q-27 99 -108 159t-193 60z" />
    <glyph glyph-name="arrowup.ss02" horiz-adv-x="1419" 
d="M173 353l-123 123l645 646h29l645 -646l-122 -123l-537 531z" />
    <glyph glyph-name="uni2197.ss02" horiz-adv-x="1112" 
d="M821 271v758h-758v175h911l21 -21v-912h-174z" />
    <glyph glyph-name="arrowright.ss02" horiz-adv-x="952" 
d="M212 81l-123 123l530 537l-530 536l123 123l645 -644v-30z" />
    <glyph glyph-name="uni2198.ss02" horiz-adv-x="1142" 
d="M86 271v174h758v759h173v-912l-20 -21h-911z" />
    <glyph glyph-name="arrowdown.ss02" horiz-adv-x="1382" 
d="M676 353l-645 646l123 123l537 -532l537 532l122 -123l-644 -646h-30z" />
    <glyph glyph-name="uni2199.ss02" horiz-adv-x="1142" 
d="M146 271l-21 21v912h174v-759h758v-174h-911z" />
    <glyph glyph-name="arrowleft.ss02" horiz-adv-x="952" 
d="M740 81l-645 645v30l645 644l122 -123l-530 -536l530 -537z" />
    <glyph glyph-name="uni2196.ss02" horiz-adv-x="1112" 
d="M118 271v912l21 21h910v-175h-758v-758h-173z" />
    <glyph glyph-name="arrowboth.ss02" horiz-adv-x="2144" 
d="M1403 81l-122 123l529 537l-529 536l122 123l645 -644v-30zM740 81l-644 645v30l644 644l123 -123l-530 -536l530 -537z" />
    <glyph glyph-name="arrowupdn.ss02" horiz-adv-x="1515" 
d="M221 885l-123 122l645 645h30l644 -645l-122 -122l-537 530zM743 -177l-645 644l123 123l537 -530l537 530l122 -123l-644 -644h-30z" />
    <glyph glyph-name="uni0306.cy" 
d="M2 1241q-152 0 -236.5 83.5t-84.5 227.5h160q0 -81 42 -128t118 -47t117.5 47t41.5 128h161q0 -144 -84 -227.5t-235 -83.5z" />
    </font>
</defs>
</svg>
