<?xml version="1.0" standalone="no"?>
<!DOCTYPE svg PUBLIC "-//W3C//DTD SVG 1.1//EN" "http://www.w3.org/Graphics/SVG/1.1/DTD/svg11.dtd" >
<svg xmlns="http://www.w3.org/2000/svg" xmlns:xlink="http://www.w3.org/1999/xlink" version="1.1">
<metadata>
Created by FontForge 20201107 at Sun May 18 00:56:52 2025
 By 
LEGO and Typewell are trademarks of the LEGO Group. (c) The LEGO Group 2024. All rights reserved.
</metadata>
<defs>
<font id="LEGOTypewell-Medium" horiz-adv-x="1316" >
  <font-face 
    font-family="LEGO Typewell Medium"
    font-weight="500"
    font-stretch="normal"
    units-per-em="2048"
    panose-1="0 0 0 0 0 0 0 0 0 0"
    ascent="1638"
    descent="-410"
    x-height="1106"
    cap-height="1475"
    bbox="-365 -480 2356 2054"
    underline-thickness="102"
    underline-position="-204"
    unicode-range="U+000D-FEFF"
  />
<missing-glyph horiz-adv-x="1224" 
d="M102 0v1237h189v172q0 28 18.5 47t46.5 19h512q28 0 47 -19t19 -47v-172h188v-1237h-1020zM612 408q129 0 220.5 91t91.5 220t-91.5 220t-220.5 91t-220 -91t-91 -220t91 -220t220 -91z" />
    <glyph glyph-name="f_f" unicode="ff" horiz-adv-x="1402" 
d="M241 0v886h-197v220h197v162q0 160 94.5 244.5t257.5 84.5h162v-221h-142q-65 0 -99 -37.5t-34 -104.5v-128h370v162q0 160 94.5 244.5t257.5 84.5h162v-221h-142q-65 0 -99 -37.5t-34 -104.5v-128h275v-220h-275v-886h-239v886h-370v-886h-239z" />
    <glyph glyph-name="fi" unicode="fi" horiz-adv-x="1263" 
d="M241 0v886h-197v220h197v162q0 160 94.5 244.5t257.5 84.5h133v-221h-113q-65 0 -99 -37.5t-34 -104.5v-128h632v-1106h-239v886h-393v-886h-239zM992 1278q-67 0 -114.5 47.5t-47.5 115.5t47.5 115.5t114.5 47.5q68 0 115.5 -48t47.5 -115t-47.5 -115t-115.5 -48z" />
    <glyph glyph-name="fl" unicode="fl" horiz-adv-x="1382" 
d="M241 0v886h-197v220h197v162q0 160 94.5 244.5t257.5 84.5h520v-1236q0 -139 125 -139h103v-222h-106q-174 0 -267 83.5t-93 245.5v1047h-262q-65 0 -99 -37.5t-34 -104.5v-128h246v-220h-246v-886h-239z" />
    <glyph glyph-name="f_f_i" unicode="ffi" horiz-adv-x="1851" 
d="M850 0v886h-370v-886h-239v886h-197v220h197v162q0 160 94.5 244.5t257.5 84.5h133v-221h-113q-65 0 -99 -37.5t-34 -104.5v-128h370v162q0 160 94.5 244.5t257.5 84.5h133v-221h-113q-65 0 -99 -37.5t-34 -104.5v-128h610v-1106h-239v886h-371v-886h-239zM1580 1278
q-68 0 -115.5 48t-47.5 115t47.5 115t115.5 48q67 0 114.5 -47.5t47.5 -115.5t-47.5 -115.5t-114.5 -47.5z" />
    <glyph glyph-name=".notdef" horiz-adv-x="1224" 
d="M102 0v1237h189v172q0 28 18.5 47t46.5 19h512q28 0 47 -19t19 -47v-172h188v-1237h-1020zM612 408q129 0 220.5 91t91.5 220t-91.5 220t-220.5 91t-220 -91t-91 -220t91 -220t220 -91z" />
    <glyph glyph-name=".null" horiz-adv-x="0" 
 />
    <glyph glyph-name="nonmarkingreturn" horiz-adv-x="682" 
 />
    <glyph glyph-name="NULL" horiz-adv-x="0" 
 />
    <glyph glyph-name="NULL" horiz-adv-x="0" 
 />
    <glyph glyph-name="CR" unicode="&#xd;" horiz-adv-x="497" 
 />
    <glyph glyph-name="space" unicode=" " horiz-adv-x="497" 
 />
    <glyph glyph-name="exclam" unicode="!" horiz-adv-x="526" 
d="M190 487l-51 407v581h248v-581l-51 -407h-146zM263 -32q-67 0 -115 48t-48 115t47.5 114.5t115.5 47.5t115.5 -47.5t47.5 -114.5t-48 -115t-115 -48z" />
    <glyph glyph-name="quotedbl" unicode="&#x22;" horiz-adv-x="743" 
d="M133 1063l-50 369v43h235v-43l-50 -369h-135zM474 1063l-50 369v43h235v-43l-50 -369h-135z" />
    <glyph glyph-name="quotedbl" unicode="&#x2033;" horiz-adv-x="743" 
d="M133 1063l-50 369v43h235v-43l-50 -369h-135zM474 1063l-50 369v43h235v-43l-50 -369h-135z" />
    <glyph glyph-name="numbersign" unicode="#" horiz-adv-x="1441" 
d="M140 0v42l85 349h-157v201h205l73 296h-216v201h264l94 386h217v-43l-83 -343h369l93 386h218v-43l-83 -343h155v-201h-204l-72 -296h214v-201h-263l-95 -391h-218v42l85 349h-369l-95 -391h-217zM501 592h369l72 296h-369z" />
    <glyph glyph-name="dollar" unicode="$" horiz-adv-x="1220" 
d="M527 -195v169q-315 33 -480 289l183 166q87 -121 176 -176t205 -55q102 0 172.5 37t99.5 106q6 15 6 34v69q0 18 -6 32q-17 46 -68.5 79t-147.5 58l-187 50q-158 43 -245 123.5t-117 200.5q-3 12 -3 27v136q0 16 4 31q29 121 141 207.5t267 109.5v171h204v-170
q250 -32 409 -243l-181 -159q-71 99 -147 139t-187 40q-91 0 -156.5 -37.5t-93.5 -104.5q-3 -8 -3 -21v-59q0 -10 3 -18q19 -54 68 -89.5t137 -59.5l200 -56q152 -42 246 -113t112 -169q4 -12 4 -27v-211q0 -14 -6 -32q-34 -117 -140.5 -198t-264.5 -104v-172h-204z" />
    <glyph glyph-name="percent" unicode="%" horiz-adv-x="1609" 
d="M395 778q-141 0 -239.5 80.5t-114.5 208.5v15v118v15q16 130 114 210t240 80q143 0 240.5 -80t113.5 -210v-15v-118q0 -2 0.5 -8.5t-0.5 -6.5q-16 -128 -114.5 -208.5t-239.5 -80.5zM395 959q56 0 98 32.5t57 90.5q0 2 0.5 5t0.5 6.5v3.5v90v3q0 4 -0.5 7t-0.5 5
q-13 59 -54 90.5t-101 31.5t-101 -31.5t-54 -90.5q0 -2 -0.5 -5t-0.5 -6.5v-3.5v-90v-3q0 -4 0.5 -7t0.5 -5q15 -58 57 -90.5t98 -32.5zM251 0v35l887 1440h219v-36l-886 -1439h-220zM1214 -31q-141 0 -239 81t-114 209q-1 5 -1 14v118q0 10 1 16q16 130 113.5 209.5
t239.5 79.5q143 0 240.5 -79.5t113.5 -209.5v-16v-118q0 -3 0.5 -8.5t-0.5 -5.5q-16 -128 -114.5 -209t-239.5 -81zM1214 151q56 0 98.5 32.5t57.5 89.5v15v90v15q-13 59 -54.5 91t-101.5 32q-59 0 -100.5 -32t-54.5 -91q0 -2 -0.5 -5t-0.5 -6.5v-3.5v-90v-4q0 -3 0.5 -6
t0.5 -5q15 -58 57 -90t98 -32z" />
    <glyph glyph-name="ampersand" unicode="&#x26;" horiz-adv-x="1288" 
d="M524 -31q-166 0 -286.5 85.5t-157.5 237.5v12v218v12q17 94 87 165t165 102q-65 82 -89.5 123.5t-30.5 82.5q-1 6 -1 18v175q0 11 1 16q43 139 156.5 214t280.5 75q320 0 441 -252l-176 -123q-91 168 -252 168q-188 0 -217 -143v-11v-73v-2v-4v-5q3 -21 15 -43t20.5 -33
t41.5 -51l353 -440l120 338h223v-43l-186 -491l204 -255v-42h-271l-79 100q-136 -131 -362 -131zM313 357q8 -73 67.5 -119t151.5 -46q127 0 216 83l-285 360q-127 -39 -149 -146q-1 -6 -1 -12v-120z" />
    <glyph glyph-name="quotesingle" unicode="'" horiz-adv-x="401" 
d="M133 1063l-50 369v43h235v-43l-50 -369h-135z" />
    <glyph glyph-name="quotesingle" unicode="&#x2032;" horiz-adv-x="401" 
d="M133 1063l-50 369v43h235v-43l-50 -369h-135z" />
    <glyph glyph-name="parenleft" unicode="(" horiz-adv-x="651" 
d="M381 -246q-115 131 -189.5 304t-95.5 364v631q21 191 95.5 363.5t189.5 303.5h251v-42q-132 -159 -205.5 -321.5t-92.5 -363.5v-512q19 -201 92.5 -362.5t205.5 -321.5v-43h-251z" />
    <glyph glyph-name="parenright" unicode=")" horiz-adv-x="651" 
d="M270 -246h-251v43q132 160 205.5 321.5t92.5 362.5v512q-19 201 -92.5 363.5t-205.5 321.5v42h251q115 -131 190 -303.5t96 -363.5v-631q-21 -191 -96 -364t-190 -304z" />
    <glyph glyph-name="asterisk" unicode="*" horiz-adv-x="1005" 
d="M377 662l-156 89l126 223h-255v181h255l-126 224l156 89l126 -222l126 222l156 -89l-126 -224h255v-181h-255l126 -223l-156 -89l-126 222z" />
    <glyph glyph-name="plus" unicode="+" horiz-adv-x="1046" 
d="M416 281v352h-349v209h349v351h215v-351h349v-209h-349v-352h-215z" />
    <glyph glyph-name="comma" unicode="," horiz-adv-x="534" 
d="M138 -169v449h272v-43l-135 -406h-137z" />
    <glyph glyph-name="hyphen" unicode="-" horiz-adv-x="833" 
d="M96 510v208h641v-208h-641z" />
    <glyph glyph-name="period" unicode="." horiz-adv-x="569" 
d="M285 -31q-67 0 -115 47.5t-48 115.5t48 115.5t115 47.5t114.5 -47.5t47.5 -115.5t-47.5 -115.5t-114.5 -47.5z" />
    <glyph glyph-name="slash" unicode="/" horiz-adv-x="1038" 
d="M24 -389v42l731 1944h260v-42l-731 -1944h-260z" />
    <glyph glyph-name="zero" unicode="0" horiz-adv-x="1325" 
d="M663 -31q-223 0 -364 139t-173 405v23v402v24q33 265 174 404t363 139q223 0 363 -139t173 -404q1 -10 1 -24v-402q0 -15 -1 -23q-32 -267 -172.5 -405.5t-363.5 -138.5zM663 192q123 0 202 84.5t93 246.5q1 8 1 22v385q0 13 -1 22q-14 162 -93.5 246.5t-201.5 84.5
t-202 -84.5t-94 -246.5v-22v-385v-22q14 -162 94 -246.5t202 -84.5z" />
    <glyph glyph-name="one" unicode="1" horiz-adv-x="825" 
d="M415 0v1198l-319 -274h-42v248l361 303h240v-1475h-240z" />
    <glyph glyph-name="two" unicode="2" horiz-adv-x="1181" 
d="M119 0v223l518 493q99 93 135 147t45 123v15v79q0 10 -1 15q-17 91 -79 138.5t-163 47.5q-112 0 -185 -60.5t-119 -188.5l-186 117q55 171 185.5 263t321.5 92q189 0 314.5 -94.5t152.5 -259.5v-10v-163q0 -1 0.5 -8t-0.5 -8q-9 -81 -35.5 -138t-80 -118.5t-176.5 -178.5
l-317 -303h609v-223h-939z" />
    <glyph glyph-name="three" unicode="3" horiz-adv-x="1202" 
d="M579 -31q-187 0 -311.5 85t-198.5 262l212 117q92 -242 299 -242q99 0 163 41.5t87 114.5q9 95 -1 198q-45 147 -257 147h-104l-27 28v167l337 365h-636v223h900v-223l-329 -377q294 -20 356 -273q13 -153 0 -306q-42 -154 -172.5 -240.5t-317.5 -86.5z" />
    <glyph glyph-name="four" unicode="4" horiz-adv-x="1226" 
d="M71 255v221l582 999h267v-43l-561 -956h361v261h238v-261h208v-221h-208v-255h-238v255h-649z" />
    <glyph glyph-name="five" unicode="5" horiz-adv-x="1181" 
d="M583 -31q-190 0 -316 85t-198 262l212 117q97 -241 302 -241q100 0 163 42t85 121q3 14 3 26v133q0 13 -3 25q-23 79 -80 112.5t-163 33.5h-400l-28 28l83 762h779v-223h-583l-32 -353h241q175 0 284.5 -79.5t140.5 -234.5q2 -16 2 -23v-224q0 -10 -2 -24
q-42 -165 -169.5 -255t-320.5 -90z" />
    <glyph glyph-name="six" unicode="6" horiz-adv-x="1249" 
d="M624 -31q-200 0 -338.5 114.5t-175.5 307.5q-3 53 -3 111q0 40 2 112q20 103 45 160t86 151l358 550h256v-43l-303 -446q40 24 101 24q204 0 330.5 -102.5t153.5 -281.5q6 -63 6 -128q0 -66 -6 -123q-30 -181 -172 -293.5t-340 -112.5zM624 194q223 0 271 200q5 43 5 102
q0 38 -6 108q-50 201 -270 201q-103 0 -175 -54t-94 -145q-6 -54 -6 -107q0 -54 6 -105q21 -89 95 -144.5t174 -55.5z" />
    <glyph glyph-name="seven" unicode="7" horiz-adv-x="1077" 
d="M251 0v42l511 1204h-710v229h958v-223l-503 -1252h-256z" />
    <glyph glyph-name="eight" unicode="8" horiz-adv-x="1294" 
d="M647 -31q-216 0 -355 92.5t-169 249.5q-2 7 -2 19v144q0 12 2 20q19 102 81.5 172t151.5 94q-85 44 -128.5 105t-59.5 148q-1 6 -1 20v139q0 12 1 20q33 150 157.5 231.5t321.5 81.5t321 -81.5t157 -231.5q2 -16 2 -20v-139q0 -14 -1 -20q-16 -87 -59.5 -148t-128.5 -105
q89 -24 151.5 -94t81.5 -172q2 -8 2 -20v-144q0 -12 -2 -19q-29 -157 -169 -249.5t-355 -92.5zM647 192q102 0 175 42.5t104 121.5q1 5 1 18v113q0 13 -1 19q-62 156 -279 156t-279 -156q-1 -6 -1 -19v-113q0 -13 1 -18q31 -79 103.5 -121.5t175.5 -42.5zM647 858
q92 0 153 35t83 100q1 6 1 19v132q0 9 -2 19q-24 64 -84 99t-151 35q-184 0 -235 -134q-2 -5 -2 -19v-132q0 -13 1 -19q48 -135 236 -135z" />
    <glyph glyph-name="nine" unicode="9" horiz-adv-x="1249" 
d="M625 1505q200 0 338.5 -114t175.5 -307q3 -53 3 -112q0 -39 -2 -111q-20 -103 -45 -161t-86 -151l-358 -549h-256v42l303 446q-39 -23 -101 -23q-204 0 -330.5 102.5t-153.5 281.5q-7 73 -7 128t7 122q30 181 172 293.5t340 112.5zM625 1281q-223 0 -271 -200
q-5 -43 -5 -103q0 -50 5 -108q50 -200 271 -200q103 0 175 54t94 145q6 54 6 107q0 54 -6 105q-21 89 -95 144.5t-174 55.5z" />
    <glyph glyph-name="colon" unicode=":" horiz-adv-x="546" 
d="M308 -31q-68 0 -115.5 47.5t-47.5 115.5t47.5 115.5t115.5 47.5q67 0 114.5 -47.5t47.5 -115.5t-47.5 -115.5t-114.5 -47.5zM308 811q-68 0 -115.5 47.5t-47.5 115.5t47.5 115.5t115.5 47.5q67 0 114.5 -47.5t47.5 -115.5t-47.5 -115.5t-114.5 -47.5z" />
    <glyph glyph-name="semicolon" unicode=";" horiz-adv-x="540" 
d="M158 -169v449h273v-43l-135 -406h-138zM310 811q-68 0 -115.5 47.5t-47.5 115.5t47.5 115.5t115.5 47.5q67 0 114.5 -47.5t47.5 -115.5t-47.5 -115.5t-114.5 -47.5z" />
    <glyph glyph-name="less" unicode="&#x3c;" horiz-adv-x="1046" 
d="M978 214h-35l-878 398v250l878 399h35v-219l-688 -305l688 -304v-219z" />
    <glyph glyph-name="equal" unicode="=" horiz-adv-x="1046" 
d="M67 863v209h913v-209h-913zM67 401v209h913v-209h-913z" />
    <glyph glyph-name="greater" unicode="&#x3e;" horiz-adv-x="1046" 
d="M69 214v219l688 304l-688 305v219h35l878 -399v-250l-878 -398h-35z" />
    <glyph glyph-name="question" unicode="?" horiz-adv-x="1009" 
d="M387 487l-7 337h90q91 0 150.5 42.5t69.5 124.5q1 4 1 19v118q0 13 -1 17q-15 72 -69 111.5t-141 39.5q-188 0 -269 -182l-183 112q57 134 173 206.5t289 72.5q186 0 300.5 -85.5t140.5 -239.5q1 -4 1 -17v-163q0 -6 -0.5 -11t-0.5 -6q-13 -133 -100.5 -221t-223.5 -108
l-30 -167h-190zM482 -31q-67 0 -114.5 47.5t-47.5 115.5t47.5 115.5t114.5 47.5q68 0 115.5 -47.5t47.5 -115.5t-47.5 -115.5t-115.5 -47.5z" />
    <glyph glyph-name="at" unicode="@" horiz-adv-x="1880" 
d="M911 -332q-327 0 -553 195t-274 523v22v368v19q45 328 278 519t578 191q348 0 573 -181t275 -505v-18v-306v-20q-19 -161 -109.5 -249.5t-233.5 -88.5q-87 0 -156.5 37.5t-109.5 106.5q-115 -144 -311 -144q-152 0 -257 94.5t-123 246.5q-1 6 -1 14v184q0 9 1 13
q17 150 123 245.5t255 95.5q172 0 267 -125l11 99h214v-587q14 -81 88 -81q92 0 110 143q1 0 0 9v8v267q0 3 0.5 10.5t-0.5 7.5q-25 234 -191.5 371.5t-424.5 137.5q-257 0 -423 -142t-200 -393v-19v-289v-19q36 -252 195.5 -398.5t396.5 -146.5q146 0 235.5 29t186.5 97
l109 -188q-100 -82 -226.5 -117.5t-302.5 -35.5zM915 336q85 0 142.5 48.5t69.5 130.5v12v114v12q-12 82 -69.5 130t-142.5 48t-143 -50.5t-70 -136.5v-14v-89q7 -93 65.5 -149t147.5 -56z" />
    <glyph glyph-name="A" unicode="A" horiz-adv-x="1435" 
d="M26 0v42l531 1433h318l534 -1433v-42h-261l-120 336h-621l-120 -336h-261zM487 563h459l-215 601h-30z" />
    <glyph glyph-name="B" unicode="B" horiz-adv-x="1370" 
d="M168 0v1475h594q172 0 281.5 -72.5t138.5 -210.5q2 -12 2 -17v-159q0 -7 -2 -17q-11 -71 -40.5 -114.5t-89.5 -78.5q180 -59 219 -245q2 -16 2 -25v-206q0 -14 -1 -20q-30 -145 -151 -227.5t-305 -82.5h-648zM780 221q104 0 161 34t75 106q2 8 2 23v129q0 15 -2 22
q-18 72 -75 106t-161 34h-357v-454h357zM423 880h310q89 0 135.5 29.5t66.5 93.5q3 9 3 20v87q0 12 -3 21q-20 63 -68 92.5t-138 29.5h-306v-373z" />
    <glyph glyph-name="C" unicode="C" horiz-adv-x="1421" 
d="M789 -31q-259 0 -436.5 140t-235.5 388q-10 38 -10 72v336q0 34 10 69q58 249 237.5 390t441.5 141q189 0 325 -60t245 -193l-173 -161q-85 102 -172.5 143.5t-214.5 41.5q-167 0 -280 -81.5t-156 -228.5q-8 -29 -8 -58v-342q0 -28 8 -55q44 -146 154.5 -229.5
t264.5 -83.5q130 0 224 44t176 146l173 -162q-111 -135 -247 -196t-326 -61z" />
    <glyph glyph-name="D" unicode="D" horiz-adv-x="1433" 
d="M168 0v1475h505q273 0 439.5 -127t212.5 -364q1 -8 1 -23v-437q0 -15 -1 -22q-46 -242 -213 -372t-439 -130h-505zM677 228q178 0 273.5 77t118.5 234q1 8 1 25v348q0 17 -1 25q-23 156 -119 232.5t-273 76.5h-254v-1018h254z" />
    <glyph glyph-name="E" unicode="E" horiz-adv-x="1204" 
d="M168 0v1475h951v-229h-696v-376h511v-228h-511v-414h696v-228h-951z" />
    <glyph glyph-name="F" unicode="F" horiz-adv-x="1144" 
d="M168 0v1475h910v-229h-655v-424h553v-229h-553v-593h-255z" />
    <glyph glyph-name="G" unicode="G" horiz-adv-x="1505" 
d="M789 -31q-268 0 -453 158t-228 420q-1 11 -1 22v336q0 12 1 23q43 264 229 420.5t458 156.5q189 0 321.5 -60.5t245.5 -195.5l-169 -164q-80 100 -169.5 145.5t-223.5 45.5q-169 0 -285.5 -93.5t-150.5 -257.5q-2 -24 -2 -26v-324q0 -2 2 -26q36 -162 150 -256.5
t275 -94.5q216 0 351 145v269h-394v223h644v-557q-100 -151 -253.5 -230t-347.5 -79z" />
    <glyph glyph-name="H" unicode="H" horiz-adv-x="1544" 
d="M168 0v1475h255v-624h697v624h256v-1475h-256v623h-697v-623h-255z" />
    <glyph glyph-name="I" unicode="I" horiz-adv-x="591" 
d="M168 0v1475h255v-1475h-255z" />
    <glyph glyph-name="J" unicode="J" horiz-adv-x="1124" 
d="M506 -31q-301 0 -474 236l174 170q63 -89 130.5 -128.5t149.5 -39.5q90 0 146.5 40.5t72.5 117.5q5 21 5 43v1067h255v-1026q0 -227 -121.5 -353.5t-337.5 -126.5z" />
    <glyph glyph-name="K" unicode="K" horiz-adv-x="1263" 
d="M168 0v1475h255v-627h90l439 627h275v-43l-508 -695l508 -693v-44h-275l-439 626h-90v-626h-255z" />
    <glyph glyph-name="L" unicode="L" horiz-adv-x="1120" 
d="M168 0v1475h255v-1247h650v-228h-905z" />
    <glyph glyph-name="M" unicode="M" horiz-adv-x="1753" 
d="M168 0v1475h276l418 -703h30l418 703h276v-1475h-253v1018h-29l-332 -572h-190l-332 571h-29v-1017h-253z" />
    <glyph glyph-name="N" unicode="N" horiz-adv-x="1558" 
d="M168 0v1475h267l676 -1005h29v1005h250v-1475h-267l-676 1004h-29v-1004h-250z" />
    <glyph glyph-name="O" unicode="O" horiz-adv-x="1591" 
d="M796 -31q-274 0 -460.5 154.5t-227.5 426.5q-1 7 -1 22v331q0 15 1 22q41 272 227.5 426t460.5 154t460.5 -154t227.5 -426q1 -7 1 -22v-331q0 -15 -1 -22q-41 -272 -227.5 -426.5t-460.5 -154.5zM796 198q170 0 287 96t145 266q2 16 2 23v310q0 8 -2 22
q-28 170 -145 265.5t-287 95.5q-171 0 -287.5 -95.5t-144.5 -265.5q-2 -14 -2 -22v-310q0 -7 2 -23q28 -170 144.5 -266t287.5 -96z" />
    <glyph glyph-name="P" unicode="P" horiz-adv-x="1288" 
d="M168 0v1475h578q175 0 291.5 -66t161.5 -195q13 -26 13 -65v-290q0 -38 -13 -65q-46 -127 -163 -195t-290 -68h-323v-531h-255zM730 759q172 0 224 129q11 22 11 52v126q0 30 -11 52q-51 128 -224 128h-307v-487h307z" />
    <glyph glyph-name="Q" unicode="Q" horiz-adv-x="1591" 
d="M986 -451q-149 0 -232 83.5t-83 235.5v110q-226 34 -377 183.5t-186 388.5q-1 7 -1 22v331q0 15 1 22q41 272 227.5 426t460.5 154t460.5 -154t227.5 -426q1 -7 1 -22v-331q0 -15 -1 -22q-36 -240 -187 -389.5t-378 -182.5v-103q0 -49 26.5 -76.5t75.5 -27.5h213v-222
h-248zM796 198q170 0 287 96t145 266q2 16 2 23v310q0 8 -2 22q-28 170 -145 265.5t-287 95.5q-171 0 -287.5 -95.5t-144.5 -265.5q-2 -14 -2 -22v-310q0 -7 2 -23q28 -170 144.5 -266t287.5 -96z" />
    <glyph glyph-name="R" unicode="R" horiz-adv-x="1341" 
d="M168 0v1475h596q201 0 321 -81.5t140 -223.5q2 -7 2 -24v-263q0 -13 -3 -25q-17 -87 -84 -157t-172 -109l280 -550v-42h-257l-271 541h-297v-541h-255zM765 770q91 0 143 35.5t70 108.5q2 7 2 24v139q0 17 -2 25q-37 144 -213 144h-342v-476h342z" />
    <glyph glyph-name="S" unicode="S" horiz-adv-x="1263" 
d="M641 -31q-384 0 -571 294l183 166q87 -121 175.5 -176t204.5 -55q102 0 172.5 37t99.5 106q6 15 6 34v69q0 18 -6 32q-17 46 -68.5 79t-147.5 58l-187 50q-158 43 -244.5 123.5t-116.5 200.5q-4 11 -4 27v136q0 13 5 31q34 141 175.5 232.5t330.5 91.5q169 0 293 -60
t221 -189l-180 -159q-71 99 -147.5 139t-187.5 40q-91 0 -156.5 -37.5t-93.5 -104.5q-2 -5 -2 -21v-59q0 -8 2 -18q19 -54 68 -89.5t137 -59.5l201 -56q151 -42 245 -113t113 -169q3 -13 3 -27v-211q0 -14 -6 -32q-41 -138 -179 -224t-338 -86z" />
    <glyph glyph-name="T" unicode="T" horiz-adv-x="1191" 
d="M468 0v1246h-424v229h1103v-229h-424v-1246h-255z" />
    <glyph glyph-name="U" unicode="U" horiz-adv-x="1478" 
d="M739 -31q-256 0 -416.5 144.5t-160.5 380.5v981h255v-1008q0 -12 5 -39q24 -107 107 -168.5t210 -61.5t210.5 62t107.5 168q4 16 4 39v1008h256v-981q0 -237 -159 -381t-419 -144z" />
    <glyph glyph-name="V" unicode="V" horiz-adv-x="1443" 
d="M561 0l-535 1432v43h271l411 -1166h29l412 1166h269v-43l-537 -1432h-320z" />
    <glyph glyph-name="W" unicode="W" horiz-adv-x="2007" 
d="M385 0l-322 1432v43h270l216 -1079h35l264 1079h312l263 -1079h36l216 1079h269v-43l-321 -1432h-319l-283 1078h-35l-283 -1078h-318z" />
    <glyph glyph-name="X" unicode="X" horiz-adv-x="1376" 
d="M40 0v46l475 717l-461 666v46h278l341 -516h29l342 516h278v-46l-458 -666l471 -717v-46h-280l-353 557h-29l-352 -557h-281z" />
    <glyph glyph-name="Y" unicode="Y" horiz-adv-x="1304" 
d="M524 0v548l-500 884v43h269l344 -640h30l345 640h269v-43l-501 -884v-548h-256z" />
    <glyph glyph-name="Z" unicode="Z" horiz-adv-x="1206" 
d="M83 0v227l707 990v29h-680v229h992v-229l-707 -988v-30h722v-228h-1034z" />
    <glyph glyph-name="bracketleft" unicode="[" horiz-adv-x="696" 
d="M144 -246v1966h497v-230h-259v-1505h259v-231h-497z" />
    <glyph glyph-name="backslash" unicode="\" horiz-adv-x="1038" 
d="M1015 -389h-260l-731 1944v42h260l731 -1944v-42z" />
    <glyph glyph-name="bracketright" unicode="]" horiz-adv-x="696" 
d="M553 -246h-497v231h258v1505h-258v230h497v-1966z" />
    <glyph glyph-name="asciicircum" unicode="^" horiz-adv-x="1046" 
d="M66 885v35l332 555h250l334 -555v-35h-222l-237 409l-237 -409h-220z" />
    <glyph glyph-name="underscore" unicode="_" horiz-adv-x="899" 
d="M-4 -198v198h907v-198h-907z" />
    <glyph glyph-name="grave" unicode="`" horiz-adv-x="657" 
d="M367 1241l-256 279v43h286l150 -279v-43h-180z" />
    <glyph glyph-name="a" unicode="a" horiz-adv-x="1157" 
d="M460 -31q-143 0 -243.5 72t-121.5 192v191q32 122 138.5 190t266.5 68q147 0 274 -73v98q0 93 -40.5 135t-133.5 42h-409v222h429q214 0 303.5 -96t89.5 -302v-708h-187l-49 144q-118 -175 -317 -175zM516 179q83 0 142 25.5t116 88.5v108q-52 45 -110 66t-141 21
q-80 0 -132 -30t-66 -86v-78q12 -53 64.5 -84t126.5 -31z" />
    <glyph glyph-name="b" unicode="b" 
d="M753 -31q-240 0 -362 168l-54 -137h-185v1597h239v-610q60 72 149 111t195 39q192 0 314.5 -99.5t164.5 -277.5q10 -112 10 -207q0 -97 -10 -209q-42 -179 -162 -277t-299 -98zM682 185q239 0 297 234q7 62 7 134q0 75 -7 134q-29 111 -105.5 172.5t-191.5 61.5
q-103 0 -178.5 -56t-112.5 -159v-311q37 -109 108 -159.5t183 -50.5z" />
    <glyph glyph-name="c" unicode="c" horiz-adv-x="1155" 
d="M638 -31q-207 0 -353 117t-189 317q-2 49 -2 150q0 102 2 150q46 201 191.5 317.5t350.5 116.5q298 0 461 -222l-171 -152q-52 82 -124 120t-176 38q-109 0 -189.5 -63t-104.5 -167q-2 -84 -2 -138t2 -138q25 -100 108.5 -165t185.5 -65q95 0 163 35t135 120l163 -159
q-84 -109 -194 -160.5t-257 -51.5z" />
    <glyph glyph-name="d" unicode="d" 
d="M564 -31q-179 0 -299 98t-162 277q-9 86 -9 209q0 121 9 207q42 178 164.5 277.5t314.5 99.5q106 0 195 -39t149 -111v610h239v-1597h-185l-54 137q-122 -168 -362 -168zM634 185q111 0 183 50.5t109 159.5v311q-37 103 -113 159t-179 56q-115 0 -192.5 -61.5
t-106.5 -172.5q-6 -50 -6 -134q0 -81 6 -134q28 -115 104.5 -174.5t194.5 -59.5z" />
    <glyph glyph-name="e" unicode="e" horiz-adv-x="1228" 
d="M639 -31q-217 0 -355 111.5t-188 315.5q-2 10 -2 30v253q0 20 2 29q50 197 189.5 313t340.5 116q211 0 342.5 -109.5t170.5 -307.5q2 -10 2 -29v-183l-27 -28h-788q18 -140 99 -217.5t214 -77.5q98 0 167.5 35t134.5 115l162 -148q-163 -218 -464 -218zM332 668h580
q-14 118 -90.5 189t-192.5 71q-119 0 -196 -70t-101 -190z" />
    <glyph glyph-name="f" unicode="f" horiz-adv-x="794" 
d="M241 0v886h-197v220h197v162q0 160 94.5 244.5t257.5 84.5h162v-221h-142q-65 0 -99 -37.5t-34 -104.5v-128h275v-220h-275v-886h-239z" />
    <glyph glyph-name="g" unicode="g" 
d="M246 -451v222h500q96 0 138.5 36.5t42.5 126.5v195q-59 -71 -148.5 -109t-196.5 -38q-197 0 -323.5 105.5t-163.5 301.5q-5 188 4 359q41 183 167.5 286.5t312.5 103.5q230 0 349 -167l52 135h185v-1169q0 -201 -94.5 -294.5t-289.5 -93.5h-535zM635 185q101 0 178 61
t114 166v299q-72 210 -292 210q-239 0 -297 -234q-12 -114 -4 -236q27 -123 105.5 -194.5t195.5 -71.5z" />
    <glyph glyph-name="h" unicode="h" horiz-adv-x="1277" 
d="M152 0v1597h237v-635q46 80 131.5 127.5t199.5 47.5q194 0 303.5 -111.5t109.5 -309.5v-716h-238v686q-12 107 -74.5 168t-169.5 61q-95 0 -164 -54t-96 -148v-713h-239z" />
    <glyph glyph-name="i" unicode="i" horiz-adv-x="542" 
d="M152 0v1106h239v-1106h-239zM271 1278q-67 0 -114.5 47.5t-47.5 115.5t47.5 115.5t114.5 47.5t115 -48t48 -115t-48 -115t-115 -48z" />
    <glyph glyph-name="j" unicode="j" horiz-adv-x="542" 
d="M-88 -451v222h107q65 0 99 37.5t34 104.5v1193h239v-1227q0 -160 -94.5 -245t-257.5 -85h-127zM271 1278q-67 0 -114.5 47.5t-47.5 115.5t47.5 115.5t114.5 47.5t115 -48t48 -115t-48 -115t-115 -48z" />
    <glyph glyph-name="k" unicode="k" horiz-adv-x="1103" 
d="M152 0v1597h239v-933h87l330 442h257v-43l-388 -509l388 -512v-42h-261l-326 442h-87v-442h-239z" />
    <glyph glyph-name="l" unicode="l" horiz-adv-x="653" 
d="M506 0q-174 0 -267.5 83.5t-93.5 245.5v1268h238v-1236q0 -139 125 -139h104v-222h-106z" />
    <glyph glyph-name="m" unicode="m" horiz-adv-x="1884" 
d="M152 0v1106h185l52 -143q49 82 133 128t186 46q103 0 183.5 -51t126.5 -146q119 197 344 197q176 0 277 -114t101 -312v-711h-238v697q-10 105 -64.5 161.5t-146.5 56.5q-169 0 -226 -195v-720h-238v697q-20 218 -211 218q-168 0 -225 -195v-720h-239z" />
    <glyph glyph-name="n" unicode="n" horiz-adv-x="1277" 
d="M152 0v1106h185l52 -144q49 79 135 127t197 48q192 0 302 -117.5t110 -317.5v-702h-238v686q-12 107 -73.5 168t-168.5 61q-95 0 -165 -54t-97 -148v-713h-239z" />
    <glyph glyph-name="o" unicode="o" horiz-adv-x="1280" 
d="M639 -31q-128 0 -241 49t-194.5 145t-107.5 224q-2 10 -2 33v266q0 23 2 33q26 128 107.5 224t194.5 145t241 49q197 0 351 -113.5t193 -304.5q3 -15 3 -33v-266q0 -18 -3 -33q-39 -191 -193 -304.5t-351 -113.5zM639 185q111 0 197.5 60t108.5 167q2 9 2 30v222
q0 21 -2 30q-22 107 -108.5 167t-197.5 60q-110 0 -196.5 -60t-108.5 -167q-2 -9 -2 -30v-222q0 -21 2 -30q22 -107 108.5 -167t196.5 -60z" />
    <glyph glyph-name="p" unicode="p" 
d="M152 -451v1557h185l54 -137q123 169 362 169q179 0 299 -98.5t162 -277.5q20 -209 0 -416q-42 -178 -164.5 -277.5t-314.5 -99.5q-106 0 -195 39t-149 111v-570h-239zM684 185q115 0 192 61.5t106 172.5q14 134 0 268q-58 234 -298 234q-112 0 -184 -50.5t-109 -159.5
v-311q37 -103 113.5 -159t179.5 -56z" />
    <glyph glyph-name="q" unicode="q" 
d="M927 119q-60 -72 -149 -111t-196 -39q-199 0 -324.5 107.5t-162.5 300.5q-5 195 4 371q41 185 162.5 287.5t302.5 102.5q240 0 363 -169l53 137h185v-1557h-238v570zM634 185q103 0 179.5 56t113.5 159v311q-37 109 -109 159.5t-184 50.5q-116 0 -192.5 -58.5
t-106.5 -175.5q-11 -113 -3 -248q25 -121 104 -187.5t198 -66.5z" />
    <glyph glyph-name="r" unicode="r" horiz-adv-x="825" 
d="M152 0v1106h185l52 -141q69 141 222 141h126v-228h-151q-178 0 -195 -188v-690h-239z" />
    <glyph glyph-name="s" unicode="s" horiz-adv-x="1021" 
d="M502 -31q-137 0 -251.5 59t-182.5 166l169 147q35 -76 112 -123.5t155 -47.5q72 0 123.5 28.5t66.5 75.5q1 5 1 15v49q0 8 -1 11q-12 37 -45 60t-100 40l-181 46q-221 58 -258 236q-2 12 -2 18v113q0 6 2 16q30 112 145 185.5t265 73.5q261 0 410 -199l-159 -137
q-46 69 -107.5 101.5t-148.5 32.5q-64 0 -112 -25.5t-61 -68.5q-1 -4 -1 -11v-30q0 -6 1 -9q12 -40 46.5 -64.5t99.5 -39.5l153 -36q122 -28 189 -82t96 -144q4 -14 4 -24v-145q0 -16 -4 -27q-37 -121 -147.5 -190.5t-276.5 -69.5z" />
    <glyph glyph-name="t" unicode="t" horiz-adv-x="796" 
d="M588 0q-163 0 -257 84.5t-94 244.5v557h-169v220h169v73l117 214h121v-287h253v-220h-253v-522q0 -67 34 -104.5t99 -37.5h107v-222h-127z" />
    <glyph glyph-name="u" unicode="u" horiz-adv-x="1265" 
d="M551 -31q-192 0 -299.5 111.5t-107.5 309.5v716h238v-686q11 -106 73 -167.5t165 -61.5q94 0 160.5 53.5t93.5 148.5v713h239v-1106h-185l-52 144q-46 -81 -129 -128t-196 -47z" />
    <glyph glyph-name="v" unicode="v" horiz-adv-x="1179" 
d="M443 0l-407 1063v43h245l294 -843h30l299 843h240v-43l-408 -1063h-293z" />
    <glyph glyph-name="w" unicode="w" horiz-adv-x="1724" 
d="M357 0l-307 1063v43h237l191 -758h29l237 758h236l238 -758h29l191 758h237v-43l-307 -1063h-258l-233 748h-29l-233 -748h-258z" />
    <glyph glyph-name="x" unicode="x" horiz-adv-x="1155" 
d="M46 0v46l348 527l-338 487v46h272l232 -370h34l232 370h272v-46l-338 -487l348 -527v-46h-271l-243 400h-34l-243 -400h-271z" />
    <glyph glyph-name="y" unicode="y" horiz-adv-x="1191" 
d="M160 -451v222h144q161 0 161 125q0 39 -37 136l-396 1031v43h247l304 -840h29l280 840h243v-43l-461 -1262q-35 -96 -80 -149.5t-115.5 -78t-182.5 -24.5h-136z" />
    <glyph glyph-name="z" unicode="z" horiz-adv-x="1024" 
d="M83 0v214l523 641v29h-502v222h809v-214l-522 -641v-29h543v-222h-851z" />
    <glyph glyph-name="braceleft" unicode="{" horiz-adv-x="872" 
d="M565 -246q-120 0 -182 62t-62 182v504q0 56 -32.5 88t-87.5 32h-142v230h142q55 0 87.5 32.5t32.5 88.5v503q0 120 62 182t182 62h253v-230h-258v-548q0 -80 -41 -135t-108 -70q67 -15 108 -70t41 -135v-547h258v-231h-253z" />
    <glyph glyph-name="bar" unicode="|" horiz-adv-x="524" 
d="M143 -389v1986h239v-1986h-239z" />
    <glyph glyph-name="braceright" unicode="}" horiz-adv-x="872" 
d="M307 -246h-253v231h258v547q0 80 41 135t108 70q-67 15 -108 70t-41 135v548h-258v230h253q120 0 182 -62t62 -182v-503q0 -56 32.5 -88.5t87.5 -32.5h142v-230h-142q-55 0 -87.5 -32t-32.5 -88v-504q0 -120 -62 -182t-182 -62z" />
    <glyph glyph-name="asciitilde" unicode="~" horiz-adv-x="1046" 
d="M755 547q-84 0 -166 49l-155 85q-62 39 -97 39q-34 0 -54 -25.5t-20 -67.5v-63h-195v99q0 116 62 182.5t165 66.5q85 0 166 -49l155 -84q62 -39 97 -39q33 0 53.5 25.5t20.5 66.5v65h195v-100q0 -115 -62.5 -182.5t-164.5 -67.5z" />
    <glyph glyph-name="uni00A0" unicode="&#xa0;" horiz-adv-x="497" 
 />
    <glyph glyph-name="exclamdown" unicode="&#xa1;" horiz-adv-x="503" 
d="M129 -451v642l50 408h146l51 -408v-642h-247zM252 792q-68 0 -115 47t-47 115t47.5 115.5t114.5 47.5q68 0 115.5 -47.5t47.5 -115.5q0 -67 -47.5 -114.5t-115.5 -47.5z" />
    <glyph glyph-name="cent" unicode="&#xa2;" horiz-adv-x="1173" 
d="M520 0v169q-155 35 -261 145t-141 273q-2 49 -2 150q0 102 2 150q37 163 143 272.5t259 145.5v170h203v-157q253 -19 398 -218l-170 -153q-52 82 -124 120t-176 38q-110 0 -190.5 -63t-104.5 -167q-2 -84 -2 -138q0 -53 2 -137q25 -100 109 -165t186 -65q95 0 163 35
t135 120l163 -160q-144 -190 -389 -209v-156h-203z" />
    <glyph glyph-name="sterling" unicode="&#xa3;" horiz-adv-x="1232" 
d="M81 0v228h179v358h-156v229h156v318q0 14 3 26q34 167 159 257t301 90q163 0 272 -65t179 -218l-211 -133q-35 98 -97 145.5t-142 47.5q-81 0 -136.5 -45.5t-69.5 -120.5q-2 -7 -2 -22v-280h328v-229h-328v-358h619v-228h-1054z" />
    <glyph glyph-name="currency" unicode="&#xa4;" horiz-adv-x="1421" 
d="M711 167q-162 0 -288 72l-203 -203l-144 143l196 196q-70 97 -95 224q-3 15 -3 33v210q0 19 3 34q25 127 95 224l-196 195l144 144l203 -204q127 73 288 73q160 0 287 -73l203 204l144 -144l-196 -195q70 -94 95 -224q3 -15 3 -34v-210q0 -18 -3 -33q-25 -130 -95 -224
l196 -195l-144 -144l-203 203q-126 -72 -287 -72zM711 382q110 0 192 64.5t103 173.5q3 14 3 30v173q0 19 -3 32q-21 109 -103 173.5t-192 64.5q-111 0 -193.5 -64.5t-102.5 -173.5q-3 -9 -3 -32v-173q0 -21 3 -30q20 -109 102.5 -173.5t193.5 -64.5z" />
    <glyph glyph-name="yen" unicode="&#xa5;" horiz-adv-x="1318" 
d="M204 546v206h226l-385 680v43h269l344 -640h30l345 640h269v-43l-385 -680h225v-206h-341v-163h341v-205h-341v-178h-256v178h-341v205h341v163h-341z" />
    <glyph glyph-name="brokenbar" unicode="&#xa6;" horiz-adv-x="524" 
d="M143 766v831h239v-831h-239zM143 -389v831h239v-831h-239z" />
    <glyph glyph-name="section" unicode="&#xa7;" horiz-adv-x="1230" 
d="M608 -398q-322 0 -506 257l177 157q65 -100 143.5 -143t186.5 -43q201 0 251 137q2 8 2 11v52q0 2 -2 10q-17 48 -67 79t-136 54l-197 53q-183 49 -267 116t-100 179q0 1 -0.5 3.5t-0.5 5v2.5v213v3q0 4 0.5 7t0.5 5q18 72 71 127q-39 56 -51 134q-1 5 -1 16v128
q0 9 1 14q28 144 169 235t341 91q162 0 286 -63t219 -195l-176 -156q-65 100 -143.5 142.5t-186.5 42.5q-202 0 -251 -136q-2 -8 -2 -12v-51q0 -5 2 -11q17 -48 67 -79t136 -54l197 -53q183 -49 267 -116t100 -179q0 -1 0.5 -3.5t0.5 -5v-2.5v-213q0 -9 -1 -14
q-18 -74 -71 -128q39 -56 51 -134q1 -5 1 -15v-128q0 -10 -1 -15q-28 -144 -169 -234.5t-341 -90.5zM345 601q0 -1 -0.5 -5t0.5 -5q12 -51 67.5 -85.5t162.5 -61.5l181 -47q58 -15 116 -38q10 16 14 33q1 2 0 6v3v105v4q1 5 0 6q-11 51 -66.5 84.5t-163.5 61.5l-181 48
q-68 17 -117 37q-8 -13 -13 -32v-10v-104z" />
    <glyph glyph-name="dieresis" unicode="&#xa8;" horiz-adv-x="894" 
d="M242 1255q-60 0 -103.5 43.5t-43.5 103.5t43.5 103t103.5 43t103 -43t43 -103t-43 -103.5t-103 -43.5zM652 1255q-60 0 -103 43.5t-43 103.5t43 103t103 43t103.5 -43t43.5 -103t-43.5 -103.5t-103.5 -43.5z" />
    <glyph glyph-name="copyright" unicode="&#xa9;" horiz-adv-x="1677" 
d="M839 -25q-330 0 -533.5 209t-203.5 553q0 170 55 313t152.5 241.5t234 153t295.5 54.5q214 0 381.5 -95t261.5 -269t94 -398t-94 -398t-262 -269t-381 -95zM848 336q-149 0 -250 86.5t-124 232.5v82v83q25 147 126.5 233t247.5 86q206 0 317 -151l-122 -108
q-69 106 -202 106q-79 0 -131.5 -48.5t-63.5 -127.5v-73v-73q12 -77 66.5 -126.5t128.5 -49.5q66 0 111 24.5t91 81.5l115 -113q-57 -76 -131.5 -110.5t-178.5 -34.5zM839 114q170 0 303 76t208 218.5t75 328.5q0 282 -163.5 453t-422.5 171q-171 0 -304 -76.5t-208 -219
t-75 -328.5q0 -140 43.5 -257t121 -197t186 -124.5t236.5 -44.5z" />
    <glyph glyph-name="ordfeminine" unicode="&#xaa;" horiz-adv-x="825" 
d="M314 717q-87 0 -154.5 53.5t-81.5 130.5v121q17 83 84.5 131t168.5 48q123 0 199 -44v52q0 105 -122 105h-270v161h290q149 0 216.5 -63t67.5 -196v-485h-154l-28 84q-79 -98 -216 -98zM381 869q88 0 149 69v62q-60 55 -146 55q-104 0 -125 -72v-44q10 -31 41 -50.5
t81 -19.5z" />
    <glyph glyph-name="guillemotleft" unicode="&#xab;" horiz-adv-x="1015" 
d="M712 197l-254 416v76l254 417h213v-43l-250 -412l250 -412v-42h-213zM342 197l-254 416v76l254 417h212v-43l-249 -412l249 -412v-42h-212z" />
    <glyph glyph-name="logicalnot" unicode="&#xac;" horiz-adv-x="1046" 
d="M62 633v209h913v-561h-216v352h-697z" />
    <glyph glyph-name="uni00AD" unicode="&#xad;" horiz-adv-x="833" 
d="M96 510v208h641v-208h-641z" />
    <glyph glyph-name="registered" unicode="&#xae;" horiz-adv-x="1677" 
d="M839 -25q-330 0 -533.5 209t-203.5 553q0 170 55 313t152.5 241.5t234 153t295.5 54.5q214 0 381.5 -95t261.5 -269t94 -398t-94 -398t-262 -269t-381 -95zM839 114q170 0 303 76t208 218.5t75 328.5q0 282 -163.5 453t-422.5 171q-171 0 -304 -76.5t-208 -219
t-75 -328.5q0 -140 43.5 -257t121 -197t186 -124.5t236.5 -44.5zM585 348v778h315q103 0 166.5 -44.5t80.5 -125.5v-156q-25 -110 -131 -151l143 -278v-23h-152l-142 281h-135v-281h-145zM892 757q100 0 116 87v67q-15 86 -116 86h-162v-240h162z" />
    <glyph glyph-name="macron" unicode="&#xaf;" horiz-adv-x="958" 
d="M178 1309v186h601v-186h-601z" />
    <glyph glyph-name="degree" unicode="&#xb0;" horiz-adv-x="935" 
d="M467 864q-163 0 -269.5 102.5t-106.5 261.5t106 261.5t270 102.5t270.5 -102.5t106.5 -261.5t-106.5 -261.5t-270.5 -102.5zM470 1027q89 0 143 55t54 146q0 92 -55 151t-142 59q-89 0 -144.5 -58t-55.5 -152q0 -92 54 -146.5t146 -54.5z" />
    <glyph glyph-name="plusminus" unicode="&#xb1;" horiz-adv-x="1046" 
d="M67 0v209h913v-209h-913zM416 435v351h-349v209h349v352h215v-352h349v-209h-349v-351h-215z" />
    <glyph glyph-name="two.sups" unicode="&#xb2;" horiz-adv-x="647" 
d="M59 737v147l266 216q74 62 85 109q3 7 3 16v38q0 7 -3 13q-24 62 -107 62q-86 0 -135 -99l-135 85q37 81 109 126t174 45q110 0 173.5 -45.5t85.5 -121.5q3 -9 3 -21v-90q0 -10 -1 -15q-10 -91 -123 -185l-144 -123h277v-157h-528z" />
    <glyph glyph-name="three.sups" unicode="&#xb3;" horiz-adv-x="653" 
d="M318 717q-108 0 -178 42t-115 133l141 90q28 -54 63 -81t85 -27q38 0 65.5 18t37.5 49q3 7 3 15v42q0 10 -3 16q-9 28 -38.5 45.5t-74.5 17.5h-52l-13 13v85l139 142h-303v158h495v-149l-138 -147q64 -11 107 -48.5t56 -93.5q1 -5 1 -14v-110q0 -11 -1 -16
q-27 -81 -98 -130.5t-179 -49.5z" />
    <glyph glyph-name="acute" unicode="&#xb4;" horiz-adv-x="657" 
d="M111 1241v43l150 279h286v-43l-255 -279h-181z" />
    <glyph glyph-name="uni00B5" unicode="&#xb5;" horiz-adv-x="1335" 
d="M134 -451v1557h239v-670q0 -27 4 -43q15 -98 78.5 -150t154.5 -52q93 0 159.5 52.5t94.5 149.5v713h239v-764q0 -63 30 -91.5t88 -28.5h45v-222h-65q-237 0 -308 172q-37 -89 -109 -140.5t-164 -51.5q-156 0 -247 93v-524h-239z" />
    <glyph glyph-name="paragraph" unicode="&#xb6;" horiz-adv-x="1372" 
d="M616 -369v974h-164q-177 0 -283.5 76.5t-133.5 222.5q-1 4 -1 13v248q0 9 1 13q28 145 134 221t281 76h777v-1844h-209v1652h-193v-1652h-209z" />
    <glyph glyph-name="periodcentered" unicode="&#xb7;" horiz-adv-x="512" 
d="M290 574q-68 0 -115.5 48t-47.5 115t47.5 115t115.5 48q67 0 114.5 -47.5t47.5 -115.5t-47.5 -115.5t-114.5 -47.5z" />
    <glyph glyph-name="cedilla" unicode="&#xb8;" horiz-adv-x="632" 
d="M131 -444v182h56q75 0 113 34t38 92q0 46 -22.5 82t-63.5 54h214q66 -58 66 -174q0 -122 -83.5 -196t-218.5 -74h-99z" />
    <glyph glyph-name="one.sups" unicode="&#xb9;" horiz-adv-x="497" 
d="M237 737v538l-169 -137h-28v181l197 156h178v-738h-178z" />
    <glyph glyph-name="ordmasculine" unicode="&#xba;" horiz-adv-x="899" 
d="M450 717q-138 0 -241 75.5t-130 203.5q-2 14 -2 22v170q0 8 2 22q26 129 129 204t242 75q138 0 240.5 -75t129.5 -204q2 -14 2 -22v-170q0 -8 -2 -22q-27 -128 -129.5 -203.5t-240.5 -75.5zM450 893q68 0 117.5 37t60.5 100q2 6 2 18v110q0 14 -2 19q-11 62 -60.5 100
t-117.5 38t-117.5 -37.5t-62.5 -100.5q-2 -10 -2 -19v-110q0 -6 2 -18q13 -64 62 -100.5t118 -36.5z" />
    <glyph glyph-name="guillemotright" unicode="&#xbb;" horiz-adv-x="1015" 
d="M675 197h-213v42l250 412l-250 412v43h213l253 -417v-76zM304 197h-213v42l249 412l-249 412v43h213l253 -417v-76z" />
    <glyph glyph-name="onequarter" unicode="&#xbc;" horiz-adv-x="1476" 
d="M215 0v35l827 1440h215v-36l-828 -1439h-214zM854 123v157l242 457h173v-27l-226 -430h144v110h172v-110h86v-157h-86v-123h-172v123h-333zM230 737v538l-169 -137h-28v181l197 156h179v-738h-179z" />
    <glyph glyph-name="onehalf" unicode="&#xbd;" horiz-adv-x="1548" 
d="M215 0v35l827 1440h215v-36l-828 -1439h-214zM962 0v147l266 216q74 62 85 109q3 8 3 15v39q0 7 -3 13q-24 62 -107 62q-85 0 -134 -100l-136 85q37 81 109.5 126.5t173.5 45.5q110 0 173.5 -45.5t85.5 -121.5q3 -9 3 -22v-90q0 -9 -1 -14q-10 -91 -123 -185l-144 -123
h277v-157h-528zM230 737v538l-169 -137h-28v181l197 156h179v-738h-179z" />
    <glyph glyph-name="threequarters" unicode="&#xbe;" horiz-adv-x="1607" 
d="M328 0v35l828 1440h215v-36l-828 -1439h-215zM967 123v157l242 457h173v-27l-225 -430h143v110h173v-110h86v-157h-86v-123h-173v123h-333zM357 717q-108 0 -178 42t-115 133l141 90q28 -54 63 -81t85 -27q38 0 65.5 18t37.5 49q3 7 3 15v42q0 10 -3 16q-9 28 -38.5 45.5
t-74.5 17.5h-52l-13 13v85l139 142h-303v158h495v-149l-138 -147q64 -11 107 -48.5t56 -93.5q1 -5 1 -14v-110q0 -11 -1 -16q-27 -81 -98 -130.5t-179 -49.5z" />
    <glyph glyph-name="questiondown" unicode="&#xbf;" horiz-adv-x="985" 
d="M502 -465q-186 0 -300.5 85t-140.5 240q-2 6 -2 17v163q0 7 1 12v5q13 132 100.5 220.5t223.5 108.5l31 213h189l8 -383h-90q-91 0 -150.5 -42.5t-69.5 -124.5q-1 -4 -1 -19v-118q0 -13 1 -17q15 -73 69 -112.5t140 -39.5q190 0 270 183l183 -112q-57 -133 -173 -206
t-289 -73zM507 812q-68 0 -115.5 47.5t-47.5 114.5q0 68 48 115.5t115 47.5t114.5 -47.5t47.5 -115.5t-47.5 -115t-114.5 -47z" />
    <glyph glyph-name="Agrave" unicode="&#xc0;" horiz-adv-x="1404" 
d="M26 0v42l531 1433h318l534 -1433v-42h-261l-120 336h-621l-120 -336h-261zM613 1610l-256 279v42h287l149 -279v-42h-180zM487 563h459l-215 601h-30z" />
    <glyph glyph-name="Aacute" unicode="&#xc1;" horiz-adv-x="1404" 
d="M26 0v42l531 1433h318l534 -1433v-42h-261l-120 336h-621l-120 -336h-261zM612 1610v42l150 279h286v-42l-255 -279h-181zM487 563h459l-215 601h-30z" />
    <glyph glyph-name="Acircumflex" unicode="&#xc2;" horiz-adv-x="1404" 
d="M26 0v42l531 1433h318l534 -1433v-42h-261l-120 336h-621l-120 -336h-261zM348 1610v42l260 279h210l261 -279v-42h-217l-149 166l-148 -166h-217zM487 563h459l-215 601h-30z" />
    <glyph glyph-name="Atilde" unicode="&#xc3;" horiz-adv-x="1404" 
d="M26 0v42l531 1433h318l534 -1433v-42h-261l-120 336h-621l-120 -336h-261zM359 1706q0 99 52 156t138 57q75 0 147 -44l67 -42q46 -28 73 -28q58 0 58 71v48h183v-90q0 -99 -51.5 -155.5t-138.5 -56.5q-77 0 -151 46l-68 43q-39 25 -68 25q-57 0 -57 -71v-48h-184v89z
M487 563h459l-215 601h-30z" />
    <glyph glyph-name="Adieresis" unicode="&#xc4;" horiz-adv-x="1404" 
d="M26 0v42l531 1433h318l534 -1433v-42h-261l-120 336h-621l-120 -336h-261zM513 1624q-60 0 -103.5 43t-43.5 103t43.5 103.5t103.5 43.5t103 -43.5t43 -103.5t-43 -103t-103 -43zM923 1624q-60 0 -103 43t-43 103t43 103.5t103 43.5t103.5 -43.5t43.5 -103.5t-43.5 -103
t-103.5 -43zM487 563h459l-215 601h-30z" />
    <glyph glyph-name="Aring" unicode="&#xc5;" horiz-adv-x="1404" 
d="M26 0v42l531 1431q-73 60 -73 159q0 92 61 153t157 61t157.5 -61t61.5 -153q0 -97 -70 -157h24l534 -1433v-42h-261l-120 336h-621l-120 -336h-261zM702 1548q35 0 60 24.5t25 59.5q0 38 -24.5 63t-60.5 25q-37 0 -61.5 -24.5t-24.5 -63.5q0 -36 24.5 -60t61.5 -24z
M487 563h459l-215 601h-30z" />
    <glyph glyph-name="AE" unicode="&#xc6;" horiz-adv-x="2138" 
d="M26 0v35l999 1440h1028v-223h-695v-385h511v-222h-511v-422h695v-225h-945v337h-595l-223 -335h-264zM665 564h443v622h-29z" />
    <glyph glyph-name="Ccedilla" unicode="&#xc7;" horiz-adv-x="1421" 
d="M557 -444v182h55q75 0 113 34t38 92q0 67 -43 108q-233 19 -391 156.5t-212 368.5q-10 38 -10 72v336q0 34 10 69q58 249 237.5 390t441.5 141q189 0 325 -60t245 -193l-173 -161q-85 102 -172.5 143.5t-214.5 41.5q-167 0 -280 -81.5t-156 -228.5q-8 -29 -8 -58v-342
q0 -28 8 -55q44 -146 154.5 -229.5t264.5 -83.5q130 0 224 44t176 146l173 -162q-93 -112 -201 -172.5t-247 -77.5q43 -55 43 -150q0 -122 -83 -196t-218 -74h-99z" />
    <glyph glyph-name="Egrave" unicode="&#xc8;" horiz-adv-x="1204" 
d="M168 0v1475h951v-229h-696v-376h511v-228h-511v-414h696v-228h-951zM552 1610l-256 279v42h287l149 -279v-42h-180z" />
    <glyph glyph-name="Eacute" unicode="&#xc9;" horiz-adv-x="1204" 
d="M168 0v1475h951v-229h-696v-376h511v-228h-511v-414h696v-228h-951zM551 1610v42l150 279h286v-42l-255 -279h-181z" />
    <glyph glyph-name="Ecircumflex" unicode="&#xca;" horiz-adv-x="1204" 
d="M168 0v1475h951v-229h-696v-376h511v-228h-511v-414h696v-228h-951zM277 1610v42l260 279h210l261 -279v-42h-217l-149 166l-148 -166h-217z" />
    <glyph glyph-name="Edieresis" unicode="&#xcb;" horiz-adv-x="1204" 
d="M168 0v1475h951v-229h-696v-376h511v-228h-511v-414h696v-228h-951zM437 1624q-60 0 -103.5 43t-43.5 103t43.5 103.5t103.5 43.5t103 -43.5t43 -103.5t-43 -103t-103 -43zM847 1624q-60 0 -103 43t-43 103t43 103.5t103 43.5t103.5 -43.5t43.5 -103.5t-43.5 -103
t-103.5 -43z" />
    <glyph glyph-name="Igrave" unicode="&#xcc;" horiz-adv-x="591" 
d="M168 0v1475h255v-1475h-255zM206 1610l-255 279v42h286l150 -279v-42h-181z" />
    <glyph glyph-name="Iacute" unicode="&#xcd;" horiz-adv-x="591" 
d="M168 0v1475h255v-1475h-255zM205 1610v42l150 279h286v-42l-255 -279h-181z" />
    <glyph glyph-name="Icircumflex" unicode="&#xce;" horiz-adv-x="591" 
d="M168 0v1475h255v-1475h-255zM-69 1610v42l260 279h210l261 -279v-42h-217l-149 166l-148 -166h-217z" />
    <glyph glyph-name="Idieresis" unicode="&#xcf;" horiz-adv-x="591" 
d="M168 0v1475h255v-1475h-255zM91 1624q-60 0 -103.5 43t-43.5 103t43.5 103.5t103.5 43.5t103 -43.5t43 -103.5t-43 -103t-103 -43zM501 1624q-60 0 -103 43t-43 103t43 103.5t103 43.5t103.5 -43.5t43.5 -103.5t-43.5 -103t-103.5 -43z" />
    <glyph glyph-name="Eth" unicode="&#xd0;" horiz-adv-x="1466" 
d="M202 0v650h-139v174h139v651h505q273 0 439.5 -127t212.5 -364q1 -8 1 -23v-437q0 -15 -1 -22q-46 -242 -213 -372t-439 -130h-505zM712 228q178 0 273 77t118 234q1 8 1 25v348q0 17 -1 25q-23 156 -118.5 232.5t-272.5 76.5h-254v-422h277v-174h-277v-422h254z" />
    <glyph glyph-name="Ntilde" unicode="&#xd1;" horiz-adv-x="1558" 
d="M168 0v1475h267l676 -1005h29v1005h250v-1475h-267l-676 1004h-29v-1004h-250zM420 1706q0 99 52 156t138 57q75 0 147 -44l67 -42q46 -28 73 -28q58 0 58 71v48h183v-90q0 -99 -51.5 -155.5t-138.5 -56.5q-77 0 -151 46l-68 43q-39 25 -68 25q-57 0 -57 -71v-48h-184v89
z" />
    <glyph glyph-name="Ograve" unicode="&#xd2;" horiz-adv-x="1593" 
d="M796 -31q-274 0 -460.5 154.5t-227.5 426.5q-1 7 -1 22v331q0 15 1 22q41 272 227.5 426t460.5 154t460.5 -154t227.5 -426q1 -7 1 -22v-331q0 -15 -1 -22q-41 -272 -227.5 -426.5t-460.5 -154.5zM796 198q170 0 287 96t145 266q2 16 2 23v310q0 8 -2 22
q-28 170 -145 265.5t-287 95.5q-171 0 -287.5 -95.5t-144.5 -265.5q-2 -14 -2 -22v-310q0 -7 2 -23q28 -170 144.5 -266t287.5 -96zM707 1610l-256 279v42h286l150 -279v-42h-180z" />
    <glyph glyph-name="Oacute" unicode="&#xd3;" horiz-adv-x="1593" 
d="M796 -31q-274 0 -460.5 154.5t-227.5 426.5q-1 7 -1 22v331q0 15 1 22q41 272 227.5 426t460.5 154t460.5 -154t227.5 -426q1 -7 1 -22v-331q0 -15 -1 -22q-41 -272 -227.5 -426.5t-460.5 -154.5zM796 198q170 0 287 96t145 266q2 16 2 23v310q0 8 -2 22
q-28 170 -145 265.5t-287 95.5q-171 0 -287.5 -95.5t-144.5 -265.5q-2 -14 -2 -22v-310q0 -7 2 -23q28 -170 144.5 -266t287.5 -96zM705 1610v42l150 279h286v-42l-255 -279h-181z" />
    <glyph glyph-name="Ocircumflex" unicode="&#xd4;" horiz-adv-x="1593" 
d="M796 -31q-274 0 -460.5 154.5t-227.5 426.5q-1 7 -1 22v331q0 15 1 22q41 272 227.5 426t460.5 154t460.5 -154t227.5 -426q1 -7 1 -22v-331q0 -15 -1 -22q-41 -272 -227.5 -426.5t-460.5 -154.5zM796 198q170 0 287 96t145 266q2 16 2 23v310q0 8 -2 22
q-28 170 -145 265.5t-287 95.5q-171 0 -287.5 -95.5t-144.5 -265.5q-2 -14 -2 -22v-310q0 -7 2 -23q28 -170 144.5 -266t287.5 -96zM432 1610v42l260 279h210l260 -279v-42h-217l-148 166l-148 -166h-217z" />
    <glyph glyph-name="Otilde" unicode="&#xd5;" horiz-adv-x="1593" 
d="M796 -31q-274 0 -460.5 154.5t-227.5 426.5q-1 7 -1 22v331q0 15 1 22q41 272 227.5 426t460.5 154t460.5 -154t227.5 -426q1 -7 1 -22v-331q0 -15 -1 -22q-41 -272 -227.5 -426.5t-460.5 -154.5zM796 198q170 0 287 96t145 266q2 16 2 23v310q0 8 -2 22
q-28 170 -145 265.5t-287 95.5q-171 0 -287.5 -95.5t-144.5 -265.5q-2 -14 -2 -22v-310q0 -7 2 -23q28 -170 144.5 -266t287.5 -96zM438 1706q0 99 52 156t138 57q75 0 147 -44l67 -42q46 -28 72 -28q58 0 58 71v48h183v-90q0 -99 -51.5 -155.5t-137.5 -56.5q-77 0 -151 46
l-69 43q-39 25 -68 25q-57 0 -57 -71v-48h-183v89z" />
    <glyph glyph-name="Odieresis" unicode="&#xd6;" horiz-adv-x="1593" 
d="M796 -31q-274 0 -460.5 154.5t-227.5 426.5q-1 7 -1 22v331q0 15 1 22q41 272 227.5 426t460.5 154t460.5 -154t227.5 -426q1 -7 1 -22v-331q0 -15 -1 -22q-41 -272 -227.5 -426.5t-460.5 -154.5zM796 198q170 0 287 96t145 266q2 16 2 23v310q0 8 -2 22
q-28 170 -145 265.5t-287 95.5q-171 0 -287.5 -95.5t-144.5 -265.5q-2 -14 -2 -22v-310q0 -7 2 -23q28 -170 144.5 -266t287.5 -96zM591 1624q-60 0 -103.5 43t-43.5 103t43.5 103.5t103.5 43.5t103 -43.5t43 -103.5t-43 -103t-103 -43zM1001 1624q-60 0 -103 43t-43 103
t43 103.5t103 43.5t103.5 -43.5t43.5 -103.5t-43.5 -103t-103.5 -43z" />
    <glyph glyph-name="multiply" unicode="&#xd7;" horiz-adv-x="1046" 
d="M234 301l-146 147l289 289l-289 290l146 147l290 -290l289 290l146 -147l-289 -290l289 -289l-146 -147l-289 289z" />
    <glyph glyph-name="Oslash" unicode="&#xd8;" horiz-adv-x="1605" 
d="M185 -31l-110 98v28l152 159q-85 126 -110 296q-1 7 -1 22v331q0 15 1 22q41 272 227.5 426t460.5 154q280 0 466 -158l151 158l109 -94v-29l-151 -158q88 -131 113 -299q1 -7 1 -22v-331q0 -15 -1 -22q-41 -272 -227.5 -426.5t-460.5 -154.5q-282 0 -468 160zM805 198
q170 0 287 96t145 266q2 16 2 23v310q0 8 -2 22q-10 62 -36 121l-696 -731q119 -107 300 -107zM371 583q0 -15 1 -23q9 -57 35 -118l696 729q-119 105 -298 105q-171 0 -288 -95.5t-145 -265.5q-1 -7 -1 -22v-310z" />
    <glyph glyph-name="Ugrave" unicode="&#xd9;" horiz-adv-x="1478" 
d="M739 -31q-256 0 -416.5 144.5t-160.5 380.5v981h255v-1008q0 -12 5 -39q24 -107 107 -168.5t210 -61.5t210.5 62t107.5 168q4 16 4 39v1008h256v-981q0 -237 -159 -381t-419 -144zM650 1610l-255 279v42h286l149 -279v-42h-180z" />
    <glyph glyph-name="Uacute" unicode="&#xda;" horiz-adv-x="1478" 
d="M739 -31q-256 0 -416.5 144.5t-160.5 380.5v981h255v-1008q0 -12 5 -39q24 -107 107 -168.5t210 -61.5t210.5 62t107.5 168q4 16 4 39v1008h256v-981q0 -237 -159 -381t-419 -144zM649 1610v42l150 279h285v-42l-255 -279h-180z" />
    <glyph glyph-name="Ucircumflex" unicode="&#xdb;" horiz-adv-x="1478" 
d="M739 -31q-256 0 -416.5 144.5t-160.5 380.5v981h255v-1008q0 -12 5 -39q24 -107 107 -168.5t210 -61.5t210.5 62t107.5 168q4 16 4 39v1008h256v-981q0 -237 -159 -381t-419 -144zM375 1610v42l260 279h210l261 -279v-42h-217l-149 166l-148 -166h-217z" />
    <glyph glyph-name="Udieresis" unicode="&#xdc;" horiz-adv-x="1478" 
d="M739 -31q-256 0 -416.5 144.5t-160.5 380.5v981h255v-1008q0 -12 5 -39q24 -107 107 -168.5t210 -61.5t210.5 62t107.5 168q4 16 4 39v1008h256v-981q0 -237 -159 -381t-419 -144zM535 1624q-60 0 -103.5 43t-43.5 103t43.5 103.5t103.5 43.5t103 -43.5t43 -103.5
t-43 -103t-103 -43zM945 1624q-60 0 -103 43t-43 103t43 103.5t103 43.5t103.5 -43.5t43.5 -103.5t-43.5 -103t-103.5 -43z" />
    <glyph glyph-name="Yacute" unicode="&#xdd;" horiz-adv-x="1304" 
d="M524 0v548l-500 884v43h269l344 -640h30l345 640h269v-43l-501 -884v-548h-256zM560 1610v42l150 279h286v-42l-255 -279h-181z" />
    <glyph glyph-name="Thorn" unicode="&#xde;" horiz-adv-x="1288" 
d="M168 1475h255v-263h323q368 0 463 -286q3 -13 3 -34v-302q0 -20 -3 -32q-47 -141 -163.5 -215.5t-299.5 -74.5h-323v-268h-255v1475zM423 497h307q187 0 232 149q3 14 3 31v127q0 17 -3 29q-45 150 -232 150h-307v-486z" />
    <glyph glyph-name="germandbls" unicode="&#xdf;" horiz-adv-x="1308" 
d="M145 1161q0 208 141 337.5t360 129.5q187 0 307.5 -77t159.5 -223q7 -18 7 -43v-181q0 -29 -10 -48q-27 -112 -142 -169q186 -57 232 -233q15 -27 15 -64v-261q0 -32 -14 -60q-44 -125 -163 -197t-284 -72h-210v220h186q83 0 147.5 38t88.5 112q11 19 11 57v134
q0 40 -14 61q-24 76 -83 110t-166 34h-170v210h119q169 0 214 138q6 15 6 34v83q0 18 -7 32q-52 143 -229 143q-114 0 -189 -69t-75 -200v-1137h-238v1161z" />
    <glyph glyph-name="agrave" unicode="&#xe0;" horiz-adv-x="1157" 
d="M460 -31q-143 0 -243.5 72t-121.5 192v191q32 122 138.5 190t266.5 68q147 0 274 -73v98q0 93 -40.5 135t-133.5 42h-409v222h429q214 0 303.5 -96t89.5 -302v-708h-187l-49 144q-118 -175 -317 -175zM516 179q83 0 142 25.5t116 88.5v108q-52 45 -110 66t-141 21
q-80 0 -132 -30t-66 -86v-78q12 -53 64.5 -84t126.5 -31zM499 1241l-256 279v43h286l150 -279v-43h-180z" />
    <glyph glyph-name="aacute" unicode="&#xe1;" horiz-adv-x="1157" 
d="M460 -31q-143 0 -243.5 72t-121.5 192v191q32 122 138.5 190t266.5 68q147 0 274 -73v98q0 93 -40.5 135t-133.5 42h-409v222h429q214 0 303.5 -96t89.5 -302v-708h-187l-49 144q-118 -175 -317 -175zM516 179q83 0 142 25.5t116 88.5v108q-52 45 -110 66t-141 21
q-80 0 -132 -30t-66 -86v-78q12 -53 64.5 -84t126.5 -31zM497 1241v43l150 279h286v-43l-255 -279h-181z" />
    <glyph glyph-name="acircumflex" unicode="&#xe2;" horiz-adv-x="1157" 
d="M460 -31q-143 0 -243.5 72t-121.5 192v191q32 122 138.5 190t266.5 68q147 0 274 -73v98q0 93 -40.5 135t-133.5 42h-409v222h429q214 0 303.5 -96t89.5 -302v-708h-187l-49 144q-118 -175 -317 -175zM516 179q83 0 142 25.5t116 88.5v108q-52 45 -110 66t-141 21
q-80 0 -132 -30t-66 -86v-78q12 -53 64.5 -84t126.5 -31zM224 1241v43l260 279h210l260 -279v-43h-217l-148 166l-148 -166h-217z" />
    <glyph glyph-name="atilde" unicode="&#xe3;" horiz-adv-x="1157" 
d="M460 -31q-143 0 -243.5 72t-121.5 192v191q32 122 138.5 190t266.5 68q147 0 274 -73v98q0 93 -40.5 135t-133.5 42h-409v222h429q214 0 303.5 -96t89.5 -302v-708h-187l-49 144q-118 -175 -317 -175zM516 179q83 0 142 25.5t116 88.5v108q-52 45 -110 66t-141 21
q-80 0 -132 -30t-66 -86v-78q12 -53 64.5 -84t126.5 -31zM230 1337q0 99 52 156.5t138 57.5q75 0 147 -44l67 -42q46 -28 73 -28q57 0 57 70v48h183v-89q0 -100 -51.5 -156.5t-137.5 -56.5q-77 0 -151 46l-68 43q-39 25 -68 25q-58 0 -58 -71v-47h-183v88z" />
    <glyph glyph-name="adieresis" unicode="&#xe4;" horiz-adv-x="1157" 
d="M460 -31q-143 0 -243.5 72t-121.5 192v191q32 122 138.5 190t266.5 68q147 0 274 -73v98q0 93 -40.5 135t-133.5 42h-409v222h429q214 0 303.5 -96t89.5 -302v-708h-187l-49 144q-118 -175 -317 -175zM516 179q83 0 142 25.5t116 88.5v108q-52 45 -110 66t-141 21
q-80 0 -132 -30t-66 -86v-78q12 -53 64.5 -84t126.5 -31zM383 1255q-60 0 -103 43.5t-43 103.5t43 103t103 43t103 -43t43 -103t-43 -103.5t-103 -43.5zM794 1255q-60 0 -103.5 43.5t-43.5 103.5t43.5 103t103.5 43t103 -43t43 -103t-43 -103.5t-103 -43.5z" />
    <glyph glyph-name="aring" unicode="&#xe5;" horiz-adv-x="1157" 
d="M460 -31q-143 0 -243.5 72t-121.5 192v191q32 122 138.5 190t266.5 68q147 0 274 -73v98q0 93 -40.5 135t-133.5 42h-409v222h429q214 0 303.5 -96t89.5 -302v-708h-187l-49 144q-118 -175 -317 -175zM516 179q83 0 142 25.5t116 88.5v108q-52 45 -110 66t-141 21
q-80 0 -132 -30t-66 -86v-78q12 -53 64.5 -84t126.5 -31zM587 1218q-96 0 -156.5 59.5t-60.5 149.5q0 92 60.5 153t156.5 61t157.5 -61t61.5 -153q0 -90 -61.5 -149.5t-157.5 -59.5zM587 1343q35 0 60.5 24.5t25.5 59.5q0 38 -25 63t-61 25q-37 0 -61 -24.5t-24 -63.5
q0 -36 24 -60t61 -24z" />
    <glyph glyph-name="ae" unicode="&#xe6;" horiz-adv-x="1921" 
d="M1331 -31q-302 0 -450 214q-80 -112 -175 -163t-246 -51q-140 0 -242 71t-123 187v192q32 117 138.5 183t266.5 66h274v39q0 93 -40.5 135t-133.5 42h-409v222h444q212 0 303 -122q148 153 381 153q211 0 342 -109.5t170 -307.5q3 -15 3 -29v-183l-28 -28h-789
q18 -140 99 -217.5t215 -77.5q98 0 167.5 35t134.5 115l162 -148q-163 -218 -464 -218zM516 179q82 0 141 30.5t117 103.5v167h-251q-82 0 -133 -30t-65 -84v-77q12 -51 64.5 -80.5t126.5 -29.5zM1605 668q-14 117 -90.5 188.5t-193.5 71.5q-120 0 -196.5 -70t-101.5 -190
h582z" />
    <glyph glyph-name="ccedilla" unicode="&#xe7;" horiz-adv-x="1155" 
d="M404 -444v182h56q75 0 113 34t38 92q0 68 -44 109q-181 20 -306.5 134.5t-164.5 295.5q-2 49 -2 150q0 102 2 150q46 201 191.5 317.5t350.5 116.5q298 0 461 -222l-171 -152q-52 82 -124 120t-176 38q-109 0 -189.5 -63t-104.5 -167q-2 -84 -2 -138t2 -138
q25 -100 108.5 -165t185.5 -65q95 0 163 35t135 120l163 -159q-128 -168 -329 -202q45 -57 45 -153q0 -122 -83 -196t-218 -74h-100z" />
    <glyph glyph-name="egrave" unicode="&#xe8;" horiz-adv-x="1228" 
d="M639 -31q-217 0 -355 111.5t-188 315.5q-2 10 -2 30v253q0 20 2 29q50 197 189.5 313t340.5 116q211 0 342.5 -109.5t170.5 -307.5q2 -10 2 -29v-183l-27 -28h-788q18 -140 99 -217.5t214 -77.5q98 0 167.5 35t134.5 115l162 -148q-163 -218 -464 -218zM540 1241
l-255 279v43h286l149 -279v-43h-180zM332 668h580q-14 118 -90.5 189t-192.5 71q-119 0 -196 -70t-101 -190z" />
    <glyph glyph-name="eacute" unicode="&#xe9;" horiz-adv-x="1228" 
d="M639 -31q-217 0 -355 111.5t-188 315.5q-2 10 -2 30v253q0 20 2 29q50 197 189.5 313t340.5 116q211 0 342.5 -109.5t170.5 -307.5q2 -10 2 -29v-183l-27 -28h-788q18 -140 99 -217.5t214 -77.5q98 0 167.5 35t134.5 115l162 -148q-163 -218 -464 -218zM539 1241v43
l150 279h285v-43l-255 -279h-180zM332 668h580q-14 118 -90.5 189t-192.5 71q-119 0 -196 -70t-101 -190z" />
    <glyph glyph-name="ecircumflex" unicode="&#xea;" horiz-adv-x="1228" 
d="M639 -31q-217 0 -355 111.5t-188 315.5q-2 10 -2 30v253q0 20 2 29q50 197 189.5 313t340.5 116q211 0 342.5 -109.5t170.5 -307.5q2 -10 2 -29v-183l-27 -28h-788q18 -140 99 -217.5t214 -77.5q98 0 167.5 35t134.5 115l162 -148q-163 -218 -464 -218zM265 1241v43
l260 279h210l261 -279v-43h-217l-149 166l-148 -166h-217zM332 668h580q-14 118 -90.5 189t-192.5 71q-119 0 -196 -70t-101 -190z" />
    <glyph glyph-name="edieresis" unicode="&#xeb;" horiz-adv-x="1228" 
d="M639 -31q-217 0 -355 111.5t-188 315.5q-2 10 -2 30v253q0 20 2 29q50 197 189.5 313t340.5 116q211 0 342.5 -109.5t170.5 -307.5q2 -10 2 -29v-183l-27 -28h-788q18 -140 99 -217.5t214 -77.5q98 0 167.5 35t134.5 115l162 -148q-163 -218 -464 -218zM424 1255
q-60 0 -103 43.5t-43 103.5t43 103t103 43t103.5 -43t43.5 -103t-43.5 -103.5t-103.5 -43.5zM835 1255q-60 0 -103 43.5t-43 103.5t43 103t103 43t103.5 -43t43.5 -103t-43.5 -103.5t-103.5 -43.5zM332 668h580q-14 118 -90.5 189t-192.5 71q-119 0 -196 -70t-101 -190z" />
    <glyph glyph-name="igrave" unicode="&#xec;" horiz-adv-x="542" 
d="M152 0v1106h239v-1106h-239zM181 1241l-255 279v43h286l149 -279v-43h-180z" />
    <glyph glyph-name="iacute" unicode="&#xed;" horiz-adv-x="542" 
d="M152 0v1106h239v-1106h-239zM180 1241v43l150 279h285v-43l-255 -279h-180z" />
    <glyph glyph-name="icircumflex" unicode="&#xee;" horiz-adv-x="542" 
d="M152 0v1106h239v-1106h-239zM-94 1241v43l260 279h210l261 -279v-43h-217l-149 166l-148 -166h-217z" />
    <glyph glyph-name="idieresis" unicode="&#xef;" horiz-adv-x="542" 
d="M152 0v1106h239v-1106h-239zM66 1255q-60 0 -103.5 43.5t-43.5 103.5t43.5 103t103.5 43t103 -43t43 -103t-43 -103.5t-103 -43.5zM476 1255q-60 0 -103 43.5t-43 103.5t43 103t103 43t103.5 -43t43.5 -103t-43.5 -103.5t-103.5 -43.5z" />
    <glyph glyph-name="eth" unicode="&#xf0;" horiz-adv-x="1280" 
d="M639 -31q-203 0 -354 116.5t-189 301.5q-2 12 -2 30v219q0 20 2 33q38 184 191 301t352 115q105 0 190 -33q-50 106 -127 206l-331 -109l-57 177l250 82q-86 80 -189 147v42h287q67 -41 135 -112l288 95l58 -177l-219 -72q109 -155 181.5 -328.5t77.5 -312.5q3 -19 3 -34
v-239q0 -18 -3 -30q-38 -185 -189.5 -301.5t-354.5 -116.5zM639 185q116 0 202 63t107 164q2 9 2 28v173q0 23 -2 31q-21 101 -106.5 163.5t-202.5 62.5q-116 0 -201.5 -62.5t-106.5 -163.5q-2 -8 -2 -31v-173q0 -19 2 -28q21 -101 106.5 -164t201.5 -63z" />
    <glyph glyph-name="ntilde" unicode="&#xf1;" horiz-adv-x="1277" 
d="M152 0v1106h185l52 -144q49 79 135 127t197 48q192 0 302 -117.5t110 -317.5v-702h-238v686q-12 107 -73.5 168t-168.5 61q-95 0 -165 -54t-97 -148v-713h-239zM321 1337q0 99 51.5 156.5t137.5 57.5q75 0 147 -44l67 -42q46 -28 73 -28q58 0 58 70v48h183v-89
q0 -99 -51.5 -156t-138.5 -57q-77 0 -151 46l-68 43q-39 25 -68 25q-57 0 -57 -71v-47h-183v88z" />
    <glyph glyph-name="ograve" unicode="&#xf2;" horiz-adv-x="1273" 
d="M639 -31q-128 0 -241 49t-194.5 145t-107.5 224q-2 10 -2 33v266q0 23 2 33q26 128 107.5 224t194.5 145t241 49q197 0 351 -113.5t193 -304.5q3 -15 3 -33v-266q0 -18 -3 -33q-39 -191 -193 -304.5t-351 -113.5zM639 185q111 0 197.5 60t108.5 167q2 9 2 30v222
q0 21 -2 30q-22 107 -108.5 167t-197.5 60q-110 0 -196.5 -60t-108.5 -167q-2 -9 -2 -30v-222q0 -21 2 -30q22 -107 108.5 -167t196.5 -60zM547 1241l-255 279v43h286l150 -279v-43h-181z" />
    <glyph glyph-name="oacute" unicode="&#xf3;" horiz-adv-x="1273" 
d="M639 -31q-128 0 -241 49t-194.5 145t-107.5 224q-2 10 -2 33v266q0 23 2 33q26 128 107.5 224t194.5 145t241 49q197 0 351 -113.5t193 -304.5q3 -15 3 -33v-266q0 -18 -3 -33q-39 -191 -193 -304.5t-351 -113.5zM639 185q111 0 197.5 60t108.5 167q2 9 2 30v222
q0 21 -2 30q-22 107 -108.5 167t-197.5 60q-110 0 -196.5 -60t-108.5 -167q-2 -9 -2 -30v-222q0 -21 2 -30q22 -107 108.5 -167t196.5 -60zM546 1241v43l150 279h286v-43l-255 -279h-181z" />
    <glyph glyph-name="ocircumflex" unicode="&#xf4;" horiz-adv-x="1273" 
d="M639 -31q-128 0 -241 49t-194.5 145t-107.5 224q-2 10 -2 33v266q0 23 2 33q26 128 107.5 224t194.5 145t241 49q197 0 351 -113.5t193 -304.5q3 -15 3 -33v-266q0 -18 -3 -33q-39 -191 -193 -304.5t-351 -113.5zM639 185q111 0 197.5 60t108.5 167q2 9 2 30v222
q0 21 -2 30q-22 107 -108.5 167t-197.5 60q-110 0 -196.5 -60t-108.5 -167q-2 -9 -2 -30v-222q0 -21 2 -30q22 -107 108.5 -167t196.5 -60zM272 1241v43l260 279h210l261 -279v-43h-217l-149 166l-148 -166h-217z" />
    <glyph glyph-name="otilde" unicode="&#xf5;" horiz-adv-x="1280" 
d="M639 -31q-128 0 -241 49t-194.5 145t-107.5 224q-2 10 -2 33v266q0 23 2 33q26 128 107.5 224t194.5 145t241 49q197 0 351 -113.5t193 -304.5q3 -15 3 -33v-266q0 -18 -3 -33q-39 -191 -193 -304.5t-351 -113.5zM639 185q111 0 197.5 60t108.5 167q2 9 2 30v222
q0 21 -2 30q-22 107 -108.5 167t-197.5 60q-110 0 -196.5 -60t-108.5 -167q-2 -9 -2 -30v-222q0 -21 2 -30q22 -107 108.5 -167t196.5 -60zM281 1337q0 99 52 156.5t138 57.5q75 0 147 -44l67 -42q46 -28 73 -28q58 0 58 70v48h182v-89q0 -100 -51.5 -156.5t-137.5 -56.5
q-77 0 -151 46l-68 43q-39 25 -68 25q-58 0 -58 -71v-47h-183v88z" />
    <glyph glyph-name="odieresis" unicode="&#xf6;" horiz-adv-x="1273" 
d="M639 -31q-128 0 -241 49t-194.5 145t-107.5 224q-2 10 -2 33v266q0 23 2 33q26 128 107.5 224t194.5 145t241 49q197 0 351 -113.5t193 -304.5q3 -15 3 -33v-266q0 -18 -3 -33q-39 -191 -193 -304.5t-351 -113.5zM639 185q111 0 197.5 60t108.5 167q2 9 2 30v222
q0 21 -2 30q-22 107 -108.5 167t-197.5 60q-110 0 -196.5 -60t-108.5 -167q-2 -9 -2 -30v-222q0 -21 2 -30q22 -107 108.5 -167t196.5 -60zM432 1255q-60 0 -103 43.5t-43 103.5t43 103t103 43t103.5 -43t43.5 -103t-43.5 -103.5t-103.5 -43.5zM843 1255q-60 0 -103.5 43.5
t-43.5 103.5t43.5 103t103.5 43t103 -43t43 -103t-43 -103.5t-103 -43.5z" />
    <glyph glyph-name="divide" unicode="&#xf7;" horiz-adv-x="1046" 
d="M67 633v209h913v-209h-913zM524 209q-68 0 -115.5 47.5t-47.5 114.5t47.5 115t115.5 48t115.5 -48t47.5 -115t-47.5 -114.5t-115.5 -47.5zM524 941q-68 0 -115.5 47.5t-47.5 114.5t47.5 115t115.5 48t115.5 -48t47.5 -115t-47.5 -114.5t-115.5 -47.5z" />
    <glyph glyph-name="oslash" unicode="&#xf8;" horiz-adv-x="1286" 
d="M205 -31l-110 98v28l91 95q-64 87 -86 197q-2 10 -2 33v266q0 23 2 33q26 128 107.5 224t195 145t241.5 49q193 0 340 -106l99 106l108 -95v-27l-91 -97q65 -91 87 -199q3 -15 3 -33v-266q0 -18 -3 -33q-39 -191 -192.5 -304.5t-350.5 -113.5q-192 0 -340 105zM644 185
q111 0 197 60t108 167q2 9 2 30v222q0 21 -2 30q-6 26 -15 48l-476 -504q83 -53 186 -53zM336 442q0 -21 2 -30q7 -29 14 -46l477 502q-83 53 -185 53q-110 0 -197 -60t-109 -167q-2 -9 -2 -30v-222z" />
    <glyph glyph-name="ugrave" unicode="&#xf9;" horiz-adv-x="1265" 
d="M551 -31q-192 0 -299.5 111.5t-107.5 309.5v716h238v-686q11 -106 73 -167.5t165 -61.5q94 0 160.5 53.5t93.5 148.5v713h239v-1106h-185l-52 144q-46 -81 -129 -128t-196 -47zM538 1241l-255 279v43h286l149 -279v-43h-180z" />
    <glyph glyph-name="uacute" unicode="&#xfa;" horiz-adv-x="1265" 
d="M551 -31q-192 0 -299.5 111.5t-107.5 309.5v716h238v-686q11 -106 73 -167.5t165 -61.5q94 0 160.5 53.5t93.5 148.5v713h239v-1106h-185l-52 144q-46 -81 -129 -128t-196 -47zM537 1241v43l150 279h285v-43l-255 -279h-180z" />
    <glyph glyph-name="ucircumflex" unicode="&#xfb;" horiz-adv-x="1265" 
d="M551 -31q-192 0 -299.5 111.5t-107.5 309.5v716h238v-686q11 -106 73 -167.5t165 -61.5q94 0 160.5 53.5t93.5 148.5v713h239v-1106h-185l-52 144q-46 -81 -129 -128t-196 -47zM263 1241v43l260 279h210l261 -279v-43h-217l-149 166l-148 -166h-217z" />
    <glyph glyph-name="udieresis" unicode="&#xfc;" horiz-adv-x="1265" 
d="M551 -31q-192 0 -299.5 111.5t-107.5 309.5v716h238v-686q11 -106 73 -167.5t165 -61.5q94 0 160.5 53.5t93.5 148.5v713h239v-1106h-185l-52 144q-46 -81 -129 -128t-196 -47zM422 1255q-60 0 -103 43.5t-43 103.5t43 103t103 43t103.5 -43t43.5 -103t-43.5 -103.5
t-103.5 -43.5zM833 1255q-60 0 -103 43.5t-43 103.5t43 103t103 43t103 -43t43 -103t-43 -103.5t-103 -43.5z" />
    <glyph glyph-name="yacute" unicode="&#xfd;" horiz-adv-x="1191" 
d="M160 -451v222h144q161 0 161 125q0 39 -37 136l-396 1031v43h247l304 -840h29l280 840h243v-43l-461 -1262q-35 -96 -80 -149.5t-115.5 -78t-182.5 -24.5h-136zM492 1241v43l150 279h285v-43l-255 -279h-180z" />
    <glyph glyph-name="thorn" unicode="&#xfe;" 
d="M152 -451v2048h239v-610q60 72 149 111t195 39q192 0 314.5 -99.5t164.5 -277.5q10 -112 10 -209q0 -95 -10 -207q-43 -177 -165 -276t-311 -99q-224 0 -347 150v-570h-239zM684 185q117 0 193 60t105 174q7 62 7 134q0 75 -7 134q-29 111 -106 172.5t-192 61.5
q-103 0 -179.5 -56t-113.5 -159v-311q75 -210 293 -210z" />
    <glyph glyph-name="ydieresis" unicode="&#xff;" horiz-adv-x="1191" 
d="M160 -451v222h144q161 0 161 125q0 39 -37 136l-396 1031v43h247l304 -840h29l280 840h243v-43l-461 -1262q-35 -96 -80 -149.5t-115.5 -78t-182.5 -24.5h-136zM377 1255q-60 0 -103 43.5t-43 103.5t43 103t103 43t103.5 -43t43.5 -103t-43.5 -103.5t-103.5 -43.5z
M788 1255q-60 0 -103 43.5t-43 103.5t43 103t103 43t103 -43t43 -103t-43 -103.5t-103 -43.5z" />
    <glyph glyph-name="Amacron" unicode="&#x100;" horiz-adv-x="1404" 
d="M26 0v42l531 1433h318l534 -1433v-42h-261l-120 336h-621l-120 -336h-261zM418 1678v185h601v-185h-601zM487 563h459l-215 601h-30z" />
    <glyph glyph-name="amacron" unicode="&#x101;" horiz-adv-x="1157" 
d="M460 -31q-143 0 -243.5 72t-121.5 192v191q32 122 138.5 190t266.5 68q147 0 274 -73v98q0 93 -40.5 135t-133.5 42h-409v222h429q214 0 303.5 -96t89.5 -302v-708h-187l-49 144q-118 -175 -317 -175zM516 179q83 0 142 25.5t116 88.5v108q-52 45 -110 66t-141 21
q-80 0 -132 -30t-66 -86v-78q12 -53 64.5 -84t126.5 -31zM288 1309v186h601v-186h-601z" />
    <glyph glyph-name="Abreve" unicode="&#x102;" horiz-adv-x="1404" 
d="M26 0v42l531 1433h318l534 -1433v-42h-261l-120 336h-621l-120 -336h-261zM718 1610q-160 0 -248.5 86t-88.5 235h193q0 -74 38 -116.5t105 -42.5t105 42.5t38 116.5h193q0 -149 -87.5 -235t-247.5 -86zM487 563h459l-215 601h-30z" />
    <glyph glyph-name="abreve" unicode="&#x103;" horiz-adv-x="1157" 
d="M460 -31q-143 0 -243.5 72t-121.5 192v191q32 122 138.5 190t266.5 68q147 0 274 -73v98q0 93 -40.5 135t-133.5 42h-409v222h429q214 0 303.5 -96t89.5 -302v-708h-187l-49 144q-118 -175 -317 -175zM516 179q83 0 142 25.5t116 88.5v108q-52 45 -110 66t-141 21
q-80 0 -132 -30t-66 -86v-78q12 -53 64.5 -84t126.5 -31zM590 1241q-160 0 -248.5 86.5t-88.5 235.5h193q0 -74 38 -117t105 -43t105 42.5t38 117.5h193q0 -150 -88 -236t-247 -86z" />
    <glyph glyph-name="Aogonek" unicode="&#x104;" horiz-adv-x="1435" 
d="M26 0v42l531 1433h318l534 -1433v-42q-69 -19 -110.5 -62.5t-41.5 -105.5q0 -46 27.5 -70t77.5 -24h47v-182h-85q-123 0 -193 67.5t-70 177.5q0 117 89 199h-2l-120 336h-621l-120 -336h-261zM487 563h459l-215 601h-30z" />
    <glyph glyph-name="aogonek" unicode="&#x105;" horiz-adv-x="1157" 
d="M460 -31q-143 0 -243.5 72t-121.5 192v191q32 122 138.5 190t266.5 68q147 0 274 -73v98q0 93 -40.5 135t-133.5 42h-409v222h429q214 0 303.5 -96t89.5 -302v-708q-69 -19 -110.5 -62.5t-41.5 -105.5q0 -46 28 -70t78 -24h46v-182h-85q-123 0 -192.5 67.5t-69.5 177.5
q0 154 146 242l-35 101q-118 -175 -317 -175zM516 179q83 0 142 25.5t116 88.5v108q-52 45 -110 66t-141 21q-80 0 -132 -30t-66 -86v-78q12 -53 64.5 -84t126.5 -31z" />
    <glyph glyph-name="Cacute" unicode="&#x106;" horiz-adv-x="1421" 
d="M789 -31q-259 0 -436.5 140t-235.5 388q-10 38 -10 72v336q0 34 10 69q58 249 237.5 390t441.5 141q189 0 325 -60t245 -193l-173 -161q-85 102 -172.5 143.5t-214.5 41.5q-167 0 -280 -81.5t-156 -228.5q-8 -29 -8 -58v-342q0 -28 8 -55q44 -146 154.5 -229.5
t264.5 -83.5q130 0 224 44t176 146l173 -162q-111 -135 -247 -196t-326 -61zM686 1610v42l150 279h286v-42l-255 -279h-181z" />
    <glyph glyph-name="cacute" unicode="&#x107;" horiz-adv-x="1155" 
d="M638 -31q-207 0 -353 117t-189 317q-2 49 -2 150q0 102 2 150q46 201 191.5 317.5t350.5 116.5q298 0 461 -222l-171 -152q-52 82 -124 120t-176 38q-109 0 -189.5 -63t-104.5 -167q-2 -84 -2 -138t2 -138q25 -100 108.5 -165t185.5 -65q95 0 163 35t135 120l163 -159
q-84 -109 -194 -160.5t-257 -51.5zM530 1241v43l150 279h286v-43l-255 -279h-181z" />
    <glyph glyph-name="Ccircumflex" unicode="&#x108;" horiz-adv-x="1421" 
d="M789 -31q-259 0 -436.5 140t-235.5 388q-10 38 -10 72v336q0 34 10 69q58 249 237.5 390t441.5 141q189 0 325 -60t245 -193l-173 -161q-85 102 -172.5 143.5t-214.5 41.5q-167 0 -280 -81.5t-156 -228.5q-8 -29 -8 -58v-342q0 -28 8 -55q44 -146 154.5 -229.5
t264.5 -83.5q130 0 224 44t176 146l173 -162q-111 -135 -247 -196t-326 -61zM412 1610v42l260 279h210l261 -279v-42h-217l-149 166l-148 -166h-217z" />
    <glyph glyph-name="ccircumflex" unicode="&#x109;" horiz-adv-x="1155" 
d="M638 -31q-207 0 -353 117t-189 317q-2 49 -2 150q0 102 2 150q46 201 191.5 317.5t350.5 116.5q298 0 461 -222l-171 -152q-52 82 -124 120t-176 38q-109 0 -189.5 -63t-104.5 -167q-2 -84 -2 -138t2 -138q25 -100 108.5 -165t185.5 -65q95 0 163 35t135 120l163 -159
q-84 -109 -194 -160.5t-257 -51.5zM257 1241v43l260 279h210l260 -279v-43h-217l-148 166l-148 -166h-217z" />
    <glyph glyph-name="Cdotaccent" unicode="&#x10a;" horiz-adv-x="1421" 
d="M789 -31q-259 0 -436.5 140t-235.5 388q-10 38 -10 72v336q0 34 10 69q58 249 237.5 390t441.5 141q189 0 325 -60t245 -193l-173 -161q-85 102 -172.5 143.5t-214.5 41.5q-167 0 -280 -81.5t-156 -228.5q-8 -29 -8 -58v-342q0 -28 8 -55q44 -146 154.5 -229.5
t264.5 -83.5q130 0 224 44t176 146l173 -162q-111 -135 -247 -196t-326 -61zM777 1647q-67 0 -115 47.5t-48 115.5q0 67 47.5 114.5t115.5 47.5t115.5 -47.5t47.5 -114.5q0 -68 -48 -115.5t-115 -47.5z" />
    <glyph glyph-name="cdotaccent" unicode="&#x10b;" horiz-adv-x="1155" 
d="M638 -31q-207 0 -353 117t-189 317q-2 49 -2 150q0 102 2 150q46 201 191.5 317.5t350.5 116.5q298 0 461 -222l-171 -152q-52 82 -124 120t-176 38q-109 0 -189.5 -63t-104.5 -167q-2 -84 -2 -138t2 -138q25 -100 108.5 -165t185.5 -65q95 0 163 35t135 120l163 -159
q-84 -109 -194 -160.5t-257 -51.5zM622 1278q-68 0 -115.5 48t-47.5 115t47.5 115t115.5 48q67 0 114.5 -47.5t47.5 -115.5t-47.5 -115.5t-114.5 -47.5z" />
    <glyph glyph-name="Ccaron" unicode="&#x10c;" horiz-adv-x="1421" 
d="M789 -31q-259 0 -436.5 140t-235.5 388q-10 38 -10 72v336q0 34 10 69q58 249 237.5 390t441.5 141q189 0 325 -60t245 -193l-173 -161q-85 102 -172.5 143.5t-214.5 41.5q-167 0 -280 -81.5t-156 -228.5q-8 -29 -8 -58v-342q0 -28 8 -55q44 -146 154.5 -229.5
t264.5 -83.5q130 0 224 44t176 146l173 -162q-111 -135 -247 -196t-326 -61zM672 1610l-260 279v42h217l148 -166l149 166h217v-42l-261 -279h-210z" />
    <glyph glyph-name="ccaron" unicode="&#x10d;" horiz-adv-x="1155" 
d="M638 -31q-207 0 -353 117t-189 317q-2 49 -2 150q0 102 2 150q46 201 191.5 317.5t350.5 116.5q298 0 461 -222l-171 -152q-52 82 -124 120t-176 38q-109 0 -189.5 -63t-104.5 -167q-2 -84 -2 -138t2 -138q25 -100 108.5 -165t185.5 -65q95 0 163 35t135 120l163 -159
q-84 -109 -194 -160.5t-257 -51.5zM517 1241l-260 279v43h217l148 -167l148 167h217v-43l-260 -279h-210z" />
    <glyph glyph-name="Dcaron" unicode="&#x10e;" horiz-adv-x="1433" 
d="M168 0v1475h505q273 0 439.5 -127t212.5 -364q1 -8 1 -23v-437q0 -15 -1 -22q-46 -242 -213 -372t-439 -130h-505zM677 228q178 0 273.5 77t118.5 234q1 8 1 25v348q0 17 -1 25q-23 156 -119 232.5t-273 76.5h-254v-1018h254zM490 1610l-260 279v42h217l148 -166l149 166
h217v-42l-261 -279h-210z" />
    <glyph glyph-name="dcaron" unicode="&#x10f;" horiz-adv-x="1425" 
d="M564 -31q-179 0 -299 98t-162 277q-9 86 -9 209q0 121 9 207q42 178 164.5 277.5t314.5 99.5q106 0 195 -39t149 -111v610h239v-1597h-185l-54 137q-122 -168 -362 -168zM634 185q111 0 183 50.5t109 159.5v311q-37 103 -113 159t-179 56q-115 0 -192.5 -61.5
t-106.5 -172.5q-6 -50 -6 -134q0 -81 6 -134q28 -115 104.5 -174.5t194.5 -59.5zM1341 1200v397h228v-35l-96 -362h-132z" />
    <glyph glyph-name="Dcroat" unicode="&#x110;" horiz-adv-x="1466" 
d="M202 0v650h-139v174h139v651h505q273 0 439.5 -127t212.5 -364q1 -8 1 -23v-437q0 -15 -1 -22q-46 -242 -213 -372t-439 -130h-505zM712 228q178 0 273 77t118 234q1 8 1 25v348q0 17 -1 25q-23 156 -118.5 232.5t-272.5 76.5h-254v-422h277v-174h-277v-422h254z" />
    <glyph glyph-name="dcroat" unicode="&#x111;" horiz-adv-x="1327" 
d="M564 -31q-179 0 -299 98t-162 277q-9 86 -9 209q0 121 9 207q42 178 164.5 277.5t314.5 99.5q106 0 195 -39t149 -111v260h-296v209h296v141h239v-141h107v-209h-107v-1247h-185l-54 137q-122 -168 -362 -168zM634 185q111 0 183 50.5t109 159.5v311q-37 103 -113 159
t-179 56q-115 0 -192.5 -61.5t-106.5 -172.5q-6 -50 -6 -134q0 -81 6 -134q28 -115 104.5 -174.5t194.5 -59.5z" />
    <glyph glyph-name="Emacron" unicode="&#x112;" horiz-adv-x="1204" 
d="M168 0v1475h951v-229h-696v-376h511v-228h-511v-414h696v-228h-951zM342 1678v185h601v-185h-601z" />
    <glyph glyph-name="emacron" unicode="&#x113;" horiz-adv-x="1228" 
d="M639 -31q-217 0 -355 111.5t-188 315.5q-2 10 -2 30v253q0 20 2 29q50 197 189.5 313t340.5 116q211 0 342.5 -109.5t170.5 -307.5q2 -10 2 -29v-183l-27 -28h-788q18 -140 99 -217.5t214 -77.5q98 0 167.5 35t134.5 115l162 -148q-163 -218 -464 -218zM330 1309v186h601
v-186h-601zM332 668h580q-14 118 -90.5 189t-192.5 71q-119 0 -196 -70t-101 -190z" />
    <glyph glyph-name="Ebreve" unicode="&#x114;" horiz-adv-x="1204" 
d="M168 0v1475h951v-229h-696v-376h511v-228h-511v-414h696v-228h-951zM643 1610q-160 0 -248.5 86t-88.5 235h193q0 -74 38 -116.5t105 -42.5t105 42.5t38 116.5h193q0 -149 -87.5 -235t-247.5 -86z" />
    <glyph glyph-name="ebreve" unicode="&#x115;" horiz-adv-x="1228" 
d="M639 -31q-217 0 -355 111.5t-188 315.5q-2 10 -2 30v253q0 20 2 29q50 197 189.5 313t340.5 116q211 0 342.5 -109.5t170.5 -307.5q2 -10 2 -29v-183l-27 -28h-788q18 -140 99 -217.5t214 -77.5q98 0 167.5 35t134.5 115l162 -148q-163 -218 -464 -218zM631 1241
q-160 0 -248.5 86.5t-88.5 235.5h193q0 -74 38 -117t105 -43t105.5 43t38.5 117h193q0 -149 -88 -235.5t-248 -86.5zM332 668h580q-14 118 -90.5 189t-192.5 71q-119 0 -196 -70t-101 -190z" />
    <glyph glyph-name="Edotaccent" unicode="&#x116;" horiz-adv-x="1204" 
d="M168 0v1475h951v-229h-696v-376h511v-228h-511v-414h696v-228h-951zM643 1647q-67 0 -115 47.5t-48 115.5q0 67 47.5 114.5t115.5 47.5q67 0 114.5 -47t47.5 -115t-47.5 -115.5t-114.5 -47.5z" />
    <glyph glyph-name="edotaccent" unicode="&#x117;" horiz-adv-x="1228" 
d="M639 -31q-217 0 -355 111.5t-188 315.5q-2 10 -2 30v253q0 20 2 29q50 197 189.5 313t340.5 116q211 0 342.5 -109.5t170.5 -307.5q2 -10 2 -29v-183l-27 -28h-788q18 -140 99 -217.5t214 -77.5q98 0 167.5 35t134.5 115l162 -148q-163 -218 -464 -218zM630 1278
q-68 0 -115.5 48t-47.5 115t47.5 115t115.5 48t115.5 -48t47.5 -115t-47.5 -115t-115.5 -48zM332 668h580q-14 118 -90.5 189t-192.5 71q-119 0 -196 -70t-101 -190z" />
    <glyph glyph-name="Eogonek" unicode="&#x118;" horiz-adv-x="1204" 
d="M168 0v1475h951v-229h-696v-376h511v-228h-511v-414h696v-228q-69 -19 -110.5 -62.5t-41.5 -105.5q0 -46 28 -70t78 -24h46v-182h-85q-123 0 -192.5 67.5t-69.5 177.5q0 118 88 199h-692z" />
    <glyph glyph-name="eogonek" unicode="&#x119;" horiz-adv-x="1228" 
d="M749 -444q-123 0 -192.5 67.5t-69.5 177.5q0 97 64 173q-180 21 -295 130t-160 292q-2 10 -2 30v253q0 20 2 29q50 197 189.5 313t340.5 116q211 0 342.5 -109.5t170.5 -307.5q2 -10 2 -29v-183l-27 -28h-788q18 -140 99 -217.5t214 -77.5q98 0 167.5 35t134.5 115
l162 -148q-117 -158 -310 -201q-111 -50 -111 -154q0 -46 28 -70t78 -24h46v-182h-85zM332 668h580q-14 118 -90.5 189t-192.5 71q-119 0 -196 -70t-101 -190z" />
    <glyph glyph-name="Ecaron" unicode="&#x11a;" horiz-adv-x="1204" 
d="M168 0v1475h951v-229h-696v-376h511v-228h-511v-414h696v-228h-951zM537 1610l-260 279v42h217l148 -166l149 166h217v-42l-261 -279h-210z" />
    <glyph glyph-name="ecaron" unicode="&#x11b;" horiz-adv-x="1228" 
d="M639 -31q-217 0 -355 111.5t-188 315.5q-2 10 -2 30v253q0 20 2 29q50 197 189.5 313t340.5 116q211 0 342.5 -109.5t170.5 -307.5q2 -10 2 -29v-183l-27 -28h-788q18 -140 99 -217.5t214 -77.5q98 0 167.5 35t134.5 115l162 -148q-163 -218 -464 -218zM525 1241
l-260 279v43h217l148 -167l149 167h217v-43l-261 -279h-210zM332 668h580q-14 118 -90.5 189t-192.5 71q-119 0 -196 -70t-101 -190z" />
    <glyph glyph-name="Gcircumflex" unicode="&#x11c;" horiz-adv-x="1505" 
d="M789 -31q-268 0 -453 158t-228 420q-1 11 -1 22v336q0 12 1 23q43 264 229 420.5t458 156.5q189 0 321.5 -60.5t245.5 -195.5l-169 -164q-80 100 -169.5 145.5t-223.5 45.5q-169 0 -285.5 -93.5t-150.5 -257.5q-2 -24 -2 -26v-324q0 -2 2 -26q36 -162 150 -256.5
t275 -94.5q216 0 351 145v269h-394v223h644v-557q-100 -151 -253.5 -230t-347.5 -79zM413 1610v42l260 279h210l260 -279v-42h-217l-148 166l-148 -166h-217z" />
    <glyph glyph-name="gcircumflex" unicode="&#x11d;" 
d="M246 -451v222h500q96 0 138.5 36.5t42.5 126.5v195q-59 -71 -148.5 -109t-196.5 -38q-197 0 -323.5 105.5t-163.5 301.5q-5 188 4 359q41 183 167.5 286.5t312.5 103.5q230 0 349 -167l52 135h185v-1169q0 -201 -94.5 -294.5t-289.5 -93.5h-535zM635 185q101 0 178 61
t114 166v299q-72 210 -292 210q-239 0 -297 -234q-12 -114 -4 -236q27 -123 105.5 -194.5t195.5 -71.5zM265 1241v43l260 279h210l260 -279v-43h-217l-148 166l-148 -166h-217z" />
    <glyph glyph-name="Gbreve" unicode="&#x11e;" horiz-adv-x="1505" 
d="M789 -31q-268 0 -453 158t-228 420q-1 11 -1 22v336q0 12 1 23q43 264 229 420.5t458 156.5q189 0 321.5 -60.5t245.5 -195.5l-169 -164q-80 100 -169.5 145.5t-223.5 45.5q-169 0 -285.5 -93.5t-150.5 -257.5q-2 -24 -2 -26v-324q0 -2 2 -26q36 -162 150 -256.5
t275 -94.5q216 0 351 145v269h-394v223h644v-557q-100 -151 -253.5 -230t-347.5 -79zM803 1610q-160 0 -248.5 86t-88.5 235h193q0 -74 38 -116.5t105 -42.5t105 42.5t38 116.5h193q0 -149 -87.5 -235t-247.5 -86z" />
    <glyph glyph-name="gbreve" unicode="&#x11f;" 
d="M246 -451v222h500q96 0 138.5 36.5t42.5 126.5v195q-59 -71 -148.5 -109t-196.5 -38q-197 0 -323.5 105.5t-163.5 301.5q-5 188 4 359q41 183 167.5 286.5t312.5 103.5q230 0 349 -167l52 135h185v-1169q0 -201 -94.5 -294.5t-289.5 -93.5h-535zM635 185q101 0 178 61
t114 166v299q-72 210 -292 210q-239 0 -297 -234q-12 -114 -4 -236q27 -123 105.5 -194.5t195.5 -71.5zM631 1241q-160 0 -248.5 86.5t-88.5 235.5h193q0 -74 38 -117t105 -43t105 42.5t38 117.5h193q0 -150 -88 -236t-247 -86z" />
    <glyph glyph-name="Gdotaccent" unicode="&#x120;" horiz-adv-x="1505" 
d="M789 -31q-268 0 -453 158t-228 420q-1 11 -1 22v336q0 12 1 23q43 264 229 420.5t458 156.5q189 0 321.5 -60.5t245.5 -195.5l-169 -164q-80 100 -169.5 145.5t-223.5 45.5q-169 0 -285.5 -93.5t-150.5 -257.5q-2 -24 -2 -26v-324q0 -2 2 -26q36 -162 150 -256.5
t275 -94.5q216 0 351 145v269h-394v223h644v-557q-100 -151 -253.5 -230t-347.5 -79zM778 1647q-68 0 -115.5 47.5t-47.5 115.5q0 67 47.5 114.5t115.5 47.5t115 -47t47 -115t-47.5 -115.5t-114.5 -47.5z" />
    <glyph glyph-name="gdotaccent" unicode="&#x121;" 
d="M246 -451v222h500q96 0 138.5 36.5t42.5 126.5v195q-59 -71 -148.5 -109t-196.5 -38q-197 0 -323.5 105.5t-163.5 301.5q-5 188 4 359q41 183 167.5 286.5t312.5 103.5q230 0 349 -167l52 135h185v-1169q0 -201 -94.5 -294.5t-289.5 -93.5h-535zM635 185q101 0 178 61
t114 166v299q-72 210 -292 210q-239 0 -297 -234q-12 -114 -4 -236q27 -123 105.5 -194.5t195.5 -71.5zM630 1278q-68 0 -115.5 48t-47.5 115t47.5 115t115.5 48q67 0 114.5 -47.5t47.5 -115.5t-47.5 -115.5t-114.5 -47.5z" />
    <glyph glyph-name="uni0122" unicode="&#x122;" horiz-adv-x="1505" 
d="M789 -31q-268 0 -453 158t-228 420q-1 11 -1 22v336q0 12 1 23q43 264 229 420.5t458 156.5q189 0 321.5 -60.5t245.5 -195.5l-169 -164q-80 100 -169.5 145.5t-223.5 45.5q-169 0 -285.5 -93.5t-150.5 -257.5q-2 -24 -2 -26v-324q0 -2 2 -26q36 -162 150 -256.5
t275 -94.5q216 0 351 145v269h-394v223h644v-557q-100 -151 -253.5 -230t-347.5 -79zM670 -451v340h223v-35l-66 -305h-157z" />
    <glyph glyph-name="uni0123" unicode="&#x123;" 
d="M246 -451v222h500q96 0 138.5 36.5t42.5 126.5v195q-59 -71 -148.5 -109t-196.5 -38q-197 0 -323.5 105.5t-163.5 301.5q-5 188 4 359q41 183 167.5 286.5t312.5 103.5q230 0 349 -167l52 135h185v-1169q0 -201 -94.5 -294.5t-289.5 -93.5h-535zM635 185q101 0 178 61
t114 166v299q-72 210 -292 210q-239 0 -297 -234q-12 -114 -4 -236q27 -123 105.5 -194.5t195.5 -71.5zM518 1241v35l135 287h137v-322h-272z" />
    <glyph glyph-name="Hcircumflex" unicode="&#x124;" horiz-adv-x="1544" 
d="M168 0v1475h255v-624h697v624h256v-1475h-256v623h-697v-623h-255zM406 1610v42l260 279h210l261 -279v-42h-217l-149 166l-148 -166h-217z" />
    <glyph glyph-name="hcircumflex" unicode="&#x125;" horiz-adv-x="1277" 
d="M152 0v1597h237v-635q46 80 131.5 127.5t199.5 47.5q194 0 303.5 -111.5t109.5 -309.5v-716h-238v686q-12 107 -74.5 168t-169.5 61q-95 0 -164 -54t-96 -148v-713h-239zM153 1733v42l260 279h210l261 -279v-42h-217l-149 166l-148 -166h-217z" />
    <glyph glyph-name="Hbar" unicode="&#x126;" horiz-adv-x="1622" 
d="M206 0v1060h-118v208h118v207h255v-207h697v207h256v-207h121v-208h-121v-1060h-256v623h-697v-623h-255zM461 851h697v209h-697v-209z" />
    <glyph glyph-name="hbar" unicode="&#x127;" horiz-adv-x="1318" 
d="M193 0v1247h-138v209h138v141h237v-141h266v-209h-266v-285q46 80 131.5 127.5t199.5 47.5q194 0 303.5 -111.5t109.5 -309.5v-716h-238v686q-12 107 -74.5 168t-169.5 61q-95 0 -164 -54t-96 -148v-713h-239z" />
    <glyph glyph-name="Itilde" unicode="&#x128;" horiz-adv-x="591" 
d="M168 0v1475h255v-1475h-255zM-62 1706q0 99 51.5 156t137.5 57q75 0 147 -44l68 -42q46 -28 72 -28q58 0 58 71v48h183v-90q0 -99 -51.5 -155.5t-138.5 -56.5q-77 0 -151 46l-68 43q-39 25 -68 25q-57 0 -57 -71v-48h-183v89z" />
    <glyph glyph-name="itilde" unicode="&#x129;" horiz-adv-x="542" 
d="M152 0v1106h239v-1106h-239zM-88 1337q0 99 52 156.5t138 57.5q75 0 147 -44l67 -42q46 -28 73 -28q58 0 58 70v48h183v-89q0 -99 -51.5 -156t-138.5 -57q-77 0 -151 46l-68 43q-39 25 -68 25q-57 0 -57 -71v-47h-184v88z" />
    <glyph glyph-name="Imacron" unicode="&#x12a;" horiz-adv-x="591" 
d="M168 0v1475h255v-1475h-255zM-4 1678v185h601v-185h-601z" />
    <glyph glyph-name="imacron" unicode="&#x12b;" horiz-adv-x="542" 
d="M152 0v1106h239v-1106h-239zM-29 1309v186h601v-186h-601z" />
    <glyph glyph-name="Ibreve" unicode="&#x12c;" horiz-adv-x="591" 
d="M168 0v1475h255v-1475h-255zM297 1610q-160 0 -248 86t-88 235h193q0 -74 37.5 -116.5t104.5 -42.5t105.5 42.5t38.5 116.5h193q0 -149 -88 -235t-248 -86z" />
    <glyph glyph-name="ibreve" unicode="&#x12d;" horiz-adv-x="542" 
d="M152 0v1106h239v-1106h-239zM272 1241q-160 0 -248.5 86.5t-88.5 235.5h194q0 -74 37.5 -117t104.5 -43t105.5 43t38.5 117h193q0 -149 -88 -235.5t-248 -86.5z" />
    <glyph glyph-name="Iogonek" unicode="&#x12e;" horiz-adv-x="591" 
d="M339 -444q-123 0 -192.5 67.5t-69.5 177.5q0 119 91 201v1473h255v-1474l1 -1q-69 -19 -110.5 -62.5t-41.5 -105.5q0 -46 28 -70t78 -24h46v-182h-85z" />
    <glyph glyph-name="iogonek" unicode="&#x12f;" horiz-adv-x="542" 
d="M306 -444q-123 0 -193 67.5t-70 177.5q0 130 109 210v1095h239v-1106q-69 -19 -110.5 -62.5t-41.5 -105.5q0 -46 27.5 -70t77.5 -24h47v-182h-85zM271 1278q-67 0 -114.5 47.5t-47.5 115.5t47.5 115.5t114.5 47.5t115 -48t48 -115t-48 -115t-115 -48z" />
    <glyph glyph-name="Idotaccent" unicode="&#x130;" horiz-adv-x="591" 
d="M168 0v1475h255v-1475h-255zM296 1647q-67 0 -114.5 47.5t-47.5 115.5t47 115t115 47t115.5 -47.5t47.5 -114.5q0 -68 -47.5 -115.5t-115.5 -47.5z" />
    <glyph glyph-name="dotlessi" unicode="&#x131;" horiz-adv-x="542" 
d="M152 0v1106h239v-1106h-239z" />
    <glyph glyph-name="IJ" unicode="&#x132;" horiz-adv-x="1677" 
d="M168 0v1475h255v-1475h-255zM1058 -31q-300 0 -473 236l174 170q63 -89 130.5 -128.5t149.5 -39.5q184 0 218 158q5 21 5 43v1067h256v-1026q0 -227 -122 -353.5t-338 -126.5z" />
    <glyph glyph-name="ij" unicode="&#x133;" horiz-adv-x="1085" 
d="M152 0v1106h239v-1106h-239zM271 1278q-67 0 -114.5 47.5t-47.5 115.5t47.5 115.5t114.5 47.5t115 -48t48 -115t-48 -115t-115 -48zM455 -451v222h107q65 0 99 37.5t34 104.5v1193h238v-1227q0 -160 -94 -245t-257 -85h-127zM814 1278q-67 0 -114.5 47.5t-47.5 115.5
t47.5 115.5t114.5 47.5q68 0 115.5 -48t47.5 -115t-47.5 -115t-115.5 -48z" />
    <glyph glyph-name="Jcircumflex" unicode="&#x134;" horiz-adv-x="1124" 
d="M506 -31q-301 0 -474 236l174 170q63 -89 130.5 -128.5t149.5 -39.5q90 0 146.5 40.5t72.5 117.5q5 21 5 43v1067h255v-1026q0 -227 -121.5 -353.5t-337.5 -126.5zM472 1610v42l260 279h210l261 -279v-42h-217l-149 166l-148 -166h-217z" />
    <glyph glyph-name="jcircumflex" unicode="&#x135;" horiz-adv-x="497" 
d="M-110 -451v222h107q65 0 99 37.5t34 104.5v1193h239v-1227q0 -160 -94.5 -245t-257.5 -85h-127zM-113 1241v43l260 279h210l260 -279v-43h-217l-148 166l-148 -166h-217z" />
    <glyph glyph-name="uni0136" unicode="&#x136;" horiz-adv-x="1263" 
d="M168 0v1475h255v-627h90l439 627h275v-43l-508 -695l508 -693v-44h-275l-439 626h-90v-626h-255zM552 -451v340h224v-35l-66 -305h-158z" />
    <glyph glyph-name="uni0137" unicode="&#x137;" horiz-adv-x="1103" 
d="M152 0v1597h239v-933h87l330 442h257v-43l-388 -509l388 -512v-42h-261l-326 442h-87v-442h-239zM460 -451v340h223v-35l-66 -305h-157z" />
    <glyph glyph-name="kgreenlandic" unicode="&#x138;" horiz-adv-x="1103" 
d="M152 0v1106h239v-442h87l330 442h257v-43l-390 -509l390 -512v-42h-261l-326 442h-87v-442h-239z" />
    <glyph glyph-name="Lacute" unicode="&#x139;" horiz-adv-x="1077" 
d="M168 0v1475h255v-1247h650v-228h-905zM174 1610v42l150 279h285v-42l-255 -279h-180z" />
    <glyph glyph-name="lacute" unicode="&#x13a;" horiz-adv-x="653" 
d="M506 0q-174 0 -267.5 83.5t-93.5 245.5v1268h238v-1236q0 -139 125 -139h104v-222h-106zM173 1733v42l150 279h285v-42l-255 -279h-180z" />
    <glyph glyph-name="uni013B" unicode="&#x13b;" horiz-adv-x="1077" 
d="M168 0v1475h255v-1247h650v-228h-905zM467 -451v340h224v-35l-66 -305h-158z" />
    <glyph glyph-name="uni013C" unicode="&#x13c;" horiz-adv-x="653" 
d="M506 0q-174 0 -267.5 83.5t-93.5 245.5v1268h238v-1236q0 -139 125 -139h104v-222h-106zM300 -451v340h223v-35l-66 -305h-157z" />
    <glyph glyph-name="Lcaron" unicode="&#x13d;" horiz-adv-x="1120" 
d="M168 0v1475h255v-1247h650v-228h-905zM837 1077v398h228v-36l-97 -362h-131z" />
    <glyph glyph-name="lcaron" unicode="&#x13e;" horiz-adv-x="661" 
d="M506 0q-174 0 -267.5 83.5t-93.5 245.5v1268h238v-1236q0 -139 125 -139h104v-222h-106zM546 1200v397h228v-35l-97 -362h-131z" />
    <glyph glyph-name="Ldot" unicode="&#x13f;" horiz-adv-x="1083" 
d="M168 0v1475h255v-1247h650v-228h-905zM843 574q-67 0 -115 48t-48 115t48 115t115 48t115 -48t48 -115t-48 -115t-115 -48z" />
    <glyph glyph-name="ldot" unicode="&#x140;" horiz-adv-x="839" 
d="M506 0q-174 0 -267.5 83.5t-93.5 245.5v1268h238v-1236q0 -139 125 -139h104v-222h-106zM696 574q-68 0 -115.5 48t-47.5 115t47.5 115t115.5 48q67 0 114.5 -47.5t47.5 -115.5t-47.5 -115.5t-114.5 -47.5z" />
    <glyph glyph-name="Lslash" unicode="&#x141;" horiz-adv-x="1193" 
d="M67 508v239l175 53v675h255v-598l230 70v-236l-230 -71v-412h649v-228h-904v562z" />
    <glyph glyph-name="lslash" unicode="&#x142;" horiz-adv-x="718" 
d="M62 617v246l149 46v688h238v-614l169 52v-243l-169 -54v-377q0 -139 124 -139h104v-222h-106q-174 0 -267 83.5t-93 245.5v335z" />
    <glyph glyph-name="Nacute" unicode="&#x143;" horiz-adv-x="1558" 
d="M168 0v1475h267l676 -1005h29v1005h250v-1475h-267l-676 1004h-29v-1004h-250zM688 1610v42l150 279h285v-42l-255 -279h-180z" />
    <glyph glyph-name="nacute" unicode="&#x144;" horiz-adv-x="1230" 
d="M152 0v1106h185l52 -144q49 79 135 127t197 48q192 0 302 -117.5t110 -317.5v-702h-238v686q-12 107 -73.5 168t-168.5 61q-95 0 -165 -54t-97 -148v-713h-239zM566 1241v43l150 279h285v-43l-255 -279h-180z" />
    <glyph glyph-name="uni0145" unicode="&#x145;" horiz-adv-x="1558" 
d="M168 0v1475h267l676 -1005h29v1005h250v-1475h-267l-676 1004h-29v-1004h-250zM668 -451v340h223v-35l-66 -305h-157z" />
    <glyph glyph-name="uni0146" unicode="&#x146;" horiz-adv-x="1277" 
d="M152 0v1106h185l52 -144q49 79 135 127t197 48q192 0 302 -117.5t110 -317.5v-702h-238v686q-12 107 -73.5 168t-168.5 61q-95 0 -165 -54t-97 -148v-713h-239zM531 -451v340h223v-35l-65 -305h-158z" />
    <glyph glyph-name="Ncaron" unicode="&#x147;" horiz-adv-x="1558" 
d="M168 0v1475h267l676 -1005h29v1005h250v-1475h-267l-676 1004h-29v-1004h-250zM674 1610l-260 279v42h217l148 -166l149 166h217v-42l-261 -279h-210z" />
    <glyph glyph-name="ncaron" unicode="&#x148;" horiz-adv-x="1277" 
d="M152 0v1106h185l52 -144q49 79 135 127t197 48q192 0 302 -117.5t110 -317.5v-702h-238v686q-12 107 -73.5 168t-168.5 61q-95 0 -165 -54t-97 -148v-713h-239zM574 1241l-260 279v43h217l148 -167l149 167h217v-43l-261 -279h-210z" />
    <glyph glyph-name="Eng" unicode="&#x14a;" horiz-adv-x="1558" 
d="M900 -451v222h107q65 0 99 37.5t34 104.5v87l-693 1004h-29v-1004h-250v1475h267l676 -994h29v994h250v-1596q0 -160 -95 -245t-258 -85h-137z" />
    <glyph glyph-name="eng" unicode="&#x14b;" horiz-adv-x="1277" 
d="M655 -451v222h107q65 0 99 37.5t34 104.5v773q-12 107 -74.5 168t-169.5 61q-95 0 -164 -54t-96 -148v-713h-239v1106h185l52 -144q49 80 133.5 127.5t197.5 47.5q192 0 302.5 -118t110.5 -317v-823q0 -160 -94 -245t-257 -85h-127z" />
    <glyph glyph-name="Omacron" unicode="&#x14c;" horiz-adv-x="1593" 
d="M796 -31q-274 0 -460.5 154.5t-227.5 426.5q-1 7 -1 22v331q0 15 1 22q41 272 227.5 426t460.5 154t460.5 -154t227.5 -426q1 -7 1 -22v-331q0 -15 -1 -22q-41 -272 -227.5 -426.5t-460.5 -154.5zM796 198q170 0 287 96t145 266q2 16 2 23v310q0 8 -2 22
q-28 170 -145 265.5t-287 95.5q-171 0 -287.5 -95.5t-144.5 -265.5q-2 -14 -2 -22v-310q0 -7 2 -23q28 -170 144.5 -266t287.5 -96zM496 1678v185h601v-185h-601z" />
    <glyph glyph-name="omacron" unicode="&#x14d;" horiz-adv-x="1273" 
d="M639 -31q-128 0 -241 49t-194.5 145t-107.5 224q-2 10 -2 33v266q0 23 2 33q26 128 107.5 224t194.5 145t241 49q197 0 351 -113.5t193 -304.5q3 -15 3 -33v-266q0 -18 -3 -33q-39 -191 -193 -304.5t-351 -113.5zM639 185q111 0 197.5 60t108.5 167q2 9 2 30v222
q0 21 -2 30q-22 107 -108.5 167t-197.5 60q-110 0 -196.5 -60t-108.5 -167q-2 -9 -2 -30v-222q0 -21 2 -30q22 -107 108.5 -167t196.5 -60zM337 1309v186h601v-186h-601z" />
    <glyph glyph-name="Obreve" unicode="&#x14e;" horiz-adv-x="1593" 
d="M796 -31q-274 0 -460.5 154.5t-227.5 426.5q-1 7 -1 22v331q0 15 1 22q41 272 227.5 426t460.5 154t460.5 -154t227.5 -426q1 -7 1 -22v-331q0 -15 -1 -22q-41 -272 -227.5 -426.5t-460.5 -154.5zM796 198q170 0 287 96t145 266q2 16 2 23v310q0 8 -2 22
q-28 170 -145 265.5t-287 95.5q-171 0 -287.5 -95.5t-144.5 -265.5q-2 -14 -2 -22v-310q0 -7 2 -23q28 -170 144.5 -266t287.5 -96zM798 1610q-160 0 -248.5 86t-88.5 235h193q0 -74 38 -116.5t105 -42.5t105 42.5t38 116.5h193q0 -149 -87.5 -235t-247.5 -86z" />
    <glyph glyph-name="obreve" unicode="&#x14f;" horiz-adv-x="1273" 
d="M639 -31q-128 0 -241 49t-194.5 145t-107.5 224q-2 10 -2 33v266q0 23 2 33q26 128 107.5 224t194.5 145t241 49q197 0 351 -113.5t193 -304.5q3 -15 3 -33v-266q0 -18 -3 -33q-39 -191 -193 -304.5t-351 -113.5zM639 185q111 0 197.5 60t108.5 167q2 9 2 30v222
q0 21 -2 30q-22 107 -108.5 167t-197.5 60q-110 0 -196.5 -60t-108.5 -167q-2 -9 -2 -30v-222q0 -21 2 -30q22 -107 108.5 -167t196.5 -60zM638 1241q-160 0 -248 86.5t-88 235.5h193q0 -74 37.5 -117t104.5 -43t105.5 43t38.5 117h193q0 -149 -88 -235.5t-248 -86.5z" />
    <glyph glyph-name="Ohungarumlaut" unicode="&#x150;" horiz-adv-x="1593" 
d="M796 -31q-274 0 -460.5 154.5t-227.5 426.5q-1 7 -1 22v331q0 15 1 22q41 272 227.5 426t460.5 154t460.5 -154t227.5 -426q1 -7 1 -22v-331q0 -15 -1 -22q-41 -272 -227.5 -426.5t-460.5 -154.5zM796 198q170 0 287 96t145 266q2 16 2 23v310q0 8 -2 22
q-28 170 -145 265.5t-287 95.5q-171 0 -287.5 -95.5t-144.5 -265.5q-2 -14 -2 -22v-310q0 -7 2 -23q28 -170 144.5 -266t287.5 -96zM530 1610v42l94 279h256v-42l-201 -279h-149zM914 1610v42l93 279h256v-42l-201 -279h-148z" />
    <glyph glyph-name="ohungarumlaut" unicode="&#x151;" horiz-adv-x="1273" 
d="M639 -31q-128 0 -241 49t-194.5 145t-107.5 224q-2 10 -2 33v266q0 23 2 33q26 128 107.5 224t194.5 145t241 49q197 0 351 -113.5t193 -304.5q3 -15 3 -33v-266q0 -18 -3 -33q-39 -191 -193 -304.5t-351 -113.5zM639 185q111 0 197.5 60t108.5 167q2 9 2 30v222
q0 21 -2 30q-22 107 -108.5 167t-197.5 60q-110 0 -196.5 -60t-108.5 -167q-2 -9 -2 -30v-222q0 -21 2 -30q22 -107 108.5 -167t196.5 -60zM372 1241v43l93 279h256v-43l-200 -279h-149zM755 1241v43l93 279h256v-43l-200 -279h-149z" />
    <glyph glyph-name="OE" unicode="&#x152;" horiz-adv-x="2265" 
d="M796 -31q-277 0 -462.5 156.5t-225.5 424.5q-1 8 -1 31v312q0 22 1 32q40 268 225.5 424t462.5 156q276 0 434 -183v153h951v-229h-696v-376h511v-228h-511v-414h696v-228h-951v172q-77 -104 -179.5 -153.5t-254.5 -49.5zM796 198q172 0 288 96t144 266q2 9 2 31v294
q0 19 -2 30q-28 169 -144.5 265t-287.5 96t-287.5 -96t-144.5 -265q-2 -22 -2 -30v-294q0 -13 2 -31q28 -170 144 -266t288 -96z" />
    <glyph glyph-name="oe" unicode="&#x153;" horiz-adv-x="2084" 
d="M639 -31q-128 0 -241 49t-194.5 145t-107.5 224q-2 10 -2 33v266q0 23 2 33q26 128 107.5 224t194.5 145t241 49q127 0 241 -49.5t191 -139.5q156 189 412 189q211 0 342.5 -109.5t170.5 -307.5q2 -10 2 -29v-183l-27 -28h-780q17 -140 96 -217.5t209 -77.5q97 0 166 35
t135 115l162 -148q-163 -218 -463 -218q-278 0 -429 185q-78 -88 -190.5 -136.5t-237.5 -48.5zM639 185q111 0 199 60t110 167q2 9 2 30v222q0 21 -2 30q-22 107 -110 167t-199 60q-71 0 -134.5 -25.5t-111 -78t-62.5 -123.5q-2 -9 -2 -30v-222q0 -21 2 -30
q15 -71 62.5 -123.5t111 -78t134.5 -25.5zM1197 668h572q-14 118 -90.5 189t-192.5 71t-190.5 -70t-98.5 -190z" />
    <glyph glyph-name="Racute" unicode="&#x154;" horiz-adv-x="1343" 
d="M168 0v1475h596q201 0 321 -81.5t140 -223.5q2 -7 2 -24v-263q0 -13 -3 -25q-17 -87 -84 -157t-172 -109l280 -550v-42h-257l-271 541h-297v-541h-255zM765 770q91 0 143 35.5t70 108.5q2 7 2 24v139q0 17 -2 25q-37 144 -213 144h-342v-476h342zM584 1610v42l150 279
h286v-42l-255 -279h-181z" />
    <glyph glyph-name="racute" unicode="&#x155;" horiz-adv-x="825" 
d="M152 0v1106h185l52 -141q69 141 222 141h126v-228h-151q-178 0 -195 -188v-690h-239zM352 1241v43l150 279h286v-43l-255 -279h-181z" />
    <glyph glyph-name="uni0156" unicode="&#x156;" horiz-adv-x="1343" 
d="M168 0v1475h596q201 0 321 -81.5t140 -223.5q2 -7 2 -24v-263q0 -13 -3 -25q-17 -87 -84 -157t-172 -109l280 -550v-42h-257l-271 541h-297v-541h-255zM765 770q91 0 143 35.5t70 108.5q2 7 2 24v139q0 17 -2 25q-37 144 -213 144h-342v-476h342zM564 -451v340h223v-35
l-65 -305h-158z" />
    <glyph glyph-name="uni0157" unicode="&#x157;" horiz-adv-x="825" 
d="M152 0v1106h185l52 -141q69 141 222 141h126v-228h-151q-178 0 -195 -188v-690h-239zM160 -451v340h223v-35l-66 -305h-157z" />
    <glyph glyph-name="Rcaron" unicode="&#x158;" horiz-adv-x="1343" 
d="M168 0v1475h596q201 0 321 -81.5t140 -223.5q2 -7 2 -24v-263q0 -13 -3 -25q-17 -87 -84 -157t-172 -109l280 -550v-42h-257l-271 541h-297v-541h-255zM765 770q91 0 143 35.5t70 108.5q2 7 2 24v139q0 17 -2 25q-37 144 -213 144h-342v-476h342zM571 1610l-260 279v42
h217l148 -166l148 166h217v-42l-260 -279h-210z" />
    <glyph glyph-name="rcaron" unicode="&#x159;" horiz-adv-x="825" 
d="M152 0v1106h185l52 -141q69 141 222 141h126v-228h-151q-178 0 -195 -188v-690h-239zM339 1241l-260 279v43h217l148 -167l148 167h217v-43l-260 -279h-210z" />
    <glyph glyph-name="Sacute" unicode="&#x15a;" horiz-adv-x="1263" 
d="M641 -31q-384 0 -571 294l183 166q87 -121 175.5 -176t204.5 -55q102 0 172.5 37t99.5 106q6 15 6 34v69q0 18 -6 32q-17 46 -68.5 79t-147.5 58l-187 50q-158 43 -244.5 123.5t-116.5 200.5q-4 11 -4 27v136q0 13 5 31q34 141 175.5 232.5t330.5 91.5q169 0 293 -60
t221 -189l-180 -159q-71 99 -147.5 139t-187.5 40q-91 0 -156.5 -37.5t-93.5 -104.5q-2 -5 -2 -21v-59q0 -8 2 -18q19 -54 68 -89.5t137 -59.5l201 -56q151 -42 245 -113t113 -169q3 -13 3 -27v-211q0 -14 -6 -32q-41 -138 -179 -224t-338 -86zM558 1610v42l150 279h285v-42
l-255 -279h-180z" />
    <glyph glyph-name="sacute" unicode="&#x15b;" horiz-adv-x="1021" 
d="M502 -31q-137 0 -251.5 59t-182.5 166l169 147q35 -76 112 -123.5t155 -47.5q72 0 123.5 28.5t66.5 75.5q1 5 1 15v49q0 8 -1 11q-12 37 -45 60t-100 40l-181 46q-221 58 -258 236q-2 12 -2 18v113q0 6 2 16q30 112 145 185.5t265 73.5q261 0 410 -199l-159 -137
q-46 69 -107.5 101.5t-148.5 32.5q-64 0 -112 -25.5t-61 -68.5q-1 -4 -1 -11v-30q0 -6 1 -9q12 -40 46.5 -64.5t99.5 -39.5l153 -36q122 -28 189 -82t96 -144q4 -14 4 -24v-145q0 -16 -4 -27q-37 -121 -147.5 -190.5t-276.5 -69.5zM410 1241v43l150 279h285v-43l-255 -279
h-180z" />
    <glyph glyph-name="Scircumflex" unicode="&#x15c;" horiz-adv-x="1263" 
d="M641 -31q-384 0 -571 294l183 166q87 -121 175.5 -176t204.5 -55q102 0 172.5 37t99.5 106q6 15 6 34v69q0 18 -6 32q-17 46 -68.5 79t-147.5 58l-187 50q-158 43 -244.5 123.5t-116.5 200.5q-4 11 -4 27v136q0 13 5 31q34 141 175.5 232.5t330.5 91.5q169 0 293 -60
t221 -189l-180 -159q-71 99 -147.5 139t-187.5 40q-91 0 -156.5 -37.5t-93.5 -104.5q-2 -5 -2 -21v-59q0 -8 2 -18q19 -54 68 -89.5t137 -59.5l201 -56q151 -42 245 -113t113 -169q3 -13 3 -27v-211q0 -14 -6 -32q-41 -138 -179 -224t-338 -86zM284 1610v42l260 279h210
l261 -279v-42h-217l-149 166l-148 -166h-217z" />
    <glyph glyph-name="scircumflex" unicode="&#x15d;" horiz-adv-x="1021" 
d="M502 -31q-137 0 -251.5 59t-182.5 166l169 147q35 -76 112 -123.5t155 -47.5q72 0 123.5 28.5t66.5 75.5q1 5 1 15v49q0 8 -1 11q-12 37 -45 60t-100 40l-181 46q-221 58 -258 236q-2 12 -2 18v113q0 6 2 16q30 112 145 185.5t265 73.5q261 0 410 -199l-159 -137
q-46 69 -107.5 101.5t-148.5 32.5q-64 0 -112 -25.5t-61 -68.5q-1 -4 -1 -11v-30q0 -6 1 -9q12 -40 46.5 -64.5t99.5 -39.5l153 -36q122 -28 189 -82t96 -144q4 -14 4 -24v-145q0 -16 -4 -27q-37 -121 -147.5 -190.5t-276.5 -69.5zM136 1241v43l260 279h210l261 -279v-43
h-217l-149 166l-148 -166h-217z" />
    <glyph glyph-name="Scedilla" unicode="&#x15e;" horiz-adv-x="1263" 
d="M421 -444v182h56q75 0 113 34t38 92q0 64 -43 107q-343 21 -515 292l183 166q87 -121 175.5 -176t204.5 -55q102 0 172.5 37t99.5 106q6 15 6 34v69q0 18 -6 32q-17 46 -68.5 79t-147.5 58l-187 50q-158 43 -244.5 123.5t-116.5 200.5q-4 11 -4 27v136q0 13 5 31
q34 141 175.5 232.5t330.5 91.5q169 0 293 -60t221 -189l-180 -159q-71 99 -147.5 139t-187.5 40q-91 0 -156.5 -37.5t-93.5 -104.5q-2 -5 -2 -21v-59q0 -8 2 -18q19 -54 68 -89.5t137 -59.5l201 -56q151 -42 245 -113t113 -169q3 -13 3 -27v-211q0 -14 -6 -32
q-34 -113 -134 -192.5t-249 -105.5q47 -58 47 -155q0 -122 -83.5 -196t-218.5 -74h-99z" />
    <glyph glyph-name="scedilla" unicode="&#x15f;" horiz-adv-x="1021" 
d="M287 -444v182h56q75 0 113 34t38 92q0 66 -43 107q-122 11 -222 68.5t-161 154.5l169 147q35 -76 112 -123.5t155 -47.5q72 0 123.5 28.5t66.5 75.5q1 5 1 15v49q0 8 -1 11q-12 37 -45 60t-100 40l-181 46q-221 58 -258 236q-2 12 -2 18v113q0 6 2 16q30 112 145 185.5
t265 73.5q261 0 410 -199l-159 -137q-46 69 -107.5 101.5t-148.5 32.5q-64 0 -112 -25.5t-61 -68.5q-1 -4 -1 -11v-30q0 -6 1 -9q12 -40 46.5 -64.5t99.5 -39.5l153 -36q122 -28 189 -82t96 -144q4 -14 4 -24v-145q0 -16 -4 -27q-28 -93 -102 -156.5t-185 -88.5
q49 -58 49 -158q0 -122 -83 -196t-218 -74h-100z" />
    <glyph glyph-name="Scaron" unicode="&#x160;" horiz-adv-x="1263" 
d="M641 -31q-384 0 -571 294l183 166q87 -121 175.5 -176t204.5 -55q102 0 172.5 37t99.5 106q6 15 6 34v69q0 18 -6 32q-17 46 -68.5 79t-147.5 58l-187 50q-158 43 -244.5 123.5t-116.5 200.5q-4 11 -4 27v136q0 13 5 31q34 141 175.5 232.5t330.5 91.5q169 0 293 -60
t221 -189l-180 -159q-71 99 -147.5 139t-187.5 40q-91 0 -156.5 -37.5t-93.5 -104.5q-2 -5 -2 -21v-59q0 -8 2 -18q19 -54 68 -89.5t137 -59.5l201 -56q151 -42 245 -113t113 -169q3 -13 3 -27v-211q0 -14 -6 -32q-41 -138 -179 -224t-338 -86zM544 1610l-260 279v42h217
l148 -166l149 166h217v-42l-261 -279h-210z" />
    <glyph glyph-name="scaron" unicode="&#x161;" horiz-adv-x="1021" 
d="M502 -31q-137 0 -251.5 59t-182.5 166l169 147q35 -76 112 -123.5t155 -47.5q72 0 123.5 28.5t66.5 75.5q1 5 1 15v49q0 8 -1 11q-12 37 -45 60t-100 40l-181 46q-221 58 -258 236q-2 12 -2 18v113q0 6 2 16q30 112 145 185.5t265 73.5q261 0 410 -199l-159 -137
q-46 69 -107.5 101.5t-148.5 32.5q-64 0 -112 -25.5t-61 -68.5q-1 -4 -1 -11v-30q0 -6 1 -9q12 -40 46.5 -64.5t99.5 -39.5l153 -36q122 -28 189 -82t96 -144q4 -14 4 -24v-145q0 -16 -4 -27q-37 -121 -147.5 -190.5t-276.5 -69.5zM396 1241l-260 279v43h217l148 -167
l149 167h217v-43l-261 -279h-210z" />
    <glyph glyph-name="uni0162" unicode="&#x162;" horiz-adv-x="1191" 
d="M384 -444v182h55q76 0 113.5 33.5t37.5 92.5q0 46 -22 82t-62 54h-38v1246h-424v229h1103v-229h-424v-1246q62 -60 62 -174q0 -122 -83.5 -196t-218.5 -74h-99z" />
    <glyph glyph-name="uni0163" unicode="&#x163;" horiz-adv-x="796" 
d="M306 -444v182h55q76 0 114 33.5t38 92.5q0 63 -25 102.5t-84 70.5q-167 91 -167 292v559h-169v218h169v73l117 214h121v-287h253v-218h-253v-524q0 -67 34 -104.5t99 -37.5h107v-222h-74q66 -58 66 -174q0 -122 -83.5 -196t-218.5 -74h-99z" />
    <glyph glyph-name="Tcaron" unicode="&#x164;" horiz-adv-x="1191" 
d="M468 0v1246h-424v229h1103v-229h-424v-1246h-255zM492 1610l-260 279v42h217l148 -166l148 166h218v-42l-261 -279h-210z" />
    <glyph glyph-name="tcaron" unicode="&#x165;" horiz-adv-x="747" 
d="M588 0q-163 0 -257 84.5t-94 244.5v557h-169v220h169v73l117 214h121v-287h253v-220h-253v-522q0 -67 34 -104.5t99 -37.5h107v-222h-127zM610 1200v397h228v-35l-97 -362h-131z" />
    <glyph glyph-name="Tbar" unicode="&#x166;" horiz-adv-x="1204" 
d="M204 615v214h276v417h-424v229h1104v-229h-424v-417h277v-214h-277v-615h-256v615h-276z" />
    <glyph glyph-name="tbar" unicode="&#x167;" horiz-adv-x="821" 
d="M68 487v186h194v213h-169v220h169v73l118 214h121v-287h253v-220h-253v-213h226v-186h-226v-123q0 -67 34 -104.5t99 -37.5h106v-222h-127q-163 0 -257 84.5t-94 244.5v158h-194z" />
    <glyph glyph-name="Utilde" unicode="&#x168;" horiz-adv-x="1478" 
d="M739 -31q-256 0 -416.5 144.5t-160.5 380.5v981h255v-1008q0 -12 5 -39q24 -107 107 -168.5t210 -61.5t210.5 62t107.5 168q4 16 4 39v1008h256v-981q0 -237 -159 -381t-419 -144zM381 1706q0 99 52 156t138 57q75 0 147 -44l67 -42q46 -28 73 -28q58 0 58 71v48h183v-90
q0 -99 -51.5 -155.5t-138.5 -56.5q-77 0 -151 46l-68 43q-39 25 -68 25q-57 0 -57 -71v-48h-184v89z" />
    <glyph glyph-name="utilde" unicode="&#x169;" horiz-adv-x="1265" 
d="M551 -31q-192 0 -299.5 111.5t-107.5 309.5v716h238v-686q11 -106 73 -167.5t165 -61.5q94 0 160.5 53.5t93.5 148.5v713h239v-1106h-185l-52 144q-46 -81 -129 -128t-196 -47zM269 1337q0 99 52 156.5t138 57.5q75 0 147 -44l67 -42q46 -28 73 -28q58 0 58 70v48h183
v-89q0 -99 -51.5 -156t-138.5 -57q-77 0 -151 46l-68 43q-39 25 -68 25q-57 0 -57 -71v-47h-184v88z" />
    <glyph glyph-name="Umacron" unicode="&#x16a;" horiz-adv-x="1478" 
d="M739 -31q-256 0 -416.5 144.5t-160.5 380.5v981h255v-1008q0 -12 5 -39q24 -107 107 -168.5t210 -61.5t210.5 62t107.5 168q4 16 4 39v1008h256v-981q0 -237 -159 -381t-419 -144zM440 1678v185h601v-185h-601z" />
    <glyph glyph-name="umacron" unicode="&#x16b;" horiz-adv-x="1265" 
d="M551 -31q-192 0 -299.5 111.5t-107.5 309.5v716h238v-686q11 -106 73 -167.5t165 -61.5q94 0 160.5 53.5t93.5 148.5v713h239v-1106h-185l-52 144q-46 -81 -129 -128t-196 -47zM328 1309v186h601v-186h-601z" />
    <glyph glyph-name="Ubreve" unicode="&#x16c;" horiz-adv-x="1478" 
d="M739 -31q-256 0 -416.5 144.5t-160.5 380.5v981h255v-1008q0 -12 5 -39q24 -107 107 -168.5t210 -61.5t210.5 62t107.5 168q4 16 4 39v1008h256v-981q0 -237 -159 -381t-419 -144zM741 1610q-160 0 -248.5 86t-88.5 235h194q0 -74 37.5 -116.5t104.5 -42.5t105.5 42.5
t38.5 116.5h193q0 -149 -88 -235t-248 -86z" />
    <glyph glyph-name="ubreve" unicode="&#x16d;" horiz-adv-x="1265" 
d="M551 -31q-192 0 -299.5 111.5t-107.5 309.5v716h238v-686q11 -106 73 -167.5t165 -61.5q94 0 160.5 53.5t93.5 148.5v713h239v-1106h-185l-52 144q-46 -81 -129 -128t-196 -47zM629 1241q-160 0 -248.5 86.5t-88.5 235.5h193q0 -74 38 -117t105 -43t105.5 43t38.5 117
h193q0 -149 -88 -235.5t-248 -86.5z" />
    <glyph glyph-name="Uring" unicode="&#x16e;" horiz-adv-x="1478" 
d="M739 -31q-256 0 -416.5 144.5t-160.5 380.5v981h255v-1008q0 -12 5 -39q24 -107 107 -168.5t210 -61.5t210.5 62t107.5 168q4 16 4 39v1008h256v-981q0 -237 -159 -381t-419 -144zM739 1586q-96 0 -157 60t-61 150q0 92 61 153t157 61t157.5 -61t61.5 -153
q0 -90 -61.5 -150t-157.5 -60zM739 1712q35 0 60 24.5t25 59.5q0 38 -24.5 63t-60.5 25q-37 0 -61.5 -24.5t-24.5 -63.5q0 -36 24.5 -60t61.5 -24z" />
    <glyph glyph-name="uring" unicode="&#x16f;" horiz-adv-x="1265" 
d="M551 -31q-192 0 -299.5 111.5t-107.5 309.5v716h238v-686q11 -106 73 -167.5t165 -61.5q94 0 160.5 53.5t93.5 148.5v713h239v-1106h-185l-52 144q-46 -81 -129 -128t-196 -47zM627 1218q-96 0 -157 59.5t-61 149.5q0 92 61 153t157 61t157.5 -61t61.5 -153
q0 -90 -61.5 -149.5t-157.5 -59.5zM627 1343q35 0 60 24.5t25 59.5q0 38 -24.5 63t-60.5 25q-37 0 -61.5 -24.5t-24.5 -63.5q0 -36 24.5 -60t61.5 -24z" />
    <glyph glyph-name="Uhungarumlaut" unicode="&#x170;" horiz-adv-x="1478" 
d="M739 -31q-256 0 -416.5 144.5t-160.5 380.5v981h255v-1008q0 -12 5 -39q24 -107 107 -168.5t210 -61.5t210.5 62t107.5 168q4 16 4 39v1008h256v-981q0 -237 -159 -381t-419 -144zM474 1610v42l94 279h255v-42l-200 -279h-149zM858 1610v42l93 279h256v-42l-201 -279
h-148z" />
    <glyph glyph-name="uhungarumlaut" unicode="&#x171;" horiz-adv-x="1265" 
d="M551 -31q-192 0 -299.5 111.5t-107.5 309.5v716h238v-686q11 -106 73 -167.5t165 -61.5q94 0 160.5 53.5t93.5 148.5v713h239v-1106h-185l-52 144q-46 -81 -129 -128t-196 -47zM362 1241v43l94 279h255v-43l-200 -279h-149zM745 1241v43l94 279h256v-43l-201 -279h-149z
" />
    <glyph glyph-name="Uogonek" unicode="&#x172;" horiz-adv-x="1478" 
d="M864 -444q-123 0 -192.5 67.5t-69.5 177.5q0 97 62 172q-226 21 -364 162.5t-138 358.5v981h255v-1008q0 -12 5 -39q24 -107 107 -168.5t210 -61.5t210.5 62t107.5 168q4 16 4 39v1008h256v-981q0 -193 -107 -326t-292 -178q-56 -23 -88.5 -63.5t-32.5 -94.5
q0 -46 28 -70t78 -24h46v-182h-85z" />
    <glyph glyph-name="uogonek" unicode="&#x173;" horiz-adv-x="1265" 
d="M551 -31q-192 0 -299.5 111.5t-107.5 309.5v716h238v-686q11 -106 73 -167.5t165 -61.5q94 0 160.5 53.5t93.5 148.5v713h239v-1106q-69 -19 -110.5 -62.5t-41.5 -105.5q0 -46 27.5 -70t77.5 -24h47v-182h-85q-123 0 -193 67.5t-70 177.5q0 154 147 242l-36 101
q-46 -81 -129 -128t-196 -47z" />
    <glyph glyph-name="Wcircumflex" unicode="&#x174;" horiz-adv-x="2007" 
d="M385 0l-322 1432v43h270l216 -1079h35l264 1079h312l263 -1079h36l216 1079h269v-43l-321 -1432h-319l-283 1078h-35l-283 -1078h-318zM639 1610v42l260 279h210l261 -279v-42h-217l-149 166l-148 -166h-217z" />
    <glyph glyph-name="wcircumflex" unicode="&#x175;" horiz-adv-x="1724" 
d="M357 0l-307 1063v43h237l191 -758h29l237 758h236l238 -758h29l191 758h237v-43l-307 -1063h-258l-233 748h-29l-233 -748h-258zM497 1241v43l260 279h210l260 -279v-43h-217l-148 166l-148 -166h-217z" />
    <glyph glyph-name="Ycircumflex" unicode="&#x176;" horiz-adv-x="1304" 
d="M524 0v548l-500 884v43h269l344 -640h30l345 640h269v-43l-501 -884v-548h-256zM287 1610v42l260 279h210l260 -279v-42h-217l-148 166l-148 -166h-217z" />
    <glyph glyph-name="ycircumflex" unicode="&#x177;" horiz-adv-x="1191" 
d="M160 -451v222h144q161 0 161 125q0 39 -37 136l-396 1031v43h247l304 -840h29l280 840h243v-43l-461 -1262q-35 -96 -80 -149.5t-115.5 -78t-182.5 -24.5h-136zM218 1241v43l260 279h210l261 -279v-43h-217l-149 166l-148 -166h-217z" />
    <glyph glyph-name="Ydieresis" unicode="&#x178;" horiz-adv-x="1304" 
d="M524 0v548l-500 884v43h269l344 -640h30l345 640h269v-43l-501 -884v-548h-256zM446 1624q-60 0 -103 43t-43 103t43 103.5t103 43.5t103 -43.5t43 -103.5t-43 -103t-103 -43zM857 1624q-60 0 -103.5 43t-43.5 103t43.5 103.5t103.5 43.5t103 -43.5t43 -103.5t-43 -103
t-103 -43z" />
    <glyph glyph-name="Zacute" unicode="&#x179;" horiz-adv-x="1206" 
d="M83 0v227l707 990v29h-680v229h992v-229l-707 -988v-30h722v-228h-1034zM507 1610v42l150 279h286v-42l-255 -279h-181z" />
    <glyph glyph-name="zacute" unicode="&#x17a;" horiz-adv-x="1024" 
d="M83 0v214l523 641v29h-502v222h809v-214l-522 -641v-29h543v-222h-851zM418 1241v43l150 279h286v-43l-255 -279h-181z" />
    <glyph glyph-name="Zdotaccent" unicode="&#x17b;" horiz-adv-x="1206" 
d="M83 0v227l707 990v29h-680v229h992v-229l-707 -988v-30h722v-228h-1034zM599 1647q-67 0 -115 47.5t-48 115.5q0 67 47.5 114.5t115.5 47.5q67 0 114.5 -47t47.5 -115t-47.5 -115.5t-114.5 -47.5z" />
    <glyph glyph-name="zdotaccent" unicode="&#x17c;" horiz-adv-x="1024" 
d="M83 0v214l523 641v29h-502v222h809v-214l-522 -641v-29h543v-222h-851zM510 1278q-68 0 -115.5 48t-47.5 115t47.5 115t115.5 48q67 0 114.5 -47.5t47.5 -115.5t-47.5 -115.5t-114.5 -47.5z" />
    <glyph glyph-name="Zcaron" unicode="&#x17d;" horiz-adv-x="1206" 
d="M83 0v227l707 990v29h-680v229h992v-229l-707 -988v-30h722v-228h-1034zM494 1610l-260 279v42h217l148 -166l149 166h217v-42l-261 -279h-210z" />
    <glyph glyph-name="zcaron" unicode="&#x17e;" horiz-adv-x="1024" 
d="M83 0v214l523 641v29h-502v222h809v-214l-522 -641v-29h543v-222h-851zM405 1241l-260 279v43h217l148 -167l148 167h218v-43l-261 -279h-210z" />
    <glyph glyph-name="florin" unicode="&#x192;" horiz-adv-x="864" 
d="M295 888h-197v218h197v163q0 160 94.5 244.5t257.5 84.5h162v-222h-142q-65 0 -99 -37.5t-34 -104.5v-128h275v-218h-275v-1009q0 -160 -94.5 -245t-257.5 -85h-127v222h107q65 0 99 37.5t34 104.5v975z" />
    <glyph glyph-name="uni01B5" unicode="&#x1b5;" horiz-adv-x="1212" 
d="M90 0v227l289 406h-178v208h327l269 376v29h-680v229h991v-229l-289 -405h195v-208h-344l-269 -375v-30h722v-228h-1033z" />
    <glyph glyph-name="uni01B6" unicode="&#x1b6;" horiz-adv-x="1030" 
d="M158 460v186h283l170 209v29h-501v222h809v-214l-201 -246h151v-186h-302l-171 -209v-29h544v-222h-851v214l201 246h-132z" />
    <glyph glyph-name="AEacute" unicode="&#x1fc;" horiz-adv-x="2138" 
d="M26 0v35l999 1440h1028v-223h-695v-385h511v-222h-511v-422h695v-225h-945v337h-595l-223 -335h-264zM665 564h443v622h-29zM1319 1610v42l150 279h286v-42l-255 -279h-181z" />
    <glyph glyph-name="aeacute" unicode="&#x1fd;" horiz-adv-x="1921" 
d="M1331 -31q-302 0 -450 214q-80 -112 -175 -163t-246 -51q-140 0 -242 71t-123 187v192q32 117 138.5 183t266.5 66h274v39q0 93 -40.5 135t-133.5 42h-409v222h444q212 0 303 -122q148 153 381 153q211 0 342 -109.5t170 -307.5q3 -15 3 -29v-183l-28 -28h-789
q18 -140 99 -217.5t215 -77.5q98 0 167.5 35t134.5 115l162 -148q-163 -218 -464 -218zM516 179q82 0 141 30.5t117 103.5v167h-251q-82 0 -133 -30t-65 -84v-77q12 -51 64.5 -80.5t126.5 -29.5zM1605 668q-14 117 -90.5 188.5t-193.5 71.5q-120 0 -196.5 -70t-101.5 -190
h582zM848 1241v43l150 279h286v-43l-255 -279h-181z" />
    <glyph glyph-name="uni0218" unicode="&#x218;" horiz-adv-x="1263" 
d="M641 -31q-384 0 -571 294l183 166q87 -121 175.5 -176t204.5 -55q102 0 172.5 37t99.5 106q6 15 6 34v69q0 18 -6 32q-17 46 -68.5 79t-147.5 58l-187 50q-158 43 -244.5 123.5t-116.5 200.5q-4 11 -4 27v136q0 13 5 31q34 141 175.5 232.5t330.5 91.5q169 0 293 -60
t221 -189l-180 -159q-71 99 -147.5 139t-187.5 40q-91 0 -156.5 -37.5t-93.5 -104.5q-2 -5 -2 -21v-59q0 -8 2 -18q19 -54 68 -89.5t137 -59.5l201 -56q151 -42 245 -113t113 -169q3 -13 3 -27v-211q0 -14 -6 -32q-41 -138 -179 -224t-338 -86zM523 -451v340h223v-35
l-65 -305h-158z" />
    <glyph glyph-name="uni0219" unicode="&#x219;" horiz-adv-x="1021" 
d="M502 -31q-137 0 -251.5 59t-182.5 166l169 147q35 -76 112 -123.5t155 -47.5q72 0 123.5 28.5t66.5 75.5q1 5 1 15v49q0 8 -1 11q-12 37 -45 60t-100 40l-181 46q-221 58 -258 236q-2 12 -2 18v113q0 6 2 16q30 112 145 185.5t265 73.5q261 0 410 -199l-159 -137
q-46 69 -107.5 101.5t-148.5 32.5q-64 0 -112 -25.5t-61 -68.5q-1 -4 -1 -11v-30q0 -6 1 -9q12 -40 46.5 -64.5t99.5 -39.5l153 -36q122 -28 189 -82t96 -144q4 -14 4 -24v-145q0 -16 -4 -27q-37 -121 -147.5 -190.5t-276.5 -69.5zM390 -451v340h223v-35l-66 -305h-157z" />
    <glyph glyph-name="uni021A" unicode="&#x21a;" horiz-adv-x="1191" 
d="M468 0v1246h-424v229h1103v-229h-424v-1246h-255zM485 -451v340h224v-35l-66 -305h-158z" />
    <glyph glyph-name="uni021B" unicode="&#x21b;" horiz-adv-x="796" 
d="M588 0q-163 0 -257 84.5t-94 244.5v557h-169v220h169v73l117 214h121v-287h253v-220h-253v-522q0 -67 34 -104.5t99 -37.5h107v-222h-127zM408 -451v340h223v-35l-66 -305h-157z" />
    <glyph glyph-name="uni0237" unicode="&#x237;" horiz-adv-x="497" 
d="M-110 -451v222h107q65 0 99 37.5t34 104.5v1193h239v-1227q0 -160 -94.5 -245t-257.5 -85h-127z" />
    <glyph glyph-name="circumflex" unicode="&#x2c6;" horiz-adv-x="1017" 
d="M143 1241v43l260 279h210l261 -279v-43h-217l-149 166l-148 -166h-217z" />
    <glyph glyph-name="caron" unicode="&#x2c7;" horiz-adv-x="1017" 
d="M403 1241l-260 279v43h217l148 -167l149 167h217v-43l-261 -279h-210z" />
    <glyph glyph-name="uni02C9" unicode="&#x2c9;" horiz-adv-x="958" 
d="M178 1309v186h601v-186h-601z" />
    <glyph glyph-name="breve" unicode="&#x2d8;" horiz-adv-x="1013" 
d="M508 1241q-160 0 -248.5 86.5t-88.5 235.5h193q0 -74 38 -117t105 -43t105 42.5t38 117.5h193q0 -150 -88 -236t-247 -86z" />
    <glyph glyph-name="dotaccent" unicode="&#x2d9;" horiz-adv-x="507" 
d="M254 1278q-67 0 -114.5 47.5t-47.5 115.5t47.5 115.5t114.5 47.5q68 0 115.5 -48t47.5 -115t-47.5 -115t-115.5 -48z" />
    <glyph glyph-name="ring" unicode="&#x2da;" horiz-adv-x="641" 
d="M320 1218q-96 0 -157 59.5t-61 149.5q0 92 61 153t157 61t157.5 -61t61.5 -153q0 -90 -61.5 -149.5t-157.5 -59.5zM320 1343q35 0 60.5 24.5t25.5 59.5q0 38 -25 63t-61 25q-37 0 -61.5 -24.5t-24.5 -63.5q0 -36 24.5 -60t61.5 -24z" />
    <glyph glyph-name="ogonek" unicode="&#x2db;" horiz-adv-x="555" 
d="M366 -444q-123 0 -192.5 67.5t-69.5 177.5q0 107 68.5 179t165.5 102l113 -82q-69 -19 -110 -62.5t-41 -105.5q0 -46 27.5 -70t77.5 -24h46v-182h-85z" />
    <glyph glyph-name="tilde" unicode="&#x2dc;" horiz-adv-x="987" 
d="M135 1337q0 99 52 156.5t138 57.5q75 0 147 -44l67 -42q46 -28 73 -28q58 0 58 70v48h182v-89q0 -100 -51.5 -156.5t-137.5 -56.5q-77 0 -151 46l-68 43q-39 25 -68 25q-58 0 -58 -71v-47h-183v88z" />
    <glyph glyph-name="hungarumlaut" unicode="&#x2dd;" horiz-adv-x="1101" 
d="M184 1241v43l94 279h256v-43l-201 -279h-149zM568 1241v43l93 279h256v-43l-201 -279h-148z" />
    <glyph glyph-name="gravecomb" unicode="&#x300;" horiz-adv-x="0" 
d="M-90 1241l-256 279v43h287l149 -279v-43h-180z" />
    <glyph glyph-name="acutecomb" unicode="&#x301;" horiz-adv-x="0" 
d="M-92 1241v43l150 279h286v-43l-255 -279h-181z" />
    <glyph glyph-name="uni0302" unicode="&#x302;" horiz-adv-x="0" 
d="M-365 1241v43l260 279h210l261 -279v-43h-218l-148 166l-148 -166h-217z" />
    <glyph glyph-name="tildecomb" unicode="&#x303;" horiz-adv-x="0" 
d="M-359 1337q0 99 52 156.5t138 57.5q75 0 147 -44l67 -42q46 -28 73 -28q58 0 58 70v48h182v-89q0 -100 -51.5 -156.5t-137.5 -56.5q-77 0 -151 46l-68 43q-39 25 -68 25q-58 0 -58 -71v-47h-183v88z" />
    <glyph glyph-name="uni0304" unicode="&#x304;" horiz-adv-x="0" 
d="M-301 1309v186h602v-186h-602z" />
    <glyph glyph-name="uni0306" unicode="&#x306;" horiz-adv-x="0" 
d="M1 1241q-160 0 -248.5 86.5t-88.5 235.5h193q0 -74 38 -117t105 -43t105 42.5t38 117.5h193q0 -150 -88 -236t-247 -86z" />
    <glyph glyph-name="uni0307" unicode="&#x307;" horiz-adv-x="0" 
d="M0 1278q-68 0 -115.5 48t-47.5 115t47.5 115t115.5 48q67 0 114.5 -47.5t47.5 -115.5t-47.5 -115.5t-114.5 -47.5z" />
    <glyph glyph-name="uni0308" unicode="&#x308;" horiz-adv-x="0" 
d="M-206 1255q-60 0 -103 43.5t-43 103.5t43 103t103 43t103.5 -43t43.5 -103t-43.5 -103.5t-103.5 -43.5zM205 1255q-60 0 -103.5 43.5t-43.5 103.5t43.5 103t103.5 43t103 -43t43 -103t-43 -103.5t-103 -43.5z" />
    <glyph glyph-name="uni030A" unicode="&#x30a;" horiz-adv-x="0" 
d="M-2 1218q-96 0 -156.5 59.5t-60.5 149.5q0 92 60.5 153t156.5 61t158 -61t62 -153q0 -90 -62 -149.5t-158 -59.5zM-2 1343q35 0 60.5 24.5t25.5 59.5q0 38 -25 63t-61 25q-37 0 -61 -24.5t-24 -63.5q0 -36 24 -60t61 -24z" />
    <glyph glyph-name="uni030B" unicode="&#x30b;" horiz-adv-x="0" 
d="M-266 1241v43l93 279h256v-43l-200 -279h-149zM117 1241v43l93 279h256v-43l-200 -279h-149z" />
    <glyph glyph-name="uni030C" unicode="&#x30c;" horiz-adv-x="0" 
d="M-105 1241l-260 279v43h217l148 -167l148 167h218v-43l-261 -279h-210z" />
    <glyph glyph-name="uni0312" unicode="&#x312;" horiz-adv-x="0" 
d="M-112 1241v35l135 287h137v-322h-272z" />
    <glyph glyph-name="uni0326" unicode="&#x326;" horiz-adv-x="0" 
d="M-112 -451v340h224v-35l-66 -305h-158z" />
    <glyph glyph-name="uni0327" unicode="&#x327;" horiz-adv-x="0" 
d="M-201 -444v182h56q75 0 113 34t38 92q0 46 -22.5 82t-63.5 54h215q65 -57 65 -174q0 -122 -83 -196t-218 -74h-100z" />
    <glyph glyph-name="uni0328" unicode="&#x328;" horiz-adv-x="0" 
d="M89 -444q-123 0 -193 67.5t-70 177.5q0 107 69 179t166 102l113 -82q-69 -19 -110.5 -62.5t-41.5 -105.5q0 -46 27.5 -70t77.5 -24h47v-182h-85z" />
    <glyph glyph-name="uni0374" unicode="&#x374;" horiz-adv-x="856" 
d="M292 1063v412h272v-43l-125 -369h-147z" />
    <glyph glyph-name="uni0375" unicode="&#x375;" horiz-adv-x="856" 
d="M564 262v-412h-272v43l125 369h147z" />
    <glyph glyph-name="uni037E" unicode="&#x37e;" horiz-adv-x="540" 
d="M158 -169v449h273v-43l-135 -406h-138zM310 811q-68 0 -115.5 47.5t-47.5 115.5t47.5 115.5t115.5 47.5q67 0 114.5 -47.5t47.5 -115.5t-47.5 -115.5t-114.5 -47.5z" />
    <glyph glyph-name="tonos" unicode="&#x384;" horiz-adv-x="628" 
d="M111 1241v43l150 279h286v-43l-255 -279h-181z" />
    <glyph glyph-name="dieresistonos" unicode="&#x385;" horiz-adv-x="931" 
d="M146 1255q-60 0 -103 43.5t-43 103.5t43 103t103 43t103.5 -43t43.5 -103t-43.5 -103.5t-103.5 -43.5zM341 1241v322h274v-43l-93 -279h-181zM786 1255q-60 0 -103.5 43.5t-43.5 103.5t43.5 103t103.5 43t103 -43t43 -103t-43 -103.5t-103 -43.5z" />
    <glyph glyph-name="Alphatonos" unicode="&#x386;" horiz-adv-x="1431" 
d="M22 0v42l530 1433h318l534 -1433v-42h-260l-121 336h-621l-120 -336h-260zM39 1063v412h272v-43l-125 -369h-147zM483 563h459l-216 601h-29z" />
    <glyph glyph-name="anoteleia" unicode="&#x387;" horiz-adv-x="512" 
d="M290 574q-68 0 -115.5 48t-47.5 115t47.5 115t115.5 48q67 0 114.5 -47.5t47.5 -115.5t-47.5 -115.5t-114.5 -47.5z" />
    <glyph glyph-name="Epsilontonos" unicode="&#x388;" horiz-adv-x="1204" 
d="M168 0v1475h951v-229h-696v-376h511v-228h-511v-414h696v-228h-951zM-217 1063v412h272v-43l-125 -369h-147z" />
    <glyph glyph-name="Etatonos" unicode="&#x389;" horiz-adv-x="1544" 
d="M168 0v1475h255v-624h697v624h256v-1475h-256v623h-697v-623h-255zM-217 1063v412h272v-43l-125 -369h-147z" />
    <glyph glyph-name="Iotatonos" unicode="&#x38a;" horiz-adv-x="591" 
d="M168 0v1475h255v-1475h-255zM-217 1063v412h272v-43l-125 -369h-147z" />
    <glyph glyph-name="Omicrontonos" unicode="&#x38c;" horiz-adv-x="1591" 
d="M796 -31q-274 0 -460.5 154.5t-227.5 426.5q-1 7 -1 22v331q0 15 1 22q41 272 227.5 426t460.5 154t460.5 -154t227.5 -426q1 -7 1 -22v-331q0 -15 -1 -22q-41 -272 -227.5 -426.5t-460.5 -154.5zM796 198q170 0 287 96t145 266q2 16 2 23v310q0 8 -2 22
q-28 170 -145 265.5t-287 95.5q-171 0 -287.5 -95.5t-144.5 -265.5q-2 -14 -2 -22v-310q0 -7 2 -23q28 -170 144.5 -266t287.5 -96zM-152 1063v412h272v-43l-125 -369h-147z" />
    <glyph glyph-name="Upsilontonos" unicode="&#x38e;" horiz-adv-x="1304" 
d="M525 0v548l-500 884v43h268l345 -640h30l344 640h269v-43l-500 -884v-548h-256zM-316 1063v412h271v-43l-124 -369h-147z" />
    <glyph glyph-name="Omegatonos" unicode="&#x38f;" horiz-adv-x="1611" 
d="M143 0v246h309l3 47q-137 62 -223.5 176.5t-113.5 260.5q-1 6 -1 20v184q0 13 1 20q40 255 222.5 403t464.5 148t465.5 -148t223.5 -403q1 -7 1 -20v-184q0 -14 -1 -20q-52 -307 -337 -437v-47h311v-246h-540v397q266 64 310 321q1 7 1 21v185q0 15 -1 21
q-28 155 -144 244.5t-289 89.5t-288.5 -89.5t-143.5 -244.5q-1 -6 -1 -21v-185q0 -14 1 -21q21 -123 99 -205.5t212 -115.5v-397h-541zM-147 1063v412h271v-43l-125 -369h-146z" />
    <glyph glyph-name="iotadieresistonos" unicode="&#x390;" horiz-adv-x="677" 
d="M519 0q-174 0 -270.5 84t-96.5 245v777h239v-747q0 -67 34 -102t99 -35h101v-222h-106zM-49 1255q-60 0 -103 43.5t-43 103.5t43 103t103 43t103.5 -43t43.5 -103t-43.5 -103.5t-103.5 -43.5zM146 1241v322h274v-43l-93 -279h-181zM591 1255q-60 0 -103.5 43.5
t-43.5 103.5t43.5 103t103.5 43t103 -43t43 -103t-43 -103.5t-103 -43.5z" />
    <glyph glyph-name="Alpha" unicode="&#x391;" horiz-adv-x="1435" 
d="M26 0v42l531 1433h318l534 -1433v-42h-261l-120 336h-621l-120 -336h-261zM487 563h459l-215 601h-30z" />
    <glyph glyph-name="Beta" unicode="&#x392;" horiz-adv-x="1370" 
d="M168 0v1475h594q172 0 281.5 -72.5t138.5 -210.5q2 -12 2 -17v-159q0 -7 -2 -17q-11 -71 -40.5 -114.5t-89.5 -78.5q180 -59 219 -245q2 -16 2 -25v-206q0 -14 -1 -20q-30 -145 -151 -227.5t-305 -82.5h-648zM780 221q104 0 161 34t75 106q2 8 2 23v129q0 15 -2 22
q-18 72 -75 106t-161 34h-357v-454h357zM423 880h310q89 0 135.5 29.5t66.5 93.5q3 9 3 20v87q0 12 -3 21q-20 63 -68 92.5t-138 29.5h-306v-373z" />
    <glyph glyph-name="Gamma" unicode="&#x393;" horiz-adv-x="1144" 
d="M168 0v1475h910v-229h-655v-1246h-255z" />
    <glyph glyph-name="uni0394" unicode="&#x394;" horiz-adv-x="1353" 
d="M26 0v42l490 1433h318l493 -1433v-42h-1301zM369 256h615l-294 908h-30z" />
    <glyph glyph-name="Epsilon" unicode="&#x395;" horiz-adv-x="1204" 
d="M168 0v1475h951v-229h-696v-376h511v-228h-511v-414h696v-228h-951z" />
    <glyph glyph-name="Zeta" unicode="&#x396;" horiz-adv-x="1206" 
d="M83 0v227l707 990v29h-680v229h992v-229l-707 -988v-30h722v-228h-1034z" />
    <glyph glyph-name="Eta" unicode="&#x397;" horiz-adv-x="1544" 
d="M168 0v1475h255v-624h697v624h256v-1475h-256v623h-697v-623h-255z" />
    <glyph glyph-name="Theta" unicode="&#x398;" horiz-adv-x="1591" 
d="M796 -31q-274 0 -460.5 154.5t-227.5 426.5q-1 7 -1 22v331q0 15 1 22q41 272 227.5 426t460.5 154t460.5 -154t227.5 -426q1 -7 1 -22v-331q0 -15 -1 -22q-41 -272 -227.5 -426.5t-460.5 -154.5zM796 198q170 0 287 96t145 266q2 16 2 23v310q0 8 -2 22
q-28 170 -145 265.5t-287 95.5q-171 0 -287.5 -95.5t-144.5 -265.5q-2 -14 -2 -22v-310q0 -7 2 -23q28 -170 144.5 -266t287.5 -96zM514 629v217h564v-217h-564z" />
    <glyph glyph-name="Iota" unicode="&#x399;" horiz-adv-x="591" 
d="M168 0v1475h255v-1475h-255z" />
    <glyph glyph-name="Kappa" unicode="&#x39a;" horiz-adv-x="1263" 
d="M168 0v1475h255v-627h90l439 627h275v-43l-508 -695l508 -693v-44h-275l-439 626h-90v-626h-255z" />
    <glyph glyph-name="Lambda" unicode="&#x39b;" horiz-adv-x="1433" 
d="M26 0v42l533 1433h317l532 -1433v-42h-263l-413 1159h-30l-413 -1159h-263z" />
    <glyph glyph-name="Mu" unicode="&#x39c;" horiz-adv-x="1753" 
d="M168 0v1475h276l418 -703h30l418 703h276v-1475h-253v1018h-29l-332 -572h-190l-332 571h-29v-1017h-253z" />
    <glyph glyph-name="Nu" unicode="&#x39d;" horiz-adv-x="1558" 
d="M168 0v1475h267l676 -1005h29v1005h250v-1475h-267l-676 1004h-29v-1004h-250z" />
    <glyph glyph-name="Xi" unicode="&#x39e;" horiz-adv-x="1288" 
d="M99 1246v229h1090v-229h-1090zM278 642v228h733v-228h-733zM99 0v228h1090v-228h-1090z" />
    <glyph glyph-name="Omicron" unicode="&#x39f;" horiz-adv-x="1591" 
d="M796 -31q-274 0 -460.5 154.5t-227.5 426.5q-1 7 -1 22v331q0 15 1 22q41 272 227.5 426t460.5 154t460.5 -154t227.5 -426q1 -7 1 -22v-331q0 -15 -1 -22q-41 -272 -227.5 -426.5t-460.5 -154.5zM796 198q170 0 287 96t145 266q2 16 2 23v310q0 8 -2 22
q-28 170 -145 265.5t-287 95.5q-171 0 -287.5 -95.5t-144.5 -265.5q-2 -14 -2 -22v-310q0 -7 2 -23q28 -170 144.5 -266t287.5 -96z" />
    <glyph glyph-name="Pi" unicode="&#x3a0;" horiz-adv-x="1513" 
d="M168 0v1475h1178v-1475h-256v1246h-667v-1246h-255z" />
    <glyph glyph-name="Rho" unicode="&#x3a1;" horiz-adv-x="1288" 
d="M168 0v1475h578q175 0 291.5 -66t161.5 -195q13 -26 13 -65v-290q0 -38 -13 -65q-46 -127 -163 -195t-290 -68h-323v-531h-255zM730 759q172 0 224 129q11 22 11 52v126q0 30 -11 52q-51 128 -224 128h-307v-487h307z" />
    <glyph glyph-name="Sigma" unicode="&#x3a3;" horiz-adv-x="1251" 
d="M100 0v228l385 481v30l-362 507v229h1017v-229h-705v-29l323 -471v-46l-335 -442v-30h737v-228h-1060z" />
    <glyph glyph-name="Tau" unicode="&#x3a4;" horiz-adv-x="1191" 
d="M468 0v1246h-424v229h1103v-229h-424v-1246h-255z" />
    <glyph glyph-name="Upsilon" unicode="&#x3a5;" horiz-adv-x="1304" 
d="M524 0v548l-500 884v43h269l344 -640h30l345 640h269v-43l-501 -884v-548h-256z" />
    <glyph glyph-name="Phi" unicode="&#x3a6;" horiz-adv-x="1705" 
d="M642 165q-115 0 -209.5 34.5t-159 96.5t-106 141t-58.5 173q-3 127 0 254q17 94 58.5 173t106 141t159 96.5t209.5 34.5h83v166h256v-166h84q115 0 209 -34.5t158.5 -96.5t106 -141t58.5 -173q3 -127 0 -254q-17 -94 -58.5 -173t-106 -141t-158.5 -96.5t-209 -34.5h-84
v-165h-256v165h-83zM365 637q21 -115 93.5 -179t194.5 -64h72v687h-72q-122 0 -194.5 -64t-93.5 -179q-5 -101 0 -201zM981 394h72q122 0 195 64t94 179q4 120 0 201q-21 115 -94 179t-195 64h-72v-687z" />
    <glyph glyph-name="Chi" unicode="&#x3a7;" horiz-adv-x="1376" 
d="M40 0v46l475 717l-461 666v46h278l341 -516h29l342 516h278v-46l-458 -666l471 -717v-46h-280l-353 557h-29l-352 -557h-281z" />
    <glyph glyph-name="Psi" unicode="&#x3a8;" horiz-adv-x="1538" 
d="M642 0v397q-252 10 -392.5 148.5t-140.5 368.5v561h256v-587q15 -118 84 -185.5t193 -76.5v849h255v-849q124 10 193 77.5t84 184.5v587h256v-561q0 -231 -141 -369t-392 -148v-397h-255z" />
    <glyph glyph-name="uni03A9" unicode="&#x3a9;" horiz-adv-x="1611" 
d="M143 0v246h309l3 47q-137 62 -223.5 176.5t-113.5 260.5q-1 6 -1 20v184q0 13 1 20q40 255 222.5 403t464.5 148t465.5 -148t223.5 -403q1 -7 1 -20v-184q0 -14 -1 -20q-52 -307 -337 -437v-47h311v-246h-540v397q266 64 310 321q1 7 1 21v185q0 15 -1 21
q-28 155 -144 244.5t-289 89.5t-288.5 -89.5t-143.5 -244.5q-1 -6 -1 -21v-185q0 -14 1 -21q21 -123 99 -205.5t212 -115.5v-397h-541z" />
    <glyph glyph-name="Iotadieresis" unicode="&#x3aa;" horiz-adv-x="591" 
d="M168 0v1475h255v-1475h-255zM91 1624q-60 0 -103.5 43t-43.5 103t43.5 103.5t103.5 43.5t103 -43.5t43 -103.5t-43 -103t-103 -43zM501 1624q-60 0 -103 43t-43 103t43 103.5t103 43.5t103.5 -43.5t43.5 -103.5t-43.5 -103t-103.5 -43z" />
    <glyph glyph-name="Upsilondieresis" unicode="&#x3ab;" horiz-adv-x="1304" 
d="M524 0v548l-500 884v43h269l344 -640h30l345 640h269v-43l-501 -884v-548h-256zM447 1624q-60 0 -103 43t-43 103t43 103.5t103 43.5t103 -43.5t43 -103.5t-43 -103t-103 -43zM858 1624q-60 0 -103.5 43t-43.5 103t43.5 103.5t103.5 43.5t103 -43.5t43 -103.5t-43 -103
t-103 -43z" />
    <glyph glyph-name="alphatonos" unicode="&#x3ac;" horiz-adv-x="1359" 
d="M561 -32q-173 0 -294.5 99t-163.5 277q-20 209 0 416q41 179 163 278.5t298 99.5q236 0 362 -169l52 137h187v-769q0 -59 25 -87t84 -28h22v-222h-94q-206 0 -260 162q-131 -194 -381 -194zM634 185q111 0 183 50.5t109 159.5v311q-37 104 -112.5 159.5t-179.5 55.5
q-117 0 -195 -61t-104 -173q-14 -134 0 -268q26 -112 104 -173t195 -61zM570 1241v43l150 279h286v-43l-255 -279h-181z" />
    <glyph glyph-name="epsilontonos" unicode="&#x3ad;" horiz-adv-x="1062" 
d="M547 -31q-163 0 -275.5 65t-149.5 181q-14 99 0 197q43 140 188 174q-52 17 -94 61.5t-58 102.5q-10 79 -1 163q47 115 141 169.5t249 54.5q132 0 232 -59t155 -162l-165 -107q-81 134 -223 134q-131 0 -174 -90q-8 -45 0 -89q32 -91 157 -91h131v-180h-141
q-123 0 -161 -102q-9 -51 -1 -98q19 -58 68 -89.5t122 -31.5q83 0 138.5 40t101.5 128l195 -103q-111 -268 -435 -268zM456 1241v43l150 279h285v-43l-255 -279h-180z" />
    <glyph glyph-name="etatonos" unicode="&#x3ae;" horiz-adv-x="1329" 
d="M947 686q-12 107 -73.5 168t-168.5 61q-95 0 -165.5 -54t-96.5 -148v-713h-239v760q0 64 -25 94t-84 30h-16v222h88q107 0 170 -39t90 -121q45 89 138.5 140t208.5 51q192 0 301.5 -117.5t109.5 -317.5v-1153h-238v1137zM640 1241v43l150 279h286v-43l-255 -279h-181z
" />
    <glyph glyph-name="iotatonos" unicode="&#x3af;" horiz-adv-x="622" 
d="M519 0q-174 0 -270.5 84t-96.5 245v777h239v-747q0 -67 34 -102t99 -35h101v-222h-106zM149 1241v43l150 279h286v-43l-255 -279h-181z" />
    <glyph glyph-name="upsilondieresistonos" unicode="&#x3b0;" horiz-adv-x="1222" 
d="M612 -31q-215 0 -341.5 123.5t-126.5 329.5v684h238v-693q26 -222 230 -222q202 0 228 222v693h239v-684q0 -206 -126 -329.5t-341 -123.5zM292 1255q-60 0 -103.5 43.5t-43.5 103.5t43.5 103t103.5 43t103 -43t43 -103t-43 -103.5t-103 -43.5zM486 1241v322h275v-43
l-94 -279h-181zM931 1255q-60 0 -103 43.5t-43 103.5t43 103t103 43t103.5 -43t43.5 -103t-43.5 -103.5t-103.5 -43.5z" />
    <glyph glyph-name="alpha" unicode="&#x3b1;" horiz-adv-x="1359" 
d="M561 -32q-173 0 -294.5 99t-163.5 277q-20 209 0 416q41 179 163 278.5t298 99.5q236 0 362 -169l52 137h187v-769q0 -59 25 -87t84 -28h22v-222h-94q-206 0 -260 162q-131 -194 -381 -194zM634 185q111 0 183 50.5t109 159.5v311q-37 104 -112.5 159.5t-179.5 55.5
q-117 0 -195 -61t-104 -173q-14 -134 0 -268q26 -112 104 -173t195 -61z" />
    <glyph glyph-name="beta" unicode="&#x3b2;" 
d="M152 1161q0 208 141 337.5t360 129.5q187 0 307.5 -77t159.5 -223q16 -144 -3 -272q-14 -55 -52 -98.5t-91 -70.5q89 -27 149 -86t84 -147q27 -167 8 -370q-43 -146 -169.5 -230.5t-302.5 -84.5q-72 0 -138.5 16.5t-126 56.5t-87.5 98v-591h-239v1612zM708 190
q101 0 175.5 51t95.5 147q11 121 -2 219q-21 85 -83.5 122t-172.5 37h-170v210h119q169 0 214 138q13 77 -1 149q-52 143 -229 143q-114 0 -188.5 -69t-74.5 -200v-711q27 -109 115.5 -172.5t201.5 -63.5z" />
    <glyph glyph-name="gamma" unicode="&#x3b3;" horiz-adv-x="1161" 
d="M462 -451v451l-430 1063v43h246l288 -759h29l295 759h239v-43l-429 -1063v-451h-238z" />
    <glyph glyph-name="delta" unicode="&#x3b4;" horiz-adv-x="1245" 
d="M623 -31q-196 0 -341.5 113t-183.5 293q-9 133 -1 275q39 183 177 295t332 112q9 0 23 -2l-407 325v217h859v-217h-491v-29l361 -320q166 -145 197 -337q8 -161 0 -321q-39 -180 -184 -292t-341 -112zM623 185q112 0 190 59.5t100 158.5q8 115 0 230q-22 99 -100.5 158
t-189.5 59q-112 0 -191 -59t-100 -158q-6 -115 0 -230q20 -99 99.5 -158.5t191.5 -59.5z" />
    <glyph glyph-name="epsilon" unicode="&#x3b5;" horiz-adv-x="1062" 
d="M547 -31q-163 0 -275.5 65t-149.5 181q-14 99 0 197q43 140 188 174q-52 17 -94 61.5t-58 102.5q-10 79 -1 163q47 115 141 169.5t249 54.5q132 0 232 -59t155 -162l-165 -107q-81 134 -223 134q-131 0 -174 -90q-8 -45 0 -89q32 -91 157 -91h131v-180h-141
q-123 0 -161 -102q-9 -51 -1 -98q19 -58 68 -89.5t122 -31.5q83 0 138.5 40t101.5 128l195 -103q-111 -268 -435 -268z" />
    <glyph glyph-name="zeta" unicode="&#x3b6;" horiz-adv-x="1118" 
d="M588 -451v216h92q127 0 139 98v41q-12 96 -127 96h-150q-185 0 -298 100.5t-139 283.5v168q9 74 37.5 138.5t61 107t88.5 101.5l428 452v29h-559v217h869v-217l-548 -593q-40 -43 -61.5 -71t-45 -77.5t-35.5 -111.5v-119q12 -94 77.5 -143t165.5 -49h127
q145 0 232.5 -61.5t110.5 -175.5v-188q-23 -115 -110 -178.5t-224 -63.5h-131z" />
    <glyph glyph-name="eta" unicode="&#x3b7;" horiz-adv-x="1329" 
d="M947 686q-12 107 -73.5 168t-168.5 61q-95 0 -165.5 -54t-96.5 -148v-713h-239v760q0 64 -25 94t-84 30h-16v222h88q107 0 170 -39t90 -121q45 89 138.5 140t208.5 51q192 0 301.5 -117.5t109.5 -317.5v-1153h-238v1137z" />
    <glyph glyph-name="theta" unicode="&#x3b8;" horiz-adv-x="1280" 
d="M639 -31q-204 0 -354.5 127t-188.5 337q-5 304 0 610q38 209 188.5 335.5t354.5 126.5t355 -126.5t189 -335.5q5 -306 0 -610q-38 -210 -189 -337t-355 -127zM639 185q120 0 204 76t103 208l1 160h-615l1 -160q19 -132 102.5 -208t203.5 -76zM332 846h615l-1 157
q-19 132 -102.5 209t-204.5 77q-120 0 -203.5 -77t-102.5 -209z" />
    <glyph glyph-name="iota" unicode="&#x3b9;" horiz-adv-x="677" 
d="M519 0q-174 0 -270.5 84t-96.5 245v777h239v-747q0 -67 34 -102t99 -35h101v-222h-106z" />
    <glyph glyph-name="kappa" unicode="&#x3ba;" horiz-adv-x="1103" 
d="M152 0v1106h239v-442h87l330 442h257v-43l-388 -509l388 -512v-42h-261l-326 442h-87v-442h-239z" />
    <glyph glyph-name="lambda" unicode="&#x3bb;" horiz-adv-x="1191" 
d="M57 0v42l409 1104q24 63 24 107q0 126 -144 126h-162v218h152q168 0 249 -54.5t131 -201.5l443 -1299v-42h-246l-277 888h-29l-301 -888h-249z" />
    <glyph glyph-name="uni03BC" unicode="&#x3bc;" horiz-adv-x="1333" 
d="M144 -451v1557h239v-670q0 -23 5 -43q15 -98 78 -150t154 -52q93 0 159.5 52.5t94.5 149.5v713h239v-764q0 -63 30 -91.5t88 -28.5h45v-222h-65q-236 0 -307 172q-37 -89 -109.5 -140.5t-164.5 -51.5q-156 0 -247 93v-524h-239z" />
    <glyph glyph-name="nu" unicode="&#x3bd;" horiz-adv-x="1179" 
d="M443 0l-407 1063v43h245l294 -843h30l299 843h240v-43l-408 -1063h-293z" />
    <glyph glyph-name="xi" unicode="&#x3be;" horiz-adv-x="1040" 
d="M532 -451v216h93q128 0 138 98v41q-5 48 -39 72t-88 24h-112q-169 0 -280 93t-147 259q-6 104 0 208q62 227 259 286q-88 25 -142 83t-72 139q-5 75 0 148q17 111 117 164h-176v217h886v-217h-396q-163 0 -203 -138q-5 -79 0 -157q48 -141 208 -141h197v-206h-208
q-87 0 -150 -50t-84 -135q-3 -77 0 -150q21 -87 85 -137t165 -50h71q146 0 233 -61.5t110 -175.5v-188q-23 -115 -109.5 -178.5t-223.5 -63.5h-132z" />
    <glyph glyph-name="omicron" unicode="&#x3bf;" horiz-adv-x="1280" 
d="M639 -31q-128 0 -241 49t-194.5 145t-107.5 224q-2 10 -2 33v266q0 23 2 33q26 128 107.5 224t194.5 145t241 49q197 0 351 -113.5t193 -304.5q3 -15 3 -33v-266q0 -18 -3 -33q-39 -191 -193 -304.5t-351 -113.5zM639 185q111 0 197.5 60t108.5 167q2 9 2 30v222
q0 21 -2 30q-22 107 -108.5 167t-197.5 60q-110 0 -196.5 -60t-108.5 -167q-2 -9 -2 -30v-222q0 -21 2 -30q22 -107 108.5 -167t196.5 -60z" />
    <glyph glyph-name="pi" unicode="&#x3c0;" horiz-adv-x="1400" 
d="M1226 0q-163 0 -257.5 84.5t-94.5 244.5v554h-350v-883h-238v883h-218v223h1264v-223h-219v-519q0 -67 34 -104.5t99 -37.5h86v-222h-106z" />
    <glyph glyph-name="rho" unicode="&#x3c1;" 
d="M152 714q40 205 177 314.5t357 109.5q440 0 528 -376q20 -209 0 -416q-42 -178 -164.5 -277.5t-314.5 -99.5q-106 0 -195 39t-149 111v-570h-239v1165zM684 185q115 0 192 61.5t106 172.5q14 134 0 268q-58 234 -298 234q-125 0 -200 -68t-93 -200v-253
q37 -103 113.5 -159t179.5 -56z" />
    <glyph glyph-name="uni03C2" unicode="&#x3c2;" horiz-adv-x="1155" 
d="M579 -451v216h92q128 0 138 98v41q-5 48 -39 72t-88 24h-44q-207 0 -353.5 115t-188.5 311q-5 138 0 277q46 201 191.5 317.5t350.5 116.5q298 0 461 -222l-171 -152q-52 82 -124 120t-176 38q-109 0 -189.5 -63t-104.5 -167q-5 -125 0 -252q25 -98 109 -160.5t195 -62.5
h62q146 0 233 -61.5t110 -175.5v-188q-23 -115 -110 -178.5t-224 -63.5h-130z" />
    <glyph glyph-name="sigma" unicode="&#x3c3;" horiz-adv-x="1341" 
d="M639 -31q-197 0 -350.5 113.5t-192.5 304.5q-6 154 0 308q39 190 189.5 300.5t353.5 110.5h614v-218h-194q99 -69 124 -212q5 -145 0 -289q-26 -128 -107.5 -224t-195 -145t-241.5 -49zM639 185q110 0 197 60t109 167q5 128 0 255q-22 103 -109 161.5t-197 58.5
q-111 0 -197 -58.5t-108 -161.5q-5 -128 0 -255q22 -107 108 -167t197 -60z" />
    <glyph glyph-name="tau" unicode="&#x3c4;" horiz-adv-x="1019" 
d="M757 0q-174 0 -270 84t-96 245v556h-323v221h885v-221h-323v-523q0 -67 34 -102.5t99 -35.5h116v-224h-122z" />
    <glyph glyph-name="upsilon" unicode="&#x3c5;" horiz-adv-x="1222" 
d="M612 -31q-215 0 -341.5 123.5t-126.5 329.5v684h238v-693q26 -222 230 -222q202 0 228 222v693h239v-684q0 -206 -126 -329.5t-341 -123.5z" />
    <glyph glyph-name="phi" unicode="&#x3c6;" horiz-adv-x="1464" 
d="M613 -451v421q-124 6 -231.5 56.5t-184 144.5t-101.5 216q-2 10 -2 33v266q0 23 2 33q25 122 101.5 216t184 144.5t231.5 56.5v461h238v-461q124 -6 231.5 -56.5t184 -144.5t101.5 -216q3 -15 3 -33v-266q0 -18 -3 -33q-25 -122 -101.5 -216t-184 -144.5t-231.5 -56.5
v-421h-238zM332 442q0 -21 2 -30q21 -99 98 -158t181 -68v734q-104 -9 -181 -68t-98 -158q-2 -9 -2 -30v-222zM851 186q104 9 181.5 68t97.5 158q3 14 3 30v222q0 16 -3 30q-20 99 -97.5 158t-181.5 68v-734z" />
    <glyph glyph-name="chi" unicode="&#x3c7;" horiz-adv-x="1202" 
d="M46 -451v46l374 792l-346 673v46h270l239 -515h35l239 515h271v-46l-346 -673l374 -792v-46h-270l-268 625h-35l-268 -625h-269z" />
    <glyph glyph-name="psi" unicode="&#x3c8;" horiz-adv-x="1470" 
d="M616 -451v420q-217 4 -344.5 127t-127.5 332v678h238v-687q12 -106 71 -165t163 -63v1202h239v-1202q207 7 233 228v687h239v-678q0 -209 -127.5 -332t-344.5 -127v-420h-239z" />
    <glyph glyph-name="omega" unicode="&#x3c9;" horiz-adv-x="1810" 
d="M568 -31q-97 0 -174 31.5t-128.5 87.5t-81.5 129t-40 160v318q31 267 235 411l148 -176q-69 -56 -104 -123.5t-44 -162.5v-212q10 -104 63 -168t147 -64q78 0 135 49t61 139v385h239v-385q4 -90 61.5 -139t135.5 -49q94 0 146.5 64t62.5 168v212q-9 96 -44 163t-103 123
l148 176q204 -144 235 -411v-318q-20 -182 -127.5 -295t-297.5 -113q-109 0 -189.5 42t-146.5 136q-65 -94 -146 -136t-191 -42z" />
    <glyph glyph-name="iotadieresis" unicode="&#x3ca;" horiz-adv-x="677" 
d="M519 0q-174 0 -270.5 84t-96.5 245v777h239v-747q0 -67 34 -102t99 -35h101v-222h-106zM66 1255q-60 0 -103.5 43.5t-43.5 103.5t43.5 103t103.5 43t103 -43t43 -103t-43 -103.5t-103 -43.5zM476 1255q-60 0 -103 43.5t-43 103.5t43 103t103 43t103.5 -43t43.5 -103
t-43.5 -103.5t-103.5 -43.5z" />
    <glyph glyph-name="upsilondieresis" unicode="&#x3cb;" horiz-adv-x="1222" 
d="M612 -31q-215 0 -341.5 123.5t-126.5 329.5v684h238v-693q26 -222 230 -222q202 0 228 222v693h239v-684q0 -206 -126 -329.5t-341 -123.5zM406 1255q-60 0 -103 43.5t-43 103.5t43 103t103 43t103 -43t43 -103t-43 -103.5t-103 -43.5zM817 1255q-60 0 -103.5 43.5
t-43.5 103.5t43.5 103t103.5 43t103 -43t43 -103t-43 -103.5t-103 -43.5z" />
    <glyph glyph-name="omicrontonos" unicode="&#x3cc;" horiz-adv-x="1280" 
d="M639 -31q-128 0 -241 49t-194.5 145t-107.5 224q-2 10 -2 33v266q0 23 2 33q26 128 107.5 224t194.5 145t241 49q197 0 351 -113.5t193 -304.5q3 -15 3 -33v-266q0 -18 -3 -33q-39 -191 -193 -304.5t-351 -113.5zM639 185q111 0 197.5 60t108.5 167q2 9 2 30v222
q0 21 -2 30q-22 107 -108.5 167t-197.5 60q-110 0 -196.5 -60t-108.5 -167q-2 -9 -2 -30v-222q0 -21 2 -30q22 -107 108.5 -167t196.5 -60zM548 1241v43l150 279h286v-43l-255 -279h-181z" />
    <glyph glyph-name="upsilontonos" unicode="&#x3cd;" horiz-adv-x="1222" 
d="M612 -31q-215 0 -341.5 123.5t-126.5 329.5v684h238v-693q26 -222 230 -222q202 0 228 222v693h239v-684q0 -206 -126 -329.5t-341 -123.5zM520 1241v43l150 279h286v-43l-255 -279h-181z" />
    <glyph glyph-name="omegatonos" unicode="&#x3ce;" horiz-adv-x="1810" 
d="M568 -31q-97 0 -174 31.5t-128.5 87.5t-81.5 129t-40 160v318q31 267 235 411l148 -176q-69 -56 -104 -123.5t-44 -162.5v-212q10 -104 63 -168t147 -64q78 0 135 49t61 139v385h239v-385q4 -90 61.5 -139t135.5 -49q94 0 146.5 64t62.5 168v212q-9 96 -44 163t-103 123
l148 176q204 -144 235 -411v-318q-20 -182 -127.5 -295t-297.5 -113q-109 0 -189.5 42t-146.5 136q-65 -94 -146 -136t-191 -42zM814 1241v43l150 279h286v-43l-255 -279h-181z" />
    <glyph glyph-name="uni0400" unicode="&#x400;" horiz-adv-x="1204" 
d="M168 0v1475h951v-229h-696v-376h511v-228h-511v-414h696v-228h-951zM554 1610l-255 279v42h286l150 -279v-42h-181z" />
    <glyph glyph-name="uni0401" unicode="&#x401;" horiz-adv-x="1204" 
d="M168 0v1475h951v-229h-696v-376h511v-228h-511v-414h696v-228h-951zM439 1624q-60 0 -103.5 43t-43.5 103t43.5 103.5t103.5 43.5t103 -43.5t43 -103.5t-43 -103t-103 -43zM849 1624q-60 0 -103 43t-43 103t43 103.5t103 43.5t103.5 -43.5t43.5 -103.5t-43.5 -103
t-103.5 -43z" />
    <glyph glyph-name="uni0402" unicode="&#x402;" horiz-adv-x="1648" 
d="M468 0v1246h-424v229h1103v-229h-424v-480q50 82 140.5 131t211.5 49q335 0 422 -310q14 -151 0 -302q-35 -169 -156 -251.5t-303 -82.5h-140v219h102q209 0 247 167q8 86 -1 169q-23 77 -84 119t-155 42q-182 0 -284 -173v-543h-255z" />
    <glyph glyph-name="uni0403" unicode="&#x403;" horiz-adv-x="1144" 
d="M168 0v1475h910v-229h-655v-1246h-255zM531 1610v42l150 279h286v-42l-255 -279h-181z" />
    <glyph glyph-name="uni0404" unicode="&#x404;" horiz-adv-x="1421" 
d="M790 -31q-260 0 -438 140t-235 388q-21 247 0 477q57 248 237.5 389.5t442.5 141.5q189 0 324.5 -60t244.5 -193l-173 -161q-85 102 -172 143.5t-214 41.5q-167 0 -280 -81.5t-157 -228.5q-4 -72 -5 -115h603v-228h-603q1 -18 2.5 -55.5t2.5 -56.5q44 -146 155 -229.5
t265 -83.5q130 0 224 44.5t175 145.5l174 -162q-112 -135 -247.5 -196t-325.5 -61z" />
    <glyph glyph-name="uni0405" unicode="&#x405;" horiz-adv-x="1263" 
d="M641 -31q-384 0 -571 294l183 166q87 -121 175.5 -176t204.5 -55q102 0 172.5 37t99.5 106q6 15 6 34v69q0 18 -6 32q-17 46 -68.5 79t-147.5 58l-187 50q-158 43 -244.5 123.5t-116.5 200.5q-4 11 -4 27v136q0 13 5 31q34 141 175.5 232.5t330.5 91.5q169 0 293 -60
t221 -189l-180 -159q-71 99 -147.5 139t-187.5 40q-91 0 -156.5 -37.5t-93.5 -104.5q-2 -5 -2 -21v-59q0 -8 2 -18q19 -54 68 -89.5t137 -59.5l201 -56q151 -42 245 -113t113 -169q3 -13 3 -27v-211q0 -14 -6 -32q-41 -138 -179 -224t-338 -86z" />
    <glyph glyph-name="uni0406" unicode="&#x406;" horiz-adv-x="542" 
d="M168 0v1475h255v-1475h-255z" />
    <glyph glyph-name="uni0407" unicode="&#x407;" horiz-adv-x="591" 
d="M168 0v1475h255v-1475h-255zM91 1624q-60 0 -103.5 43t-43.5 103t43.5 103.5t103.5 43.5t103 -43.5t43 -103.5t-43 -103t-103 -43zM501 1624q-60 0 -103 43t-43 103t43 103.5t103 43.5t103.5 -43.5t43.5 -103.5t-43.5 -103t-103.5 -43z" />
    <glyph glyph-name="uni0408" unicode="&#x408;" horiz-adv-x="1124" 
d="M506 -31q-301 0 -474 236l174 170q63 -89 130.5 -128.5t149.5 -39.5q90 0 146.5 40.5t72.5 117.5q5 21 5 43v1067h255v-1026q0 -227 -121.5 -353.5t-337.5 -126.5z" />
    <glyph glyph-name="uni0409" unicode="&#x409;" horiz-adv-x="2172" 
d="M55 0v228h43q131 0 189 119t58 394v734h964v-552h323q184 0 303.5 -76.5t159.5 -218.5q5 -168 0 -337q-39 -141 -157.5 -216t-305.5 -75h-578v1246h-467v-525q0 -358 -115 -539.5t-360 -181.5h-57zM1616 228q187 0 232 151q6 83 0 166q-45 149 -232 149h-307v-466h307z
" />
    <glyph glyph-name="uni040A" unicode="&#x40a;" horiz-adv-x="2226" 
d="M168 0v1475h255v-624h691v624h256v-623h314q176 0 294.5 -67.5t163.5 -198.5q19 -161 0 -321q-45 -131 -163 -198t-295 -67h-570v623h-691v-623h-255zM1668 228q180 0 230 130q15 67 0 136q-50 130 -230 130h-298v-396h298z" />
    <glyph glyph-name="uni040B" unicode="&#x40b;" horiz-adv-x="1662" 
d="M468 0v1246h-424v229h1103v-229h-424v-480q52 81 148.5 130.5t218.5 49.5q206 0 317.5 -110.5t111.5 -309.5v-526h-253v511q-23 205 -245 205q-93 0 -170 -45t-128 -128v-543h-255z" />
    <glyph glyph-name="uni040C" unicode="&#x40c;" horiz-adv-x="1263" 
d="M168 0v1475h255v-627h90l439 627h275v-43l-508 -695l508 -693v-44h-275l-439 626h-90v-626h-255zM572 1610v42l150 279h286v-42l-255 -279h-181z" />
    <glyph glyph-name="uni040D" unicode="&#x40d;" horiz-adv-x="1558" 
d="M168 0v1475h250v-1037h29l676 1037h267v-1475h-250v1035h-29l-676 -1035h-267zM689 1610l-256 279v42h286l150 -279v-42h-180z" />
    <glyph glyph-name="uni040E" unicode="&#x40e;" horiz-adv-x="1306" 
d="M260 0v35l260 474l-494 923v43h270l356 -687h29l362 687h262v-43l-782 -1432h-263zM655 1610q-160 0 -248.5 86t-88.5 235h193q0 -74 38 -116.5t105 -42.5t105.5 42.5t38.5 116.5h193q0 -149 -88 -235t-248 -86z" />
    <glyph glyph-name="uni040F" unicode="&#x40f;" horiz-adv-x="1501" 
d="M626 -299v299h-458v1475h255v-1247h654v1247h256v-1475h-460v-299h-247z" />
    <glyph glyph-name="uni0410" unicode="&#x410;" horiz-adv-x="1435" 
d="M26 0v42l531 1433h318l534 -1433v-42h-261l-120 336h-621l-120 -336h-261zM487 563h459l-215 601h-30z" />
    <glyph glyph-name="uni0411" unicode="&#x411;" horiz-adv-x="1288" 
d="M168 0v1475h954v-229h-699v-323h323q184 0 303.5 -76.5t159.5 -218.5q5 -168 0 -337q-39 -141 -157.5 -216t-305.5 -75h-578zM730 228q187 0 232 151q6 83 0 166q-45 149 -232 149h-307v-466h307z" />
    <glyph glyph-name="uni0412" unicode="&#x412;" horiz-adv-x="1370" 
d="M168 0v1475h594q172 0 281.5 -72.5t138.5 -210.5q2 -12 2 -17v-159q0 -7 -2 -17q-11 -71 -40.5 -114.5t-89.5 -78.5q180 -59 219 -245q2 -16 2 -25v-206q0 -14 -1 -20q-30 -145 -151 -227.5t-305 -82.5h-648zM780 221q104 0 161 34t75 106q2 8 2 23v129q0 15 -2 22
q-18 72 -75 106t-161 34h-357v-454h357zM423 880h310q89 0 135.5 29.5t66.5 93.5q3 9 3 20v87q0 12 -3 21q-20 63 -68 92.5t-138 29.5h-306v-373z" />
    <glyph glyph-name="uni0413" unicode="&#x413;" horiz-adv-x="1144" 
d="M168 0v1475h910v-229h-655v-1246h-255z" />
    <glyph glyph-name="uni0414" unicode="&#x414;" horiz-adv-x="1617" 
d="M67 -299v527h193q82 165 111.5 309.5t29.5 400.5v537h925v-1247h198v-527h-247v299h-963v-299h-247zM520 228h551v1018h-428v-311q0 -223 -28.5 -378.5t-94.5 -298.5v-30z" />
    <glyph glyph-name="uni0415" unicode="&#x415;" horiz-adv-x="1204" 
d="M168 0v1475h951v-229h-696v-376h511v-228h-511v-414h696v-228h-951z" />
    <glyph glyph-name="uni0416" unicode="&#x416;" horiz-adv-x="1841" 
d="M36 0v44l470 693l-470 695v43h267l400 -627h90v627h256v-627h89l401 627h266v-43l-470 -695l470 -693v-44h-266l-401 626h-89v-626h-256v626h-90l-400 -626h-267z" />
    <glyph glyph-name="uni0417" unicode="&#x417;" horiz-adv-x="1288" 
d="M625 -31q-405 0 -556 354l212 117q50 -128 136 -185t209 -57q217 0 275 170q11 72 -2 147q-47 149 -235 149h-223v212h207q176 0 226 136q11 64 0 126q-27 68 -90 104.5t-158 36.5q-216 0 -304 -195l-204 120q73 142 204 221.5t303 79.5q197 0 321 -77.5t172 -225.5
q15 -110 2 -224q-19 -71 -70.5 -125t-115.5 -76q177 -62 223 -225q6 -120 0 -242q-39 -162 -181 -251.5t-351 -89.5z" />
    <glyph glyph-name="uni0418" unicode="&#x418;" horiz-adv-x="1558" 
d="M168 0v1475h250v-1037h29l676 1037h267v-1475h-250v1035h-29l-676 -1035h-267z" />
    <glyph glyph-name="uni0419" unicode="&#x419;" horiz-adv-x="1558" 
d="M168 0v1475h250v-1037h29l676 1037h267v-1475h-250v1035h-29l-676 -1035h-267zM780 1610q-160 0 -248.5 86t-88.5 235h193q0 -74 38 -116.5t105 -42.5t105 42.5t38 116.5h193q0 -149 -87.5 -235t-247.5 -86z" />
    <glyph glyph-name="uni041A" unicode="&#x41a;" horiz-adv-x="1263" 
d="M168 0v1475h255v-627h90l439 627h275v-43l-508 -695l508 -693v-44h-275l-439 626h-90v-626h-255z" />
    <glyph glyph-name="uni041B" unicode="&#x41b;" horiz-adv-x="1476" 
d="M55 0v228h43q131 0 189 119t58 394v734h964v-1475h-255v1246h-467v-525q0 -358 -115 -539.5t-360 -181.5h-57z" />
    <glyph glyph-name="uni041C" unicode="&#x41c;" horiz-adv-x="1703" 
d="M168 0v1475h276l418 -703h30l418 703h276v-1475h-253v1018h-29l-332 -572h-190l-332 571h-29v-1017h-253z" />
    <glyph glyph-name="uni041D" unicode="&#x41d;" horiz-adv-x="1495" 
d="M168 0v1475h255v-624h697v624h256v-1475h-256v623h-697v-623h-255z" />
    <glyph glyph-name="uni041E" unicode="&#x41e;" horiz-adv-x="1556" 
d="M796 -31q-274 0 -460.5 154.5t-227.5 426.5q-1 7 -1 22v331q0 15 1 22q41 272 227.5 426t460.5 154t460.5 -154t227.5 -426q1 -7 1 -22v-331q0 -15 -1 -22q-41 -272 -227.5 -426.5t-460.5 -154.5zM796 198q170 0 287 96t145 266q2 16 2 23v310q0 8 -2 22
q-28 170 -145 265.5t-287 95.5q-171 0 -287.5 -95.5t-144.5 -265.5q-2 -14 -2 -22v-310q0 -7 2 -23q28 -170 144.5 -266t287.5 -96z" />
    <glyph glyph-name="uni041F" unicode="&#x41f;" horiz-adv-x="1513" 
d="M168 0v1475h1178v-1475h-256v1246h-667v-1246h-255z" />
    <glyph glyph-name="uni0420" unicode="&#x420;" horiz-adv-x="1288" 
d="M168 0v1475h578q175 0 291.5 -66t161.5 -195q13 -26 13 -65v-290q0 -38 -13 -65q-46 -127 -163 -195t-290 -68h-323v-531h-255zM730 759q172 0 224 129q11 22 11 52v126q0 30 -11 52q-51 128 -224 128h-307v-487h307z" />
    <glyph glyph-name="uni0421" unicode="&#x421;" horiz-adv-x="1421" 
d="M789 -31q-259 0 -436.5 140t-235.5 388q-10 38 -10 72v336q0 34 10 69q58 249 237.5 390t441.5 141q189 0 325 -60t245 -193l-173 -161q-85 102 -172.5 143.5t-214.5 41.5q-167 0 -280 -81.5t-156 -228.5q-8 -29 -8 -58v-342q0 -28 8 -55q44 -146 154.5 -229.5
t264.5 -83.5q130 0 224 44t176 146l173 -162q-111 -135 -247 -196t-326 -61z" />
    <glyph glyph-name="uni0422" unicode="&#x422;" horiz-adv-x="1165" 
d="M468 0v1246h-424v229h1103v-229h-424v-1246h-255z" />
    <glyph glyph-name="uni0423" unicode="&#x423;" horiz-adv-x="1331" 
d="M260 0v35l260 474l-494 923v43h270l356 -687h29l362 687h262v-43l-782 -1432h-263z" />
    <glyph glyph-name="uni0424" unicode="&#x424;" horiz-adv-x="1705" 
d="M635 176q-224 0 -357 117t-169 309q-3 136 0 271q36 192 169 309t357 117h90v206h256v-206h90q224 0 357 -117t169 -309q3 -136 0 -271q-36 -192 -169 -309t-357 -117h-90v-207h-256v207h-90zM365 640q20 -113 91 -174.5t191 -61.5h78v667h-78q-120 0 -191 -61.5
t-91 -174.5q-5 -97 0 -195zM981 404h78q120 0 191 61.5t92 174.5q4 117 0 195q-21 113 -92 174.5t-191 61.5h-78v-667z" />
    <glyph glyph-name="uni0425" unicode="&#x425;" horiz-adv-x="1376" 
d="M40 0v46l475 717l-461 666v46h278l341 -516h29l342 516h278v-46l-458 -666l471 -717v-46h-280l-353 557h-29l-352 -557h-281z" />
    <glyph glyph-name="uni0426" unicode="&#x426;" horiz-adv-x="1673" 
d="M1259 -299v299h-1091v1475h255v-1247h630v1247h255v-1247h198v-527h-247z" />
    <glyph glyph-name="uni0427" unicode="&#x427;" horiz-adv-x="1437" 
d="M684 459q-250 0 -386 138t-136 378v500h255v-526q0 -13 5 -40q23 -107 97 -164.5t196 -57.5q184 0 299 123v665h255v-1475h-255v585q-57 -59 -145 -92.5t-185 -33.5z" />
    <glyph glyph-name="uni0428" unicode="&#x428;" horiz-adv-x="2023" 
d="M168 0v1475h255v-1247h461v1247h255v-1247h460v1247h255v-1475h-1686z" />
    <glyph glyph-name="uni0429" unicode="&#x429;" horiz-adv-x="2146" 
d="M1805 -299v299h-1637v1475h255v-1247h461v1247h255v-1247h460v1247h255v-1247h198v-527h-247z" />
    <glyph glyph-name="uni042A" unicode="&#x42a;" horiz-adv-x="1511" 
d="M44 1246v229h603v-552h322q184 0 304 -76.5t160 -218.5q2 -9 2 -26v-283q0 -19 -2 -28q-39 -141 -158 -216t-306 -75h-578v1246h-347zM953 228q187 0 232 151q3 12 3 27v112q0 15 -3 27q-45 149 -232 149h-306v-466h306z" />
    <glyph glyph-name="uni042B" unicode="&#x42b;" horiz-adv-x="1775" 
d="M168 0v1475h255v-552h323q184 0 303.5 -76.5t159.5 -218.5q3 -13 3 -26v-283q0 -15 -3 -28q-39 -141 -157.5 -216t-305.5 -75h-578zM730 228q187 0 232 151q3 12 3 27v112q0 15 -3 27q-45 149 -232 149h-307v-466h307zM1352 0v1475h256v-1475h-256z" />
    <glyph glyph-name="uni042C" unicode="&#x42c;" horiz-adv-x="1288" 
d="M168 0v1475h255v-552h323q184 0 303.5 -76.5t159.5 -218.5q3 -13 3 -26v-283q0 -15 -3 -28q-39 -141 -157.5 -216t-305.5 -75h-578zM730 228q187 0 232 151q3 12 3 27v112q0 15 -3 27q-45 149 -232 149h-307v-466h307z" />
    <glyph glyph-name="uni042D" unicode="&#x42d;" horiz-adv-x="1421" 
d="M640 -31q-191 0 -331 61.5t-250 195.5l174 162q80 -100 178.5 -145t228.5 -45q151 0 259.5 83.5t152.5 229.5q3 36 5 112h-602v228h602q-2 78 -5 115q-43 148 -153 229t-276 81q-122 0 -214 -42.5t-180 -142.5l-173 161q219 253 570 253q262 0 441.5 -141t237.5 -390
q21 -230 0 -477q-58 -249 -232 -388.5t-433 -139.5z" />
    <glyph glyph-name="uni042E" unicode="&#x42e;" horiz-adv-x="2066" 
d="M1296 -31q-264 0 -443.5 154.5t-218.5 426.5q-1 7 -1 22v51h-210v-623h-255v1475h255v-624h210v52q0 15 1 22q39 272 218.5 426t443.5 154t443 -154t218 -426q1 -7 1 -22v-331q0 -15 -1 -22q-39 -272 -218.5 -426.5t-442.5 -154.5zM1296 198q160 0 269.5 96t136.5 266
q1 8 1 23v310q0 15 -1 22q-27 170 -136.5 265.5t-269.5 95.5t-269.5 -95.5t-136.5 -265.5q-1 -7 -1 -22v-310q0 -15 1 -23q27 -170 136.5 -266t269.5 -96z" />
    <glyph glyph-name="uni042F" unicode="&#x42f;" horiz-adv-x="1341" 
d="M95 0v42l301 542q-114 37 -187 110t-91 164q-3 12 -3 25v263q0 10 2 24q20 142 140.5 223.5t321.5 81.5h596v-1475h-256v541h-266l-296 -541h-262zM577 770h342v476h-342q-175 0 -213 -144q-2 -8 -2 -25v-139q0 -17 2 -24q19 -73 70.5 -108.5t142.5 -35.5z" />
    <glyph glyph-name="uni0430" unicode="&#x430;" horiz-adv-x="1157" 
d="M460 -31q-143 0 -243.5 72t-121.5 192v191q32 122 138.5 190t266.5 68q147 0 274 -73v98q0 93 -40.5 135t-133.5 42h-409v222h429q214 0 303.5 -96t89.5 -302v-708h-187l-49 144q-118 -175 -317 -175zM516 179q83 0 142 25.5t116 88.5v108q-52 45 -110 66t-141 21
q-80 0 -132 -30t-66 -86v-78q12 -53 64.5 -84t126.5 -31z" />
    <glyph glyph-name="uni0431" unicode="&#x431;" horiz-adv-x="1280" 
d="M640 -31q-203 0 -354 116.5t-189 301.5q-3 11 -3 30v375q0 69 1 79q3 153 33 267t92.5 199.5t163.5 136t245 67.5l460 56v-214l-442 -56q-69 -9 -121.5 -29.5t-94 -57.5t-64 -96.5t-25.5 -140.5l-2 -77q119 165 358 165q193 0 320 -105t165 -296q3 -21 3 -34v-239
q0 -14 -3 -30q-38 -185 -189 -301.5t-354 -116.5zM640 185q115 0 199.5 63.5t105.5 163.5q2 9 2 28v182q0 24 -2 31q-21 100 -105.5 163t-199.5 63t-199.5 -63t-105.5 -163q-3 -11 -3 -31v-182q0 -14 3 -28q21 -100 105.5 -163.5t199.5 -63.5z" />
    <glyph glyph-name="uni0432" unicode="&#x432;" horiz-adv-x="1181" 
d="M152 0v1106h548q131 0 205.5 -47t100.5 -151q5 -10 5 -29v-118q0 -20 -5 -31q-17 -74 -95 -122q72 -20 111.5 -66t54.5 -120q2 -6 2 -18v-155q0 -11 -1 -16q-29 -110 -119 -171.5t-231 -61.5h-576zM684 205q65 0 101 21t53 70q2 6 2 17v63q0 12 -2 17q-17 49 -53 70.5
t-101 21.5h-293v-280h293zM391 684h266q97 0 121 68q3 9 3 19v48q0 11 -5 19q-26 69 -121 69h-264v-223z" />
    <glyph glyph-name="uni0433" unicode="&#x433;" horiz-adv-x="972" 
d="M152 0v1106h764v-220h-525v-886h-239z" />
    <glyph glyph-name="uni0434" unicode="&#x434;" horiz-adv-x="1396" 
d="M51 -299v517h153q75 129 106.5 250.5t31.5 274.5v363h816v-888h156v-517h-232v299h-799v-299h-232zM459 218h460v670h-353v-155q0 -274 -107 -481v-34z" />
    <glyph glyph-name="uni0435" unicode="&#x435;" horiz-adv-x="1200" 
d="M639 -31q-217 0 -355 111.5t-188 315.5q-2 10 -2 30v253q0 20 2 29q50 197 189.5 313t340.5 116q211 0 342.5 -109.5t170.5 -307.5q2 -10 2 -29v-183l-27 -28h-788q18 -140 99 -217.5t214 -77.5q98 0 167.5 35t134.5 115l162 -148q-163 -218 -464 -218zM332 668h580
q-14 118 -90.5 189t-192.5 71q-119 0 -196 -70t-101 -190z" />
    <glyph glyph-name="uni0436" unicode="&#x436;" horiz-adv-x="1501" 
d="M39 0v42l340 517l-340 504v43h242l286 -442h65v442h238v-442h65l286 442h242v-43l-340 -504l340 -517v-42h-243l-285 442h-65v-442h-238v442h-65l-285 -442h-243z" />
    <glyph glyph-name="uni0437" unicode="&#x437;" horiz-adv-x="1046" 
d="M511 -31q-156 0 -268 70t-167 198l189 101q43 -87 100.5 -126.5t144.5 -39.5q73 0 122 31.5t68 89.5q7 52 -1 98q-36 102 -160 102h-142v180h132q124 0 156 91q8 44 0 89q-42 90 -173 90q-142 0 -223 -134l-166 107q55 103 155.5 162t232.5 59q162 0 255 -55.5
t134 -174.5q10 -85 0 -157q-16 -58 -58.5 -102.5t-94.5 -61.5q71 -16 119 -61.5t69 -112.5q14 -98 0 -197q-37 -116 -149 -181t-275 -65z" />
    <glyph glyph-name="uni0438" unicode="&#x438;" 
d="M152 0v1106h239v-738l535 738h239v-1106h-239v738l-535 -738h-239z" />
    <glyph glyph-name="uni0439" unicode="&#x439;" 
d="M152 0v1106h239v-738l535 738h239v-1106h-239v738l-535 -738h-239zM659 1241q-160 0 -248 86.5t-88 235.5h193q0 -74 37.5 -117t104.5 -43t105.5 43t38.5 117h193q0 -149 -88 -235.5t-248 -86.5z" />
    <glyph glyph-name="uni043A" unicode="&#x43a;" horiz-adv-x="1103" 
d="M152 0v1106h239v-442h87l330 442h257v-43l-390 -509l390 -512v-42h-261l-326 442h-87v-442h-239z" />
    <glyph glyph-name="uni043B" unicode="&#x43b;" horiz-adv-x="1271" 
d="M52 0v214h44q85 0 125 99.5t40 304.5v488h858v-1106h-238v886h-396v-287q0 -302 -92 -450.5t-283 -148.5h-58z" />
    <glyph glyph-name="uni043C" unicode="&#x43c;" horiz-adv-x="1427" 
d="M152 0v1106h248l314 -526l314 526h248v-1106h-239v733l-255 -436h-136l-255 436v-733h-239z" />
    <glyph glyph-name="uni043D" unicode="&#x43d;" horiz-adv-x="1304" 
d="M914 0v450h-523v-450h-239v1106h239v-439h523v439h239v-1106h-239z" />
    <glyph glyph-name="uni043E" unicode="&#x43e;" horiz-adv-x="1253" 
d="M639 -31q-128 0 -241 49t-194.5 145t-107.5 224q-2 10 -2 33v266q0 23 2 33q26 128 107.5 224t194.5 145t241 49q197 0 351 -113.5t193 -304.5q3 -15 3 -33v-266q0 -18 -3 -33q-39 -191 -193 -304.5t-351 -113.5zM639 185q111 0 197.5 60t108.5 167q2 9 2 30v222
q0 21 -2 30q-22 107 -108.5 167t-197.5 60q-110 0 -196.5 -60t-108.5 -167q-2 -9 -2 -30v-222q0 -21 2 -30q22 -107 108.5 -167t196.5 -60z" />
    <glyph glyph-name="uni043F" unicode="&#x43f;" horiz-adv-x="1273" 
d="M152 0v1106h970v-1106h-239v886h-492v-886h-239z" />
    <glyph glyph-name="uni0440" unicode="&#x440;" 
d="M152 -451v1557h185l54 -137q123 169 362 169q179 0 299 -98.5t162 -277.5q20 -209 0 -416q-42 -178 -164.5 -277.5t-314.5 -99.5q-106 0 -195 39t-149 111v-570h-239zM684 185q115 0 192 61.5t106 172.5q14 134 0 268q-58 234 -298 234q-112 0 -184 -50.5t-109 -159.5
v-311q37 -103 113.5 -159t179.5 -56z" />
    <glyph glyph-name="uni0441" unicode="&#x441;" horiz-adv-x="1155" 
d="M638 -31q-207 0 -353 117t-189 317q-2 49 -2 150q0 102 2 150q46 201 191.5 317.5t350.5 116.5q298 0 461 -222l-171 -152q-52 82 -124 120t-176 38q-109 0 -189.5 -63t-104.5 -167q-2 -84 -2 -138t2 -138q25 -100 108.5 -165t185.5 -65q95 0 163 35t135 120l163 -159
q-84 -109 -194 -160.5t-257 -51.5z" />
    <glyph glyph-name="uni0442" unicode="&#x442;" horiz-adv-x="993" 
d="M377 0v886h-327v220h893v-220h-327v-886h-239z" />
    <glyph glyph-name="uni0443" unicode="&#x443;" horiz-adv-x="1150" 
d="M160 -451v222h144q161 0 161 125q0 39 -37 136l-396 1031v43h247l304 -840h29l280 840h243v-43l-461 -1262q-35 -96 -80 -149.5t-115.5 -78t-182.5 -24.5h-136z" />
    <glyph glyph-name="uni0444" unicode="&#x444;" horiz-adv-x="1464" 
d="M613 -451v421q-124 6 -231.5 56.5t-184 144.5t-101.5 216q-2 10 -2 33v266q0 23 2 33q25 122 101.5 216t184 144.5t231.5 56.5v461h238v-461q124 -6 231.5 -56.5t184 -144.5t101.5 -216q3 -15 3 -33v-266q0 -18 -3 -33q-25 -122 -101.5 -216t-184 -144.5t-231.5 -56.5
v-421h-238zM332 442q0 -21 2 -30q21 -99 98 -158t181 -68v734q-104 -9 -181 -68t-98 -158q-2 -9 -2 -30v-222zM851 186q104 9 181.5 68t97.5 158q3 14 3 30v222q0 16 -3 30q-20 99 -97.5 158t-181.5 68v-734z" />
    <glyph glyph-name="uni0445" unicode="&#x445;" horiz-adv-x="1155" 
d="M46 0v46l348 527l-338 487v46h272l232 -370h34l232 370h272v-46l-338 -487l348 -527v-46h-271l-243 400h-34l-243 -400h-271z" />
    <glyph glyph-name="uni0446" unicode="&#x446;" horiz-adv-x="1357" 
d="M1042 -299v299h-890v1106h239v-888h489v888h238v-888h156v-517h-232z" />
    <glyph glyph-name="uni0447" unicode="&#x447;" horiz-adv-x="1257" 
d="M868 419q-115 -131 -323 -131q-190 0 -295.5 111t-105.5 309v398h238v-376q12 -104 69 -162t163 -58q85 0 149.5 41t102.5 116v439h239v-1106h-237v419z" />
    <glyph glyph-name="uni0448" unicode="&#x448;" horiz-adv-x="1753" 
d="M152 0v1106h239v-888h367v888h238v-888h367v888h239v-1106h-1450z" />
    <glyph glyph-name="uni0449" unicode="&#x449;" horiz-adv-x="1841" 
d="M1526 -299v299h-1374v1106h239v-888h367v888h238v-888h367v888h239v-888h156v-517h-232z" />
    <glyph glyph-name="uni044A" unicode="&#x44a;" horiz-adv-x="1419" 
d="M401 0v893h-333v213h571v-335h283q352 0 401 -270q7 -128 0 -225q-24 -140 -123 -208t-278 -68h-521zM923 220q135 0 163 115q3 37 1 106q-15 64 -57 90.5t-119 26.5h-272v-338h284z" />
    <glyph glyph-name="uni044B" unicode="&#x44b;" horiz-adv-x="1579" 
d="M152 0v1106h239v-335h282q350 0 402 -270q7 -102 0 -225q-25 -140 -123.5 -208t-277.5 -68h-522zM674 220q134 0 164 115q5 60 1 106q-16 65 -57.5 91t-118.5 26h-272v-338h283zM1189 0v1106h238v-1106h-238z" />
    <glyph glyph-name="uni044C" unicode="&#x44c;" horiz-adv-x="1171" 
d="M152 0v1106h239v-335h282q350 0 402 -270q7 -102 0 -225q-25 -140 -123.5 -208t-277.5 -68h-522zM674 220q134 0 164 115q5 60 1 106q-16 65 -57.5 91t-118.5 26h-272v-338h283z" />
    <glyph glyph-name="uni044D" unicode="&#x44d;" horiz-adv-x="1142" 
d="M504 -31q-147 0 -256 46.5t-192 144.5l163 166q100 -141 288 -141q116 0 195 66t106 178l1 21h-448v206h448l-1 21q-26 112 -105.5 178t-193.5 66q-177 0 -278 -137l-170 152q157 201 445 201q205 0 350 -116.5t191 -317.5q2 -48 2 -150q0 -101 -2 -150
q-43 -201 -187 -317.5t-356 -116.5z" />
    <glyph glyph-name="uni044E" unicode="&#x44e;" horiz-adv-x="1701" 
d="M152 0v1106h239v-439h162q2 14 3 20q40 214 182 332t342 118q193 0 339.5 -112.5t185.5 -305.5q3 -15 3 -33v-266q0 -18 -3 -33q-39 -193 -185.5 -305.5t-339.5 -112.5q-201 0 -342.5 118.5t-181.5 334.5q-2 18 -3 28h-162v-450h-239zM1080 185q107 0 185.5 59.5
t101.5 167.5q2 9 2 30v222q0 21 -2 30q-23 108 -101.5 167.5t-185.5 59.5q-108 0 -185.5 -59.5t-100.5 -167.5q-2 -9 -2 -30v-222q0 -21 2 -30q23 -108 100.5 -167.5t185.5 -59.5z" />
    <glyph glyph-name="uni044F" unicode="&#x44f;" horiz-adv-x="1130" 
d="M71 0v35l205 387q-68 31 -115 82.5t-61 111.5q-11 128 0 256q19 104 111.5 169t237.5 65h530v-1106h-238v376h-238l-186 -376h-246zM505 584h236v331h-236q-134 0 -165 -102q-10 -64 0 -129q31 -100 165 -100z" />
    <glyph glyph-name="uni0450" unicode="&#x450;" horiz-adv-x="1200" 
d="M639 -31q-217 0 -355 111.5t-188 315.5q-2 10 -2 30v253q0 20 2 29q50 197 189.5 313t340.5 116q211 0 342.5 -109.5t170.5 -307.5q2 -10 2 -29v-183l-27 -28h-788q18 -140 99 -217.5t214 -77.5q98 0 167.5 35t134.5 115l162 -148q-163 -218 -464 -218zM540 1241
l-255 279v43h286l149 -279v-43h-180zM332 668h580q-14 118 -90.5 189t-192.5 71q-119 0 -196 -70t-101 -190z" />
    <glyph glyph-name="uni0451" unicode="&#x451;" horiz-adv-x="1200" 
d="M639 -31q-217 0 -355 111.5t-188 315.5q-2 10 -2 30v253q0 20 2 29q50 197 189.5 313t340.5 116q211 0 342.5 -109.5t170.5 -307.5q2 -10 2 -29v-183l-27 -28h-788q18 -140 99 -217.5t214 -77.5q98 0 167.5 35t134.5 115l162 -148q-163 -218 -464 -218zM424 1255
q-60 0 -103 43.5t-43 103.5t43 103t103 43t103.5 -43t43.5 -103t-43.5 -103.5t-103.5 -43.5zM835 1255q-60 0 -103 43.5t-43 103.5t43 103t103 43t103.5 -43t43.5 -103t-43.5 -103.5t-103.5 -43.5zM332 668h580q-14 118 -90.5 189t-192.5 71q-119 0 -196 -70t-101 -190z" />
    <glyph glyph-name="uni0452" unicode="&#x452;" horiz-adv-x="1296" 
d="M673 -451v222h107q65 0 99 37.5t34 104.5v773q-12 107 -74 168t-169 61q-95 0 -164.5 -54t-95.5 -148v-713h-239v1265h-116v174h116v158h237v-158h288v-174h-288v-303q46 80 131.5 127.5t199.5 47.5q194 0 303.5 -111.5t109.5 -309.5v-837q0 -160 -94.5 -245t-257.5 -85
h-127z" />
    <glyph glyph-name="uni0453" unicode="&#x453;" horiz-adv-x="974" 
d="M152 0v1106h764v-220h-525v-886h-239zM443 1241v43l150 279h286v-43l-255 -279h-181z" />
    <glyph glyph-name="uni0454" unicode="&#x454;" horiz-adv-x="1144" 
d="M638 -31q-207 0 -353 117t-189 317q-2 49 -2 150q0 102 2 150q46 201 191.5 317.5t350.5 116.5q294 0 446 -201l-171 -152q-51 72 -116.5 104.5t-161.5 32.5q-115 0 -195 -66t-106 -178l-1 -21h448v-206h-448l1 -21q26 -107 110.5 -175.5t190.5 -68.5q91 0 157.5 31
t131.5 104l162 -160q-160 -191 -448 -191z" />
    <glyph glyph-name="uni0455" unicode="&#x455;" horiz-adv-x="991" 
d="M502 -31q-137 0 -251.5 59t-182.5 166l169 147q35 -76 112 -123.5t155 -47.5q72 0 123.5 28.5t66.5 75.5q1 5 1 15v49q0 8 -1 11q-12 37 -45 60t-100 40l-181 46q-221 58 -258 236q-2 12 -2 18v113q0 6 2 16q30 112 145 185.5t265 73.5q261 0 410 -199l-159 -137
q-46 69 -107.5 101.5t-148.5 32.5q-64 0 -112 -25.5t-61 -68.5q-1 -4 -1 -11v-30q0 -6 1 -9q12 -40 46.5 -64.5t99.5 -39.5l153 -36q122 -28 189 -82t96 -144q4 -14 4 -24v-145q0 -16 -4 -27q-37 -121 -147.5 -190.5t-276.5 -69.5z" />
    <glyph glyph-name="uni0456" unicode="&#x456;" horiz-adv-x="497" 
d="M152 0v1106h239v-1106h-239zM271 1278q-67 0 -114.5 47.5t-47.5 115.5t47.5 115.5t114.5 47.5t115 -48t48 -115t-48 -115t-115 -48z" />
    <glyph glyph-name="uni0457" unicode="&#x457;" horiz-adv-x="542" 
d="M152 0v1106h239v-1106h-239zM66 1255q-60 0 -103.5 43.5t-43.5 103.5t43.5 103t103.5 43t103 -43t43 -103t-43 -103.5t-103 -43.5zM476 1255q-60 0 -103 43.5t-43 103.5t43 103t103 43t103.5 -43t43.5 -103t-43.5 -103.5t-103.5 -43.5z" />
    <glyph glyph-name="uni0458" unicode="&#x458;" horiz-adv-x="542" 
d="M-88 -451v222h107q65 0 99 37.5t34 104.5v1193h239v-1227q0 -160 -94.5 -245t-257.5 -85h-127zM271 1278q-67 0 -114.5 47.5t-47.5 115.5t47.5 115.5t114.5 47.5t115 -48t48 -115t-48 -115t-115 -48z" />
    <glyph glyph-name="uni0459" unicode="&#x459;" horiz-adv-x="1853" 
d="M52 0v214h44q85 0 125 99.5t40 304.5v488h826v-335h267q352 0 402 -270q7 -102 0 -225q-25 -140 -123.5 -208t-277.5 -68h-507v886h-363v-287q0 -302 -92 -450.5t-283 -148.5h-58zM1355 220q134 0 164 115q5 60 1 106q-16 65 -57.5 91t-119.5 26h-256v-338h268z" />
    <glyph glyph-name="uni045A" unicode="&#x45a;" horiz-adv-x="1925" 
d="M152 0v1106h239v-398h523v398h239v-398h282q338 0 391 -254q12 -94 1 -191q-25 -133 -121.5 -198t-269.5 -65h-522v490h-523v-490h-239zM1445 220q118 0 146 94q7 46 0 81q-28 95 -157 95h-281v-270h292z" />
    <glyph glyph-name="uni045B" unicode="&#x45b;" horiz-adv-x="1318" 
d="M193 0v1247h-138v209h138v141h237v-141h266v-209h-266v-285q46 80 131.5 127.5t199.5 47.5q194 0 303.5 -111.5t109.5 -309.5v-716h-238v686q-12 107 -74.5 168t-169.5 61q-95 0 -164 -54t-96 -148v-713h-239z" />
    <glyph glyph-name="uni045C" unicode="&#x45c;" horiz-adv-x="1103" 
d="M152 0v1106h239v-442h87l330 442h257v-43l-390 -509l390 -512v-42h-261l-326 442h-87v-442h-239zM496 1241v43l150 279h286v-43l-255 -279h-181z" />
    <glyph glyph-name="uni045D" unicode="&#x45d;" 
d="M152 0v1106h239v-738l535 738h239v-1106h-239v738l-535 -738h-239zM568 1241l-255 279v43h286l150 -279v-43h-181z" />
    <glyph glyph-name="uni045E" unicode="&#x45e;" horiz-adv-x="1150" 
d="M160 -451v222h144q161 0 161 125q0 39 -37 136l-396 1031v43h247l304 -840h29l280 840h243v-43l-461 -1262q-35 -96 -80 -149.5t-115.5 -78t-182.5 -24.5h-136zM579 1241q-160 0 -248.5 86.5t-88.5 235.5h193q0 -74 38 -117t105 -43t105 42.5t38 117.5h193
q0 -150 -88 -236t-247 -86z" />
    <glyph glyph-name="uni045F" unicode="&#x45f;" horiz-adv-x="1263" 
d="M516 -299v299h-364v1106h239v-888h481v888h239v-1106h-363v-299h-232z" />
    <glyph glyph-name="uni0462" unicode="&#x462;" horiz-adv-x="1445" 
d="M327 0v1047h-283v228h283v200h256v-200h534v-228h-534v-206h375q157 0 260.5 -66t144.5 -196q14 -159 0 -319q-39 -130 -143 -195t-262 -65h-631zM911 228q87 0 136.5 30.5t71.5 97.5q10 67 0 130q-22 67 -71.5 96.5t-136.5 29.5h-328v-384h328z" />
    <glyph glyph-name="uni0463" unicode="&#x463;" horiz-adv-x="1363" 
d="M345 0v888h-313v218h313v491h238v-491h384v-218h-384v-158h297q334 0 387 -270q7 -84 0 -184q-25 -140 -120 -208t-266 -68h-536zM878 220q119 0 152 100q5 54 1 94q-17 54 -55 78.5t-110 24.5h-283v-297h295z" />
    <glyph glyph-name="uni0472" unicode="&#x472;" horiz-adv-x="1591" 
d="M796 -31q-274 0 -460.5 154.5t-227.5 426.5q-1 7 -1 22v331q0 15 1 22q41 272 227.5 426t460.5 154t460.5 -154t227.5 -426q1 -7 1 -22v-331q0 -15 -1 -22q-41 -272 -227.5 -426.5t-460.5 -154.5zM796 198q170 0 287 96t145 266q2 16 2 23v40h-868v-40q0 -7 2 -23
q28 -170 144.5 -266t287.5 -96zM362 851h868v42q0 8 -2 22q-28 170 -145 265.5t-287 95.5q-171 0 -287.5 -95.5t-144.5 -265.5q-2 -14 -2 -22v-42z" />
    <glyph glyph-name="uni0473" unicode="&#x473;" horiz-adv-x="1280" 
d="M639 -31q-128 0 -241 49t-194.5 145t-107.5 224q-2 10 -2 33v266q0 23 2 33q26 128 107.5 224t194.5 145t241 49q197 0 351 -113.5t193 -304.5q3 -15 3 -33v-266q0 -18 -3 -33q-39 -191 -193 -304.5t-351 -113.5zM639 185q112 0 198.5 63.5t107.5 180.5q1 4 1.5 11
t0.5 10h-615q0 -4 0.5 -10.5t1.5 -10.5q22 -118 108 -181t197 -63zM332 656h615q0 3 -0.5 10t-1.5 11q-21 117 -107.5 180.5t-198.5 63.5q-111 0 -197 -63t-108 -181q-1 -4 -1.5 -10.5t-0.5 -10.5z" />
    <glyph glyph-name="uni0474" unicode="&#x474;" horiz-adv-x="1593" 
d="M561 0l-535 1432v43h271l411 -1166h29l356 1005q56 161 226 161h231v-229h-149q-54 0 -71 -50l-449 -1196h-320z" />
    <glyph glyph-name="uni0475" unicode="&#x475;" horiz-adv-x="1284" 
d="M443 0l-407 1063v43h245l294 -843h30l225 628q41 119 105 167t169 48h112v-218h-73q-35 0 -56 -16t-34 -54l-317 -818h-293z" />
    <glyph glyph-name="uni0490" unicode="&#x490;" horiz-adv-x="1144" 
d="M168 0v1475h663v299h247v-528h-655v-1246h-255z" />
    <glyph glyph-name="uni0491" unicode="&#x491;" horiz-adv-x="972" 
d="M152 0v1106h526v280h238v-500h-525v-886h-239z" />
    <glyph glyph-name="Wgrave" unicode="&#x1e80;" horiz-adv-x="2007" 
d="M385 0l-322 1432v43h270l216 -1079h35l264 1079h312l263 -1079h36l216 1079h269v-43l-321 -1432h-319l-283 1078h-35l-283 -1078h-318zM914 1610l-256 279v42h287l149 -279v-42h-180z" />
    <glyph glyph-name="wgrave" unicode="&#x1e81;" horiz-adv-x="1724" 
d="M357 0l-307 1063v43h237l191 -758h29l237 758h236l238 -758h29l191 758h237v-43l-307 -1063h-258l-233 748h-29l-233 -748h-258zM772 1241l-256 279v43h286l150 -279v-43h-180z" />
    <glyph glyph-name="Wacute" unicode="&#x1e82;" horiz-adv-x="2007" 
d="M385 0l-322 1432v43h270l216 -1079h35l264 1079h312l263 -1079h36l216 1079h269v-43l-321 -1432h-319l-283 1078h-35l-283 -1078h-318zM912 1610v42l150 279h286v-42l-255 -279h-181z" />
    <glyph glyph-name="wacute" unicode="&#x1e83;" horiz-adv-x="1724" 
d="M357 0l-307 1063v43h237l191 -758h29l237 758h236l238 -758h29l191 758h237v-43l-307 -1063h-258l-233 748h-29l-233 -748h-258zM770 1241v43l150 279h286v-43l-255 -279h-181z" />
    <glyph glyph-name="Wdieresis" unicode="&#x1e84;" horiz-adv-x="2007" 
d="M385 0l-322 1432v43h270l216 -1079h35l264 1079h312l263 -1079h36l216 1079h269v-43l-321 -1432h-319l-283 1078h-35l-283 -1078h-318zM798 1624q-60 0 -103 43t-43 103t43 103.5t103 43.5t103.5 -43.5t43.5 -103.5t-43.5 -103t-103.5 -43zM1209 1624q-60 0 -103.5 43
t-43.5 103t43.5 103.5t103.5 43.5t103 -43.5t43 -103.5t-43 -103t-103 -43z" />
    <glyph glyph-name="wdieresis" unicode="&#x1e85;" horiz-adv-x="1724" 
d="M357 0l-307 1063v43h237l191 -758h29l237 758h236l238 -758h29l191 758h237v-43l-307 -1063h-258l-233 748h-29l-233 -748h-258zM656 1255q-60 0 -103.5 43.5t-43.5 103.5t43.5 103t103.5 43t103 -43t43 -103t-43 -103.5t-103 -43.5zM1066 1255q-60 0 -103 43.5
t-43 103.5t43 103t103 43t103.5 -43t43.5 -103t-43.5 -103.5t-103.5 -43.5z" />
    <glyph glyph-name="uni1E9E" unicode="&#x1e9e;" horiz-adv-x="1327" 
d="M584 0v220h157q100 0 161.5 34t83.5 115q6 15 6 33v108q0 21 -6 36q-39 146 -260 146h-94l-28 28v167l320 365h-525v-1252h-256v1475h1041v-223l-312 -379q140 -17 227.5 -82.5t133.5 -182.5q9 -21 9 -48v-194q0 -26 -9 -47q-18 -91 -58 -155t-98.5 -99t-124.5 -50
t-149 -15h-219z" />
    <glyph glyph-name="Ygrave" unicode="&#x1ef2;" horiz-adv-x="1304" 
d="M524 0v548l-500 884v43h269l344 -640h30l345 640h269v-43l-501 -884v-548h-256zM562 1610l-256 279v42h286l150 -279v-42h-180z" />
    <glyph glyph-name="ygrave" unicode="&#x1ef3;" horiz-adv-x="1191" 
d="M160 -451v222h144q161 0 161 125q0 39 -37 136l-396 1031v43h247l304 -840h29l280 840h243v-43l-461 -1262q-35 -96 -80 -149.5t-115.5 -78t-182.5 -24.5h-136zM493 1241l-255 279v43h286l149 -279v-43h-180z" />
    <glyph glyph-name="thinspace" unicode="&#x2009;" horiz-adv-x="299" 
 />
    <glyph glyph-name="endash" unicode="&#x2013;" horiz-adv-x="1157" 
d="M96 510v208h966v-208h-966z" />
    <glyph glyph-name="emdash" unicode="&#x2014;" horiz-adv-x="1779" 
d="M96 510v208h1589v-208h-1589z" />
    <glyph glyph-name="quoteleft" unicode="&#x2018;" horiz-adv-x="456" 
d="M348 1475v-412h-272v43l125 369h147z" />
    <glyph glyph-name="quoteright" unicode="&#x2019;" horiz-adv-x="436" 
d="M108 1063v412h271v-43l-124 -369h-147z" />
    <glyph glyph-name="quotesinglbase" unicode="&#x201a;" horiz-adv-x="479" 
d="M118 -146v411h272v-43l-125 -368h-147z" />
    <glyph glyph-name="quotedblleft" unicode="&#x201c;" horiz-adv-x="815" 
d="M707 1475v-412h-272v43l125 369h147zM348 1475v-412h-272v43l125 369h147z" />
    <glyph glyph-name="quotedblright" unicode="&#x201d;" horiz-adv-x="794" 
d="M108 1063v412h271v-43l-124 -369h-147zM467 1063v412h271v-43l-124 -369h-147z" />
    <glyph glyph-name="quotedblbase" unicode="&#x201e;" horiz-adv-x="837" 
d="M118 -146v411h272v-43l-125 -368h-147zM477 -146v411h271v-43l-124 -368h-147z" />
    <glyph glyph-name="dagger" unicode="&#x2020;" horiz-adv-x="825" 
d="M411 -480q-29 0 -50.5 19.5t-31.5 47.5l-71 199q-5 15 -5 31l32 962q-84 11 -205 53q-25 11 -25 46v4q0 31 25 42q108 39 218 54h8v335h-87q0 79 56.5 135.5t135.5 56.5q80 0 137 -56.5t57 -135.5h-87v-335h9q113 -15 218 -54q26 -11 26 -42v-4q0 -35 -26 -46
q-121 -42 -205 -53l32 -962q0 -20 -5 -31l-74 -199q-10 -29 -31.5 -48t-50.5 -19z" />
    <glyph glyph-name="daggerdbl" unicode="&#x2021;" horiz-adv-x="878" 
d="M245 1313q0 79 56.5 135.5t136.5 56.5t136.5 -56.5t56.5 -135.5h-87v-335h10q113 -15 218 -54q25 -10 25 -42v-4q0 -36 -25 -46q-117 -41 -206 -53l2 -64q103 -15 204 -52q25 -10 25 -42v-4q0 -36 -25 -46q-111 -40 -197 -52l24 -702q0 -17 -6 -31l-73 -199
q-11 -29 -32 -48t-50 -19t-51 19.5t-32 47.5l-70 199q-5 11 -5 31l23 703q-90 13 -197 51q-25 11 -25 46v4q0 31 25 42q98 37 204 52l2 64q-86 11 -206 53q-25 11 -25 46v4q0 31 25 42q104 39 219 54h7v335h-87z" />
    <glyph glyph-name="bullet" unicode="&#x2022;" horiz-adv-x="1007" 
d="M503 336q-114 0 -209 57t-151 153v379q56 96 151 152.5t209 56.5t209.5 -56.5t151.5 -152.5v-379q-56 -96 -151.5 -153t-209.5 -57z" />
    <glyph glyph-name="ellipsis" unicode="&#x2026;" horiz-adv-x="1413" 
d="M285 -31q-67 0 -115 47.5t-48 115.5t48 115.5t115 47.5t114.5 -47.5t47.5 -115.5t-47.5 -115.5t-114.5 -47.5zM739 -31q-67 0 -115 47.5t-48 115.5t48 115.5t115 47.5t114.5 -47.5t47.5 -115.5t-47.5 -115.5t-114.5 -47.5zM1196 -31q-68 0 -115.5 47.5t-47.5 115.5
t47.5 115.5t115.5 47.5q67 0 114.5 -47.5t47.5 -115.5t-47.5 -115.5t-114.5 -47.5z" />
    <glyph glyph-name="perthousand" unicode="&#x2030;" horiz-adv-x="2392" 
d="M2001 -31q-141 0 -239 81t-114 209q-1 0 -0.5 5.5t0.5 8.5v118v16q16 130 113.5 209.5t239.5 79.5q143 0 240.5 -79.5t113.5 -209.5q1 -6 1 -16v-118q0 -9 -1 -14q-16 -128 -114.5 -209t-239.5 -81zM2001 151q57 0 99 32t57 90q0 2 0.5 5t0.5 6.5v3.5v90v4q0 3 -0.5 6
t-0.5 5q-13 59 -54.5 91t-101.5 32q-59 0 -100.5 -32t-54.5 -91v-15v-90v-15q15 -57 57 -89.5t98 -32.5zM395 778q-141 0 -239.5 80.5t-114.5 208.5v15v118v15q16 130 114 210t240 80q143 0 240.5 -80t113.5 -210v-15v-118q0 -2 0.5 -8.5t-0.5 -6.5q-16 -128 -114.5 -208.5
t-239.5 -80.5zM395 959q56 0 98 32.5t57 90.5q0 2 0.5 5t0.5 6.5v3.5v90v3q0 4 -0.5 7t-0.5 5q-13 59 -54 90.5t-101 31.5t-101 -31.5t-54 -90.5q0 -2 -0.5 -5t-0.5 -6.5v-3.5v-90v-3q0 -4 0.5 -7t0.5 -5q15 -58 57 -90.5t98 -32.5zM251 0v35l887 1440h219v-36l-886 -1439
h-220zM1214 -31q-141 0 -239 81t-114 209q-1 5 -1 14v118q0 10 1 16q16 130 113.5 209.5t239.5 79.5q143 0 240.5 -79.5t113.5 -209.5v-16v-118q0 -3 0.5 -8.5t-0.5 -5.5q-16 -128 -114.5 -209t-239.5 -81zM1214 151q56 0 98.5 32.5t57.5 89.5v15v90v15q-13 59 -54.5 91
t-101.5 32q-59 0 -100.5 -32t-54.5 -91q0 -2 -0.5 -5t-0.5 -6.5v-3.5v-90v-4q0 -3 0.5 -6t0.5 -5q15 -58 57 -90t98 -32z" />
    <glyph glyph-name="guilsinglleft" unicode="&#x2039;" horiz-adv-x="645" 
d="M342 197l-254 416v76l254 417h212v-43l-249 -412l249 -412v-42h-212z" />
    <glyph glyph-name="guilsinglright" unicode="&#x203a;" horiz-adv-x="645" 
d="M304 197h-213v42l249 412l-249 412v43h213l253 -417v-76z" />
    <glyph glyph-name="fraction" unicode="&#x2044;" horiz-adv-x="380" 
d="M-331 0v35l828 1440h215v-36l-829 -1439h-214z" />
    <glyph glyph-name="zero.sups" unicode="&#x2070;" horiz-adv-x="690" 
d="M345 717q-115 0 -188.5 65t-93.5 176q-2 8 -2 25v247q0 17 2 25q20 111 93.5 175.5t188.5 64.5t188 -64.5t94 -175.5q2 -16 2 -25v-247q0 -9 -2 -25q-21 -111 -94 -176t-188 -65zM345 871q42 0 70 28t36 78q2 16 2 25v210q0 10 -2 26q-8 49 -36 76t-70 27t-70 -27
t-36 -76q-2 -8 -2 -26v-210q0 -17 2 -25q8 -50 36 -78t70 -28z" />
    <glyph glyph-name="four.sups" unicode="&#x2074;" horiz-adv-x="665" 
d="M40 860v157l242 458h173v-28l-226 -430h144v110h173v-110h85v-157h-85v-123h-173v123h-333z" />
    <glyph glyph-name="five.sups" unicode="&#x2075;" horiz-adv-x="649" 
d="M318 717q-95 0 -171.5 43t-113.5 127l134 91q56 -104 151 -104q39 0 65.5 19t36.5 50q1 4 1 12v34q0 10 -2 14q-13 32 -41 47t-83 15h-200l-19 18l37 392h449v-158h-313l-9 -110h105q104 0 165 -37t81 -117q4 -9 4 -26v-109q0 -17 -3 -24q-54 -177 -274 -177z" />
    <glyph glyph-name="six.sups" unicode="&#x2076;" horiz-adv-x="673" 
d="M338 717q-112 0 -185.5 55t-97.5 154q-3 10 -3 24v87q0 12 3 24q7 36 21.5 70t27 54t37.5 54l168 236h171v-28l-168 -225q37 14 69 14q200 0 245 -183q1 -5 1 -17v-105q0 -12 -1 -17q-24 -91 -98 -144t-190 -53zM341 874q85 0 113 78q3 8 3 15v49q0 8 -3 16
q-29 76 -113 76q-90 0 -116 -77q-3 -7 -3 -15v-49q0 -9 3 -15q28 -78 116 -78z" />
    <glyph glyph-name="seven.sups" unicode="&#x2077;" horiz-adv-x="593" 
d="M131 737v25l253 555h-354v158h524v-172l-243 -566h-180z" />
    <glyph glyph-name="eight.sups" unicode="&#x2078;" horiz-adv-x="667" 
d="M334 717q-112 0 -184 47.5t-93 128.5q-4 9 -4 22v47q0 11 4 19q8 46 43.5 83t81.5 52q-80 41 -102 125q-5 9 -5 23v47q0 14 5 26q20 76 85 117t169 41q101 0 167.5 -41.5t85.5 -116.5q5 -9 5 -26v-47q0 -15 -5 -24q-20 -82 -102 -124q46 -15 82 -52t44 -83q3 -9 3 -19
v-47q0 -14 -4 -22q-21 -81 -93 -128.5t-183 -47.5zM334 871q74 0 100 58q4 7 4 17v30q0 10 -4 17q-28 58 -100 58t-100 -58q-5 -8 -5 -17v-30q0 -9 5 -17q26 -58 100 -58zM334 1183q66 0 89 48q3 5 3 15v36q0 10 -3 15q-22 48 -89 48t-90 -50q-3 -6 -3 -13v-36q0 -8 3 -14
q24 -49 90 -49z" />
    <glyph glyph-name="nine.sups" unicode="&#x2079;" horiz-adv-x="673" 
d="M335 1495q112 0 185.5 -55t97.5 -154q4 -14 4 -24v-87q0 -9 -4 -25q-7 -36 -21 -69.5t-27 -53.5t-37 -54l-168 -236h-171v28l167 225q-37 -14 -69 -14q-199 0 -244 183q-1 5 -1 17v105q0 11 1 16q24 91 97.5 144.5t189.5 53.5zM333 1338q-85 0 -113 -78q-3 -8 -3 -15v-49
q0 -8 3 -16q29 -76 113 -76q90 0 116 77q3 7 3 15v49q0 9 -3 15q-28 78 -116 78z" />
    <glyph glyph-name="zero.subs" unicode="&#x2080;" horiz-adv-x="690" 
d="M345 -20q-115 0 -188.5 65t-93.5 176q-2 8 -2 25v247q0 17 2 25q20 111 93.5 175.5t188.5 64.5t188 -64.5t94 -175.5q2 -16 2 -25v-247q0 -9 -2 -25q-21 -111 -94 -176t-188 -65zM345 134q42 0 70 28t36 78q2 16 2 25v210q0 10 -2 26q-8 49 -36 76t-70 27t-70 -27
t-36 -76q-2 -8 -2 -26v-210q0 -17 2 -25q8 -50 36 -78t70 -28z" />
    <glyph glyph-name="one.subs" unicode="&#x2081;" horiz-adv-x="497" 
d="M237 0v538l-169 -137h-28v181l197 155h178v-737h-178z" />
    <glyph glyph-name="two.subs" unicode="&#x2082;" horiz-adv-x="647" 
d="M59 0v147l266 216q74 62 85 109q3 8 3 15v39q0 7 -3 13q-24 62 -107 62q-86 0 -135 -100l-135 85q37 81 109.5 126.5t173.5 45.5q110 0 173.5 -45.5t85.5 -121.5q3 -9 3 -22v-90q0 -9 -1 -14q-10 -91 -123 -185l-144 -123h277v-157h-528z" />
    <glyph glyph-name="three.subs" unicode="&#x2083;" horiz-adv-x="653" 
d="M318 -20q-108 0 -178 42t-115 133l141 89q28 -54 62.5 -80.5t85.5 -26.5q39 0 66 17.5t37 48.5q3 7 3 16v42q0 9 -3 15q-9 28 -38.5 46t-74.5 18h-52l-13 12v86l139 142h-303v157h495v-148l-138 -147q64 -11 107 -48.5t56 -93.5q1 -5 1 -14v-110q0 -11 -1 -16
q-27 -81 -98 -130.5t-179 -49.5z" />
    <glyph glyph-name="four.subs" unicode="&#x2084;" horiz-adv-x="665" 
d="M40 123v157l242 457h173v-27l-226 -430h144v110h173v-110h85v-157h-85v-123h-173v123h-333z" />
    <glyph glyph-name="five.subs" unicode="&#x2085;" horiz-adv-x="649" 
d="M318 -20q-95 0 -171.5 43t-113.5 127l134 91q56 -104 151 -104q39 0 65.5 19t36.5 50q1 4 1 12v33q0 11 -2 15q-13 32 -41 47t-83 15h-200l-19 18l37 391h449v-157h-313l-9 -110h105q104 0 165 -37t81 -117q4 -9 4 -26v-109q0 -17 -3 -24q-54 -177 -274 -177z" />
    <glyph glyph-name="six.subs" unicode="&#x2086;" horiz-adv-x="673" 
d="M338 -20q-112 0 -185.5 54.5t-97.5 153.5q-3 10 -3 25v87q0 12 3 24q7 36 21.5 70t27 53t37.5 54l168 236h171v-27l-168 -225q37 14 69 14q200 0 245 -183q1 -5 1 -17v-105q0 -12 -1 -17q-24 -91 -98 -144t-190 -53zM341 137q85 0 113 78q3 7 3 14v50q0 9 -3 16
q-29 76 -113 76q-89 0 -116 -78q-3 -7 -3 -14v-50q0 -8 3 -14q28 -78 116 -78z" />
    <glyph glyph-name="seven.subs" unicode="&#x2087;" horiz-adv-x="593" 
d="M131 0v25l253 555h-354v157h524v-171l-243 -566h-180z" />
    <glyph glyph-name="eight.subs" unicode="&#x2088;" horiz-adv-x="667" 
d="M334 -20q-112 0 -184 47.5t-93 128.5q-4 9 -4 22v46q0 12 4 20q8 46 43.5 83t81.5 52q-81 41 -102 124q-5 9 -5 23v48q0 14 5 26q20 76 85 117t169 41q101 0 167.5 -41.5t85.5 -116.5q5 -9 5 -26v-48q0 -14 -5 -23q-20 -82 -102 -124q46 -15 82 -52t44 -83q3 -9 3 -20
v-46q0 -14 -4 -22q-21 -81 -93 -128.5t-183 -47.5zM334 134q74 0 100 58q4 7 4 17v30q0 10 -4 17q-28 57 -100 57t-100 -57q-5 -8 -5 -17v-30q0 -9 5 -17q26 -58 100 -58zM334 445q65 0 89 49q3 5 3 14v36q0 11 -3 16q-22 48 -89 48t-90 -50q-3 -6 -3 -14v-36q0 -7 3 -13
q24 -50 90 -50z" />
    <glyph glyph-name="nine.subs" unicode="&#x2089;" horiz-adv-x="673" 
d="M335 758q112 0 185.5 -55t97.5 -154q4 -14 4 -25v-87q0 -8 -4 -24q-7 -36 -21 -69.5t-27 -53.5t-37 -54l-168 -236h-171v28l167 224q-34 -13 -69 -13q-199 0 -244 182q-1 5 -1 17v105q0 12 1 17q24 91 97.5 144.5t189.5 53.5zM333 601q-85 0 -113 -79q-3 -8 -3 -14v-49
q0 -9 3 -17q29 -75 113 -75q90 0 116 77q3 8 3 15v49q0 8 -3 14q-13 37 -43 58t-73 21z" />
    <glyph glyph-name="Euro" unicode="&#x20ac;" horiz-adv-x="1587" 
d="M956 -31q-235 0 -414 132.5t-243 363.5h-193v191h174v163h-174v191h193q64 230 243.5 362.5t413.5 132.5q184 0 321 -63t246 -194l-172 -169q-82 103 -174.5 150t-220.5 47q-145 0 -249.5 -68.5t-149.5 -197.5h515l-70 -191h-466v-163h536l-70 -191h-444
q46 -127 152 -197t246 -70q128 0 220.5 47t174.5 150l172 -168q-109 -131 -246 -194.5t-321 -63.5z" />
    <glyph glyph-name="uni20B4" unicode="&#x20b4;" horiz-adv-x="1503" 
d="M106 800v191h885q27 126 -44 205.5t-197 79.5q-198 0 -306 -146l-176 144q80 108 203 169.5t281 61.5q170 0 290.5 -70t172 -186t32.5 -258h151v-191h-1292zM763 -31q-97 0 -184 30t-150 81.5t-107 117t-61.5 139.5t-6.5 147h-148v191h1292v-191h-894
q-17 -119 56.5 -202.5t211.5 -83.5q108 0 187.5 35.5t150.5 118.5l169 -153q-92 -119 -216 -174.5t-300 -55.5z" />
    <glyph glyph-name="uni20B8" unicode="&#x20b8;" horiz-adv-x="1247" 
d="M496 0v855h-424v228h1104v-228h-424v-855h-256zM72 1246v229h1104v-229h-1104z" />
    <glyph glyph-name="uni20BA" unicode="&#x20ba;" horiz-adv-x="1290" 
d="M285 0v552l-182 -53v211l182 53v147l-182 -53v211l182 53v354h255v-278l260 76v-211l-260 -76v-148l260 76v-211l-260 -76v-386h216q66 0 109 10t76.5 35.5t49 73.5t15.5 121v113h240v-156q0 -204 -122 -321t-315 -117h-524z" />
    <glyph glyph-name="uni20BD" unicode="&#x20bd;" horiz-adv-x="1384" 
d="M89 533v196h188v746h578q175 0 291.5 -66t161.5 -195q13 -26 13 -65v-290q0 -38 -13 -65q-46 -127 -163 -195t-290 -68h-323v-162h324v-191h-324v-178h-255v178h-188v191h188v164h-188zM839 759q172 0 224 129q11 22 11 52v126q0 30 -11 52q-51 128 -224 128h-307v-487
h307z" />
    <glyph glyph-name="uni2113" unicode="&#x2113;" horiz-adv-x="999" 
d="M559 0q-167 0 -257.5 85t-90.5 244v34l-131 -84v274l131 84v562q0 18 8 34q27 125 127.5 198.5t243.5 73.5q151 0 244.5 -66t124.5 -193q8 -18 8 -36v-156q0 -17 -4 -41q-28 -122 -102 -203t-237 -184l-174 -111v-151q0 -141 128 -141h221v-223h-240zM450 790l110 70
q83 53 118 94t46 97q4 17 4 43v59q0 14 -5 27q-13 49 -48 76.5t-85 27.5q-52 0 -88 -28.5t-47 -77.5q-5 -13 -5 -27v-361z" />
    <glyph glyph-name="uni2117" unicode="&#x2117;" horiz-adv-x="1677" 
d="M839 -25q-330 0 -533.5 209t-203.5 553q0 170 55 313t152.5 241.5t234 153t295.5 54.5q214 0 381.5 -95t261.5 -269t94 -398t-94 -398t-262 -269t-381 -95zM839 114q170 0 303 76t208 218.5t75 328.5q0 282 -163.5 453t-422.5 171q-171 0 -304 -76.5t-208 -219
t-75 -328.5q0 -140 43.5 -257t121 -197t186 -124.5t236.5 -44.5zM601 348v778h314q103 0 166.5 -44.5t80.5 -125.5v-156q-18 -80 -82 -125.5t-165 -45.5h-170v-281h-144zM907 757q100 0 116 87v67q-15 86 -116 86h-162v-240h162z" />
    <glyph glyph-name="uni2120" unicode="&#x2120;" horiz-adv-x="1671" 
d="M389 704q-207 0 -300 160l123 107q41 -62 82 -90.5t98 -28.5q100 0 114 70v18q-4 30 -22.5 46t-62.5 29l-97 26q-97 27 -144.5 71t-58.5 118v81q16 83 90.5 131t186.5 48q101 0 162.5 -33.5t109.5 -109.5l-116 -102q-61 101 -156 101q-88 0 -107 -68v-18q8 -50 83 -72
l103 -29q103 -29 147 -65.5t51 -95.5v-118q-20 -87 -95 -131.5t-191 -44.5zM770 717v758h216l169 -334h14l170 334h215v-758h-183v476h-15l-155 -295h-77l-155 295h-15v-476h-184z" />
    <glyph glyph-name="trademark" unicode="&#x2122;" horiz-adv-x="1640" 
d="M265 717v594h-195v164h583v-164h-195v-594h-193zM739 717v758h216l169 -334h14l170 334h215v-758h-184v476h-14l-156 -296h-76l-156 296h-14v-476h-184z" />
    <glyph glyph-name="uni2126" unicode="&#x2126;" horiz-adv-x="1566" 
d="M120 0v246h309l3 47q-137 62 -223.5 176.5t-113.5 260.5q-1 6 -1 20v184q0 13 1 20q40 255 222.5 403t464.5 148t465 -148t223 -403q1 -7 1 -20v-184q0 -14 -1 -20q-52 -308 -336 -437v-47h311v-246h-540v397q266 64 310 321q1 7 1 21v185q0 15 -1 21q-28 155 -144 244.5
t-289 89.5t-288.5 -89.5t-143.5 -244.5q-1 -6 -1 -21v-185q0 -14 1 -21q21 -123 98.5 -205.5t211.5 -115.5v-397h-540z" />
    <glyph glyph-name="estimated" unicode="&#x212e;" horiz-adv-x="1652" 
d="M834 -25q-156 0 -292 56t-233 153.5t-152.5 235.5t-55.5 297q0 208 96 378t264 266.5t373 96.5q155 0 291 -56.5t233 -154t153 -235.5t56 -295q0 -30 -2 -43h-1110v-339q66 -90 156 -136t223 -46q166 0 286.5 71.5t189.5 209.5h204q-82 -216 -260 -337.5t-420 -121.5z
M455 839h757v284q-141 158 -378 158q-231 0 -379 -157v-285z" />
    <glyph glyph-name="uni2153" unicode="&#x2153;" horiz-adv-x="1579" 
d="M215 0v35l827 1440h215v-36l-828 -1439h-214zM230 737v538l-169 -137h-28v181l197 156h179v-738h-179zM1243 -20q-108 0 -178 42t-115 133l141 89q28 -54 62.5 -80.5t85.5 -26.5q39 0 66 17.5t37 48.5q3 8 3 16v42q0 9 -3 15q-9 28 -39 46t-75 18h-51l-13 12v86l139 142
h-303v157h495v-148l-138 -147q64 -11 107 -48.5t56 -93.5q1 -5 1 -14v-110q0 -11 -1 -16q-27 -81 -98 -130.5t-179 -49.5z" />
    <glyph glyph-name="uni2154" unicode="&#x2154;" horiz-adv-x="1730" 
d="M360 0v35l828 1440h215v-36l-828 -1439h-215zM1389 -20q-108 0 -178 42t-115 133l140 89q28 -54 63 -80.5t86 -26.5q39 0 66 17.5t37 48.5q2 5 2 16v42q0 11 -2 15q-9 28 -39 46t-75 18h-52l-12 12v86l139 142h-303v157h495v-148l-138 -147q64 -11 107 -48.5t56 -93.5
q1 -5 1 -14v-110q0 -11 -1 -16q-27 -81 -98 -130.5t-179 -49.5zM82 737v147l266 216q74 62 85 109q3 7 3 16v38q0 7 -3 13q-24 62 -107 62q-86 0 -135 -99l-135 85q37 81 109 126t174 45q110 0 173.5 -45.5t85.5 -121.5q3 -9 3 -21v-90q0 -10 -1 -15q-10 -91 -123 -185
l-144 -123h277v-157h-528z" />
    <glyph glyph-name="oneeighth" unicode="&#x215b;" horiz-adv-x="1556" 
d="M215 0v35l827 1440h215v-36l-828 -1439h-214zM1228 -20q-112 0 -183.5 47.5t-92.5 128.5q-4 9 -4 22v46q0 14 3 20q8 46 43.5 83t81.5 52q-79 40 -101 124q-6 10 -6 23v48q0 12 6 26q20 76 84.5 117t168.5 41q101 0 167.5 -41.5t85.5 -116.5q6 -10 6 -26v-48
q0 -12 -6 -23q-20 -83 -101 -124q46 -15 81.5 -52t43.5 -83q4 -12 4 -20v-46q0 -14 -4 -22q-21 -81 -93.5 -128.5t-183.5 -47.5zM1228 134q74 0 100 58q5 8 5 17v30q0 9 -5 17q-28 57 -100 57t-100 -57q-4 -7 -4 -17v-30q0 -10 4 -17q26 -58 100 -58zM1228 445q65 0 89 49
q4 7 4 14v36q0 9 -4 16q-22 48 -89 48t-90 -50q-2 -4 -2 -14v-36q0 -9 2 -13q24 -50 90 -50zM230 737v538l-169 -137h-28v181l197 156h179v-738h-179z" />
    <glyph glyph-name="threeeighths" unicode="&#x215c;" horiz-adv-x="1687" 
d="M328 0v35l828 1440h215v-36l-828 -1439h-215zM1342 -20q-112 0 -184 47.5t-93 128.5q-4 9 -4 22v46q0 12 4 20q8 46 43.5 83t81.5 52q-79 40 -101 124q-6 10 -6 23v48q0 12 6 26q20 76 84.5 117t168.5 41q101 0 167.5 -41.5t85.5 -116.5q6 -10 6 -26v-48q0 -12 -6 -23
q-20 -83 -101 -124q46 -15 81.5 -52t43.5 -83q4 -12 4 -20v-46q0 -12 -5 -22q-21 -81 -93 -128.5t-183 -47.5zM1342 134q74 0 100 58q4 7 4 17v30q0 10 -4 17q-28 57 -100 57t-100 -57q-4 -7 -4 -17v-30q0 -10 4 -17q26 -58 100 -58zM1342 445q65 0 89 49q4 7 4 14v36
q0 9 -4 16q-22 48 -89 48t-90 -50q-3 -6 -3 -14v-36q0 -7 3 -13q24 -50 90 -50zM357 717q-108 0 -178 42t-115 133l141 90q28 -54 63 -81t85 -27q38 0 65.5 18t37.5 49q3 7 3 15v42q0 10 -3 16q-9 28 -38.5 45.5t-74.5 17.5h-52l-13 13v85l139 142h-303v158h495v-149
l-138 -147q64 -11 107 -48.5t56 -93.5q1 -5 1 -14v-110q0 -11 -1 -16q-27 -81 -98 -130.5t-179 -49.5z" />
    <glyph glyph-name="fiveeighths" unicode="&#x215d;" horiz-adv-x="1669" 
d="M322 0v35l827 1440h215v-36l-828 -1439h-214zM1335 -20q-112 0 -183.5 47.5t-92.5 128.5q-4 9 -4 22v46q0 14 3 20q8 46 43.5 83t81.5 52q-79 40 -101 124q-6 10 -6 23v48q0 12 6 26q20 76 84.5 117t168.5 41q101 0 167.5 -41.5t85.5 -116.5q6 -10 6 -26v-48
q0 -12 -6 -23q-20 -83 -101 -124q46 -15 81.5 -52t43.5 -83q4 -12 4 -20v-46q0 -14 -4 -22q-21 -81 -93.5 -128.5t-183.5 -47.5zM1335 134q74 0 100 58q5 8 5 17v30q0 9 -5 17q-28 57 -100 57t-100 -57q-4 -7 -4 -17v-30q0 -10 4 -17q26 -58 100 -58zM1335 445q65 0 89 49
q4 7 4 14v36q0 9 -4 16q-22 48 -89 48t-90 -50q-2 -4 -2 -14v-36q0 -9 2 -13q24 -50 90 -50zM326 717q-95 0 -172 43t-114 127l134 91q56 -104 152 -104q39 0 65 19t36 50q2 8 2 12v34q0 8 -3 14q-13 32 -40.5 47t-82.5 15h-201l-19 18l37 392h449v-158h-312l-10 -110h105
q208 0 246 -154q5 -12 5 -26v-109q0 -15 -4 -24q-54 -177 -273 -177z" />
    <glyph glyph-name="seveneighths" unicode="&#x215e;" horiz-adv-x="1476" 
d="M134 0v35l828 1440h215v-36l-829 -1439h-214zM1147 -20q-112 0 -183.5 47.5t-92.5 128.5q-4 9 -4 22v46q0 14 3 20q8 46 43.5 83t81.5 52q-79 40 -101 124q-6 10 -6 23v48q0 12 6 26q20 76 84.5 117t168.5 41q101 0 167.5 -41.5t85.5 -116.5q6 -10 6 -26v-48
q0 -12 -6 -23q-20 -83 -101 -124q46 -15 81.5 -52t43.5 -83q4 -12 4 -20v-46q0 -14 -4 -22q-21 -81 -93.5 -128.5t-183.5 -47.5zM1147 134q74 0 100 58q5 8 5 17v30q0 9 -5 17q-28 57 -100 57q-71 0 -99 -57q-5 -8 -5 -17v-30q0 -9 5 -17q26 -58 99 -58zM1147 445
q65 0 89 49q4 7 4 14v36q0 9 -4 16q-22 48 -89 48t-90 -50q-2 -4 -2 -14v-36q0 -9 2 -13q24 -50 90 -50zM147 737v25l253 555h-353v158h523v-172l-242 -566h-181z" />
    <glyph glyph-name="arrowleft" unicode="&#x2190;" horiz-adv-x="1593" 
d="M751 -63l-661 660v35l661 660l151 -151l-420 -423h1014v-208h-1014l420 -422z" />
    <glyph glyph-name="arrowup" unicode="&#x2191;" horiz-adv-x="1519" 
d="M1438 780l-152 -152l-422 420v-1013h-208v1013l-423 -420l-151 152l660 660h35z" />
    <glyph glyph-name="arrowright" unicode="&#x2192;" horiz-adv-x="1593" 
d="M842 -63l-151 151l420 422h-1014v208h1014l-420 423l151 151l661 -660v-35z" />
    <glyph glyph-name="arrowdown" unicode="&#x2193;" horiz-adv-x="1519" 
d="M82 695l151 151l423 -420v1014h208v-1014l422 420l152 -151l-661 -661h-35z" />
    <glyph glyph-name="arrowboth" unicode="&#x2194;" horiz-adv-x="2205" 
d="M747 -63l-660 660v35l660 660l152 -151l-420 -423h1248l-419 423l151 151l661 -660v-35l-661 -660l-151 151l419 422h-1248l420 -422z" />
    <glyph glyph-name="arrowupdn" unicode="&#x2195;" horiz-adv-x="1507" 
d="M228 881l-152 151l661 661h35l660 -661l-151 -151l-423 419v-1125l423 419l151 -152l-660 -660h-35l-661 660l152 152l422 -419v1125z" />
    <glyph glyph-name="uni2196" unicode="&#x2196;" horiz-adv-x="1269" 
d="M1078 1368v-215l-596 -2l717 -716l-147 -147l-717 717l-2 -596h-214v933l25 26h934z" />
    <glyph glyph-name="uni2197" unicode="&#x2197;" horiz-adv-x="1269" 
d="M191 1381h934l24 -24v-934h-214l-1 596l-717 -717l-147 147l716 716l-595 2v214z" />
    <glyph glyph-name="uni2198" unicode="&#x2198;" horiz-adv-x="1251" 
d="M181 109v215l596 1l-717 717l147 147l717 -717l1 596h215v-934l-25 -25h-934z" />
    <glyph glyph-name="uni2199" unicode="&#x2199;" horiz-adv-x="1251" 
d="M1071 109h-934l-25 25v934h215l1 -595l716 716l148 -147l-717 -717l596 -1v-215z" />
    <glyph glyph-name="partialdiff" unicode="&#x2202;" horiz-adv-x="1206" 
d="M596 -31q-196 0 -341 116t-182 301q-3 13 -3 31v239q0 16 3 35q37 187 178.5 301t344.5 114q92 0 177 -31q-163 292 -462 480v42h287q85 -51 176 -153t165.5 -225.5t124.5 -265t54 -263.5q3 -19 3 -34v-239q0 -18 -3 -30q-37 -186 -182 -302t-340 -116zM596 185
q108 0 188 62.5t99 163.5q3 14 3 29v194q0 20 -3 32q-19 101 -98.5 162.5t-188.5 61.5t-188 -62t-99 -163q-3 -12 -3 -31v-194q0 -14 3 -28q21 -102 100 -164.5t187 -62.5z" />
    <glyph glyph-name="uni2206" unicode="&#x2206;" horiz-adv-x="1361" 
d="M30 0v42l490 1433h318l493 -1433v-42h-1301zM373 256h615l-294 908h-29z" />
    <glyph glyph-name="product" unicode="&#x220f;" horiz-adv-x="1447" 
d="M145 -451v1926h1158v-1926h-256v1688h-647v-1688h-255z" />
    <glyph glyph-name="summation" unicode="&#x2211;" horiz-adv-x="1296" 
d="M61 -451v229l588 740l-588 728v229h1174v-229h-880l585 -728l-584 -740h879v-229h-1174z" />
    <glyph glyph-name="minus" unicode="&#x2212;" horiz-adv-x="1046" 
d="M67 633v209h913v-209h-913z" />
    <glyph glyph-name="uni2215" unicode="&#x2215;" horiz-adv-x="882" 
d="M31 0v42l608 1433h213v-43l-608 -1432h-213z" />
    <glyph glyph-name="uni2219" unicode="&#x2219;" horiz-adv-x="675" 
d="M338 319q-98 0 -166 68t-68 164q0 98 68 166.5t166 68.5q97 0 165 -68.5t68 -166.5q0 -95 -68.5 -163.5t-164.5 -68.5z" />
    <glyph glyph-name="radical" unicode="&#x221a;" horiz-adv-x="1261" 
d="M383 0l-295 692l2 45h254l173 -437h35l425 1175h242l2 -46l-544 -1429h-294z" />
    <glyph glyph-name="infinity" unicode="&#x221e;" horiz-adv-x="1390" 
d="M414 374q-123 0 -206 71t-108 188q-2 68 -2 102t2 102q25 117 108 188t206 71q84 0 156 -42t116 -120l9 -19l10 19q44 78 115.5 120t155.5 42q123 0 206 -71t108 -188q2 -68 2 -102t-2 -102q-25 -117 -108 -188t-206 -71q-84 0 -155.5 42t-115.5 120l-10 19l-9 -19
q-44 -78 -116 -120t-156 -42zM425 580q41 0 78 21.5t57 58.5l42 75l-42 74q-20 37 -57 59t-78 22q-50 0 -84 -25.5t-43 -64.5q-2 -20 -2 -66q0 -44 2 -64q9 -39 43 -64.5t84 -25.5zM965 580q50 0 84 25.5t43 64.5q2 20 2 64q0 46 -2 66q-9 39 -43 64.5t-84 25.5
q-41 0 -77.5 -22t-57.5 -59l-41 -74l41 -75q21 -37 57.5 -58.5t77.5 -21.5z" />
    <glyph glyph-name="integral" unicode="&#x222b;" horiz-adv-x="819" 
d="M34 -451v222h107q65 0 99 37.5t34 104.5v1356q0 160 94.5 244.5t257.5 84.5h162v-222h-142q-65 0 -99 -37.5t-34 -104.5v-1362q0 -157 -95 -240t-257 -83h-127z" />
    <glyph glyph-name="approxequal" unicode="&#x2248;" horiz-adv-x="1046" 
d="M755 329q-84 0 -166 49l-155 85q-62 39 -97 39q-33 0 -53 -25.5t-20 -67.5v-63h-195v98q0 116 62.5 183t164.5 67q84 0 165 -49l155 -84q62 -39 98 -39q33 0 53 25.5t20 66.5v64h196v-99q0 -115 -63 -182.5t-165 -67.5zM755 787q-84 0 -166 49l-155 85q-61 38 -97 38
q-34 0 -53.5 -25t-19.5 -67v-64h-195v99q0 116 62.5 183t164.5 67q84 0 165 -49l155 -84q62 -39 98 -39q33 0 53 25.5t20 66.5v64h196v-100q0 -115 -62.5 -182t-165.5 -67z" />
    <glyph glyph-name="notequal" unicode="&#x2260;" horiz-adv-x="1046" 
d="M240 150l-117 75v27l96 149h-149v209h283l162 253h-445v209h579l157 244l117 -73v-28l-92 -143h152v-209h-286l-161 -253h447v-209h-582z" />
    <glyph glyph-name="lessequal" unicode="&#x2264;" horiz-adv-x="1046" 
d="M942 438l-877 329v250l877 330h35v-219l-667 -236l667 -235v-219h-35zM65 0v209h912v-209h-912z" />
    <glyph glyph-name="greaterequal" unicode="&#x2265;" horiz-adv-x="1046" 
d="M76 438v219l667 235l-667 236v219h35l877 -330v-250l-877 -329h-35zM65 0v209h913v-209h-913z" />
    <glyph glyph-name="lozenge" unicode="&#x25ca;" horiz-adv-x="1265" 
d="M520 0l-430 708v58l430 709h226l430 -709v-58l-430 -708h-226zM633 218l303 519l-303 519l-304 -519z" />
    <glyph glyph-name="uniF000" unicode="&#xf000;" horiz-adv-x="864" 
d="M338 -8q-26 0 -42.5 18t-16.5 43h-50q-4 0 -4 4v43h-45q-2 0 -2 2v35q0 7 5.5 12t13.5 5h52q-54 66 -54 116q0 65 57 104q22 -9 50.5 -10t47.5 8q54 51 146 51q72 0 129 -31q95 -53 127 -53q10 0 19.5 3.5t14.5 3.5q14 0 14 -22q0 -52 -36.5 -99.5t-91.5 -70.5h80
q7 0 12.5 -5.5t5.5 -11.5v-33q0 -4 -4 -4h-41v-43q0 -4 -4 -4h-64q0 -26 -17 -43.5t-42 -17.5q-26 0 -41.5 17t-15.5 44h-144v-2q0 -25 -17 -42t-42 -17zM264 397q-2 1 -2 5q0 22 -15 31.5t-50 9.5h-120q-17 0 -28.5 6.5t-11.5 16.5q0 32 48 24q67 -9 106 2.5t72 50.5
q23 28 63 28q32 0 53.5 -21t21.5 -52q0 -24 -9.5 -40.5t-22 -31.5t-17.5 -29q-11 -9 -42 -8.5t-46 8.5zM322 456q16 0 27 11t11 28t-11 28t-27 11t-27.5 -11t-11.5 -28t11.5 -28t27.5 -11zM322 481q-15 0 -15 14t15 14q14 0 14 -14t-14 -14z" />
    <glyph glyph-name="uniFEFF" unicode="&#xfeff;" horiz-adv-x="0" 
 />
    <glyph glyph-name="IJ.loclNLD" horiz-adv-x="1308" 
d="M668 -31q-71 0 -135 10.5t-132 40.5t-117.5 77.5t-82 128t-33.5 185.5h255q2 -95 66.5 -149.5t167.5 -54.5q92 0 153 42.5t78 117.5q6 24 6 55v1053h255v-1020q0 -228 -127.5 -357t-353.5 -129zM168 623v852h255v-852h-255z" />
    <glyph glyph-name="i.loclTRK" horiz-adv-x="542" 
d="M152 0v1106h239v-1106h-239zM271 1278q-67 0 -114.5 47.5t-47.5 115.5t47.5 115.5t114.5 47.5t115 -48t48 -115t-48 -115t-115 -48z" />
    <glyph glyph-name="ij.loclNLD" horiz-adv-x="1218" 
d="M609 -451v222h107q65 0 99 37.5t34 104.5v228q-42 -79 -126 -125.5t-197 -46.5q-192 0 -299.5 111.5t-107.5 309.5v716h239v-686q11 -109 71 -169t172 -60q200 0 248 202v713h239v-1227q0 -160 -94.5 -245t-257.5 -85h-127zM239 1279q-67 0 -115 47.5t-48 115.5t48 115.5
t115 47.5t114.5 -47.5t47.5 -115.5t-47.5 -115.5t-114.5 -47.5zM969 1279q-67 0 -115 47.5t-48 115.5t48 115.5t115 47.5t114.5 -47.5t47.5 -115.5t-47.5 -115.5t-114.5 -47.5z" />
    <glyph glyph-name="a.ss01" 
d="M561 -32q-175 0 -298.5 103t-163.5 287q-9 176 -4 371q36 193 161 301t308 108q234 0 360 -169l54 137h187v-1106h-187l-54 136q-124 -168 -363 -168zM634 185q223 0 293 210v311q-34 103 -111 159t-182 56q-120 0 -199.5 -66t-102.5 -188q-8 -135 3 -248
q28 -113 105.5 -173.5t193.5 -60.5z" />
    <glyph glyph-name="aacute.ss01" 
d="M561 -32q-175 0 -298.5 103t-163.5 287q-9 176 -4 371q36 193 161 301t308 108q234 0 360 -169l54 137h187v-1106h-187l-54 136q-124 -168 -363 -168zM634 185q223 0 293 210v311q-34 103 -111 159t-182 56q-120 0 -199.5 -66t-102.5 -188q-8 -135 3 -248
q28 -113 105.5 -173.5t193.5 -60.5zM558 1241v43l150 279h286v-43l-255 -279h-181z" />
    <glyph glyph-name="abreve.ss01" 
d="M561 -32q-175 0 -298.5 103t-163.5 287q-9 176 -4 371q36 193 161 301t308 108q234 0 360 -169l54 137h187v-1106h-187l-54 136q-124 -168 -363 -168zM634 185q223 0 293 210v311q-34 103 -111 159t-182 56q-120 0 -199.5 -66t-102.5 -188q-8 -135 3 -248
q28 -113 105.5 -173.5t193.5 -60.5zM651 1241q-160 0 -248.5 86.5t-88.5 235.5h193q0 -74 38 -117t105 -43t105 42.5t38 117.5h193q0 -150 -88 -236t-247 -86z" />
    <glyph glyph-name="acircumflex.ss01" 
d="M561 -32q-175 0 -298.5 103t-163.5 287q-9 176 -4 371q36 193 161 301t308 108q234 0 360 -169l54 137h187v-1106h-187l-54 136q-124 -168 -363 -168zM634 185q223 0 293 210v311q-34 103 -111 159t-182 56q-120 0 -199.5 -66t-102.5 -188q-8 -135 3 -248
q28 -113 105.5 -173.5t193.5 -60.5zM285 1241v43l260 279h210l260 -279v-43h-217l-148 166l-148 -166h-217z" />
    <glyph glyph-name="adieresis.ss01" 
d="M561 -32q-175 0 -298.5 103t-163.5 287q-9 176 -4 371q36 193 161 301t308 108q234 0 360 -169l54 137h187v-1106h-187l-54 136q-124 -168 -363 -168zM634 185q223 0 293 210v311q-34 103 -111 159t-182 56q-120 0 -199.5 -66t-102.5 -188q-8 -135 3 -248
q28 -113 105.5 -173.5t193.5 -60.5zM444 1255q-60 0 -103.5 43.5t-43.5 103.5t43.5 103t103.5 43t103 -43t43 -103t-43 -103.5t-103 -43.5zM855 1255q-60 0 -103.5 43.5t-43.5 103.5t43.5 103t103.5 43t103 -43t43 -103t-43 -103.5t-103 -43.5z" />
    <glyph glyph-name="agrave.ss01" 
d="M561 -32q-175 0 -298.5 103t-163.5 287q-9 176 -4 371q36 193 161 301t308 108q234 0 360 -169l54 137h187v-1106h-187l-54 136q-124 -168 -363 -168zM634 185q223 0 293 210v311q-34 103 -111 159t-182 56q-120 0 -199.5 -66t-102.5 -188q-8 -135 3 -248
q28 -113 105.5 -173.5t193.5 -60.5zM560 1241l-256 279v43h286l150 -279v-43h-180z" />
    <glyph glyph-name="amacron.ss01" 
d="M561 -32q-175 0 -298.5 103t-163.5 287q-9 176 -4 371q36 193 161 301t308 108q234 0 360 -169l54 137h187v-1106h-187l-54 136q-124 -168 -363 -168zM634 185q223 0 293 210v311q-34 103 -111 159t-182 56q-120 0 -199.5 -66t-102.5 -188q-8 -135 3 -248
q28 -113 105.5 -173.5t193.5 -60.5zM349 1309v186h601v-186h-601z" />
    <glyph glyph-name="aogonek.ss01" 
d="M561 -32q-175 0 -298.5 103t-163.5 287q-9 176 -4 371q36 193 161 301t308 108q234 0 360 -169l54 137h187v-1106q-69 -19 -110.5 -62.5t-41.5 -105.5q0 -46 28 -70t78 -24h46v-182h-85q-123 0 -192.5 67.5t-69.5 177.5q0 153 144 240l-38 95q-124 -168 -363 -168z
M634 185q223 0 293 210v311q-34 103 -111 159t-182 56q-120 0 -199.5 -66t-102.5 -188q-8 -135 3 -248q28 -113 105.5 -173.5t193.5 -60.5z" />
    <glyph glyph-name="aring.ss01" 
d="M561 -32q-175 0 -298.5 103t-163.5 287q-9 176 -4 371q36 193 161 301t308 108q234 0 360 -169l54 137h187v-1106h-187l-54 136q-124 -168 -363 -168zM634 185q223 0 293 210v311q-34 103 -111 159t-182 56q-120 0 -199.5 -66t-102.5 -188q-8 -135 3 -248
q28 -113 105.5 -173.5t193.5 -60.5zM648 1218q-96 0 -156.5 59.5t-60.5 149.5q0 92 60.5 153t156.5 61t157.5 -61t61.5 -153q0 -90 -61.5 -149.5t-157.5 -59.5zM648 1343q35 0 60.5 24.5t25.5 59.5q0 38 -25 63t-61 25q-37 0 -61 -24.5t-24 -63.5q0 -36 24 -60t61 -24z" />
    <glyph glyph-name="atilde.ss01" 
d="M561 -32q-175 0 -298.5 103t-163.5 287q-9 176 -4 371q36 193 161 301t308 108q234 0 360 -169l54 137h187v-1106h-187l-54 136q-124 -168 -363 -168zM634 185q223 0 293 210v311q-34 103 -111 159t-182 56q-120 0 -199.5 -66t-102.5 -188q-8 -135 3 -248
q28 -113 105.5 -173.5t193.5 -60.5zM291 1337q0 99 52 156.5t138 57.5q75 0 147 -44l67 -42q46 -28 72 -28q58 0 58 70v48h183v-89q0 -100 -51.5 -156.5t-137.5 -56.5q-77 0 -151 46l-68 43q-39 25 -69 25q-57 0 -57 -71v-47h-183v88z" />
    <glyph glyph-name="ae.ss01" horiz-adv-x="2070" 
d="M561 -32q-175 0 -298.5 103t-163.5 287q-9 176 -4 371q36 193 161 301t308 108q115 0 208 -43.5t155 -125.5v137h241v-137q43 75 129.5 121.5t188.5 46.5q200 0 328.5 -110t167.5 -307q3 -15 3 -29v-183l-28 -28h-787q18 -139 98.5 -217t213.5 -78q98 0 167.5 35
t134.5 115l162 -148q-78 -105 -185.5 -161.5t-219.5 -56.5q-139 0 -227 41.5t-147 127.5v-138h-240v137q-124 -169 -366 -169zM634 185q223 0 293 210v311q-34 103 -111 159t-182 56q-120 0 -199.5 -66t-102.5 -188q-8 -135 3 -248q28 -113 105.5 -173.5t193.5 -60.5z
M1755 668q-13 117 -89 188.5t-193 71.5q-120 0 -197 -70t-99 -190h578z" />
    <glyph glyph-name="aeacute.ss01" horiz-adv-x="2070" 
d="M561 -32q-175 0 -298.5 103t-163.5 287q-9 176 -4 371q36 193 161 301t308 108q115 0 208 -43.5t155 -125.5v137h241v-137q43 75 129.5 121.5t188.5 46.5q200 0 328.5 -110t167.5 -307q3 -15 3 -29v-183l-28 -28h-787q18 -139 98.5 -217t213.5 -78q98 0 167.5 35
t134.5 115l162 -148q-78 -105 -185.5 -161.5t-219.5 -56.5q-139 0 -227 41.5t-147 127.5v-138h-240v137q-124 -169 -366 -169zM634 185q223 0 293 210v311q-34 103 -111 159t-182 56q-120 0 -199.5 -66t-102.5 -188q-8 -135 3 -248q28 -113 105.5 -173.5t193.5 -60.5z
M1755 668q-13 117 -89 188.5t-193 71.5q-120 0 -197 -70t-99 -190h578zM956 1241v43l150 279h286v-43l-255 -279h-181z" />
    <glyph glyph-name="l.ss03" horiz-adv-x="528" 
d="M145 0v1597h238v-1597h-238z" />
    <glyph glyph-name="lacute.ss03" horiz-adv-x="528" 
d="M145 0v1597h238v-1597h-238zM173 1733v42l150 279h285v-42l-255 -279h-180z" />
    <glyph glyph-name="lcaron.ss03" horiz-adv-x="528" 
d="M145 0v1597h238v-1597h-238zM569 1200v397h229v-35l-97 -362h-132z" />
    <glyph glyph-name="uni013C.ss03" horiz-adv-x="528" 
d="M145 0v1597h238v-1597h-238zM154 -451v340h223v-35l-65 -305h-158z" />
    <glyph glyph-name="ldot.ss03" horiz-adv-x="811" 
d="M145 0v1597h238v-1597h-238zM667 574q-67 0 -115 48t-48 115t48 115t115 48t114.5 -47.5t47.5 -115.5t-47.5 -115.5t-114.5 -47.5z" />
    <glyph glyph-name="lslash.ss03" horiz-adv-x="679" 
d="M62 617v246l160 49v685h238v-611l158 49v-243l-158 -50v-742h-238v667z" />
    <glyph glyph-name="fl.ss03" horiz-adv-x="1155" 
d="M241 0v886h-197v220h197v162q0 160 94.5 244.5t257.5 84.5h520v-1597h-238v1376h-262q-65 0 -99 -37.5t-34 -104.5v-128h246v-220h-246v-886h-239z" />
    <glyph glyph-name="zero.tf" horiz-adv-x="1228" 
d="M614 -31q-223 0 -363.5 138.5t-172.5 405.5q-1 8 -1 23v402q0 14 1 24q33 265 173.5 404t362.5 139t363 -139t174 -404q1 -2 1 -13l-1 -11v-402v-23q-32 -266 -173 -405t-364 -139zM614 192q123 0 203 84.5t93 246.5v22v385v22q-14 162 -94 246.5t-202 84.5t-201.5 -84.5
t-93.5 -246.5q-1 -9 -1 -22v-385q0 -14 1 -22q13 -162 92.5 -246.5t202.5 -84.5z" />
    <glyph glyph-name="one.tf" horiz-adv-x="1228" 
d="M170 0v223h361v975l-318 -274h-43v248l361 303h241v-1252h361v-223h-963z" />
    <glyph glyph-name="two.tf" horiz-adv-x="1228" 
d="M168 0v223l519 493q98 93 134 147t45 123q1 5 1 15v79q0 10 -1 15q-17 91 -79 138.5t-163 47.5q-112 0 -185.5 -61t-119.5 -188l-185 117q55 171 185.5 263t321.5 92q188 0 313.5 -94.5t152.5 -259.5q1 -3 1 -10v-163q0 -10 -1 -16q-13 -116 -64.5 -192.5t-226.5 -242.5
l-318 -303h610v-223h-940z" />
    <glyph glyph-name="three.tf" horiz-adv-x="1228" 
d="M622 -31q-187 0 -311.5 85t-198.5 262l212 117q92 -242 299 -242q99 0 163 41.5t87 114.5q9 95 -1 198q-45 147 -257 147h-104l-27 28v167l337 365h-636v223h900v-223l-329 -377q294 -20 356 -273q13 -153 0 -306q-42 -154 -172.5 -240.5t-317.5 -86.5z" />
    <glyph glyph-name="four.tf" horiz-adv-x="1228" 
d="M71 255v221l582 999h266v-43l-561 -956h362v261h237v-261h208v-221h-208v-255h-237v255h-649z" />
    <glyph glyph-name="five.tf" horiz-adv-x="1228" 
d="M625 -31q-190 0 -316 85t-198 262l212 117q97 -241 302 -241q100 0 163 42t85 121q3 14 3 26v133q0 13 -3 25q-23 79 -80 112.5t-163 33.5h-400l-28 28l83 762h779v-223h-583l-32 -353h241q175 0 284.5 -79.5t140.5 -234.5q2 -16 2 -23v-224q0 -10 -2 -24
q-42 -165 -169.5 -255t-320.5 -90z" />
    <glyph glyph-name="six.tf" horiz-adv-x="1228" 
d="M620 -31q-200 0 -339 114.5t-176 307.5q-2 35 -2 111t1 112q20 102 45 159t87 152l357 550h257l-1 -43l-302 -446q40 24 101 24q204 0 330.5 -102.5t153.5 -281.5q6 -63 6 -128q0 -66 -6 -123q-30 -181 -172 -293.5t-340 -112.5zM620 194q223 0 271 200q5 43 5 102
q0 38 -6 108q-50 201 -270 201q-103 0 -175 -54t-94 -145q-6 -54 -6 -107q0 -54 6 -105q21 -89 95 -144.5t174 -55.5z" />
    <glyph glyph-name="seven.tf" horiz-adv-x="1228" 
d="M347 0v42l510 1204h-710v229h958v-223l-503 -1252h-255z" />
    <glyph glyph-name="eight.tf" horiz-adv-x="1228" 
d="M614 -31q-216 0 -355 92.5t-169 249.5q-2 7 -2 19v144q0 12 2 20q19 102 81.5 172t151.5 94q-85 44 -128.5 105t-59.5 148q-1 6 -1 20v139q0 4 2 20q33 150 157 231.5t321 81.5t321.5 -81.5t157.5 -231.5q1 -8 1 -20v-139q0 -14 -1 -20q-16 -87 -59.5 -148t-128.5 -105
q89 -24 151.5 -94t81.5 -172q2 -8 2 -20v-144q0 -12 -2 -19q-29 -157 -169 -249.5t-355 -92.5zM614 192q102 0 175 42.5t104 121.5q1 5 1 18v113q0 13 -1 19q-62 156 -279 156t-279 -156q-1 -6 -1 -19v-113q0 -13 1 -18q31 -79 103.5 -121.5t175.5 -42.5zM614 858
q92 0 153 35t83 100q1 6 1 19v132q0 9 -2 19q-24 64 -84 99t-151 35q-184 0 -235 -134q-2 -5 -2 -19v-132q0 -13 1 -19q48 -135 236 -135z" />
    <glyph glyph-name="nine.tf" horiz-adv-x="1228" 
d="M617 1505q201 0 339.5 -114t175.5 -307q3 -53 3 -112q0 -39 -2 -111q-20 -102 -45.5 -160t-86.5 -152l-357 -549h-256v42l303 446q-39 -23 -101 -23q-204 0 -330.5 102.5t-153.5 281.5q-7 73 -7 128t7 122q30 181 171.5 293.5t339.5 112.5zM618 1281q-223 0 -271 -200
q-5 -43 -5 -103q0 -50 5 -108q50 -200 271 -200q103 0 175 54t94 145q6 54 6 107q0 54 -6 105q-21 89 -95 144.5t-174 55.5z" />
    <glyph glyph-name="arrowup.ss02" horiz-adv-x="1437" 
d="M192 331l-152 152l661 660h35l660 -660l-151 -152l-527 524z" />
    <glyph glyph-name="uni2197.ss02" horiz-adv-x="1124" 
d="M803 259v742h-744v215h933l24 -25v-932h-213z" />
    <glyph glyph-name="arrowright.ss02" horiz-adv-x="978" 
d="M231 61l-152 151l523 527l-523 527l152 151l660 -660v-36z" />
    <glyph glyph-name="uni2198.ss02" horiz-adv-x="1146" 
d="M77 259v215h743v742h214v-933l-25 -24h-932z" />
    <glyph glyph-name="arrowdown.ss02" horiz-adv-x="1413" 
d="M689 331l-660 661l151 151l527 -523l526 523l152 -151l-661 -661h-35z" />
    <glyph glyph-name="uni2199.ss02" horiz-adv-x="1146" 
d="M139 259l-25 24v933h214v-742h743v-215h-932z" />
    <glyph glyph-name="arrowleft.ss02" horiz-adv-x="978" 
d="M748 61l-660 660v36l660 660l151 -151l-523 -527l523 -527z" />
    <glyph glyph-name="uni2196.ss02" horiz-adv-x="1124" 
d="M108 259v932l25 25h932v-215h-743v-742h-214z" />
    <glyph glyph-name="arrowboth.ss02" horiz-adv-x="2211" 
d="M1462 61l-152 151l523 527l-523 527l152 151l660 -660v-36zM749 61l-660 660v36l660 660l152 -151l-523 -527l523 -527z" />
    <glyph glyph-name="arrowupdn.ss02" horiz-adv-x="1533" 
d="M241 881l-152 151l661 661h34l661 -661l-152 -151l-526 522zM750 -218l-661 660l152 152l526 -523l526 523l152 -152l-661 -660h-34z" />
    <glyph glyph-name="uni0306.cy" horiz-adv-x="0" 
d="M1 1241q-160 0 -248.5 86.5t-88.5 235.5h193q0 -74 38 -117t105 -43t105 42.5t38 117.5h193q0 -150 -88 -236t-247 -86z" />
    <glyph glyph-name="tonos.case" horiz-adv-x="446" 
d="M88 1063v412h271v-43l-125 -369h-146z" />
    <glyph glyph-name="uni030C.alt" horiz-adv-x="0" 
d="M-113 1200v397h228v-35l-97 -362h-131z" />
    </font>
</defs>
</svg>
