<svg width="388" height="455" viewBox="0 0 388 455" fill="none" xmlns="http://www.w3.org/2000/svg">
<path d="M289.182 365.556C288.954 365.358 288.756 365.129 288.592 364.876L288.872 365.156L287.872 364.506C287.733 364.415 287.619 364.29 287.54 364.143C287.462 363.997 287.421 363.833 287.422 363.666C287.342 359.856 287.232 356.056 287.202 352.246L287.822 353.306L279.092 348.516H280.402L271.742 353.456C271.533 353.575 271.297 353.637 271.057 353.637C270.817 353.637 270.581 353.575 270.372 353.456C267.472 351.846 264.582 350.196 261.692 348.566H263.062L254.372 353.426L255.062 352.246V364.706C255.064 364.881 255.032 365.054 254.967 365.216C254.902 365.378 254.805 365.525 254.682 365.649C254.559 365.773 254.412 365.871 254.251 365.938C254.089 366.004 253.916 366.038 253.742 366.036H241.272L242.402 365.386L237.482 374.046V372.806L242.342 381.506C242.447 381.689 242.503 381.896 242.503 382.106C242.503 382.317 242.447 382.524 242.342 382.706L237.422 391.376V390.196L242.292 398.896L241.292 398.296H253.762C254.062 398.299 254.35 398.42 254.561 398.634C254.773 398.847 254.892 399.136 254.892 399.436L254.952 411.896L254.342 410.896L263.042 415.746H261.742L270.402 410.816C270.592 410.708 270.808 410.652 271.027 410.652C271.246 410.652 271.461 410.708 271.652 410.816L280.352 415.676H279.052L287.702 410.736L287.012 411.926L286.942 399.466C286.94 399.279 286.976 399.093 287.047 398.92C287.118 398.746 287.222 398.589 287.354 398.456C287.486 398.323 287.643 398.217 287.816 398.145C287.989 398.073 288.174 398.036 288.362 398.036H300.842L299.552 398.786L304.442 390.106V391.566L299.532 382.886C299.404 382.662 299.336 382.409 299.336 382.151C299.336 381.894 299.404 381.64 299.532 381.416L304.482 372.776V374.186C303.682 372.726 302.862 371.286 302.082 369.816L299.712 365.436L300.842 366.086C297.072 366.086 292.892 365.896 289.182 365.646V365.556ZM290.102 363.866C292.862 363.676 295.302 363.536 298.042 363.476L300.842 363.416C301.071 363.415 301.295 363.476 301.493 363.592C301.69 363.708 301.852 363.875 301.962 364.076L304.492 368.366C305.342 369.796 306.152 371.246 306.982 372.686C307.105 372.901 307.169 373.144 307.169 373.391C307.169 373.639 307.105 373.882 306.982 374.096L302.142 382.806V381.326L307.032 390.016C307.155 390.24 307.22 390.491 307.22 390.746C307.22 391.002 307.155 391.253 307.032 391.476L302.122 400.146C301.994 400.374 301.808 400.563 301.583 400.695C301.358 400.826 301.102 400.896 300.842 400.896H288.372L289.372 400.476L289.782 399.476L289.742 411.916C289.743 412.159 289.679 412.398 289.555 412.607C289.432 412.817 289.255 412.989 289.042 413.106L280.332 417.916C280.137 418.027 279.916 418.085 279.692 418.085C279.467 418.085 279.247 418.027 279.052 417.916L270.392 412.986H271.642L262.942 417.846C262.757 417.95 262.549 418.004 262.337 418.004C262.125 418.004 261.917 417.95 261.732 417.846L253.072 412.916C252.895 412.814 252.747 412.669 252.642 412.494C252.537 412.319 252.478 412.12 252.472 411.916V399.456L253.612 400.596H241.142C240.938 400.593 240.739 400.538 240.563 400.434C240.388 400.331 240.243 400.183 240.142 400.006L235.222 391.346C235.118 391.167 235.064 390.963 235.064 390.756C235.064 390.549 235.118 390.346 235.222 390.166L240.082 381.476V382.676L235.162 374.016C235.056 373.829 235 373.617 235 373.401C235 373.186 235.056 372.974 235.162 372.786C235.162 372.786 240.022 364.096 240.032 364.086C240.142 363.886 240.305 363.72 240.502 363.604C240.699 363.487 240.923 363.426 241.152 363.426H253.622L252.682 363.806L252.292 364.746V352.286C252.287 352.044 252.349 351.805 252.471 351.595C252.593 351.385 252.769 351.213 252.982 351.096L261.642 346.176C261.852 346.061 262.087 346 262.327 346C262.566 346 262.802 346.061 263.012 346.176C265.912 347.806 268.812 349.416 271.692 351.076H270.332L279.042 346.226C279.241 346.11 279.467 346.049 279.697 346.049C279.927 346.049 280.153 346.11 280.352 346.226L288.972 351.226C289.163 351.332 289.322 351.487 289.433 351.675C289.544 351.863 289.602 352.078 289.602 352.296C289.602 356.106 289.452 359.906 289.372 363.716L288.922 362.876C289.386 363.167 289.821 363.502 290.222 363.876C290.222 363.876 290.162 363.876 290.102 363.876V363.866Z" fill="#191817"/>
<path d="M276.542 437.116C280.614 436.182 284.743 435.514 288.902 435.116L287.822 435.906C289.752 431.816 292.042 427.296 293.922 423.186C294.602 421.766 295.222 420.326 295.862 418.896L297.072 420.546C290.862 421.396 284.682 422.546 278.452 423.266L279.622 422.406C278.678 424.498 277.557 426.505 276.272 428.406C276.118 428.615 275.889 428.755 275.633 428.798C275.378 428.841 275.115 428.783 274.902 428.636C274.75 428.523 274.634 428.368 274.567 428.191C274.5 428.014 274.484 427.822 274.522 427.636C274.809 426.516 275.163 425.414 275.582 424.336C275.982 423.266 276.432 422.206 276.902 421.166C277.004 420.938 277.162 420.74 277.361 420.59C277.561 420.439 277.795 420.342 278.042 420.306C284.272 419.456 290.552 418.976 296.792 418.236C296.997 418.212 297.205 418.242 297.394 418.325C297.583 418.408 297.747 418.54 297.868 418.707C297.99 418.874 298.064 419.07 298.084 419.276C298.104 419.482 298.069 419.689 297.982 419.876C297.312 421.296 296.632 422.706 295.982 424.146C294.862 426.626 293.282 430.226 292.202 432.766C291.572 434.196 290.972 435.646 290.322 437.076C290.224 437.29 290.074 437.475 289.885 437.615C289.696 437.755 289.475 437.845 289.242 437.876C285.114 438.531 280.949 438.922 276.772 439.046C276.556 439.015 276.356 438.914 276.202 438.759C276.049 438.604 275.95 438.402 275.922 438.186C275.894 437.969 275.937 437.75 276.045 437.56C276.154 437.371 276.321 437.222 276.522 437.136L276.542 437.116Z" fill="#191817"/>
<path d="M269.452 452.596C268.452 445.846 269.452 439.076 269.292 432.296C269.442 425.536 268.182 418.696 269.452 411.996C269.518 411.741 269.682 411.522 269.909 411.387C270.135 411.252 270.406 411.213 270.662 411.276C273.122 411.926 271.262 429.116 271.552 432.276C271.442 439.056 272.372 445.826 271.382 452.576C271.324 452.788 271.199 452.975 271.024 453.108C270.85 453.242 270.636 453.314 270.417 453.314C270.197 453.314 269.984 453.242 269.809 453.108C269.635 452.975 269.509 452.788 269.452 452.576V452.596Z" fill="#191817"/>
<path d="M262.152 438.786L251.602 437.656C251.401 437.633 251.21 437.558 251.047 437.439C250.884 437.32 250.755 437.16 250.672 436.976C247.672 431.446 245.312 425.636 242.802 419.886C242.704 419.688 242.663 419.466 242.682 419.246C242.702 419.025 242.781 418.815 242.912 418.636C243.043 418.458 243.22 418.319 243.425 418.234C243.629 418.149 243.853 418.122 244.072 418.156C245.622 418.396 247.172 418.626 248.732 418.826C251.412 419.206 255.322 419.676 258.062 419.976L262.752 420.456C262.97 420.485 263.177 420.571 263.352 420.704C263.528 420.837 263.665 421.014 263.752 421.216C266.382 426.826 269.572 432.496 271.262 438.476C271.321 438.725 271.282 438.987 271.154 439.209C271.026 439.43 270.817 439.594 270.572 439.666C270.376 439.716 270.171 439.705 269.981 439.635C269.792 439.566 269.629 439.441 269.512 439.276C268.626 437.971 267.827 436.608 267.122 435.196C265.122 431.146 263.122 426.506 261.342 422.326L262.342 423.086L257.692 422.366C253.172 421.716 248.202 421.046 243.692 420.586L244.962 418.866C247.672 424.516 250.532 430.116 252.772 435.986L251.842 435.296L262.402 436.916C262.603 437.002 262.77 437.151 262.878 437.34C262.987 437.53 263.03 437.75 263.002 437.966C262.973 438.182 262.875 438.384 262.721 438.539C262.568 438.695 262.368 438.795 262.152 438.826V438.786Z" fill="#191817"/>
<path d="M279.052 378.706C278.802 376.976 278.622 375.166 278.492 373.346L279.702 374.556C278.022 374.556 276.342 374.556 274.702 374.496C274.381 374.486 274.074 374.366 273.832 374.156C272.572 373.026 271.352 371.846 270.112 370.696H272.002C270.752 371.846 269.522 373.006 268.252 374.136C268.023 374.348 267.723 374.466 267.412 374.466L262.412 374.586L263.652 373.346C263.652 373.416 263.362 378.346 263.372 378.426C263.361 378.701 263.247 378.962 263.052 379.156C261.892 380.37 260.738 381.589 259.592 382.816V381.246L263.002 384.956C263.185 385.157 263.291 385.415 263.302 385.686L263.542 390.686L262.412 389.556C264.082 389.556 265.762 389.656 267.412 389.686C267.692 389.684 267.964 389.788 268.172 389.976L271.932 393.326H270.112L273.742 389.916C273.976 389.696 274.281 389.565 274.602 389.546C276.302 389.436 277.992 389.366 279.692 389.296L278.272 390.716L278.442 385.716C278.452 385.363 278.591 385.025 278.832 384.766C279.978 383.526 281.152 382.316 282.352 381.136V383.026C281.192 381.656 280.062 380.206 279.052 378.756V378.706ZM280.832 377.966C286.552 382.666 285.492 381.556 281.042 386.746L281.442 385.746L281.232 390.746C281.217 391.12 281.061 391.474 280.796 391.737C280.531 392.001 280.175 392.154 279.802 392.166C278.132 392.236 276.452 392.286 274.802 392.306L275.712 391.926L271.952 395.296C271.706 395.53 271.381 395.66 271.042 395.66C270.703 395.66 270.377 395.53 270.132 395.296L266.502 391.796L267.302 392.126C265.622 392.016 263.932 391.946 262.302 391.866C262.008 391.854 261.73 391.73 261.524 391.52C261.318 391.31 261.199 391.03 261.192 390.736L261.042 385.736L261.342 386.466L257.902 382.786C257.703 382.573 257.592 382.293 257.592 382.001C257.592 381.71 257.703 381.429 257.902 381.216C259.032 379.976 260.172 378.736 261.292 377.486L260.972 378.256L261.072 373.256C261.079 372.937 261.207 372.633 261.43 372.405C261.652 372.177 261.953 372.041 262.272 372.026L267.272 371.766L266.392 372.126C271.862 367.076 270.152 367.046 275.662 372.126L274.762 371.756C276.482 371.836 278.192 371.936 279.912 372.086C280.212 372.111 280.493 372.249 280.696 372.471C280.9 372.693 281.013 372.985 281.012 373.286C281.012 374.826 280.952 376.376 280.832 378.006V377.966Z" fill="#191817"/>
<path d="M199.548 436.18C203.62 435.245 207.749 434.577 211.908 434.18L210.818 434.98C212.748 430.89 215.038 426.36 216.928 422.25C217.598 420.84 218.228 419.4 218.868 417.96L220.068 419.61C213.858 420.47 207.678 421.61 201.458 422.33L202.628 421.47C201.686 423.563 200.565 425.57 199.278 427.47C199.138 427.641 198.946 427.76 198.731 427.811C198.516 427.861 198.291 427.838 198.09 427.747C197.889 427.656 197.724 427.501 197.621 427.306C197.517 427.111 197.481 426.887 197.518 426.67C197.808 425.554 198.162 424.455 198.578 423.38C198.978 422.3 199.428 421.25 199.898 420.2C200.001 419.971 200.161 419.773 200.362 419.622C200.563 419.472 200.799 419.375 201.048 419.34C207.278 418.49 213.548 418.01 219.798 417.27C220.003 417.248 220.211 417.28 220.4 417.364C220.589 417.448 220.752 417.581 220.873 417.749C220.994 417.916 221.068 418.113 221.088 418.319C221.108 418.525 221.074 418.732 220.988 418.92C220.318 420.33 219.628 421.75 218.988 423.18C217.878 425.66 216.298 429.26 215.218 431.8C214.588 433.24 213.988 434.69 213.328 436.11C213.232 436.325 213.082 436.511 212.893 436.651C212.703 436.791 212.481 436.881 212.248 436.91C208.121 437.571 203.955 437.962 199.778 438.08C199.562 438.047 199.363 437.946 199.211 437.79C199.059 437.634 198.962 437.432 198.935 437.216C198.907 437 198.952 436.78 199.061 436.592C199.169 436.403 199.337 436.255 199.538 436.17L199.548 436.18Z" fill="#191817"/>
<path d="M192.458 451.64C191.458 445.49 192.398 439.31 192.288 433.13C192.438 426.96 191.178 420.72 192.458 414.62C192.492 414.493 192.552 414.374 192.632 414.271C192.713 414.167 192.813 414.08 192.928 414.015C193.042 413.95 193.168 413.908 193.298 413.892C193.429 413.875 193.561 413.885 193.688 413.92C196.108 414.76 194.268 430.03 194.548 433.13C194.448 439.31 195.378 445.49 194.388 451.64C194.33 451.852 194.204 452.039 194.03 452.172C193.856 452.305 193.642 452.378 193.423 452.378C193.203 452.378 192.99 452.305 192.815 452.172C192.641 452.039 192.515 451.852 192.458 451.64Z" fill="#191817"/>
<path d="M185.198 437.83L174.648 436.7C174.447 436.678 174.255 436.604 174.091 436.485C173.928 436.365 173.799 436.205 173.718 436.02C170.718 430.5 168.358 424.68 165.848 418.93C165.777 418.783 165.737 418.624 165.729 418.461C165.721 418.299 165.746 418.136 165.802 417.983C165.858 417.83 165.944 417.691 166.055 417.571C166.166 417.452 166.299 417.357 166.448 417.29C166.659 417.2 166.891 417.172 167.118 417.21C168.671 417.45 170.221 417.67 171.768 417.87C174.458 418.25 178.368 418.72 181.108 419.02L185.788 419.5C186.006 419.529 186.213 419.614 186.388 419.747C186.564 419.881 186.701 420.057 186.788 420.26C189.418 425.88 192.608 431.54 194.298 437.52C194.36 437.77 194.322 438.035 194.194 438.258C194.065 438.482 193.855 438.647 193.608 438.72C193.411 438.768 193.205 438.756 193.016 438.684C192.826 438.613 192.663 438.486 192.548 438.32C191.662 437.012 190.86 435.649 190.148 434.24C188.148 430.24 186.148 425.55 184.378 421.37L185.378 422.13L180.728 421.41C176.218 420.76 171.248 420.09 166.728 419.64L167.998 417.91C170.718 423.56 173.578 429.16 175.808 435.03L174.878 434.34L185.368 435.92C185.568 436.005 185.736 436.153 185.845 436.341C185.954 436.53 185.998 436.75 185.971 436.966C185.944 437.182 185.847 437.383 185.694 437.539C185.542 437.695 185.343 437.797 185.128 437.83H185.198Z" fill="#191817"/>
<path d="M193.498 348.93C190.583 352.289 187.482 355.481 184.208 358.49L184.628 357.23C185.088 359.94 185.718 363.89 186.138 366.66L185.978 366.22C187.538 368.93 189.078 371.65 190.678 374.34L188.878 374.12C189.308 373.75 189.878 372.86 190.558 372.92C192.478 372.92 194.398 372.92 196.318 372.92C196.988 372.86 197.628 373.8 198.088 374.17L196.258 374.4C197.858 371.69 199.408 368.95 200.968 366.22L200.798 366.67C201.288 363.53 201.728 360.37 202.278 357.23L202.728 358.57C199.407 355.607 196.321 352.391 193.498 348.95V348.93ZM193.498 347C197.475 349.84 201.232 352.975 204.738 356.38C204.918 356.546 205.053 356.755 205.132 356.988C205.21 357.22 205.23 357.468 205.188 357.71C204.648 360.87 204.008 364 203.418 367.15C201.878 370.04 199.908 372.73 198.268 375.59C198.19 375.723 198.087 375.839 197.964 375.931C197.842 376.024 197.701 376.091 197.552 376.128C197.403 376.165 197.248 376.172 197.096 376.148C196.944 376.125 196.798 376.071 196.668 375.99C196.261 375.645 195.874 375.277 195.508 374.89L196.318 375.22C194.398 375.22 192.478 375.22 190.558 375.22L191.368 374.89L190.508 375.76C190.291 375.974 189.998 376.094 189.693 376.094C189.388 376.094 189.095 375.974 188.878 375.76C187.138 372.88 185.178 370.06 183.608 367.1C183.108 364.33 182.328 360.43 181.878 357.7C181.838 357.471 181.857 357.235 181.932 357.015C182.007 356.795 182.136 356.597 182.308 356.44C185.853 353.081 189.589 349.929 193.498 347Z" fill="#191817"/>
<path d="M216.378 358.41C211.942 358.728 207.491 358.791 203.048 358.6L204.248 358.01C202.648 360.26 200.248 363.49 198.638 365.74L198.838 365.32C198.028 368.32 197.198 371.32 196.428 374.32L195.308 372.89C195.848 372.89 196.738 372.76 197.118 373.22C198.518 374.62 199.934 376 201.368 377.36C201.898 377.8 201.678 378.91 201.728 379.5L200.268 378.36C203.348 377.57 206.398 376.72 209.458 375.88L209.018 376.09C211.588 374.21 214.128 372.29 216.728 370.46L216.108 371.72C215.854 367.276 215.944 362.82 216.378 358.39V358.41ZM217.738 357.05C218.548 361.869 218.989 366.743 219.058 371.63C219.066 371.875 219.014 372.118 218.905 372.338C218.797 372.557 218.637 372.747 218.438 372.89C215.828 374.74 213.148 376.5 210.508 378.31C207.358 379.31 204.038 379.79 200.848 380.65C200.545 380.726 200.225 380.679 199.957 380.52C199.689 380.36 199.495 380.102 199.418 379.8C199.368 379.64 199.418 378.41 199.418 378.21L199.768 379.04C198.378 377.63 196.968 376.25 195.538 374.88L196.338 375.21H195.338C195.186 375.213 195.036 375.185 194.895 375.129C194.755 375.073 194.627 374.989 194.519 374.883C194.411 374.777 194.325 374.65 194.266 374.511C194.208 374.371 194.178 374.221 194.178 374.07C194.978 370.82 195.588 367.46 196.568 364.27C198.158 361.95 200.368 358.65 201.988 356.4C202.12 356.209 202.298 356.054 202.506 355.951C202.715 355.848 202.946 355.799 203.178 355.81C208.058 355.941 212.926 356.356 217.758 357.05H217.738Z" fill="#191817"/>
<path d="M217.018 371.97C214.018 372.81 211.148 373.5 208.148 374.05L208.628 373.87C205.938 375.49 203.248 377.09 200.528 378.67L200.788 376.53C201.198 376.97 201.958 377.53 201.898 378.21L201.798 384.07C201.802 384.233 201.772 384.396 201.71 384.548C201.648 384.699 201.555 384.836 201.438 384.95L200.518 385.84L200.278 383.93C202.988 385.64 205.748 387.27 208.488 388.93L208.098 388.79C211.248 389.29 214.388 389.79 217.538 390.3L216.418 390.68C219.138 387.6 222.998 383.27 225.738 380.28V382.28C222.573 379.063 219.658 375.61 217.018 371.95V371.97ZM217.628 370.14C221.298 373.264 224.73 376.657 227.898 380.29C228.148 380.563 228.287 380.92 228.287 381.29C228.287 381.66 228.148 382.017 227.898 382.29C226.318 384 224.698 385.66 223.078 387.34L218.228 392.34C218.091 392.494 217.917 392.61 217.723 392.676C217.528 392.743 217.32 392.758 217.118 392.72C213.868 392.03 210.538 391.65 207.328 390.85C204.558 389.23 201.818 387.57 199.028 385.99C198.867 385.896 198.729 385.767 198.626 385.612C198.524 385.456 198.458 385.279 198.435 385.094C198.411 384.91 198.431 384.722 198.492 384.546C198.554 384.37 198.655 384.21 198.788 384.08L199.678 383.16L199.318 384.04L199.198 378.18L199.598 379.18L198.868 378.48C198.717 378.337 198.601 378.16 198.531 377.964C198.46 377.769 198.436 377.559 198.46 377.352C198.484 377.146 198.556 376.947 198.67 376.773C198.785 376.599 198.938 376.454 199.118 376.35C201.784 374.703 204.468 373.083 207.168 371.49C210.609 370.781 214.099 370.333 217.608 370.15L217.628 370.14Z" fill="#191817"/>
<path d="M209.378 386.27L200.228 384.4L201.928 383.07V384.07C201.932 384.256 201.899 384.441 201.828 384.613C201.757 384.785 201.652 384.941 201.518 385.07L197.278 389.12C196.818 389.63 195.818 389.42 195.278 389.44L196.488 387.88C197.248 391.01 197.978 394.15 198.748 397.27L198.578 396.88L204.068 404.7L203.068 404.22C206.548 404.07 213.548 403.72 217.018 403.5L215.738 404.78L215.868 397.78L216.098 390.78L216.728 392.06C214.148 390.279 211.696 388.321 209.388 386.2L209.378 386.27ZM210.188 384.52C213.058 386.045 215.818 387.769 218.448 389.68C218.651 389.824 218.816 390.016 218.926 390.24C219.036 390.463 219.088 390.711 219.078 390.96L218.788 397.96L218.388 404.96C218.38 405.297 218.243 405.618 218.004 405.857C217.766 406.095 217.445 406.232 217.108 406.24C213.618 406.24 206.628 406.45 203.108 406.56C202.915 406.57 202.723 406.532 202.549 406.45C202.374 406.369 202.223 406.245 202.108 406.09L196.578 398.3C195.578 395.12 194.868 391.8 193.948 388.57C193.901 388.389 193.896 388.199 193.932 388.016C193.969 387.832 194.046 387.659 194.158 387.509C194.271 387.36 194.415 387.237 194.581 387.15C194.747 387.064 194.931 387.016 195.118 387.01H196.298L195.388 387.38L199.438 383.15L199.028 384.15V383.15V383.04C199.036 382.84 199.09 382.644 199.186 382.468C199.281 382.292 199.415 382.14 199.578 382.023C199.741 381.907 199.928 381.829 200.126 381.795C200.323 381.762 200.525 381.774 200.718 381.83L210.018 384.6L210.188 384.52Z" fill="#191817"/>
<path d="M201.198 396.04C199.318 393.48 197.618 390.86 195.968 388.17L198.158 388.44L197.398 389.21C197.268 389.343 197.112 389.448 196.94 389.519C196.768 389.589 196.584 389.624 196.398 389.62H190.538C189.808 389.62 189.268 388.89 188.808 388.46L190.968 388.19L185.898 396.35L186.058 395.94C185.438 399.06 184.918 402.2 184.348 405.34L184.008 404.34C186.568 406.69 191.768 411.34 194.378 413.68H192.568C195.058 411.25 200.138 406.43 202.698 404.07L202.238 405.42C201.665 402.336 201.314 399.214 201.188 396.08L201.198 396.04ZM203.008 395.37C203.95 398.484 204.682 401.658 205.198 404.87C205.24 405.115 205.22 405.368 205.14 405.604C205.059 405.839 204.921 406.051 204.738 406.22C202.168 408.61 196.978 413.31 194.348 415.63C194.106 415.851 193.79 415.974 193.463 415.974C193.135 415.974 192.819 415.851 192.578 415.63L187.578 410.79L182.508 405.99C182.375 405.863 182.274 405.705 182.213 405.532C182.152 405.358 182.133 405.172 182.158 404.99C182.778 401.73 183.158 398.37 183.848 395.14L188.638 386.81C188.744 386.632 188.889 386.48 189.062 386.365C189.235 386.251 189.432 386.177 189.638 386.149C189.843 386.121 190.053 386.14 190.25 386.204C190.447 386.269 190.628 386.376 190.778 386.52L191.538 387.26L190.538 386.86H196.398L195.398 387.27L196.168 386.52C196.297 386.386 196.453 386.279 196.625 386.206C196.796 386.133 196.981 386.095 197.168 386.095C197.354 386.095 197.539 386.133 197.711 386.206C197.883 386.279 198.038 386.386 198.168 386.52C199.94 389.402 201.559 392.377 203.018 395.43L203.008 395.37Z" fill="#191817"/>
<path d="M190.198 389.11C188.628 387.85 187.048 386.44 185.488 385C184.958 384.56 185.118 383.67 185.078 383.08L186.748 384.38C184.108 385.13 180.258 386.07 177.558 386.74L178.018 386.52C175.738 388.11 172.448 390.34 170.128 391.92L170.648 390.86C170.738 395.51 170.868 400.16 171.098 404.86L169.988 403.75C174.638 403.91 179.288 403.95 183.988 404.04L182.798 404.63C184.128 402.63 186.798 398.72 188.228 396.77L187.998 397.27C188.72 394.124 189.631 391.025 190.728 387.99L191.798 389.38C191.274 389.339 190.752 389.266 190.238 389.16L190.198 389.11ZM190.938 387.32C191.808 386.92 192.938 387.03 192.878 388.2C192.413 391.488 191.745 394.744 190.878 397.95C190.838 398.128 190.76 398.296 190.648 398.44C189.278 400.38 186.478 404.28 185.058 406.19C184.924 406.379 184.745 406.532 184.537 406.633C184.329 406.735 184.099 406.782 183.868 406.77C179.218 406.52 174.558 406.21 169.868 406.01C169.577 406 169.302 405.879 169.098 405.673C168.893 405.467 168.775 405.19 168.768 404.9C168.768 402.57 168.618 400.25 168.518 397.9C168.418 395.55 168.298 393.26 168.168 390.9C168.16 390.707 168.199 390.514 168.283 390.34C168.367 390.166 168.492 390.014 168.648 389.9C171.148 388.18 174.288 385.54 176.868 384.03C179.588 383.36 183.378 382.32 186.078 381.75C186.277 381.693 186.487 381.684 186.691 381.724C186.895 381.764 187.086 381.851 187.25 381.979C187.414 382.106 187.545 382.271 187.633 382.459C187.721 382.647 187.764 382.852 187.758 383.06V384.06L187.378 383.13C188.578 384.45 189.768 385.8 190.958 387.31L190.938 387.32Z" fill="#191817"/>
<path d="M185.518 384.44C185.298 382.44 185.178 380.33 185.088 378.21C185.028 377.52 185.788 377 186.178 376.54L186.438 378.65C183.708 377.12 181.048 375.47 178.368 373.86L178.838 374.04C176.118 373.55 172.208 372.8 169.448 372.28L170.568 371.9C167.348 375.25 164.148 378.63 161.018 382.08V380.51C164.198 383.91 167.458 387.23 170.678 390.59L169.428 390.16C170.988 389.87 172.558 389.55 174.118 389.27L178.828 388.44L178.308 388.63C181.027 386.927 183.846 385.388 186.748 384.02L186.528 385.78C186.169 385.353 185.835 384.905 185.528 384.44H185.518ZM187.298 383.7C188.398 384.15 189.098 385.14 187.898 385.95C185.203 388.004 182.336 389.821 179.328 391.38C176.538 391.84 172.618 392.52 169.848 392.91C169.628 392.942 169.403 392.919 169.194 392.844C168.985 392.769 168.797 392.644 168.648 392.48C165.538 389 162.458 385.48 159.308 382.06C159.11 381.85 159 381.573 159 381.285C159 380.997 159.11 380.72 159.308 380.51C160.918 378.82 162.488 377.11 164.058 375.39C165.628 373.67 167.198 371.95 168.738 370.21C168.871 370.063 169.038 369.951 169.225 369.883C169.411 369.816 169.611 369.794 169.808 369.82C172.618 370.29 176.538 370.82 179.298 371.31C182.238 372.77 184.998 374.63 187.818 376.31C187.973 376.399 188.108 376.519 188.215 376.662C188.323 376.805 188.4 376.968 188.443 377.142C188.486 377.316 188.494 377.496 188.465 377.673C188.437 377.849 188.373 378.018 188.278 378.17C187.985 378.506 187.671 378.823 187.338 379.12L187.718 378.19C187.638 379.98 187.518 381.77 187.288 383.68L187.298 383.7Z" fill="#191817"/>
<path d="M185.518 377.84C186.768 376.27 188.178 374.69 189.618 373.13C190.078 372.59 191.058 372.77 191.668 372.71L190.368 374.4C189.628 371.8 188.708 368 188.048 365.34L188.258 365.81C186.678 363.53 184.448 360.24 182.868 357.92L183.928 358.44C179.278 358.53 174.618 358.66 169.978 358.89L171.088 357.77C170.928 362.42 170.888 367.08 170.798 371.77L170.208 370.59L174.148 373.28L178.068 376.02L177.568 375.79C180.657 376.501 183.702 377.393 186.688 378.46L185.288 379.55C185.326 378.989 185.403 378.431 185.518 377.88V377.84ZM187.298 378.58C187.678 379.51 187.688 380.69 186.418 380.64C183.187 380.169 179.987 379.501 176.838 378.64C176.661 378.596 176.494 378.518 176.348 378.41C174.408 377.04 170.508 374.24 168.598 372.82C168.406 372.688 168.252 372.509 168.149 372.301C168.046 372.093 167.997 371.862 168.008 371.63C168.268 366.97 168.578 362.32 168.768 357.63C168.783 357.34 168.906 357.067 169.114 356.865C169.322 356.663 169.598 356.547 169.888 356.54C172.208 356.54 174.538 356.39 176.888 356.28C179.238 356.17 181.538 356.07 183.888 355.93C184.081 355.923 184.272 355.964 184.446 356.047C184.621 356.131 184.772 356.255 184.888 356.41C186.618 358.92 189.258 362.06 190.768 364.64C191.428 367.31 192.448 371.05 193.018 373.71C193.064 373.884 193.074 374.066 193.049 374.244C193.023 374.422 192.962 374.593 192.868 374.747C192.775 374.901 192.651 375.035 192.505 375.14C192.359 375.246 192.193 375.32 192.018 375.36C191.538 375.385 191.057 375.385 190.578 375.36L191.508 374.97C190.188 376.18 188.828 377.36 187.318 378.55L187.298 378.58Z" fill="#191817"/>
<path d="M196.588 373.41C198.379 374.478 199.987 375.829 201.348 377.41C201.569 377.648 201.687 377.965 201.678 378.29L201.518 383.95C201.519 384.108 201.489 384.264 201.429 384.41C201.369 384.556 201.28 384.689 201.168 384.8C199.788 386.09 198.458 387.43 197.118 388.8C196.904 389.01 196.617 389.128 196.318 389.13L190.658 389.22C190.353 389.223 190.06 389.108 189.838 388.9L185.718 385.02C185.583 384.892 185.477 384.736 185.408 384.564C185.339 384.391 185.308 384.206 185.318 384.02L185.258 378.36C185.258 378.174 185.296 377.989 185.368 377.818C185.44 377.646 185.545 377.49 185.678 377.36L189.678 373.36C189.814 373.219 189.977 373.108 190.158 373.032C190.338 372.957 190.532 372.919 190.728 372.92C192.724 372.772 194.73 372.972 196.658 373.51L196.588 373.41ZM195.858 375.2C194.176 375.718 192.413 375.921 190.658 375.8L191.658 375.36L187.658 379.36L188.088 378.36L188.028 384.02L187.618 383.02L191.508 387.14L190.648 386.78L196.308 386.87L195.508 387.2C196.828 385.85 198.158 384.52 199.508 383.2L199.148 384.05L198.988 378.39L199.398 379.39C198.007 378.235 196.823 376.852 195.898 375.3L195.858 375.2Z" fill="#191817"/>
<path d="M328.596 383.622C325.986 386.742 323.246 389.622 320.406 392.542L320.766 391.172C321.636 394.372 322.556 397.562 323.376 400.782L322.446 399.862L332.006 402.692L330.856 402.992C337.666 396.342 345.166 388.562 351.776 381.732L352.776 384.142C344.596 384.142 336.866 384.542 328.596 383.622ZM327.856 381.842C335.926 380.942 344.566 381.272 352.776 381.322C352.964 381.319 353.151 381.354 353.325 381.425C353.499 381.496 353.657 381.602 353.79 381.735C353.922 381.869 354.026 382.028 354.096 382.202C354.166 382.377 354.2 382.564 354.196 382.752C354.191 383.127 354.041 383.486 353.776 383.752L348.416 388.942C345.326 391.942 340.866 396.292 337.756 399.372L332.516 404.672C332.369 404.818 332.187 404.923 331.986 404.976C331.786 405.029 331.575 405.027 331.376 404.972L321.736 402.442C321.513 402.386 321.309 402.27 321.146 402.109C320.982 401.947 320.865 401.744 320.806 401.522C319.806 398.342 318.966 395.142 318.056 391.942C317.985 391.703 317.982 391.448 318.045 391.207C318.108 390.966 318.237 390.746 318.416 390.572L320.656 388.402C322.946 386.202 325.456 383.882 327.856 381.862V381.842Z" fill="#191817"/>
<path d="M327.876 383.622C325.476 381.622 322.966 379.282 320.676 377.092L318.436 374.912C318.256 374.739 318.127 374.519 318.063 374.278C318 374.036 318.004 373.781 318.076 373.542C318.986 370.352 319.866 367.142 320.826 363.962C320.885 363.74 321.002 363.537 321.166 363.376C321.329 363.214 321.533 363.099 321.756 363.042L331.396 360.512C331.595 360.456 331.806 360.454 332.007 360.506C332.207 360.559 332.39 360.665 332.536 360.812L337.776 366.122C340.896 369.212 345.326 373.542 348.436 376.542L353.796 381.732C353.928 381.863 354.032 382.019 354.104 382.191C354.175 382.362 354.212 382.546 354.212 382.732C354.212 382.918 354.175 383.102 354.104 383.274C354.032 383.445 353.928 383.601 353.796 383.732C353.531 384 353.172 384.154 352.796 384.162C344.586 384.212 335.946 384.552 327.876 383.642V383.622ZM328.616 381.842C336.876 380.922 344.616 381.282 352.796 381.322L351.796 383.732C345.186 376.902 337.686 369.122 330.876 362.472L332.026 362.772L322.466 365.602L323.396 364.682C322.576 367.902 321.656 371.092 320.786 374.292L320.426 372.922C323.266 375.802 326.006 378.722 328.616 381.842Z" fill="#191817"/>
<path d="M376.956 381.882C379.556 378.772 382.306 375.882 385.136 372.962L384.776 374.332C383.906 371.132 382.996 367.942 382.176 364.722L383.096 365.642L373.546 362.812L374.686 362.512C367.886 369.162 360.376 376.942 353.776 383.772L352.776 381.362C360.956 381.362 368.686 380.962 376.956 381.882ZM377.686 383.662C369.616 384.562 360.986 384.232 352.776 384.182C352.496 384.183 352.222 384.101 351.989 383.946C351.756 383.792 351.575 383.571 351.467 383.313C351.36 383.054 351.332 382.77 351.387 382.495C351.442 382.221 351.577 381.969 351.776 381.772L357.126 376.582C360.226 373.582 364.686 369.232 367.786 366.162L373.036 360.852C373.182 360.705 373.364 360.599 373.565 360.546C373.765 360.494 373.976 360.496 374.176 360.552L383.816 363.082C384.038 363.137 384.242 363.252 384.404 363.414C384.566 363.576 384.681 363.78 384.736 364.002C385.736 367.182 386.576 370.392 387.486 373.582C387.559 373.821 387.563 374.076 387.5 374.318C387.436 374.56 387.307 374.78 387.126 374.952L384.896 377.132C382.606 379.322 380.096 381.642 377.686 383.662Z" fill="#191817"/>
<path d="M377.686 381.882C380.096 383.882 382.606 386.222 384.896 388.422L387.126 390.592C387.306 390.765 387.435 390.985 387.498 391.227C387.562 391.468 387.557 391.723 387.486 391.962C386.576 395.162 385.706 398.362 384.736 401.542C384.679 401.764 384.563 401.966 384.401 402.128C384.24 402.29 384.037 402.405 383.816 402.462L374.176 404.992C373.976 405.05 373.765 405.052 373.564 404.999C373.364 404.947 373.181 404.84 373.036 404.692L367.786 399.392C364.676 396.292 360.246 391.962 357.126 388.962L351.776 383.772C351.577 383.575 351.442 383.323 351.387 383.049C351.332 382.775 351.36 382.49 351.467 382.232C351.575 381.973 351.756 381.753 351.989 381.598C352.222 381.443 352.496 381.361 352.776 381.362C360.986 381.362 369.616 380.982 377.686 381.882ZM376.956 383.662C368.686 384.582 360.956 384.222 352.776 384.182L353.776 381.772C360.376 388.602 367.886 396.382 374.686 403.032L373.546 402.732L383.096 399.902L382.176 400.822C382.996 397.602 383.906 394.412 384.776 391.212L385.136 392.582C382.296 389.702 379.566 386.782 376.956 383.662Z" fill="#191817"/>
<path d="M353.666 406.952C356.776 409.562 359.666 412.302 362.586 415.142L361.206 414.782C364.416 413.902 367.606 412.992 370.826 412.172L369.906 413.102L372.736 403.542L373.036 404.692C366.386 397.882 358.606 390.382 351.776 383.772L354.186 382.772C354.186 390.952 354.586 398.682 353.666 406.952ZM351.886 407.692C350.976 399.612 351.316 390.982 351.366 382.772C351.363 382.584 351.398 382.397 351.469 382.223C351.54 382.049 351.646 381.891 351.779 381.758C351.913 381.626 352.071 381.522 352.246 381.452C352.421 381.382 352.608 381.348 352.796 381.352C353.171 381.356 353.53 381.507 353.796 381.772L358.986 387.132C361.986 390.222 366.336 394.682 369.406 397.792L374.706 403.032C374.856 403.176 374.964 403.359 375.018 403.559C375.073 403.76 375.072 403.972 375.016 404.172L372.486 413.812C372.427 414.034 372.312 414.237 372.15 414.4C371.989 414.563 371.787 414.681 371.566 414.742C368.386 415.742 365.176 416.572 361.986 417.492C361.746 417.56 361.493 417.561 361.252 417.498C361.011 417.435 360.792 417.309 360.616 417.132L358.436 414.892C356.236 412.602 353.926 410.092 351.906 407.692H351.886Z" fill="#191817"/>
<path d="M353.666 407.692C351.666 410.092 349.326 412.602 347.126 414.892L344.956 417.132C344.781 417.309 344.561 417.436 344.32 417.5C344.079 417.563 343.825 417.561 343.586 417.492C340.386 416.572 337.186 415.702 334.006 414.742C333.784 414.681 333.583 414.563 333.421 414.4C333.26 414.237 333.144 414.034 333.086 413.812L330.556 404.172C330.499 403.973 330.497 403.762 330.55 403.561C330.603 403.361 330.708 403.178 330.856 403.032L336.156 397.792C339.256 394.672 343.586 390.242 346.586 387.132L351.776 381.772C351.973 381.574 352.225 381.439 352.499 381.384C352.773 381.329 353.058 381.357 353.316 381.464C353.575 381.571 353.795 381.753 353.95 381.986C354.105 382.219 354.187 382.492 354.186 382.772C354.236 390.982 354.566 399.612 353.666 407.692ZM351.886 406.952C350.966 398.682 351.326 390.952 351.366 382.772L353.776 383.772C346.946 390.382 339.166 397.882 332.516 404.692L332.816 403.542L335.646 413.102L334.726 412.172C337.936 412.992 341.136 413.902 344.336 414.782L342.966 415.142C345.846 412.302 348.766 409.562 351.886 406.952Z" fill="#191817"/>
<path d="M351.876 358.622C348.756 356.012 345.876 353.272 342.956 350.432L344.326 350.792C341.126 351.672 337.926 352.582 334.716 353.402L335.636 352.472L332.806 362.032L332.506 360.882C339.156 367.692 346.926 375.192 353.766 381.802L351.356 382.802C351.356 374.622 350.956 366.892 351.876 358.622ZM353.656 357.882C354.556 365.962 354.226 374.592 354.176 382.802C354.177 383.082 354.095 383.356 353.94 383.589C353.785 383.822 353.565 384.003 353.306 384.11C353.048 384.218 352.763 384.246 352.489 384.191C352.215 384.136 351.963 384 351.766 383.802L346.576 378.442C343.576 375.352 339.226 370.892 336.146 367.782L330.846 362.542C330.699 362.396 330.594 362.213 330.542 362.013C330.489 361.812 330.49 361.602 330.546 361.402L333.076 351.762C333.132 351.539 333.247 351.335 333.409 351.172C333.571 351.008 333.773 350.891 333.996 350.832C337.176 349.832 340.376 349.002 343.576 348.082C343.815 348.015 344.069 348.013 344.31 348.076C344.55 348.139 344.77 348.266 344.946 348.442L347.116 350.682C349.316 352.972 351.636 355.482 353.656 357.882Z" fill="#191817"/>
<path d="M351.876 357.852C353.876 355.452 356.206 352.942 358.406 350.652L360.586 348.412C360.761 348.236 360.981 348.109 361.222 348.046C361.463 347.983 361.716 347.985 361.956 348.052C365.146 348.972 368.356 349.842 371.536 350.802C371.757 350.863 371.959 350.981 372.12 351.144C372.282 351.307 372.397 351.51 372.456 351.732L374.986 361.372C375.041 361.572 375.041 361.784 374.987 361.984C374.932 362.185 374.825 362.367 374.676 362.512L369.376 367.752C366.286 370.872 361.956 375.302 358.956 378.412L353.766 383.772C353.5 384.036 353.14 384.184 352.766 384.184C352.391 384.184 352.032 384.036 351.766 383.772C351.631 383.643 351.525 383.487 351.453 383.315C351.38 383.144 351.344 382.959 351.346 382.772C351.296 374.562 350.956 365.932 351.866 357.852H351.876ZM353.656 358.592C354.576 366.862 354.216 374.592 354.176 382.772L351.766 381.772C358.596 375.162 366.376 367.662 373.026 360.852L372.726 362.002L369.896 352.442L370.816 353.372C367.596 352.552 364.406 351.642 361.196 350.762L362.576 350.402C359.696 353.242 356.776 355.982 353.656 358.592Z" fill="#191817"/>
<path d="M358.876 451.332C362.949 450.402 367.077 449.734 371.236 449.332L370.156 450.132C372.076 446.042 374.376 441.512 376.256 437.402C376.936 435.992 377.556 434.552 378.196 433.122L379.406 434.762C373.196 435.622 367.016 436.762 360.786 437.492L361.956 436.632C361.012 438.724 359.891 440.731 358.606 442.632C358.452 442.84 358.223 442.981 357.967 443.024C357.712 443.067 357.449 443.009 357.236 442.862C357.084 442.748 356.968 442.594 356.901 442.417C356.834 442.24 356.818 442.048 356.856 441.862C357.141 440.745 357.495 439.646 357.916 438.572C358.316 437.492 358.766 436.442 359.226 435.402C359.326 435.171 359.485 434.971 359.687 434.82C359.888 434.669 360.126 434.573 360.376 434.542C366.606 433.682 372.886 433.212 379.126 432.462C379.331 432.44 379.539 432.472 379.728 432.556C379.917 432.64 380.08 432.773 380.201 432.941C380.322 433.109 380.396 433.305 380.416 433.511C380.436 433.717 380.402 433.924 380.316 434.112C379.646 435.532 378.966 436.942 378.316 438.382C377.196 440.852 375.616 444.452 374.536 446.992C373.906 448.432 373.306 449.882 372.656 451.302C372.559 451.516 372.409 451.703 372.22 451.843C372.031 451.983 371.809 452.072 371.576 452.102C367.449 452.765 363.284 453.159 359.106 453.282C358.89 453.251 358.69 453.15 358.536 452.995C358.383 452.84 358.284 452.638 358.256 452.422C358.228 452.205 358.271 451.986 358.379 451.796C358.487 451.607 358.655 451.458 358.856 451.372L358.876 451.332Z" fill="#191817"/>
<path d="M344.506 452.992L333.956 451.872C333.767 451.85 333.586 451.782 333.429 451.674C333.272 451.566 333.144 451.421 333.056 451.252C331.986 449.122 329.926 444.882 328.926 442.722C327.736 440.252 326.176 436.722 325.016 434.162C324.937 433.998 324.892 433.819 324.883 433.637C324.874 433.455 324.902 433.272 324.964 433.101C325.026 432.93 325.122 432.773 325.246 432.639C325.37 432.505 325.52 432.397 325.686 432.322C325.923 432.213 326.187 432.174 326.446 432.212L345.096 434.822C345.289 434.851 345.473 434.928 345.63 435.044C345.787 435.161 345.912 435.315 345.996 435.492L349.886 444.062L353.886 452.592L351.606 453.082C351.606 435.402 350.766 410.482 351.836 393.082C351.893 392.87 352.019 392.683 352.193 392.55C352.368 392.416 352.581 392.344 352.801 392.344C353.02 392.344 353.234 392.416 353.408 392.55C353.583 392.683 353.708 392.87 353.766 393.082C354.466 403.082 354.276 413.082 354.276 423.082L353.996 453.082C353.991 453.352 353.895 453.612 353.724 453.82C353.553 454.029 353.317 454.174 353.053 454.232C352.79 454.289 352.514 454.257 352.272 454.139C352.029 454.021 351.833 453.825 351.716 453.582L347.856 445.002L343.856 436.472L344.776 437.142L326.086 434.962L327.516 432.962L329.516 437.232C331.356 441.162 333.516 446.112 335.216 450.142L334.286 449.462L344.776 451.032C344.977 451.118 345.144 451.266 345.252 451.456C345.361 451.646 345.404 451.866 345.376 452.082C345.347 452.299 345.249 452.5 345.095 452.655C344.942 452.81 344.742 452.911 344.526 452.942L344.506 452.992Z" fill="#191817"/>
<g clip-path="url(#clip0_45_15309)">
<path d="M42.06 451.9C41.92 430.28 41.74 387.05 41.72 365.45L42.13 366.4L14.28 340.22C14.0661 340.017 13.9225 339.75 13.87 339.46L0.00996996 265.36C-0.29003 265.09 9.51 144.92 9.35 144.61C9.19 144.3 40.35 33.53 40.35 33.15L52.71 0.73005C52.8195 0.449514 53.0355 0.223692 53.3109 0.101907C53.5864 -0.0198782 53.8988 -0.0277575 54.18 0.080026C54.337 0.136132 54.479 0.227525 54.5952 0.347146C54.7113 0.466768 54.7985 0.611433 54.85 0.770028C54.91 1.01003 71.94 50.15 71.95 50.39C74.3 68.61 80.04 113.39 82.29 130.93C84.63 149.07 98.91 245.36 101.49 265.39C101.07 266.31 91.13 318.81 90.54 319.92L70.52 352.34C71.16 372.18 70.4 403.82 70.46 426.81L70.23 451.9C70.1724 452.112 70.0467 452.299 69.8723 452.432C69.6979 452.566 69.4845 452.638 69.265 452.638C69.0454 452.638 68.832 452.566 68.6576 452.432C68.4832 452.299 68.3575 452.112 68.2999 451.9L68.07 426.84C68.07 402.15 67.4 375.25 68 350.84L88.08 318.42L87.89 318.91L98.74 264.91C96.11 247.67 82.13 148.61 79.74 131.36C77.5499 113.91 71.83 68.68 69.58 50.77C69.92 51.72 52.64 1.50004 52.71 1.59004H54.85L42.52 34.02C42.67 33.51 11.74 145.19 11.78 145.09C11.93 143.51 2.57997 266.94 2.62997 264.91L16.56 339L16.15 338.25L43.87 364.56C43.9989 364.68 44.1019 364.826 44.1724 364.988C44.2429 365.149 44.2795 365.324 44.28 365.5C44.28 386.98 44.09 430.5 43.95 451.95C43.8924 452.162 43.7667 452.349 43.5923 452.482C43.4179 452.616 43.2045 452.688 42.9849 452.688C42.7654 452.688 42.552 452.616 42.3776 452.482C42.2032 452.349 42.0776 452.162 42.02 451.95L42.06 451.9Z" fill="#191817"/>
<path d="M108.05 451.9C107.83 433.34 107.77 405.95 107.71 387.06L108.12 388.01L87.22 368.39C87.0085 368.189 86.8651 367.927 86.81 367.64L76.39 312.06C76.05 311.15 89.16 253.57 88.96 253.3C88.96 253.21 98.23 172.62 98.25 172.54L109.94 113.17C109.998 112.875 110.17 112.615 110.42 112.446C110.669 112.278 110.974 112.214 111.27 112.27C111.469 112.31 111.654 112.401 111.806 112.534C111.959 112.667 112.074 112.838 112.14 113.03C112.19 113.29 127.99 161.74 127.98 162.03C129.25 175.13 132.35 207.31 133.57 219.89C134.04 224.51 134.74 232.27 135.21 236.77L135.6 239.16L147.99 315.68C148.1 315.95 143.99 373.05 143.99 373.35C143.97 373.629 143.869 373.897 143.7 374.12L129.89 392.84L130.18 391.96C130.18 406.45 130.06 422.35 129.89 436.9L129.66 451.9C129.602 452.112 129.477 452.299 129.302 452.432C129.128 452.566 128.914 452.638 128.695 452.638C128.475 452.638 128.262 452.566 128.088 452.432C127.913 452.299 127.788 452.112 127.73 451.9L127.5 436.9C127.32 422.28 127.25 406.47 127.21 391.96C127.211 391.643 127.313 391.335 127.5 391.08L141.39 372.33L141.11 373.1C141.03 373.19 145.3 314.65 145.23 316.1L133.07 239.46L132.69 237.07C132.24 232.52 131.53 224.75 131.09 220.17C129.92 207.62 126.86 175.11 125.65 162.23C126 163.23 109.96 113.65 110.03 113.74L112.23 113.61L100.58 172.99C100.58 172.63 91.58 253.72 91.58 253.73L79.12 312.1C78.85 309.46 89.64 367.68 89.58 367.1L89.17 366.35L109.95 386.1C110.078 386.221 110.179 386.367 110.248 386.528C110.317 386.69 110.351 386.864 110.35 387.04C110.35 405.94 110.21 433.2 110.02 451.88C109.962 452.092 109.837 452.279 109.662 452.412C109.488 452.546 109.274 452.618 109.055 452.618C108.835 452.618 108.622 452.546 108.448 452.412C108.273 452.279 108.148 452.092 108.09 451.88L108.05 451.9Z" fill="#191817"/>
</g>
<defs>
<clipPath id="clip0_45_15309">
<rect width="148.02" height="452.86" fill="white"/>
</clipPath>
</defs>
</svg>
