<svg xmlns="http://www.w3.org/2000/svg" width="49" height="49" viewBox="0 0 49 49">
  <g id="felcha-izqda" transform="translate(49)">
    <circle id="Oval" cx="24.5" cy="24.5" r="24.5" transform="translate(-49)" fill="#84421c"/>
    <path id="Path" d="M-18.677,9.2a.594.594,0,0,0-.169.418.594.594,0,0,0,.169.418.57.57,0,0,0,.818,0l8.435-8.609,8.435,8.609a.57.57,0,0,0,.818,0,.6.6,0,0,0,0-.836L-9.014.173a.57.57,0,0,0-.819,0Z" transform="translate(-30.861 15.077) rotate(-90)" fill="none" stroke="#fff" stroke-miterlimit="10" stroke-width="3"/>
  </g>
</svg>
