<svg width="52" height="80" viewBox="0 0 52 80" fill="none" xmlns="http://www.w3.org/2000/svg">
<path d="M30.4109 67.6348C33.465 66.9339 36.5616 66.4329 39.6809 66.1348L38.8634 66.7349C40.3109 63.6674 42.0284 60.2699 43.4459 57.1874C43.9484 56.1299 44.4209 55.0498 44.9009 53.9698L45.8009 55.2073C41.1434 55.8523 36.5084 56.7072 31.8434 57.2472L32.7209 56.6024C32.0147 58.172 31.174 59.6776 30.2084 61.1024C30.1036 61.2304 29.9594 61.3202 29.7983 61.3578C29.6372 61.3954 29.4681 61.3786 29.3175 61.3102C29.1669 61.2417 29.0431 61.1254 28.9655 60.9793C28.8879 60.8332 28.8608 60.6655 28.8884 60.5023C29.1058 59.6652 29.3713 58.8414 29.6834 58.0348C29.9834 57.2248 30.3209 56.4373 30.6734 55.6498C30.7512 55.4784 30.871 55.3294 31.0218 55.2166C31.1726 55.1038 31.3494 55.0309 31.5359 55.0048C36.2084 54.3673 40.9109 54.0074 45.5984 53.4524C45.7525 53.4357 45.9083 53.46 46.0499 53.5231C46.1916 53.5861 46.314 53.6857 46.4047 53.8115C46.4954 53.9372 46.5511 54.0847 46.5663 54.239C46.5814 54.3933 46.5554 54.5488 46.4909 54.6898C45.9884 55.7473 45.4709 56.8123 44.9909 57.8848C44.1584 59.7448 42.9734 62.4449 42.1634 64.3499C41.6909 65.4299 41.2409 66.5173 40.7459 67.5823C40.6738 67.7434 40.5614 67.8833 40.4195 67.9884C40.2776 68.0935 40.1111 68.1603 39.9359 68.1823C36.8408 68.6781 33.7167 68.9711 30.5834 69.0598C30.4218 69.0354 30.2725 68.959 30.1584 68.842C30.0443 68.725 29.9715 68.5739 29.9511 68.4117C29.9307 68.2496 29.9639 68.0851 30.0455 67.9435C30.1272 67.8019 30.2528 67.6909 30.4034 67.6273L30.4109 67.6348Z" fill="#191817"/>
<path d="M25.0934 79.2299C24.3434 74.6174 25.0484 69.9824 24.9659 65.3474C25.0784 60.7199 24.1334 56.0399 25.0934 51.4649C25.1194 51.3698 25.164 51.2809 25.2244 51.2031C25.2849 51.1252 25.3601 51.0599 25.4458 51.0112C25.5315 50.9624 25.626 50.9311 25.7238 50.9189C25.8216 50.9067 25.9209 50.9138 26.0159 50.9399C27.8309 51.5699 26.4509 63.0224 26.6609 65.3474C26.5859 69.9824 27.2834 74.6174 26.5409 79.2299C26.4977 79.3888 26.4035 79.5291 26.2727 79.6291C26.1419 79.7291 25.9818 79.7833 25.8172 79.7833C25.6525 79.7833 25.4924 79.7291 25.3616 79.6291C25.2309 79.5291 25.1366 79.3888 25.0934 79.2299Z" fill="#191817"/>
<path d="M19.6484 68.8723L11.7359 68.0249C11.585 68.0087 11.4411 67.9531 11.3187 67.8636C11.1962 67.774 11.0995 67.6538 11.0384 67.5149C8.78838 63.3749 7.01837 59.0099 5.13587 54.6974C5.08313 54.5873 5.05294 54.4679 5.04708 54.346C5.04121 54.2241 5.05979 54.1021 5.10172 53.9875C5.14366 53.8729 5.20809 53.7679 5.29124 53.6786C5.37439 53.5892 5.47456 53.5175 5.58588 53.4675C5.74419 53.3998 5.91859 53.3789 6.08838 53.4074C7.25338 53.5874 8.41588 53.7523 9.57588 53.9023C11.5934 54.1873 14.5259 54.5399 16.5809 54.7649L20.0909 55.1249C20.2546 55.1468 20.4098 55.2107 20.5413 55.3106C20.6728 55.4105 20.776 55.5431 20.8409 55.6949C22.8134 59.9099 25.2059 64.1549 26.4734 68.6399C26.5199 68.8277 26.492 69.0261 26.3955 69.1938C26.2991 69.3616 26.1416 69.4856 25.9559 69.5399C25.8086 69.5762 25.6537 69.5669 25.5118 69.5134C25.3699 69.4598 25.2475 69.3643 25.1609 69.2398C24.4966 68.259 23.8954 67.2371 23.3609 66.1799C21.8609 63.1799 20.3609 59.6623 19.0334 56.5273L19.7834 57.0973L16.2959 56.5574C12.9134 56.0699 9.18588 55.5674 5.79588 55.2299L6.74838 53.9324C8.78838 58.1699 10.9334 62.37 12.6059 66.7725L11.9084 66.2548L19.7759 67.4399C19.9264 67.5035 20.0521 67.6145 20.1338 67.7561C20.2154 67.8977 20.2486 68.0621 20.2282 68.2243C20.2078 68.3865 20.135 68.5376 20.0209 68.6546C19.9067 68.7716 19.7575 68.8479 19.5959 68.8723H19.6484Z" fill="#191817"/>
<path d="M25.8734 2.19745C23.6876 4.7166 21.3614 7.11045 18.9059 9.36749L19.2209 8.42249C19.5659 10.455 20.0384 13.4174 20.3534 15.4949L20.2334 15.165C21.4034 17.1975 22.5584 19.2374 23.7584 21.2549L22.4084 21.0899C22.7309 20.8124 23.1584 20.1449 23.6684 20.1899C25.1084 20.1899 26.5484 20.1899 27.9884 20.1899C28.4909 20.1449 28.9709 20.8499 29.3159 21.1274L27.9434 21.2999C29.1434 19.2674 30.3059 17.2125 31.4759 15.165L31.3484 15.5024C31.7159 13.1474 32.0459 10.7775 32.4584 8.42249L32.7959 9.42737C30.3052 7.20512 27.9907 4.79297 25.8734 2.21246V2.19745ZM25.8734 0.75C28.8563 2.87971 31.6743 5.23129 34.3034 7.78491C34.4384 7.90983 34.54 8.06662 34.5989 8.24084C34.6579 8.41507 34.6723 8.60125 34.6409 8.78247C34.2359 11.1525 33.7559 13.4999 33.3134 15.8624C32.1584 18.0299 30.6809 20.0474 29.4509 22.1924C29.393 22.2921 29.3156 22.3792 29.2234 22.4485C29.1313 22.5179 29.0261 22.568 28.9143 22.5959C28.8024 22.6239 28.686 22.6291 28.5721 22.6113C28.4581 22.5935 28.3489 22.5532 28.2509 22.4925C27.9462 22.2334 27.6558 21.9579 27.3809 21.6674L27.9884 21.915C26.5484 21.915 25.1084 21.915 23.6684 21.915L24.2759 21.6674L23.6309 22.32C23.468 22.4808 23.2484 22.5709 23.0196 22.5709C22.7908 22.5709 22.5712 22.4808 22.4084 22.32C21.1034 20.16 19.6334 18.0449 18.4559 15.8249C18.0809 13.7474 17.4959 10.8225 17.1584 8.77496C17.1288 8.60304 17.1428 8.42645 17.1991 8.26135C17.2555 8.09625 17.3523 7.94791 17.4809 7.82996C20.1399 5.31054 22.9421 2.94666 25.8734 0.75Z" fill="#191817"/>
<path d="M43.0334 9.30759C39.7064 9.54611 36.3684 9.59365 33.0359 9.45005L33.9359 9.00767C32.7359 10.6952 30.9359 13.1177 29.7284 14.8052L29.8784 14.49C29.2709 16.74 28.6484 18.99 28.0709 21.24L27.2309 20.1676C27.6359 20.1676 28.3034 20.0701 28.5884 20.4151C29.6384 21.4651 30.7009 22.5001 31.7759 23.5201C32.1734 23.8501 32.0084 24.6827 32.0459 25.1252L30.9509 24.2701C33.2609 23.6776 35.5484 23.0401 37.8434 22.4101L37.5134 22.5675C39.4409 21.1575 41.3459 19.7176 43.2959 18.3451L42.8309 19.2901C42.6408 15.9574 42.7085 12.6149 43.0334 9.29258V9.30759ZM44.0534 8.2877C44.6613 11.9022 44.9922 15.5577 45.0434 19.2226C45.0496 19.4062 45.0103 19.5886 44.9292 19.7534C44.8481 19.9182 44.7276 20.0604 44.5784 20.1676C42.6209 21.5551 40.6109 22.875 38.6309 24.2325C36.2684 24.9825 33.7784 25.3426 31.3859 25.9876C31.1592 26.0445 30.9192 26.0094 30.7182 25.89C30.5173 25.7705 30.3718 25.5766 30.3134 25.3502C30.2759 25.2302 30.3134 24.3076 30.3134 24.1576L30.5759 24.7802C29.5334 23.7227 28.4759 22.6876 27.4034 21.6601L28.0034 21.9076H27.2534C27.1399 21.9096 27.0271 21.8889 26.9216 21.8468C26.8162 21.8048 26.7201 21.7422 26.6391 21.6626C26.5581 21.583 26.4938 21.4879 26.4499 21.3832C26.406 21.2785 26.3834 21.1661 26.3834 21.0525C26.9834 18.615 27.4409 16.0952 28.1759 13.7027C29.3684 11.9627 31.0259 9.48759 32.2409 7.80009C32.34 7.6567 32.4738 7.54095 32.63 7.46354C32.7861 7.38613 32.9593 7.34954 33.1334 7.35752C36.7933 7.45624 40.4444 7.76693 44.0684 8.2877H44.0534Z" fill="#191817"/>
<path d="M43.5134 19.4775C41.2634 20.1075 39.1109 20.6251 36.8609 21.0376L37.2209 20.9025C35.2034 22.1175 33.1859 23.3175 31.1459 24.5025L31.3409 22.8976C31.6484 23.2276 32.2184 23.6475 32.1734 24.1575L32.0984 28.5524C32.1017 28.6752 32.0793 28.7973 32.0329 28.9109C31.9864 29.0246 31.9168 29.1273 31.8284 29.2125L31.1384 29.8799L30.9584 28.4475C32.9909 29.73 35.0609 30.9525 37.1159 32.1975L36.8234 32.0926C39.1859 32.4676 41.5409 32.8426 43.9034 33.2251L43.0634 33.51C45.1034 31.2 47.9984 27.9526 50.0534 25.7101V27.2101C47.6797 24.7975 45.4934 22.2074 43.5134 19.4625V19.4775ZM43.9709 18.105C46.7233 20.4483 49.2979 22.993 51.6734 25.7176C51.8611 25.9223 51.9652 26.1899 51.9652 26.4676C51.9652 26.7453 51.8611 27.0129 51.6734 27.2176C50.4884 28.5001 49.2734 29.7449 48.0584 31.0049L44.4209 34.7549C44.3186 34.8703 44.1881 34.9573 44.0422 35.0073C43.8963 35.0572 43.74 35.0685 43.5884 35.04C41.1509 34.5225 38.6534 34.2375 36.2459 33.6375C34.1684 32.4225 32.1134 31.1776 30.0209 29.9926C29.9001 29.9224 29.7971 29.8252 29.7199 29.7087C29.6428 29.5922 29.5936 29.4596 29.5762 29.3209C29.5588 29.1823 29.5736 29.0415 29.6195 28.9095C29.6654 28.7775 29.7412 28.6578 29.8409 28.5599L30.5084 27.87L30.2384 28.5301L30.1484 24.135L30.4484 24.885L29.9009 24.36C29.7878 24.2525 29.7013 24.1201 29.6482 23.9733C29.5951 23.8265 29.5769 23.6693 29.5951 23.5143C29.6133 23.3593 29.6674 23.2106 29.753 23.0801C29.8386 22.9496 29.9535 22.8409 30.0884 22.7625C32.0884 21.5275 34.1009 20.3126 36.1259 19.1176C38.7069 18.5861 41.3244 18.2501 43.9559 18.1125L43.9709 18.105Z" fill="#191817"/>
<path d="M37.7834 30.2026L30.9209 28.8L32.1959 27.8025V28.5525C32.1995 28.692 32.174 28.8308 32.1211 28.9599C32.0682 29.089 31.9889 29.2057 31.8884 29.3025L28.7084 32.34C28.3634 32.7225 27.6134 32.5651 27.2084 32.5801L28.1159 31.41C28.6859 33.7575 29.2334 36.1126 29.8109 38.4526L29.6834 38.16L33.8009 44.0251L33.0509 43.6651C35.6609 43.5526 40.9109 43.2901 43.5134 43.1251L42.5534 44.0851L42.6509 38.8351L42.8234 33.5851L43.2959 34.545C41.3615 33.209 39.522 31.7406 37.7909 30.1501L37.7834 30.2026ZM38.3909 28.8901C40.5437 30.0339 42.6138 31.327 44.5859 32.7601C44.7386 32.8678 44.8619 33.0122 44.9445 33.1799C45.027 33.3476 45.0662 33.5333 45.0584 33.7201L44.8409 38.9701L44.5409 44.2201C44.5351 44.4729 44.4322 44.7138 44.2534 44.8926C44.0745 45.0714 43.8337 45.1744 43.5809 45.1801C40.9634 45.1801 35.7209 45.3375 33.0809 45.42C32.9365 45.4275 32.7925 45.3994 32.6616 45.3379C32.5308 45.2764 32.4172 45.1835 32.3309 45.0675L28.1834 39.2251C27.4334 36.8401 26.9009 34.35 26.2109 31.9275C26.176 31.7915 26.1721 31.6495 26.1994 31.5118C26.2268 31.3741 26.2847 31.2444 26.369 31.1321C26.4532 31.0198 26.5615 30.9277 26.6861 30.8629C26.8106 30.7981 26.9481 30.7622 27.0884 30.7576H27.9734L27.2909 31.035L30.3284 27.8625L30.0209 28.6125V27.8625V27.7801C30.0273 27.6301 30.0678 27.4834 30.1394 27.3513C30.2109 27.2192 30.3115 27.1051 30.4336 27.0177C30.5558 26.9302 30.6962 26.8716 30.8443 26.8465C30.9924 26.8213 31.1442 26.8302 31.2884 26.8725L38.2634 28.95L38.3909 28.8901Z" fill="#191817"/>
<path d="M31.6484 37.5302C30.2384 35.6102 28.9634 33.6451 27.7259 31.6276L29.3684 31.8301L28.7984 32.4077C28.701 32.5074 28.5842 32.5862 28.4552 32.6391C28.3262 32.692 28.1878 32.7178 28.0484 32.7151H23.6534C23.1059 32.7151 22.7009 32.1677 22.3559 31.8452L23.9759 31.6426L20.1734 37.7626L20.2934 37.4551C19.8284 39.7951 19.4384 42.1501 19.0109 44.5051L18.7559 43.7551C20.6759 45.5176 24.5759 49.0051 26.5334 50.7601H25.1759C27.0434 48.9376 30.8534 45.3226 32.7734 43.5526L32.4284 44.5651C31.999 42.2519 31.7359 39.9109 31.6409 37.5601L31.6484 37.5302ZM33.0059 37.0276C33.7127 39.363 34.2614 41.7434 34.6484 44.1526C34.6801 44.3367 34.6651 44.5259 34.6049 44.7028C34.5446 44.8797 34.4409 45.0387 34.3034 45.1652C32.3759 46.9577 28.4834 50.4826 26.5109 52.2226C26.3297 52.3886 26.0929 52.4808 25.8471 52.4808C25.6014 52.4808 25.3646 52.3886 25.1834 52.2226L21.4334 48.5927L17.6309 44.9927C17.5312 44.8971 17.4555 44.7793 17.4099 44.649C17.3642 44.5187 17.35 44.3795 17.3684 44.2427C17.8334 41.7977 18.1184 39.2776 18.6359 36.8551L22.2284 30.6075C22.3081 30.4738 22.4169 30.3599 22.5468 30.2741C22.6766 30.1883 22.8242 30.1328 22.9784 30.1119C23.1327 30.091 23.2897 30.1053 23.4377 30.1534C23.5857 30.2016 23.721 30.2825 23.8334 30.3902L24.4034 30.9452L23.6534 30.6451H28.0484L27.2984 30.9527L27.8759 30.3902C27.9731 30.2895 28.0896 30.2092 28.2185 30.1545C28.3473 30.0998 28.4859 30.0718 28.6259 30.0718C28.7659 30.0718 28.9044 30.0998 29.0333 30.1545C29.1621 30.2092 29.2786 30.2895 29.3759 30.3902C30.7053 32.552 31.9195 34.7826 33.0134 37.0726L33.0059 37.0276Z" fill="#191817"/>
<path d="M23.3983 32.3325C22.2208 31.3875 21.0358 30.3301 19.8658 29.2501C19.4683 28.9201 19.5883 28.2525 19.5583 27.81L20.8108 28.785C18.8308 29.3475 15.9433 30.0526 13.9183 30.5551L14.2633 30.3901C12.5533 31.5826 10.0858 33.2551 8.34583 34.4401L8.73583 33.645C8.80333 37.1325 8.90083 40.62 9.07333 44.145L8.24083 43.3126C11.7283 43.4326 15.2158 43.4626 18.7408 43.5301L17.8483 43.9725C18.8458 42.4725 20.8483 39.5401 21.9208 38.0776L21.7483 38.4526C22.2899 36.0935 22.9737 33.7692 23.7958 31.4926L24.5983 32.535C24.2052 32.5047 23.8145 32.4497 23.4283 32.3701L23.3983 32.3325ZM23.9533 30.99C24.6058 30.69 25.4533 30.7726 25.4083 31.6501C25.06 34.1162 24.559 36.5584 23.9083 38.9626C23.8788 39.0964 23.8199 39.2219 23.7358 39.3301C22.7083 40.7851 20.6083 43.7101 19.5433 45.1426C19.4434 45.2846 19.3092 45.399 19.1531 45.4751C18.997 45.5512 18.8242 45.5864 18.6508 45.5776C15.1633 45.3901 11.6683 45.1576 8.15083 45.0076C7.93315 45.0001 7.72657 44.9097 7.57325 44.7549C7.41993 44.6002 7.33144 44.3928 7.32584 44.175C7.32584 42.4275 7.21334 40.6875 7.13834 38.925C7.06334 37.1625 6.97333 35.445 6.87583 33.675C6.86977 33.5301 6.89944 33.386 6.96221 33.2552C7.02499 33.1244 7.11895 33.011 7.23583 32.925C9.11083 31.635 11.4658 29.6551 13.4008 28.5226C15.4408 28.0201 18.2833 27.2401 20.3083 26.8126C20.4581 26.7701 20.6157 26.7634 20.7685 26.7932C20.9212 26.823 21.0648 26.8885 21.1876 26.9842C21.3103 27.0799 21.4088 27.2033 21.4749 27.3442C21.5411 27.4851 21.5731 27.6394 21.5683 27.795V28.545L21.2833 27.8475C22.1833 28.8375 23.0758 29.85 23.9683 30.9825L23.9533 30.99Z" fill="#191817"/>
<path d="M19.8884 28.83C19.7234 27.33 19.6334 25.7475 19.5659 24.1575C19.5209 23.64 20.0909 23.2501 20.3834 22.9051L20.5784 24.4875C18.5309 23.34 16.5359 22.1025 14.5259 20.895L14.8784 21.0301C12.8384 20.6626 9.90586 20.1001 7.83586 19.7101L8.67585 19.425C6.26085 21.9375 3.86086 24.4724 1.51336 27.0599V25.8826C3.89836 28.4326 6.34335 30.9224 8.75835 33.4424L7.82085 33.12C8.99085 32.9025 10.1684 32.6626 11.3384 32.4526L14.8709 31.83L14.4809 31.9725C16.5206 30.6957 18.6343 29.5413 20.8109 28.5151L20.6459 29.8351C20.377 29.5146 20.1266 29.179 19.8959 28.83H19.8884ZM21.2234 28.275C22.0484 28.6125 22.5734 29.355 21.6734 29.9625C19.6525 31.5031 17.502 32.8656 15.2459 34.035C13.1534 34.38 10.2134 34.89 8.13585 35.1825C7.97091 35.2064 7.80263 35.1895 7.64574 35.1332C7.48884 35.077 7.34811 34.9832 7.23586 34.86C4.90336 32.25 2.59336 29.6099 0.230858 27.0449C0.082662 26.8877 0.00012207 26.6798 0.00012207 26.4637C0.00012207 26.2477 0.082662 26.0398 0.230858 25.8826C1.43836 24.6151 2.61586 23.3325 3.79336 22.0425C4.97086 20.7525 6.14835 19.4625 7.30335 18.1575C7.40363 18.0477 7.52898 17.9637 7.66872 17.9127C7.80845 17.8618 7.95842 17.8454 8.10586 17.8649C10.2134 18.2174 13.1534 18.6149 15.2234 18.9824C17.4284 20.0774 19.4984 21.4724 21.6134 22.7324C21.7295 22.7996 21.8309 22.8896 21.9115 22.9968C21.9922 23.1041 22.0503 23.2264 22.0825 23.3566C22.1147 23.4869 22.1203 23.6222 22.099 23.7547C22.0777 23.8872 22.0298 24.014 21.9584 24.1275C21.7387 24.3797 21.5032 24.6177 21.2534 24.84L21.5384 24.1425C21.4784 25.485 21.3884 26.8275 21.2159 28.26L21.2234 28.275Z" fill="#191817"/>
<path d="M19.8883 23.8797C20.8258 22.7022 21.8833 21.5172 22.9633 20.3472C23.3083 19.9422 24.0433 20.0773 24.5008 20.0323L23.5258 21.2997C22.9708 19.3497 22.2808 16.4997 21.7858 14.5047L21.9433 14.8572C20.7583 13.1472 19.0858 10.6798 17.9008 8.93976L18.6958 9.32977C15.2083 9.39727 11.7133 9.49474 8.23334 9.66724L9.06584 8.82733C8.94584 12.3148 8.91584 15.8098 8.84834 19.3273L8.40584 18.4422L11.3608 20.4598L14.3008 22.5148L13.9258 22.3423C16.243 22.8758 18.5269 23.5444 20.7658 24.3448L19.7158 25.1624C19.7445 24.7414 19.8021 24.3228 19.8883 23.9097V23.8797ZM21.2233 24.4347C21.5083 25.1322 21.5158 26.0172 20.5633 25.9797C18.1401 25.6263 15.7406 25.1254 13.3783 24.4797C13.2457 24.4471 13.1207 24.3884 13.0108 24.3073C11.5558 23.2798 8.63084 21.1797 7.19834 20.1147C7.05495 20.0157 6.9391 19.8819 6.8617 19.7258C6.78429 19.5696 6.74786 19.3963 6.75584 19.2222C6.95084 15.7272 7.18335 12.2397 7.32585 8.72223C7.33712 8.5052 7.4299 8.30049 7.58564 8.14893C7.74138 7.99736 7.94859 7.91022 8.16584 7.90485C9.90584 7.90485 11.6533 7.79234 13.4158 7.70984C15.1783 7.62734 16.9033 7.55227 18.6658 7.44727C18.8106 7.4425 18.9544 7.47267 19.0849 7.53534C19.2155 7.59801 19.329 7.69133 19.4158 7.80725C20.7133 9.68975 22.6933 12.0447 23.8258 13.9797C24.3208 15.9822 25.0858 18.7873 25.5133 20.7823C25.5479 20.9129 25.5558 21.049 25.5366 21.1827C25.5173 21.3164 25.4713 21.4448 25.4013 21.5603C25.3313 21.6758 25.2387 21.7762 25.1291 21.8551C25.0195 21.934 24.8951 21.9899 24.7633 22.0197C24.4036 22.0385 24.0431 22.0385 23.6833 22.0197L24.3808 21.7273C23.3908 22.6348 22.3708 23.5199 21.2383 24.4124L21.2233 24.4347Z" fill="#191817"/>
<path d="M28.1909 20.5572C29.5346 21.3586 30.7401 22.3716 31.7609 23.5572C31.9268 23.7362 32.0157 23.9734 32.0084 24.2173L31.8884 28.4623C31.8895 28.5807 31.8668 28.6981 31.8217 28.8076C31.7766 28.9171 31.71 29.0165 31.6259 29.0998C30.5909 30.0673 29.5934 31.0723 28.5884 32.0998C28.4282 32.2573 28.213 32.346 27.9884 32.3472L23.7434 32.4148C23.5151 32.4171 23.2947 32.331 23.1284 32.1747L20.0384 29.2648C19.9373 29.1688 19.8581 29.052 19.8063 28.9226C19.7546 28.7931 19.7314 28.654 19.7384 28.5148L19.6934 24.2697C19.6938 24.1301 19.7218 23.9919 19.7759 23.8632C19.8299 23.7345 19.9089 23.6177 20.0084 23.5197L23.0084 20.5197C23.1106 20.4144 23.233 20.3309 23.3684 20.2741C23.5037 20.2174 23.6491 20.1888 23.7959 20.1897C25.2928 20.0789 26.7976 20.2286 28.2434 20.6323L28.1909 20.5572ZM27.6434 21.8998C26.3821 22.2883 25.06 22.4409 23.7434 22.3498L24.4934 22.0197L21.4934 25.0197L21.8159 24.2697L21.7709 28.5148L21.4634 27.7648L24.3809 30.8547L23.7359 30.5848L27.9809 30.6522L27.3809 30.8998C28.3709 29.8873 29.3684 28.8898 30.3809 27.8998L30.1109 28.5373L29.9909 24.2922L30.2984 25.0422C29.2554 24.1763 28.3677 23.1391 27.6734 21.9748L27.6434 21.8998Z" fill="#191817"/>
</svg>
