<svg width="56" height="81" viewBox="0 0 56 81" fill="none" xmlns="http://www.w3.org/2000/svg">
<path d="M41.6013 14.6671C41.4306 14.5187 41.2816 14.3471 41.1588 14.1572L41.3688 14.3672L40.6188 13.8798C40.5145 13.8111 40.4291 13.7175 40.3702 13.6075C40.3112 13.4975 40.2807 13.3745 40.2813 13.2497C40.2213 10.3922 40.1388 7.54225 40.1163 4.68475L40.5813 5.47961L34.0338 1.88727H35.0163L28.5213 5.59222C28.3646 5.68096 28.1876 5.72754 28.0075 5.72754C27.8275 5.72754 27.6505 5.68096 27.4938 5.59222C25.3188 4.38472 23.1513 3.14712 20.9838 1.92462H22.0113L15.4938 5.5697L16.0113 4.68475V14.0297C16.0133 14.1606 15.9891 14.2906 15.9402 14.412C15.8912 14.5335 15.8185 14.6439 15.7262 14.7369C15.634 14.8298 15.5241 14.9033 15.4031 14.9531C15.282 15.003 15.1522 15.0283 15.0213 15.0273H5.66878L6.51628 14.5397L2.82628 21.0346V20.1046L6.47128 26.6298C6.55027 26.7666 6.59186 26.9217 6.59186 27.0797C6.59186 27.2376 6.55027 27.3929 6.47128 27.5297L2.78128 34.0322V33.1472L6.43378 39.6722L5.68378 39.2221H15.0363C15.2617 39.2241 15.4773 39.3152 15.636 39.4753C15.7947 39.6355 15.8838 39.8517 15.8838 40.0772L15.9288 49.4222L15.4713 48.6722L21.9963 52.3098H21.0213L27.5163 48.6121C27.6593 48.5313 27.8208 48.4889 27.985 48.4889C28.1493 48.4889 28.3108 48.5313 28.4538 48.6121L34.9788 52.2572H34.0038L40.4913 48.5522L39.9738 49.4447L39.9213 40.0997C39.9203 39.9592 39.9471 39.8198 40.0002 39.6898C40.0533 39.5597 40.1316 39.4415 40.2306 39.3419C40.3295 39.2422 40.4473 39.1629 40.577 39.1089C40.7067 39.055 40.8458 39.0273 40.9863 39.0273H50.3463L49.3788 39.5898L53.0463 33.0797V34.1746L49.3638 27.6647C49.2677 27.4968 49.2172 27.3069 49.2172 27.1135C49.2172 26.9201 49.2677 26.73 49.3638 26.5622L53.0763 20.0823V21.1397C52.4763 20.0447 51.8613 18.9646 51.2763 17.8621L49.4988 14.5772L50.3463 15.0646C47.5188 15.0646 44.3838 14.9222 41.6013 14.7347V14.6671ZM42.2913 13.3997C44.3613 13.2572 46.1913 13.1522 48.2463 13.1072L50.3463 13.0622C50.5179 13.0614 50.6866 13.1069 50.8344 13.194C50.9823 13.2812 51.1039 13.4066 51.1863 13.5571L53.0838 16.7747C53.7213 17.8472 54.3288 18.9347 54.9513 20.0147C55.0434 20.1757 55.0918 20.358 55.0918 20.5435C55.0918 20.729 55.0434 20.9111 54.9513 21.0721L51.3213 27.6046V26.4946L54.9888 33.0123C55.0814 33.1799 55.1299 33.3683 55.1299 33.5598C55.1299 33.7513 55.0814 33.9396 54.9888 34.1072L51.3063 40.6097C51.2105 40.7801 51.0711 40.9221 50.9025 41.0209C50.7338 41.1198 50.5418 41.172 50.3463 41.1722H40.9938L41.7438 40.8572L42.0513 40.1072L42.0213 49.4372C42.0222 49.6194 41.9739 49.7985 41.8815 49.9556C41.7891 50.1127 41.656 50.2419 41.4963 50.3297L34.9638 53.9372C34.8174 54.02 34.652 54.0635 34.4838 54.0635C34.3156 54.0635 34.1502 54.02 34.0038 53.9372L27.5088 50.2397H28.4463L21.9213 53.8846C21.7826 53.9622 21.6264 54.0029 21.4675 54.0029C21.3087 54.0029 21.1525 53.9622 21.0138 53.8846L14.5188 50.1872C14.3862 50.1108 14.2753 50.0018 14.1965 49.8706C14.1178 49.7394 14.0738 49.5902 14.0688 49.4372V40.0922L14.9238 40.9471H5.57128C5.41857 40.945 5.26906 40.9032 5.13752 40.8256C5.00598 40.748 4.89698 40.6374 4.82128 40.5048L1.13128 34.0096C1.05361 33.8751 1.01272 33.7226 1.01272 33.5673C1.01272 33.4119 1.05361 33.2592 1.13128 33.1247L4.77628 26.6072V27.5072L1.08628 21.0123C1.00676 20.8715 0.964966 20.7127 0.964966 20.551C0.964966 20.3894 1.00676 20.2305 1.08628 20.0898C1.08628 20.0898 4.73128 13.5721 4.73878 13.5646C4.82184 13.4146 4.94354 13.2897 5.09126 13.2026C5.23898 13.1156 5.40732 13.0697 5.57878 13.0697H14.9313L14.2263 13.3546L13.9338 14.0598V4.71478C13.9305 4.53298 13.977 4.35371 14.0682 4.19641C14.1594 4.03911 14.2919 3.90961 14.4513 3.82214L20.9463 0.132202C21.1037 0.0455393 21.2804 0 21.46 0C21.6397 0 21.8164 0.0455393 21.9738 0.132202C24.1488 1.3547 26.3238 2.56213 28.4838 3.80713H27.4638L33.9963 0.169739C34.1454 0.0827655 34.3149 0.0368042 34.4875 0.0368042C34.6602 0.0368042 34.8297 0.0827655 34.9788 0.169739L41.4438 3.91974C41.5872 3.99896 41.7066 4.11513 41.7898 4.25629C41.8729 4.39745 41.9166 4.5583 41.9163 4.72211C41.9163 7.57961 41.8038 10.4297 41.7438 13.2872L41.4063 12.6572C41.7545 12.8754 42.081 13.1265 42.3813 13.4072C42.3813 13.4072 42.3363 13.4072 42.2913 13.4072V13.3997Z" fill="#191817"/>
<path d="M32.1213 68.337C35.1756 67.6367 38.2721 67.1356 41.3913 66.837L40.5813 67.4295C42.0288 64.362 43.7463 60.972 45.1563 57.8895C45.6663 56.8245 46.1313 55.7445 46.6113 54.672L47.5188 55.9094C42.8613 56.5469 38.2263 57.4096 33.5538 57.9496L34.4313 57.3045C33.7235 58.8733 32.8829 60.3788 31.9188 61.8045C31.8033 61.9608 31.6316 62.0662 31.4399 62.0984C31.2482 62.1306 31.0516 62.087 30.8913 61.977C30.7777 61.8918 30.6906 61.7761 30.6401 61.6434C30.5896 61.5106 30.5779 61.3662 30.6063 61.227C30.8214 60.3868 31.0869 59.5602 31.4013 58.7519C31.7013 57.9494 32.0388 57.1545 32.3913 56.3745C32.4679 56.2036 32.5864 56.0548 32.7359 55.942C32.8854 55.8292 33.061 55.7561 33.2463 55.7294C37.9188 55.0919 42.6288 54.7321 47.3088 54.1771C47.4626 54.1587 47.6186 54.1817 47.7605 54.2437C47.9025 54.3057 48.0253 54.4045 48.1163 54.5299C48.2073 54.6553 48.2631 54.8027 48.2781 54.9569C48.293 55.1111 48.2665 55.2664 48.2013 55.407C47.6988 56.472 47.1888 57.5295 46.7013 58.6095C45.8613 60.4695 44.6763 63.1696 43.8663 65.0746C43.3938 66.1471 42.9438 67.2344 42.4563 68.3069C42.383 68.4673 42.2703 68.6065 42.1287 68.7114C41.987 68.8163 41.8211 68.8836 41.6463 68.907C38.5507 69.3983 35.4268 69.6913 32.2938 69.7844C32.1317 69.7612 31.9817 69.6857 31.8666 69.5693C31.7515 69.4528 31.6777 69.3017 31.6564 69.1393C31.6352 68.977 31.6677 68.8122 31.7489 68.67C31.8301 68.5279 31.9557 68.4161 32.1063 68.352L32.1213 68.337Z" fill="#191817"/>
<path d="M26.8039 79.9472C26.0539 74.8847 26.8039 69.8072 26.6839 64.7222C26.7964 59.6522 25.8514 54.5223 26.8039 49.4973C26.8534 49.3058 26.9765 49.1416 27.1465 49.0405C27.3164 48.9393 27.5195 48.9095 27.7114 48.9573C29.5564 49.4448 28.1614 62.3373 28.3789 64.7073C28.2964 69.7923 28.9939 74.8697 28.2514 79.9322C28.2082 80.0911 28.1139 80.2314 27.9831 80.3314C27.8523 80.4314 27.6923 80.4855 27.5276 80.4855C27.363 80.4855 27.2029 80.4314 27.0721 80.3314C26.9413 80.2314 26.847 80.0911 26.8039 79.9322V79.9472Z" fill="#191817"/>
<path d="M21.3288 69.5896L13.4163 68.742C13.266 68.7244 13.1227 68.6682 13.0005 68.5789C12.8782 68.4895 12.7812 68.37 12.7188 68.2321C10.4688 64.0846 8.69884 59.727 6.81634 55.4145C6.74309 55.2656 6.71207 55.0995 6.72666 54.9342C6.74125 54.7689 6.80089 54.6108 6.8991 54.477C6.99731 54.3432 7.13032 54.2389 7.28367 54.1754C7.43701 54.112 7.60482 54.0917 7.76884 54.117C8.93134 54.297 10.0938 54.4695 11.2638 54.6195C13.2738 54.9045 16.2063 55.2571 18.2613 55.4821L21.7788 55.8421C21.9425 55.8639 22.0978 55.928 22.2292 56.0279C22.3607 56.1278 22.464 56.2602 22.5288 56.4121C24.5013 60.6196 26.8938 64.8721 28.1613 69.3571C28.2056 69.5438 28.1767 69.7404 28.0804 69.9064C27.9842 70.0724 27.8279 70.1952 27.6438 70.2495C27.4973 70.2866 27.343 70.2785 27.2011 70.2263C27.0592 70.1741 26.9364 70.0803 26.8488 69.9571C26.1842 68.9779 25.5854 67.9556 25.0563 66.8971C23.5563 63.8596 22.0563 60.3795 20.7213 57.2445L21.4713 57.8145L17.9838 57.2745C14.5938 56.787 10.8663 56.2845 7.48384 55.9395L8.43634 54.6495C10.4688 58.887 12.6138 63.0871 14.2938 67.4896L13.5963 66.9719L21.5163 68.187C21.667 68.2512 21.7925 68.3629 21.8738 68.5051C21.955 68.6473 21.9875 68.812 21.9662 68.9744C21.945 69.1367 21.8712 69.2878 21.7561 69.4043C21.641 69.5208 21.4909 69.5963 21.3288 69.6195V69.5896Z" fill="#191817"/>
<path d="M34.0038 24.5297C33.8163 23.2322 33.6813 21.8747 33.5838 20.5097L34.4913 21.4171C33.2313 21.4171 31.9713 21.4173 30.7413 21.3723C30.501 21.3645 30.2707 21.2744 30.0888 21.1172C29.1438 20.2697 28.2288 19.3847 27.2988 18.5222H28.7163C27.7788 19.3847 26.8563 20.2547 25.9038 21.1022C25.7324 21.2609 25.5074 21.3493 25.2738 21.3497L21.5238 21.4396L22.4538 20.5097C22.4538 20.5622 22.2363 24.2597 22.2438 24.3197C22.2358 24.526 22.1501 24.7215 22.0038 24.8672C21.1338 25.7772 20.2688 26.6921 19.4088 27.6121V26.4348L21.9663 29.2172C22.1036 29.3675 22.1832 29.5614 22.1913 29.7647L22.3713 33.5147L21.5238 32.6671C22.7763 32.6671 24.0363 32.7422 25.2738 32.7647C25.4844 32.7632 25.6878 32.8409 25.8438 32.9822L28.6638 35.4946H27.2988L30.0213 32.9372C30.1971 32.7718 30.4254 32.6735 30.6663 32.6596C31.9413 32.5771 33.2088 32.5246 34.4838 32.4721L33.4188 33.5372L33.5463 29.7872C33.5543 29.5222 33.6582 29.269 33.8388 29.0748C34.6988 28.1448 35.5788 27.2372 36.4788 26.3522V27.7698C35.6088 26.7423 34.7613 25.6548 34.0038 24.5673V24.5297ZM35.3388 23.9747C39.6288 27.4997 38.8338 26.6673 35.4963 30.5598L35.7963 29.8098L35.6388 33.5598C35.6276 33.8399 35.5108 34.1054 35.3118 34.303C35.1129 34.5005 34.8465 34.6155 34.5663 34.6247C33.3138 34.6772 32.0538 34.7146 30.8163 34.7296L31.4988 34.4447L28.6788 36.9721C28.4948 37.1473 28.2504 37.2451 27.9963 37.2451C27.7422 37.2451 27.4979 37.1473 27.3138 36.9721L24.5913 34.3471L25.1913 34.5947C23.9313 34.5122 22.6638 34.4597 21.4413 34.3997C21.221 34.3902 21.0124 34.2975 20.8579 34.1402C20.7033 33.9829 20.6143 33.7727 20.6088 33.5523L20.4963 29.8023L20.7213 30.3497L18.1413 27.5898C17.9921 27.4301 17.9091 27.2195 17.9091 27.0009C17.9091 26.7823 17.9921 26.572 18.1413 26.4122C18.9888 25.4822 19.8438 24.5523 20.6838 23.6148L20.4438 24.1923L20.5188 20.4423C20.5242 20.2032 20.6201 19.975 20.7872 19.8038C20.9542 19.6326 21.1799 19.5311 21.4188 19.5198L25.1688 19.3248L24.5088 19.5947C28.6113 15.8072 27.3288 15.7847 31.4613 19.5947L30.7863 19.3173C32.0763 19.3773 33.3588 19.4521 34.6488 19.5646C34.8743 19.5835 35.0844 19.6866 35.2373 19.8534C35.3901 20.0202 35.4746 20.2385 35.4738 20.4648C35.4738 21.6198 35.4288 22.7823 35.3388 24.0048V23.9747Z" fill="#191817"/>
</svg>
