<svg width="53" height="81" viewBox="0 0 53 81" fill="none" xmlns="http://www.w3.org/2000/svg">
<path d="M8.07684 27.2166C6.11934 29.5566 4.06434 31.7165 1.93434 33.9065L2.20434 32.8791C2.85684 35.2791 3.54684 37.6715 4.16184 40.0865L3.46435 39.3965L10.6343 41.5191L9.77184 41.7441C14.8793 36.7566 20.5043 30.9216 25.4618 25.7991L26.2118 27.6066C20.0768 27.6066 14.2793 27.9066 8.07684 27.2166ZM7.52184 25.8815C13.5743 25.2065 20.0543 25.454 26.2118 25.4915C26.3529 25.4895 26.4929 25.5159 26.6236 25.5692C26.7542 25.6224 26.8727 25.7014 26.9722 25.8015C27.0716 25.9016 27.1498 26.0208 27.2021 26.1518C27.2545 26.2828 27.2799 26.4229 27.2768 26.564C27.2736 26.8455 27.1606 27.1146 26.9618 27.314L22.9418 31.2066C20.6243 33.4566 17.2793 36.7191 14.9468 39.0291L11.0168 43.0041C10.907 43.1139 10.77 43.1925 10.6198 43.2321C10.4695 43.2716 10.3115 43.2707 10.1618 43.2291L2.93184 41.3316C2.76463 41.2892 2.61178 41.2028 2.48914 41.0815C2.3665 40.9602 2.27853 40.8082 2.23434 40.6415C1.48434 38.2565 0.854344 35.8566 0.171844 33.4566C0.118958 33.277 0.116156 33.0864 0.163741 32.9053C0.211327 32.7242 0.307492 32.5594 0.441844 32.429L2.12184 30.8016C3.83934 29.1516 5.72184 27.4115 7.52184 25.8965V25.8815Z" fill="#191817"/>
<path d="M7.53681 27.2165C5.73681 25.7165 3.85431 23.9615 2.13681 22.319L0.456806 20.684C0.32175 20.5541 0.225102 20.3894 0.177473 20.2081C0.129843 20.0269 0.133072 19.836 0.186805 19.6564C0.869305 17.2639 1.52931 14.8566 2.24931 12.4716C2.2935 12.3048 2.38147 12.1529 2.50411 12.0316C2.62675 11.9103 2.77959 11.8238 2.94681 11.7814L10.1768 9.88393C10.3264 9.8416 10.4847 9.84014 10.635 9.87971C10.7854 9.91929 10.9224 9.99848 11.0318 10.109L14.9618 14.0915C17.3018 16.409 20.6243 19.6564 22.9568 21.9064L26.9768 25.7991C27.0757 25.8974 27.1541 26.0141 27.2077 26.1428C27.2612 26.2715 27.2888 26.4097 27.2888 26.5491C27.2888 26.6885 27.2612 26.8265 27.2077 26.9552C27.1541 27.0839 27.0757 27.2008 26.9768 27.2991C26.7782 27.4999 26.5092 27.6155 26.2268 27.6215C20.0693 27.659 13.5893 27.914 7.53681 27.2315V27.2165ZM8.09181 25.8815C14.2868 25.1915 20.0918 25.4615 26.2268 25.4915L25.4768 27.2991C20.5193 22.1766 14.8943 16.3416 9.78681 11.3541L10.6493 11.5789L3.4793 13.7015L4.17681 13.0116C3.56181 15.4266 2.87181 17.8189 2.21931 20.2189L1.94931 19.1915C4.07931 21.3515 6.13431 23.5415 8.09181 25.8815Z" fill="#191817"/>
<path d="M44.3469 25.9118C46.2969 23.5793 48.3594 21.4118 50.4819 19.2218L50.2119 20.2492C49.5594 17.8492 48.8769 15.4568 48.2619 13.0418L48.9519 13.7318L41.7894 11.6092L42.6444 11.3842C37.5444 16.3717 31.9119 22.2067 26.9619 27.3292L26.2119 25.5217C32.3469 25.5217 38.1444 25.2218 44.3469 25.9118ZM44.8944 27.2468C38.8419 27.9218 32.3694 27.6743 26.2119 27.6368C26.0021 27.6377 25.7967 27.5761 25.622 27.4599C25.4473 27.3438 25.3111 27.1784 25.2307 26.9846C25.1502 26.7908 25.1293 26.5774 25.1705 26.3717C25.2116 26.166 25.3131 25.9771 25.4619 25.8292L29.4744 21.9367C31.7994 19.6867 35.1444 16.4243 37.4694 14.1218L41.4069 10.1392C41.5163 10.0288 41.6533 9.94956 41.8037 9.90999C41.954 9.87042 42.1123 9.87188 42.2619 9.9142L49.4919 11.8117C49.6588 11.8531 49.8113 11.9392 49.9328 12.0607C50.0544 12.1823 50.1405 12.3348 50.1819 12.5017C50.9319 14.8867 51.5619 17.2942 52.2444 19.6867C52.299 19.8662 52.3026 20.0574 52.255 20.2388C52.2073 20.4202 52.1102 20.5849 51.9744 20.7143L50.3019 22.3493C48.5844 23.9918 46.7019 25.7318 44.8944 27.2468Z" fill="#191817"/>
<path d="M44.8944 25.9117C46.7019 27.4117 48.5844 29.1667 50.3019 30.8167L51.9744 32.4441C52.1094 32.5741 52.2061 32.7388 52.2537 32.92C52.3013 33.1013 52.2981 33.2922 52.2444 33.4717C51.5619 35.8717 50.9094 38.2716 50.1819 40.6566C50.139 40.8228 50.0524 40.9745 49.9311 41.0959C49.8097 41.2172 49.6581 41.3039 49.4919 41.3467L42.2619 43.2442C42.1123 43.2874 41.9539 43.2892 41.8034 43.2496C41.6528 43.2099 41.5158 43.1304 41.4069 43.0192L37.4694 39.0442C35.1369 36.7192 31.8144 33.4717 29.4744 31.2217L25.4619 27.3291C25.3131 27.1812 25.2116 26.9924 25.1705 26.7867C25.1293 26.581 25.1502 26.3677 25.2307 26.1739C25.3111 25.9801 25.4473 25.8147 25.622 25.6985C25.7967 25.5824 26.0021 25.5208 26.2119 25.5216C32.3694 25.5216 38.8419 25.2367 44.8944 25.9117ZM44.3469 27.2467C38.1444 27.9367 32.3469 27.6667 26.2119 27.6367L26.9619 25.8291C31.9119 30.9516 37.5444 36.7866 42.6444 41.7741L41.7894 41.5492L48.9519 39.4267L48.2619 40.1166C48.8769 37.7016 49.5594 35.3092 50.2119 32.9092L50.4819 33.9366C48.3519 31.7766 46.3044 29.5867 44.3469 27.2467Z" fill="#191817"/>
<path d="M26.8793 44.714C29.2118 46.6715 31.3794 48.7264 33.5694 50.8564L32.5344 50.5864C34.9419 49.9264 37.3343 49.244 39.7493 48.629L39.0593 49.3264L41.1819 42.1564L41.4069 43.019C36.4194 37.9115 30.5843 32.2864 25.4618 27.3289L27.2693 26.5789C27.2693 32.7139 27.5693 38.5115 26.8793 44.714ZM25.5443 45.269C24.8618 39.209 25.1169 32.7364 25.1544 26.5789C25.1523 26.4378 25.1787 26.2979 25.232 26.1672C25.2852 26.0366 25.3643 25.918 25.4644 25.8186C25.5645 25.7192 25.6836 25.641 25.8146 25.5886C25.9456 25.5363 26.0858 25.5109 26.2268 25.5139C26.5083 25.5172 26.7775 25.6301 26.9768 25.8289L30.8694 29.8489C33.1194 32.1664 36.3818 35.5114 38.6843 37.8439L42.6594 41.7739C42.7718 41.882 42.8528 42.0188 42.8938 42.1694C42.9347 42.3199 42.9341 42.4788 42.8918 42.629L40.9944 49.8589C40.9505 50.0254 40.8637 50.1776 40.7426 50.3C40.6215 50.4224 40.4704 50.5109 40.3044 50.5565C37.9194 51.3065 35.5119 51.929 33.1194 52.619C32.9395 52.6694 32.7495 52.6709 32.5689 52.6234C32.3883 52.576 32.2236 52.4812 32.0919 52.3489L30.4568 50.6689C28.8068 48.9514 27.0743 47.069 25.5593 45.269H25.5443Z" fill="#191817"/>
<path d="M26.8793 45.2691C25.3793 47.0691 23.6243 48.9515 21.9743 50.669L20.3468 52.349C20.2155 52.482 20.0508 52.5773 19.8701 52.6248C19.6893 52.6723 19.4991 52.6704 19.3193 52.6191C16.9193 51.9291 14.5193 51.2766 12.1343 50.5566C11.9683 50.511 11.8171 50.4225 11.696 50.3001C11.5749 50.1777 11.4881 50.0255 11.4443 49.859L9.54682 42.6291C9.5045 42.4795 9.50305 42.3211 9.54262 42.1708C9.58219 42.0204 9.66134 41.8834 9.77183 41.774L13.7468 37.844C16.0718 35.504 19.3193 32.1815 21.5693 29.849L25.4618 25.829C25.6097 25.6802 25.7986 25.5788 26.0043 25.5376C26.21 25.4965 26.4233 25.5175 26.6171 25.5979C26.8109 25.6783 26.9764 25.8144 27.0925 25.9892C27.2087 26.1639 27.2702 26.3692 27.2693 26.579C27.3068 32.7365 27.5543 39.2091 26.8793 45.2691ZM25.5443 44.7141C24.8543 38.5116 25.1243 32.714 25.1543 26.579L26.9618 27.329C21.8393 32.2865 16.0043 37.9116 11.0168 43.0191L11.2418 42.1565L13.3643 49.3265L12.6743 48.6291C15.0818 49.2441 17.4818 49.9265 19.8818 50.5865L18.8543 50.8565C21.0143 48.7265 23.2043 46.6716 25.5443 44.7141Z" fill="#191817"/>
<path d="M25.5368 8.46653C23.1968 6.50903 21.0368 4.45407 18.8468 2.32407L19.8743 2.59397C17.4743 3.25397 15.0743 3.93655 12.6668 4.55155L13.3568 3.8541L11.2343 11.024L11.0093 10.1615C15.9968 15.269 21.8243 20.894 26.9543 25.8515L25.1468 26.6015C25.1468 20.4665 24.8468 14.669 25.5368 8.46653ZM26.8718 7.91153C27.5468 13.9715 27.2993 20.444 27.2618 26.6015C27.2627 26.8113 27.2012 27.0167 27.085 27.1914C26.9689 27.3662 26.8034 27.5023 26.6096 27.5827C26.4158 27.6631 26.2025 27.6842 25.9968 27.643C25.7911 27.6018 25.6022 27.5003 25.4543 27.3515L21.5618 23.3316C19.3118 21.0141 16.0493 17.669 13.7393 15.3365L9.76432 11.4065C9.6545 11.2966 9.57581 11.1597 9.53628 11.0095C9.49675 10.8593 9.4978 10.7012 9.53932 10.5515L11.4368 3.32144C11.4792 3.15423 11.5655 3.00152 11.6869 2.87888C11.8082 2.75624 11.9601 2.66819 12.1268 2.624C14.5118 1.874 16.9118 1.2515 19.3118 0.561496C19.4916 0.511064 19.6816 0.509458 19.8622 0.556918C20.0428 0.604378 20.2075 0.699267 20.3393 0.831576L21.9668 2.51157C23.6168 4.22907 25.3568 6.11153 26.8718 7.91153Z" fill="#191817"/>
<path d="M25.5368 7.88907C27.0368 6.08907 28.7843 4.20661 30.4343 2.48911L32.0693 0.809116C32.2011 0.676806 32.3658 0.581917 32.5464 0.534457C32.727 0.486997 32.917 0.488603 33.0968 0.539035C35.4893 1.22903 37.8968 1.88153 40.2818 2.60153C40.4479 2.64714 40.599 2.73565 40.7201 2.85807C40.8412 2.98048 40.928 3.13264 40.9718 3.29917L42.8693 10.5291C42.9107 10.6794 42.911 10.8379 42.8701 10.9883C42.8292 11.1387 42.7486 11.2754 42.6368 11.384L38.6618 15.314C36.3443 17.654 33.0968 20.9766 30.8468 23.3091L26.9543 27.329C26.7549 27.5269 26.4853 27.6379 26.2043 27.6379C25.9234 27.6379 25.6538 27.5269 25.4543 27.329C25.3535 27.232 25.2736 27.1156 25.2195 26.9866C25.1653 26.8576 25.138 26.7189 25.1393 26.579C25.1018 20.4215 24.8468 13.9491 25.5293 7.88907H25.5368ZM26.8718 8.44406C27.5618 14.6466 27.2918 20.444 27.2618 26.579L25.4543 25.829C30.5768 20.8715 36.4118 15.2466 41.3993 10.1391L41.1743 11.0015L39.0518 3.83164L39.7418 4.52909C37.3268 3.91409 34.9343 3.23151 32.5268 2.57151L33.5618 2.30161C31.4018 4.43161 29.2118 6.48656 26.8718 8.44406Z" fill="#191817"/>
<path d="M30.7868 77.9988C33.8416 77.3016 36.938 76.8006 40.0568 76.4988L39.2468 77.0989C40.6868 74.0314 42.4118 70.6339 43.8218 67.5514C44.3318 66.4939 44.7968 65.4139 45.2768 64.3414L46.1843 65.5713C41.5268 66.2163 36.8918 67.0715 32.2193 67.619L33.0968 66.9739C32.389 68.5427 31.5484 70.0482 30.5843 71.4739C30.4687 71.6302 30.2971 71.7354 30.1054 71.7676C29.9137 71.7998 29.717 71.7563 29.5568 71.6464C29.4431 71.5612 29.356 71.4455 29.3056 71.3127C29.2551 71.18 29.2434 71.0355 29.2718 70.8964C29.4857 70.0583 29.7512 69.2342 30.0668 68.4288C30.3668 67.6188 30.7043 66.8314 31.0493 66.0514C31.1247 65.8782 31.2439 65.7278 31.3951 65.6147C31.5463 65.5016 31.7244 65.4297 31.9118 65.4063C36.5843 64.7613 41.2943 64.4089 45.9743 63.8464C46.1284 63.8297 46.2842 63.854 46.4259 63.9171C46.5675 63.9802 46.6899 64.0798 46.7806 64.2055C46.8713 64.3312 46.927 64.4788 46.9422 64.6331C46.9573 64.7873 46.9313 64.9429 46.8668 65.0839C46.3643 66.1489 45.8543 67.2064 45.3668 68.2864C44.5268 70.1389 43.3418 72.839 42.5318 74.744C42.0593 75.824 41.6093 76.9113 41.1218 77.9763C41.0491 78.1371 40.9365 78.2767 40.7948 78.3817C40.653 78.4867 40.4867 78.5537 40.3118 78.5764C37.2168 79.0739 34.0927 79.3694 30.9593 79.4613C30.7972 79.4381 30.6471 79.3626 30.5321 79.2462C30.417 79.1297 30.3432 78.9786 30.3219 78.8162C30.3007 78.6539 30.3331 78.4891 30.4144 78.3469C30.4956 78.2047 30.6211 78.093 30.7718 78.0289L30.7868 77.9988Z" fill="#191817"/>
<path d="M20.0093 79.2443L12.0968 78.4042C11.955 78.3875 11.8193 78.3363 11.7017 78.2553C11.5841 78.1743 11.488 78.0657 11.4218 77.9391C10.6193 76.3416 9.07432 73.1617 8.32432 71.5417C7.43182 69.6892 6.26182 67.0417 5.39182 65.1217C5.3327 64.9983 5.2988 64.8645 5.29212 64.7278C5.28544 64.5912 5.30611 64.4545 5.35291 64.3259C5.39971 64.1974 5.47171 64.0797 5.56468 63.9793C5.65765 63.879 5.76972 63.7981 5.89432 63.7416C6.07233 63.6595 6.27035 63.631 6.46433 63.6592L20.4518 65.6166C20.597 65.6384 20.7345 65.6958 20.8523 65.7834C20.97 65.8711 21.0643 65.9865 21.1268 66.1193L24.0443 72.5466L27.0443 78.9442L25.3343 79.3116C25.3343 66.0516 24.7043 47.3616 25.5068 34.3116C25.55 34.1528 25.6443 34.0125 25.7751 33.9125C25.9059 33.8125 26.0659 33.7583 26.2306 33.7583C26.3952 33.7583 26.5553 33.8125 26.6861 33.9125C26.8169 34.0125 26.9111 34.1528 26.9543 34.3116C27.4793 41.8116 27.3368 49.3116 27.3368 56.8116L27.1268 79.3116C27.123 79.5139 27.0512 79.7089 26.9229 79.8654C26.7946 80.0218 26.6174 80.1306 26.4198 80.1739C26.2222 80.2172 26.0157 80.1927 25.8338 80.1043C25.6518 80.0159 25.5049 79.8687 25.4168 79.6866L22.5218 73.2516L19.5218 66.8542L20.2118 67.3567L6.19433 65.7217L7.26682 64.2217L8.76682 67.4243C10.1468 70.3718 11.7668 74.0842 13.0418 77.1067L12.3443 76.5967L20.2118 77.7741C20.3625 77.8382 20.488 77.95 20.5693 78.0922C20.6505 78.2343 20.6829 78.3993 20.6617 78.5616C20.6404 78.724 20.5666 78.8749 20.4516 78.9914C20.3365 79.1079 20.1864 79.1835 20.0243 79.2067L20.0093 79.2443Z" fill="#191817"/>
</svg>
