<svg width="1005" height="565" viewBox="0 0 1005 565" fill="none" xmlns="http://www.w3.org/2000/svg">
<g clip-path="url(#clip0_66_16226)">
<path d="M908.279 125.336L899.443 131.99C898.622 132.608 896.602 132.173 893.458 130.484L881.269 123.949L880.568 125.498C879.788 127.109 878.972 128.192 878.146 128.809L869.121 135.605C869.121 135.605 869.085 135.631 869.064 135.647C868.954 135.731 868.823 135.83 868.713 135.877C868.677 135.903 868.64 135.935 868.619 135.945C868.504 136.029 868.368 136.076 868.248 136.107C868.206 136.139 868.19 136.149 868.143 136.16C868.017 136.191 867.881 136.238 867.761 136.238C867.745 136.249 867.709 136.249 867.677 136.243C867.541 136.259 867.411 136.275 867.28 136.254C865.533 136.107 863.994 133.79 863.252 129.861L861.285 121.47L859.365 113.251C859.276 112.822 859.025 112.487 858.632 112.278L851.287 108.145L843.743 103.902C840.495 102.265 838.726 100.382 838.685 98.7755C838.69 98.6238 838.679 98.4564 838.716 98.3099C838.768 98.0693 838.852 97.8339 839.004 97.5984C839.087 97.4467 839.213 97.295 839.344 97.1642C839.48 96.9968 839.689 96.8451 839.877 96.7039L848.902 89.9082C849.718 89.2961 850.989 88.8043 852.747 88.4957L854.426 88.255L851.523 74.7316C851.329 73.8528 851.224 73.089 851.135 72.3932C851.104 72.0374 851.062 71.7183 851.052 71.4306C851.031 71.1271 851.031 70.8656 851.036 70.5935C851.057 70.3424 851.073 70.1018 851.115 69.8873C851.146 69.1915 851.355 68.7677 851.674 68.5323L860.51 61.8779C862.054 60.7113 864.528 61.3914 866.955 64.6192L880.421 82.5056C880.589 82.7306 880.876 82.8352 881.154 82.7724L897.089 79.4975C900.4 78.8122 903.006 82.2807 901.436 85.2731L893.887 99.691C893.751 99.9369 893.777 100.24 893.945 100.465L907.421 118.373C909.859 121.616 909.833 124.174 908.268 125.325" fill="#60BBE3"/>
<path d="M810.947 163.651C815.216 160.439 815.514 153.612 811.612 148.433C807.714 143.254 801.075 141.653 796.807 144.875C792.538 148.088 792.239 154.915 796.142 160.094C800.04 165.273 806.678 166.874 810.947 163.656V163.651Z" fill="#60BBE3"/>
<path d="M861.269 121.47L809.906 159.021C807.207 161.056 803.016 160.036 800.547 156.751C798.083 153.471 798.287 149.17 800.971 147.151L851.24 108.15L858.585 112.283C858.972 112.487 859.223 112.817 859.317 113.251L861.237 121.47H861.274H861.269Z" fill="#FFFF00"/>
<path d="M778.664 159.272C774.599 162.328 774.322 168.794 778.036 173.727C781.756 178.666 788.054 180.167 792.098 177.122L810.942 163.662C806.673 166.874 800.034 165.278 796.142 160.099C792.245 154.92 792.543 148.098 796.807 144.881L778.664 159.272Z" fill="#FFFF00"/>
<path d="M799.218 154.261C798.323 151.551 798.92 148.7 800.976 147.162L851.245 108.161L855.535 110.562L799.202 154.245L799.218 154.261Z" fill="#60BBE3"/>
<path d="M775.509 167.575C775.106 164.289 776.184 161.14 778.664 159.272L796.806 144.881C794.269 146.79 793.134 149.981 793.448 153.335L775.509 167.575Z" fill="#60BBE3"/>
<path d="M899.464 131.995C898.643 132.613 896.623 132.179 893.479 130.489L881.29 123.955L876.937 121.627C876.676 121.47 876.325 121.59 876.2 121.893L871.528 132.33C870.163 135.171 868.625 136.39 867.259 136.28C865.512 136.134 863.974 133.816 863.236 129.882L861.269 121.491L859.349 113.272C859.245 112.859 858.983 112.524 858.617 112.299L851.272 108.166L843.723 103.929C840.474 102.291 838.706 100.408 838.669 98.7965C838.669 98.65 838.659 98.4826 838.701 98.3361C838.753 98.0955 838.837 97.8548 838.983 97.6299C839.072 97.4729 839.177 97.3369 839.328 97.1904C839.464 97.0282 839.637 96.8713 839.857 96.73L839.893 96.6987C840.709 96.118 841.97 95.6628 843.665 95.3437L854.986 93.7376C855.274 93.6958 855.499 93.4081 855.436 93.1046L854.405 88.276L851.502 74.7526C851.303 73.8789 851.199 73.1099 851.115 72.4194C851.083 72.0636 851.047 71.7393 851.036 71.4515C851.01 71.1481 851.015 70.8813 851.021 70.6197C851.042 70.3738 851.057 70.1227 851.099 69.9135C851.183 69.2072 851.392 68.7835 851.711 68.5481C852.627 67.8627 854.468 69.0712 856.864 72.2572L870.325 90.1436C870.492 90.3686 870.78 90.4732 871.052 90.4157L886.992 87.1355C890.304 86.4502 892.909 89.9187 891.34 92.9111L883.785 107.329C883.649 107.58 883.676 107.878 883.843 108.103L897.319 126.011C899.731 129.218 900.374 131.274 899.454 131.99" fill="#FFFF00"/>
<path d="M863.974 95.281L860.265 98.0746C860.416 97.9595 860.495 97.7555 860.458 97.5515L860.176 96.1285L857.508 82.8039C857.126 80.8159 857.774 80.523 858.993 82.15L862.614 86.9525L864.178 94.7369C864.214 94.9409 864.136 95.145 863.99 95.2548" fill="#60BBE3"/>
<path d="M887.348 122.474L875.321 116.233L874.018 115.548C873.83 115.453 873.61 115.474 873.464 115.584L877.173 112.791C877.325 112.676 877.539 112.66 877.728 112.754L884.774 116.406L888.389 121.213C889.613 122.83 889.132 123.4 887.348 122.464V122.474Z" fill="#60BBE3"/>
<path d="M867.882 126.147C867.239 127.355 866.496 127.25 866.197 125.927L862.787 110.688C862.698 110.259 862.42 109.887 862.033 109.683L848.437 102.254C847.244 101.6 847.369 100.842 848.688 100.575L852.674 99.738L865.769 106.895C866.156 107.099 866.422 107.454 866.527 107.899L869.786 122.553L867.892 126.167L867.877 126.152H867.887L867.882 126.147Z" fill="#60BBE3"/>
<path d="M149.882 466.193C144.953 471.184 132.822 467.218 122.824 457.362C112.827 447.506 108.778 435.521 113.711 430.525C118.644 425.529 130.698 429.426 140.685 439.267C150.671 449.112 154.815 461.192 149.882 466.188V466.193Z" fill="#60BBE3"/>
<path d="M84.3308 460.287C82.3376 462.306 81.8145 465.466 82.5626 469.175C83.6664 474.626 87.5063 481.26 93.4441 487.119C99.387 492.978 106.136 496.782 111.644 497.823C115.354 498.508 118.513 497.969 120.507 495.944L149.881 466.198C144.953 471.194 132.821 467.224 122.824 457.368C112.827 447.511 108.778 435.526 113.711 430.53L84.3256 460.292L84.3361 460.281H84.3308V460.287Z" fill="#FFFF00"/>
<path d="M82.5578 469.185C83.6617 474.637 87.5016 481.27 93.4393 487.129C99.3823 492.989 106.131 496.792 111.64 497.833L109.338 500.166C105.315 504.241 95.5162 501.087 87.4963 493.177C79.4712 485.262 76.2486 475.578 80.2717 471.503L82.563 469.185H82.5578Z" fill="#FFFF00"/>
<path d="M148.846 452.727C145.911 455.699 138.66 453.318 132.67 447.407C126.68 441.506 124.242 434.359 127.193 431.378C130.143 428.39 137.331 430.745 143.311 436.635C149.291 442.526 151.781 449.756 148.846 452.727Z" fill="#60BBE3"/>
<path d="M127.199 431.377C124.264 434.349 126.707 441.527 132.686 447.428C138.666 453.318 145.927 455.72 148.862 452.748L142.595 459.094C139.66 462.071 132.409 459.685 126.419 453.773C120.429 447.867 117.991 440.705 120.931 437.728L127.199 431.383V431.377Z" fill="#FFFF00"/>
<path d="M898.329 436.771L917.356 461.83L894.338 463.598L875.363 438.571L898.329 436.771Z" fill="#FFFF00"/>
<path d="M894.338 463.593L895.311 512.779L891.78 517.53L853.768 467.595L875.358 438.566L894.333 463.593H894.338Z" fill="#60BBE3"/>
<path d="M914.746 515.829L891.779 517.535L895.316 512.785L918.287 511.074L914.746 515.835V515.829Z" fill="#60BBE3"/>
<path d="M918.282 511.074L895.311 512.785L894.338 463.598L917.356 461.83L918.288 511.074H918.282Z" fill="#FFFF00"/>
<path d="M891.529 439.031C889.813 441.338 892.209 446.005 896.865 449.468C901.526 452.931 906.695 453.863 908.406 451.571C910.116 449.275 907.736 444.587 903.08 441.124C898.419 437.661 893.25 436.729 891.529 439.031Z" fill="#FFFF00"/>
<path d="M904.816 456.394C903.1 458.702 897.942 457.76 893.276 454.297C888.62 450.833 886.234 446.156 887.94 443.86L891.534 439.036C889.813 441.343 892.209 446.01 896.865 449.473C901.526 452.936 906.7 453.868 908.405 451.571L904.816 456.394Z" fill="#60BBE3"/>
<path d="M103.788 245.717C97.3896 243.421 90.1858 247.219 87.6956 254.156C85.2107 261.093 88.3705 268.589 94.7791 270.886C101.177 273.177 108.381 269.385 110.866 262.448C113.361 255.495 110.191 248.014 103.782 245.717H103.788Z" fill="#60BBE3"/>
<path d="M103.788 245.712L107.622 247.078C111.164 248.338 113.717 251.21 114.857 254.689C115.783 257.499 115.799 260.711 114.695 263.808C113.581 266.9 111.546 269.374 109.04 270.949C105.938 272.916 102.15 273.512 98.6032 272.251L94.7686 270.886C98.5143 272.231 102.543 271.493 105.723 269.238C107.983 267.663 109.825 265.325 110.861 262.437C111.896 259.549 111.959 256.573 111.216 253.936C110.175 250.18 107.533 247.051 103.782 245.712H103.788Z" fill="#FFFF00"/>
<path d="M114.858 254.705C118.478 256.494 120.178 261.02 118.661 265.236C117.144 269.453 112.969 271.87 109.035 270.965C111.536 269.39 113.592 266.926 114.69 263.818C115.805 260.727 115.794 257.504 114.853 254.7" fill="#60BBE3"/>
<path d="M83.2803 229.683L104.776 250.269L102.124 267.125L94.2403 266.371L90.3847 262.919L91.792 274.213C91.9437 275.338 90.9706 276.144 89.9976 276.039C89.9976 276.039 89.9714 276.029 89.9557 276.039L82.1399 275.281C81.826 275.26 81.5069 275.145 81.2191 274.893L60.2304 256.934L61.9725 266.936C62.1713 268.087 61.193 268.956 60.1729 268.846L52.3518 268.103C52.085 268.077 51.8077 267.977 51.5619 267.794L2.18191 232.152C0.0108429 230.572 -0.559389 226.9 0.554917 224.195C1.44427 222.045 2.50626 220.915 3.95538 221.114L11.7712 221.872C12.1793 221.904 12.5978 222.055 13.0582 222.286C14.5125 223.055 31.8601 232.613 42.6788 238.582L39.5085 220.716C39.3097 219.565 40.2828 218.712 41.282 218.796L41.3186 218.812L49.0455 219.539H49.1554C49.4797 219.565 49.8093 219.706 50.0918 219.968L74.1985 241.877L72.6238 230.311C72.4616 229.175 73.4399 228.359 74.413 228.464L74.4496 228.48L82.1765 229.212H82.2759C82.6212 229.243 82.956 229.39 83.2437 229.672" fill="#60BBE3"/>
<path d="M102.114 267.14L104.766 250.285L83.2854 229.704C82.1659 228.637 80.3297 229.568 80.5389 231.101L82.8826 248.391C82.9559 248.924 82.3176 249.275 81.9096 248.903L50.1283 219.999C48.9722 218.948 47.1411 219.963 47.4184 221.496L51.07 242.139C51.1537 242.615 50.6515 242.992 50.2068 242.751C44.2167 239.455 14.978 223.321 13.0633 222.317C10.9497 221.197 9.53724 222.28 8.42817 224.99C7.31909 227.695 7.87363 231.352 10.0499 232.926L59.4194 268.558C60.6017 269.416 62.2444 268.401 61.9881 266.952L59.5868 253.11C59.3985 252.032 60.6645 251.32 61.5015 252.021L89.1185 275.662C90.2485 276.635 91.9959 275.699 91.8023 274.224L89.8876 258.943C89.7516 257.87 91.0228 257.206 91.818 257.922L102.114 267.135V267.146H102.108L102.114 267.14Z" fill="#FFFF00"/>
<path d="M903.644 315.877C909.843 317.415 916.221 313.198 917.889 306.476C919.564 299.759 915.907 293.047 909.707 291.503C903.508 289.96 897.136 294.182 895.462 300.904C893.778 307.637 897.445 314.334 903.644 315.877Z" fill="#60BBE3"/>
<path d="M903.644 315.882L899.93 314.967C896.498 314.119 893.845 311.676 892.454 308.532C891.324 305.995 891.01 302.997 891.748 299.994C892.496 296.996 894.17 294.496 896.362 292.785C899.077 290.651 902.561 289.746 905.993 290.593L909.707 291.509C906.077 290.603 902.388 291.676 899.621 294.082C897.654 295.767 896.152 298.126 895.457 300.925C894.761 303.724 894.981 306.507 895.922 308.908C897.246 312.325 900.008 314.998 903.639 315.898" fill="#FFFF00"/>
<path d="M892.464 308.516C888.912 307.193 886.898 303.117 887.923 299.031C888.949 294.951 892.621 292.293 896.388 292.775C894.201 294.475 892.511 296.981 891.774 299.984C891.02 302.976 891.334 305.989 892.48 308.521" fill="#60BBE3"/>
<path d="M924.319 328.935L902.3 311.707L903.194 295.704L910.634 295.668L914.557 298.535L912.182 288.108C911.936 287.072 912.763 286.225 913.689 286.23C913.689 286.23 913.715 286.241 913.731 286.23L921.107 286.199C921.405 286.188 921.714 286.267 922.007 286.476L943.304 301.291L940.741 292.1C940.448 291.043 941.28 290.138 942.242 290.148L949.624 290.107C949.875 290.107 950.142 290.175 950.393 290.321L999.877 318.984C1002.06 320.261 1002.92 323.635 1002.14 326.267C1001.51 328.354 1000.63 329.515 999.255 329.463L991.878 329.494C991.497 329.505 991.094 329.405 990.644 329.228C989.21 328.642 972.103 321.344 961.436 316.787L966.082 333.188C966.375 334.245 965.543 335.134 964.601 335.15L964.56 335.134L957.267 335.176L957.162 335.186C956.854 335.186 956.54 335.097 956.247 334.878L931.664 316.662L934.217 327.323C934.468 328.364 933.636 329.222 932.716 329.217L932.674 329.201L925.381 329.243L925.292 329.259C924.968 329.259 924.638 329.16 924.34 328.919" fill="#60BBE3"/>
<path d="M903.204 295.694L902.31 311.697L924.313 328.919C925.459 329.808 927.091 328.773 926.751 327.36L922.943 311.42C922.827 310.923 923.387 310.541 923.806 310.849L956.215 334.878C957.392 335.757 959.014 334.637 958.606 333.23L953.254 314.276C953.133 313.837 953.568 313.439 954.002 313.622C959.913 316.144 988.749 328.469 990.633 329.233C992.72 330.08 993.934 328.929 994.713 326.298C995.493 323.667 994.635 320.298 992.453 319.037L942.974 290.373C941.786 289.683 940.353 290.787 940.724 292.116L944.266 304.833C944.543 305.827 943.424 306.612 942.582 306.026L914.556 286.523C913.411 285.717 911.867 286.764 912.187 288.119L915.409 302.228C915.639 303.217 914.509 303.954 913.699 303.358L903.209 295.715V295.699L903.204 295.694Z" fill="#FFFF00"/>
<path d="M172.702 65.3674L219.142 102.412L198.368 109.417L152.027 72.1893L172.702 65.3674Z" fill="#60BBE3"/>
<path d="M198.362 109.422L219.136 102.411L205.958 134.261L185.252 141.104L138.849 104.028L152.027 72.1892L198.367 109.422H198.362Z" fill="#FFFF00"/>
<path d="M198.362 109.422L185.247 141.104L138.844 104.028L152.022 72.1892L198.362 109.422Z" fill="#FFFF00"/>
<path d="M205.958 134.256L185.252 141.098L198.367 109.416L219.142 102.406L205.963 134.256H205.958Z" fill="#FFFF00"/>
<path d="M190.227 87.5385C189.155 90.1281 192.403 93.9157 197.483 96.0187C202.563 98.1165 207.538 97.7242 208.611 95.1346C209.678 92.545 206.429 88.7574 201.354 86.6544C196.275 84.5565 191.294 84.9489 190.227 87.5385Z" fill="#60BBE3"/>
<path d="M190.228 87.5437L188.14 92.5973C187.068 95.1869 190.316 98.9745 195.396 101.078C200.476 103.175 205.451 102.783 206.524 100.193L208.611 95.1398C207.539 97.7294 202.563 98.1218 197.484 96.0239C192.404 93.9261 189.16 90.1333 190.228 87.5437Z" fill="#FFFF00"/>
<path d="M166.906 68.9876C165.833 71.5772 169.082 75.3648 174.162 77.4679C179.242 79.5657 184.222 79.1733 185.289 76.5837C186.362 73.9942 183.097 70.2118 178.028 68.114C172.959 66.0214 167.968 66.4085 166.906 68.9876Z" fill="#60BBE3"/>
<path d="M164.812 74.0412C163.745 76.6307 166.989 80.4183 172.069 82.5214C177.148 84.6192 182.123 84.2269 183.196 81.6373L185.283 76.5837C184.211 79.1732 179.236 79.5656 174.156 77.4678C169.076 75.37 165.833 71.5771 166.9 68.9875L164.812 74.0412Z" fill="#FFFF00"/>
<path d="M618.879 127.46V127.648H618.774" fill="#60BBE3"/>
<path d="M512.324 248.757V229.432H510.907L517.09 193.104L514.265 170.677L516.651 128.213C513.428 115.323 502.882 106.241 485.157 106.241C473.162 106.241 463.243 112.063 457.865 120.648L454.485 108.145H441.799V120.47L437.399 108.584H376.17V127.041L396.677 152.205V156.405L369.306 123.646H323.102V145.325L291.697 140.596H277.619V214.051C277.619 214.051 328.202 229.421 328.202 229.432H304.755L303.29 236.128L274.726 229.432H220.821V236.002L181.418 229.432H161.203V334.898H213.351L220.821 333.522V334.898H274.726C274.726 334.898 282.39 333.083 282.49 333.083V334.898H296.139C296.139 334.898 230.782 351.425 230.782 351.43V424.88H244.713L284.321 402.913H284.425V441.62H329.123L337.928 433.438L333.622 453.13V456.792H353.251L372.199 434.527H382.474L386.649 456.792H406.277L423.855 424.89V456.792H444.069C444.069 456.792 487.13 327.982 487.47 326.957L490.928 334.898H498.665C498.665 334.898 497.535 351.325 497.525 351.325V456.792H517.446V394.098H519.79L531.069 424.859H545.424L547.888 418.911C547.888 418.911 560.506 456.724 560.512 456.792H580.433C580.433 455.468 580.433 454.145 580.433 452.821C580.433 449.619 580.433 446.413 580.433 443.211C580.433 439.282 580.433 435.353 580.433 431.424C580.433 427.924 580.433 424.419 580.433 420.92C580.433 419.69 580.433 418.461 580.433 417.226C580.433 416.562 580.334 415.808 580.433 415.154C580.449 415.06 580.433 414.945 580.433 414.851C580.747 415.317 596.74 442.426 596.776 442.489C596.813 442.552 596.97 442.813 597.007 442.876C597.043 442.939 597.085 443.007 597.122 443.07C597.158 443.132 597.2 443.2 597.237 443.263C597.273 443.326 597.315 443.394 597.352 443.457C597.388 443.52 597.43 443.588 597.467 443.65C597.503 443.713 597.545 443.781 597.582 443.844C597.619 443.907 597.66 443.975 597.697 444.037C597.734 444.1 597.77 444.168 597.812 444.231C597.849 444.294 597.891 444.362 597.927 444.425C597.964 444.487 598 444.555 598.042 444.618C598.079 444.681 598.121 444.749 598.157 444.812C598.194 444.874 598.236 444.943 598.272 445.005C603.949 454.432 613.507 459.125 626.57 459.125C645.44 459.125 657.001 449.337 660.098 429.619L672.921 441.61H700.166C716.18 441.61 725.758 431.613 727.882 418.231H727.924L738.685 424.869H776.227V412.016L752.763 401.019V393.653H771.639V380.799C771.356 380.805 753.041 373.946 752.763 373.983C752.774 373.538 752.763 373.093 752.763 372.649V367.449C752.763 367.265 752.763 364.268 752.763 364.268H776.227V351.414C776.117 351.414 693.506 330.661 693.506 330.661C695.395 329.201 697.106 327.511 698.607 325.607L740.668 334.888H760.883C760.883 334.888 760.883 332.68 760.883 332.45C760.919 332.45 773.334 334.888 773.334 334.888H793.255V330.2C793.255 330.237 821.965 334.888 821.965 334.888C822.509 334.877 823.064 334.888 823.608 334.888H843.347V229.421H823.425C823.425 229.421 796.666 233.905 796.656 233.884C796.598 233.753 794.715 229.421 794.715 229.421H773.328L760.877 231.906V229.421H740.663V229.484C740.36 229.463 699.465 238.67 699.465 238.67C694.307 231.802 686.533 227.993 675.714 227.229C675.714 227.229 709.457 216.473 711.796 215.725L717.147 214.041C717.147 214.041 717.147 161.49 717.158 161.49L731.429 153.444V140.591H688.788L680.878 146.717V123.641H663.551L639.214 147.831H639.193V123.641H621.866L614.187 133.926V129.521C611.989 119.414 603.786 108.574 586.062 108.574H551.786C551.786 108.574 551.786 108.783 551.775 108.783L551.786 108.574" fill="#60BBE3"/>
<path d="M533.936 170.938V171.143H533.878V171.352H533.862" fill="#60BBE3"/>
<path d="M516.53 193.821C516.536 193.784 516.541 193.753 516.546 193.716C516.551 193.68 516.557 193.643 516.562 193.612C516.567 193.575 516.572 193.538 516.577 193.502C516.661 193.036 516.734 192.56 516.802 192.079V176.698C516.347 172.639 515.06 169.379 512.895 166.528" fill="#60BBE3"/>
<path d="M514.223 152.325C514.223 152.325 514.218 152.304 514.213 152.294L514.276 152.273" fill="#60BBE3"/>
<path d="M515.651 136.929L515.704 136.908C515.704 136.908 515.693 136.861 515.683 136.834" fill="#60BBE3"/>
<path d="M277.446 140.575H291.524V201.171H313.763V214.025H277.446V140.57V140.575Z" fill="#FFFF00"/>
<path d="M369.17 130.562V139.471H340.292V159.811H363.52V175.631H340.292V198.231H369.17V214.051H322.966V123.651H369.17V124.028" fill="#FFFF00"/>
<path d="M396.551 127.041H376.044V108.584H437.273V127.041H416.766V214.051H396.551V127.041Z" fill="#FFFF00"/>
<path d="M441.662 108.145H454.348V110.457L448.515 127.125H441.662V108.14V108.145Z" fill="#FFFF00"/>
<path d="M452.45 191.122L471.639 184.53C473.544 193.758 478.524 197.42 484.969 197.42C490.242 197.42 495.076 194.491 496.981 188.778V181.893C495.955 177.499 493.319 175.595 487.752 172.665L470.907 163.73C460.653 158.31 455.233 151.279 453.915 141.318V130.185C456.405 116.416 468.856 105.723 485.116 105.723C502.84 105.723 513.386 114.805 516.609 127.695L497.713 134.873C495.955 127.109 491.268 124.18 485.262 124.18C480.135 124.18 476.18 126.816 474.715 131.797V137.07C475.448 142.05 478.963 145.273 483.358 147.47L496.248 154.062C509.139 160.653 515.73 165.78 516.902 176.18V191.561C514.851 206.795 502.986 215.877 485.555 215.877C466.952 215.877 455.819 206.063 452.45 191.122Z" fill="#FFFF00"/>
<path d="M551.665 108.584H585.942C603.666 108.584 611.869 119.424 614.066 129.531V153.701C611.722 163.808 603.666 174.794 585.942 174.794H571.879V214.051H551.665V108.584ZM594.438 147.695V135.684C593.266 130.703 589.604 127.041 582.426 127.041H571.879V156.337H582.426C589.604 156.337 593.266 152.675 594.438 147.695Z" fill="#FFFF00"/>
<path d="M621.762 185.932V123.656H639.088V190.201C640.218 196.353 644.989 200.245 651.267 200.245C657.545 200.245 662.316 196.353 663.446 190.201V123.656H680.773V185.932C680.773 204.012 670.101 216.065 651.267 216.065C632.434 216.065 621.762 204.012 621.762 185.932Z" fill="#FFFF00"/>
<path d="M702.954 153.465H688.672V140.612H731.314V153.465H717.032V214.062H702.954V153.465Z" fill="#FFFF00"/>
<path d="M161.077 229.432H181.292V316.442H213.225V334.898H161.077V229.432Z" fill="#FFFF00"/>
<path d="M220.695 229.432H274.601V247.888H240.91V271.618H268.009V290.075H240.91V316.442H274.601V334.898H220.695V229.432Z" fill="#FFFF00"/>
<path d="M282.358 331.236L304.624 229.432H332.748L355.013 331.236V334.898H335.385L331.21 312.633H306.162L301.987 334.898H282.358V331.236ZM327.731 294.176L319.858 252.283H317.514L309.641 294.176H327.731Z" fill="#FFFF00"/>
<path d="M364.828 229.432H401.595C417.561 229.432 427.083 238.367 428.841 251.99V271.179C427.559 277.99 422.981 284.326 415.511 288.464L431.038 331.236V334.898H411.409L396.468 292.858H385.043V334.898H364.828V229.432ZM409.212 267.663V255.212C408.04 250.232 405.111 247.888 400.423 247.888H385.043V274.987H400.423C405.111 274.987 408.04 272.644 409.212 267.663Z" fill="#FFFF00"/>
<path d="M442.17 229.432H463.556L489.923 290.075H492.267V229.432H512.188V334.898H490.802L464.435 274.401H462.091V334.898H442.17V229.432Z" fill="#FFFF00"/>
<path d="M524.639 229.432H544.853V334.898H524.639V229.432Z" fill="#FFFF00"/>
<path d="M557.305 229.432H578.691L605.058 290.075H607.401V229.432H627.323V334.898H605.937L579.57 274.401H577.226V334.898H557.305V229.432Z" fill="#FFFF00"/>
<path d="M637.827 307.914V256.646C640.61 237.457 653.501 227.057 671.518 227.057C689.535 227.057 700.375 234.674 704.916 249.908L685.141 256.353C682.944 249.468 678.842 245.513 671.518 245.513C665.073 245.513 659.36 249.468 658.042 257.525V307.621C659.36 314.36 664.194 318.754 671.518 318.754C678.256 318.754 683.676 314.36 685.287 307.621V290.923H675.766V273.345H704.916V313.481C699.935 328.422 689.682 337.211 671.518 337.211C653.354 337.211 640.903 327.836 637.827 307.914Z" fill="#FFFF00"/>
<path d="M740.684 229.432H760.898V334.898H740.684V229.432Z" fill="#FFFF00"/>
<path d="M773.349 229.432H794.735L821.102 290.075H823.445V229.432H843.367V334.898H821.98L795.614 274.401H793.27V334.898H773.349V229.432Z" fill="#FFFF00"/>
<path d="M230.656 351.425H254.528C266.874 351.425 272.587 358.974 274.114 366.015V382.85C272.482 389.892 266.869 397.54 254.528 397.54H244.734V424.88H230.656V351.425ZM260.444 378.665V370.3C259.628 366.831 257.075 364.284 252.079 364.284H244.734V384.686H252.079C257.08 384.686 259.628 382.133 260.444 378.67V378.665Z" fill="#FFFF00"/>
<path d="M284.425 351.231H301.751V425.811H329.123V441.631H284.425V351.231Z" fill="#FFFF00"/>
<path d="M333.622 453.13L355.887 351.325H384.012L406.277 453.13V456.792H386.648L382.474 434.527H357.425L353.251 456.792H333.622V453.13ZM378.995 416.07L371.121 374.176H368.778L360.904 416.07H378.995Z" fill="#FFFF00"/>
<path d="M423.855 414.025L398.074 354.993V351.331H419.168L432.79 388.097H435.134L448.757 351.331H469.85V354.993L444.069 414.025V456.797H423.855V414.025Z" fill="#FFFF00"/>
<path d="M497.535 351.346H519.8L537.818 400.564H540.161L558.178 351.346H580.444V456.813H560.522V394.119H558.178L545.435 424.88H531.079L519.8 394.119H517.457V456.813H497.535V351.346Z" fill="#FFFF00"/>
<path d="M593.035 429.688V378.712C596.111 358.937 607.683 349.123 626.579 349.123C645.476 349.123 657.048 358.937 660.124 378.712V429.688C657.048 449.463 645.476 459.277 626.579 459.277C607.683 459.277 596.111 449.463 593.035 429.688ZM639.909 428.662V379.591C639.03 371.534 633.464 367.579 626.579 367.579C619.695 367.579 614.129 371.534 613.25 379.591V428.662C614.129 436.719 619.695 440.82 626.579 440.82C633.464 440.82 639.03 436.719 639.909 428.662Z" fill="#FFFF00"/>
<path d="M672.941 351.231H700.187C716.76 351.231 726.303 361.527 728.06 374.836V417.148C726.303 431.085 716.635 441.631 700.187 441.631H672.941V351.231ZM710.734 416.52V376.217C708.976 369.688 704.33 367.051 698.304 367.051H690.268V425.811H698.304C704.33 425.811 708.976 423.175 710.734 416.52Z" fill="#FFFF00"/>
<path d="M738.695 351.435H776.236V364.289H752.773V380.815H771.648V393.669H752.773V412.031H776.236V424.885H738.695V351.43V351.435Z" fill="#FFFF00"/>
</g>
<defs>
<clipPath id="clip0_66_16226">
<rect width="1004.44" height="565" fill="white"/>
</clipPath>
</defs>
</svg>
