<svg width="1005" height="565" viewBox="0 0 1005 565" fill="none" xmlns="http://www.w3.org/2000/svg">
<g clip-path="url(#clip0_66_16226)">
<path d="M908.28 125.336L899.444 131.99C898.623 132.608 896.603 132.173 893.459 130.484L881.27 123.949L880.569 125.498C879.789 127.109 878.973 128.192 878.147 128.809L869.122 135.605C869.122 135.605 869.086 135.631 869.065 135.647C868.955 135.731 868.824 135.83 868.714 135.877C868.678 135.903 868.641 135.935 868.62 135.945C868.505 136.029 868.369 136.076 868.249 136.107C868.207 136.139 868.191 136.149 868.144 136.16C868.018 136.191 867.882 136.238 867.762 136.238C867.746 136.249 867.71 136.249 867.678 136.243C867.542 136.259 867.412 136.275 867.281 136.254C865.534 136.107 863.995 133.79 863.253 129.861L861.286 121.47L859.366 113.251C859.277 112.822 859.026 112.487 858.633 112.278L851.288 108.145L843.744 103.902C840.496 102.265 838.727 100.382 838.686 98.7755C838.691 98.6238 838.68 98.4564 838.717 98.3099C838.769 98.0693 838.853 97.8339 839.005 97.5984C839.088 97.4467 839.214 97.295 839.345 97.1642C839.481 96.9968 839.69 96.8451 839.878 96.7039L848.903 89.9082C849.719 89.2961 850.99 88.8043 852.748 88.4957L854.427 88.255L851.524 74.7316C851.33 73.8528 851.225 73.089 851.136 72.3932C851.105 72.0374 851.063 71.7183 851.053 71.4306C851.032 71.1271 851.032 70.8656 851.037 70.5935C851.058 70.3424 851.074 70.1018 851.116 69.8873C851.147 69.1915 851.356 68.7677 851.675 68.5323L860.511 61.8779C862.055 60.7113 864.529 61.3914 866.956 64.6192L880.422 82.5056C880.59 82.7306 880.877 82.8352 881.155 82.7724L897.09 79.4975C900.401 78.8122 903.007 82.2807 901.437 85.2731L893.888 99.691C893.752 99.9369 893.778 100.24 893.946 100.465L907.422 118.373C909.86 121.616 909.834 124.174 908.269 125.325" fill="#011C58"/>
<path d="M810.948 163.651C815.217 160.439 815.515 153.612 811.613 148.433C807.715 143.254 801.076 141.653 796.808 144.875C792.539 148.088 792.24 154.915 796.143 160.094C800.041 165.273 806.679 166.874 810.948 163.656V163.651Z" fill="#011C58"/>
<path d="M806.675 159.806C804.483 159.806 802.27 158.608 800.758 156.594C799.602 155.056 799.01 153.246 799.089 151.488C799.167 149.756 799.895 148.286 801.129 147.355L851.262 108.459L858.456 112.508C858.785 112.681 858.984 112.948 859.063 113.303L860.946 121.376L809.751 158.807C808.882 159.461 807.82 159.806 806.675 159.806Z" fill="#FFFF00"/>
<path d="M851.288 108.778L858.345 112.749C858.602 112.885 858.753 113.084 858.811 113.371L860.658 121.271L809.593 158.603C808.777 159.22 807.767 159.544 806.674 159.544C804.566 159.544 802.431 158.383 800.967 156.437C799.847 154.951 799.277 153.199 799.35 151.504C799.423 149.851 800.114 148.454 801.291 147.564L851.288 108.778ZM851.241 108.15L800.972 147.151C798.283 149.17 798.079 153.471 800.548 156.751C802.159 158.891 804.492 160.068 806.674 160.068C807.841 160.068 808.965 159.728 809.907 159.021L861.265 121.475H861.238L859.318 113.251C859.224 112.817 858.973 112.487 858.586 112.283L851.241 108.15Z" fill="#011C58"/>
<path d="M787.234 178.435C783.902 178.435 780.538 176.615 778.246 173.57C776.483 171.231 775.578 168.474 775.693 165.806C775.808 163.159 776.918 160.91 778.822 159.482L779.094 159.278L779.083 159.267L794.511 147.025C792.277 150.687 792.727 155.997 795.929 160.251C798.435 163.588 802.128 165.576 805.811 165.576C806.653 165.576 807.475 165.466 808.254 165.252L791.948 176.902C790.624 177.902 788.997 178.43 787.239 178.43L787.234 178.435Z" fill="#FFFF00"/>
<path d="M793.715 147.993C792.115 151.655 792.763 156.479 795.719 160.408C798.277 163.808 802.049 165.838 805.811 165.838C806.25 165.838 806.679 165.812 807.103 165.754L791.78 176.704C790.503 177.666 788.934 178.174 787.234 178.174C783.98 178.174 780.7 176.395 778.455 173.413C776.729 171.122 775.845 168.427 775.955 165.817C776.064 163.248 777.142 161.072 778.978 159.691L779.502 159.293L779.491 159.283L793.721 147.993M796.802 144.875C796.697 144.954 796.593 145.037 796.488 145.121L796.802 144.875ZM796.488 145.121L778.654 159.267C774.589 162.327 774.312 168.788 778.026 173.727C780.443 176.934 783.954 178.697 787.223 178.697C788.981 178.697 790.671 178.189 792.088 177.122L810.603 163.892C809.18 164.854 807.521 165.32 805.8 165.32C802.353 165.32 798.659 163.468 796.127 160.099C792.324 155.05 792.512 148.433 796.478 145.126L796.488 145.121ZM810.937 163.661L810.613 163.897C810.723 163.824 810.833 163.745 810.937 163.661Z" fill="#011C58"/>
<path d="M799.219 154.261C798.324 151.551 798.921 148.7 800.977 147.162L851.246 108.161L855.536 110.562L799.203 154.245L799.219 154.261Z" fill="#011C58"/>
<path d="M775.51 167.575C775.107 164.289 776.185 161.14 778.665 159.272L796.807 144.881C794.27 146.79 793.135 149.981 793.449 153.335L775.51 167.575Z" fill="#011C58"/>
<path d="M899.464 131.995C898.643 132.613 896.623 132.179 893.479 130.489L881.29 123.955L876.937 121.627C876.676 121.47 876.325 121.59 876.2 121.893L871.528 132.33C870.163 135.171 868.625 136.39 867.259 136.28C865.512 136.134 863.974 133.816 863.236 129.882L861.269 121.491L859.349 113.272C859.245 112.859 858.983 112.524 858.617 112.299L851.272 108.166L843.723 103.929C840.474 102.291 838.706 100.408 838.669 98.7965C838.669 98.65 838.659 98.4826 838.701 98.3361C838.753 98.0955 838.837 97.8548 838.983 97.6299C839.072 97.4729 839.177 97.3369 839.328 97.1904C839.464 97.0282 839.637 96.8713 839.857 96.73L839.893 96.6987C840.709 96.118 841.97 95.6628 843.665 95.3437L854.986 93.7376C855.274 93.6958 855.499 93.4081 855.436 93.1046L854.405 88.276L851.502 74.7526C851.303 73.8789 851.199 73.1099 851.115 72.4194C851.083 72.0636 851.047 71.7393 851.036 71.4515C851.01 71.1481 851.015 70.8813 851.021 70.6197C851.042 70.3738 851.057 70.1227 851.099 69.9135C851.183 69.2072 851.392 68.7835 851.711 68.5481C852.627 67.8627 854.468 69.0712 856.864 72.2572L870.325 90.1436C870.492 90.3686 870.78 90.4732 871.052 90.4157L886.992 87.1355C890.304 86.4502 892.909 89.9187 891.34 92.9111L883.785 107.329C883.649 107.58 883.676 107.878 883.843 108.103L897.319 126.011C899.731 129.218 900.374 131.274 899.454 131.99" fill="#FFFF00"/>
<path d="M899.464 131.995C898.643 132.613 896.623 132.179 893.479 130.489L881.29 123.955L876.937 121.627C876.676 121.47 876.325 121.59 876.2 121.893L871.528 132.33C870.163 135.171 868.625 136.39 867.259 136.28C865.512 136.134 863.974 133.816 863.236 129.882L861.269 121.491L859.349 113.272C859.245 112.859 858.983 112.524 858.617 112.299L851.272 108.166L843.723 103.929C840.474 102.291 838.706 100.408 838.669 98.7965C838.669 98.65 838.659 98.4826 838.701 98.3361C838.753 98.0955 838.837 97.8548 838.983 97.6299C839.072 97.4729 839.177 97.3369 839.328 97.1904C839.464 97.0282 839.637 96.8713 839.857 96.73L839.893 96.6987C840.709 96.118 841.97 95.6628 843.665 95.3437L854.986 93.7376C855.274 93.6958 855.499 93.4081 855.436 93.1046L854.405 88.276L851.502 74.7526C851.303 73.8789 851.199 73.1099 851.115 72.4194C851.083 72.0636 851.047 71.7393 851.036 71.4515C851.01 71.1481 851.015 70.8813 851.021 70.6197C851.042 70.3738 851.057 70.1227 851.099 69.9135C851.183 69.2072 851.392 68.7835 851.711 68.5481C852.627 67.8627 854.468 69.0712 856.864 72.2572L870.325 90.1436C870.492 90.3686 870.78 90.4732 871.052 90.4157L886.992 87.1355C890.304 86.4502 892.909 89.9187 891.34 92.9111L883.785 107.329C883.649 107.58 883.676 107.878 883.843 108.103L897.319 126.011C899.731 129.218 900.374 131.274 899.454 131.99" stroke="#011C58" stroke-miterlimit="10"/>
<path d="M863.974 95.281L860.265 98.0746C860.416 97.9595 860.495 97.7555 860.458 97.5515L860.176 96.1285L857.508 82.8039C857.126 80.8159 857.774 80.523 858.993 82.15L862.614 86.9525L864.178 94.7369C864.214 94.9409 864.136 95.145 863.99 95.2548" fill="#011C58"/>
<path d="M887.348 122.474L875.321 116.233L874.018 115.548C873.83 115.453 873.61 115.474 873.464 115.584L877.173 112.791C877.325 112.676 877.539 112.66 877.728 112.754L884.774 116.406L888.389 121.213C889.613 122.83 889.132 123.4 887.348 122.464V122.474Z" fill="#011C58"/>
<path d="M867.882 126.147C867.239 127.355 866.496 127.25 866.197 125.927L862.787 110.688C862.698 110.259 862.42 109.887 862.033 109.683L848.437 102.254C847.244 101.6 847.369 100.842 848.688 100.575L852.674 99.738L865.769 106.895C866.156 107.099 866.422 107.454 866.527 107.899L869.786 122.553L867.892 126.167L867.877 126.152H867.887L867.882 126.147Z" fill="#011C58"/>
<path d="M149.882 466.193C144.953 471.184 132.822 467.218 122.824 457.362C112.827 447.506 108.778 435.521 113.711 430.525C118.644 425.529 130.698 429.426 140.685 439.267C150.671 449.112 154.815 461.192 149.882 466.188V466.193Z" fill="#011C58"/>
<path d="M114.537 497.843C113.648 497.843 112.69 497.749 111.691 497.566C106.046 496.494 99.2926 492.523 93.6269 486.931C87.9926 481.375 83.9486 474.715 82.8186 469.117C82.0601 465.361 82.646 462.369 84.5084 460.47L112.036 432.596C111.001 435.066 111.121 438.377 112.418 442.212C114.15 447.313 117.775 452.764 122.635 457.556C129.557 464.378 137.707 468.62 143.912 468.62C145.403 468.62 146.711 468.375 147.835 467.893L120.318 495.767C118.958 497.148 117.012 497.849 114.532 497.849L114.537 497.843Z" fill="#FFFF00"/>
<path d="M111.43 433.596C110.797 435.971 111.038 438.942 112.178 442.301C113.92 447.443 117.572 452.926 122.458 457.744C129.426 464.613 137.65 468.882 143.917 468.882C144.985 468.882 145.973 468.751 146.873 468.5L120.135 495.578C118.822 496.907 116.939 497.582 114.537 497.582C113.664 497.582 112.722 497.488 111.744 497.31C106.146 496.248 99.4446 492.298 93.8155 486.747C88.2178 481.228 84.2 474.621 83.0753 469.07C82.3376 465.403 82.8974 462.494 84.697 460.658L111.425 433.59M113.711 430.535L84.3256 460.297L84.3361 460.287H84.3308C82.3376 462.306 81.8145 465.466 82.5626 469.175C83.6664 474.626 87.5063 481.26 93.4441 487.119C99.387 492.978 106.136 496.781 111.644 497.822C112.654 498.011 113.622 498.105 114.537 498.105C116.986 498.105 119.057 497.42 120.507 495.944L149.881 466.198C148.432 467.663 146.366 468.359 143.917 468.359C138.016 468.359 129.887 464.336 122.824 457.373C112.827 447.517 108.778 435.531 113.711 430.535Z" fill="#011C58"/>
<path d="M104.426 501.683C99.5346 501.683 93.1208 498.351 87.6853 492.989C83.8349 489.191 80.968 484.869 79.6183 480.815C78.2895 476.823 78.5877 473.58 80.4606 471.686L82.4067 469.719C83.6989 475.379 87.6277 481.762 93.2568 487.312C98.8388 492.816 105.472 496.776 111.112 497.99L109.15 499.978C108.036 501.108 106.445 501.683 104.421 501.683H104.426Z" fill="#FFFF00"/>
<path d="M82.2596 470.237C83.6669 475.829 87.5591 482.065 93.0731 487.501C98.5348 492.889 105.011 496.808 110.599 498.142L108.966 499.795C107.899 500.872 106.372 501.422 104.425 501.422C99.602 501.422 93.2562 498.121 87.8678 492.805C84.0436 489.039 81.2029 484.749 79.8688 480.736C78.5714 476.844 78.8487 473.695 80.6483 471.874L82.2648 470.242M82.5578 469.185C82.5578 469.185 82.5578 469.191 82.5578 469.196L82.5526 469.185H82.5578ZM82.5578 469.196L80.2717 471.508C76.2486 475.583 79.4712 485.267 87.4963 493.182C93.1359 498.743 99.6543 501.95 104.425 501.95C106.44 501.95 108.145 501.38 109.338 500.166L111.64 497.833C106.136 496.792 99.3823 492.989 93.4393 487.129C87.5016 481.275 83.6669 474.642 82.5578 469.191V469.196Z" fill="#011C58"/>
<path d="M148.846 452.727C145.911 455.699 138.66 453.318 132.67 447.407C126.68 441.506 124.242 434.359 127.193 431.378C130.143 428.39 137.331 430.745 143.311 436.635C149.291 442.526 151.781 449.756 148.846 452.727Z" fill="#011C58"/>
<path d="M127.199 431.377C124.264 434.349 126.707 441.527 132.686 447.428C138.666 453.318 145.927 455.72 148.862 452.748L142.595 459.094C139.66 462.071 132.409 459.685 126.419 453.773C120.429 447.867 117.991 440.705 120.931 437.728L127.199 431.383V431.377Z" fill="#FFFF00"/>
<path d="M875.86 438.791L898.209 437.038L916.859 461.605L894.464 463.326L875.86 438.791Z" fill="#FFFF00"/>
<path d="M898.084 437.31L916.357 461.38L894.584 463.049L876.357 439.01L898.084 437.305M898.329 436.771L875.363 438.571L894.338 463.598L917.356 461.83L898.329 436.771Z" fill="#011C58"/>
<path d="M894.338 463.593L895.311 512.779L891.78 517.53L853.768 467.595L875.358 438.566L894.333 463.593H894.338Z" fill="#011C58"/>
<path d="M914.746 515.829L891.779 517.535L895.316 512.785L918.287 511.074L914.746 515.835V515.829Z" fill="#011C58"/>
<path d="M894.604 463.839L917.1 462.113L918.015 510.828L895.567 512.502L894.604 463.839Z" fill="#FFFF00"/>
<path d="M916.844 462.395L917.754 510.588L895.829 512.225L894.877 464.085L916.849 462.4M917.356 461.83L894.338 463.598L895.311 512.785L918.282 511.074L917.351 461.835L917.356 461.83Z" fill="#011C58"/>
<path d="M905.282 452.565C902.897 452.565 899.805 451.33 897.022 449.259C892.486 445.884 890.122 441.37 891.738 439.188C892.303 438.43 893.318 438.032 894.662 438.032C897.048 438.032 900.135 439.267 902.918 441.333C907.453 444.707 909.818 449.227 908.191 451.414C907.631 452.167 906.622 452.565 905.277 452.565H905.282Z" fill="#FFFF00"/>
<path d="M894.662 438.288C896.995 438.288 900.024 439.502 902.76 441.542C907.102 444.77 909.493 449.222 907.981 451.257C907.338 452.12 906.155 452.303 905.276 452.303C902.943 452.303 899.914 451.084 897.173 449.049C892.831 445.822 890.435 441.375 891.941 439.345C892.59 438.471 893.778 438.294 894.657 438.294M894.662 437.765C893.276 437.765 892.161 438.173 891.523 439.031C889.807 441.338 892.203 446.005 896.859 449.468C899.794 451.649 902.928 452.827 905.276 452.827C906.658 452.827 907.767 452.419 908.4 451.571C910.11 449.274 907.73 444.587 903.074 441.124C900.144 438.942 897.011 437.77 894.662 437.77V437.765Z" fill="#011C58"/>
<path d="M904.816 456.394C903.1 458.702 897.942 457.76 893.276 454.297C888.62 450.833 886.234 446.156 887.94 443.86L891.534 439.036C889.813 441.343 892.209 446.01 896.865 449.473C901.526 452.936 906.7 453.868 908.405 451.571L904.816 456.394Z" fill="#011C58"/>
<path d="M103.788 245.717C97.3896 243.421 90.1858 247.219 87.6956 254.156C85.2107 261.093 88.3705 268.589 94.7791 270.886C101.177 273.177 108.381 269.385 110.866 262.448C113.361 255.495 110.191 248.014 103.782 245.717H103.788Z" fill="#011C58"/>
<path d="M102.459 272.659C101.177 272.659 99.9111 272.44 98.7026 272.011L98.1533 271.817C98.3155 271.822 98.4777 271.828 98.6399 271.828C101.198 271.828 103.704 271.006 105.891 269.458C108.292 267.784 110.102 265.388 111.122 262.531C112.148 259.67 112.273 256.677 111.483 253.868C110.709 251.069 109.129 248.736 106.979 247.13L107.544 247.334C110.876 248.521 113.455 251.237 114.617 254.784C115.553 257.635 115.496 260.81 114.46 263.735C113.403 266.664 111.436 269.154 108.914 270.745C106.932 272.006 104.703 272.67 102.464 272.67L102.459 272.659Z" fill="#FFFF00"/>
<path d="M108.302 247.92C111.143 249.212 113.329 251.697 114.365 254.857C115.286 257.65 115.229 260.768 114.208 263.635C113.173 266.513 111.242 268.956 108.768 270.515C106.827 271.744 104.645 272.398 102.458 272.398C101.522 272.398 100.591 272.278 99.6858 272.042C101.93 271.849 104.106 271.038 106.032 269.672C108.475 267.967 110.321 265.529 111.362 262.62C112.404 259.712 112.534 256.662 111.729 253.8C111.085 251.482 109.903 249.474 108.302 247.925M103.787 245.712C107.543 247.051 110.18 250.175 111.221 253.936C111.964 256.573 111.901 259.549 110.865 262.437C109.83 265.325 107.988 267.663 105.728 269.238C103.62 270.729 101.145 271.561 98.629 271.561C97.3578 271.561 96.0761 271.352 94.8257 270.907L98.6081 272.257C99.8741 272.707 101.172 272.921 102.453 272.921C104.771 272.921 107.052 272.225 109.045 270.959C111.546 269.385 113.586 266.91 114.7 263.818C115.804 260.721 115.783 257.509 114.862 254.7C113.722 251.221 111.169 248.349 107.627 247.088L103.793 245.723L103.787 245.712ZM94.7734 270.891C94.7734 270.891 94.8101 270.902 94.8257 270.912L94.7734 270.891Z" fill="#011C58"/>
<path d="M114.858 254.705C118.478 256.494 120.178 261.02 118.661 265.236C117.144 269.453 112.969 271.87 109.035 270.965C111.536 269.39 113.592 266.926 114.69 263.818C115.805 260.727 115.794 257.504 114.853 254.7" fill="#011C58"/>
<path d="M83.2803 229.683L104.776 250.269L102.124 267.125L94.2403 266.371L90.3847 262.919L91.792 274.213C91.9437 275.338 90.9706 276.144 89.9976 276.039C89.9976 276.039 89.9714 276.029 89.9557 276.039L82.1399 275.281C81.826 275.26 81.5069 275.145 81.2191 274.893L60.2304 256.934L61.9725 266.936C62.1713 268.087 61.193 268.956 60.1729 268.846L52.3518 268.103C52.085 268.077 51.8077 267.977 51.5619 267.794L2.18191 232.152C0.0108429 230.572 -0.559389 226.9 0.554917 224.195C1.44427 222.045 2.50626 220.915 3.95538 221.114L11.7712 221.872C12.1793 221.904 12.5978 222.055 13.0582 222.286C14.5125 223.055 31.8601 232.613 42.6788 238.582L39.5085 220.716C39.3097 219.565 40.2828 218.712 41.282 218.796L41.3186 218.812L49.0455 219.539H49.1554C49.4797 219.565 49.8093 219.706 50.0918 219.968L74.1985 241.877L72.6238 230.311C72.4616 229.175 73.4399 228.359 74.413 228.464L74.4496 228.48L82.1765 229.212H82.2759C82.6212 229.243 82.956 229.39 83.2437 229.672" fill="#011C58"/>
<path d="M90.1699 275.793C89.8456 275.793 89.5422 275.678 89.291 275.458L61.6741 251.817C61.4073 251.592 61.0881 251.472 60.7533 251.472C60.3296 251.472 59.911 251.665 59.6338 251.995C59.3617 252.314 59.2571 252.727 59.3304 253.151L61.7316 266.994C61.8048 267.402 61.7002 267.794 61.4439 268.103C61.1771 268.417 60.7795 268.605 60.3767 268.605C60.0942 268.605 59.8169 268.511 59.5762 268.338L10.2067 232.707C8.22401 231.278 7.53869 227.857 8.67392 225.084C9.49526 223.075 10.4055 222.139 11.5355 222.139C11.9593 222.139 12.4354 222.275 12.9428 222.542C14.4442 223.327 32.6446 233.36 43.5156 239.351L50.0811 242.971C50.2119 243.044 50.3479 243.075 50.4944 243.075C50.7455 243.075 50.9809 242.965 51.1483 242.772C51.3105 242.584 51.3733 242.332 51.3314 242.087L47.6746 221.443C47.6014 221.035 47.7008 220.643 47.9519 220.334C48.2187 220.015 48.6215 219.827 49.0348 219.827C49.3696 219.827 49.6887 219.952 49.9503 220.193L81.7316 249.097C81.8937 249.243 82.0873 249.317 82.2966 249.317C82.5424 249.317 82.7778 249.207 82.94 249.024C83.1022 248.84 83.1702 248.6 83.1388 248.354L80.7951 231.064C80.7376 230.661 80.8474 230.279 81.1038 229.986C81.3653 229.683 81.7629 229.505 82.1605 229.505C82.511 229.505 82.8354 229.641 83.1022 229.892L104.483 250.379L101.93 266.612L91.9957 257.724C91.7289 257.483 91.4046 257.357 91.0541 257.357C90.646 257.357 90.2379 257.54 89.9659 257.854C89.6939 258.163 89.5788 258.561 89.6311 258.974L91.5458 274.255C91.5981 274.647 91.4883 275.024 91.2319 275.317C90.9651 275.62 90.5728 275.798 90.1699 275.798V275.793Z" fill="#FFFF00"/>
<path d="M49.0346 220.088C49.3066 220.088 49.5577 220.193 49.7722 220.381L81.5535 249.285C81.7575 249.474 82.0243 249.573 82.2911 249.573C82.6155 249.573 82.9189 249.432 83.1334 249.186C83.3479 248.945 83.4368 248.631 83.395 248.307L81.0512 231.017C80.9937 230.598 81.1559 230.316 81.2971 230.148C81.5116 229.903 81.8307 229.756 82.1551 229.756C82.3487 229.756 82.6416 229.808 82.9137 230.07L104.201 250.462L101.742 266.089L92.1629 257.52C91.849 257.237 91.4619 257.085 91.0486 257.085C90.5568 257.085 90.086 257.3 89.7617 257.671C89.4425 258.038 89.3013 258.503 89.3641 258.995L91.2788 274.281C91.3311 274.689 91.1689 274.967 91.0277 275.134C90.8132 275.38 90.4888 275.526 90.1645 275.526C89.9081 275.526 89.6623 275.432 89.453 275.254L61.8308 251.608C61.5169 251.346 61.1402 251.205 60.7426 251.205C60.2404 251.205 59.7487 251.435 59.4243 251.822C59.1052 252.204 58.9744 252.691 59.0633 253.188L61.4646 267.03C61.5378 267.454 61.3809 267.752 61.2344 267.925C61.0199 268.181 60.6956 268.333 60.366 268.333C60.1358 268.333 59.9161 268.26 59.7225 268.119L10.353 232.487C8.49583 231.148 7.83666 227.8 8.90912 225.173C9.67291 223.3 10.5309 222.39 11.5301 222.39C11.912 222.39 12.3462 222.516 12.817 222.767C14.3185 223.552 32.5502 233.601 43.4421 239.607C46.3404 241.208 48.6736 242.49 49.9553 243.196C50.1227 243.285 50.3006 243.332 50.4889 243.332C50.8185 243.332 51.1272 243.185 51.3417 242.934C51.5509 242.683 51.6399 242.354 51.5823 242.034L47.9255 221.386C47.847 220.962 48.004 220.669 48.1505 220.491C48.3649 220.23 48.6945 220.078 49.0293 220.078M49.0346 219.565C48.0929 219.565 47.214 220.397 47.4181 221.49L51.0696 242.134C51.1324 242.51 50.8342 242.819 50.4889 242.819C50.3948 242.819 50.3006 242.798 50.2064 242.746C44.2164 239.45 14.9776 223.316 13.0629 222.312C12.5084 222.019 12.0009 221.877 11.5353 221.877C10.2274 221.877 9.24916 222.992 8.43305 224.985C7.32398 227.69 7.87851 231.346 10.0548 232.921L59.4243 268.553C59.7277 268.773 60.0573 268.867 60.3764 268.867C61.3181 268.867 62.1813 268.03 61.993 266.947L59.5917 253.104C59.4557 252.325 60.0835 251.734 60.7531 251.734C61.0094 251.734 61.2762 251.817 61.5064 252.016L89.1234 275.657C89.4425 275.934 89.814 276.055 90.1749 276.055C91.0905 276.055 91.9484 275.275 91.8072 274.218L89.8925 258.937C89.7931 258.174 90.4104 257.619 91.0591 257.619C91.3259 257.619 91.5927 257.713 91.8229 257.917L102.118 267.125L104.771 250.279L83.2903 229.699C82.9555 229.379 82.5579 229.238 82.1708 229.238C81.2553 229.238 80.3973 230.018 80.5438 231.09L82.8875 248.38C82.9398 248.762 82.6312 249.05 82.3016 249.05C82.1708 249.05 82.0295 249.003 81.9144 248.898L50.1332 219.994C49.8036 219.696 49.4165 219.565 49.045 219.565H49.0346Z" fill="#011C58"/>
<path d="M903.644 315.877C909.843 317.415 916.221 313.198 917.889 306.476C919.564 299.759 915.907 293.047 909.707 291.503C903.508 289.96 897.136 294.182 895.462 300.904C893.778 307.637 897.445 314.334 903.644 315.877Z" fill="#011C58"/>
<path d="M903.644 315.882L899.93 314.967C896.498 314.119 893.845 311.676 892.454 308.532C891.324 305.995 891.01 302.997 891.748 299.994C892.496 296.996 894.17 294.496 896.362 292.785C899.077 290.651 902.561 289.746 905.993 290.593L909.707 291.509C906.077 290.603 902.388 291.676 899.621 294.082C897.654 295.767 896.152 298.126 895.457 300.925C894.761 303.724 894.981 306.507 895.922 308.908C897.246 312.325 900.008 314.998 903.639 315.898" fill="#FFFF00"/>
<path d="M903.644 315.882L899.93 314.967C896.498 314.119 893.845 311.676 892.454 308.532C891.324 305.995 891.01 302.997 891.748 299.994C892.496 296.996 894.17 294.496 896.362 292.785C899.077 290.651 902.561 289.746 905.993 290.593L909.707 291.509C906.077 290.603 902.388 291.676 899.621 294.082C897.654 295.767 896.152 298.126 895.457 300.925C894.761 303.724 894.981 306.507 895.922 308.908C897.246 312.325 900.008 314.998 903.639 315.898" stroke="#011C58" stroke-miterlimit="10"/>
<path d="M892.464 308.516C888.912 307.193 886.898 303.117 887.923 299.031C888.949 294.951 892.621 292.293 896.388 292.775C894.201 294.475 892.511 296.981 891.774 299.984C891.02 302.976 891.334 305.989 892.48 308.521" fill="#011C58"/>
<path d="M924.319 328.935L902.3 311.707L903.194 295.704L910.634 295.668L914.557 298.535L912.182 288.108C911.936 287.072 912.763 286.225 913.689 286.23C913.689 286.23 913.715 286.241 913.731 286.23L921.107 286.199C921.405 286.188 921.714 286.267 922.007 286.476L943.304 301.291L940.741 292.1C940.448 291.043 941.28 290.138 942.242 290.148L949.624 290.107C949.875 290.107 950.142 290.175 950.393 290.321L999.877 318.984C1002.06 320.261 1002.92 323.635 1002.14 326.267C1001.51 328.354 1000.63 329.515 999.255 329.463L991.878 329.494C991.497 329.505 991.094 329.405 990.644 329.228C989.21 328.642 972.103 321.344 961.436 316.787L966.082 333.188C966.375 334.245 965.543 335.134 964.601 335.15L964.56 335.134L957.267 335.176L957.162 335.186C956.854 335.186 956.54 335.097 956.247 334.878L931.664 316.662L934.217 327.323C934.468 328.364 933.636 329.222 932.716 329.217L932.674 329.201L925.381 329.243L925.292 329.259C924.968 329.259 924.638 329.16 924.34 328.919" fill="#011C58"/>
<path d="M957.125 334.92C956.858 334.92 956.597 334.831 956.372 334.663L923.958 310.635C923.811 310.53 923.644 310.473 923.476 310.473C923.23 310.473 922.995 310.588 922.838 310.781C922.681 310.975 922.629 311.226 922.681 311.472L926.49 327.418C926.584 327.805 926.505 328.187 926.265 328.485C926.019 328.799 925.637 328.987 925.245 328.987C924.967 328.987 924.695 328.893 924.465 328.71L902.571 311.571L903.429 296.207L913.526 303.567C913.761 303.74 914.033 303.829 914.316 303.829C914.729 303.829 915.132 303.63 915.394 303.306C915.65 302.981 915.739 302.573 915.645 302.165L912.422 288.061C912.333 287.679 912.417 287.303 912.652 286.999C912.898 286.685 913.28 286.502 913.667 286.502C913.918 286.502 914.169 286.581 914.384 286.738L942.414 306.241C942.65 306.403 942.916 306.486 943.189 306.486C943.612 306.486 944.026 306.282 944.282 305.937C944.538 305.602 944.617 305.173 944.502 304.76L940.96 292.042C940.85 291.645 940.923 291.252 941.164 290.933C941.41 290.609 941.792 290.421 942.184 290.421C942.404 290.421 942.618 290.478 942.822 290.598L992.302 319.262C994.284 320.407 995.242 323.531 994.441 326.225C993.829 328.286 993.008 329.249 991.857 329.249C991.512 329.249 991.125 329.16 990.711 328.992C989.252 328.401 971.48 320.81 960.866 316.28L954.091 313.387C953.986 313.345 953.876 313.319 953.767 313.319C953.515 313.319 953.275 313.439 953.123 313.643C952.971 313.847 952.919 314.103 952.987 314.349L958.339 333.303C958.454 333.695 958.386 334.088 958.145 334.402C957.899 334.731 957.512 334.925 957.109 334.925L957.125 334.92Z" fill="#FFFF00"/>
<path d="M913.683 286.758C913.887 286.758 914.075 286.821 914.253 286.947L942.283 306.45C942.561 306.643 942.88 306.743 943.204 306.743C943.711 306.743 944.198 306.497 944.507 306.089C944.81 305.686 944.904 305.173 944.768 304.682L941.227 291.964C941.138 291.65 941.195 291.336 941.389 291.085C941.588 290.829 941.891 290.672 942.205 290.672C942.377 290.672 942.55 290.719 942.712 290.813L992.192 319.476C994.044 320.549 994.97 323.599 994.211 326.136C993.458 328.678 992.516 328.971 991.878 328.971C991.569 328.971 991.213 328.893 990.826 328.736C989.351 328.14 971.376 320.46 960.635 315.877C957.774 314.653 955.467 313.669 954.211 313.13C954.075 313.073 953.929 313.041 953.787 313.041C953.458 313.041 953.139 313.198 952.935 313.465C952.731 313.732 952.663 314.077 952.757 314.402L958.109 333.361C958.198 333.669 958.145 333.978 957.957 334.229C957.763 334.491 957.444 334.647 957.13 334.647C956.916 334.647 956.717 334.579 956.529 334.438L924.114 310.41C923.926 310.269 923.706 310.196 923.476 310.196C923.152 310.196 922.838 310.347 922.634 310.604C922.43 310.86 922.357 311.195 922.43 311.524L926.238 327.465C926.333 327.857 926.197 328.14 926.066 328.307C925.867 328.558 925.563 328.705 925.25 328.705C925.03 328.705 924.821 328.631 924.632 328.485L902.843 311.43L903.67 296.683L913.379 303.756C913.662 303.96 913.986 304.069 914.326 304.069C914.818 304.069 915.299 303.834 915.608 303.447C915.911 303.065 916.021 302.568 915.911 302.087L912.689 287.977C912.616 287.674 912.684 287.376 912.872 287.14C913.071 286.889 913.374 286.743 913.683 286.743M913.683 286.235C912.767 286.235 911.941 287.083 912.181 288.113L915.404 302.223C915.577 302.966 914.98 303.567 914.332 303.567C914.117 303.567 913.897 303.499 913.693 303.353L903.204 295.71L902.31 311.692L924.313 328.914C924.606 329.144 924.936 329.243 925.255 329.243C926.17 329.243 927.007 328.401 926.751 327.355L922.943 311.414C922.859 311.038 923.152 310.734 923.481 310.734C923.591 310.734 923.706 310.771 923.811 310.844L956.22 334.872C956.508 335.087 956.827 335.181 957.13 335.181C958.072 335.181 958.919 334.287 958.611 333.225L953.259 314.271C953.16 313.91 953.442 313.57 953.787 313.57C953.861 313.57 953.934 313.586 954.007 313.617C959.919 316.138 988.755 328.464 990.638 329.228C991.093 329.411 991.506 329.505 991.883 329.505C993.233 329.505 994.106 328.354 994.718 326.293C995.498 323.661 994.64 320.292 992.458 319.032L942.979 290.368C942.728 290.222 942.461 290.154 942.21 290.154C941.263 290.154 940.442 291.059 940.73 292.105L944.271 304.823C944.481 305.581 943.884 306.22 943.209 306.22C943 306.22 942.786 306.157 942.587 306.021L914.562 286.518C914.284 286.324 913.986 286.235 913.693 286.235H913.683Z" fill="#011C58"/>
<path d="M172.701 65.3674L219.141 102.412L198.367 109.417L152.026 72.1893L172.701 65.3674Z" fill="#011C58"/>
<path d="M139.163 103.944L152.132 72.613L198.31 109.715L218.676 102.846L205.76 134.052L185.305 140.811L139.163 103.944Z" fill="#FFFF00"/>
<path d="M152.241 73.0367L198.038 109.83L198.263 110.008L198.535 109.913L218.215 103.275L205.566 133.837L185.357 140.518L139.482 103.866L152.241 73.0367ZM152.027 72.1892L138.849 104.028L185.252 141.104L205.958 134.261L219.136 102.411L198.362 109.422L152.022 72.1892H152.027Z" fill="#011C58"/>
<path d="M139.163 103.944L152.132 72.613L198.049 109.505L185.143 140.685L139.163 103.944Z" fill="#FFFF00"/>
<path d="M152.241 73.0367L197.729 109.584L185.032 140.261L139.482 103.866L152.241 73.0367ZM152.027 72.1892L138.849 104.028L185.252 141.104L198.367 109.422L152.027 72.1892Z" fill="#011C58"/>
<path d="M198.561 109.631L218.676 102.841L205.76 134.046L185.713 140.675L198.561 109.631Z" fill="#FFFF00"/>
<path d="M218.216 103.275L205.566 133.837L186.173 140.246L198.76 109.84L218.216 103.275ZM219.137 102.412L198.362 109.422L185.247 141.104L205.953 134.261L219.131 102.412H219.137Z" fill="#011C58"/>
<path d="M190.227 87.5385C189.155 90.1281 192.403 93.9157 197.483 96.0187C202.563 98.1165 207.538 97.7242 208.611 95.1346C209.678 92.545 206.429 88.7574 201.354 86.6544C196.275 84.5565 191.294 84.9489 190.227 87.5385Z" fill="#011C58"/>
<path d="M190.227 87.5437L188.139 92.5973C187.067 95.1869 190.316 98.9745 195.395 101.078C200.475 103.175 205.45 102.783 206.523 100.193L208.61 95.1398C207.538 97.7294 202.562 98.1218 197.483 96.0239C192.403 93.9261 189.159 90.1333 190.227 87.5437Z" fill="#FFFF00"/>
<path d="M166.905 68.9876C165.832 71.5772 169.081 75.3648 174.161 77.4679C179.241 79.5657 184.221 79.1733 185.288 76.5837C186.361 73.9942 183.096 70.2118 178.027 68.114C172.958 66.0214 167.967 66.4085 166.905 68.9876Z" fill="#011C58"/>
<path d="M164.812 74.0412C163.745 76.6307 166.989 80.4183 172.069 82.5214C177.148 84.6192 182.123 84.2269 183.196 81.6373L185.283 76.5837C184.211 79.1732 179.236 79.5656 174.156 77.4678C169.076 75.37 165.833 71.5771 166.9 68.9875L164.812 74.0412Z" fill="#FFFF00"/>
<path d="M618.879 127.46V127.648H618.774" fill="#011C58"/>
<path d="M512.324 248.757V229.432H510.907L517.09 193.104L514.265 170.677L516.651 128.213C513.428 115.323 502.882 106.241 485.157 106.241C473.162 106.241 463.243 112.063 457.865 120.648L454.485 108.145H441.799V120.47L437.399 108.584H376.17V127.041L396.677 152.205V156.405L369.306 123.646H323.102V145.325L291.697 140.596H277.619V214.051C277.619 214.051 328.202 229.421 328.202 229.432H304.755L303.29 236.128L274.726 229.432H220.821V236.002L181.418 229.432H161.203V334.898H213.351L220.821 333.522V334.898H274.726C274.726 334.898 282.39 333.083 282.49 333.083V334.898H296.139C296.139 334.898 230.782 351.425 230.782 351.43V424.88H244.713L284.321 402.913H284.425V441.62H329.123L337.928 433.438L333.622 453.13V456.792H353.251L372.199 434.527H382.474L386.649 456.792H406.277L423.855 424.89V456.792H444.069C444.069 456.792 487.13 327.982 487.47 326.957L490.928 334.898H498.665C498.665 334.898 497.535 351.325 497.525 351.325V456.792H517.446V394.098H519.79L531.069 424.859H545.424L547.888 418.911C547.888 418.911 560.506 456.724 560.512 456.792H580.433C580.433 455.468 580.433 454.145 580.433 452.821C580.433 449.619 580.433 446.413 580.433 443.211C580.433 439.282 580.433 435.353 580.433 431.424C580.433 427.924 580.433 424.419 580.433 420.92C580.433 419.69 580.433 418.461 580.433 417.226C580.433 416.562 580.334 415.808 580.433 415.154C580.449 415.06 580.433 414.945 580.433 414.851C580.747 415.317 596.74 442.426 596.776 442.489C596.813 442.552 596.97 442.813 597.007 442.876C597.043 442.939 597.085 443.007 597.122 443.07C597.158 443.132 597.2 443.2 597.237 443.263C597.273 443.326 597.315 443.394 597.352 443.457C597.388 443.52 597.43 443.588 597.467 443.65C597.503 443.713 597.545 443.781 597.582 443.844C597.619 443.907 597.66 443.975 597.697 444.037C597.734 444.1 597.77 444.168 597.812 444.231C597.849 444.294 597.891 444.362 597.927 444.425C597.964 444.487 598 444.555 598.042 444.618C598.079 444.681 598.121 444.749 598.157 444.812C598.194 444.874 598.236 444.943 598.272 445.005C603.949 454.432 613.507 459.125 626.57 459.125C645.44 459.125 657.001 449.337 660.098 429.619L672.921 441.61H700.166C716.18 441.61 725.758 431.613 727.882 418.231H727.924L738.685 424.869H776.227V412.016L752.763 401.019V393.653H771.639V380.799C771.356 380.805 753.041 373.946 752.763 373.983C752.774 373.538 752.763 373.093 752.763 372.649V367.449C752.763 367.265 752.763 364.268 752.763 364.268H776.227V351.414C776.117 351.414 693.506 330.661 693.506 330.661C695.395 329.201 697.106 327.511 698.607 325.607L740.668 334.888H760.883C760.883 334.888 760.883 332.68 760.883 332.45C760.919 332.45 773.334 334.888 773.334 334.888H793.255V330.2C793.255 330.237 821.965 334.888 821.965 334.888C822.509 334.877 823.064 334.888 823.608 334.888H843.347V229.421H823.425C823.425 229.421 796.666 233.905 796.656 233.884C796.598 233.753 794.715 229.421 794.715 229.421H773.328L760.877 231.906V229.421H740.663V229.484C740.36 229.463 699.465 238.67 699.465 238.67C694.307 231.802 686.533 227.993 675.714 227.229C675.714 227.229 709.457 216.473 711.796 215.725L717.147 214.041C717.147 214.041 717.147 161.49 717.158 161.49L731.429 153.444V140.591H688.788L680.878 146.717V123.641H663.551L639.214 147.831H639.193V123.641H621.866L614.187 133.926V129.521C611.989 119.414 603.786 108.574 586.062 108.574H551.786C551.786 108.574 551.786 108.783 551.775 108.783L551.786 108.574" fill="#011C58"/>
<path d="M533.936 170.938V171.143H533.878V171.352H533.862" fill="#011C58"/>
<path d="M516.53 193.821C516.536 193.784 516.541 193.753 516.546 193.716C516.551 193.68 516.557 193.643 516.562 193.612C516.567 193.575 516.572 193.538 516.577 193.502C516.661 193.036 516.734 192.56 516.802 192.079V176.698C516.347 172.639 515.06 169.379 512.895 166.528" fill="#011C58"/>
<path d="M514.223 152.325C514.223 152.325 514.218 152.304 514.213 152.294L514.276 152.273" fill="#011C58"/>
<path d="M515.651 136.929L515.704 136.908C515.704 136.908 515.693 136.861 515.683 136.834" fill="#011C58"/>
<path d="M277.708 213.763V140.836H291.263V201.433H313.507V213.763H277.708Z" fill="#FFFF00"/>
<path d="M291.001 141.098V201.694H313.24V213.502H277.969V141.093H291.001M291.524 140.575H277.446V214.03H313.763V201.176H291.524V140.58V140.575Z" fill="#011C58"/>
<path d="M369.17 130.562V139.471H340.292V159.811H363.52V175.631H340.292V198.231H369.17V214.051H322.966V123.651H369.17V124.028" fill="#FFFF00"/>
<path d="M369.17 130.562V139.471H340.292V159.811H363.52V175.631H340.292V198.231H369.17V214.051H322.966V123.651H369.17V124.028" stroke="#011C58" stroke-miterlimit="10"/>
<path d="M396.813 213.789V126.779H376.306V108.846H437.012V126.779H416.504V213.789H396.813Z" fill="#FFFF00"/>
<path d="M436.75 109.108V126.518H416.243V213.528H397.075V126.518H376.567V109.108H436.75ZM437.273 108.584H376.044V127.041H396.551V214.051H416.766V127.041H437.273V108.584Z" fill="#011C58"/>
<path d="M441.924 126.863V108.406H454.087V110.415L448.327 126.863H441.924Z" fill="#FFFF00"/>
<path d="M453.825 108.668V110.368L448.144 126.602H442.185V108.663H453.825M454.348 108.145H441.662V127.13H448.515L454.348 110.463V108.15V108.145Z" fill="#011C58"/>
<path d="M485.555 215.615C468.024 215.615 456.389 206.978 452.759 191.294L471.446 184.875C473.282 193.376 477.828 197.682 484.969 197.682C490.718 197.682 495.416 194.302 497.226 188.862L497.242 188.82V181.836C496.211 177.447 493.638 175.469 487.872 172.435L471.027 163.499C460.82 158.106 455.463 151.043 454.171 141.287V130.191C456.75 115.961 469.473 105.99 485.11 105.99C500.747 105.99 512.764 113.842 516.29 127.538L497.891 134.527C496.206 127.491 491.953 123.923 485.252 123.923C479.847 123.923 475.913 126.769 474.454 131.729L474.443 131.765V137.075C475.108 141.621 477.98 145.085 483.232 147.711L496.123 154.302C509.097 160.936 515.474 165.906 516.635 176.217V191.566C514.605 206.617 502.986 215.621 485.55 215.621L485.555 215.615Z" fill="#FFFF00"/>
<path d="M485.116 106.246C501.202 106.246 512.424 113.936 515.987 127.371L498.084 134.172C496.321 127.193 492.011 123.656 485.262 123.656C479.732 123.656 475.709 126.57 474.213 131.65L474.192 131.723V137.148C474.862 141.679 477.865 145.315 483.117 147.936L496.008 154.527C508.882 161.114 515.217 166.042 516.379 176.212V191.53C514.354 206.45 502.835 215.359 485.555 215.359C476.651 215.359 469.269 213.115 463.614 208.694C458.357 204.582 454.81 198.791 453.068 191.467L471.252 185.22C473.141 193.549 477.875 197.949 484.969 197.949C490.834 197.949 495.626 194.501 497.478 188.951L497.504 188.872V181.841L497.488 181.783C496.442 177.295 493.831 175.281 487.998 172.21L471.153 163.274C461.04 157.928 455.725 150.944 454.438 141.292V130.243C455.652 123.599 459.288 117.551 464.681 113.209C470.326 108.663 477.394 106.257 485.116 106.257M485.116 105.723C468.856 105.723 456.405 116.416 453.915 130.185V141.318C455.233 151.279 460.653 158.31 470.907 163.73L487.752 172.665C493.319 175.595 495.955 177.499 496.981 181.893V188.778C495.076 194.491 490.242 197.42 484.969 197.42C478.524 197.42 473.544 193.758 471.639 184.53L452.45 191.122C455.819 206.063 466.952 215.877 485.555 215.877C502.986 215.877 514.851 206.795 516.902 191.561V176.18C515.73 165.78 509.139 160.653 496.248 154.062L483.358 147.47C478.963 145.273 475.448 142.05 474.715 137.07V131.797C476.18 126.816 480.135 124.18 485.262 124.18C491.268 124.18 495.955 127.109 497.713 134.873L516.609 127.695C513.386 114.805 502.84 105.723 485.116 105.723Z" fill="#011C58"/>
<path d="M551.927 213.789V108.846H585.942C607.579 108.846 612.732 124.661 613.805 129.557V153.669C612.879 157.64 610.708 163.311 605.597 167.841C600.59 172.283 593.977 174.532 585.942 174.532H571.618V213.789H551.927ZM571.618 156.599H582.426C588.992 156.599 593.35 153.46 594.694 147.752V147.721L594.699 135.647V135.615C593.35 129.913 588.992 126.774 582.426 126.774H571.618V156.594V156.599Z" fill="#FFFF00"/>
<path d="M585.942 109.108C593.935 109.108 600.511 111.31 605.481 115.663C610.592 120.136 612.685 125.697 613.543 129.589V153.643C612.622 157.577 610.467 163.175 605.424 167.648C600.464 172.042 593.909 174.271 585.942 174.271H571.356V213.528H552.188V109.108H585.942ZM571.356 156.861H582.426C589.128 156.861 593.574 153.648 594.945 147.815L594.961 147.758V135.626L594.945 135.568C593.574 129.735 589.128 126.523 582.426 126.523H571.356V156.866M585.942 108.584H551.665V214.051H571.879V174.794H585.942C603.666 174.794 611.722 163.808 614.066 153.701V129.531C611.869 119.424 603.666 108.584 585.942 108.584ZM571.879 156.337V127.041H582.426C589.604 127.041 593.266 130.703 594.438 135.684V147.695C593.266 152.675 589.604 156.337 582.426 156.337H571.879Z" fill="#011C58"/>
<path d="M651.267 215.804C633.229 215.804 622.023 204.357 622.023 185.932V123.918H638.827V190.201C639.978 196.479 644.859 200.507 651.267 200.507C657.676 200.507 662.557 196.479 663.703 190.248V123.918H680.511V185.932C680.511 204.357 669.306 215.804 651.267 215.804Z" fill="#FFFF00"/>
<path d="M680.25 124.174V185.927C680.25 194.799 677.639 202.228 672.706 207.412C667.642 212.728 660.229 215.537 651.267 215.537C642.306 215.537 634.893 212.728 629.829 207.412C624.89 202.228 622.285 194.799 622.285 185.927V124.174H638.565V190.243L638.576 190.29C639.742 196.651 644.728 200.763 651.267 200.763C657.807 200.763 662.792 196.651 663.959 190.29L663.969 190.243V124.174H680.25ZM680.773 123.651H663.446V190.196C662.316 196.348 657.545 200.24 651.267 200.24C644.989 200.24 640.218 196.348 639.088 190.196V123.651H621.762V185.927C621.762 204.007 632.434 216.06 651.267 216.06C670.101 216.06 680.773 204.007 680.773 185.927V123.651Z" fill="#011C58"/>
<path d="M703.216 213.8V153.204H688.934V140.873H731.052V153.204H716.77V213.8H703.216Z" fill="#FFFF00"/>
<path d="M730.791 141.135V152.942H716.509V213.538H703.477V152.942H689.195V141.135H730.791ZM731.314 140.612H688.672V153.465H702.954V214.062H717.032V153.465H731.314V140.612Z" fill="#011C58"/>
<path d="M161.339 334.637V229.693H181.03V316.703H212.963V334.637H161.339Z" fill="#FFFF00"/>
<path d="M180.768 229.955V316.965H212.701V334.375H161.6V229.955H180.768ZM181.292 229.432H161.077V334.898H213.225V316.442H181.292V229.432Z" fill="#011C58"/>
<path d="M220.957 334.637V229.693H274.339V247.627H240.648V271.88H267.747V289.813H240.648V316.703H274.339V334.637H220.957Z" fill="#FFFF00"/>
<path d="M274.077 229.955V247.365H240.387V272.141H267.486V289.552H240.387V316.965H274.077V334.375H221.218V229.955H274.077ZM274.601 229.432H220.695V334.898H274.601V316.442H240.91V290.075H268.009V271.618H240.91V247.888H274.601V229.432Z" fill="#011C58"/>
<path d="M335.604 334.637L331.43 312.371H305.947L301.772 334.637H282.625V331.262L304.838 229.693H332.544L354.757 331.262V334.637H335.609H335.604ZM309.327 294.438H328.05L320.077 252.021H317.299L309.327 294.438Z" fill="#FFFF00"/>
<path d="M332.33 229.955L354.49 331.294V334.375H335.819L331.723 312.539L331.644 312.11H305.727L305.649 312.539L301.553 334.375H282.882V331.294L305.042 229.955H332.324M309.013 294.7H328.364L328.249 294.082L320.376 252.189L320.297 251.76H317.085L317.007 252.189L309.133 294.082L309.018 294.7M332.748 229.432H304.624L282.358 331.236V334.898H301.987L306.162 312.633H331.21L335.385 334.898H355.013V331.236L332.748 229.432ZM309.641 294.176L317.514 252.283H319.858L327.731 294.176H309.641Z" fill="#011C58"/>
<path d="M411.597 334.637L396.656 292.596H384.786V334.637H365.095V229.693H401.6C409.332 229.693 415.652 231.749 420.381 235.798C424.875 239.649 427.716 245.257 428.584 252.021V271.179C427.26 278.178 422.573 284.252 415.385 288.233L415.191 288.343L430.781 331.283V334.637H411.597ZM384.781 275.249H400.423C405.314 275.249 408.275 272.785 409.468 267.721V267.689L409.473 255.176V255.144C408.275 250.08 405.314 247.616 400.423 247.616H384.781V275.238V275.249Z" fill="#FFFF00"/>
<path d="M401.595 229.955C409.259 229.955 415.521 231.99 420.203 235.997C424.64 239.8 427.444 245.341 428.317 252.021V271.127C426.994 278.079 422.359 284.069 415.26 288.003L414.867 288.218L415.019 288.636L430.515 331.32V334.365H411.781L396.965 292.675L396.84 292.325H384.519V334.365H365.351V229.944H401.595M384.519 275.511H400.423C405.388 275.511 408.516 272.91 409.719 267.784L409.735 267.726V255.155L409.719 255.097C408.511 249.97 405.383 247.37 400.423 247.37H384.519V275.516M401.595 229.432H364.828V334.898H385.043V292.858H396.468L411.409 334.898H431.038V331.236L415.511 288.464C422.981 284.326 427.559 277.99 428.841 271.179V251.99C427.083 238.367 417.561 229.432 401.595 229.432ZM385.043 274.987V247.888H400.423C405.111 247.888 408.04 250.232 409.212 255.212V267.663C408.04 272.644 405.111 274.987 400.423 274.987H385.043Z" fill="#011C58"/>
<path d="M490.975 334.637L464.608 274.14H461.83V334.637H442.432V229.693H463.384L489.75 290.336H492.528V229.693H511.927V334.637H490.975Z" fill="#FFFF00"/>
<path d="M511.665 229.955V334.375H491.147L464.916 274.192L464.78 273.878H461.568V334.375H442.693V229.955H463.211L489.442 290.284L489.578 290.598H492.79V229.955H511.665ZM512.188 229.432H492.267V290.075H489.923L463.556 229.432H442.17V334.898H462.091V274.401H464.435L490.802 334.898H512.188V229.432Z" fill="#011C58"/>
<path d="M544.592 229.693H524.9V334.637H544.592V229.693Z" fill="#FFFF00"/>
<path d="M544.33 229.955V334.375H525.162V229.955H544.33ZM544.853 229.432H524.639V334.898H544.853V229.432Z" fill="#011C58"/>
<path d="M606.104 334.637L579.737 274.14H576.965V334.637H557.566V229.693H578.518L604.885 290.336H607.663V229.693H627.061V334.637H606.104Z" fill="#FFFF00"/>
<path d="M626.8 229.955V334.375H606.282L580.051 274.192L579.915 273.878H576.708V334.375H557.833V229.955H578.351L604.582 290.284L604.718 290.598H607.93V229.955H626.805M627.323 229.432H607.401V290.075H605.058L578.691 229.432H557.305V334.898H577.226V274.401H579.57L605.937 334.898H627.323V229.432Z" fill="#011C58"/>
<path d="M671.518 336.949C652.314 336.949 641.066 327.166 638.084 307.872V256.646C639.423 247.454 643.242 239.905 649.128 234.851C654.872 229.923 662.609 227.318 671.513 227.318C689.426 227.318 699.941 234.443 704.587 249.74L685.303 256.023C682.913 248.778 678.403 245.252 671.513 245.252C665.842 245.252 659.256 248.464 657.781 257.483V307.621C659.172 314.773 664.304 319.016 671.513 319.016C678.722 319.016 683.891 314.569 685.539 307.684V307.653L685.544 290.661H676.023V273.606H704.649V313.439C699.36 329.259 688.521 336.949 671.513 336.949H671.518Z" fill="#FFFF00"/>
<path d="M671.518 227.58C680.574 227.58 687.631 229.416 693.082 233.198C698.319 236.829 701.981 242.186 704.267 249.568L685.476 255.694C683.027 248.49 678.455 244.99 671.518 244.99C664.142 244.99 658.784 249.761 657.524 257.441V257.483L657.518 257.525V307.674L657.529 307.726C658.947 314.961 664.173 319.282 671.518 319.282C678.863 319.282 684.121 314.757 685.795 307.747L685.81 307.689V290.405H676.289V273.873H704.393V313.402C699.14 329.076 688.384 336.693 671.518 336.693C652.475 336.693 641.317 326.999 638.35 307.878V256.688C639.705 247.412 643.388 240.135 649.3 235.056C654.992 230.169 662.677 227.585 671.518 227.585M671.518 227.057C653.501 227.057 640.61 237.457 637.827 256.646V307.914C640.903 327.836 652.768 337.211 671.518 337.211C690.268 337.211 699.935 328.422 704.916 313.481V273.345H675.766V290.923H685.287V307.621C683.676 314.36 678.256 318.754 671.518 318.754C664.194 318.754 659.36 314.36 658.042 307.621V257.525C659.36 249.468 665.073 245.513 671.518 245.513C678.842 245.513 682.944 249.468 685.141 256.353L704.916 249.908C700.375 234.674 689.828 227.057 671.518 227.057Z" fill="#011C58"/>
<path d="M760.637 229.693H740.945V334.637H760.637V229.693Z" fill="#FFFF00"/>
<path d="M760.375 229.955V334.375H741.207V229.955H760.375ZM760.898 229.432H740.684V334.898H760.898V229.432Z" fill="#011C58"/>
<path d="M822.153 334.637L795.787 274.14H793.009V334.637H773.61V229.693H794.562L820.929 290.336H823.707V229.693H843.105V334.637H822.153Z" fill="#FFFF00"/>
<path d="M842.844 229.955V334.375H822.326L796.095 274.192L795.959 273.878H792.752V334.375H773.877V229.955H794.395L820.626 290.284L820.762 290.598H823.974V229.955H842.849M843.367 229.432H823.445V290.075H821.102L794.735 229.432H773.349V334.898H793.27V274.401H795.614L821.98 334.898H843.367V229.432Z" fill="#011C58"/>
<path d="M230.918 424.618V351.686H254.528C269.526 351.686 273.105 362.636 273.853 366.041V382.819C273.052 386.25 269.307 397.278 254.528 397.278H244.473V424.618H230.918ZM244.473 384.943H252.079C256.693 384.943 259.754 382.735 260.701 378.722V378.691L260.706 370.263V370.232C259.754 366.219 256.693 364.011 252.079 364.011H244.473V384.937V384.943Z" fill="#FFFF00"/>
<path d="M254.528 351.948C269.291 351.948 272.843 362.683 273.591 366.067V382.782C272.953 385.497 271.462 389.358 267.988 392.434C264.567 395.468 260.036 397.006 254.522 397.006H244.206V424.346H231.174V351.937H254.522M244.211 385.204H252.079C256.829 385.204 259.979 382.923 260.952 378.78L260.967 378.722V370.237L260.952 370.179C259.979 366.036 256.824 363.755 252.079 363.755H244.211V385.204ZM254.528 351.425H230.656V424.88H244.734V397.54H254.528C266.874 397.54 272.482 389.886 274.114 382.85V366.015C272.587 358.974 266.869 351.425 254.528 351.425ZM244.734 384.681V364.278H252.079C257.08 364.278 259.628 366.831 260.444 370.295V378.66C259.628 382.128 257.075 384.676 252.079 384.676H244.734V384.681Z" fill="#011C58"/>
<path d="M284.687 441.37V351.493H301.49V426.073H328.861V441.37H284.687Z" fill="#FFFF00"/>
<path d="M301.228 351.754V426.334H328.599V441.108H284.948V351.754H301.228ZM301.751 351.231H284.425V441.631H329.123V425.811H301.751V351.231Z" fill="#011C58"/>
<path d="M386.868 456.53L382.694 434.265H357.211L353.036 456.53H333.884V453.156L356.097 351.587H383.803L406.015 453.156V456.53H386.868ZM360.591 416.331H379.314L371.341 373.915H368.563L360.591 416.331Z" fill="#FFFF00"/>
<path d="M383.593 351.848L405.754 453.187V456.269H387.083L382.986 434.432L382.908 434.004H356.991L356.913 434.432L352.816 456.269H334.145V453.187L356.311 351.848H383.593ZM360.276 416.593H379.628L379.513 415.976L371.639 374.082L371.561 373.653H368.349L368.27 374.082L360.397 415.976L360.282 416.593M384.012 351.325H355.887L333.622 453.13V456.792H353.251L357.425 434.527H382.474L386.648 456.792H406.277V453.13L384.012 351.325ZM360.904 416.07L368.778 374.176H371.121L378.995 416.07H360.904Z" fill="#011C58"/>
<path d="M424.117 456.536V413.972L398.336 354.94V351.592H418.985L432.607 388.359H435.317L448.94 351.592H469.589V354.94L443.808 413.972V456.536H424.117Z" fill="#FFFF00"/>
<path d="M469.327 351.854V354.883L443.588 413.815L443.546 413.915V456.274H424.378V413.915L424.336 413.815L398.597 354.883V351.854H418.801L432.299 388.281L432.424 388.621H435.495L435.621 388.281L449.118 351.854H469.322M469.85 351.331H448.757L435.134 388.097H432.79L419.168 351.331H398.074V354.993L423.855 414.025V456.797H444.069V414.025L469.85 354.993V351.331Z" fill="#011C58"/>
<path d="M560.784 456.551V393.857H558.001L545.262 424.618H531.263L519.984 393.857H517.195V456.551H497.797V351.608H519.617L537.635 400.825H540.345L558.362 351.608H580.182V456.551H560.784Z" fill="#FFFF00"/>
<path d="M579.921 351.869V456.29H561.045V393.596H557.828L557.692 393.92L545.084 424.357H531.446L520.292 393.941L520.167 393.596H516.933V456.29H498.058V351.869H519.434L537.326 400.742L537.451 401.087H540.527L540.653 400.742L558.545 351.869H579.921ZM580.444 351.346H558.178L540.161 400.564H537.818L519.8 351.346H497.535V456.813H517.457V394.119H519.8L531.079 424.88H545.435L558.178 394.119H560.522V456.813H580.444V351.346Z" fill="#011C58"/>
<path d="M626.58 459.015C607.527 459.015 596.326 449.133 593.292 429.646V378.712C596.321 359.267 607.522 349.384 626.58 349.384C645.638 349.384 656.834 359.267 659.863 378.754V429.688C656.834 449.133 645.633 459.015 626.58 459.015ZM626.58 367.318C618.905 367.318 613.826 371.895 612.989 379.565V428.662C613.82 436.332 619.031 441.082 626.58 441.082C634.129 441.082 639.334 436.332 640.171 428.688V379.591C639.334 371.895 634.255 367.318 626.58 367.318Z" fill="#FFFF00"/>
<path d="M626.579 349.646C645.476 349.646 656.582 359.439 659.601 378.754V429.646C656.582 448.96 645.476 458.754 626.579 458.754C607.683 458.754 596.577 448.96 593.558 429.646V378.754C596.577 359.439 607.683 349.646 626.579 349.646ZM626.579 441.343C634.275 441.343 639.58 436.504 640.427 428.72V428.694V428.667V379.539C639.585 371.843 634.28 367.062 626.574 367.062C618.868 367.062 613.564 371.843 612.726 379.539V379.565V379.591V428.72C613.579 436.504 618.884 441.343 626.579 441.343ZM626.579 349.123C607.683 349.123 596.111 358.937 593.035 378.712V429.688C596.111 449.463 607.683 459.277 626.579 459.277C645.476 459.277 657.048 449.463 660.124 429.688V378.712C657.048 358.937 645.476 349.123 626.579 349.123ZM626.579 440.82C619.695 440.82 614.129 436.719 613.25 428.662V379.591C614.129 371.534 619.695 367.579 626.579 367.579C633.464 367.579 639.03 371.534 639.909 379.591V428.662C639.03 436.719 633.464 440.82 626.579 440.82Z" fill="#011C58"/>
<path d="M673.203 441.37V351.493H700.187C715.317 351.493 725.895 360.449 727.804 374.872V417.153C725.916 432.084 715.338 441.375 700.187 441.375H673.203V441.37ZM690.007 426.073H698.304C705.058 426.073 709.327 422.881 710.985 416.588L710.995 416.557V376.185L710.985 376.154C709.337 370.033 704.953 366.795 698.304 366.795H690.007V426.078V426.073Z" fill="#FFFF00"/>
<path d="M700.187 351.754C707.888 351.754 714.511 354.061 719.329 358.43C723.807 362.489 726.648 368.171 727.537 374.872V417.116C726.648 424.101 723.791 430.017 719.277 434.234C714.458 438.733 707.856 441.108 700.187 441.108H673.465V351.754H700.187ZM689.745 426.334H698.304C705.094 426.334 709.567 422.986 711.241 416.651L711.257 416.583V376.144L711.241 376.076C709.557 369.824 705.084 366.523 698.304 366.523H689.745V426.329M700.187 351.231H672.941V441.631H700.187C716.635 441.631 726.303 431.085 728.06 417.148V374.836C726.303 361.527 716.76 351.231 700.187 351.231ZM690.268 425.811V367.051H698.304C704.33 367.051 708.976 369.688 710.734 376.217V416.52C708.976 423.175 704.33 425.811 698.304 425.811H690.268Z" fill="#011C58"/>
<path d="M738.957 424.629V351.697H775.975V364.032H752.512V381.082H771.382V393.412H752.512V412.298H775.975V424.629H738.957Z" fill="#FFFF00"/>
<path d="M775.713 351.958V363.766H752.25V381.338H771.125V393.146H752.25V412.554H775.713V424.362H739.218V351.953H775.713M776.236 351.435H738.695V424.89H776.236V412.037H752.773V393.674H771.648V380.82H752.773V364.294H776.236V351.44V351.435Z" fill="#011C58"/>
</g>
<defs>
<clipPath id="clip0_66_16226">
<rect width="1004.44" height="565" fill="white"/>
</clipPath>
</defs>
</svg>
