<svg width="222" height="37" viewBox="0 0 222 37" fill="none" xmlns="http://www.w3.org/2000/svg">
<g clip-path="url(#clip0_66_16503)">
<path d="M72.4526 14.9822H74.6744V17.9553C74.6744 19.9385 76.1371 21.4339 78.0767 21.4339C80.0163 21.4339 81.479 19.9383 81.479 17.9553V14.9822H83.7008V23.2156H81.479V22.2601C80.6721 23.0931 79.4342 23.5794 78.0767 23.5794C75.0622 23.5794 72.5744 21.1693 72.458 18.1747L72.4526 14.9822Z" fill="#030504"/>
<path d="M143.048 17.1363C143.048 13.5836 140.157 10.6934 136.605 10.6934C133.052 10.6934 130.162 13.5836 130.162 17.1363H132.384C132.384 14.7264 134.238 12.8389 136.605 12.8389C139.011 12.8389 140.826 14.6863 140.826 17.1363H143.048Z" fill="#030504"/>
<path d="M127.174 14.9822H124.952V23.2156H127.174V14.9822Z" fill="#030504"/>
<path d="M119.245 19.6672V9.31567H117.027V19.7437C117.027 21.658 118.584 23.2155 120.499 23.2155H122.876V21.0699H120.648C119.874 21.0699 119.245 20.4408 119.245 19.6672Z" fill="#030504"/>
<path d="M126.052 5.63525C125.187 5.63525 124.51 6.31228 124.51 7.17685C124.51 8.08347 125.158 8.74143 126.052 8.74143C126.945 8.74143 127.616 8.0688 127.616 7.17685C127.616 6.2849 126.958 5.63525 126.052 5.63525Z" fill="#030504"/>
<path d="M67.2731 9.31567V12.5108C66.2587 11.357 64.801 10.6935 63.052 10.6935C59.4994 10.6935 56.6091 13.5837 56.6091 17.1364C56.6091 20.689 59.4994 23.5793 63.052 23.5793C64.801 23.5793 66.2587 22.9157 67.2731 21.7619V23.2155H69.495V9.31567H67.2731ZM63.0518 21.434C60.6522 21.434 58.8307 19.5462 58.8307 17.1364C58.8307 14.7265 60.6151 12.839 63.0518 12.839C65.4582 12.839 67.2729 14.6864 67.2729 17.1364C67.2729 19.2031 65.6592 21.434 63.0518 21.434Z" fill="#030504"/>
<path d="M92.7585 23.5794C95.8742 23.5794 98.2239 21.4309 98.9398 18.9629H96.597C96.2579 19.7306 95.1527 21.4341 92.7583 21.4341V23.5796L92.7585 23.5794Z" fill="#030504"/>
<path d="M86.3154 17.1363C86.3154 13.5272 89.2441 10.6934 92.7583 10.6934C95.874 10.6934 98.2396 12.8071 98.9763 15.4313H96.6491C96.3469 14.5844 95.1114 12.8389 92.7583 12.8389C90.3705 12.8389 88.5372 14.7467 88.5372 17.1365L86.3154 17.1363Z" fill="#030504"/>
<path d="M158.979 11.9717V10.2864H159.393L159.819 11.6326L160.23 10.2864H160.636V11.9717H160.379V10.5573L159.945 11.9717H159.691L159.238 10.5367V11.9717H158.979ZM157.96 11.9717V10.5367H157.414V10.2866H158.791V10.5367H158.241V11.9717H157.96Z" fill="#181716"/>
<path d="M111.458 17.1363C111.458 19.2031 109.845 21.4339 107.237 21.4339C104.87 21.4339 103.016 19.5461 103.016 17.1363C103.016 14.7264 104.87 12.8389 107.237 12.8389C108.789 12.8389 110.094 13.6078 110.826 14.8108V11.9019C109.873 11.1271 108.65 10.6934 107.237 10.6934C103.685 10.6934 100.794 13.5836 100.794 17.1363C100.794 20.6889 103.685 23.5792 107.237 23.5792C108.986 23.5792 110.444 22.9156 111.458 21.7618V23.2154H113.68V16.392H111.4C111.437 16.6328 111.458 16.881 111.458 17.1363H111.458Z" fill="#030504"/>
<path d="M157.408 23.2154L157.402 16.1023C157.286 13.1078 154.798 10.6978 151.784 10.6978C150.742 10.6978 149.772 10.985 149.012 11.4943V14.2541C149.619 13.3875 150.614 12.8433 151.784 12.8433C153.723 12.8433 155.186 14.3389 155.186 16.3218V23.2156L157.408 23.2154Z" fill="#030504"/>
<path d="M148.381 19.239H146.16V23.2154H148.381V19.239Z" fill="#030504"/>
<path d="M55.0227 17.1363C55.0227 13.5836 52.1324 10.6934 48.5798 10.6934V12.8389C50.4644 12.8389 52.0136 13.9702 52.5818 15.7397H45.2875C45.102 16.1773 45.0029 16.6517 45.0029 17.1363C45.0029 17.3901 45.0308 17.6407 45.0831 17.8852H54.9801C54.999 17.7043 55.0227 17.4148 55.0227 17.1363Z" fill="#030504"/>
<path d="M52.8846 21.9222C53.7464 21.1493 54.2807 20.2273 54.5445 19.5796H52.0809C51.8007 20.0121 50.7168 21.4339 48.5796 21.4339V23.5794C50.4185 23.5794 51.8926 22.8124 52.8848 21.9224L52.8846 21.9222Z" fill="#030504"/>
<path d="M110.826 16.3919V10.7251H111.479V10.051C111.479 9.98251 111.535 9.92676 111.604 9.92676H113.534C113.603 9.92676 113.658 9.98226 113.658 10.051V10.7251H114.312V16.3919H110.826H110.826Z" fill="#00A237"/>
<path d="M89.181 17.1365H85.6709C85.6709 19.016 86.4176 20.8187 87.7465 22.1476C89.0756 23.4767 90.8781 24.2234 92.7578 24.2234V20.7133C91.8092 20.7133 90.8994 20.3365 90.2287 19.6656C89.5578 18.9947 89.181 18.0851 89.181 17.1365Z" fill="#ED6A70"/>
<path d="M140.181 17.1362C140.181 18.0849 139.805 18.9947 139.134 19.6654C138.463 20.3363 137.553 20.7131 136.604 20.7131C135.656 20.7131 134.746 20.3363 134.075 19.6654C133.404 18.9947 133.027 18.0849 133.027 17.1362H129.517C129.517 19.0157 130.264 20.8185 131.593 22.1476C132.922 23.4767 134.725 24.2232 136.604 24.2232C138.484 24.2232 140.286 23.4765 141.615 22.1476C142.944 20.8185 143.691 19.016 143.691 17.1362H140.181Z" fill="#ED6A70"/>
<path d="M127.152 10.7251V10.051C127.152 9.98251 127.096 9.92676 127.028 9.92676H125.098C125.029 9.92676 124.973 9.98226 124.973 10.051V10.7251H124.32V14.9821H127.805V10.7251H127.152H127.152Z" fill="#F8AC00"/>
<path d="M148.359 10.051C148.359 9.98251 148.303 9.92676 148.234 9.92676H146.304C146.236 9.92676 146.18 9.98226 146.18 10.051V10.7251H145.527V19.2389H149.012V10.7251H148.358V10.051H148.359Z" fill="#009996"/>
<path d="M83.6788 10.7251V10.051C83.6788 9.98251 83.6233 9.92676 83.5546 9.92676H81.6244C81.556 9.92676 81.5002 9.98226 81.5002 10.051V10.7251H80.8467V14.9821H84.3321V10.7251H83.6788Z" fill="#F8AC00"/>
<path d="M74.6475 10.7251V10.051C74.6475 9.98251 74.592 9.92676 74.5233 9.92676H72.5932C72.5247 9.92676 72.469 9.98226 72.469 10.051V10.7251H71.8154V14.9821H75.3008V10.7251H74.6473H74.6475Z" fill="#F8AC00"/>
<path d="M116.402 9.31558V5.05853H112.845V4.20546L116.4 0.798548H117.055V0.124208C117.055 0.0555023 117.11 0 117.179 0H119.11C119.179 0 119.235 0.0557468 119.235 0.124208V0.798793H119.887V5.05853H120.541V4.38444C120.541 4.31598 120.596 4.26023 120.665 4.26023H122.595C122.664 4.26023 122.719 4.31573 122.719 4.38444V5.05853H123.373V9.31558H116.402H116.402Z" fill="#B67540"/>
<path d="M69.4724 0.798793V0.124208C69.4724 0.0555023 69.4169 0 69.3482 0H67.4168C67.3481 0 67.2926 0.0557468 67.2926 0.124208V0.798793H66.6386L63.084 4.20571V5.05878H66.6396V9.31583H70.125L70.1262 0.799038H69.4721L69.4724 0.798793Z" fill="#009996"/>
<path d="M48.5799 13.5594V10.0493C46.7004 10.0493 44.8976 10.796 43.5685 12.1252C42.2394 13.4543 41.4927 15.2568 41.4927 17.1365C41.4927 19.0162 42.2394 20.8187 43.5685 22.1476C44.8976 23.4767 46.7001 24.2234 48.5799 24.2234V20.7133C47.6312 20.7133 46.7214 20.3366 46.0505 19.6656C45.3795 18.9947 45.0028 18.0849 45.0028 17.1363C45.0028 16.1876 45.3795 15.2778 46.0505 14.6069C46.7214 13.9359 47.6312 13.5594 48.5799 13.5594Z" fill="#ED6A70"/>
<path d="M0.234863 0.231201V34.4228H34.4262V0.231201H0.234863Z" fill="white"/>
<path d="M0.234863 0.231201V34.4228H34.4262V0.231201H0.234863ZM32.1516 14.4437C32.0951 15.5092 31.756 16.8362 31.4575 17.723C30.255 21.2954 28.8613 23.5099 25.6329 23.5099C24.6828 23.5099 22.9964 23.2573 22.3754 21.5663L22.2282 21.1653L21.9636 21.5008C20.9543 22.7796 19.4545 23.5175 17.8484 23.5251C16.6164 23.5309 15.6268 23.118 14.9865 22.3311L14.8107 22.1152L14.6239 22.3216C13.94 23.0766 12.749 23.5096 11.3563 23.5096C10.2627 23.5096 9.31841 23.138 8.69713 22.4639L8.52769 22.2796L8.35165 22.4575C7.66092 23.1549 6.57264 23.5062 5.20415 23.474C3.54397 23.4346 2.53344 22.5082 2.50092 20.9947C2.45055 18.6614 4.70903 13.7525 5.64328 12.2598C6.25038 11.2627 7.08463 10.7793 8.19541 10.7793C8.95166 10.7793 9.46854 10.9375 9.77563 11.2627C10.0551 11.5586 10.1106 11.8084 10.1353 12.4085L10.1673 13.1848L10.5769 12.5246C11.5683 10.9273 13.2112 10.707 14.8388 10.707C15.9704 10.707 16.9579 11.1233 17.3545 11.7674L17.5005 12.0045L17.713 11.8243C18.5514 11.1114 19.7348 10.7187 21.045 10.7187C22.4747 10.7187 23.5138 11.0742 24.1339 11.7752C24.2747 11.9349 24.3678 12.0463 24.4977 12.318L24.6571 12.652L24.8957 12.3696C25.8028 11.2962 27.0422 10.7522 28.5794 10.7522C29.797 10.7522 30.7215 11.0757 31.3267 11.7138C32.0856 12.5141 32.1939 13.6398 32.1514 14.4432L32.1516 14.4437Z" fill="#FFED00"/>
<path d="M0.234863 0.231201V34.4228H34.4262V0.231201H0.234863ZM33.1142 15.7555C32.9595 16.9995 32.1184 19.3049 31.6714 20.2262C30.4729 22.6959 28.8711 24.5938 25.7852 24.5938C24.1368 24.5938 22.7808 24.0681 21.9879 23.0576C20.8269 24.0747 19.3895 24.6082 17.8423 24.6082C16.6499 24.6082 15.5965 24.2639 14.7928 23.627C13.9065 24.252 12.7102 24.6004 11.3837 24.6004C10.2761 24.6004 9.27929 24.2962 8.49981 23.7343C7.63696 24.307 6.50613 24.5908 5.17872 24.5595C2.96988 24.5075 1.44516 23.1065 1.40139 21.0729C1.3432 18.3712 3.61904 13.4258 4.69143 11.7133C5.49389 10.3952 6.71861 9.68542 8.21961 9.68542C9.84899 9.68542 10.4395 10.1512 10.7299 10.7436C11.9867 9.67588 13.6532 9.61476 14.8395 9.61476C16.1491 9.61476 16.9704 9.9622 17.6697 10.5187C18.635 9.93946 19.7423 9.63872 21.0612 9.63872C22.7478 9.63872 24.0001 10.0309 24.874 10.8947C25.8933 10.0468 27.1691 9.65999 28.598 9.65999C30.4865 9.65999 31.7294 10.3414 32.4594 11.3568C33.4881 12.7887 33.3045 14.231 33.115 15.7552L33.1142 15.7555Z" fill="#E3000B"/>
<path d="M0 0V34.6542H34.654V0H0ZM34.1772 0.477026V34.1772H0.477026V0.477026H34.1772Z" fill="#181716"/>
<path d="M32.9473 10.3984V10.1627H33.1077C33.2248 10.1627 33.2852 10.2035 33.2852 10.2793C33.2852 10.3397 33.2461 10.3981 33.1273 10.3981L32.9473 10.3984ZM33.5221 10.8879L33.4224 10.715C33.3356 10.5637 33.3116 10.5399 33.2378 10.5138V10.5094C33.3832 10.492 33.47 10.3984 33.47 10.2685C33.47 10.1321 33.3832 10.0282 33.1989 10.0282H32.7703V10.8881H32.9475V10.5358H32.9801C33.0561 10.5358 33.0864 10.5446 33.1211 10.5791C33.1559 10.6138 33.2079 10.6871 33.2383 10.7478L33.3077 10.8884H33.5226L33.5221 10.8879ZM33.0989 9.78833C33.4683 9.78833 33.7686 10.0859 33.7686 10.4548C33.7686 10.8238 33.4686 11.1226 33.0989 11.1226C32.7292 11.1226 32.4341 10.8231 32.4341 10.4548C32.4341 10.0866 32.7309 9.78833 33.0989 9.78833ZM33.0989 9.62427C32.64 9.62427 32.27 9.99493 32.27 10.4548C32.27 10.9148 32.6402 11.2842 33.0989 11.2842C33.5576 11.2842 33.9302 10.9143 33.9302 10.4548C33.9302 9.99542 33.5595 9.62427 33.0989 9.62427Z" fill="#181716"/>
<path d="M28.5792 10.514C26.7882 10.514 25.551 11.2243 24.7131 12.216C24.5713 11.9194 24.4642 11.7891 24.3129 11.6177C23.6273 10.8424 22.5246 10.4805 21.0451 10.4805C19.5996 10.4805 18.3947 10.9318 17.5582 11.6429C17.1233 10.9367 16.0878 10.4688 14.8389 10.4688C13.207 10.4688 11.4288 10.6996 10.374 12.3993C10.3488 11.7871 10.2933 11.4636 9.94928 11.0993C9.53118 10.6565 8.85464 10.5411 8.19521 10.5411C6.99421 10.5411 6.09101 11.0656 5.44064 12.1338C4.4971 13.6412 2.21025 18.599 2.26184 21.0002C2.2951 22.5514 3.33595 23.6695 5.19833 23.713C6.65362 23.748 7.79496 23.3592 8.52114 22.6262C9.17274 23.3338 10.1669 23.749 11.3562 23.749C12.6806 23.749 14.0137 23.3514 14.8007 22.4819C15.4638 23.2971 16.5076 23.7705 17.8492 23.7641C19.6035 23.7558 21.1444 22.924 22.1507 21.6492C22.7028 23.1524 24.1036 23.749 25.6327 23.749C28.9846 23.749 30.457 21.4443 31.6837 17.7995C31.9602 16.9787 32.3287 15.6082 32.3901 14.4568C32.4918 12.5414 31.6812 10.5142 28.5795 10.5142L28.5792 10.514ZM6.27659 19.6765C8.01086 19.3755 8.44705 20.0024 8.39228 20.5829C8.22871 22.3211 6.63406 22.7101 5.24968 22.6773C4.2455 22.6536 3.34255 22.1937 3.31737 21.0276C3.2736 18.988 5.35359 14.2696 6.33283 12.7052C6.78492 11.9629 7.33603 11.5957 8.21502 11.5957C9.0478 11.5957 9.2544 12.0233 9.24193 12.5353C9.20892 13.9013 7.00106 18.0542 6.27659 19.6765ZM11.9241 18.0745C11.8095 18.3848 11.5921 19.0354 11.4165 19.7252C11.9855 19.5826 12.4127 19.4838 13.144 19.5014C13.9772 19.522 14.5098 19.8672 14.5098 20.5562C14.5098 22.2264 12.6635 22.7172 11.383 22.7172C9.97666 22.7172 8.74143 21.9164 8.74143 20.3787C8.74143 18.576 9.71871 15.8422 10.6358 14.0216C11.7623 11.7856 12.9127 11.4881 14.8946 11.4881C15.766 11.4881 16.7692 11.8607 16.7692 12.6825C16.7692 13.8226 15.8034 14.2578 14.846 14.3123C14.4371 14.3356 13.808 14.3583 13.4313 14.3317C13.4313 14.3317 13.1127 14.8175 12.7738 15.6823C14.5469 15.4329 15.2988 15.8354 14.9993 16.8608C14.5948 18.2466 13.3943 18.3379 11.9239 18.0748L11.9241 18.0745ZM20.6453 13.7637C20.1659 13.7637 19.8522 14.0674 19.6187 14.3955C19.1052 15.117 17.9912 18.0092 17.8179 19.197C17.6991 20.011 18.0504 20.1768 18.4345 20.1768C19.0504 20.1768 19.7412 19.5249 19.9769 18.4491C19.9769 18.4491 18.804 18.4207 19.1277 17.3809C19.4419 16.3716 20.0375 16.153 21.0255 16.1124C22.972 16.0329 22.7798 17.4704 22.6241 18.2366C22.1182 20.7254 20.347 22.725 17.8414 22.725C16.1257 22.725 15.0609 21.7761 15.0609 20.0264C15.0609 18.7799 15.6792 16.8232 16.1694 15.6784C17.213 13.2412 18.3069 11.5353 21.0945 11.5353C22.7669 11.5353 24.0862 12.136 23.8928 13.703C23.7508 14.8529 23.1752 15.5283 22.1297 15.6097C21.8373 15.6327 20.6409 15.6023 21.0378 14.4705C21.1764 14.0747 21.2331 13.7637 20.6453 13.7637ZM31.1729 15.8209C30.8778 17.2884 30.2152 19.0239 29.4956 20.3178C28.3218 22.4289 26.8961 22.7242 25.6513 22.7096C24.4065 22.6947 23.0033 22.235 22.9926 20.3144C22.985 18.9357 23.5799 16.9894 24.0845 15.7138C24.9642 13.4016 25.8638 11.516 28.7069 11.5497C32.0221 11.5891 31.4309 14.5375 31.1729 15.8209ZM28.8091 14.3754C28.7736 15.2608 27.476 18.8017 27.0149 19.5826C26.8151 19.9213 26.5899 20.2012 26.1841 20.2012C25.8303 20.2012 25.6718 19.9499 25.6628 19.6628C25.6371 18.864 27.1032 14.8578 27.6046 14.2079C27.8279 13.8637 28.076 13.8084 28.3604 13.8121C28.7765 13.8172 28.8193 14.1175 28.8091 14.3754Z" fill="#181716"/>
</g>
<g clip-path="url(#clip1_66_16503)">
<path d="M184.477 10.8442L182.362 2.07844V1.56201H184.967L186.049 7.23375H186.308L187.469 1.56201H190.433L191.594 7.23375H191.851L192.933 1.56201H195.538V2.07844L193.424 10.8442H190.176L189.08 4.97904H188.823L187.727 10.8442H184.479H184.477Z" fill="black"/>
<path d="M196.221 8.44661V6.2812C196.749 4.60543 198.051 3.67676 199.766 3.67676C201.48 3.67676 202.782 4.60394 203.311 6.2812V8.44661C202.782 10.1224 201.48 11.0511 199.766 11.0511C198.051 11.0511 196.749 10.1239 196.221 8.44661ZM200.991 8.21444V6.51188C200.81 5.99546 200.346 5.68739 199.766 5.68739C199.185 5.68739 198.721 5.99694 198.541 6.51188V8.21444C198.721 8.73087 199.185 9.03893 199.766 9.03893C200.346 9.03893 200.81 8.72938 200.991 8.21444Z" fill="black"/>
<path d="M209.187 3.88379V5.94651H207.924C207.241 5.94651 206.957 6.19058 206.842 6.70701V10.8443H204.392V3.88379H206.455L206.833 4.75888C207.096 4.15167 207.576 3.88379 208.208 3.88379H209.187Z" fill="black"/>
<path d="M212.837 10.8442C211.072 10.8442 210.079 9.91701 210.079 8.33053V0.789551H212.529V8.04776C212.529 8.5121 212.722 8.78147 213.238 8.78147H213.999V10.8442H212.838H212.837Z" fill="black"/>
<path d="M214.718 8.60139V6.12643C214.975 4.61883 216.097 3.67676 217.63 3.67676C218.443 3.67676 219.126 3.99971 219.55 4.51465V0.789551H222V10.8442H219.925L219.577 10.0197C219.139 10.6894 218.391 11.0511 217.423 11.0511C216.005 11.0511 214.987 10.1358 214.716 8.60139H214.718ZM219.552 8.21445V6.51337C219.345 5.95825 218.946 5.68888 218.327 5.68888C217.708 5.68888 217.295 5.95974 217.102 6.51337V8.21445C217.359 8.79487 217.721 9.03894 218.327 9.03894C218.933 9.03894 219.319 8.77998 219.552 8.21445Z" fill="black"/>
<path d="M192.917 22.8396V13.5574H197.015C198.704 13.5574 199.852 14.3045 200.173 15.5948V18.0564C199.838 19.3452 198.73 20.0417 197.015 20.0417H195.494V22.8396H192.917ZM195.494 17.787H196.796C197.286 17.787 197.582 17.6322 197.724 17.2319V16.4327C197.582 16.0323 197.286 15.8776 196.796 15.8776H195.494V17.7855V17.787Z" fill="black"/>
<path d="M203.873 22.8396C202.108 22.8396 201.115 21.9124 201.115 20.3259V12.7849H203.565V20.0431C203.565 20.5075 203.759 20.7768 204.275 20.7768H205.036V22.8396H203.875H203.873Z" fill="black"/>
<path d="M205.665 21.576V20.0282C205.922 19.0221 206.94 18.5459 208.229 18.5459C208.796 18.5459 209.311 18.6486 209.725 18.8287V18.5831C209.725 18.1188 209.531 17.8866 209.015 17.8866H206.308V15.876H209.414C211.179 15.876 212.172 16.766 212.172 18.3509V22.8365H210.109L209.722 21.96C209.451 22.6178 208.781 23.0419 207.853 23.0419C206.641 23.0419 205.945 22.463 205.66 21.573H205.662L205.665 21.576ZM209.725 20.8408V20.6339C209.583 20.4018 209.235 20.2604 208.81 20.2604C208.384 20.2604 208.088 20.3884 207.92 20.6339V20.8408C208.048 21.0849 208.357 21.2143 208.81 21.2143C209.262 21.2143 209.609 21.073 209.725 20.8408Z" fill="black"/>
<path d="M213.515 25.6761V23.6134H214.624C215.088 23.6134 215.307 23.4586 215.307 23.1237C215.307 22.9689 215.229 22.7502 215.139 22.518L212.921 16.3953V15.8789H215.344L216.53 20.2737H216.789L217.962 15.8789H220.385V16.3953L217.755 23.847C217.279 25.2013 216.621 25.6776 215.241 25.6776H213.513L213.515 25.6761Z" fill="black"/>
<path d="M185.664 33.3213V24.0405H189.389C191.568 24.0405 193.192 25.316 193.463 27.2373V30.1632C193.205 32.0711 191.593 33.3213 189.389 33.3213H185.664ZM188.242 31.0011H189.221C190.239 31.0011 190.742 30.6781 190.883 29.9429V27.4293C190.754 26.6941 190.239 26.3592 189.221 26.3592H188.242V30.9996V31.0011Z" fill="black"/>
<path d="M194.391 32.0577V30.5099C194.648 29.5038 195.666 29.0276 196.955 29.0276C197.522 29.0276 198.037 29.1303 198.451 29.3104V29.0648C198.451 28.6005 198.257 28.3683 197.741 28.3683H195.034V26.3577H198.14C199.905 26.3577 200.898 27.2476 200.898 28.8326V33.3182H198.835L198.448 32.4416C198.177 33.0995 197.507 33.5236 196.579 33.5236C195.367 33.5236 194.671 32.9447 194.386 32.0547H194.388L194.391 32.0577ZM198.451 31.3225V31.1156C198.31 30.8834 197.961 30.7421 197.536 30.7421C197.11 30.7421 196.814 30.8715 196.646 31.1156V31.3225C196.775 31.5666 197.083 31.696 197.536 31.696C197.988 31.696 198.335 31.5546 198.451 31.3225Z" fill="black"/>
<path d="M202.242 36.158V34.0953H203.35C203.815 34.0953 204.033 33.9405 204.033 33.6057C204.033 33.4509 203.956 33.2321 203.865 32.9999L201.648 26.8773V26.3608H204.071L205.257 30.7557H205.514L206.687 26.3608H209.11V26.8773L206.48 34.3289C206.004 35.6833 205.346 36.1595 203.966 36.1595H202.239H202.24L202.242 36.158Z" fill="black"/>
<path d="M186.001 21.5148C187.272 21.1502 188.287 20.6338 189.081 19.7364C189.276 19.5161 189.4 19.2988 189.162 19.0607C188.925 18.8241 188.706 18.9416 188.488 19.1396C186.923 20.5594 185.09 20.9999 183.036 20.604C182.747 20.5475 182.488 20.5445 182.404 20.8615C182.322 21.1606 182.502 21.3377 182.796 21.4225C183.908 21.747 185.021 21.7604 186.001 21.5133" fill="black"/>
<path d="M182.735 16.5114C182.536 15.7435 181.772 15.294 181.024 15.4994C180.284 15.7018 179.849 16.4638 180.049 17.2049C180.25 17.955 180.991 18.3896 181.74 18.1976C182.49 18.0041 182.93 17.2585 182.735 16.5129" fill="black"/>
<path d="M188.428 16.4087C189.163 16.2063 189.602 15.4369 189.407 14.7002C189.208 13.9531 188.412 13.5037 187.666 13.7195C186.929 13.9323 186.511 14.6943 186.719 15.4399C186.928 16.181 187.687 16.6111 188.428 16.4073" fill="black"/>
</g>
<defs>
<clipPath id="clip0_66_16503">
<rect width="160.635" height="34.6542" fill="white"/>
</clipPath>
<clipPath id="clip1_66_16503">
<rect width="42" height="35.3683" fill="white" transform="translate(180 0.789551)"/>
</clipPath>
</defs>
</svg>
