<svg width="60" height="48" viewBox="0 0 60 48" fill="none" xmlns="http://www.w3.org/2000/svg">
<path d="M6.38176 32.1215C9.42731 29.7007 14.0347 30.4295 16.6551 33.7354C19.2841 37.0326 18.9544 41.6833 15.9002 44.1041C12.8546 46.525 8.25595 45.7961 5.62688 42.4903C2.98914 39.1844 3.32752 34.5423 6.37307 32.1215H6.38176Z" fill="#011C58"/>
<path d="M6.38183 32.1128L4.55102 33.5618C2.86772 34.898 2.00872 36.9197 2.03475 39.0195C2.05211 40.7115 2.63346 42.4555 3.80483 43.9306C4.97619 45.4056 6.538 46.3687 8.18659 46.7592C10.2343 47.2538 12.3948 46.8807 14.0781 45.5444L15.909 44.0954C14.1302 45.5184 11.8048 45.8568 9.67034 45.2147C8.15191 44.7809 6.72889 43.8525 5.63562 42.4729C4.54234 41.0932 3.961 39.4967 3.87423 37.9262C3.74408 35.6963 4.60309 33.5184 6.38183 32.1041" fill="#60BBE3"/>
<path d="M2.04341 39.0282C0.412175 40.6594 0.325394 43.4273 1.92192 45.4317C3.51845 47.436 6.22562 47.9827 8.19525 46.7592C6.55534 46.3688 4.98485 45.4056 3.81348 43.9306C2.64212 42.4642 2.05209 40.7115 2.04341 39.0195" fill="#011C58"/>
<path d="M14.5466 19.6529L6.69409 34.7679L11.2321 43.41L15.3622 41.5531L16.8112 38.9761L18.1301 45.3536C18.2516 45.987 18.9284 46.2473 19.4403 46.013C19.4403 46.013 19.449 46.0043 19.4663 46.0043L23.5618 44.1562C23.7266 44.0868 23.8828 43.9653 23.987 43.7744L32.0477 30.1779L32.9501 35.9219C33.0542 36.5813 33.7397 36.8764 34.2776 36.6247L38.3817 34.7766C38.5206 34.7158 38.6507 34.603 38.7548 34.4642L58.9371 6.06507C59.8221 4.80694 59.449 2.71583 58.3557 1.4577C57.4794 0.459867 56.6984 0.0347046 55.9436 0.416483L51.8481 2.26464C51.6312 2.36008 51.4403 2.51627 51.2321 2.72451C50.59 3.40998 42.9457 11.7831 38.1822 17.0065L36.6117 6.74186C36.5076 6.08243 35.8221 5.79609 35.2928 6.03037L35.2754 6.04772L31.2234 7.86985L31.1627 7.89588C30.9891 7.97397 30.8416 8.10412 30.7375 8.29501L21.7136 24.6074L20.4382 18.0564C20.3167 17.4143 19.6312 17.154 19.1279 17.3883L19.1106 17.4056L15.0585 19.2278L15.0065 19.2451C14.8243 19.3232 14.6681 19.462 14.5639 19.6703" fill="#011C58"/>
<path d="M11.2409 43.4187L6.70288 34.7766L14.5467 19.6703C14.9545 18.8894 16.1259 19.0543 16.2907 19.9219L18.2083 29.718C18.2691 30.0217 18.6769 30.0911 18.833 29.8135L30.7289 8.30371C31.1628 7.5228 32.3428 7.73104 32.473 8.61607L34.2951 20.4772C34.3384 20.7549 34.6855 20.859 34.8764 20.6508C37.5142 17.7614 50.3818 3.6356 51.2322 2.74189C52.1779 1.74406 53.1411 2.07377 54.2344 3.34059C55.3363 4.59872 55.7094 6.68983 54.8157 7.93929L34.6335 36.3384C34.1476 37.0239 33.0803 36.7723 32.9415 35.9393L31.692 27.9913C31.5966 27.3753 30.7723 27.2191 30.4513 27.7571L19.8482 45.6573C19.4144 46.3948 18.2951 46.2039 18.1302 45.371L16.3515 36.7376C16.23 36.1302 15.4144 36.0087 15.1194 36.5467L11.2322 43.436L11.2409 43.4187Z" fill="#60BBE3"/>
</svg>
