<svg width="197" height="63" viewBox="0 0 197 63" fill="none" xmlns="http://www.w3.org/2000/svg">
<path d="M48.2321 14V3.2H51.6821C54.3971 3.2 56.1221 4.7 56.4821 7.13C56.4971 7.25 56.4971 7.355 56.4971 7.475V9.695C56.4971 9.815 56.4971 9.92 56.4821 10.025C56.1221 12.485 54.3821 14 51.6821 14H48.2321ZM51.6971 12.665C53.6471 12.665 54.7721 11.66 54.9971 9.83C54.9971 9.71 55.0121 9.59 55.0121 9.455V7.745C55.0121 7.625 54.9971 7.49 54.9971 7.37C54.7721 5.555 53.6321 4.535 51.6971 4.535H49.7171V12.665H51.6971ZM61.9775 14.21C60.1475 14.21 58.4525 13.085 58.0775 11.09C58.0475 10.925 58.0325 10.775 58.0325 10.595V9.32C58.0325 9.14 58.0475 8.975 58.0775 8.825C58.4525 6.83 60.1475 5.705 61.9775 5.705C63.8225 5.705 65.5025 6.83 65.8925 8.825C65.9075 8.975 65.9375 9.14 65.9375 9.32V10.595C65.9375 10.775 65.9075 10.925 65.8925 11.09C65.5025 13.085 63.8225 14.21 61.9775 14.21ZM61.9775 12.95C63.1175 12.95 64.2575 12.26 64.5125 10.955C64.5275 10.82 64.5425 10.67 64.5425 10.505V9.41C64.5425 9.245 64.5275 9.095 64.5125 8.96C64.2575 7.64 63.1175 6.965 61.9775 6.965C60.8375 6.965 59.7125 7.64 59.4575 8.96C59.4275 9.095 59.4275 9.245 59.4275 9.41V10.505C59.4275 10.67 59.4275 10.82 59.4575 10.955C59.7125 12.26 60.8375 12.95 61.9775 12.95ZM71.3166 17.3V16.01H72.2616C73.1466 16.01 73.5816 15.68 73.5816 14.93C73.5816 14.66 73.4766 14.375 73.2966 13.895L70.3116 6.155V5.9H71.7666L74.2716 12.725H74.4516L76.6866 5.9H78.0966V6.155L74.8866 15.32C74.3616 16.85 73.7616 17.3 72.2316 17.3H71.3166ZM83.0273 14.21C81.1973 14.21 79.5023 13.085 79.1273 11.09C79.0973 10.925 79.0823 10.775 79.0823 10.595V9.32C79.0823 9.14 79.0973 8.975 79.1273 8.825C79.5023 6.83 81.1973 5.705 83.0273 5.705C84.8723 5.705 86.5523 6.83 86.9423 8.825C86.9573 8.975 86.9873 9.14 86.9873 9.32V10.595C86.9873 10.775 86.9573 10.925 86.9423 11.09C86.5523 13.085 84.8723 14.21 83.0273 14.21ZM83.0273 12.95C84.1673 12.95 85.3073 12.26 85.5623 10.955C85.5773 10.82 85.5923 10.67 85.5923 10.505V9.41C85.5923 9.245 85.5773 9.095 85.5623 8.96C85.3073 7.64 84.1673 6.965 83.0273 6.965C81.8873 6.965 80.7623 7.64 80.5073 8.96C80.4773 9.095 80.4773 9.245 80.4773 9.41V10.505C80.4773 10.67 80.4773 10.82 80.5073 10.955C80.7623 12.26 81.8873 12.95 83.0273 12.95ZM91.7887 14.21C89.9137 14.21 88.8187 13.1 88.8187 11.165V5.9H90.2137V11.03C90.2737 12.065 90.9037 12.92 92.1337 12.92C93.1087 12.92 93.8287 12.35 94.1737 11.435V5.9H95.5687V14H94.5187L94.1887 12.935C93.7537 13.64 93.0187 14.21 91.7887 14.21ZM101.681 14V5.9H102.746L103.076 6.965C103.526 6.275 104.351 5.705 105.536 5.705C107.426 5.705 108.521 6.875 108.521 8.81V14H107.126V8.885C107.066 7.835 106.466 6.995 105.191 6.995C104.216 6.995 103.436 7.565 103.076 8.48V14H101.681ZM114.286 14.21C112.111 14.21 110.806 12.89 110.401 11.015C110.386 10.88 110.371 10.715 110.371 10.58V9.335C110.371 9.2 110.386 9.05 110.401 8.915C110.821 7.07 112.126 5.705 114.211 5.705C116.266 5.705 117.541 6.935 117.871 8.735C117.901 8.87 117.916 9.035 117.916 9.17V10.19L117.736 10.37H111.751C111.901 11.975 112.816 12.95 114.286 12.95C115.366 12.95 116.026 12.56 116.656 11.735L117.616 12.59C116.881 13.595 115.846 14.21 114.286 14.21ZM111.781 9.245H116.566C116.476 7.895 115.546 6.935 114.226 6.935C112.831 6.935 111.976 7.91 111.781 9.245ZM123.207 14.21C121.032 14.21 119.727 12.89 119.322 11.015C119.307 10.88 119.292 10.715 119.292 10.58V9.335C119.292 9.2 119.307 9.05 119.322 8.915C119.742 7.07 121.047 5.705 123.132 5.705C125.187 5.705 126.462 6.935 126.792 8.735C126.822 8.87 126.837 9.035 126.837 9.17V10.19L126.657 10.37H120.672C120.822 11.975 121.737 12.95 123.207 12.95C124.287 12.95 124.947 12.56 125.577 11.735L126.537 12.59C125.802 13.595 124.767 14.21 123.207 14.21ZM120.702 9.245H125.487C125.397 7.895 124.467 6.935 123.147 6.935C121.752 6.935 120.897 7.91 120.702 9.245ZM131.708 14.21C129.998 14.21 128.798 13.235 128.363 11.57C128.258 11.075 128.213 10.535 128.213 9.95C128.213 9.395 128.258 8.855 128.348 8.36C128.783 6.71 129.968 5.705 131.813 5.705C132.893 5.705 133.823 6.11 134.438 6.845V2.3H135.833V14H134.783L134.438 12.98C133.793 13.835 132.968 14.21 131.708 14.21ZM132.113 12.95C133.238 12.95 133.958 12.515 134.438 11.435V8.555C133.973 7.55 133.103 6.965 132.113 6.965C130.838 6.965 129.998 7.685 129.683 8.825C129.623 9.185 129.578 9.56 129.578 9.95C129.578 10.355 129.623 10.715 129.683 11.075C129.998 12.245 130.823 12.95 132.113 12.95ZM144.17 14.21C142.7 14.21 141.59 13.34 141.47 12.065V11.135C141.665 9.83 142.79 9.005 144.455 9.005C145.265 9.005 145.97 9.2 146.57 9.545V8.735C146.57 7.64 146.195 7.19 145.055 7.19H142.19V5.9H145.145C147.23 5.9 147.965 6.8 147.965 8.72V14H146.9L146.585 12.935C145.955 13.805 145.205 14.21 144.17 14.21ZM144.44 12.965C145.295 12.965 145.925 12.68 146.57 11.93V10.805C146.045 10.37 145.43 10.16 144.545 10.16C143.54 10.16 142.91 10.595 142.82 11.375V11.78C142.895 12.485 143.57 12.965 144.44 12.965ZM26.7684 30.21C25.4034 30.21 24.2634 29.565 23.6634 28.5L24.6834 27.645C25.0434 28.485 25.9284 29.01 26.7684 29.01C27.6234 29.01 28.2384 28.65 28.4034 28.05C28.4034 27.975 28.4184 27.9 28.4184 27.825V27.6C28.4184 27.555 28.4034 27.495 28.4034 27.435C28.2834 27.015 27.9384 26.745 27.0834 26.52L25.8384 26.205C24.7884 25.935 24.1734 25.38 23.9934 24.54C23.9784 24.45 23.9634 24.36 23.9634 24.27V23.745C23.9634 23.67 23.9784 23.58 23.9934 23.505C24.2484 22.455 25.4184 21.705 26.8584 21.705C28.1184 21.705 29.1084 22.215 29.7684 23.175L28.8084 23.97C28.3284 23.22 27.6984 22.905 26.8134 22.905C26.0634 22.905 25.4784 23.22 25.3284 23.73C25.3134 23.79 25.3134 23.835 25.3134 23.895V24.03C25.3134 24.075 25.3284 24.12 25.3284 24.165C25.4484 24.63 25.8384 24.915 26.5884 25.095L27.7134 25.365C28.8534 25.635 29.4684 26.16 29.7234 26.925C29.7534 27.03 29.7834 27.15 29.7834 27.27V27.975C29.7834 28.125 29.7684 28.245 29.7234 28.38C29.3784 29.49 28.2984 30.21 26.7684 30.21ZM34.6012 30.21C32.7262 30.21 31.6312 29.1 31.6312 27.165V21.9H33.0262V27.03C33.0862 28.065 33.7162 28.92 34.9462 28.92C35.9212 28.92 36.6412 28.35 36.9862 27.435V21.9H38.3812V30H37.3312L37.0012 28.935C36.5662 29.64 35.8312 30.21 34.6012 30.21ZM40.7732 30V21.9H41.8382L42.1682 22.965C42.6332 22.17 43.5032 21.705 44.4932 21.705C45.5432 21.705 46.3682 22.23 46.7882 23.175C47.3432 22.215 48.2132 21.705 49.3232 21.705C51.0182 21.705 52.0382 22.83 52.0382 24.69V30H50.6432V24.78C50.5832 23.655 49.9532 22.995 48.9182 22.995C48.1082 22.995 47.4632 23.49 47.1032 24.45V30H45.7082V24.78C45.6482 23.61 45.0632 22.995 43.9982 22.995C43.1732 22.995 42.5282 23.49 42.1682 24.45V30H40.7732ZM54.367 30V21.9H55.432L55.762 22.965C56.227 22.17 57.097 21.705 58.087 21.705C59.137 21.705 59.962 22.23 60.382 23.175C60.937 22.215 61.807 21.705 62.917 21.705C64.612 21.705 65.632 22.83 65.632 24.69V30H64.237V24.78C64.177 23.655 63.547 22.995 62.512 22.995C61.702 22.995 61.057 23.49 60.697 24.45V30H59.302V24.78C59.242 23.61 58.657 22.995 57.592 22.995C56.767 22.995 56.122 23.49 55.762 24.45V30H54.367ZM70.1957 30.21C68.7257 30.21 67.6157 29.34 67.4957 28.065V27.135C67.6907 25.83 68.8157 25.005 70.4807 25.005C71.2907 25.005 71.9957 25.2 72.5957 25.545V24.735C72.5957 23.64 72.2207 23.19 71.0807 23.19H68.2157V21.9H71.1707C73.2557 21.9 73.9907 22.8 73.9907 24.72V30H72.9257L72.6107 28.935C71.9807 29.805 71.2307 30.21 70.1957 30.21ZM70.4657 28.965C71.3207 28.965 71.9507 28.68 72.5957 27.93V26.805C72.0707 26.37 71.4557 26.16 70.5707 26.16C69.5657 26.16 68.9357 26.595 68.8457 27.375V27.78C68.9207 28.485 69.5957 28.965 70.4657 28.965ZM76.3103 30V21.9H77.3753L77.6903 22.905C78.0053 22.29 78.5753 21.9 79.3703 21.9H80.2853V23.235H79.2353C78.3653 23.235 77.7653 23.67 77.7053 24.825V30H76.3103ZM82.1258 30V21.9H83.5208V30H82.1258ZM82.8308 20.46C82.2758 20.46 81.8258 20.01 81.8258 19.455C81.8258 18.9 82.2758 18.45 82.8308 18.45C83.3858 18.45 83.8208 18.9 83.8208 19.455C83.8208 20.01 83.3858 20.46 82.8308 20.46ZM85.3201 30V28.74L89.5051 23.385V23.19H85.4701V21.9H91.2751V23.16L87.0901 28.53V28.71H91.4251V30H85.3201ZM96.5764 30.21C94.4014 30.21 93.0964 28.89 92.6914 27.015C92.6764 26.88 92.6614 26.715 92.6614 26.58V25.335C92.6614 25.2 92.6764 25.05 92.6914 24.915C93.1114 23.07 94.4164 21.705 96.5014 21.705C98.5564 21.705 99.8314 22.935 100.161 24.735C100.191 24.87 100.206 25.035 100.206 25.17V26.19L100.026 26.37H94.0414C94.1914 27.975 95.1064 28.95 96.5764 28.95C97.6564 28.95 98.3164 28.56 98.9464 27.735L99.9064 28.59C99.1714 29.595 98.1364 30.21 96.5764 30.21ZM94.0714 25.245H98.8564C98.7664 23.895 97.8364 22.935 96.5164 22.935C95.1214 22.935 94.2664 23.91 94.0714 25.245ZM105.077 30.21C103.367 30.21 102.167 29.235 101.732 27.57C101.627 27.075 101.582 26.535 101.582 25.95C101.582 25.395 101.627 24.855 101.717 24.36C102.152 22.71 103.337 21.705 105.182 21.705C106.262 21.705 107.192 22.11 107.807 22.845V18.3H109.202V30H108.152L107.807 28.98C107.162 29.835 106.337 30.21 105.077 30.21ZM105.482 28.95C106.607 28.95 107.327 28.515 107.807 27.435V24.555C107.342 23.55 106.472 22.965 105.482 22.965C104.207 22.965 103.367 23.685 103.052 24.825C102.992 25.185 102.947 25.56 102.947 25.95C102.947 26.355 102.992 26.715 103.052 27.075C103.367 28.245 104.192 28.95 105.482 28.95ZM117.202 30L114.097 22.155V21.9H115.537L117.937 28.425H118.132L120.562 21.9H121.972V22.155L118.882 30H117.202ZM126.694 30.21C124.519 30.21 123.214 28.89 122.809 27.015C122.794 26.88 122.779 26.715 122.779 26.58V25.335C122.779 25.2 122.794 25.05 122.809 24.915C123.229 23.07 124.534 21.705 126.619 21.705C128.674 21.705 129.949 22.935 130.279 24.735C130.309 24.87 130.324 25.035 130.324 25.17V26.19L130.144 26.37H124.159C124.309 27.975 125.224 28.95 126.694 28.95C127.774 28.95 128.434 28.56 129.064 27.735L130.024 28.59C129.289 29.595 128.254 30.21 126.694 30.21ZM124.189 25.245H128.974C128.884 23.895 127.954 22.935 126.634 22.935C125.239 22.935 124.384 23.91 124.189 25.245ZM132.179 30V21.9H133.244L133.559 22.905C133.874 22.29 134.444 21.9 135.239 21.9H136.154V23.235H135.104C134.234 23.235 133.634 23.67 133.574 24.825V30H132.179ZM140.235 30.21C138.87 30.21 137.73 29.565 137.13 28.5L138.15 27.645C138.51 28.485 139.395 29.01 140.235 29.01C141.09 29.01 141.705 28.65 141.87 28.05C141.87 27.975 141.885 27.9 141.885 27.825V27.6C141.885 27.555 141.87 27.495 141.87 27.435C141.75 27.015 141.405 26.745 140.55 26.52L139.305 26.205C138.255 25.935 137.64 25.38 137.46 24.54C137.445 24.45 137.43 24.36 137.43 24.27V23.745C137.43 23.67 137.445 23.58 137.46 23.505C137.715 22.455 138.885 21.705 140.325 21.705C141.585 21.705 142.575 22.215 143.235 23.175L142.275 23.97C141.795 23.22 141.165 22.905 140.28 22.905C139.53 22.905 138.945 23.22 138.795 23.73C138.78 23.79 138.78 23.835 138.78 23.895V24.03C138.78 24.075 138.795 24.12 138.795 24.165C138.915 24.63 139.305 24.915 140.055 25.095L141.18 25.365C142.32 25.635 142.935 26.16 143.19 26.925C143.22 27.03 143.25 27.15 143.25 27.27V27.975C143.25 28.125 143.235 28.245 143.19 28.38C142.845 29.49 141.765 30.21 140.235 30.21ZM145.158 30V21.9H146.553V30H145.158ZM145.863 20.46C145.308 20.46 144.858 20.01 144.858 19.455C144.858 18.9 145.308 18.45 145.863 18.45C146.418 18.45 146.853 18.9 146.853 19.455C146.853 20.01 146.418 20.46 145.863 20.46ZM152.402 30.21C150.572 30.21 148.877 29.085 148.502 27.09C148.472 26.925 148.457 26.775 148.457 26.595V25.32C148.457 25.14 148.472 24.975 148.502 24.825C148.877 22.83 150.572 21.705 152.402 21.705C154.247 21.705 155.927 22.83 156.317 24.825C156.332 24.975 156.362 25.14 156.362 25.32V26.595C156.362 26.775 156.332 26.925 156.317 27.09C155.927 29.085 154.247 30.21 152.402 30.21ZM152.402 28.95C153.542 28.95 154.682 28.26 154.937 26.955C154.952 26.82 154.967 26.67 154.967 26.505V25.41C154.967 25.245 154.952 25.095 154.937 24.96C154.682 23.64 153.542 22.965 152.402 22.965C151.262 22.965 150.137 23.64 149.882 24.96C149.852 25.095 149.852 25.245 149.852 25.41V26.505C149.852 26.67 149.852 26.82 149.882 26.955C150.137 28.26 151.262 28.95 152.402 28.95ZM158.254 30V21.9H159.319L159.649 22.965C160.099 22.275 160.924 21.705 162.109 21.705C163.999 21.705 165.094 22.875 165.094 24.81V30H163.699V24.885C163.639 23.835 163.039 22.995 161.764 22.995C160.789 22.995 160.009 23.565 159.649 24.48V30H158.254ZM168.621 26.61L168.516 24.06H169.056C170.016 24.06 170.751 23.67 170.871 22.62C170.886 22.56 170.901 22.515 170.901 22.335V21.81C170.901 21.735 170.886 21.615 170.871 21.555C170.736 20.745 170.106 20.25 169.191 20.25C168.186 20.25 167.511 20.73 167.076 21.705L165.951 21.045C166.491 19.755 167.601 19.005 169.221 19.005C170.961 19.005 172.101 19.92 172.296 21.405C172.311 21.45 172.326 21.585 172.326 21.645V22.395C172.326 22.56 172.311 22.605 172.311 22.635C172.176 24.06 171.246 24.945 169.881 25.11L169.656 26.61H168.621ZM169.146 30.21C168.591 30.21 168.141 29.76 168.141 29.205C168.141 28.65 168.591 28.215 169.146 28.215C169.701 28.215 170.136 28.65 170.136 29.205C170.136 29.76 169.701 30.21 169.146 30.21ZM63.3817 46V37.21H60.3817V35.2H68.6317V37.21H65.6317V46H63.3817ZM68.8215 46V37.9H70.4715L70.9215 38.98C71.2065 38.335 71.7015 37.9 72.4815 37.9H73.4115V39.91H72.2565C71.4915 39.91 71.0415 40.3 70.9215 41.065V46H68.8215ZM75.1364 49.3V47.35H76.2914C77.0114 47.35 77.3414 47.095 77.3414 46.615C77.3414 46.435 77.2364 46.09 77.0714 45.64L74.2664 38.275V37.9H76.4264L78.3764 43.39H78.6164L80.4914 37.9H82.6364V38.275L79.0964 47.59C78.6314 48.82 77.9414 49.3 76.2164 49.3H75.1364ZM87.3078 46V37.9H89.4078V46H87.3078ZM88.3578 36.82C87.5928 36.82 86.9778 36.205 86.9778 35.44C86.9778 34.675 87.5928 34.06 88.3578 34.06C89.1228 34.06 89.7378 34.675 89.7378 35.44C89.7378 36.205 89.1228 36.82 88.3578 36.82ZM94.9476 46C93.2226 46 92.1576 45.145 92.1576 43.42V39.85H90.9276V37.9H92.1576V37.6L93.1476 35.8H94.2576V37.9H96.1176V39.85H94.2576V43.09C94.2576 43.705 94.5126 44.05 95.1276 44.05H95.9826V46H94.9476ZM101.209 46V37.9H102.859L103.294 38.95C103.759 38.155 104.629 37.66 105.694 37.66C107.584 37.66 108.739 38.98 108.739 40.915V46H106.639V41.08C106.489 40.09 105.904 39.61 105.034 39.61C104.164 39.61 103.474 40.135 103.309 41.08V46H101.209ZM114.42 46.24C112.515 46.24 110.775 45.085 110.37 43.255V40.645C110.775 38.815 112.515 37.66 114.42 37.66C116.325 37.66 118.065 38.815 118.47 40.645V43.255C118.065 45.085 116.325 46.24 114.42 46.24ZM114.42 44.35C115.335 44.35 116.175 43.87 116.37 43.015V40.885C116.175 40.03 115.335 39.55 114.42 39.55C113.505 39.55 112.665 40.03 112.47 40.885V43.015C112.665 43.87 113.505 44.35 114.42 44.35ZM121.562 46L119.357 38.275V37.9H121.427L122.627 42.925H122.867L124.472 37.9H126.512L128.117 42.925H128.357L129.557 37.9H131.627V38.275L129.422 46H127.172L125.612 41.08H125.372L123.812 46H121.562ZM133.326 42.265L132.876 39.115V35.2H135.066V39.115L134.616 42.265H133.326ZM133.971 46.24C133.206 46.24 132.591 45.625 132.591 44.86C132.591 44.095 133.206 43.48 133.971 43.48C134.736 43.48 135.351 44.095 135.351 44.86C135.351 45.625 134.736 46.24 133.971 46.24Z" fill="#011C58"/>
<path d="M179.832 39.853C177.947 41.5468 175.879 42.9888 173.501 44.0787C170.147 45.6214 166.356 46.4825 162.037 46.5023C157.987 46.5199 153.695 45.7822 149.015 43.726C147.596 43.1061 146.203 42.3552 144.859 41.3032C144.494 42.5113 144.591 42.7877 146.044 43.729C147.816 44.8872 149.622 45.7179 151.409 46.3602C155.9 48.0029 159.929 48.3619 163.771 48.201C169.435 47.9577 174.082 46.2856 178.051 43.635C178.643 43.2397 179.065 42.6418 180.046 42.4347C179.817 43.4625 179.652 44.3614 179.424 45.2213C179.294 45.7086 179.346 46.2409 179.615 46.8653C179.692 47.0372 179.865 47.2788 180.014 47.377C180.298 47.5469 180.395 47.3646 180.44 47.1926C180.811 45.9784 181.172 44.754 181.559 43.5439C181.87 42.5365 182.203 41.5495 182.514 40.5421C182.541 40.4725 182.563 40.409 182.59 40.3394C182.976 38.9839 182.448 38.2491 180.69 37.8279C178.686 37.3453 176.71 36.9385 174.732 36.5543C173.686 36.3478 173.599 36.6242 174.065 37.6948C174.299 38.2496 174.616 38.4276 175.089 38.5298C176.35 38.7895 177.619 39.0818 178.899 39.3845C179.152 39.4397 179.403 39.372 179.848 39.8571" fill="#60BBE3"/>
</svg>
