<svg width="93" height="50" viewBox="0 0 93 50" fill="none" xmlns="http://www.w3.org/2000/svg">
<path d="M74.3474 49.4079L67.7877 47.8721C67.1803 47.7246 66.5903 46.6139 66.1565 44.4794L64.4558 36.2278L63.458 36.5055C62.3994 36.7744 61.5751 36.8092 60.9678 36.6617L54.2692 35.0912C54.2692 35.0912 54.2432 35.0912 54.2259 35.0825C54.1478 35.0651 54.0436 35.0391 53.9829 35.0131C53.9569 35.0131 53.9309 35.0044 53.9135 34.9957C53.8268 34.9784 53.7573 34.9263 53.6879 34.8829C53.6619 34.8829 53.6445 34.8742 53.6185 34.8569C53.5491 34.8135 53.4796 34.7701 53.4363 34.7094C53.4189 34.7094 53.4102 34.692 53.4016 34.6747C53.3408 34.6139 53.2801 34.5619 53.2454 34.4925C52.6293 33.6161 53.1153 31.9935 54.6684 30.1107L57.8267 25.9198L60.9243 21.8157C61.0892 21.6074 61.1499 21.3558 61.0979 21.0955L60.1608 16.0456L59.1977 10.8569C58.6944 8.69636 58.8853 7.13454 59.6228 6.49246C59.6922 6.4404 59.7703 6.3623 59.8484 6.3276C59.9786 6.25818 60.1261 6.20613 60.2909 6.18878C60.3951 6.17142 60.5166 6.17142 60.6294 6.18009C60.7595 6.18009 60.9157 6.2148 61.0545 6.24951L67.753 7.82C68.3603 7.96751 69.0806 8.36664 69.9135 9.06946L70.6857 9.76361L75.8745 3.12586C76.2129 2.69202 76.5252 2.34495 76.8202 2.03259C76.9764 1.87641 77.1066 1.73758 77.2367 1.61611C77.3669 1.48595 77.497 1.38183 77.6185 1.28638C77.74 1.19962 77.8615 1.11284 77.9829 1.05211C78.3213 0.791803 78.599 0.731067 78.8332 0.783128L85.3929 2.31892C86.5382 2.5879 87.189 4.0109 86.625 6.4057L83.51 19.6899C83.4753 19.8547 83.5361 20.0282 83.6662 20.1324L91.4146 26.3102C93.0285 27.5944 92.4211 30.1627 90.4081 30.5966L80.7161 32.6877C80.5512 32.7224 80.4124 32.8525 80.3777 33.0174L77.2627 46.3102C76.6987 48.7137 75.4927 49.7029 74.3387 49.4252" fill="#011C58"/>
<path d="M18.4339 18.8222C21.6009 19.5684 24.9155 17.0434 25.8178 13.1909C26.7202 9.34712 24.8808 5.6161 21.7051 4.87857C18.538 4.13237 15.2235 6.65732 14.3298 10.5098C13.4274 14.3536 15.2669 18.0847 18.4426 18.8222H18.4339Z" fill="#011C58"/>
<path d="M57.8094 25.9024L20.1955 16.5315C18.1911 16.0629 17.0284 13.7029 17.6011 11.2647C18.1738 8.83518 20.2649 7.24733 22.2605 7.71587L60.1261 16.0109L61.0632 21.0608C61.1152 21.3211 61.0632 21.5727 60.8983 21.7809L57.8007 25.8851L57.8181 25.9024H57.8094Z" fill="#60BBE3"/>
<path d="M7.88305 2.01525C4.86353 1.30375 1.73119 3.69855 0.872189 7.36015C0.0131873 11.0218 1.76592 14.5619 4.76809 15.2647L18.4167 18.8222C15.2496 18.076 13.4015 14.3536 14.3039 10.5098C15.2063 6.66601 18.5121 4.14106 21.6878 4.87859L7.87437 2.00657L7.88305 2.01525Z" fill="#60BBE3"/>
<path d="M18.2517 9.66812C19.1714 8.19307 20.7333 7.3601 22.2604 7.71585L60.1259 16.0109L60.6812 18.9523L18.2604 9.65077V9.65945L18.2517 9.66812Z" fill="#011C58"/>
<path d="M2.77246 3.77661C4.15207 2.30155 6.04362 1.58138 7.8831 2.01522L21.6966 4.88725C19.8137 4.44473 17.8788 5.1649 16.4297 6.61392L2.77246 3.77661Z" fill="#011C58"/>
<path d="M67.7962 47.8807C67.1888 47.7332 66.5988 46.6226 66.1649 44.4968L64.4643 36.2452L63.8569 33.3037C63.8309 33.1215 63.6313 33 63.4491 33.0608L56.7419 34.9523C54.8764 35.4209 53.7137 35.1779 53.2278 34.4925C52.6118 33.6161 53.0977 31.9935 54.6508 30.1107L57.8092 25.9198L60.9068 21.8157C61.063 21.6074 61.1151 21.3558 61.0717 21.0955L60.1346 16.0456L59.1714 10.8569C58.6682 8.69636 58.8591 7.13454 59.5966 6.49246C59.666 6.4404 59.7354 6.3623 59.8222 6.3276C59.9524 6.25818 60.0999 6.20613 60.2647 6.18878C60.3689 6.17142 60.4729 6.16274 60.6031 6.18009C60.7332 6.18009 60.8721 6.19745 61.0196 6.24951H61.0456C61.6356 6.40569 62.3384 6.82218 63.1541 7.4903L68.3254 12.1584C68.4556 12.2799 68.6812 12.2712 68.794 12.1237L70.6508 9.75494L75.8395 3.11719C76.1692 2.68335 76.4903 2.33628 76.7766 2.02392C76.9328 1.86773 77.063 1.72889 77.1931 1.60742C77.3233 1.47727 77.4534 1.37316 77.5749 1.27771C77.6964 1.19094 77.8265 1.10417 77.9393 1.04343C78.3038 0.80916 78.5814 0.739752 78.8157 0.791813C79.4924 0.947995 79.6486 2.28422 79.0933 4.65298L75.9784 17.9371C75.9437 18.102 76.0044 18.2755 76.1346 18.3797L83.8916 24.5575C85.5055 25.8417 84.8981 28.41 82.8851 28.8439L73.1931 30.935C73.0196 30.9697 72.8894 31.0998 72.8547 31.2647L69.7398 44.5575C69.1845 46.935 68.4729 48.0369 67.7701 47.8894" fill="#60BBE3"/>
<path d="M71.1194 16.948L68.3689 16.3059C68.4817 16.332 68.6032 16.2886 68.6899 16.1931L69.2453 15.5077L74.434 9.06083C75.2149 8.10638 75.6053 8.29726 75.319 9.50334L74.486 13.0695L71.4578 16.8439C71.3797 16.9394 71.2496 16.9827 71.1455 16.9567" fill="#011C58"/>
<path d="M67.5186 38.4924L65.7399 30.4317L65.549 29.5553C65.523 29.4339 65.4275 29.3384 65.3147 29.3124L68.0653 29.9631C68.1781 29.9892 68.2735 30.0846 68.2995 30.2061L69.3407 34.9263L68.4991 38.4924C68.2215 39.6985 67.7616 39.6898 67.51 38.4924H67.5186Z" fill="#011C58"/>
<path d="M58.2085 30.8222C57.3929 30.9957 57.15 30.6052 57.6532 29.9458L63.4493 22.4057C63.6142 22.1974 63.6836 21.9198 63.6229 21.6595L61.792 12.4013C61.6359 11.5944 62.035 11.3514 62.6771 11.8634L64.6207 13.3992L66.3821 22.3189C66.4342 22.5792 66.3821 22.8395 66.2085 23.0651L60.6207 30.3102L58.1912 30.8308V30.8222H58.2085Z" fill="#011C58"/>
</svg>
