<svg width="523" height="344" viewBox="0 0 523 344" fill="none" xmlns="http://www.w3.org/2000/svg">
<g clip-path="url(#clip0_66_17092)">
<path d="M504.347 220.408L497.787 218.872C497.18 218.725 496.59 217.614 496.156 215.479L494.456 207.228L493.458 207.505C492.399 207.774 491.575 207.809 490.968 207.662L484.269 206.091C484.269 206.091 484.243 206.091 484.226 206.082C484.148 206.065 484.043 206.039 483.983 206.013C483.957 206.013 483.931 206.004 483.913 205.996C483.827 205.978 483.757 205.926 483.688 205.883C483.662 205.883 483.644 205.874 483.618 205.857C483.549 205.813 483.479 205.77 483.436 205.709C483.419 205.709 483.41 205.692 483.401 205.675C483.341 205.614 483.28 205.562 483.245 205.492C482.629 204.616 483.115 202.993 484.668 201.111L487.826 196.92L490.924 192.816C491.089 192.607 491.15 192.356 491.098 192.095L490.161 187.046L489.197 181.857C488.694 179.696 488.885 178.134 489.623 177.492C489.692 177.44 489.77 177.362 489.848 177.328C489.978 177.258 490.126 177.206 490.291 177.189C490.395 177.171 490.516 177.171 490.629 177.18C490.759 177.18 490.915 177.215 491.054 177.249L497.753 178.82C498.36 178.967 499.08 179.367 499.913 180.069L500.685 180.764L505.874 174.126C506.213 173.692 506.525 173.345 506.82 173.033C506.976 172.876 507.106 172.738 507.236 172.616C507.367 172.486 507.497 172.382 507.618 172.286C507.74 172.2 507.861 172.113 507.983 172.052C508.321 171.792 508.599 171.731 508.833 171.783L515.393 173.319C516.538 173.588 517.189 175.011 516.625 177.406L513.51 190.69C513.475 190.855 513.536 191.028 513.666 191.132L521.414 197.31C523.028 198.594 522.421 201.163 520.408 201.597L510.716 203.688C510.551 203.722 510.412 203.852 510.377 204.017L507.262 217.31C506.699 219.714 505.492 220.703 504.338 220.425" fill="#011C58"/>
<path d="M448.434 189.822C451.601 190.568 454.915 188.043 455.818 184.191C456.72 180.347 454.881 176.616 451.705 175.879C448.538 175.132 445.223 177.657 444.33 181.51C443.427 185.354 445.267 189.085 448.443 189.822H448.434Z" fill="#011C58"/>
<path d="M487.809 196.902L450.195 187.531C448.191 187.063 447.028 184.703 447.601 182.265C448.174 179.835 450.265 178.247 452.26 178.716L490.126 187.011L491.063 192.061C491.115 192.321 491.063 192.573 490.898 192.781L487.8 196.885L487.818 196.902H487.809Z" fill="#60BBE3"/>
<path d="M437.883 173.015C434.863 172.304 431.731 174.698 430.872 178.36C430.013 182.022 431.766 185.562 434.768 186.265L448.417 189.822C445.25 189.076 443.401 185.354 444.304 181.51C445.206 177.666 448.512 175.141 451.688 175.878L437.874 173.006L437.883 173.015Z" fill="#60BBE3"/>
<path d="M448.252 180.668C449.171 179.193 450.733 178.36 452.26 178.716L490.126 187.011L490.681 189.952L448.26 180.651V180.659L448.252 180.668Z" fill="#011C58"/>
<path d="M432.772 174.777C434.152 173.301 436.044 172.581 437.883 173.015L451.696 175.887C449.814 175.445 447.879 176.165 446.43 177.614L432.772 174.777Z" fill="#011C58"/>
<path d="M497.796 218.881C497.189 218.733 496.599 217.623 496.165 215.497L494.464 207.245L493.857 204.304C493.831 204.121 493.631 204 493.449 204.061L486.742 205.952C484.876 206.421 483.714 206.178 483.228 205.492C482.612 204.616 483.098 202.993 484.651 201.111L487.809 196.92L490.907 192.816C491.063 192.607 491.115 192.356 491.072 192.095L490.135 187.046L489.171 181.857C488.668 179.696 488.859 178.134 489.597 177.492C489.666 177.44 489.735 177.362 489.822 177.328C489.952 177.258 490.1 177.206 490.265 177.189C490.369 177.171 490.473 177.163 490.603 177.18C490.733 177.18 490.872 177.197 491.02 177.249H491.046C491.636 177.406 492.338 177.822 493.154 178.49L498.325 183.158C498.456 183.28 498.681 183.271 498.794 183.124L500.651 180.755L505.84 174.117C506.169 173.683 506.49 173.336 506.777 173.024C506.933 172.868 507.063 172.729 507.193 172.607C507.323 172.477 507.453 172.373 507.575 172.278C507.696 172.191 507.827 172.104 507.939 172.043C508.304 171.809 508.581 171.74 508.816 171.792C509.492 171.948 509.649 173.284 509.093 175.653L505.978 188.937C505.944 189.102 506.004 189.275 506.135 189.38L513.892 195.557C515.505 196.842 514.898 199.41 512.885 199.844L503.193 201.935C503.02 201.97 502.889 202.1 502.855 202.265L499.74 215.557C499.184 217.935 498.473 219.037 497.77 218.889" fill="#60BBE3"/>
<path d="M501.119 187.948L498.369 187.306C498.482 187.332 498.603 187.289 498.69 187.193L499.245 186.508L504.434 180.061C505.215 179.106 505.605 179.297 505.319 180.503L504.486 184.069L501.458 187.844C501.38 187.939 501.249 187.983 501.145 187.957" fill="#011C58"/>
<path d="M497.519 209.492L495.74 201.432L495.549 200.555C495.523 200.434 495.427 200.338 495.315 200.312L498.065 200.963C498.178 200.989 498.273 201.085 498.299 201.206L499.341 205.926L498.499 209.492C498.221 210.698 497.761 210.69 497.51 209.492H497.519Z" fill="#011C58"/>
<path d="M488.208 201.822C487.393 201.996 487.15 201.605 487.653 200.946L493.449 193.406C493.614 193.197 493.683 192.92 493.623 192.659L491.792 183.401C491.636 182.594 492.035 182.351 492.677 182.863L494.62 184.399L496.382 193.319C496.434 193.579 496.382 193.839 496.208 194.065L490.62 201.31L488.191 201.831V201.822H488.208Z" fill="#011C58"/>
<path d="M91.3146 312.72C88.3124 315.766 80.9198 313.345 74.8287 307.341C68.7376 301.336 66.2734 294.03 69.2755 290.994C72.2777 287.948 79.6269 290.325 85.7094 296.321C91.7918 302.317 94.3168 309.683 91.3146 312.72Z" fill="#011C58"/>
<path d="M51.3839 309.119C50.1692 310.351 49.8481 312.278 50.308 314.534C50.9848 317.857 53.3188 321.9 56.9371 325.466C60.5553 329.041 64.6681 331.349 68.026 331.991C70.282 332.408 72.2082 332.078 73.423 330.846L91.3145 312.72C88.3123 315.766 80.9197 313.345 74.8286 307.341C68.7375 301.336 66.2733 294.03 69.2754 290.994L51.3752 309.128L51.3839 309.119Z" fill="#60BBE3"/>
<path d="M50.2993 314.542C50.9761 317.866 53.3102 321.909 56.9284 325.475C60.5466 329.041 64.6594 331.358 68.0173 331.991L66.6117 333.414C64.1648 335.896 58.1952 333.978 53.3015 329.154C48.4165 324.33 46.4468 318.43 48.9024 315.948L50.2993 314.534V314.542Z" fill="#60BBE3"/>
<path d="M90.6812 304.521C88.8938 306.334 84.4773 304.876 80.8244 301.276C77.1714 297.683 75.6877 293.328 77.4838 291.506C79.2799 289.683 83.6617 291.115 87.3059 294.707C90.9502 298.299 92.4686 302.699 90.6812 304.512V304.521Z" fill="#011C58"/>
<path d="M77.4924 291.514C75.7049 293.328 77.1887 297.701 80.8329 301.293C84.4772 304.885 88.9023 306.343 90.6898 304.529L86.872 308.391C85.0846 310.204 80.6681 308.755 77.0151 305.154C73.3622 301.553 71.8785 297.189 73.6746 295.375L77.4924 291.514Z" fill="#60BBE3"/>
<path d="M457.805 294.794L469.397 310.065L455.375 311.141L443.809 295.896L457.805 294.803V294.794Z" fill="#60BBE3"/>
<path d="M455.375 311.132L455.965 341.102L453.813 344L430.655 313.579L443.809 295.896L455.375 311.141V311.132Z" fill="#011C58"/>
<path d="M467.809 342.959L453.813 344L455.965 341.102L469.961 340.061L467.8 342.959H467.809Z" fill="#011C58"/>
<path d="M469.961 340.061L455.965 341.102L455.375 311.132L469.397 310.056L469.961 340.061Z" fill="#60BBE3"/>
<path d="M453.657 296.174C452.616 297.579 454.074 300.425 456.911 302.534C459.748 304.642 462.898 305.206 463.939 303.818C464.98 302.421 463.531 299.566 460.694 297.449C457.857 295.341 454.707 294.768 453.657 296.174Z" fill="#60BBE3"/>
<path d="M461.753 306.75C460.711 308.156 457.562 307.583 454.724 305.475C451.887 303.367 450.438 300.521 451.471 299.115L453.657 296.173C452.607 297.579 454.065 300.425 456.902 302.534C459.74 304.642 462.898 305.206 463.93 303.809L461.744 306.75H461.753Z" fill="#011C58"/>
<path d="M63.2365 149.701C59.3406 148.304 54.9501 150.612 53.4317 154.846C51.9133 159.072 53.8395 163.636 57.7441 165.041C61.6399 166.438 66.0304 164.13 67.5488 159.896C69.0673 155.662 67.141 151.098 63.2365 149.701Z" fill="#011C58"/>
<path d="M63.2365 149.701L65.5705 150.534C67.7311 151.306 69.2842 153.05 69.9784 155.176C70.5423 156.885 70.551 158.846 69.8829 160.729C69.2061 162.612 67.9653 164.122 66.4382 165.076C64.5467 166.273 62.2387 166.638 60.0781 165.866L57.7441 165.033C60.0261 165.848 62.4816 165.406 64.4165 164.026C65.7961 163.063 66.9154 161.64 67.5488 159.887C68.1823 158.126 68.217 156.312 67.7658 154.707C67.1324 152.417 65.5185 150.516 63.2365 149.701Z" fill="#60BBE3"/>
<path d="M69.9783 155.184C72.1822 156.278 73.2234 159.028 72.295 161.597C71.3665 164.165 68.8242 165.64 66.4294 165.085C67.9566 164.13 69.206 162.62 69.8741 160.729C70.5509 158.846 70.5422 156.885 69.9696 155.176" fill="#011C58"/>
<path d="M50.7332 139.931L63.8352 152.477L62.2213 162.742L57.4143 162.282L55.0629 160.182L55.9219 167.063C56.0174 167.748 55.4187 168.243 54.8286 168.174C54.8286 168.174 54.8113 168.174 54.8026 168.174L50.0391 167.714C49.8482 167.705 49.6573 167.627 49.4751 167.479L36.6855 156.538L37.744 162.629C37.8655 163.332 37.2668 163.861 36.6508 163.792L31.8872 163.341C31.7224 163.323 31.5575 163.263 31.4013 163.15L1.32756 141.44C0.00868922 140.477 -0.338382 138.239 0.338407 136.59C0.885045 135.28 1.52713 134.594 2.41216 134.716L7.17572 135.176C7.42735 135.193 7.67897 135.289 7.95663 135.427C8.84166 135.896 19.41 141.718 26.0044 145.354L24.0694 134.473C23.948 133.77 24.538 133.25 25.1453 133.302H25.1714L29.8829 133.753H29.9523C30.1519 133.77 30.3514 133.857 30.525 134.013L45.2148 147.367L44.2603 140.321C44.1649 139.627 44.7549 139.132 45.3536 139.193H45.3796L50.0911 139.644H50.1519C50.3601 139.662 50.5683 139.748 50.7419 139.922" fill="#011C58"/>
<path d="M62.2126 162.751L63.8265 152.486L50.7419 139.948C50.0564 139.297 48.9371 139.861 49.0672 140.798L50.4902 151.332C50.5336 151.662 50.1432 151.87 49.9002 151.644L30.5423 134.039C29.8395 133.397 28.7202 134.013 28.8937 134.95L31.1236 147.523C31.1757 147.809 30.8633 148.043 30.5944 147.896C26.9414 145.883 9.12798 136.061 7.96529 135.445C6.67245 134.759 5.81345 135.427 5.14533 137.076C4.46854 138.725 4.80694 140.955 6.13449 141.909L36.2169 163.618C36.9371 164.139 37.9349 163.523 37.7787 162.638L36.3124 154.204C36.1996 153.545 36.9718 153.111 37.4837 153.545L54.308 167.948C54.9935 168.538 56.0607 167.965 55.9479 167.072L54.7766 157.761C54.6898 157.111 55.4707 156.703 55.9566 157.145L62.2299 162.759L62.2126 162.751Z" fill="#60BBE3"/>
<path d="M400.382 36.1215C403.427 33.7006 408.035 34.4295 410.655 37.7353C413.284 41.0325 412.954 45.6833 409.9 48.1041C406.855 50.5249 402.256 49.7961 399.627 46.4902C396.989 43.1844 397.328 38.5423 400.373 36.1215H400.382Z" fill="#011C58"/>
<path d="M400.382 36.1127L398.551 37.5617C396.868 38.8979 396.009 40.9196 396.035 43.0194C396.052 44.7114 396.633 46.4554 397.805 47.9305C398.976 49.4055 400.538 50.3686 402.187 50.7591C404.234 51.2537 406.395 50.8806 408.078 49.5443L409.909 48.0953C408.13 49.5183 405.805 49.8567 403.67 49.2146C402.152 48.7808 400.729 47.8524 399.636 46.4728C398.542 45.0932 397.961 43.4966 397.874 41.9261C397.744 39.6962 398.603 37.5183 400.382 36.104" fill="#60BBE3"/>
<path d="M396.043 43.0282C394.412 44.6594 394.325 47.4273 395.922 49.4317C397.518 51.436 400.226 51.9827 402.195 50.7592C400.555 50.3688 398.985 49.4056 397.813 47.9306C396.642 46.4642 396.052 44.7115 396.043 43.0195" fill="#011C58"/>
<path d="M408.547 23.6529L400.694 38.7679L405.232 47.4099L409.362 45.5531L410.811 42.9761L412.13 49.3535C412.252 49.9869 412.928 50.2473 413.44 50.013C413.44 50.013 413.449 50.0043 413.466 50.0043L417.562 48.1561C417.727 48.0867 417.883 47.9653 417.987 47.7744L426.048 34.1778L426.95 39.9219C427.054 40.5813 427.74 40.8763 428.278 40.6247L432.382 38.7765C432.521 38.7158 432.651 38.603 432.755 38.4642L452.937 10.065C453.822 8.80691 453.449 6.7158 452.356 5.45767C451.479 4.45984 450.698 4.03467 449.944 4.41645L445.848 6.26461C445.631 6.36005 445.44 6.51624 445.232 6.72448C444.59 7.40995 436.946 15.783 432.182 21.0065L430.612 10.7418C430.508 10.0824 429.822 9.79606 429.293 10.0303L429.275 10.0477L425.223 11.8698L425.163 11.8958C424.989 11.9739 424.842 12.1041 424.737 12.295L415.714 28.6073L414.438 22.0564C414.317 21.4143 413.631 21.154 413.128 21.3883L413.111 21.4056L409.059 23.2277L409.006 23.2451C408.824 23.3232 408.668 23.462 408.564 23.6702" fill="#011C58"/>
<path d="M405.241 47.4187L400.703 38.7766L408.547 23.6703C408.954 22.8894 410.126 23.0543 410.291 23.9219L412.208 33.718C412.269 34.0217 412.677 34.0911 412.833 33.8135L424.729 12.3037C425.163 11.5228 426.343 11.7311 426.473 12.6161L428.295 24.4773C428.338 24.7549 428.685 24.859 428.876 24.6508C431.514 21.7614 444.382 7.63561 445.232 6.7419C446.178 5.74407 447.141 6.07379 448.234 7.3406C449.336 8.59874 449.709 10.6898 448.816 11.9393L428.633 40.3384C428.147 41.0239 427.08 40.7723 426.941 39.9393L425.692 31.9914C425.596 31.3753 424.772 31.2191 424.451 31.7571L413.848 49.6573C413.414 50.3948 412.295 50.2039 412.13 49.371L410.351 40.7376C410.23 40.1302 409.414 40.0087 409.119 40.5467L405.232 47.436L405.241 47.4187Z" fill="#60BBE3"/>
<path d="M105.215 0L133.51 22.5683L120.85 26.8373L92.6249 4.15618L105.224 0H105.215Z" fill="#011C58"/>
<path d="M120.85 26.8372L133.51 22.5683L125.484 41.9696L112.868 46.1431L84.5988 23.5574L92.6248 4.16479L120.859 26.8459L120.85 26.8372Z" fill="#60BBE3"/>
<path d="M120.85 26.8372L112.859 46.1431L84.5901 23.5574L92.6161 4.16479L120.85 26.8459V26.8372Z" fill="#60BBE3"/>
<path d="M125.484 41.9697L112.868 46.1432L120.859 26.8373L133.519 22.5684L125.493 41.9697H125.484Z" fill="#60BBE3"/>
<path d="M115.896 13.5098C115.245 15.0889 117.224 17.397 120.321 18.6725C123.419 19.9479 126.447 19.7137 127.098 18.1345C127.749 16.5553 125.77 14.2473 122.673 12.9718C119.575 11.6963 116.547 11.9306 115.896 13.5098Z" fill="#011C58"/>
<path d="M115.896 13.5098L114.62 16.59C113.97 18.1692 115.948 20.4772 119.046 21.7527C122.143 23.0282 125.171 22.7939 125.822 21.2148L127.098 18.1345C126.447 19.7137 123.41 19.9479 120.321 18.6725C117.223 17.397 115.245 15.0803 115.896 13.5098Z" fill="#60BBE3"/>
<path d="M101.683 2.20383C101.033 3.78301 103.011 6.09104 106.109 7.36652C109.206 8.64201 112.234 8.40774 112.885 6.82856C113.536 5.24939 111.549 2.94136 108.46 1.66587C105.371 0.390384 102.334 0.624658 101.683 2.19516V2.20383Z" fill="#011C58"/>
<path d="M100.417 5.28412C99.7658 6.86329 101.744 9.17132 104.842 10.4468C107.939 11.7223 110.968 11.488 111.618 9.90885L112.894 6.82859C112.243 8.40776 109.206 8.64204 106.117 7.36655C103.02 6.09106 101.041 3.77436 101.692 2.20386L100.417 5.28412Z" fill="#60BBE3"/>
<path d="M268.694 304.746C271.254 321.302 280.894 329.518 296.642 329.518C312.39 329.518 322.022 321.302 324.59 304.746V267.02L352.581 309.033H366.265V249.857H380.148V237.302L330.464 210.082L330.004 207.974L354.43 220.764H374.074V178.993L399.132 121.345V117.77H378.629L354.065 129.137L349.874 117.77H329.371C329.371 117.77 313.197 130.69 313.18 130.69L312.876 129.284L345.05 102.751V90.1952C345.05 90.1952 326.23 90.1952 326.23 90.1779L340.59 72.2603V59.705H334.499L345.05 43.5662V31.0109H305.683C305.683 31.0109 289.154 83.5141 289.145 83.5141V14.4816H272.304C272.304 14.4816 269.744 50.8894 269.727 50.8981C269.727 50.8981 252.746 50.8981 252.729 50.8981L250.213 14.4902H233.371V81.8568H233.328L217.718 31.0456H176.269V43.6009L190.152 64.5119V102.777C190.152 102.777 205.631 117.787 205.631 117.796H198.039V136.304L172.295 121.735C172.295 121.735 172.226 121.692 172.191 121.675C168.148 119.288 162.985 117.796 156.521 117.796H123.21V220.79H142.855L198.039 198.004V212.156C198.039 212.156 152.738 240.963 152.703 240.989C148.174 244.009 145.05 248.642 144.095 253.952V261.527C144.989 268.304 148.659 273.085 155.601 276.772L159.167 278.672L143.106 295.401C145.388 305.562 152.92 312.243 165.518 312.243C174.386 312.243 181.128 308.755 184.512 302.62C184.512 302.62 201.918 272.963 201.944 272.92V325.614H218.785L227.818 292.755H230.499C245.267 292.755 251.983 283.557 253.935 275.098L257.753 220.729C257.753 220.729 261.397 220.729 261.397 220.738V220.798H264.191V225.119C264.191 225.119 264.191 225.154 264.2 225.171V225.284C264.2 225.284 264.2 225.319 264.208 225.336L268.703 304.781L268.694 304.746Z" fill="#011C58"/>
<path d="M123.21 117.779H156.521C173.753 117.779 181.718 128.364 183.861 138.239V161.839C181.588 171.705 173.753 182.438 156.521 182.438H142.855V220.772H123.21V117.779ZM164.781 155.974V144.243C163.644 139.384 160.078 135.8 153.102 135.8H142.855V164.408H153.102C160.078 164.408 163.636 160.833 164.781 155.965V155.974Z" fill="#60BBE3"/>
<path d="M198.048 117.779H217.692V202.75H248.729V220.772H198.048V117.779Z" fill="#60BBE3"/>
<path d="M261.397 217.197L283.037 117.779H310.377L332.017 217.197V220.772H312.937L308.876 199.028H284.529L280.469 220.772H261.388V217.197H261.397ZM305.492 181.006L297.84 140.095H295.566L287.913 181.006H305.492Z" fill="#60BBE3"/>
<path d="M354.43 179.002L329.371 121.354V117.779H349.874L363.115 153.683H365.388L378.629 117.779H399.132V121.354L374.074 179.002V220.772H354.43V179.002Z" fill="#60BBE3"/>
<path d="M190.161 43.5835H176.278V31.0282H217.727V43.5835H203.844V102.759H190.161V43.5835Z" fill="#60BBE3"/>
<path d="M233.38 14.4816H250.221V50.8981H272.312V14.4816H289.154V102.768H272.312V66.3514H250.221V102.768H233.38V14.4816Z" fill="#60BBE3"/>
<path d="M305.683 31.0369H345.05V43.5922H319.367V59.731H340.59V72.2863H319.367V90.2213H345.05V102.777H305.683V31.0369Z" fill="#60BBE3"/>
<path d="M143.098 295.384L156.087 290.898C157.371 297.171 160.746 299.662 165.111 299.662C168.677 299.662 171.957 297.675 173.241 293.787V289.102C172.547 286.117 170.759 284.816 166.994 282.829L155.592 276.755C148.651 273.067 144.981 268.286 144.087 261.51V253.935C145.77 244.573 154.204 237.302 165.206 237.302C177.206 237.302 184.338 243.479 186.525 252.243L173.735 257.128C172.547 251.852 169.371 249.857 165.31 249.857C161.84 249.857 159.158 251.653 158.169 255.037V258.62C158.664 262.004 161.041 264.2 164.017 265.692L172.746 270.178C181.475 274.664 185.935 278.143 186.725 285.223V295.688C185.336 306.048 177.31 312.226 165.51 312.226C152.92 312.226 145.38 305.553 143.098 295.384Z" fill="#60BBE3"/>
<path d="M201.935 237.31H230.49C245.258 237.31 252.095 246.386 253.926 254.846V275.08C251.974 283.54 245.258 292.738 230.49 292.738H218.777V325.597H201.935V237.31ZM237.571 270.048V259.991C236.599 255.818 233.544 252.755 227.566 252.755H218.777V277.275H227.566C233.544 277.275 236.599 274.213 237.571 270.039V270.048Z" fill="#60BBE3"/>
<path d="M268.694 304.746V262.074C271.254 245.518 280.894 237.302 296.642 237.302C312.391 237.302 322.022 245.518 324.59 262.074V304.746C322.03 321.302 312.382 329.518 296.642 329.518C280.902 329.518 271.263 321.302 268.694 304.746ZM307.748 303.887V262.811C307.011 256.069 302.378 252.755 296.642 252.755C290.907 252.755 286.265 256.069 285.536 262.811V303.887C286.273 310.629 290.907 314.065 296.642 314.065C302.378 314.065 307.02 310.629 307.748 303.887Z" fill="#60BBE3"/>
<path d="M352.581 249.857H338.698V237.302H380.148V249.857H366.265V309.033H352.581V249.857Z" fill="#60BBE3"/>
</g>
<defs>
<clipPath id="clip0_66_17092">
<rect width="522.343" height="344" fill="white"/>
</clipPath>
</defs>
</svg>
