<svg width="207" height="174" viewBox="0 0 207 174" fill="none" xmlns="http://www.w3.org/2000/svg">
<g clip-path="url(#clip0_104_1234)">
<path d="M21.9603 49.3232L11.5861 6.32239V3.78906H24.3622L29.6698 31.6118H30.9401L36.6346 3.78906H51.1775L56.872 31.6118H58.135L63.4426 3.78906H76.2187V6.32239L65.8518 49.3232H49.9145L44.5412 20.5514H43.2782L37.9049 49.3232H21.9676H21.9603Z" fill="white"/>
<path d="M79.5698 37.5617V26.9392C82.1616 18.7187 88.5496 14.1631 96.96 14.1631C105.37 14.1631 111.758 18.7114 114.35 26.9392V37.5617C111.758 45.7822 105.37 50.3378 96.96 50.3378C88.5496 50.3378 82.1616 45.7895 79.5698 37.5617ZM102.968 36.4228V28.0708C102.085 25.5375 99.8072 24.0263 96.96 24.0263C94.1127 24.0263 91.8349 25.5448 90.9515 28.0708V36.4228C91.8349 38.9561 94.1127 40.4673 96.96 40.4673C99.8072 40.4673 102.085 38.9488 102.968 36.4228Z" fill="white"/>
<path d="M143.18 15.1777V25.2964H136.982C133.631 25.2964 132.237 26.4937 131.675 29.0271V49.3229H119.658V15.1777H129.776L131.631 19.4705C132.923 16.4919 135.274 15.1777 138.377 15.1777H143.18Z" fill="white"/>
<path d="M161.082 49.3232C152.423 49.3232 147.553 44.7749 147.553 36.9924V0H159.57V35.6053C159.57 37.8831 160.519 39.2045 163.053 39.2045H166.783V49.3232H161.089H161.082Z" fill="white"/>
<path d="M170.31 38.3211V26.1801C171.573 18.7846 177.077 14.1633 184.597 14.1633C188.583 14.1633 191.934 15.7475 194.015 18.2735V0H206.032V49.3232H195.855L194.146 45.2786C192 48.5639 188.328 50.338 183.582 50.338C176.625 50.338 171.631 45.8481 170.302 38.3211H170.31ZM194.022 36.423V28.0783C193.007 25.3552 191.051 24.0337 188.014 24.0337C184.977 24.0337 182.954 25.3625 182.005 28.0783V36.423C183.268 39.2702 185.042 40.4675 188.014 40.4675C190.985 40.4675 192.883 39.1972 194.022 36.423Z" fill="white"/>
<path d="M63.3623 108.166V62.6323H83.4683C91.7545 62.6323 97.3834 66.2973 98.9603 72.6269V84.7022C97.3176 91.0246 91.8787 94.4413 83.4683 94.4413H76.007V108.166H63.3623ZM76.007 83.3808H82.3951C84.797 83.3808 86.2498 82.6215 86.9434 80.6576V76.7372C86.2498 74.7733 84.797 74.014 82.3951 74.014H76.007V83.3735V83.3808Z" fill="white"/>
<path d="M117.11 108.166C108.451 108.166 103.582 103.618 103.582 95.8357V58.8433H115.599V94.4485C115.599 96.7263 116.548 98.0478 119.081 98.0478H122.812V108.166H117.117H117.11Z" fill="white"/>
<path d="M125.9 101.968V94.3757C127.163 89.4404 132.156 87.1042 138.479 87.1042C141.26 87.1042 143.786 87.6079 145.816 88.4913V87.2867C145.816 85.0089 144.867 83.87 142.333 83.87H129.054V74.0068H144.29C152.949 74.0068 157.818 78.3726 157.818 86.1478V108.152H147.699L145.801 103.852C144.473 107.079 141.187 109.159 136.632 109.159C130.689 109.159 127.272 106.32 125.878 101.954H125.885L125.9 101.968ZM145.816 98.3618V97.347C145.122 96.2081 143.414 95.5146 141.326 95.5146C139.238 95.5146 137.785 96.1424 136.96 97.347V98.3618C137.588 99.5591 139.107 100.194 141.326 100.194C143.545 100.194 145.246 99.5007 145.816 98.3618Z" fill="white"/>
<path d="M164.411 122.082V111.963H169.85C172.127 111.963 173.201 111.204 173.201 109.561C173.201 108.802 172.821 107.729 172.376 106.59L161.498 76.5548V74.0215H173.383L179.202 95.5803H180.472L186.225 74.0215H198.11V76.5548L185.21 113.109C182.874 119.753 179.647 122.089 172.879 122.089H164.403L164.411 122.082Z" fill="white"/>
<path d="M27.7863 159.585V114.058H46.0598C56.7479 114.058 64.7129 120.315 66.0417 129.74V144.093C64.7787 153.452 56.8721 159.585 46.0598 159.585H27.7863ZM40.431 148.203H45.2348C50.2285 148.203 52.6961 146.619 53.3896 143.012V130.682C52.7545 127.075 50.2285 125.433 45.2348 125.433H40.431V148.196V148.203Z" fill="white"/>
<path d="M70.5973 153.387V145.794C71.8604 140.859 76.854 138.523 83.1764 138.523C85.9579 138.523 88.4839 139.026 90.5135 139.91V138.705C90.5135 136.427 89.5644 135.288 87.0311 135.288H73.7512V125.425H88.9877C97.6463 125.425 102.516 129.791 102.516 137.566V159.57H92.3971L90.4989 155.27C89.1702 158.497 85.8849 160.578 81.3293 160.578C75.3866 160.578 71.9699 157.738 70.5754 153.372H70.5827L70.5973 153.387ZM90.5135 149.78V148.765C89.82 147.627 88.1116 146.933 86.0236 146.933C83.9356 146.933 82.4828 147.568 81.6578 148.765V149.78C82.293 150.978 83.8042 151.613 86.0236 151.613C88.243 151.613 89.9441 150.919 90.5135 149.78Z" fill="white"/>
<path d="M109.108 173.5V163.381H114.547C116.825 163.381 117.898 162.622 117.898 160.979C117.898 160.22 117.519 159.147 117.073 158.008L106.195 127.973V125.439H118.081L123.899 146.998H125.162L130.915 125.439H142.801V127.973L129.901 164.527C127.564 171.171 124.337 173.507 117.57 173.507H109.094H109.101L109.108 173.5Z" fill="white"/>
<path d="M29.4362 101.669C35.671 99.8805 40.65 97.3472 44.5486 92.9449C45.505 91.8644 46.1109 90.7985 44.9428 89.6304C43.782 88.4696 42.7088 89.0463 41.6356 90.0173C33.9626 96.9822 24.9682 99.1431 14.8933 97.2012C13.477 96.9237 12.2067 96.9091 11.7905 98.4642C11.389 99.9316 12.2724 100.8 13.7179 101.217C19.1715 102.808 24.6324 102.874 29.4362 101.662" fill="white"/>
<path d="M13.4186 77.1242C12.4403 73.3571 8.69506 71.1523 5.02283 72.1598C1.39441 73.1527 -0.737381 76.8906 0.240907 80.5263C1.22649 84.2059 4.86222 86.3377 8.53445 85.3959C12.214 84.4468 14.375 80.7892 13.4186 77.1315" fill="white"/>
<path d="M41.3435 76.6202C44.9501 75.6273 47.1038 71.8529 46.1474 68.239C45.1691 64.5741 41.2632 62.3693 37.6056 63.4279C33.9918 64.4719 31.9403 68.2098 32.9624 71.8675C33.9845 75.5032 37.7078 77.6131 41.3435 76.6129" fill="white"/>
</g>
<defs>
<clipPath id="clip0_104_1234">
<rect width="206.032" height="173.5" fill="white"/>
</clipPath>
</defs>
</svg>
