<svg width="46" height="46" viewBox="0 0 46 46" fill="none" xmlns="http://www.w3.org/2000/svg">
<path d="M44.3147 23.7202C41.3125 26.7657 33.9199 24.3449 27.8288 18.3406C21.7377 12.3362 19.2735 5.03038 22.2757 1.9935C25.2778 -1.05205 32.6271 1.3254 38.7095 7.32106C44.7919 13.3167 47.3169 20.6833 44.3147 23.7202Z" fill="#011C58"/>
<path d="M4.38391 20.1193C3.16916 21.3514 2.84811 23.2777 3.30798 25.5336C3.98477 28.8568 6.31883 32.9002 9.93705 36.4664C13.5553 40.0412 17.6681 42.3493 21.026 42.9913C23.282 43.4078 25.2082 43.0781 26.423 41.846L44.3145 23.7202C41.3123 26.7657 33.9197 24.3449 27.8286 18.3406C21.7375 12.3362 19.2733 5.03038 22.2754 1.9935L4.37523 20.128L4.38391 20.1193Z" fill="#60BBE3"/>
<path d="M3.29938 25.5423C3.97617 28.8655 6.31023 32.9089 9.92845 36.475C13.5467 40.0412 17.6595 42.3579 21.0174 42.9913L19.6117 44.4143C17.1649 46.8959 11.1953 44.9783 6.30155 40.154C1.41652 35.3297 -0.553115 29.4295 1.90242 26.948L3.29938 25.5336V25.5423Z" fill="#60BBE3"/>
<path d="M43.6813 15.5206C41.8939 17.3341 37.4774 15.8764 33.8245 12.2755C30.1715 8.68334 28.6878 4.32758 30.4839 2.50546C32.28 0.683333 36.6618 2.11501 40.306 5.7072C43.9503 9.29939 45.4687 13.6985 43.6813 15.512V15.5206Z" fill="#011C58"/>
<path d="M30.4924 2.51407C28.7049 4.32752 30.1887 8.70061 33.8329 12.2928C37.4772 15.885 41.9023 17.3427 43.6898 15.5293L39.872 19.3904C38.0846 21.2039 33.6681 19.7549 30.0151 16.154C26.3622 12.5531 24.8785 8.1887 26.6746 6.37525L30.4924 2.51407Z" fill="#60BBE3"/>
</svg>
