<svg width="233" height="64" viewBox="0 0 233 64" fill="none" xmlns="http://www.w3.org/2000/svg">
<path d="M52.7098 14V3.2H56.9098C58.4848 3.2 59.6398 3.92 59.8948 5.3C59.9098 5.39 59.9098 5.48 59.9098 5.555V6.26C59.9098 6.335 59.9098 6.44 59.8948 6.515C59.7748 7.325 59.4298 7.775 58.7998 8.105C59.6548 8.36 60.3148 9.005 60.5248 9.995C60.5398 10.115 60.5548 10.22 60.5548 10.355V11.375C60.5548 11.48 60.5548 11.585 60.5248 11.675C60.2548 13.115 59.0098 14 57.2548 14H52.7098ZM57.0448 12.71C58.1698 12.71 58.8448 12.275 59.0398 11.435C59.0548 11.33 59.0698 11.21 59.0698 11.09V10.475C59.0698 10.355 59.0548 10.235 59.0398 10.145C58.8298 9.305 58.1698 8.87 57.0448 8.87H54.1948V12.71H57.0448ZM54.1948 7.64H56.7898C57.7798 7.64 58.2448 7.25 58.4398 6.605C58.4698 6.515 58.4848 6.41 58.4848 6.305V5.84C58.4848 5.735 58.4698 5.63 58.4398 5.54C58.2298 4.88 57.7048 4.505 56.7298 4.505H54.1948V7.64ZM62.5068 14V5.9H63.5718L63.8868 6.905C64.2018 6.29 64.7718 5.9 65.5668 5.9H66.4818V7.235H65.4318C64.5618 7.235 63.9618 7.67 63.9018 8.825V14H62.5068ZM70.2349 14.21C68.7649 14.21 67.6549 13.34 67.5349 12.065V11.135C67.7299 9.83 68.8549 9.005 70.5199 9.005C71.3299 9.005 72.0349 9.2 72.6349 9.545V8.735C72.6349 7.64 72.2599 7.19 71.1199 7.19H68.2549V5.9H71.2099C73.2949 5.9 74.0299 6.8 74.0299 8.72V14H72.9649L72.6499 12.935C72.0199 13.805 71.2699 14.21 70.2349 14.21ZM70.5049 12.965C71.3599 12.965 71.9899 12.68 72.6349 11.93V10.805C72.1099 10.37 71.4949 10.16 70.6099 10.16C69.6049 10.16 68.9749 10.595 68.8849 11.375V11.78C68.9599 12.485 69.6349 12.965 70.5049 12.965ZM79.2596 14.21C77.3846 14.21 76.2896 13.1 76.2896 11.165V5.9H77.6846V11.03C77.7446 12.065 78.3746 12.92 79.6046 12.92C80.5796 12.92 81.2996 12.35 81.6446 11.435V5.9H83.0396V14H81.9896L81.6596 12.935C81.2246 13.64 80.4896 14.21 79.2596 14.21ZM88.8816 14.21C86.9016 14.21 85.3716 12.965 84.9816 11.015C84.9666 10.685 84.9516 10.31 84.9516 9.95C84.9516 9.575 84.9666 9.23 84.9816 8.9C85.3866 6.95 86.9166 5.705 88.8816 5.705C90.4116 5.705 91.4616 6.23 92.2266 7.355L91.2066 8.225C90.6066 7.295 89.9316 6.965 88.8366 6.965C87.6066 6.965 86.6166 7.775 86.3616 8.975C86.3466 9.245 86.3316 9.59 86.3316 9.95C86.3316 10.31 86.3466 10.67 86.3616 10.94C86.6316 12.11 87.6516 12.95 88.8366 12.95C89.8116 12.95 90.4866 12.65 91.1766 11.72L92.1516 12.62C91.3566 13.715 90.2916 14.21 88.8816 14.21ZM93.8837 14V2.3H95.2787V6.965C95.7137 6.275 96.4937 5.705 97.7237 5.705C99.6137 5.705 100.724 6.815 100.724 8.75V14H99.3287V8.885C99.2687 7.835 98.6537 6.995 97.3787 6.995C96.4037 6.995 95.6387 7.565 95.2787 8.48V14H93.8837ZM105.514 14.21C104.149 14.21 103.009 13.565 102.409 12.5L103.429 11.645C103.789 12.485 104.674 13.01 105.514 13.01C106.369 13.01 106.984 12.65 107.149 12.05C107.149 11.975 107.164 11.9 107.164 11.825V11.6C107.164 11.555 107.149 11.495 107.149 11.435C107.029 11.015 106.684 10.745 105.829 10.52L104.584 10.205C103.534 9.935 102.919 9.38 102.739 8.54C102.724 8.45 102.709 8.36 102.709 8.27V7.745C102.709 7.67 102.724 7.58 102.739 7.505C102.994 6.455 104.164 5.705 105.604 5.705C106.864 5.705 107.854 6.215 108.514 7.175L107.554 7.97C107.074 7.22 106.444 6.905 105.559 6.905C104.809 6.905 104.224 7.22 104.074 7.73C104.059 7.79 104.059 7.835 104.059 7.895V8.03C104.059 8.075 104.074 8.12 104.074 8.165C104.194 8.63 104.584 8.915 105.334 9.095L106.459 9.365C107.599 9.635 108.214 10.16 108.469 10.925C108.499 11.03 108.529 11.15 108.529 11.27V11.975C108.529 12.125 108.514 12.245 108.469 12.38C108.124 13.49 107.044 14.21 105.514 14.21ZM113.361 14C111.981 14 110.991 13.235 110.991 11.765V7.175H109.761V5.9H110.991V5.135L111.741 3.8H112.386V5.9H114.246V7.175H112.386V11.6C112.386 12.275 112.806 12.71 113.466 12.71H114.186V14H113.361ZM122.68 14.21C120.97 14.21 119.77 13.235 119.335 11.57C119.23 11.075 119.185 10.535 119.185 9.95C119.185 9.395 119.23 8.855 119.32 8.36C119.755 6.71 120.94 5.705 122.785 5.705C123.865 5.705 124.795 6.11 125.41 6.845V2.3H126.805V14H125.755L125.41 12.98C124.765 13.835 123.94 14.21 122.68 14.21ZM123.085 12.95C124.21 12.95 124.93 12.515 125.41 11.435V8.555C124.945 7.55 124.075 6.965 123.085 6.965C121.81 6.965 120.97 7.685 120.655 8.825C120.595 9.185 120.55 9.56 120.55 9.95C120.55 10.355 120.595 10.715 120.655 11.075C120.97 12.245 121.795 12.95 123.085 12.95ZM132.096 14.21C130.221 14.21 129.126 13.1 129.126 11.165V5.9H130.521V11.03C130.581 12.065 131.211 12.92 132.441 12.92C133.416 12.92 134.136 12.35 134.481 11.435V5.9H135.876V14H134.826L134.496 12.935C134.061 13.64 133.326 14.21 132.096 14.21ZM145.424 14.21C143.249 14.21 141.944 12.89 141.539 11.015C141.524 10.88 141.509 10.715 141.509 10.58V9.335C141.509 9.2 141.524 9.05 141.539 8.915C141.959 7.07 143.264 5.705 145.349 5.705C147.404 5.705 148.679 6.935 149.009 8.735C149.039 8.87 149.054 9.035 149.054 9.17V10.19L148.874 10.37H142.889C143.039 11.975 143.954 12.95 145.424 12.95C146.504 12.95 147.164 12.56 147.794 11.735L148.754 12.59C148.019 13.595 146.984 14.21 145.424 14.21ZM142.919 9.245H147.704C147.614 7.895 146.684 6.935 145.364 6.935C143.969 6.935 143.114 7.91 142.919 9.245ZM150.91 14V5.9H152.305V14H150.91ZM151.615 4.46C151.06 4.46 150.61 4.01 150.61 3.455C150.61 2.9 151.06 2.45 151.615 2.45C152.17 2.45 152.605 2.9 152.605 3.455C152.605 4.01 152.17 4.46 151.615 4.46ZM154.689 14V5.9H155.754L156.084 6.965C156.534 6.275 157.359 5.705 158.544 5.705C160.434 5.705 161.529 6.875 161.529 8.81V14H160.134V8.885C160.074 7.835 159.474 6.995 158.199 6.995C157.224 6.995 156.444 7.565 156.084 8.48V14H154.689ZM167.294 14.21C165.119 14.21 163.814 12.89 163.409 11.015C163.394 10.88 163.379 10.715 163.379 10.58V9.335C163.379 9.2 163.394 9.05 163.409 8.915C163.829 7.07 165.134 5.705 167.219 5.705C169.274 5.705 170.549 6.935 170.879 8.735C170.909 8.87 170.924 9.035 170.924 9.17V10.19L170.744 10.37H164.759C164.909 11.975 165.824 12.95 167.294 12.95C168.374 12.95 169.034 12.56 169.664 11.735L170.624 12.59C169.889 13.595 168.854 14.21 167.294 14.21ZM164.789 9.245H169.574C169.484 7.895 168.554 6.935 167.234 6.935C165.839 6.935 164.984 7.91 164.789 9.245ZM11.0038 30V28.74L15.1888 23.385V23.19H11.1538V21.9H16.9588V23.16L12.7738 28.53V28.71H17.1088V30H11.0038ZM21.8816 30.21C20.0066 30.21 18.9116 29.1 18.9116 27.165V21.9H20.3066V27.03C20.3666 28.065 20.9966 28.92 22.2266 28.92C23.2016 28.92 23.9216 28.35 24.2666 27.435V21.9H25.6616V30H24.6116L24.2816 28.935C23.8466 29.64 23.1116 30.21 21.8816 30.21ZM30.5137 30.21C29.1487 30.21 28.0087 29.565 27.4087 28.5L28.4287 27.645C28.7887 28.485 29.6737 29.01 30.5137 29.01C31.3687 29.01 31.9837 28.65 32.1487 28.05C32.1487 27.975 32.1637 27.9 32.1637 27.825V27.6C32.1637 27.555 32.1487 27.495 32.1487 27.435C32.0287 27.015 31.6837 26.745 30.8287 26.52L29.5837 26.205C28.5337 25.935 27.9187 25.38 27.7387 24.54C27.7237 24.45 27.7087 24.36 27.7087 24.27V23.745C27.7087 23.67 27.7237 23.58 27.7387 23.505C27.9937 22.455 29.1637 21.705 30.6037 21.705C31.8637 21.705 32.8537 22.215 33.5137 23.175L32.5537 23.97C32.0737 23.22 31.4437 22.905 30.5587 22.905C29.8087 22.905 29.2237 23.22 29.0737 23.73C29.0587 23.79 29.0587 23.835 29.0587 23.895V24.03C29.0587 24.075 29.0737 24.12 29.0737 24.165C29.1937 24.63 29.5837 24.915 30.3337 25.095L31.4587 25.365C32.5987 25.635 33.2137 26.16 33.4687 26.925C33.4987 27.03 33.5287 27.15 33.5287 27.27V27.975C33.5287 28.125 33.5137 28.245 33.4687 28.38C33.1237 29.49 32.0437 30.21 30.5137 30.21ZM37.6715 30.21C36.2015 30.21 35.0915 29.34 34.9715 28.065V27.135C35.1665 25.83 36.2915 25.005 37.9565 25.005C38.7665 25.005 39.4715 25.2 40.0715 25.545V24.735C40.0715 23.64 39.6965 23.19 38.5565 23.19H35.6915V21.9H38.6465C40.7315 21.9 41.4665 22.8 41.4665 24.72V30H40.4015L40.0865 28.935C39.4565 29.805 38.7065 30.21 37.6715 30.21ZM37.9415 28.965C38.7965 28.965 39.4265 28.68 40.0715 27.93V26.805C39.5465 26.37 38.9315 26.16 38.0465 26.16C37.0415 26.16 36.4115 26.595 36.3215 27.375V27.78C36.3965 28.485 37.0715 28.965 37.9415 28.965ZM43.7861 30V21.9H44.8511L45.1811 22.965C45.6461 22.17 46.5161 21.705 47.5061 21.705C48.5561 21.705 49.3811 22.23 49.8011 23.175C50.3561 22.215 51.2261 21.705 52.3361 21.705C54.0311 21.705 55.0511 22.83 55.0511 24.69V30H53.6561V24.78C53.5961 23.655 52.9661 22.995 51.9311 22.995C51.1211 22.995 50.4761 23.49 50.1161 24.45V30H48.7211V24.78C48.6611 23.61 48.0761 22.995 47.0111 22.995C46.1861 22.995 45.5411 23.49 45.1811 24.45V30H43.7861ZM57.3798 30V21.9H58.4448L58.7748 22.965C59.2398 22.17 60.1098 21.705 61.0998 21.705C62.1498 21.705 62.9748 22.23 63.3948 23.175C63.9498 22.215 64.8198 21.705 65.9298 21.705C67.6248 21.705 68.6448 22.83 68.6448 24.69V30H67.2498V24.78C67.1898 23.655 66.5598 22.995 65.5248 22.995C64.7148 22.995 64.0698 23.49 63.7098 24.45V30H62.3148V24.78C62.2548 23.61 61.6698 22.995 60.6048 22.995C59.7798 22.995 59.1348 23.49 58.7748 24.45V30H57.3798ZM74.4086 30.21C72.2336 30.21 70.9286 28.89 70.5236 27.015C70.5086 26.88 70.4936 26.715 70.4936 26.58V25.335C70.4936 25.2 70.5086 25.05 70.5236 24.915C70.9436 23.07 72.2486 21.705 74.3336 21.705C76.3886 21.705 77.6636 22.935 77.9936 24.735C78.0236 24.87 78.0386 25.035 78.0386 25.17V26.19L77.8586 26.37H71.8736C72.0236 27.975 72.9386 28.95 74.4086 28.95C75.4886 28.95 76.1486 28.56 76.7786 27.735L77.7386 28.59C77.0036 29.595 75.9686 30.21 74.4086 30.21ZM71.9036 25.245H76.6886C76.5986 23.895 75.6686 22.935 74.3486 22.935C72.9536 22.935 72.0986 23.91 71.9036 25.245ZM79.8945 30V21.9H80.9595L81.2895 22.965C81.7395 22.275 82.5645 21.705 83.7495 21.705C85.6395 21.705 86.7345 22.875 86.7345 24.81V30H85.3395V24.885C85.2795 23.835 84.6795 22.995 83.4045 22.995C82.4295 22.995 81.6495 23.565 81.2895 24.48V30H79.8945ZM89.6944 33.3V32.01H93.2194C94.3594 32.01 94.8244 31.635 94.8244 30.54V29.01C94.2094 29.745 93.2644 30.165 92.1844 30.165C90.2644 30.165 88.9444 29.025 88.6144 27.045C88.5544 26.265 88.5844 25.305 88.6744 24.54C89.0794 22.8 90.3844 21.69 92.1394 21.69C93.2794 21.69 94.1944 22.08 94.8244 22.92L95.1544 21.9H96.2044V30.57C96.2044 32.49 95.3044 33.3 93.3844 33.3H89.6944ZM92.4844 28.95C93.4894 28.95 94.3444 28.32 94.8244 27.315V24.48C94.3294 23.415 93.5494 22.965 92.4844 22.965C91.2544 22.965 90.3994 23.61 90.0694 24.825C89.9494 25.44 89.9494 26.1 90.0094 26.73C90.2794 28.11 91.1794 28.95 92.4844 28.95ZM102.021 30.21C99.8459 30.21 98.5409 28.89 98.1359 27.015C98.1209 26.88 98.1059 26.715 98.1059 26.58V25.335C98.1059 25.2 98.1209 25.05 98.1359 24.915C98.5559 23.07 99.8609 21.705 101.946 21.705C104.001 21.705 105.276 22.935 105.606 24.735C105.636 24.87 105.651 25.035 105.651 25.17V26.19L105.471 26.37H99.4859C99.6359 27.975 100.551 28.95 102.021 28.95C103.101 28.95 103.761 28.56 104.391 27.735L105.351 28.59C104.616 29.595 103.581 30.21 102.021 30.21ZM99.5159 25.245H104.301C104.211 23.895 103.281 22.935 101.961 22.935C100.566 22.935 99.7109 23.91 99.5159 25.245ZM107.989 30V23.175H106.549V21.9H107.989V20.55C107.989 19.08 108.964 18.3 110.344 18.3H111.394V19.59H110.464C109.804 19.59 109.384 20.04 109.384 20.715V21.9H111.394V23.175H109.384V30H107.989ZM114.957 30.21C113.487 30.21 112.377 29.34 112.257 28.065V27.135C112.452 25.83 113.577 25.005 115.242 25.005C116.052 25.005 116.757 25.2 117.357 25.545V24.735C117.357 23.64 116.982 23.19 115.842 23.19H112.977V21.9H115.932C118.017 21.9 118.752 22.8 118.752 24.72V30H117.687L117.372 28.935C116.742 29.805 115.992 30.21 114.957 30.21ZM115.227 28.965C116.082 28.965 116.712 28.68 117.357 27.93V26.805C116.832 26.37 116.217 26.16 115.332 26.16C114.327 26.16 113.697 26.595 113.607 27.375V27.78C113.682 28.485 114.357 28.965 115.227 28.965ZM123.531 30.21C122.166 30.21 121.026 29.565 120.426 28.5L121.446 27.645C121.806 28.485 122.691 29.01 123.531 29.01C124.386 29.01 125.001 28.65 125.166 28.05C125.166 27.975 125.181 27.9 125.181 27.825V27.6C125.181 27.555 125.166 27.495 125.166 27.435C125.046 27.015 124.701 26.745 123.846 26.52L122.601 26.205C121.551 25.935 120.936 25.38 120.756 24.54C120.741 24.45 120.726 24.36 120.726 24.27V23.745C120.726 23.67 120.741 23.58 120.756 23.505C121.011 22.455 122.181 21.705 123.621 21.705C124.881 21.705 125.871 22.215 126.531 23.175L125.571 23.97C125.091 23.22 124.461 22.905 123.576 22.905C122.826 22.905 122.241 23.22 122.091 23.73C122.076 23.79 122.076 23.835 122.076 23.895V24.03C122.076 24.075 122.091 24.12 122.091 24.165C122.211 24.63 122.601 24.915 123.351 25.095L124.476 25.365C125.616 25.635 126.231 26.16 126.486 26.925C126.516 27.03 126.546 27.15 126.546 27.27V27.975C126.546 28.125 126.531 28.245 126.486 28.38C126.141 29.49 125.061 30.21 123.531 30.21ZM130.914 30.21C129.549 30.21 128.409 29.565 127.809 28.5L128.829 27.645C129.189 28.485 130.074 29.01 130.914 29.01C131.769 29.01 132.384 28.65 132.549 28.05C132.549 27.975 132.564 27.9 132.564 27.825V27.6C132.564 27.555 132.549 27.495 132.549 27.435C132.429 27.015 132.084 26.745 131.229 26.52L129.984 26.205C128.934 25.935 128.319 25.38 128.139 24.54C128.124 24.45 128.109 24.36 128.109 24.27V23.745C128.109 23.67 128.124 23.58 128.139 23.505C128.394 22.455 129.564 21.705 131.004 21.705C132.264 21.705 133.254 22.215 133.914 23.175L132.954 23.97C132.474 23.22 131.844 22.905 130.959 22.905C130.209 22.905 129.624 23.22 129.474 23.73C129.459 23.79 129.459 23.835 129.459 23.895V24.03C129.459 24.075 129.474 24.12 129.474 24.165C129.594 24.63 129.984 24.915 130.734 25.095L131.859 25.365C132.999 25.635 133.614 26.16 133.869 26.925C133.899 27.03 133.929 27.15 133.929 27.27V27.975C133.929 28.125 133.914 28.245 133.869 28.38C133.524 29.49 132.444 30.21 130.914 30.21ZM138.762 30C137.382 30 136.392 29.235 136.392 27.765V23.175H135.162V21.9H136.392V21.135L137.142 19.8H137.787V21.9H139.647V23.175H137.787V27.6C137.787 28.275 138.207 28.71 138.867 28.71H139.587V30H138.762ZM144.633 30.21C142.458 30.21 141.153 28.89 140.748 27.015C140.733 26.88 140.718 26.715 140.718 26.58V25.335C140.718 25.2 140.733 25.05 140.748 24.915C141.168 23.07 142.473 21.705 144.558 21.705C146.613 21.705 147.888 22.935 148.218 24.735C148.248 24.87 148.263 25.035 148.263 25.17V26.19L148.083 26.37H142.098C142.248 27.975 143.163 28.95 144.633 28.95C145.713 28.95 146.373 28.56 147.003 27.735L147.963 28.59C147.228 29.595 146.193 30.21 144.633 30.21ZM142.128 25.245H146.913C146.823 23.895 145.893 22.935 144.573 22.935C143.178 22.935 142.323 23.91 142.128 25.245ZM156.475 30L152.425 19.455V19.2H154L157.315 28.2H157.495L160.825 19.2H162.385V19.455L158.32 30H156.475ZM166.386 30.21C164.211 30.21 162.906 28.89 162.501 27.015C162.486 26.88 162.471 26.715 162.471 26.58V25.335C162.471 25.2 162.486 25.05 162.501 24.915C162.921 23.07 164.226 21.705 166.311 21.705C168.366 21.705 169.641 22.935 169.971 24.735C170.001 24.87 170.016 25.035 170.016 25.17V26.19L169.836 26.37H163.851C164.001 27.975 164.916 28.95 166.386 28.95C167.466 28.95 168.126 28.56 168.756 27.735L169.716 28.59C168.981 29.595 167.946 30.21 166.386 30.21ZM163.881 25.245H168.666C168.576 23.895 167.646 22.935 166.326 22.935C164.931 22.935 164.076 23.91 163.881 25.245ZM171.872 30V21.9H172.937L173.252 22.905C173.567 22.29 174.137 21.9 174.932 21.9H175.847V23.235H174.797C173.927 23.235 173.327 23.67 173.267 24.825V30H171.872ZM179.928 30.21C178.563 30.21 177.423 29.565 176.823 28.5L177.843 27.645C178.203 28.485 179.088 29.01 179.928 29.01C180.783 29.01 181.398 28.65 181.563 28.05C181.563 27.975 181.578 27.9 181.578 27.825V27.6C181.578 27.555 181.563 27.495 181.563 27.435C181.443 27.015 181.098 26.745 180.243 26.52L178.998 26.205C177.948 25.935 177.333 25.38 177.153 24.54C177.138 24.45 177.123 24.36 177.123 24.27V23.745C177.123 23.67 177.138 23.58 177.153 23.505C177.408 22.455 178.578 21.705 180.018 21.705C181.278 21.705 182.268 22.215 182.928 23.175L181.968 23.97C181.488 23.22 180.858 22.905 179.973 22.905C179.223 22.905 178.638 23.22 178.488 23.73C178.473 23.79 178.473 23.835 178.473 23.895V24.03C178.473 24.075 178.488 24.12 178.488 24.165C178.608 24.63 178.998 24.915 179.748 25.095L180.873 25.365C182.013 25.635 182.628 26.16 182.883 26.925C182.913 27.03 182.943 27.15 182.943 27.27V27.975C182.943 28.125 182.928 28.245 182.883 28.38C182.538 29.49 181.458 30.21 179.928 30.21ZM184.851 30V21.9H186.246V30H184.851ZM185.556 20.46C185.001 20.46 184.551 20.01 184.551 19.455C184.551 18.9 185.001 18.45 185.556 18.45C186.111 18.45 186.546 18.9 186.546 19.455C186.546 20.01 186.111 20.46 185.556 20.46ZM192.095 30.21C190.265 30.21 188.57 29.085 188.195 27.09C188.165 26.925 188.15 26.775 188.15 26.595V25.32C188.15 25.14 188.165 24.975 188.195 24.825C188.57 22.83 190.265 21.705 192.095 21.705C193.94 21.705 195.62 22.83 196.01 24.825C196.025 24.975 196.055 25.14 196.055 25.32V26.595C196.055 26.775 196.025 26.925 196.01 27.09C195.62 29.085 193.94 30.21 192.095 30.21ZM192.095 28.95C193.235 28.95 194.375 28.26 194.63 26.955C194.645 26.82 194.66 26.67 194.66 26.505V25.41C194.66 25.245 194.645 25.095 194.63 24.96C194.375 23.64 193.235 22.965 192.095 22.965C190.955 22.965 189.83 23.64 189.575 24.96C189.545 25.095 189.545 25.245 189.545 25.41V26.505C189.545 26.67 189.545 26.82 189.575 26.955C189.83 28.26 190.955 28.95 192.095 28.95ZM197.946 30V21.9H199.011L199.341 22.965C199.791 22.275 200.616 21.705 201.801 21.705C203.691 21.705 204.786 22.875 204.786 24.81V30H203.391V24.885C203.331 23.835 202.731 22.995 201.456 22.995C200.481 22.995 199.701 23.565 199.341 24.48V30H197.946ZM208.313 26.61L208.208 24.06H208.748C209.708 24.06 210.443 23.67 210.563 22.62C210.578 22.56 210.593 22.515 210.593 22.335V21.81C210.593 21.735 210.578 21.615 210.563 21.555C210.428 20.745 209.798 20.25 208.883 20.25C207.878 20.25 207.203 20.73 206.768 21.705L205.643 21.045C206.183 19.755 207.293 19.005 208.913 19.005C210.653 19.005 211.793 19.92 211.988 21.405C212.003 21.45 212.018 21.585 212.018 21.645V22.395C212.018 22.56 212.003 22.605 212.003 22.635C211.868 24.06 210.938 24.945 209.573 25.11L209.348 26.61H208.313ZM208.838 30.21C208.283 30.21 207.833 29.76 207.833 29.205C207.833 28.65 208.283 28.215 208.838 28.215C209.393 28.215 209.828 28.65 209.828 29.205C209.828 29.76 209.393 30.21 208.838 30.21ZM40.7385 46V35.2H45.1185C46.8735 35.2 48.1035 35.89 48.5385 37.255V40.21C48.0885 41.575 46.8435 42.28 45.1185 42.28H42.9885V46H40.7385ZM44.9385 40.27C45.7185 40.27 46.1685 39.985 46.3785 39.385V38.095C46.1685 37.495 45.7185 37.21 44.9385 37.21H42.9885V40.27H44.9385ZM50.1107 46V37.9H51.7607L52.2107 38.98C52.4957 38.335 52.9907 37.9 53.7707 37.9H54.7007V39.91H53.5457C52.7807 39.91 52.3307 40.3 52.2107 41.065V46H50.1107ZM59.7183 46.24C57.8133 46.24 56.0733 45.085 55.6683 43.255V40.645C56.0733 38.815 57.8133 37.66 59.7183 37.66C61.6233 37.66 63.3633 38.815 63.7683 40.645V43.255C63.3633 45.085 61.6233 46.24 59.7183 46.24ZM59.7183 44.35C60.6333 44.35 61.4733 43.87 61.6683 43.015V40.885C61.4733 40.03 60.6333 39.55 59.7183 39.55C58.8033 39.55 57.9633 40.03 57.7683 40.885V43.015C57.9633 43.87 58.8033 44.35 59.7183 44.35ZM70.1272 46.24C69.0022 46.24 68.1172 45.82 67.5622 45.025L67.1122 46H65.4622V34.3H67.5622V38.695C68.1022 38.035 68.9572 37.66 69.9772 37.66C71.9572 37.66 73.1572 38.74 73.5322 40.51V41.95V43.39C73.1572 45.22 71.9272 46.24 70.1272 46.24ZM69.4972 44.35C70.5172 44.35 71.1922 43.87 71.4322 42.79V41.95V41.11C71.1922 40.105 70.5022 39.55 69.4972 39.55C68.4922 39.55 67.8022 40.105 67.5622 41.11V42.79C67.8022 43.87 68.4772 44.35 69.4972 44.35ZM75.2328 46V37.9H77.3328V46H75.2328ZM76.2828 36.82C75.5178 36.82 74.9028 36.205 74.9028 35.44C74.9028 34.675 75.5178 34.06 76.2828 34.06C77.0478 34.06 77.6628 34.675 77.6628 35.44C77.6628 36.205 77.0478 36.82 76.2828 36.82ZM83.0976 46.24C80.9676 46.24 79.5876 45.22 79.0326 43.18V40.72C79.5876 38.785 81.0726 37.66 82.9926 37.66C85.1226 37.66 86.4276 38.71 86.8326 40.72V42.37L86.6076 42.595H81.0576C81.2376 43.705 81.9426 44.35 83.0976 44.35C83.9526 44.35 84.5376 44.095 85.1676 43.36L86.5626 44.665C85.7526 45.745 84.5526 46.24 83.0976 46.24ZM81.1176 40.975H84.8226C84.6426 40.06 83.9976 39.46 83.0226 39.46C82.0176 39.46 81.3726 40.045 81.1176 40.975ZM88.4603 46V37.9H90.1103L90.5603 38.98C90.8453 38.335 91.3403 37.9 92.1203 37.9H93.0503V39.91H91.8953C91.1303 39.91 90.6803 40.3 90.5603 41.065V46H88.4603ZM101.657 46.24C99.5271 46.24 98.1471 45.22 97.5921 43.18V40.72C98.1471 38.785 99.6321 37.66 101.552 37.66C103.682 37.66 104.987 38.71 105.392 40.72V42.37L105.167 42.595H99.6171C99.7971 43.705 100.502 44.35 101.657 44.35C102.512 44.35 103.097 44.095 103.727 43.36L105.122 44.665C104.312 45.745 103.112 46.24 101.657 46.24ZM99.6771 40.975H103.382C103.202 40.06 102.557 39.46 101.582 39.46C100.577 39.46 99.9321 40.045 99.6771 40.975ZM109.69 46.24C108.4 46.24 107.17 45.715 106.435 44.665L107.89 43.36C108.22 44.065 109.075 44.5 109.72 44.5C110.29 44.5 110.74 44.26 110.875 43.945V43.45C110.755 43.165 110.53 43.03 110.05 42.91L108.655 42.55C107.56 42.265 106.9 41.71 106.72 40.765V39.64C107.05 38.53 108.34 37.66 109.87 37.66C111.19 37.66 112.165 38.11 112.945 39.085L111.58 40.3C111.175 39.685 110.62 39.4 109.825 39.4C109.33 39.4 108.895 39.61 108.775 39.955V40.255C108.895 40.555 109.12 40.735 109.66 40.855L110.785 41.11C112.06 41.395 112.645 41.905 112.945 42.85V44.275C112.585 45.475 111.445 46.24 109.69 46.24ZM116.457 49.3V47.35H117.312C117.927 47.35 118.182 47.005 118.182 46.39V37.9H120.282V46.72C120.282 48.445 119.217 49.3 117.492 49.3H116.457ZM119.232 36.82C118.467 36.82 117.852 36.205 117.852 35.44C117.852 34.675 118.467 34.06 119.232 34.06C119.997 34.06 120.612 34.675 120.612 35.44C120.612 36.205 119.997 36.82 119.232 36.82ZM126.047 46.24C123.917 46.24 122.537 45.22 121.982 43.18V40.72C122.537 38.785 124.022 37.66 125.942 37.66C128.072 37.66 129.377 38.71 129.782 40.72V42.37L129.557 42.595H124.007C124.187 43.705 124.892 44.35 126.047 44.35C126.902 44.35 127.487 44.095 128.117 43.36L129.512 44.665C128.702 45.745 127.502 46.24 126.047 46.24ZM124.067 40.975H127.772C127.592 40.06 126.947 39.46 125.972 39.46C124.967 39.46 124.322 40.045 124.067 40.975ZM134.801 46C133.076 46 132.011 45.145 132.011 43.42V39.85H130.781V37.9H132.011V37.6L133.001 35.8H134.111V37.9H135.971V39.85H134.111V43.09C134.111 43.705 134.366 44.05 134.981 44.05H135.836V46H134.801ZM137.069 46V44.125L140.534 40.09V39.85H137.219V37.9H143.264V39.775L139.799 43.81V44.05H143.414V46H137.069ZM148.571 46C146.846 46 145.781 45.145 145.781 43.42V39.85H144.551V37.9H145.781V37.6L146.771 35.8H147.881V37.9H149.741V39.85H147.881V43.09C147.881 43.705 148.136 44.05 148.751 44.05H149.606V46H148.571ZM157.112 46.24C155.807 46.24 154.742 45.595 154.457 44.53V42.655C154.892 41.59 155.942 41.005 157.412 41.005C158.147 41.005 158.777 41.215 159.317 41.53V40.915C159.317 40.21 158.972 39.85 158.267 39.85H155.162V37.9H158.477C160.667 37.9 161.417 38.92 161.417 40.915V46H159.752L159.347 44.95C158.822 45.79 158.087 46.24 157.112 46.24ZM157.652 44.41C158.387 44.41 158.822 44.29 159.317 43.78V43.315C158.867 42.895 158.432 42.685 157.652 42.685C157.112 42.685 156.662 42.85 156.467 43.18V43.915C156.632 44.245 157.097 44.41 157.652 44.41ZM166.371 46.24C164.481 46.24 163.371 45.07 163.371 43.135V37.9H165.471V42.82C165.621 43.81 166.206 44.29 167.031 44.29C167.901 44.29 168.546 43.765 168.711 42.82V37.9H170.811V46H169.161L168.726 44.95C168.291 45.76 167.436 46.24 166.371 46.24ZM175.549 46.24C174.259 46.24 173.029 45.715 172.294 44.665L173.749 43.36C174.079 44.065 174.934 44.5 175.579 44.5C176.149 44.5 176.599 44.26 176.734 43.945V43.45C176.614 43.165 176.389 43.03 175.909 42.91L174.514 42.55C173.419 42.265 172.759 41.71 172.579 40.765V39.64C172.909 38.53 174.199 37.66 175.729 37.66C177.049 37.66 178.024 38.11 178.804 39.085L177.439 40.3C177.034 39.685 176.479 39.4 175.684 39.4C175.189 39.4 174.754 39.61 174.634 39.955V40.255C174.754 40.555 174.979 40.735 175.519 40.855L176.644 41.11C177.919 41.395 178.504 41.905 178.804 42.85V44.275C178.444 45.475 177.304 46.24 175.549 46.24ZM180.782 42.265L180.332 39.115V35.2H182.522V39.115L182.072 42.265H180.782ZM181.427 46.24C180.662 46.24 180.047 45.625 180.047 44.86C180.047 44.095 180.662 43.48 181.427 43.48C182.192 43.48 182.807 44.095 182.807 44.86C182.807 45.625 182.192 46.24 181.427 46.24Z" fill="#011C58"/>
<path d="M226.832 40.2882C224.947 41.9819 222.879 43.4239 220.501 44.5139C217.147 46.0566 213.356 46.9177 209.037 46.9374C204.987 46.9551 200.695 46.2173 196.015 44.1612C194.596 43.5413 193.203 42.7903 191.859 41.7384C191.494 42.9465 191.591 43.2228 193.044 44.1642C194.816 45.3224 196.622 46.1531 198.409 46.7954C202.9 48.438 206.929 48.7971 210.771 48.6362C216.435 48.3929 221.082 46.7208 225.051 44.0702C225.643 43.6749 226.065 43.0769 227.046 42.8698C226.817 43.8977 226.652 44.7965 226.424 45.6565C226.294 46.1438 226.346 46.6761 226.615 47.3005C226.692 47.4724 226.865 47.714 227.014 47.8122C227.298 47.982 227.395 47.7998 227.44 47.6278C227.811 46.4136 228.172 45.1892 228.559 43.979C228.87 42.9716 229.203 41.9847 229.514 40.9773C229.541 40.9077 229.563 40.8442 229.59 40.7746C229.976 39.4191 229.448 38.6843 227.69 38.2631C225.686 37.7805 223.71 37.3737 221.732 36.9894C220.686 36.783 220.599 37.0594 221.065 38.13C221.299 38.6848 221.616 38.8628 222.089 38.965C223.35 39.2246 224.619 39.517 225.899 39.8196C226.152 39.8748 226.403 39.8072 226.848 40.2923" fill="#60BBE3"/>
</svg>
