<svg width="40" height="50" viewBox="0 0 40 50" fill="none" xmlns="http://www.w3.org/2000/svg">
<path d="M27.805 0.793945L39.3972 16.0651L25.3755 17.141L13.8093 1.89589L27.805 0.802631V0.793945Z" fill="#60BBE3"/>
<path d="M25.3755 17.1323L25.9655 47.102L23.8137 50L0.655273 19.5792L13.8093 1.8959L25.3755 17.141V17.1323Z" fill="#011C58"/>
<path d="M37.8094 48.9588L23.8137 50L25.9655 47.102L39.9612 46.0608L37.8007 48.9588H37.8094Z" fill="#011C58"/>
<path d="M39.9612 46.0607L25.9655 47.1019L25.3755 17.1323L39.3972 16.0564L39.9612 46.0607Z" fill="#60BBE3"/>
<path d="M23.6576 2.17357C22.6164 3.57921 24.0741 6.42521 26.9114 8.53367C29.7487 10.6421 32.8983 11.2061 33.9395 9.81782C34.9808 8.42085 33.5317 5.56619 30.6944 3.44906C27.8571 1.3406 24.7075 0.767927 23.6576 2.17357Z" fill="#60BBE3"/>
<path d="M31.753 12.7505C30.7118 14.1562 27.5621 13.5835 24.7248 11.475C21.8875 9.36658 20.4385 6.52061 21.471 5.11497L23.6576 2.17352C22.6077 3.57916 24.0654 6.42516 26.9027 8.53362C29.74 10.6421 32.8983 11.2061 33.9308 9.80911L31.7443 12.7505H31.753Z" fill="#011C58"/>
</svg>
