<svg width="277" height="316" viewBox="0 0 277 316" fill="none" xmlns="http://www.w3.org/2000/svg">
<path d="M145.694 290.746C148.254 307.302 157.894 315.518 173.642 315.518C189.39 315.518 199.022 307.302 201.59 290.746V253.02L229.581 295.033H243.265V235.857H257.148V223.302L207.464 196.082L207.004 193.974L231.43 206.764H251.074V164.993L276.132 107.345V103.77H255.629L231.065 115.137L226.874 103.77H206.371C206.371 103.77 190.197 116.69 190.18 116.69L189.876 115.284L222.05 88.7505V76.1952C222.05 76.1952 203.23 76.1952 203.23 76.1779L217.59 58.2603V45.705H211.499L222.05 29.5662V17.0109H182.683C182.683 17.0109 166.154 69.5141 166.145 69.5141V0.481567H149.304C149.304 0.481567 146.744 36.8894 146.727 36.8981C146.727 36.8981 129.746 36.8981 129.729 36.8981L127.213 0.490244H110.371V67.8568H110.328L94.718 17.0456H53.269V29.6009L67.1519 50.5119V88.7766C67.1519 88.7766 82.6313 103.787 82.6313 103.796H75.0391V122.304L49.2951 107.735C49.2951 107.735 49.2256 107.692 49.1909 107.675C45.1475 105.289 39.9849 103.796 33.5206 103.796H0.210449V206.79H19.8547L75.0391 184.004V198.156C75.0391 198.156 29.7376 226.963 29.7029 226.989C25.1736 230.009 22.0499 234.642 21.0955 239.952V247.527C21.9892 254.304 25.6595 259.085 32.6009 262.772L36.1671 264.672L20.1063 281.401C22.3883 291.562 29.9198 298.243 42.5185 298.243C51.3861 298.243 58.128 294.755 61.512 288.62C61.512 288.62 78.9176 258.963 78.9436 258.92V311.614H95.7853L104.818 278.755H107.499C122.267 278.755 128.983 269.557 130.935 261.098L134.753 206.729C134.753 206.729 138.397 206.729 138.397 206.738V206.798H141.191V211.119C141.191 211.119 141.191 211.154 141.2 211.171V211.284C141.2 211.284 141.2 211.319 141.208 211.336L145.703 290.781L145.694 290.746Z" fill="#011C58"/>
<path d="M0.210449 103.779H33.5206C50.7528 103.779 58.718 114.364 60.8612 124.239V147.839C58.5879 157.705 50.7528 168.438 33.5206 168.438H19.8547V206.772H0.210449V103.779ZM41.781 141.974V130.243C40.6443 125.384 37.0781 121.8 30.102 121.8H19.8547V150.408H30.102C37.0781 150.408 40.6356 146.833 41.781 141.965V141.974Z" fill="#60BBE3"/>
<path d="M75.0479 103.779H94.6921V188.751H125.729V206.772H75.0479V103.779Z" fill="#60BBE3"/>
<path d="M138.397 203.197L160.037 103.779H187.378L209.017 203.197V206.772H189.937L185.877 185.028H161.529L157.469 206.772H138.388V203.197H138.397ZM182.493 167.006L174.84 126.095H172.566L164.913 167.006H182.493Z" fill="#60BBE3"/>
<path d="M231.429 165.002L206.371 107.354V103.779H226.874L240.115 139.683H242.388L255.629 103.779H276.132V107.354L251.074 165.002V206.772H231.429V165.002Z" fill="#60BBE3"/>
<path d="M67.1607 29.5835H53.2778V17.0282H94.7268V29.5835H80.844V88.7592H67.1607V29.5835Z" fill="#60BBE3"/>
<path d="M110.38 0.481567H127.222V36.8981H149.313V0.481567H166.154V88.7679H149.313V52.3514H127.222V88.7679H110.38V0.481567Z" fill="#60BBE3"/>
<path d="M182.684 17.0369H222.05V29.5922H196.367V45.731H217.59V58.2864H196.367V76.2213H222.05V88.7766H182.684V17.0369Z" fill="#60BBE3"/>
<path d="M20.0977 281.384L33.0868 276.898C34.371 283.171 37.7462 285.662 42.1107 285.662C45.6768 285.662 48.9567 283.675 50.2408 279.787V275.102C49.5467 272.117 47.7593 270.816 43.9935 268.829L32.5922 262.755C25.6508 259.067 21.9805 254.286 21.0868 247.51V239.935C22.7701 230.573 31.2039 223.302 42.2061 223.302C54.2061 223.302 61.3384 229.479 63.525 238.243L50.7354 243.128C49.5467 237.852 46.371 235.857 42.3102 235.857C38.8395 235.857 36.1584 237.653 35.1692 241.037V244.62C35.6638 248.004 38.0413 250.2 41.0174 251.692L49.7462 256.178C58.4751 260.664 62.935 264.143 63.7246 271.223V281.688C62.3363 292.048 54.3102 298.226 42.5098 298.226C29.9198 298.226 22.3797 291.553 20.0977 281.384Z" fill="#60BBE3"/>
<path d="M78.9351 223.31H107.49C122.258 223.31 129.096 232.386 130.926 240.846V261.08C128.974 269.54 122.258 278.738 107.49 278.738H95.7767V311.597H78.9351V223.31ZM114.571 256.048V245.991C113.599 241.818 110.545 238.755 104.566 238.755H95.7767V263.275H104.566C110.545 263.275 113.599 260.213 114.571 256.039V256.048Z" fill="#60BBE3"/>
<path d="M145.694 290.746V248.074C148.254 231.518 157.894 223.302 173.642 223.302C189.391 223.302 199.022 231.518 201.59 248.074V290.746C199.031 307.302 189.382 315.518 173.642 315.518C157.903 315.518 148.263 307.302 145.694 290.746ZM184.749 289.887V248.811C184.011 242.069 179.378 238.755 173.642 238.755C167.907 238.755 163.265 242.069 162.536 248.811V289.887C163.273 296.629 167.907 300.065 173.642 300.065C179.378 300.065 184.02 296.629 184.749 289.887Z" fill="#60BBE3"/>
<path d="M229.581 235.857H215.698V223.302H257.148V235.857H243.265V295.033H229.581V235.857Z" fill="#60BBE3"/>
</svg>
