<svg width="73" height="36" viewBox="0 0 73 36" fill="none" xmlns="http://www.w3.org/2000/svg">
<path d="M63.2368 16.7007C59.3409 15.3037 54.9504 17.6117 53.432 21.846C51.9136 26.0716 53.8398 30.6356 57.7444 32.0412C61.6403 33.4382 66.0307 31.1302 67.5491 26.8959C69.0676 22.6616 67.1413 18.0976 63.2368 16.7007Z" fill="#011C58"/>
<path d="M63.2368 16.7007L65.5708 17.5336C67.7314 18.3059 69.2845 20.0499 69.9787 22.1757C70.5426 23.885 70.5513 25.846 69.8832 27.7289C69.2064 29.6117 67.9656 31.1215 66.4385 32.0759C64.547 33.2733 62.239 33.6378 60.0784 32.8655L57.7444 32.0325C60.0264 32.8482 62.4819 32.4056 64.4168 31.026C65.7964 30.0629 66.9157 28.6399 67.5492 26.8872C68.1826 25.1258 68.2173 23.3124 67.7661 21.7072C67.1327 19.4165 65.5188 17.5163 63.2368 16.7007Z" fill="#60BBE3"/>
<path d="M69.9785 22.1844C72.1824 23.2777 73.2236 26.0282 72.2952 28.5965C71.3668 31.1649 68.8245 32.6399 66.4297 32.0846C67.9568 31.1301 69.2063 29.6204 69.8744 27.7288C70.5512 25.846 70.5425 23.885 69.9698 22.1757" fill="#011C58"/>
<path d="M50.7334 6.93058L63.8354 19.4772L62.2215 29.7419L57.4146 29.282L55.0632 27.1822L55.9222 34.0629C56.0176 34.7484 55.4189 35.243 54.8289 35.1735C54.8289 35.1735 54.8115 35.1735 54.8029 35.1735L50.0393 34.7137C49.8484 34.705 49.6575 34.6269 49.4753 34.4794L36.6857 23.538L37.7443 29.6291C37.8658 30.3319 37.2671 30.8612 36.651 30.7918L31.8875 30.3406C31.7226 30.3232 31.5577 30.2625 31.4016 30.1497L1.32781 8.44034C0.00893336 7.47721 -0.338138 5.2386 0.338651 3.59001C0.885289 2.27982 1.52737 1.59435 2.4124 1.71582L7.17596 2.17569C7.42759 2.19305 7.67922 2.2885 7.95687 2.42733C8.84191 2.89587 19.4102 8.718 26.0046 12.3536L24.0697 1.47287C23.9482 0.770054 24.5382 0.249454 25.1456 0.301515H25.1716L29.8831 0.752699H29.9525C30.1521 0.770052 30.3517 0.856823 30.5252 1.013L45.215 14.3666L44.2606 7.32103C44.1651 6.62689 44.7551 6.13231 45.3538 6.19305H45.3799L50.0914 6.64425H50.1521C50.3603 6.6616 50.5686 6.74836 50.7421 6.9219" fill="#011C58"/>
<path d="M62.2128 29.7506L63.8266 19.4859L50.742 6.94794C50.0566 6.29718 48.9373 6.86118 49.0674 7.79827L50.4904 18.3319C50.5338 18.6616 50.1433 18.8699 49.9004 18.6443L30.5425 1.03905C29.8397 0.396963 28.7204 1.01302 28.8939 1.95011L31.1238 14.5228C31.1759 14.8091 30.8635 15.0434 30.5945 14.8959C26.9416 12.8829 9.12816 3.06075 7.96547 2.44469C6.67263 1.75923 5.81363 2.42733 5.14552 4.07592C4.46873 5.72451 4.80712 7.95445 6.13467 8.9089L36.2171 30.6182C36.9373 31.1388 37.9351 30.5228 37.7789 29.6377L36.3125 21.2039C36.1997 20.5445 36.972 20.1106 37.4839 20.5445L54.3082 34.9479C54.9937 35.538 56.0609 34.9653 55.9481 34.0716L54.7768 24.7614C54.69 24.1106 55.4709 23.7028 55.9568 24.1453L62.2301 29.7592L62.2128 29.7506Z" fill="#60BBE3"/>
</svg>
