<svg width="50" height="47" viewBox="0 0 50 47" fill="none" xmlns="http://www.w3.org/2000/svg">
<path d="M21.2148 0L49.5098 22.5683L36.8504 26.8373L8.62476 4.15618L21.2235 0H21.2148Z" fill="#011C58"/>
<path d="M36.8505 26.8373L49.5099 22.5683L41.4839 41.9696L28.8679 46.1432L0.598877 23.5575L8.62491 4.16485L36.8592 26.846L36.8505 26.8373Z" fill="#60BBE3"/>
<path d="M36.8504 26.8373L28.8591 46.1432L0.590088 23.5575L8.61612 4.16485L36.8504 26.846V26.8373Z" fill="#60BBE3"/>
<path d="M41.4837 41.9696L28.8677 46.1432L36.859 26.8373L49.5184 22.5683L41.4924 41.9696H41.4837Z" fill="#60BBE3"/>
<path d="M31.8961 13.5097C31.2453 15.0889 33.2236 17.3969 36.3212 18.6724C39.4188 19.9479 42.447 19.7137 43.0978 18.1345C43.7485 16.5553 41.7702 14.2473 38.6726 12.9718C35.575 11.6963 32.5468 11.9306 31.8961 13.5097Z" fill="#011C58"/>
<path d="M31.8959 13.5098L30.6204 16.59C29.9697 18.1692 31.948 20.4772 35.0456 21.7527C38.1432 23.0282 41.1714 22.7939 41.8221 21.2148L43.0976 18.1345C42.4469 19.7137 39.41 19.9479 36.3211 18.6725C33.2234 17.397 31.2451 15.0803 31.8959 13.5098Z" fill="#60BBE3"/>
<path d="M17.6834 2.20388C17.0326 3.78306 19.011 6.09108 22.1086 7.36657C25.2062 8.64206 28.2344 8.40778 28.8851 6.82861C29.5359 5.24943 27.5489 2.94141 24.46 1.66592C21.371 0.39043 18.3342 0.624704 17.6834 2.1952V2.20388Z" fill="#011C58"/>
<path d="M16.4166 5.28415C15.7658 6.86332 17.7441 9.17135 20.8417 10.4468C23.9393 11.7223 26.9675 11.4881 27.6183 9.90888L28.8938 6.82862C28.243 8.40779 25.2061 8.64207 22.1172 7.36658C19.0196 6.09109 17.0413 3.77439 17.692 2.20389L16.4166 5.28415Z" fill="#60BBE3"/>
</svg>
