<svg width="185" height="211" viewBox="0 0 185 211" fill="none" xmlns="http://www.w3.org/2000/svg">
<path d="M97.6972 193.674C99.3995 204.684 105.811 210.149 116.284 210.149C126.758 210.149 133.163 204.684 134.871 193.674V168.584L153.487 196.525H162.587V157.169H171.82V148.819L138.778 130.717L138.472 129.315L154.716 137.821H167.781V110.041L184.446 71.7014V69.324H170.81L154.474 76.8834L151.687 69.324H138.051C138.051 69.324 127.294 77.9163 127.283 77.9163L127.081 76.9815L148.478 59.3351V50.9851C148.478 50.9851 135.962 50.9851 135.962 50.9735L145.512 39.0573V30.7073H141.461L148.478 19.9741V11.624H122.297C122.297 11.624 111.304 46.5418 111.298 46.5418V0.631104H100.098C100.098 0.631104 98.3954 24.8444 98.3839 24.8502C98.3839 24.8502 87.0909 24.8502 87.0793 24.8502L85.4058 0.636874H74.2052V45.4396H74.1763L63.7951 11.6471H36.229V19.9971L45.462 33.9042V59.3524C45.462 59.3524 55.7567 69.3355 55.7567 69.3413H50.7074V81.6499L33.5861 71.9611C33.5861 71.9611 33.54 71.9323 33.5169 71.9207C30.8278 70.3338 27.3943 69.3413 23.0952 69.3413H0.942017V137.838H14.0066L50.7074 122.684V132.096C50.7074 132.096 20.5793 151.255 20.5562 151.272C17.5439 153.28 15.4665 156.361 14.8318 159.893V164.931C15.4262 169.438 17.8671 172.617 22.4836 175.07L24.8553 176.333L14.1739 187.459C15.6916 194.216 20.7004 198.66 29.0793 198.66C34.9768 198.66 39.4606 196.34 41.7111 192.26C41.7111 192.26 53.2869 172.536 53.3042 172.508V207.552H64.5048L70.512 185.699H72.2951C82.1166 185.699 86.583 179.582 87.8814 173.956L90.4205 137.798C90.4205 137.798 92.8441 137.798 92.8441 137.803V137.844H94.7022V140.717C94.7022 140.717 94.7022 140.741 94.708 140.752V140.827C94.708 140.827 94.708 140.85 94.7138 140.862L97.7029 193.697L97.6972 193.674Z" fill="#011C58"/>
<path d="M0.941895 69.3297H23.0951C34.5555 69.3297 39.8528 76.3698 41.2782 82.9367V98.6327C39.7663 105.194 34.5555 112.332 23.0951 112.332H14.0065V137.826H0.941895V69.3297ZM28.5887 94.7318V86.9299C27.8328 83.6984 25.461 81.3152 20.8215 81.3152H14.0065V100.341H20.8215C25.461 100.341 27.827 97.9633 28.5887 94.726V94.7318Z" fill="#60BBE3"/>
<path d="M50.7131 69.3297H63.7777V125.841H84.419V137.826H50.7131V69.3297Z" fill="#60BBE3"/>
<path d="M92.8442 135.449L107.236 69.3297H125.419L139.811 135.449V137.826H127.121L124.421 123.365H108.228L105.528 137.826H92.8384V135.449H92.8442ZM122.17 111.38L117.081 84.1716H115.569L110.479 111.38H122.17Z" fill="#60BBE3"/>
<path d="M154.716 110.047L138.051 71.7072V69.3297H151.686L160.492 93.2083H162.004L170.81 69.3297H184.446V71.7072L167.781 110.047V137.826H154.716V110.047Z" fill="#60BBE3"/>
<path d="M45.4679 19.9855H36.235V11.6355H63.801V19.9855H54.5681V59.3408H45.4679V19.9855Z" fill="#60BBE3"/>
<path d="M74.2111 0.630981H85.4117V24.8501H100.104V0.630981H111.304V59.3465H100.104V35.1275H85.4117V59.3465H74.2111V0.630981Z" fill="#60BBE3"/>
<path d="M122.297 11.6414H148.478V19.9914H131.398V30.7246H145.512V39.0746H131.398V51.0024H148.478V59.3524H122.297V11.6414Z" fill="#60BBE3"/>
<path d="M14.1682 187.448L22.8068 184.464C23.6608 188.636 25.9056 190.292 28.8081 190.292C31.1799 190.292 33.3611 188.971 34.2152 186.386V183.27C33.7535 181.285 32.5648 180.419 30.0604 179.098L22.4778 175.058C17.8614 172.606 15.4204 169.426 14.8261 164.919V159.882C15.9455 153.655 21.5545 148.819 28.8716 148.819C36.8523 148.819 41.5957 152.928 43.0499 158.756L34.5441 162.005C33.7535 158.497 31.6415 157.169 28.9409 157.169C26.6326 157.169 24.8495 158.364 24.1917 160.614V162.998C24.5206 165.248 26.1018 166.708 28.0811 167.701L33.8863 170.684C39.6914 173.667 42.6575 175.981 43.1826 180.69V187.65C42.2593 194.54 36.9216 198.648 29.0736 198.648C20.7005 198.648 15.6859 194.211 14.1682 187.448Z" fill="#60BBE3"/>
<path d="M53.2985 148.825H72.2894C82.1109 148.825 86.6581 154.861 87.8757 160.487V173.944C86.5773 179.571 82.1109 185.687 72.2894 185.687H64.4991V207.541H53.2985V148.825ZM76.9982 170.597V163.909C76.3519 161.134 74.3206 159.097 70.3447 159.097H64.4991V175.404H70.3447C74.3206 175.404 76.3519 173.367 76.9982 170.592V170.597Z" fill="#60BBE3"/>
<path d="M97.6971 193.674V165.294C99.3995 154.284 105.811 148.819 116.284 148.819C126.758 148.819 133.163 154.284 134.871 165.294V193.674C133.169 204.684 126.752 210.149 116.284 210.149C105.816 210.149 99.4052 204.684 97.6971 193.674ZM123.67 193.103V165.785C123.18 161.301 120.098 159.097 116.284 159.097C112.47 159.097 109.383 161.301 108.898 165.785V193.103C109.388 197.586 112.47 199.872 116.284 199.872C120.098 199.872 123.186 197.586 123.67 193.103Z" fill="#60BBE3"/>
<path d="M153.487 157.169H144.254V148.819H171.82V157.169H162.587V196.525H153.487V157.169Z" fill="#60BBE3"/>
</svg>
