<svg width="267" height="50" viewBox="0 0 267 50" fill="none" xmlns="http://www.w3.org/2000/svg">
<path d="M1.305 14V3.2H5.505C7.08 3.2 8.235 3.92 8.49 5.3C8.505 5.39 8.505 5.48 8.505 5.555V6.26C8.505 6.335 8.505 6.44 8.49 6.515C8.37 7.325 8.025 7.775 7.395 8.105C8.25 8.36 8.91 9.005 9.12 9.995C9.135 10.115 9.15 10.22 9.15 10.355V11.375C9.15 11.48 9.15 11.585 9.12 11.675C8.85 13.115 7.605 14 5.85 14H1.305ZM5.64 12.71C6.765 12.71 7.44 12.275 7.635 11.435C7.65 11.33 7.665 11.21 7.665 11.09V10.475C7.665 10.355 7.65 10.235 7.635 10.145C7.425 9.305 6.765 8.87 5.64 8.87H2.79V12.71H5.64ZM2.79 7.64H5.385C6.375 7.64 6.84 7.25 7.035 6.605C7.065 6.515 7.08 6.41 7.08 6.305V5.84C7.08 5.735 7.065 5.63 7.035 5.54C6.825 4.88 6.3 4.505 5.325 4.505H2.79V7.64ZM11.102 14V5.9H12.167L12.482 6.905C12.797 6.29 13.367 5.9 14.162 5.9H15.077V7.235H14.027C13.157 7.235 12.557 7.67 12.497 8.825V14H11.102ZM18.8302 14.21C17.3602 14.21 16.2502 13.34 16.1302 12.065V11.135C16.3252 9.83 17.4502 9.005 19.1152 9.005C19.9252 9.005 20.6302 9.2 21.2302 9.545V8.735C21.2302 7.64 20.8552 7.19 19.7152 7.19H16.8502V5.9H19.8052C21.8902 5.9 22.6252 6.8 22.6252 8.72V14H21.5602L21.2452 12.935C20.6152 13.805 19.8652 14.21 18.8302 14.21ZM19.1002 12.965C19.9552 12.965 20.5852 12.68 21.2302 11.93V10.805C20.7052 10.37 20.0902 10.16 19.2052 10.16C18.2002 10.16 17.5702 10.595 17.4802 11.375V11.78C17.5552 12.485 18.2302 12.965 19.1002 12.965ZM27.8548 14.21C25.9798 14.21 24.8848 13.1 24.8848 11.165V5.9H26.2798V11.03C26.3398 12.065 26.9698 12.92 28.1998 12.92C29.1748 12.92 29.8948 12.35 30.2398 11.435V5.9H31.6348V14H30.5848L30.2548 12.935C29.8198 13.64 29.0848 14.21 27.8548 14.21ZM37.4768 14.21C35.4968 14.21 33.9668 12.965 33.5768 11.015C33.5618 10.685 33.5468 10.31 33.5468 9.95C33.5468 9.575 33.5618 9.23 33.5768 8.9C33.9818 6.95 35.5118 5.705 37.4768 5.705C39.0068 5.705 40.0568 6.23 40.8218 7.355L39.8018 8.225C39.2018 7.295 38.5268 6.965 37.4318 6.965C36.2018 6.965 35.2118 7.775 34.9568 8.975C34.9418 9.245 34.9268 9.59 34.9268 9.95C34.9268 10.31 34.9418 10.67 34.9568 10.94C35.2268 12.11 36.2468 12.95 37.4318 12.95C38.4068 12.95 39.0818 12.65 39.7718 11.72L40.7468 12.62C39.9518 13.715 38.8868 14.21 37.4768 14.21ZM42.4789 14V2.3H43.8739V6.965C44.3089 6.275 45.0889 5.705 46.3189 5.705C48.2089 5.705 49.3189 6.815 49.3189 8.75V14H47.9239V8.885C47.8639 7.835 47.2489 6.995 45.9739 6.995C44.9989 6.995 44.2339 7.565 43.8739 8.48V14H42.4789ZM54.1089 14.21C52.7439 14.21 51.6039 13.565 51.0039 12.5L52.0239 11.645C52.3839 12.485 53.2689 13.01 54.1089 13.01C54.9639 13.01 55.5789 12.65 55.7439 12.05C55.7439 11.975 55.7589 11.9 55.7589 11.825V11.6C55.7589 11.555 55.7439 11.495 55.7439 11.435C55.6239 11.015 55.2789 10.745 54.4239 10.52L53.1789 10.205C52.1289 9.935 51.5139 9.38 51.3339 8.54C51.3189 8.45 51.3039 8.36 51.3039 8.27V7.745C51.3039 7.67 51.3189 7.58 51.3339 7.505C51.5889 6.455 52.7589 5.705 54.1989 5.705C55.4589 5.705 56.4489 6.215 57.1089 7.175L56.1489 7.97C55.6689 7.22 55.0389 6.905 54.1539 6.905C53.4039 6.905 52.8189 7.22 52.6689 7.73C52.6539 7.79 52.6539 7.835 52.6539 7.895V8.03C52.6539 8.075 52.6689 8.12 52.6689 8.165C52.7889 8.63 53.1789 8.915 53.9289 9.095L55.0539 9.365C56.1939 9.635 56.8089 10.16 57.0639 10.925C57.0939 11.03 57.1239 11.15 57.1239 11.27V11.975C57.1239 12.125 57.1089 12.245 57.0639 12.38C56.7189 13.49 55.6389 14.21 54.1089 14.21ZM61.9567 14C60.5767 14 59.5867 13.235 59.5867 11.765V7.175H58.3567V5.9H59.5867V5.135L60.3367 3.8H60.9817V5.9H62.8417V7.175H60.9817V11.6C60.9817 12.275 61.4017 12.71 62.0617 12.71H62.7817V14H61.9567ZM71.2752 14.21C69.5652 14.21 68.3652 13.235 67.9302 11.57C67.8252 11.075 67.7802 10.535 67.7802 9.95C67.7802 9.395 67.8252 8.855 67.9152 8.36C68.3502 6.71 69.5352 5.705 71.3802 5.705C72.4602 5.705 73.3902 6.11 74.0052 6.845V2.3H75.4002V14H74.3502L74.0052 12.98C73.3602 13.835 72.5352 14.21 71.2752 14.21ZM71.6802 12.95C72.8052 12.95 73.5252 12.515 74.0052 11.435V8.555C73.5402 7.55 72.6702 6.965 71.6802 6.965C70.4052 6.965 69.5652 7.685 69.2502 8.825C69.1902 9.185 69.1452 9.56 69.1452 9.95C69.1452 10.355 69.1902 10.715 69.2502 11.075C69.5652 12.245 70.3902 12.95 71.6802 12.95ZM80.6917 14.21C78.8167 14.21 77.7217 13.1 77.7217 11.165V5.9H79.1167V11.03C79.1767 12.065 79.8067 12.92 81.0367 12.92C82.0117 12.92 82.7317 12.35 83.0767 11.435V5.9H84.4717V14H83.4217L83.0917 12.935C82.6567 13.64 81.9217 14.21 80.6917 14.21ZM94.0194 14.21C91.8444 14.21 90.5394 12.89 90.1344 11.015C90.1194 10.88 90.1044 10.715 90.1044 10.58V9.335C90.1044 9.2 90.1194 9.05 90.1344 8.915C90.5544 7.07 91.8594 5.705 93.9444 5.705C95.9994 5.705 97.2744 6.935 97.6044 8.735C97.6344 8.87 97.6494 9.035 97.6494 9.17V10.19L97.4694 10.37H91.4844C91.6344 11.975 92.5494 12.95 94.0194 12.95C95.0994 12.95 95.7594 12.56 96.3894 11.735L97.3494 12.59C96.6144 13.595 95.5794 14.21 94.0194 14.21ZM91.5144 9.245H96.2994C96.2094 7.895 95.2794 6.935 93.9594 6.935C92.5644 6.935 91.7094 7.91 91.5144 9.245ZM99.5053 14V5.9H100.9V14H99.5053ZM100.21 4.46C99.6553 4.46 99.2053 4.01 99.2053 3.455C99.2053 2.9 99.6553 2.45 100.21 2.45C100.765 2.45 101.2 2.9 101.2 3.455C101.2 4.01 100.765 4.46 100.21 4.46ZM103.285 14V5.9H104.35L104.68 6.965C105.13 6.275 105.955 5.705 107.14 5.705C109.03 5.705 110.125 6.875 110.125 8.81V14H108.73V8.885C108.67 7.835 108.07 6.995 106.795 6.995C105.82 6.995 105.04 7.565 104.68 8.48V14H103.285ZM115.89 14.21C113.715 14.21 112.41 12.89 112.005 11.015C111.99 10.88 111.975 10.715 111.975 10.58V9.335C111.975 9.2 111.99 9.05 112.005 8.915C112.425 7.07 113.73 5.705 115.815 5.705C117.87 5.705 119.145 6.935 119.475 8.735C119.505 8.87 119.52 9.035 119.52 9.17V10.19L119.34 10.37H113.355C113.505 11.975 114.42 12.95 115.89 12.95C116.97 12.95 117.63 12.56 118.26 11.735L119.22 12.59C118.485 13.595 117.45 14.21 115.89 14.21ZM113.385 9.245H118.17C118.08 7.895 117.15 6.935 115.83 6.935C114.435 6.935 113.58 7.91 113.385 9.245ZM124.511 14V12.74L128.696 7.385V7.19H124.661V5.9H130.466V7.16L126.281 12.53V12.71H130.616V14H124.511ZM135.389 14.21C133.514 14.21 132.419 13.1 132.419 11.165V5.9H133.814V11.03C133.874 12.065 134.504 12.92 135.734 12.92C136.709 12.92 137.429 12.35 137.774 11.435V5.9H139.169V14H138.119L137.789 12.935C137.354 13.64 136.619 14.21 135.389 14.21ZM144.021 14.21C142.656 14.21 141.516 13.565 140.916 12.5L141.936 11.645C142.296 12.485 143.181 13.01 144.021 13.01C144.876 13.01 145.491 12.65 145.656 12.05C145.656 11.975 145.671 11.9 145.671 11.825V11.6C145.671 11.555 145.656 11.495 145.656 11.435C145.536 11.015 145.191 10.745 144.336 10.52L143.091 10.205C142.041 9.935 141.426 9.38 141.246 8.54C141.231 8.45 141.216 8.36 141.216 8.27V7.745C141.216 7.67 141.231 7.58 141.246 7.505C141.501 6.455 142.671 5.705 144.111 5.705C145.371 5.705 146.361 6.215 147.021 7.175L146.061 7.97C145.581 7.22 144.951 6.905 144.066 6.905C143.316 6.905 142.731 7.22 142.581 7.73C142.566 7.79 142.566 7.835 142.566 7.895V8.03C142.566 8.075 142.581 8.12 142.581 8.165C142.701 8.63 143.091 8.915 143.841 9.095L144.966 9.365C146.106 9.635 146.721 10.16 146.976 10.925C147.006 11.03 147.036 11.15 147.036 11.27V11.975C147.036 12.125 147.021 12.245 146.976 12.38C146.631 13.49 145.551 14.21 144.021 14.21ZM151.179 14.21C149.709 14.21 148.599 13.34 148.479 12.065V11.135C148.674 9.83 149.799 9.005 151.464 9.005C152.274 9.005 152.979 9.2 153.579 9.545V8.735C153.579 7.64 153.204 7.19 152.064 7.19H149.199V5.9H152.154C154.239 5.9 154.974 6.8 154.974 8.72V14H153.909L153.594 12.935C152.964 13.805 152.214 14.21 151.179 14.21ZM151.449 12.965C152.304 12.965 152.934 12.68 153.579 11.93V10.805C153.054 10.37 152.439 10.16 151.554 10.16C150.549 10.16 149.919 10.595 149.829 11.375V11.78C149.904 12.485 150.579 12.965 151.449 12.965ZM157.293 14V5.9H158.358L158.688 6.965C159.153 6.17 160.023 5.705 161.013 5.705C162.063 5.705 162.888 6.23 163.308 7.175C163.863 6.215 164.733 5.705 165.843 5.705C167.538 5.705 168.558 6.83 168.558 8.69V14H167.163V8.78C167.103 7.655 166.473 6.995 165.438 6.995C164.628 6.995 163.983 7.49 163.623 8.45V14H162.228V8.78C162.168 7.61 161.583 6.995 160.518 6.995C159.693 6.995 159.048 7.49 158.688 8.45V14H157.293ZM170.887 14V5.9H171.952L172.282 6.965C172.747 6.17 173.617 5.705 174.607 5.705C175.657 5.705 176.482 6.23 176.902 7.175C177.457 6.215 178.327 5.705 179.437 5.705C181.132 5.705 182.152 6.83 182.152 8.69V14H180.757V8.78C180.697 7.655 180.067 6.995 179.032 6.995C178.222 6.995 177.577 7.49 177.217 8.45V14H175.822V8.78C175.762 7.61 175.177 6.995 174.112 6.995C173.287 6.995 172.642 7.49 172.282 8.45V14H170.887ZM187.916 14.21C185.741 14.21 184.436 12.89 184.031 11.015C184.016 10.88 184.001 10.715 184.001 10.58V9.335C184.001 9.2 184.016 9.05 184.031 8.915C184.451 7.07 185.756 5.705 187.841 5.705C189.896 5.705 191.171 6.935 191.501 8.735C191.531 8.87 191.546 9.035 191.546 9.17V10.19L191.366 10.37H185.381C185.531 11.975 186.446 12.95 187.916 12.95C188.996 12.95 189.656 12.56 190.286 11.735L191.246 12.59C190.511 13.595 189.476 14.21 187.916 14.21ZM185.411 9.245H190.196C190.106 7.895 189.176 6.935 187.856 6.935C186.461 6.935 185.606 7.91 185.411 9.245ZM193.402 14V5.9H194.467L194.797 6.965C195.247 6.275 196.072 5.705 197.257 5.705C199.147 5.705 200.242 6.875 200.242 8.81V14H198.847V8.885C198.787 7.835 198.187 6.995 196.912 6.995C195.937 6.995 195.157 7.565 194.797 8.48V14H193.402ZM203.202 17.3V16.01H206.727C207.867 16.01 208.332 15.635 208.332 14.54V13.01C207.717 13.745 206.772 14.165 205.692 14.165C203.772 14.165 202.452 13.025 202.122 11.045C202.062 10.265 202.092 9.305 202.182 8.54C202.587 6.8 203.892 5.69 205.647 5.69C206.787 5.69 207.702 6.08 208.332 6.92L208.662 5.9H209.712V14.57C209.712 16.49 208.812 17.3 206.892 17.3H203.202ZM205.992 12.95C206.997 12.95 207.852 12.32 208.332 11.315V8.48C207.837 7.415 207.057 6.965 205.992 6.965C204.762 6.965 203.907 7.61 203.577 8.825C203.457 9.44 203.457 10.1 203.517 10.73C203.787 12.11 204.687 12.95 205.992 12.95ZM215.528 14.21C213.353 14.21 212.048 12.89 211.643 11.015C211.628 10.88 211.613 10.715 211.613 10.58V9.335C211.613 9.2 211.628 9.05 211.643 8.915C212.063 7.07 213.368 5.705 215.453 5.705C217.508 5.705 218.783 6.935 219.113 8.735C219.143 8.87 219.158 9.035 219.158 9.17V10.19L218.978 10.37H212.993C213.143 11.975 214.058 12.95 215.528 12.95C216.608 12.95 217.268 12.56 217.898 11.735L218.858 12.59C218.123 13.595 217.088 14.21 215.528 14.21ZM213.023 9.245H217.808C217.718 7.895 216.788 6.935 215.468 6.935C214.073 6.935 213.218 7.91 213.023 9.245ZM221.496 14V7.175H220.056V5.9H221.496V4.55C221.496 3.08 222.471 2.3 223.851 2.3H224.901V3.59H223.971C223.311 3.59 222.891 4.04 222.891 4.715V5.9H224.901V7.175H222.891V14H221.496ZM228.464 14.21C226.994 14.21 225.884 13.34 225.764 12.065V11.135C225.959 9.83 227.084 9.005 228.749 9.005C229.559 9.005 230.264 9.2 230.864 9.545V8.735C230.864 7.64 230.489 7.19 229.349 7.19H226.484V5.9H229.439C231.524 5.9 232.259 6.8 232.259 8.72V14H231.194L230.879 12.935C230.249 13.805 229.499 14.21 228.464 14.21ZM228.734 12.965C229.589 12.965 230.219 12.68 230.864 11.93V10.805C230.339 10.37 229.724 10.16 228.839 10.16C227.834 10.16 227.204 10.595 227.114 11.375V11.78C227.189 12.485 227.864 12.965 228.734 12.965ZM237.039 14.21C235.674 14.21 234.534 13.565 233.934 12.5L234.954 11.645C235.314 12.485 236.199 13.01 237.039 13.01C237.894 13.01 238.509 12.65 238.674 12.05C238.674 11.975 238.689 11.9 238.689 11.825V11.6C238.689 11.555 238.674 11.495 238.674 11.435C238.554 11.015 238.209 10.745 237.354 10.52L236.109 10.205C235.059 9.935 234.444 9.38 234.264 8.54C234.249 8.45 234.234 8.36 234.234 8.27V7.745C234.234 7.67 234.249 7.58 234.264 7.505C234.519 6.455 235.689 5.705 237.129 5.705C238.389 5.705 239.379 6.215 240.039 7.175L239.079 7.97C238.599 7.22 237.969 6.905 237.084 6.905C236.334 6.905 235.749 7.22 235.599 7.73C235.584 7.79 235.584 7.835 235.584 7.895V8.03C235.584 8.075 235.599 8.12 235.599 8.165C235.719 8.63 236.109 8.915 236.859 9.095L237.984 9.365C239.124 9.635 239.739 10.16 239.994 10.925C240.024 11.03 240.054 11.15 240.054 11.27V11.975C240.054 12.125 240.039 12.245 239.994 12.38C239.649 13.49 238.569 14.21 237.039 14.21ZM244.421 14.21C243.056 14.21 241.916 13.565 241.316 12.5L242.336 11.645C242.696 12.485 243.581 13.01 244.421 13.01C245.276 13.01 245.891 12.65 246.056 12.05C246.056 11.975 246.071 11.9 246.071 11.825V11.6C246.071 11.555 246.056 11.495 246.056 11.435C245.936 11.015 245.591 10.745 244.736 10.52L243.491 10.205C242.441 9.935 241.826 9.38 241.646 8.54C241.631 8.45 241.616 8.36 241.616 8.27V7.745C241.616 7.67 241.631 7.58 241.646 7.505C241.901 6.455 243.071 5.705 244.511 5.705C245.771 5.705 246.761 6.215 247.421 7.175L246.461 7.97C245.981 7.22 245.351 6.905 244.466 6.905C243.716 6.905 243.131 7.22 242.981 7.73C242.966 7.79 242.966 7.835 242.966 7.895V8.03C242.966 8.075 242.981 8.12 242.981 8.165C243.101 8.63 243.491 8.915 244.241 9.095L245.366 9.365C246.506 9.635 247.121 10.16 247.376 10.925C247.406 11.03 247.436 11.15 247.436 11.27V11.975C247.436 12.125 247.421 12.245 247.376 12.38C247.031 13.49 245.951 14.21 244.421 14.21ZM252.269 14C250.889 14 249.899 13.235 249.899 11.765V7.175H248.669V5.9H249.899V5.135L250.649 3.8H251.294V5.9H253.154V7.175H251.294V11.6C251.294 12.275 251.714 12.71 252.374 12.71H253.094V14H252.269ZM258.141 14.21C255.966 14.21 254.661 12.89 254.256 11.015C254.241 10.88 254.226 10.715 254.226 10.58V9.335C254.226 9.2 254.241 9.05 254.256 8.915C254.676 7.07 255.981 5.705 258.066 5.705C260.121 5.705 261.396 6.935 261.726 8.735C261.756 8.87 261.771 9.035 261.771 9.17V10.19L261.591 10.37H255.606C255.756 11.975 256.671 12.95 258.141 12.95C259.221 12.95 259.881 12.56 260.511 11.735L261.471 12.59C260.736 13.595 259.701 14.21 258.141 14.21ZM255.636 9.245H260.421C260.331 7.895 259.401 6.935 258.081 6.935C256.686 6.935 255.831 7.91 255.636 9.245ZM4.245 30L0.195 19.455V19.2H1.77L5.085 28.2H5.265L8.595 19.2H10.155V19.455L6.09 30H4.245ZM14.1561 30.21C11.9811 30.21 10.6761 28.89 10.2711 27.015C10.2561 26.88 10.2411 26.715 10.2411 26.58V25.335C10.2411 25.2 10.2561 25.05 10.2711 24.915C10.6911 23.07 11.9961 21.705 14.0811 21.705C16.1361 21.705 17.4111 22.935 17.7411 24.735C17.7711 24.87 17.7861 25.035 17.7861 25.17V26.19L17.6061 26.37H11.6211C11.7711 27.975 12.6861 28.95 14.1561 28.95C15.2361 28.95 15.8961 28.56 16.5261 27.735L17.4861 28.59C16.7511 29.595 15.7161 30.21 14.1561 30.21ZM11.6511 25.245H16.4361C16.3461 23.895 15.4161 22.935 14.0961 22.935C12.7011 22.935 11.8461 23.91 11.6511 25.245ZM19.642 30V21.9H20.707L21.022 22.905C21.337 22.29 21.907 21.9 22.702 21.9H23.617V23.235H22.567C21.697 23.235 21.097 23.67 21.037 24.825V30H19.642ZM27.6977 30.21C26.3327 30.21 25.1927 29.565 24.5927 28.5L25.6127 27.645C25.9727 28.485 26.8577 29.01 27.6977 29.01C28.5527 29.01 29.1677 28.65 29.3327 28.05C29.3327 27.975 29.3477 27.9 29.3477 27.825V27.6C29.3477 27.555 29.3327 27.495 29.3327 27.435C29.2127 27.015 28.8677 26.745 28.0127 26.52L26.7677 26.205C25.7177 25.935 25.1027 25.38 24.9227 24.54C24.9077 24.45 24.8927 24.36 24.8927 24.27V23.745C24.8927 23.67 24.9077 23.58 24.9227 23.505C25.1777 22.455 26.3477 21.705 27.7877 21.705C29.0477 21.705 30.0377 22.215 30.6977 23.175L29.7377 23.97C29.2577 23.22 28.6277 22.905 27.7427 22.905C26.9927 22.905 26.4077 23.22 26.2577 23.73C26.2427 23.79 26.2427 23.835 26.2427 23.895V24.03C26.2427 24.075 26.2577 24.12 26.2577 24.165C26.3777 24.63 26.7677 24.915 27.5177 25.095L28.6427 25.365C29.7827 25.635 30.3977 26.16 30.6527 26.925C30.6827 27.03 30.7127 27.15 30.7127 27.27V27.975C30.7127 28.125 30.6977 28.245 30.6527 28.38C30.3077 29.49 29.2277 30.21 27.6977 30.21ZM32.6205 30V21.9H34.0155V30H32.6205ZM33.3255 20.46C32.7705 20.46 32.3205 20.01 32.3205 19.455C32.3205 18.9 32.7705 18.45 33.3255 18.45C33.8805 18.45 34.3155 18.9 34.3155 19.455C34.3155 20.01 33.8805 20.46 33.3255 20.46ZM39.8648 30.21C38.0348 30.21 36.3398 29.085 35.9648 27.09C35.9348 26.925 35.9198 26.775 35.9198 26.595V25.32C35.9198 25.14 35.9348 24.975 35.9648 24.825C36.3398 22.83 38.0348 21.705 39.8648 21.705C41.7098 21.705 43.3898 22.83 43.7798 24.825C43.7948 24.975 43.8248 25.14 43.8248 25.32V26.595C43.8248 26.775 43.7948 26.925 43.7798 27.09C43.3898 29.085 41.7098 30.21 39.8648 30.21ZM39.8648 28.95C41.0048 28.95 42.1448 28.26 42.3998 26.955C42.4148 26.82 42.4298 26.67 42.4298 26.505V25.41C42.4298 25.245 42.4148 25.095 42.3998 24.96C42.1448 23.64 41.0048 22.965 39.8648 22.965C38.7248 22.965 37.5998 23.64 37.3448 24.96C37.3148 25.095 37.3148 25.245 37.3148 25.41V26.505C37.3148 26.67 37.3148 26.82 37.3448 26.955C37.5998 28.26 38.7248 28.95 39.8648 28.95ZM45.7163 30V21.9H46.7813L47.1113 22.965C47.5613 22.275 48.3862 21.705 49.5713 21.705C51.4613 21.705 52.5563 22.875 52.5563 24.81V30H51.1613V24.885C51.1013 23.835 50.5013 22.995 49.2263 22.995C48.2513 22.995 47.4713 23.565 47.1113 24.48V30H45.7163ZM56.0831 26.61L55.9781 24.06H56.5181C57.4781 24.06 58.2131 23.67 58.3331 22.62C58.3481 22.56 58.3631 22.515 58.3631 22.335V21.81C58.3631 21.735 58.3481 21.615 58.3331 21.555C58.1981 20.745 57.5681 20.25 56.6531 20.25C55.6481 20.25 54.9731 20.73 54.5381 21.705L53.4131 21.045C53.9531 19.755 55.0631 19.005 56.6831 19.005C58.4231 19.005 59.5631 19.92 59.7581 21.405C59.7731 21.45 59.7881 21.585 59.7881 21.645V22.395C59.7881 22.56 59.7731 22.605 59.7731 22.635C59.6381 24.06 58.7081 24.945 57.3431 25.11L57.1181 26.61H56.0831ZM56.6081 30.21C56.0531 30.21 55.6031 29.76 55.6031 29.205C55.6031 28.65 56.0531 28.215 56.6081 28.215C57.1631 28.215 57.5981 28.65 57.5981 29.205C57.5981 29.76 57.1631 30.21 56.6081 30.21ZM65.2419 30V19.2H69.6219C71.3769 19.2 72.6069 19.89 73.0419 21.255V24.21C72.5919 25.575 71.3469 26.28 69.6219 26.28H67.4919V30H65.2419ZM69.4419 24.27C70.2219 24.27 70.6719 23.985 70.8819 23.385V22.095C70.6719 21.495 70.2219 21.21 69.4419 21.21H67.4919V24.27H69.4419ZM74.6141 30V21.9H76.2641L76.7141 22.98C76.9991 22.335 77.4941 21.9 78.2741 21.9H79.2041V23.91H78.0491C77.2841 23.91 76.8341 24.3 76.7141 25.065V30H74.6141ZM84.2217 30.24C82.3167 30.24 80.5767 29.085 80.1717 27.255V24.645C80.5767 22.815 82.3167 21.66 84.2217 21.66C86.1267 21.66 87.8667 22.815 88.2717 24.645V27.255C87.8667 29.085 86.1267 30.24 84.2217 30.24ZM84.2217 28.35C85.1367 28.35 85.9767 27.87 86.1717 27.015V24.885C85.9767 24.03 85.1367 23.55 84.2217 23.55C83.3067 23.55 82.4667 24.03 82.2717 24.885V27.015C82.4667 27.87 83.3067 28.35 84.2217 28.35ZM94.6307 30.24C93.5057 30.24 92.6207 29.82 92.0657 29.025L91.6157 30H89.9657V18.3H92.0657V22.695C92.6057 22.035 93.4607 21.66 94.4807 21.66C96.4607 21.66 97.6607 22.74 98.0357 24.51V25.95V27.39C97.6607 29.22 96.4307 30.24 94.6307 30.24ZM94.0007 28.35C95.0207 28.35 95.6957 27.87 95.9357 26.79V25.95V25.11C95.6957 24.105 95.0057 23.55 94.0007 23.55C92.9957 23.55 92.3057 24.105 92.0657 25.11V26.79C92.3057 27.87 92.9807 28.35 94.0007 28.35ZM99.7362 30V21.9H101.836V30H99.7362ZM100.786 20.82C100.021 20.82 99.4062 20.205 99.4062 19.44C99.4062 18.675 100.021 18.06 100.786 18.06C101.551 18.06 102.166 18.675 102.166 19.44C102.166 20.205 101.551 20.82 100.786 20.82ZM107.601 30.24C105.471 30.24 104.091 29.22 103.536 27.18V24.72C104.091 22.785 105.576 21.66 107.496 21.66C109.626 21.66 110.931 22.71 111.336 24.72V26.37L111.111 26.595H105.561C105.741 27.705 106.446 28.35 107.601 28.35C108.456 28.35 109.041 28.095 109.671 27.36L111.066 28.665C110.256 29.745 109.056 30.24 107.601 30.24ZM105.621 24.975H109.326C109.146 24.06 108.501 23.46 107.526 23.46C106.521 23.46 105.876 24.045 105.621 24.975ZM112.964 30V21.9H114.614L115.064 22.98C115.349 22.335 115.844 21.9 116.624 21.9H117.554V23.91H116.399C115.634 23.91 115.184 24.3 115.064 25.065V30H112.964ZM126.161 30.24C124.031 30.24 122.651 29.22 122.096 27.18V24.72C122.651 22.785 124.136 21.66 126.056 21.66C128.186 21.66 129.491 22.71 129.896 24.72V26.37L129.671 26.595H124.121C124.301 27.705 125.006 28.35 126.161 28.35C127.016 28.35 127.601 28.095 128.231 27.36L129.626 28.665C128.816 29.745 127.616 30.24 126.161 30.24ZM124.181 24.975H127.886C127.706 24.06 127.061 23.46 126.086 23.46C125.081 23.46 124.436 24.045 124.181 24.975ZM134.193 30.24C132.903 30.24 131.673 29.715 130.938 28.665L132.393 27.36C132.723 28.065 133.578 28.5 134.223 28.5C134.793 28.5 135.243 28.26 135.378 27.945V27.45C135.258 27.165 135.033 27.03 134.553 26.91L133.158 26.55C132.063 26.265 131.403 25.71 131.223 24.765V23.64C131.553 22.53 132.843 21.66 134.373 21.66C135.693 21.66 136.668 22.11 137.448 23.085L136.083 24.3C135.678 23.685 135.123 23.4 134.328 23.4C133.833 23.4 133.398 23.61 133.278 23.955V24.255C133.398 24.555 133.623 24.735 134.163 24.855L135.288 25.11C136.563 25.395 137.148 25.905 137.448 26.85V28.275C137.088 29.475 135.948 30.24 134.193 30.24ZM140.96 33.3V31.35H141.815C142.43 31.35 142.685 31.005 142.685 30.39V21.9H144.785V30.72C144.785 32.445 143.72 33.3 141.995 33.3H140.96ZM143.735 20.82C142.97 20.82 142.355 20.205 142.355 19.44C142.355 18.675 142.97 18.06 143.735 18.06C144.5 18.06 145.115 18.675 145.115 19.44C145.115 20.205 144.5 20.82 143.735 20.82ZM150.55 30.24C148.42 30.24 147.04 29.22 146.485 27.18V24.72C147.04 22.785 148.525 21.66 150.445 21.66C152.575 21.66 153.88 22.71 154.285 24.72V26.37L154.06 26.595H148.51C148.69 27.705 149.395 28.35 150.55 28.35C151.405 28.35 151.99 28.095 152.62 27.36L154.015 28.665C153.205 29.745 152.005 30.24 150.55 30.24ZM148.57 24.975H152.275C152.095 24.06 151.45 23.46 150.475 23.46C149.47 23.46 148.825 24.045 148.57 24.975ZM159.305 30C157.58 30 156.515 29.145 156.515 27.42V23.85H155.285V21.9H156.515V21.6L157.505 19.8H158.615V21.9H160.475V23.85H158.615V27.09C158.615 27.705 158.87 28.05 159.485 28.05H160.34V30H159.305ZM161.572 30V28.125L165.037 24.09V23.85H161.722V21.9H167.767V23.775L164.302 27.81V28.05H167.917V30H161.572ZM173.074 30C171.349 30 170.284 29.145 170.284 27.42V23.85H169.054V21.9H170.284V21.6L171.274 19.8H172.384V21.9H174.244V23.85H172.384V27.09C172.384 27.705 172.639 28.05 173.254 28.05H174.109V30H173.074ZM181.616 30.24C180.311 30.24 179.246 29.595 178.961 28.53V26.655C179.396 25.59 180.446 25.005 181.916 25.005C182.651 25.005 183.281 25.215 183.821 25.53V24.915C183.821 24.21 183.476 23.85 182.771 23.85H179.666V21.9H182.981C185.171 21.9 185.921 22.92 185.921 24.915V30H184.256L183.851 28.95C183.326 29.79 182.591 30.24 181.616 30.24ZM182.156 28.41C182.891 28.41 183.326 28.29 183.821 27.78V27.315C183.371 26.895 182.936 26.685 182.156 26.685C181.616 26.685 181.166 26.85 180.971 27.18V27.915C181.136 28.245 181.601 28.41 182.156 28.41ZM190.874 30.24C188.984 30.24 187.874 29.07 187.874 27.135V21.9H189.974V26.82C190.124 27.81 190.709 28.29 191.534 28.29C192.404 28.29 193.049 27.765 193.214 26.82V21.9H195.314V30H193.664L193.229 28.95C192.794 29.76 191.939 30.24 190.874 30.24ZM200.053 30.24C198.763 30.24 197.533 29.715 196.798 28.665L198.253 27.36C198.583 28.065 199.438 28.5 200.083 28.5C200.653 28.5 201.103 28.26 201.238 27.945V27.45C201.118 27.165 200.893 27.03 200.413 26.91L199.018 26.55C197.923 26.265 197.263 25.71 197.083 24.765V23.64C197.413 22.53 198.703 21.66 200.233 21.66C201.553 21.66 202.528 22.11 203.308 23.085L201.943 24.3C201.538 23.685 200.983 23.4 200.188 23.4C199.693 23.4 199.258 23.61 199.138 23.955V24.255C199.258 24.555 199.483 24.735 200.023 24.855L201.148 25.11C202.423 25.395 203.008 25.905 203.308 26.85V28.275C202.948 29.475 201.808 30.24 200.053 30.24ZM205.286 26.265L204.836 23.115V19.2H207.026V23.115L206.576 26.265H205.286ZM205.931 30.24C205.166 30.24 204.551 29.625 204.551 28.86C204.551 28.095 205.166 27.48 205.931 27.48C206.696 27.48 207.311 28.095 207.311 28.86C207.311 29.625 206.696 30.24 205.931 30.24Z" fill="#011C58"/>
<path d="M259.13 30.9059C256.879 32.0703 254.515 32.9449 251.939 33.4007C248.304 34.0489 244.418 33.9272 240.234 32.8586C236.31 31.8555 232.341 30.0603 228.331 26.8918C227.113 25.9344 225.954 24.8567 224.918 23.5002C224.261 24.5774 224.286 24.8695 225.454 26.1463C226.878 27.7136 228.417 28.9724 229.984 30.044C233.916 32.7649 237.725 34.1272 241.484 34.9393C247.026 36.1303 251.945 35.6828 256.453 34.1173C257.126 33.8838 257.685 33.4115 258.686 33.4581C258.205 34.3951 257.82 35.2236 257.382 35.9983C257.134 36.4373 257.05 36.9654 257.153 37.6373C257.184 37.8232 257.291 38.1004 257.411 38.2331C257.643 38.469 257.782 38.317 257.87 38.1621C258.534 37.0804 259.191 35.9862 259.871 34.9127C260.426 34.0162 260.996 33.1448 261.552 32.2483C261.596 32.1878 261.632 32.1318 261.676 32.0713C262.391 30.8568 262.065 30.0125 260.47 29.1622C258.652 28.1904 256.842 27.299 255.025 26.4289C254.064 25.9656 253.911 26.2113 254.092 27.3647C254.179 27.9606 254.441 28.2127 254.873 28.4308C256.028 28.9995 257.182 29.6022 258.345 30.2174C258.576 30.3346 258.835 30.3322 259.144 30.914" fill="#60BBE3"/>
</svg>
