<svg width="161" height="35" viewBox="0 0 161 35" fill="none" xmlns="http://www.w3.org/2000/svg">
<g clip-path="url(#clip0_133_816)">
<path d="M72.4527 14.9822H74.6745V17.9553C74.6745 19.9385 76.1371 21.4339 78.0767 21.4339C80.0164 21.4339 81.479 19.9383 81.479 17.9553V14.9822H83.7008V23.2156H81.479V22.2601C80.6721 23.0931 79.4342 23.5794 78.0767 23.5794C75.0622 23.5794 72.5744 21.1693 72.458 18.1747L72.4527 14.9822Z" fill="#030504"/>
<path d="M143.048 17.1363C143.048 13.5836 140.157 10.6934 136.605 10.6934C133.052 10.6934 130.162 13.5836 130.162 17.1363H132.384C132.384 14.7264 134.238 12.8389 136.605 12.8389C139.011 12.8389 140.826 14.6863 140.826 17.1363H143.048Z" fill="#030504"/>
<path d="M127.174 14.9822H124.952V23.2156H127.174V14.9822Z" fill="#030504"/>
<path d="M119.245 19.6671V9.31555H117.027V19.7436C117.027 21.6578 118.584 23.2153 120.499 23.2153H122.877V21.0698H120.648C119.874 21.0698 119.245 20.4407 119.245 19.6671Z" fill="#030504"/>
<path d="M126.052 5.63525C125.187 5.63525 124.51 6.31228 124.51 7.17685C124.51 8.08347 125.158 8.74143 126.052 8.74143C126.945 8.74143 127.616 8.0688 127.616 7.17685C127.616 6.2849 126.958 5.63525 126.052 5.63525Z" fill="#030504"/>
<path d="M67.2733 9.31555V12.5107C66.2588 11.3569 64.8011 10.6933 63.0522 10.6933C59.4995 10.6933 56.6093 13.5836 56.6093 17.1362C56.6093 20.6889 59.4995 23.5792 63.0522 23.5792C64.8011 23.5792 66.2588 22.9156 67.2733 21.7618V23.2153H69.4951V9.31555H67.2733ZM63.0519 21.4339C60.6524 21.4339 58.8308 19.5461 58.8308 17.1362C58.8308 14.7264 60.6152 12.8388 63.0519 12.8388C65.4583 12.8388 67.273 14.6863 67.273 17.1362C67.273 19.203 65.6593 21.4339 63.0519 21.4339Z" fill="#030504"/>
<path d="M92.7586 23.5794C95.8743 23.5794 98.224 21.4309 98.9399 18.9629H96.597C96.2579 19.7306 95.1528 21.4341 92.7583 21.4341V23.5796L92.7586 23.5794Z" fill="#030504"/>
<path d="M86.3156 17.1363C86.3156 13.5272 89.2443 10.6934 92.7585 10.6934C95.8742 10.6934 98.2398 12.8071 98.9765 15.4313H96.6493C96.3471 14.5844 95.1116 12.8389 92.7585 12.8389C90.3707 12.8389 88.5374 14.7467 88.5374 17.1365L86.3156 17.1363Z" fill="#030504"/>
<path d="M158.979 11.9719V10.2865H159.393L159.819 11.6327L160.231 10.2865H160.636V11.9719H160.379V10.5574L159.945 11.9719H159.691L159.238 10.5369V11.9719H158.979ZM157.96 11.9719V10.5369H157.414V10.2867H158.791V10.5369H158.242V11.9719H157.96Z" fill="#181716"/>
<path d="M111.459 17.1363C111.459 19.2031 109.845 21.4339 107.237 21.4339C104.87 21.4339 103.016 19.5461 103.016 17.1363C103.016 14.7264 104.87 12.8389 107.237 12.8389C108.789 12.8389 110.094 13.6078 110.826 14.8108V11.9019C109.873 11.1271 108.65 10.6934 107.237 10.6934C103.685 10.6934 100.794 13.5836 100.794 17.1363C100.794 20.6889 103.685 23.5792 107.237 23.5792C108.986 23.5792 110.444 22.9156 111.459 21.7618V23.2154H113.68V16.392H111.4C111.437 16.6328 111.458 16.881 111.458 17.1363H111.459Z" fill="#030504"/>
<path d="M157.408 23.2154L157.402 16.1023C157.286 13.1078 154.798 10.6978 151.784 10.6978C150.742 10.6978 149.772 10.985 149.012 11.4943V14.2541C149.619 13.3875 150.614 12.8433 151.784 12.8433C153.723 12.8433 155.186 14.3389 155.186 16.3218V23.2156L157.408 23.2154Z" fill="#030504"/>
<path d="M148.381 19.239H146.16V23.2154H148.381V19.239Z" fill="#030504"/>
<path d="M55.0228 17.1363C55.0228 13.5836 52.1326 10.6934 48.5799 10.6934V12.8389C50.4646 12.8389 52.0137 13.9702 52.582 15.7397H45.2877C45.1021 16.1773 45.0031 16.6517 45.0031 17.1363C45.0031 17.3901 45.031 17.6407 45.0833 17.8852H54.9803C54.9991 17.7043 55.0228 17.4148 55.0228 17.1363Z" fill="#030504"/>
<path d="M52.8847 21.9221C53.7466 21.1492 54.2808 20.2272 54.5447 19.5795H52.081C51.8008 20.012 50.717 21.4338 48.5798 21.4338V23.5793C50.4187 23.5793 51.8928 22.8123 52.885 21.9223L52.8847 21.9221Z" fill="#030504"/>
<path d="M110.826 16.392V10.7252H111.48V10.0511C111.48 9.98263 111.535 9.92688 111.604 9.92688H113.534C113.603 9.92688 113.658 9.98238 113.658 10.0511V10.7252H114.312V16.392H110.826H110.826Z" fill="#00A237"/>
<path d="M89.1811 17.1365H85.671C85.671 19.016 86.4177 20.8187 87.7466 22.1476C89.0757 23.4767 90.8782 24.2234 92.7579 24.2234V20.7133C91.8092 20.7133 90.8994 20.3365 90.2288 19.6656C89.5579 18.9947 89.1811 18.0851 89.1811 17.1365Z" fill="#ED6A70"/>
<path d="M140.182 17.1362C140.182 18.0849 139.805 18.9947 139.134 19.6654C138.463 20.3363 137.553 20.7131 136.604 20.7131C135.656 20.7131 134.746 20.3363 134.075 19.6654C133.404 18.9947 133.027 18.0849 133.027 17.1362H129.517C129.517 19.0157 130.264 20.8185 131.593 22.1476C132.922 23.4767 134.725 24.2232 136.604 24.2232C138.484 24.2232 140.286 23.4765 141.616 22.1476C142.945 20.8185 143.691 19.016 143.691 17.1362H140.182Z" fill="#ED6A70"/>
<path d="M127.152 10.7252V10.0511C127.152 9.98263 127.097 9.92688 127.028 9.92688H125.098C125.029 9.92688 124.973 9.98238 124.973 10.0511V10.7252H124.32V14.9822H127.805V10.7252H127.152H127.152Z" fill="#F8AC00"/>
<path d="M148.359 10.0511C148.359 9.98263 148.303 9.92688 148.234 9.92688H146.304C146.236 9.92688 146.18 9.98238 146.18 10.0511V10.7252H145.527V19.239H149.012V10.7252H148.358V10.0511H148.359Z" fill="#009996"/>
<path d="M83.6788 10.7252V10.0511C83.6788 9.98263 83.6233 9.92688 83.5546 9.92688H81.6245C81.556 9.92688 81.5002 9.98238 81.5002 10.0511V10.7252H80.8467V14.9822H84.3321V10.7252H83.6788Z" fill="#F8AC00"/>
<path d="M74.6477 10.7252V10.0511C74.6477 9.98263 74.5922 9.92688 74.5235 9.92688H72.5933C72.5249 9.92688 72.4691 9.98238 72.4691 10.0511V10.7252H71.8156V14.9822H75.301V10.7252H74.6474H74.6477Z" fill="#F8AC00"/>
<path d="M116.402 9.31558V5.05853H112.845V4.20546L116.4 0.798548H117.055V0.124208C117.055 0.0555023 117.11 0 117.179 0H119.11C119.179 0 119.235 0.0557468 119.235 0.124208V0.798793H119.887V5.05853H120.541V4.38444C120.541 4.31598 120.597 4.26023 120.665 4.26023H122.595C122.664 4.26023 122.72 4.31573 122.72 4.38444V5.05853H123.373V9.31558H116.402H116.402Z" fill="#B67540"/>
<path d="M69.4725 0.798793V0.124208C69.4725 0.0555023 69.417 0 69.3483 0H67.417C67.3483 0 67.2928 0.0557468 67.2928 0.124208V0.798793H66.6387L63.0841 4.20571V5.05878H66.6397V9.31583H70.1251L70.1263 0.799038H69.4723L69.4725 0.798793Z" fill="#009996"/>
<path d="M48.58 13.5595V10.0494C46.7005 10.0494 44.8978 10.7962 43.5687 12.1253C42.2395 13.4544 41.4928 15.2569 41.4928 17.1366C41.4928 19.0164 42.2395 20.8188 43.5687 22.1477C44.8978 23.4768 46.7003 24.2236 48.58 24.2236V20.7135C47.6313 20.7135 46.7215 20.3367 46.0506 19.6658C45.3797 18.9948 45.0029 18.085 45.0029 17.1364C45.0029 16.1877 45.3797 15.2779 46.0506 14.607C46.7215 13.9361 47.6313 13.5595 48.58 13.5595Z" fill="#ED6A70"/>
<path d="M0.234802 0.231323V34.4229H34.4262V0.231323H0.234802Z" fill="white"/>
<path d="M0.234802 0.231323V34.4229H34.4262V0.231323H0.234802ZM32.1516 14.4438C32.0951 15.5094 31.7559 16.8363 31.4574 17.7231C30.2549 21.2955 28.8613 23.51 25.6328 23.51C24.6827 23.51 22.9964 23.2574 22.3753 21.5665L22.2281 21.1655L21.9636 21.5009C20.9543 22.7797 19.4545 23.5176 17.8483 23.5252C16.6163 23.531 15.6268 23.1181 14.9864 22.3313L14.8106 22.1154L14.6238 22.3217C13.94 23.0768 12.749 23.5098 11.3563 23.5098C10.2626 23.5098 9.31835 23.1381 8.69707 22.464L8.52763 22.2797L8.35159 22.4577C7.66086 23.155 6.57258 23.5063 5.20409 23.4741C3.54391 23.4347 2.53338 22.5083 2.50086 20.9948C2.45049 18.6615 4.70897 13.7526 5.64322 12.2599C6.25032 11.2628 7.08457 10.7794 8.19535 10.7794C8.9516 10.7794 9.46848 10.9376 9.77557 11.2628C10.055 11.5587 10.1105 11.8086 10.1352 12.4086L10.1673 13.1849L10.5768 12.5247C11.5683 10.9274 13.2111 10.7071 14.8388 10.7071C15.9703 10.7071 16.9579 11.1235 17.3544 11.7675L17.5004 12.0047L17.7129 11.8245C18.5513 11.1115 19.7347 10.7188 21.045 10.7188C22.4746 10.7188 23.5137 11.0743 24.1338 11.7753C24.2746 11.935 24.3678 12.0465 24.4976 12.3181L24.657 12.6521L24.8957 12.3697C25.8028 11.2963 27.0422 10.7523 28.5794 10.7523C29.797 10.7523 30.7215 11.0758 31.3266 11.7139C32.0855 12.5142 32.1939 13.6399 32.1513 14.4433L32.1516 14.4438Z" fill="#FFED00"/>
<path d="M0.234802 0.231323V34.4229H34.4262V0.231323H0.234802ZM33.1142 15.7556C32.9594 16.9996 32.1183 19.305 31.6714 20.2263C30.4728 22.6961 28.8711 24.5939 25.7852 24.5939C24.1367 24.5939 22.7807 24.0682 21.9878 23.0577C20.8269 24.0748 19.3895 24.6083 17.8422 24.6083C16.6498 24.6083 15.5965 24.2641 14.7928 23.6271C13.9065 24.2521 12.7101 24.6005 11.3837 24.6005C10.2761 24.6005 9.27923 24.2963 8.49975 23.7345C7.6369 24.3071 6.50607 24.591 5.17866 24.5597C2.96982 24.5076 1.44509 23.1066 1.40133 21.073C1.34314 18.3713 3.61897 13.426 4.69137 11.7135C5.49383 10.3953 6.71855 9.68554 8.21955 9.68554C9.84892 9.68554 10.4394 10.1513 10.7299 10.7438C11.9866 9.67601 13.6532 9.61488 14.8395 9.61488C16.149 9.61488 16.9703 9.96232 17.6696 10.5188C18.6349 9.93958 19.7423 9.63884 21.0611 9.63884C22.7477 9.63884 24.0001 10.031 24.8739 10.8949C25.8932 10.0469 27.1691 9.66011 28.5979 9.66011C30.4865 9.66011 31.7293 10.3415 32.4594 11.357C33.488 12.7888 33.3044 14.2311 33.1149 15.7553L33.1142 15.7556Z" fill="#E3000B"/>
<path d="M0 0V34.6542H34.654V0H0ZM34.1772 0.477026V34.1772H0.477026V0.477026H34.1772Z" fill="#181716"/>
<path d="M32.9473 10.3982V10.1625H33.1077C33.2249 10.1625 33.2852 10.2034 33.2852 10.2792C33.2852 10.3396 33.2461 10.398 33.1273 10.398L32.9473 10.3982ZM33.5222 10.8877L33.4224 10.7149C33.3356 10.5635 33.3117 10.5398 33.2378 10.5136V10.5092C33.3833 10.4919 33.4701 10.3982 33.4701 10.2684C33.4701 10.132 33.3833 10.0281 33.1989 10.0281H32.7703V10.888H32.9476V10.5357H32.9801C33.0561 10.5357 33.0865 10.5445 33.1212 10.5789C33.1559 10.6137 33.208 10.687 33.2383 10.7476L33.3077 10.8882H33.5227L33.5222 10.8877ZM33.0989 9.78821C33.4684 9.78821 33.7686 10.0858 33.7686 10.4547C33.7686 10.8237 33.4686 11.1225 33.0989 11.1225C32.7292 11.1225 32.4341 10.8229 32.4341 10.4547C32.4341 10.0865 32.731 9.78821 33.0989 9.78821ZM33.0989 9.62415C32.64 9.62415 32.2701 9.99481 32.2701 10.4547C32.2701 10.9146 32.6402 11.2841 33.0989 11.2841C33.5576 11.2841 33.9302 10.9141 33.9302 10.4547C33.9302 9.9953 33.5596 9.62415 33.0989 9.62415Z" fill="#181716"/>
<path d="M28.5793 10.514C26.7883 10.514 25.5511 11.2243 24.7132 12.216C24.5714 11.9194 24.4643 11.7891 24.3129 11.6177C23.6274 10.8424 22.5246 10.4805 21.0452 10.4805C19.5996 10.4805 18.3947 10.9318 17.5583 11.6429C17.1233 10.9367 16.0878 10.4688 14.8389 10.4688C13.2071 10.4688 11.4288 10.6996 10.374 12.3993C10.3489 11.7871 10.2934 11.4636 9.94934 11.0993C9.53124 10.6565 8.8547 10.5411 8.19527 10.5411C6.99427 10.5411 6.09108 11.0656 5.4407 12.1338C4.49716 13.6412 2.21032 18.599 2.26191 21.0002C2.29516 22.5514 3.33601 23.6695 5.19839 23.713C6.65368 23.748 7.79502 23.3592 8.5212 22.6262C9.1728 23.3338 10.1669 23.749 11.3562 23.749C12.6807 23.749 14.0137 23.3514 14.8008 22.4819C15.4639 23.2971 16.5077 23.7705 17.8492 23.7641C19.6036 23.7558 21.1444 22.924 22.1508 21.6492C22.7029 23.1524 24.1036 23.749 25.6328 23.749C28.9847 23.749 30.4571 21.4443 31.6837 17.7995C31.9603 16.9787 32.3287 15.6082 32.3901 14.4568C32.4918 12.5414 31.6813 10.5142 28.5795 10.5142L28.5793 10.514ZM6.27665 19.6765C8.01092 19.3755 8.44711 20.0024 8.39234 20.5829C8.22877 22.3211 6.63412 22.7101 5.24974 22.6773C4.24556 22.6536 3.34261 22.1937 3.31743 21.0276C3.27366 18.988 5.35365 14.2696 6.33289 12.7052C6.78498 11.9629 7.33609 11.5957 8.21508 11.5957C9.04786 11.5957 9.25446 12.0233 9.24199 12.5353C9.20898 13.9013 7.00112 18.0542 6.27665 19.6765ZM11.9242 18.0745C11.8095 18.3848 11.5922 19.0354 11.4166 19.7252C11.9856 19.5826 12.4127 19.4838 13.144 19.5014C13.9773 19.522 14.5098 19.8672 14.5098 20.5562C14.5098 22.2264 12.6636 22.7172 11.3831 22.7172C9.97672 22.7172 8.74149 21.9164 8.74149 20.3787C8.74149 18.576 9.71877 15.8422 10.6359 14.0216C11.7623 11.7856 12.9127 11.4881 14.8947 11.4881C15.7661 11.4881 16.7693 11.8607 16.7693 12.6825C16.7693 13.8226 15.8035 14.2578 14.846 14.3123C14.4372 14.3356 13.8081 14.3583 13.4313 14.3317C13.4313 14.3317 13.1127 14.8175 12.7738 15.6823C14.547 15.4329 15.2988 15.8354 14.9993 16.8608C14.5949 18.2466 13.3944 18.3379 11.924 18.0748L11.9242 18.0745ZM20.6454 13.7637C20.1659 13.7637 19.8522 14.0674 19.6187 14.3955C19.1053 15.117 17.9913 18.0092 17.818 19.197C17.6991 20.011 18.0505 20.1768 18.4346 20.1768C19.0505 20.1768 19.7412 19.5249 19.9769 18.4491C19.9769 18.4491 18.804 18.4207 19.1278 17.3809C19.4419 16.3716 20.0376 16.153 21.0256 16.1124C22.9721 16.0329 22.7799 17.4704 22.6242 18.2366C22.1183 20.7254 20.3471 22.725 17.8414 22.725C16.1257 22.725 15.0609 21.7761 15.0609 20.0264C15.0609 18.7799 15.6793 16.8232 16.1695 15.6784C17.2131 13.2412 18.307 11.5353 21.0945 11.5353C22.7669 11.5353 24.0863 12.136 23.8929 13.703C23.7508 14.8529 23.1753 15.5283 22.1298 15.6097C21.8373 15.6327 20.641 15.6023 21.0378 14.4705C21.1765 14.0747 21.2332 13.7637 20.6454 13.7637ZM31.173 15.8209C30.8779 17.2884 30.2153 19.0239 29.4957 20.3178C28.3218 22.4289 26.8961 22.7242 25.6514 22.7096C24.4066 22.6947 23.0034 22.235 22.9926 20.3144C22.985 18.9357 23.5799 16.9894 24.0846 15.7138C24.9643 13.4016 25.8638 11.516 28.7069 11.5497C32.0221 11.5891 31.4309 14.5375 31.173 15.8209ZM28.8091 14.3754C28.7737 15.2608 27.4761 18.8017 27.015 19.5826C26.8152 19.9213 26.59 20.2012 26.1841 20.2012C25.8303 20.2012 25.6719 19.9499 25.6628 19.6628C25.6372 18.864 27.1032 14.8578 27.6047 14.2079C27.8279 13.8637 28.0761 13.8084 28.3605 13.8121C28.7766 13.8172 28.8194 14.1175 28.8091 14.3754Z" fill="#181716"/>
</g>
<defs>
<clipPath id="clip0_133_816">
<rect width="160.635" height="34.6542" fill="white"/>
</clipPath>
</defs>
</svg>
