<svg width="42" height="37" viewBox="0 0 42 37" fill="none" xmlns="http://www.w3.org/2000/svg">
<g clip-path="url(#clip0_133_859)">
<path d="M4.47702 10.8441L2.36221 2.07831V1.56189H4.96666L6.04862 7.23362H6.30757L7.46841 1.56189H10.433L11.5938 7.23362H11.8513L12.9333 1.56189H15.5377V2.07831L13.4244 10.8441H10.1755L9.08019 4.97892H8.82272L7.72737 10.8441H4.47851H4.47702Z" fill="black"/>
<path d="M16.2207 8.44673V6.28132C16.7491 4.60555 18.0513 3.67688 19.7657 3.67688C21.4802 3.67688 22.7824 4.60406 23.3108 6.28132V8.44673C22.7824 10.1225 21.4802 11.0512 19.7657 11.0512C18.0513 11.0512 16.7491 10.124 16.2207 8.44673ZM20.9906 8.21456V6.512C20.8105 5.99558 20.3462 5.68751 19.7657 5.68751C19.1853 5.68751 18.721 5.99707 18.5409 6.512V8.21456C18.721 8.73099 19.1853 9.03906 19.7657 9.03906C20.3462 9.03906 20.8105 8.7295 20.9906 8.21456Z" fill="black"/>
<path d="M29.1875 3.88367V5.94639H27.924C27.2409 5.94639 26.9566 6.19046 26.842 6.70688V10.8442H24.3924V3.88367H26.4551L26.8331 4.75876C27.0965 4.15155 27.5757 3.88367 28.2083 3.88367H29.1875Z" fill="black"/>
<path d="M32.8365 10.8442C31.0714 10.8442 30.0788 9.91701 30.0788 8.33053V0.789551H32.5284V8.04776C32.5284 8.5121 32.7219 8.78147 33.2383 8.78147H33.9988V10.8442H32.838H32.8365Z" fill="black"/>
<path d="M34.7179 8.60139V6.12643C34.9753 4.61883 36.0975 3.67676 37.6304 3.67676C38.443 3.67676 39.1261 3.99971 39.5502 4.51465V0.789551H41.9999V10.8442H39.9253L39.577 10.0197C39.1395 10.6894 38.3909 11.0511 37.4235 11.0511C36.0052 11.0511 34.9872 10.1358 34.7164 8.60139H34.7179ZM39.5517 8.21445V6.51337C39.3449 5.95825 38.946 5.68888 38.3269 5.68888C37.7078 5.68888 37.2955 5.95974 37.1021 6.51337V8.21445C37.3595 8.79487 37.7212 9.03894 38.3269 9.03894C38.9326 9.03894 39.3196 8.77998 39.5517 8.21445Z" fill="black"/>
<path d="M12.9166 22.8396V13.5574H17.0152C18.7044 13.5574 19.8518 14.3045 20.1733 15.5948V18.0564C19.8384 19.3452 18.7297 20.0417 17.0152 20.0417H15.4942V22.8396H12.9166ZM15.4942 17.787H16.7965C17.2861 17.787 17.5823 17.6322 17.7236 17.2319V16.4327C17.5823 16.0323 17.2861 15.8776 16.7965 15.8776H15.4942V17.7855V17.787Z" fill="black"/>
<path d="M23.8732 22.8394C22.1081 22.8394 21.1154 21.9122 21.1154 20.3258V12.7848H23.5651V20.043C23.5651 20.5073 23.7586 20.7767 24.275 20.7767H25.0355V22.8394H23.8746H23.8732Z" fill="black"/>
<path d="M25.665 21.576V20.0282C25.9225 19.0221 26.9404 18.5459 28.2292 18.5459C28.7963 18.5459 29.3112 18.6486 29.7249 18.8287V18.5831C29.7249 18.1188 29.5315 17.8866 29.015 17.8866H26.3079V15.876H29.4139C31.179 15.876 32.1716 16.766 32.1716 18.3509V22.8365H30.1089L29.722 21.96C29.4511 22.6178 28.7814 23.0419 27.8527 23.0419C26.6413 23.0419 25.9448 22.463 25.6605 21.573H25.662L25.665 21.576ZM29.7249 20.8408V20.6339C29.5836 20.4018 29.2353 20.2604 28.8097 20.2604C28.384 20.2604 28.0879 20.3884 27.9197 20.6339V20.8408C28.0477 21.0849 28.3572 21.2143 28.8097 21.2143C29.2621 21.2143 29.6089 21.073 29.7249 20.8408Z" fill="black"/>
<path d="M33.515 25.6762V23.6135H34.6238C35.0881 23.6135 35.3069 23.4587 35.3069 23.1238C35.3069 22.9691 35.2295 22.7503 35.1387 22.5181L32.9212 16.3955V15.879H35.3441L36.5302 20.2738H36.7892L37.9619 15.879H40.3848V16.3955L37.7551 23.8471C37.2788 25.2014 36.621 25.6777 35.2414 25.6777H33.5136L33.515 25.6762Z" fill="black"/>
<path d="M5.66397 33.3214V24.0406H9.38907C11.5679 24.0406 13.1916 25.3161 13.4624 27.2374V30.1633C13.2049 32.0713 11.5932 33.3214 9.38907 33.3214H5.66397ZM8.24163 31.0012H9.2209C10.2389 31.0012 10.7419 30.6783 10.8833 29.9431V27.4294C10.7538 26.6942 10.2389 26.3593 9.2209 26.3593H8.24163V30.9997V31.0012Z" fill="black"/>
<path d="M14.3909 32.0577V30.5099C14.6484 29.5038 15.6664 29.0276 16.9552 29.0276C17.5222 29.0276 18.0372 29.1303 18.4509 29.3104V29.0648C18.4509 28.6005 18.2574 28.3683 17.741 28.3683H15.0339V26.3577H18.1398C19.9049 26.3577 20.8976 27.2476 20.8976 28.8326V33.3182H18.8349L18.4479 32.4416C18.177 33.0995 17.5073 33.5236 16.5787 33.5236C15.3672 33.5236 14.6707 32.9447 14.3865 32.0547H14.388L14.3909 32.0577ZM18.4509 31.3225V31.1156C18.3095 30.8834 17.9613 30.7421 17.5356 30.7421C17.11 30.7421 16.8138 30.8715 16.6456 31.1156V31.3225C16.7751 31.5666 17.0832 31.696 17.5356 31.696C17.988 31.696 18.3348 31.5546 18.4509 31.3225Z" fill="black"/>
<path d="M22.2415 36.1579V34.0952H23.3502C23.8146 34.0952 24.0333 33.9404 24.0333 33.6055C24.0333 33.4508 23.9559 33.232 23.8652 32.9998L21.6477 26.8771V26.3607H24.0705L25.2567 30.7555H25.5141L26.6869 26.3607H29.1098V26.8771L26.48 34.3288C26.0038 35.6831 25.346 36.1594 23.9664 36.1594H22.2385H22.24L22.2415 36.1579Z" fill="black"/>
<path d="M6.00057 21.5149C7.27154 21.1503 8.28653 20.6339 9.08125 19.7365C9.27622 19.5162 9.39974 19.2989 9.16162 19.0608C8.92499 18.8242 8.70621 18.9418 8.48744 19.1397C6.92329 20.5595 5.08976 21 3.03597 20.6041C2.74725 20.5476 2.48829 20.5446 2.40346 20.8616C2.32161 21.1607 2.50169 21.3378 2.79636 21.4227C3.90809 21.7471 5.0213 21.7605 6.00057 21.5135" fill="black"/>
<path d="M2.73519 16.5115C2.53576 15.7436 1.77229 15.2941 1.0237 15.4995C0.284037 15.7019 -0.150533 16.4639 0.0488933 17.2051C0.249807 17.9551 0.990958 18.3897 1.73955 18.1977C2.48963 18.0043 2.93015 17.2586 2.73519 16.513" fill="black"/>
<path d="M8.42798 16.4089C9.16318 16.2065 9.60221 15.437 9.40725 14.7004C9.20783 13.9532 8.41161 13.5038 7.666 13.7196C6.92931 13.9324 6.51111 14.6944 6.71947 15.44C6.92782 16.1812 7.68683 16.6113 8.42798 16.4074" fill="black"/>
</g>
<defs>
<clipPath id="clip0_133_859">
<rect width="42" height="35.3683" fill="white" transform="translate(0 0.789551)"/>
</clipPath>
</defs>
</svg>
