<svg width="276" height="48" viewBox="0 0 276 48" fill="none" xmlns="http://www.w3.org/2000/svg">
<path d="M1.305 14V3.2H4.755C7.47 3.2 9.195 4.7 9.555 7.13C9.57 7.25 9.57 7.355 9.57 7.475V9.695C9.57 9.815 9.57 9.92 9.555 10.025C9.195 12.485 7.455 14 4.755 14H1.305ZM4.77 12.665C6.72 12.665 7.845 11.66 8.07 9.83C8.07 9.71 8.085 9.59 8.085 9.455V7.745C8.085 7.625 8.07 7.49 8.07 7.37C7.845 5.555 6.705 4.535 4.77 4.535H2.79V12.665H4.77ZM15.0504 14.21C13.2204 14.21 11.5254 13.085 11.1504 11.09C11.1204 10.925 11.1054 10.775 11.1054 10.595V9.32C11.1054 9.14 11.1204 8.975 11.1504 8.825C11.5254 6.83 13.2204 5.705 15.0504 5.705C16.8954 5.705 18.5754 6.83 18.9654 8.825C18.9804 8.975 19.0104 9.14 19.0104 9.32V10.595C19.0104 10.775 18.9804 10.925 18.9654 11.09C18.5754 13.085 16.8954 14.21 15.0504 14.21ZM15.0504 12.95C16.1904 12.95 17.3304 12.26 17.5854 10.955C17.6004 10.82 17.6154 10.67 17.6154 10.505V9.41C17.6154 9.245 17.6004 9.095 17.5854 8.96C17.3304 7.64 16.1904 6.965 15.0504 6.965C13.9104 6.965 12.7854 7.64 12.5304 8.96C12.5004 9.095 12.5004 9.245 12.5004 9.41V10.505C12.5004 10.67 12.5004 10.82 12.5304 10.955C12.7854 12.26 13.9104 12.95 15.0504 12.95ZM24.3895 17.3V16.01H25.3345C26.2195 16.01 26.6545 15.68 26.6545 14.93C26.6545 14.66 26.5495 14.375 26.3695 13.895L23.3845 6.155V5.9H24.8395L27.3445 12.725H27.5245L29.7595 5.9H31.1695V6.155L27.9595 15.32C27.4345 16.85 26.8345 17.3 25.3045 17.3H24.3895ZM36.1002 14.21C34.2702 14.21 32.5752 13.085 32.2002 11.09C32.1702 10.925 32.1552 10.775 32.1552 10.595V9.32C32.1552 9.14 32.1702 8.975 32.2002 8.825C32.5752 6.83 34.2702 5.705 36.1002 5.705C37.9452 5.705 39.6252 6.83 40.0152 8.825C40.0302 8.975 40.0602 9.14 40.0602 9.32V10.595C40.0602 10.775 40.0302 10.925 40.0152 11.09C39.6252 13.085 37.9452 14.21 36.1002 14.21ZM36.1002 12.95C37.2402 12.95 38.3802 12.26 38.6352 10.955C38.6502 10.82 38.6652 10.67 38.6652 10.505V9.41C38.6652 9.245 38.6502 9.095 38.6352 8.96C38.3802 7.64 37.2402 6.965 36.1002 6.965C34.9602 6.965 33.8352 7.64 33.5802 8.96C33.5502 9.095 33.5502 9.245 33.5502 9.41V10.505C33.5502 10.67 33.5502 10.82 33.5802 10.955C33.8352 12.26 34.9602 12.95 36.1002 12.95ZM44.8616 14.21C42.9866 14.21 41.8916 13.1 41.8916 11.165V5.9H43.2866V11.03C43.3466 12.065 43.9766 12.92 45.2066 12.92C46.1816 12.92 46.9016 12.35 47.2466 11.435V5.9H48.6416V14H47.5916L47.2616 12.935C46.8266 13.64 46.0916 14.21 44.8616 14.21ZM54.7543 14V5.9H55.8193L56.1493 6.965C56.5993 6.275 57.4243 5.705 58.6093 5.705C60.4993 5.705 61.5943 6.875 61.5943 8.81V14H60.1993V8.885C60.1393 7.835 59.5393 6.995 58.2643 6.995C57.2893 6.995 56.5093 7.565 56.1493 8.48V14H54.7543ZM67.3593 14.21C65.1843 14.21 63.8793 12.89 63.4743 11.015C63.4593 10.88 63.4443 10.715 63.4443 10.58V9.335C63.4443 9.2 63.4593 9.05 63.4743 8.915C63.8943 7.07 65.1993 5.705 67.2843 5.705C69.3393 5.705 70.6143 6.935 70.9443 8.735C70.9743 8.87 70.9893 9.035 70.9893 9.17V10.19L70.8093 10.37H64.8243C64.9743 11.975 65.8893 12.95 67.3593 12.95C68.4393 12.95 69.0993 12.56 69.7293 11.735L70.6893 12.59C69.9543 13.595 68.9193 14.21 67.3593 14.21ZM64.8543 9.245H69.6393C69.5493 7.895 68.6193 6.935 67.2993 6.935C65.9043 6.935 65.0493 7.91 64.8543 9.245ZM76.2802 14.21C74.1052 14.21 72.8002 12.89 72.3952 11.015C72.3802 10.88 72.3652 10.715 72.3652 10.58V9.335C72.3652 9.2 72.3802 9.05 72.3952 8.915C72.8152 7.07 74.1202 5.705 76.2052 5.705C78.2602 5.705 79.5352 6.935 79.8652 8.735C79.8952 8.87 79.9102 9.035 79.9102 9.17V10.19L79.7302 10.37H73.7452C73.8952 11.975 74.8102 12.95 76.2802 12.95C77.3602 12.95 78.0202 12.56 78.6502 11.735L79.6102 12.59C78.8752 13.595 77.8402 14.21 76.2802 14.21ZM73.7752 9.245H78.5602C78.4702 7.895 77.5402 6.935 76.2202 6.935C74.8252 6.935 73.9702 7.91 73.7752 9.245ZM84.7811 14.21C83.0711 14.21 81.8711 13.235 81.4361 11.57C81.3311 11.075 81.2861 10.535 81.2861 9.95C81.2861 9.395 81.3311 8.855 81.4211 8.36C81.8561 6.71 83.0411 5.705 84.8861 5.705C85.9661 5.705 86.8961 6.11 87.5111 6.845V2.3H88.9061V14H87.8561L87.5111 12.98C86.8661 13.835 86.0411 14.21 84.7811 14.21ZM85.1861 12.95C86.3111 12.95 87.0311 12.515 87.5111 11.435V8.555C87.0461 7.55 86.1761 6.965 85.1861 6.965C83.9111 6.965 83.0711 7.685 82.7561 8.825C82.6961 9.185 82.6511 9.56 82.6511 9.95C82.6511 10.355 82.6961 10.715 82.7561 11.075C83.0711 12.245 83.8961 12.95 85.1861 12.95ZM97.2432 14.21C95.7732 14.21 94.6632 13.34 94.5432 12.065V11.135C94.7382 9.83 95.8632 9.005 97.5282 9.005C98.3382 9.005 99.0432 9.2 99.6432 9.545V8.735C99.6432 7.64 99.2682 7.19 98.1282 7.19H95.2632V5.9H98.2182C100.303 5.9 101.038 6.8 101.038 8.72V14H99.9732L99.6582 12.935C99.0282 13.805 98.2782 14.21 97.2432 14.21ZM97.5132 12.965C98.3682 12.965 98.9982 12.68 99.6432 11.93V10.805C99.1182 10.37 98.5032 10.16 97.6182 10.16C96.6132 10.16 95.9832 10.595 95.8932 11.375V11.78C95.9682 12.485 96.6432 12.965 97.5132 12.965ZM109.539 14.21C108.174 14.21 107.034 13.565 106.434 12.5L107.454 11.645C107.814 12.485 108.699 13.01 109.539 13.01C110.394 13.01 111.009 12.65 111.174 12.05C111.174 11.975 111.189 11.9 111.189 11.825V11.6C111.189 11.555 111.174 11.495 111.174 11.435C111.054 11.015 110.709 10.745 109.854 10.52L108.609 10.205C107.559 9.935 106.944 9.38 106.764 8.54C106.749 8.45 106.734 8.36 106.734 8.27V7.745C106.734 7.67 106.749 7.58 106.764 7.505C107.019 6.455 108.189 5.705 109.629 5.705C110.889 5.705 111.879 6.215 112.539 7.175L111.579 7.97C111.099 7.22 110.469 6.905 109.584 6.905C108.834 6.905 108.249 7.22 108.099 7.73C108.084 7.79 108.084 7.835 108.084 7.895V8.03C108.084 8.075 108.099 8.12 108.099 8.165C108.219 8.63 108.609 8.915 109.359 9.095L110.484 9.365C111.624 9.635 112.239 10.16 112.494 10.925C112.524 11.03 112.554 11.15 112.554 11.27V11.975C112.554 12.125 112.539 12.245 112.494 12.38C112.149 13.49 111.069 14.21 109.539 14.21ZM117.371 14.21C115.496 14.21 114.401 13.1 114.401 11.165V5.9H115.796V11.03C115.856 12.065 116.486 12.92 117.716 12.92C118.691 12.92 119.411 12.35 119.756 11.435V5.9H121.151V14H120.101L119.771 12.935C119.336 13.64 118.601 14.21 117.371 14.21ZM123.543 14V5.9H124.608L124.938 6.965C125.403 6.17 126.273 5.705 127.263 5.705C128.313 5.705 129.138 6.23 129.558 7.175C130.113 6.215 130.983 5.705 132.093 5.705C133.788 5.705 134.808 6.83 134.808 8.69V14H133.413V8.78C133.353 7.655 132.723 6.995 131.688 6.995C130.878 6.995 130.233 7.49 129.873 8.45V14H128.478V8.78C128.418 7.61 127.833 6.995 126.768 6.995C125.943 6.995 125.298 7.49 124.938 8.45V14H123.543ZM137.137 14V5.9H138.202L138.532 6.965C138.997 6.17 139.867 5.705 140.857 5.705C141.907 5.705 142.732 6.23 143.152 7.175C143.707 6.215 144.577 5.705 145.687 5.705C147.382 5.705 148.402 6.83 148.402 8.69V14H147.007V8.78C146.947 7.655 146.317 6.995 145.282 6.995C144.472 6.995 143.827 7.49 143.467 8.45V14H142.072V8.78C142.012 7.61 141.427 6.995 140.362 6.995C139.537 6.995 138.892 7.49 138.532 8.45V14H137.137ZM152.966 14.21C151.496 14.21 150.386 13.34 150.266 12.065V11.135C150.461 9.83 151.586 9.005 153.251 9.005C154.061 9.005 154.766 9.2 155.366 9.545V8.735C155.366 7.64 154.991 7.19 153.851 7.19H150.986V5.9H153.941C156.026 5.9 156.761 6.8 156.761 8.72V14H155.696L155.381 12.935C154.751 13.805 154.001 14.21 152.966 14.21ZM153.236 12.965C154.091 12.965 154.721 12.68 155.366 11.93V10.805C154.841 10.37 154.226 10.16 153.341 10.16C152.336 10.16 151.706 10.595 151.616 11.375V11.78C151.691 12.485 152.366 12.965 153.236 12.965ZM159.081 14V5.9H160.146L160.461 6.905C160.776 6.29 161.346 5.9 162.141 5.9H163.056V7.235H162.006C161.136 7.235 160.536 7.67 160.476 8.825V14H159.081ZM164.896 14V5.9H166.291V14H164.896ZM165.601 4.46C165.046 4.46 164.596 4.01 164.596 3.455C164.596 2.9 165.046 2.45 165.601 2.45C166.156 2.45 166.591 2.9 166.591 3.455C166.591 4.01 166.156 4.46 165.601 4.46ZM168.09 14V12.74L172.275 7.385V7.19H168.24V5.9H174.045V7.16L169.86 12.53V12.71H174.195V14H168.09ZM179.347 14.21C177.172 14.21 175.867 12.89 175.462 11.015C175.447 10.88 175.432 10.715 175.432 10.58V9.335C175.432 9.2 175.447 9.05 175.462 8.915C175.882 7.07 177.187 5.705 179.272 5.705C181.327 5.705 182.602 6.935 182.932 8.735C182.962 8.87 182.977 9.035 182.977 9.17V10.19L182.797 10.37H176.812C176.962 11.975 177.877 12.95 179.347 12.95C180.427 12.95 181.087 12.56 181.717 11.735L182.677 12.59C181.942 13.595 180.907 14.21 179.347 14.21ZM176.842 9.245H181.627C181.537 7.895 180.607 6.935 179.287 6.935C177.892 6.935 177.037 7.91 176.842 9.245ZM187.847 14.21C186.137 14.21 184.937 13.235 184.502 11.57C184.397 11.075 184.352 10.535 184.352 9.95C184.352 9.395 184.397 8.855 184.487 8.36C184.922 6.71 186.107 5.705 187.952 5.705C189.032 5.705 189.962 6.11 190.577 6.845V2.3H191.972V14H190.922L190.577 12.98C189.932 13.835 189.107 14.21 187.847 14.21ZM188.252 12.95C189.377 12.95 190.097 12.515 190.577 11.435V8.555C190.112 7.55 189.242 6.965 188.252 6.965C186.977 6.965 186.137 7.685 185.822 8.825C185.762 9.185 185.717 9.56 185.717 9.95C185.717 10.355 185.762 10.715 185.822 11.075C186.137 12.245 186.962 12.95 188.252 12.95ZM199.972 14L196.867 6.155V5.9H198.307L200.707 12.425H200.902L203.332 5.9H204.742V6.155L201.652 14H199.972ZM209.464 14.21C207.289 14.21 205.984 12.89 205.579 11.015C205.564 10.88 205.549 10.715 205.549 10.58V9.335C205.549 9.2 205.564 9.05 205.579 8.915C205.999 7.07 207.304 5.705 209.389 5.705C211.444 5.705 212.719 6.935 213.049 8.735C213.079 8.87 213.094 9.035 213.094 9.17V10.19L212.914 10.37H206.929C207.079 11.975 207.994 12.95 209.464 12.95C210.544 12.95 211.204 12.56 211.834 11.735L212.794 12.59C212.059 13.595 211.024 14.21 209.464 14.21ZM206.959 9.245H211.744C211.654 7.895 210.724 6.935 209.404 6.935C208.009 6.935 207.154 7.91 206.959 9.245ZM214.95 14V5.9H216.015L216.33 6.905C216.645 6.29 217.215 5.9 218.01 5.9H218.925V7.235H217.875C217.005 7.235 216.405 7.67 216.345 8.825V14H214.95ZM223.005 14.21C221.64 14.21 220.5 13.565 219.9 12.5L220.92 11.645C221.28 12.485 222.165 13.01 223.005 13.01C223.86 13.01 224.475 12.65 224.64 12.05C224.64 11.975 224.655 11.9 224.655 11.825V11.6C224.655 11.555 224.64 11.495 224.64 11.435C224.52 11.015 224.175 10.745 223.32 10.52L222.075 10.205C221.025 9.935 220.41 9.38 220.23 8.54C220.215 8.45 220.2 8.36 220.2 8.27V7.745C220.2 7.67 220.215 7.58 220.23 7.505C220.485 6.455 221.655 5.705 223.095 5.705C224.355 5.705 225.345 6.215 226.005 7.175L225.045 7.97C224.565 7.22 223.935 6.905 223.05 6.905C222.3 6.905 221.715 7.22 221.565 7.73C221.55 7.79 221.55 7.835 221.55 7.895V8.03C221.55 8.075 221.565 8.12 221.565 8.165C221.685 8.63 222.075 8.915 222.825 9.095L223.95 9.365C225.09 9.635 225.705 10.16 225.96 10.925C225.99 11.03 226.02 11.15 226.02 11.27V11.975C226.02 12.125 226.005 12.245 225.96 12.38C225.615 13.49 224.535 14.21 223.005 14.21ZM227.928 14V5.9H229.323V14H227.928ZM228.633 4.46C228.078 4.46 227.628 4.01 227.628 3.455C227.628 2.9 228.078 2.45 228.633 2.45C229.188 2.45 229.623 2.9 229.623 3.455C229.623 4.01 229.188 4.46 228.633 4.46ZM235.172 14.21C233.342 14.21 231.647 13.085 231.272 11.09C231.242 10.925 231.227 10.775 231.227 10.595V9.32C231.227 9.14 231.242 8.975 231.272 8.825C231.647 6.83 233.342 5.705 235.172 5.705C237.017 5.705 238.697 6.83 239.087 8.825C239.102 8.975 239.132 9.14 239.132 9.32V10.595C239.132 10.775 239.102 10.925 239.087 11.09C238.697 13.085 237.017 14.21 235.172 14.21ZM235.172 12.95C236.312 12.95 237.452 12.26 237.707 10.955C237.722 10.82 237.737 10.67 237.737 10.505V9.41C237.737 9.245 237.722 9.095 237.707 8.96C237.452 7.64 236.312 6.965 235.172 6.965C234.032 6.965 232.907 7.64 232.652 8.96C232.622 9.095 232.622 9.245 232.622 9.41V10.505C232.622 10.67 232.622 10.82 232.652 10.955C232.907 12.26 234.032 12.95 235.172 12.95ZM241.024 14V5.9H242.089L242.419 6.965C242.869 6.275 243.694 5.705 244.879 5.705C246.769 5.705 247.864 6.875 247.864 8.81V14H246.469V8.885C246.409 7.835 245.809 6.995 244.534 6.995C243.559 6.995 242.779 7.565 242.419 8.48V14H241.024ZM251.391 10.61L251.286 8.06H251.826C252.786 8.06 253.521 7.67 253.641 6.62C253.656 6.56 253.671 6.515 253.671 6.335V5.81C253.671 5.735 253.656 5.615 253.641 5.555C253.506 4.745 252.876 4.25 251.961 4.25C250.956 4.25 250.281 4.73 249.846 5.705L248.721 5.045C249.261 3.755 250.371 3.005 251.991 3.005C253.731 3.005 254.871 3.92 255.066 5.405C255.081 5.45 255.096 5.585 255.096 5.645V6.395C255.096 6.56 255.081 6.605 255.081 6.635C254.946 8.06 254.016 8.945 252.651 9.11L252.426 10.61H251.391ZM251.916 14.21C251.361 14.21 250.911 13.76 250.911 13.205C250.911 12.65 251.361 12.215 251.916 12.215C252.471 12.215 252.906 12.65 252.906 13.205C252.906 13.76 252.471 14.21 251.916 14.21ZM3.315 30V21.21H0.315V19.2H8.565V21.21H5.565V30H3.315ZM8.75473 30V21.9H10.4047L10.8547 22.98C11.1397 22.335 11.6347 21.9 12.4147 21.9H13.3447V23.91H12.1897C11.4247 23.91 10.9747 24.3 10.8547 25.065V30H8.75473ZM15.0696 33.3V31.35H16.2246C16.9446 31.35 17.2746 31.095 17.2746 30.615C17.2746 30.435 17.1696 30.09 17.0046 29.64L14.1996 22.275V21.9H16.3596L18.3096 27.39H18.5496L20.4246 21.9H22.5696V22.275L19.0296 31.59C18.5646 32.82 17.8746 33.3 16.1496 33.3H15.0696ZM27.2411 30V21.9H29.3411V30H27.2411ZM28.2911 20.82C27.5261 20.82 26.9111 20.205 26.9111 19.44C26.9111 18.675 27.5261 18.06 28.2911 18.06C29.0561 18.06 29.6711 18.675 29.6711 19.44C29.6711 20.205 29.0561 20.82 28.2911 20.82ZM34.8809 30C33.1559 30 32.0909 29.145 32.0909 27.42V23.85H30.8609V21.9H32.0909V21.6L33.0809 19.8H34.1909V21.9H36.0509V23.85H34.1909V27.09C34.1909 27.705 34.4459 28.05 35.0609 28.05H35.9159V30H34.8809ZM41.1424 30V21.9H42.7924L43.2274 22.95C43.6924 22.155 44.5624 21.66 45.6274 21.66C47.5174 21.66 48.6724 22.98 48.6724 24.915V30H46.5724V25.08C46.4224 24.09 45.8374 23.61 44.9674 23.61C44.0974 23.61 43.4074 24.135 43.2424 25.08V30H41.1424ZM54.3536 30.24C52.4486 30.24 50.7086 29.085 50.3036 27.255V24.645C50.7086 22.815 52.4486 21.66 54.3536 21.66C56.2586 21.66 57.9986 22.815 58.4036 24.645V27.255C57.9986 29.085 56.2586 30.24 54.3536 30.24ZM54.3536 28.35C55.2686 28.35 56.1086 27.87 56.3036 27.015V24.885C56.1086 24.03 55.2686 23.55 54.3536 23.55C53.4386 23.55 52.5986 24.03 52.4036 24.885V27.015C52.5986 27.87 53.4386 28.35 54.3536 28.35ZM61.4953 30L59.2903 22.275V21.9H61.3603L62.5603 26.925H62.8003L64.4053 21.9H66.4453L68.0503 26.925H68.2903L69.4903 21.9H71.5603V22.275L69.3553 30H67.1053L65.5453 25.08H65.3053L63.7453 30H61.4953ZM73.2592 26.265L72.8092 23.115V19.2H74.9992V23.115L74.5492 26.265H73.2592ZM73.9042 30.24C73.1392 30.24 72.5242 29.625 72.5242 28.86C72.5242 28.095 73.1392 27.48 73.9042 27.48C74.6692 27.48 75.2842 28.095 75.2842 28.86C75.2842 29.625 74.6692 30.24 73.9042 30.24Z" fill="#011C58"/>
<path d="M270.129 28.9056C267.879 30.0701 265.514 30.9447 262.938 31.4005C259.304 32.0487 255.418 31.927 251.234 30.8584C247.31 29.8553 243.341 28.0601 239.331 24.8916C238.113 23.9342 236.954 22.8565 235.918 21.5C235.261 22.5772 235.286 22.8692 236.454 24.146C237.878 25.7133 239.417 26.9722 240.983 28.0437C244.916 30.7646 248.725 32.127 252.484 32.9391C258.026 34.1301 262.945 33.6825 267.453 32.1171C268.125 31.8836 268.685 31.4112 269.686 31.4579C269.205 32.3949 268.82 33.2234 268.382 33.9981C268.134 34.4371 268.05 34.9652 268.153 35.6371C268.184 35.8229 268.291 36.1002 268.41 36.2329C268.642 36.4688 268.782 36.3168 268.869 36.1618C269.534 35.0802 270.191 33.986 270.871 32.9124C271.426 32.016 271.996 31.1446 272.551 30.2481C272.595 30.1876 272.632 30.1315 272.676 30.071C273.391 28.8566 273.065 28.0122 271.47 27.162C269.652 26.1902 267.842 25.2987 266.025 24.4287C265.064 23.9653 264.911 24.211 265.092 25.3645C265.179 25.9604 265.441 26.2125 265.873 26.4306C267.027 26.9993 268.182 27.602 269.345 28.2172C269.575 28.3343 269.835 28.332 270.144 28.9137" fill="#60BBE3"/>
</svg>
