<svg width="44" height="44" viewBox="0 0 44 44" fill="none" xmlns="http://www.w3.org/2000/svg">
<circle cx="21.7313" cy="21.7314" r="21.7313" fill="#011C58"/>
<rect width="12.8337" height="26.6546" transform="translate(15 8.00012)" fill="#011C58"/>
<g clip-path="url(#clip0_133_802)">
<path d="M27.1911 14.6842H27.1233C26.9296 16.1932 26.5194 17.3866 24.3944 17.6061V17.6884C26.5194 17.9079 26.9263 19.1014 27.1233 20.6104H27.1911C27.3849 19.1014 27.7951 17.9079 29.9168 17.6884V17.6061C27.7918 17.3866 27.3849 16.1932 27.1911 14.6842Z" fill="white"/>
<path d="M16.6856 8.00012H16.5952C16.3336 10.0338 15.7846 11.6422 12.9168 11.9406V12.0504C15.7814 12.3487 16.3304 13.9572 16.5952 15.9908H16.6856C16.9472 13.9572 17.4962 12.3487 20.364 12.0504V11.9406C17.4995 11.6422 16.9505 10.0338 16.6856 8.00012Z" fill="white"/>
<path d="M23.4611 20.2605H23.4223C23.3093 21.1247 23.0768 21.8072 21.8592 21.9341V21.9821C23.0768 22.109 23.3093 22.7915 23.4223 23.6557H23.4611C23.5741 22.7915 23.8066 22.109 25.0241 21.9821V21.9341C23.8066 21.8072 23.5741 21.1247 23.4611 20.2605Z" fill="white"/>
<path d="M25.8799 11.3884C25.3632 10.8397 24.7819 10.5139 24.3846 10.5139C24.2425 10.5139 24.1263 10.5551 24.0423 10.6442C23.9777 10.7128 13.2429 22.109 13.1816 22.1742C12.8683 22.5069 13.1816 23.3814 13.8824 24.1256C14.5832 24.8698 15.4067 25.2024 15.7199 24.8698C15.7813 24.8046 26.5193 13.405 26.5807 13.3398C26.8939 13.0072 26.5807 12.1326 25.8799 11.3884ZM23.0218 15.6616C22.8862 15.4318 22.715 15.1952 22.5051 14.9723C22.2952 14.7493 22.0723 14.5641 21.856 14.4235L24.5203 11.5942C24.6785 11.6697 24.9304 11.8343 25.1952 12.1155C25.4633 12.4001 25.6151 12.6642 25.6861 12.8323L23.0218 15.6616Z" fill="white"/>
</g>
<path d="M18.5021 28.0261V34.5715H17.7095V28.0261H18.5021ZM20.1798 34.5715H19.3488L21.7522 28.0261H22.5704L24.9738 34.5715H24.1428L22.1869 29.0616H22.1357L20.1798 34.5715ZM20.4866 32.0147H23.836V32.7178H20.4866V32.0147Z" fill="white"/>
<defs>
<clipPath id="clip0_133_802">
<rect width="17" height="17" fill="white" transform="translate(12.9168 8.00012)"/>
</clipPath>
</defs>
</svg>
