<svg width="101" height="89" viewBox="0 0 101 89" fill="none" xmlns="http://www.w3.org/2000/svg">
<path d="M99.6421 47.9927L93.0151 52.9836C92.3991 53.4465 90.8846 53.1209 88.5265 51.8536L79.3845 46.953L78.8587 48.1144C78.2741 49.3228 77.662 50.135 77.0421 50.598L70.2738 55.6948C70.2738 55.6948 70.2464 55.7144 70.2307 55.7262C70.1483 55.7889 70.0502 55.8635 69.9678 55.8988C69.9404 55.9184 69.9129 55.942 69.8972 55.9498C69.8109 56.0126 69.7089 56.0479 69.6186 56.0714C69.5872 56.095 69.5754 56.1028 69.5401 56.1107C69.4459 56.1342 69.3439 56.1695 69.2537 56.1695C69.2419 56.1774 69.2144 56.1774 69.1909 56.1735C69.0889 56.1852 68.9908 56.197 68.8928 56.1813C67.5823 56.0714 66.4287 54.3333 65.8715 51.3866L64.3963 45.0932L62.9563 38.9292C62.8896 38.6074 62.7013 38.3563 62.407 38.1994L56.8983 35.0997L51.2404 31.9177C48.8038 30.6896 47.4777 29.2771 47.4463 28.0726C47.4502 27.9588 47.4423 27.8332 47.4698 27.7234C47.509 27.5429 47.5718 27.3663 47.6856 27.1897C47.7484 27.076 47.8426 26.9622 47.9407 26.8641C48.0427 26.7385 48.1996 26.6247 48.3409 26.5188L55.1091 21.422C55.7212 20.963 56.6746 20.5941 57.993 20.3627L59.2524 20.1822L57.0748 10.0396C56.9296 9.38047 56.8512 8.80762 56.7845 8.28578C56.7609 8.01898 56.7296 7.77963 56.7217 7.56383C56.706 7.33626 56.706 7.14009 56.7099 6.93606C56.7256 6.74772 56.7374 6.56724 56.7688 6.40637C56.7923 5.88453 56.9493 5.56672 57.1886 5.39015L63.8156 0.39932C64.973 -0.475646 66.8289 0.0344228 68.6494 2.45529L78.7489 15.8701C78.8744 16.0388 79.0902 16.1173 79.2981 16.0702L91.2495 13.614C93.7331 13.1001 95.6871 15.7014 94.51 17.9457L88.8482 28.7592C88.7462 28.9436 88.7658 29.1712 88.8914 29.3399L98.9986 42.7704C100.827 45.203 100.807 47.1217 99.6342 47.9849" fill="#60BBE3"/>
<path d="M26.6433 76.7293C29.845 74.3202 30.0686 69.1999 27.1416 65.3155C24.2185 61.4311 19.2395 60.2305 16.0378 62.6474C12.8361 65.0565 12.6125 70.1768 15.5395 74.0612C18.4626 77.9456 23.4417 79.1462 26.6433 76.7332V76.7293Z" fill="#60BBE3"/>
<path d="M64.3844 45.0932L25.8624 73.2568C23.8379 74.7831 20.695 74.018 18.8431 71.554C16.9951 69.0939 17.1481 65.8687 19.1609 64.3542L56.8629 35.1036L62.3716 38.2033C62.662 38.3563 62.8503 38.6035 62.9209 38.9292L64.3609 45.0932H64.3884H64.3844Z" fill="#FFFF00"/>
<path d="M2.43073 73.4452C-0.61791 75.7366 -0.825889 80.5862 1.95987 84.2861C4.74956 87.99 9.47358 89.1161 12.5065 86.8326L26.6394 76.7371C23.4377 79.1462 18.4586 77.9495 15.5395 74.0651C12.6164 70.1808 12.84 65.0644 16.0378 62.6514L2.43073 73.4452Z" fill="#FFFF00"/>
<path d="M17.8465 69.6863C17.1756 67.6539 17.6229 65.5155 19.1648 64.362L56.8669 35.1115L60.0842 36.9124L17.8348 69.6745L17.8465 69.6863Z" fill="#60BBE3"/>
<path d="M0.0647293 79.672C-0.237388 77.208 0.570886 74.846 2.43067 73.4452L16.0377 62.6514C14.1348 64.0835 13.2834 66.4769 13.5188 68.9919L0.0647293 79.672Z" fill="#60BBE3"/>
<path d="M93.0307 52.9875C92.4147 53.4505 90.9002 53.1248 88.5421 51.8575L79.4001 46.9569L76.1357 45.2109C75.9395 45.0932 75.6766 45.1834 75.5824 45.411L72.0787 53.2386C71.0546 55.3691 69.9011 56.2833 68.877 56.2009C67.5665 56.0911 66.413 54.3529 65.8597 51.4024L64.3844 45.1089L62.9445 38.9449C62.866 38.6349 62.6698 38.3838 62.3952 38.2151L56.8864 35.1155L51.2247 31.9373C48.7881 30.7092 47.4619 29.2967 47.4345 28.0883C47.4345 27.9784 47.4266 27.8529 47.458 27.743C47.4973 27.5625 47.56 27.382 47.6699 27.2133C47.7366 27.0956 47.8151 26.9936 47.9288 26.8837C48.0309 26.7621 48.1603 26.6444 48.3251 26.5384L48.3526 26.5149C48.9647 26.0794 49.9103 25.738 51.1815 25.4987L59.6722 24.2941C59.888 24.2627 60.0567 24.0469 60.0097 23.8194L59.2367 20.1979L57.0591 10.0554C56.91 9.40011 56.8315 8.82334 56.7687 8.30542C56.7452 8.03861 56.7177 7.79535 56.7099 7.57956C56.6903 7.35199 56.6942 7.15188 56.6981 6.9557C56.7138 6.77129 56.7256 6.58296 56.757 6.42601C56.8197 5.89633 56.9767 5.57851 57.216 5.40195C57.9027 4.88796 59.2838 5.79431 61.0808 8.18379L71.1762 21.5986C71.3018 21.7673 71.5176 21.8458 71.7216 21.8026L83.6769 19.3425C86.1605 18.8285 88.1145 21.4299 86.9374 23.6742L81.2717 34.4877C81.1697 34.676 81.1893 34.8997 81.3148 35.0684L91.4221 48.4989C93.2308 50.9041 93.7135 52.446 93.0229 52.9836" fill="#FFFF00"/>
<path d="M66.413 25.4516L63.6311 27.5468C63.7449 27.4605 63.8038 27.3075 63.7763 27.1544L63.5644 26.0872L61.5634 16.0938C61.277 14.6028 61.7635 14.3831 62.6777 15.6033L65.3928 19.2052L66.566 25.0435C66.5935 25.1966 66.5346 25.3496 66.4247 25.432" fill="#60BBE3"/>
<path d="M83.944 45.8465L74.9237 41.1656L73.9466 40.6516C73.8054 40.581 73.6406 40.5967 73.5308 40.6791L76.3126 38.5839C76.4264 38.4976 76.5873 38.4858 76.7285 38.5564L82.0136 41.2951L84.7248 44.9009C85.643 46.1133 85.282 46.541 83.944 45.8386V45.8465Z" fill="#60BBE3"/>
<path d="M69.3441 48.6008C68.8615 49.5072 68.3044 49.4287 68.0807 48.436L65.5225 37.0066C65.4558 36.6848 65.2479 36.4062 64.9575 36.2532L54.7601 30.6817C53.8655 30.1912 53.9597 29.6223 54.9484 29.4222L57.9382 28.7944L67.759 34.1619C68.0494 34.315 68.2494 34.5818 68.3279 34.9153L70.7723 45.9053L69.352 48.6165L69.3402 48.6047H69.348L69.3441 48.6008Z" fill="#60BBE3"/>
</svg>
