<svg width="61" height="57" viewBox="0 0 61 57" fill="none" xmlns="http://www.w3.org/2000/svg">
<path d="M25.3938 0L60.2237 27.7831L44.643 33.0368L9.8877 5.11639L25.3938 0Z" fill="#60BBE3"/>
<path d="M44.6389 33.0407L60.2196 27.783L50.336 51.67L34.8063 56.8021L0.00390625 28.9954L9.88748 5.11633L44.6428 33.0407H44.6389Z" fill="#FFFF00"/>
<path d="M44.6389 33.0407L34.8024 56.8021L0 28.9954L9.88358 5.11633L44.6389 33.0407Z" fill="#FFFF00"/>
<path d="M50.3358 51.6661L34.8062 56.7982L44.6426 33.0368L60.2233 27.7792L50.3397 51.6661H50.3358Z" fill="#FFFF00"/>
<path d="M38.5378 16.6282C37.7334 18.5704 40.17 21.4111 43.9798 22.9884C47.7896 24.5618 51.521 24.2675 52.3253 22.3253C53.1258 20.3831 50.6892 17.5424 46.8833 15.9651C43.0735 14.3918 39.3382 14.686 38.5378 16.6282Z" fill="#60BBE3"/>
<path d="M38.5379 16.6322L36.9723 20.4224C36.168 22.3646 38.6046 25.2053 42.4144 26.7826C46.2242 28.356 49.9556 28.0617 50.7599 26.1195L52.3254 22.3293C51.5211 24.2715 47.7897 24.5657 43.9799 22.9924C40.1701 21.419 37.7374 18.5744 38.5379 16.6322Z" fill="#FFFF00"/>
<path d="M21.0461 2.7152C20.2417 4.65739 22.6783 7.49809 26.4881 9.07538C30.2979 10.6487 34.0332 10.3545 34.8336 8.41229C35.638 6.4701 33.1896 3.63333 29.3877 2.05996C25.5857 0.490517 21.8426 0.780863 21.0461 2.7152Z" fill="#60BBE3"/>
<path d="M19.4771 6.5053C18.6766 8.44749 21.1093 11.2882 24.9191 12.8655C28.7289 14.4388 32.4603 14.1446 33.2646 12.2024L34.8301 8.41217C34.0258 10.3544 30.2944 10.6486 26.4846 9.07526C22.6748 7.5019 20.2422 4.65728 21.0426 2.71509L19.4771 6.5053Z" fill="#FFFF00"/>
</svg>
