<svg width="56" height="56" viewBox="0 0 56 56" fill="none" xmlns="http://www.w3.org/2000/svg">
<path d="M2.2954 28.3827C5.99144 32.1258 15.0903 29.1517 22.5883 21.7597C30.0863 14.3676 33.1232 5.37859 29.4232 1.63155C25.7233 -2.1155 16.6833 0.807574 9.1931 8.18788C1.70293 15.5721 -1.40457 24.6317 2.2954 28.3788V28.3827Z" fill="#60BBE3"/>
<path d="M51.4582 23.953C52.9531 25.4675 53.3454 27.8374 52.7844 30.6192C51.9565 34.7076 49.0765 39.6827 44.6233 44.0772C40.166 48.4716 35.1046 51.3241 30.973 52.1049C28.1912 52.6189 25.8213 52.2148 24.3264 50.6963L2.29533 28.3867C5.99137 32.1337 15.0902 29.1557 22.5883 21.7636C30.0863 14.3715 33.1231 5.38255 29.4232 1.6355L51.4621 23.9569L51.4543 23.9491H51.4582V23.953Z" fill="#FFFF00"/>
<path d="M52.7884 30.627C51.9605 34.7154 49.0806 39.6905 44.6273 44.085C40.1701 48.4794 35.1086 51.3319 30.9771 52.1127L32.7035 53.8626C35.7207 56.9191 43.0696 54.5532 49.0845 48.6207C55.1034 42.6842 57.5203 35.4216 54.503 32.3651L52.7845 30.627H52.7884Z" fill="#FFFF00"/>
<path d="M3.0724 18.2833C5.27354 20.5119 10.7117 18.7267 15.2042 14.293C19.6967 9.86716 21.5251 4.50752 19.3122 2.27107C17.0993 0.0306851 11.7083 1.7963 7.22357 6.21429C2.73889 10.6323 0.871254 16.0547 3.0724 18.2833Z" fill="#60BBE3"/>
<path d="M19.3081 2.271C21.5093 4.49961 19.677 9.8828 15.1923 14.3086C10.7076 18.7266 5.26163 20.5276 3.06048 18.2989L7.76096 23.0583C9.9621 25.2908 15.4002 23.5017 19.8928 19.068C24.3853 14.6382 26.2137 9.26678 24.0086 7.03424L19.3081 2.27492V2.271Z" fill="#FFFF00"/>
</svg>
