<svg width="102" height="89" viewBox="0 0 102 89" fill="none" xmlns="http://www.w3.org/2000/svg">
<path d="M1.54639 47.9927L8.17338 52.9836C8.78938 53.4465 10.3039 53.1209 12.662 51.8536L21.804 46.953L22.3298 48.1144C22.9144 49.3228 23.5265 50.135 24.1464 50.598L30.9147 55.6948C30.9147 55.6948 30.9421 55.7144 30.9578 55.7262C31.0402 55.7889 31.1383 55.8635 31.2207 55.8988C31.2481 55.9184 31.2756 55.942 31.2913 55.9498C31.3776 56.0126 31.4796 56.0479 31.5699 56.0714C31.6013 56.095 31.6131 56.1028 31.6484 56.1107C31.7425 56.1342 31.8445 56.1695 31.9348 56.1695C31.9466 56.1774 31.974 56.1774 31.9976 56.1735C32.0996 56.1852 32.1976 56.197 32.2957 56.1813C33.6062 56.0714 34.7598 54.3333 35.3169 51.3866L36.7922 45.0932L38.2321 38.9292C38.2988 38.6074 38.4872 38.3563 38.7815 38.1994L44.2902 35.0997L49.9481 31.9177C52.3846 30.6896 53.7108 29.2771 53.7422 28.0726C53.7383 27.9588 53.7461 27.8332 53.7187 27.7234C53.6794 27.5429 53.6166 27.3663 53.5029 27.1897C53.4401 27.076 53.3459 26.9622 53.2478 26.8641C53.1458 26.7385 52.9888 26.6247 52.8476 26.5188L46.0794 21.422C45.4673 20.963 44.5139 20.5941 43.1955 20.3627L41.9361 20.1822L44.1137 10.0396C44.2589 9.38047 44.3373 8.80762 44.404 8.28578C44.4276 8.01898 44.4589 7.77963 44.4668 7.56383C44.4825 7.33626 44.4825 7.14009 44.4785 6.93606C44.4629 6.74772 44.4511 6.56724 44.4197 6.40637C44.3961 5.88453 44.2392 5.56672 43.9999 5.39015L37.3729 0.39932C36.2154 -0.475646 34.3596 0.0344228 32.539 2.45529L22.4396 15.8701C22.3141 16.0388 22.0983 16.1173 21.8904 16.0702L9.939 13.614C7.45536 13.1001 5.50142 15.7014 6.6785 17.9457L12.3402 28.7592C12.4423 28.9436 12.4226 29.1712 12.2971 29.3399L2.18987 42.7704C0.361469 45.203 0.381088 47.1217 1.55425 47.9849" fill="#60BBE3"/>
<path d="M74.5452 76.7293C71.3435 74.3202 71.1198 69.1999 74.0469 65.3155C76.9699 61.4311 81.949 60.2305 85.1507 62.6474C88.3523 65.0565 88.576 70.1768 85.649 74.0612C82.7259 77.9456 77.7468 79.1462 74.5452 76.7332V76.7293Z" fill="#60BBE3"/>
<path d="M36.8041 45.0932L75.326 73.2568C77.3506 74.7831 80.4934 74.018 82.3454 71.554C84.1934 69.0939 84.0404 65.8687 82.0275 64.3542L44.3256 35.1036L38.8169 38.2033C38.5265 38.3563 38.3382 38.6035 38.2676 38.9292L36.8276 45.0932H36.8001H36.8041Z" fill="#FFFF00"/>
<path d="M98.7577 73.4452C101.806 75.7366 102.014 80.5862 99.2286 84.2861C96.4389 87.99 91.7149 89.1161 88.6819 86.8326L74.5491 76.7371C77.7508 79.1462 82.7298 77.9495 85.649 74.0651C88.5721 70.1808 88.3484 65.0644 85.1507 62.6514L98.7577 73.4452Z" fill="#FFFF00"/>
<path d="M83.342 69.6863C84.0129 67.6539 83.5656 65.5155 82.0236 64.362L44.3216 35.1115L41.1043 36.9124L83.3537 69.6745L83.342 69.6863Z" fill="#60BBE3"/>
<path d="M101.124 79.672C101.426 77.208 100.618 74.846 98.7578 73.4452L85.1508 62.6514C87.0537 64.0835 87.9051 66.4769 87.6697 68.9919L101.124 79.672Z" fill="#60BBE3"/>
<path d="M8.15774 52.9875C8.77375 53.4505 10.2882 53.1248 12.6463 51.8575L21.7884 46.9569L25.0528 45.2109C25.249 45.0932 25.5119 45.1834 25.606 45.411L29.1098 53.2386C30.1339 55.3691 31.2874 56.2833 32.3115 56.2009C33.622 56.0911 34.7755 54.3529 35.3288 51.4024L36.804 45.1089L38.244 38.9449C38.3224 38.6349 38.5186 38.3838 38.7933 38.2151L44.302 35.1155L49.9638 31.9373C52.4004 30.7092 53.7266 29.2967 53.754 28.0883C53.754 27.9784 53.7618 27.8529 53.7305 27.743C53.6912 27.5625 53.6285 27.382 53.5186 27.2133C53.4519 27.0956 53.3734 26.9936 53.2596 26.8837C53.1576 26.7621 53.0281 26.6444 52.8633 26.5384L52.8359 26.5149C52.2238 26.0794 51.2782 25.738 50.0069 25.4987L41.5162 24.2941C41.3004 24.2627 41.1317 24.0469 41.1788 23.8194L41.9518 20.1979L44.1294 10.0554C44.2785 9.40011 44.357 8.82334 44.4197 8.30542C44.4433 8.03861 44.4707 7.79535 44.4786 7.57956C44.4982 7.35199 44.4943 7.15188 44.4904 6.9557C44.4747 6.77129 44.4629 6.58296 44.4315 6.42601C44.3687 5.89633 44.2118 5.57851 43.9724 5.40195C43.2858 4.88796 41.9047 5.79431 40.1077 8.18379L30.0122 21.5986C29.8867 21.7673 29.6709 21.8458 29.4669 21.8026L17.5116 19.3425C15.028 18.8285 13.074 21.4299 14.2511 23.6742L19.9168 34.4877C20.0188 34.676 19.9992 34.8997 19.8736 35.0684L9.76641 48.4989C7.95763 50.9041 7.47499 52.446 8.16555 52.9836" fill="#FFFF00"/>
<path d="M34.7755 25.4516L37.5573 27.5468C37.4436 27.4605 37.3847 27.3075 37.4122 27.1544L37.6241 26.0872L39.6251 16.0938C39.9115 14.6028 39.425 14.3831 38.5108 15.6033L35.7956 19.2052L34.6225 25.0435C34.595 25.1966 34.6539 25.3496 34.7637 25.432" fill="#60BBE3"/>
<path d="M17.2444 45.8465L26.2648 41.1656L27.2418 40.6516C27.3831 40.581 27.5479 40.5967 27.6577 40.6791L24.8759 38.5839C24.7621 38.4976 24.6012 38.4858 24.46 38.5564L19.1749 41.2951L16.4636 44.9009C15.5455 46.1133 15.9065 46.541 17.2444 45.8386V45.8465Z" fill="#60BBE3"/>
<path d="M31.8444 48.6008C32.327 49.5072 32.8841 49.4287 33.1078 48.436L35.666 37.0066C35.7327 36.6848 35.9406 36.4062 36.2309 36.2532L46.4284 30.6817C47.323 30.1912 47.2288 29.6223 46.2401 29.4222L43.2503 28.7944L33.4295 34.1619C33.1391 34.315 32.939 34.5818 32.8606 34.9153L30.4162 45.9053L31.8365 48.6165L31.8483 48.6047H31.8404L31.8444 48.6008Z" fill="#60BBE3"/>
</svg>
