<svg width="56" height="35" viewBox="0 0 56 35" fill="none" xmlns="http://www.w3.org/2000/svg">
<path d="M53.5064 5.817C49.8103 2.07387 40.7115 5.04797 33.2134 12.4401C25.7154 19.8321 22.6785 28.8211 26.3785 32.5682C30.0785 36.3152 39.1185 33.3921 46.6087 26.0118C54.0988 18.6276 57.2063 9.56797 53.5064 5.82092V5.817Z" fill="#60BBE3"/>
<path d="M4.34358 10.2467C2.84868 8.73219 2.45632 6.36234 3.0174 3.5805C3.84528 -0.507908 6.72521 -5.48304 11.1785 -9.87748C15.6357 -14.2719 20.6972 -17.1244 24.8288 -17.9052C27.6106 -18.4192 29.9805 -18.0151 31.4753 -16.4966L53.5064 5.81303C49.8104 2.06598 40.7115 5.04401 33.2135 12.4361C25.7155 19.8282 22.6786 28.8172 26.3786 32.5642L4.33966 10.2428L4.3475 10.2506H4.34358V10.2467Z" fill="#FFFF00"/>
<path d="M3.01333 3.57275C3.84121 -0.515651 6.72114 -5.49081 11.1744 -9.88526C15.6317 -14.2797 20.6931 -17.1322 24.8247 -17.913L23.0983 -19.6629C20.081 -22.7194 12.7321 -20.3535 6.71722 -14.421C0.698398 -8.48453 -1.71855 -1.22192 1.29871 1.83457L3.01726 3.57275H3.01333Z" fill="#FFFF00"/>
<path d="M52.7294 15.9164C50.5282 13.6878 45.0901 15.473 40.5976 19.9067C36.105 24.3326 34.2766 29.6922 36.4895 31.9286C38.7025 34.169 44.0935 32.4034 48.5782 27.9854C53.0629 23.5674 54.9305 18.145 52.7294 15.9164Z" fill="#60BBE3"/>
<path d="M36.4936 31.9287C34.2925 29.7001 36.1248 24.3169 40.6095 19.8911C45.0942 15.4731 50.5401 13.6722 52.7413 15.9008L48.0408 11.1414C45.8397 8.90889 40.4015 10.698 35.909 15.1317C31.4165 19.5615 29.5881 24.9329 31.7931 27.1655L36.4936 31.9248V31.9287Z" fill="#FFFF00"/>
</svg>
