<svg width="43" height="90" viewBox="0 0 43 90" fill="none" xmlns="http://www.w3.org/2000/svg">
<path d="M20.1951 11.571C18.4727 16.3696 21.3212 21.7724 26.5239 23.64C31.7266 25.5037 37.3492 23.1339 39.0716 18.3274C40.7902 13.5289 37.9456 8.12606 32.7428 6.26234C27.5284 4.39078 21.9176 6.76849 20.1951 11.5749V11.571Z" fill="#60BBE3"/>
<path d="M20.1914 11.571L21.2155 8.69501C22.1611 6.03873 24.3151 4.124 26.9243 3.26866C29.0313 2.57418 31.4404 2.5624 33.7632 3.39029C36.082 4.22602 37.9379 5.75231 39.1189 7.63172C40.5942 9.95842 41.0415 12.7991 40.0959 15.4593L39.0718 18.3353C40.0802 15.526 39.527 12.5048 37.8359 10.1193C36.6549 8.42428 34.901 7.04317 32.7352 6.26629C30.5694 5.48942 28.3368 5.44234 26.3593 5.99949C23.5422 6.78029 21.1959 8.76171 20.1914 11.5749V11.571Z" fill="#FFFF00"/>
<path d="M26.9361 3.26876C28.2779 0.553621 31.6719 -0.721554 34.8343 0.416293C37.9967 1.55414 39.8094 4.68519 39.1306 7.63574C37.9496 5.76026 36.1016 4.21828 33.771 3.39432C31.4521 2.55859 29.0352 2.56644 26.9321 3.27269" fill="#60BBE3"/>
<path d="M8.16929 26.9516L23.6087 10.8295L36.2506 12.8188L35.6856 18.7317L33.096 21.6234L41.5671 20.5679C42.4106 20.4541 43.0149 21.1839 42.9364 21.9137C42.9364 21.9137 42.9286 21.9333 42.9364 21.9451L42.3675 27.807C42.3518 28.0424 42.2655 28.2817 42.0771 28.4975L28.6074 44.239L36.1093 42.9325C36.9725 42.7834 37.6238 43.5171 37.5415 44.2822L36.9843 50.148C36.9647 50.3481 36.8901 50.5561 36.7528 50.7405L10.0212 87.7754C8.8363 89.4037 6.08192 89.8314 4.05341 88.9957C2.44081 88.3287 1.59331 87.5322 1.74241 86.4453L2.31133 80.5835C2.33487 80.2774 2.44866 79.9635 2.62129 79.6182C3.19807 78.5275 10.3665 65.5168 14.8433 57.4028L1.44421 59.7805C0.581017 59.9296 -0.0585254 59.1998 0.00425235 58.4504L0.0160227 58.4229L0.561399 52.6277V52.5453C0.581017 52.3021 0.686957 52.0549 0.883138 51.843L17.3152 33.763L8.64011 34.944C7.78869 35.0656 7.17661 34.3319 7.25508 33.6021L7.26685 33.5747L7.81616 27.7795V27.7049C7.83971 27.446 7.94956 27.1949 8.16143 26.9791" fill="#60BBE3"/>
<path d="M36.2622 12.8266L23.6203 10.8373L8.18482 26.9477C7.38441 27.7873 8.08281 29.1645 9.23243 29.0076L22.2 27.2498C22.6002 27.1949 22.8631 27.6735 22.5845 27.9796L0.90653 51.8155C0.117884 52.6826 0.879071 54.0559 2.02869 53.8479L17.5113 51.1093C17.8683 51.0465 18.1508 51.4232 17.9703 51.7567C15.4984 56.2492 3.39802 78.1783 2.64469 79.6143C1.80503 81.1994 2.61723 82.2588 4.64966 83.0906C6.67816 83.9224 9.42076 83.5065 10.6018 81.8743L37.3255 44.8472C37.9689 43.9604 37.2078 42.7284 36.1209 42.9207L25.7391 44.7216C24.9308 44.8629 24.3972 43.9134 24.9229 43.2856L42.6537 22.5728C43.3835 21.7253 42.6812 20.4149 41.5748 20.56L30.1139 21.9961C29.3095 22.0981 28.8112 21.1446 29.3488 20.5483L36.2583 12.8266H36.2661V12.8305L36.2622 12.8266Z" fill="#FFFF00"/>
</svg>
