<svg width="67" height="110" viewBox="0 0 67 110" fill="none" xmlns="http://www.w3.org/2000/svg">
<path d="M41.7712 84.6542C39.1303 81.2032 40.6606 75.7051 45.1765 72.3787C49.6874 69.0507 55.4967 69.1364 58.1415 72.5856C60.7863 76.0348 59.2508 81.5312 54.7361 84.861C50.2164 88.201 44.416 88.1034 41.7712 84.6542Z" fill="#60BBE3"/>
<path d="M42.1045 84.9793L43.6669 87.0194C45.1115 88.9039 47.5246 89.7681 50.1411 89.6047C52.2543 89.4773 54.504 88.6826 56.503 87.2227C58.4957 85.758 59.9041 83.8736 60.6144 81.9241C61.5054 79.5043 61.3189 77.0064 59.8742 75.1219L58.3119 73.0818C59.8464 75.0726 59.9608 77.7546 58.8852 80.2976C58.1395 82.0965 56.7918 83.8251 54.9306 85.191C53.0694 86.5569 50.998 87.34 49.029 87.5412C46.2317 87.8376 43.6251 86.9803 42.0944 84.9878" fill="#FFFF00"/>
<path d="M50.501 90.1976C52.3044 91.9726 55.7174 91.8942 58.409 89.9241C61.0968 87.9557 62.1267 84.807 60.8773 82.6239C60.1794 84.5372 58.783 86.4046 56.801 87.8426C54.8303 89.287 52.5886 90.0752 50.4934 90.1895" fill="#60BBE3"/>
<path d="M25.2526 73.9059L43.938 82.506L55.8788 76.3412L54.0192 71.3966L50.8439 69.7935L59.3741 67.7381C60.2241 67.5404 60.6587 66.6974 60.4198 66.0853C60.4198 66.0853 60.4052 66.0716 60.4092 66.0576L58.5616 61.1564C58.4939 60.9551 58.3559 60.7777 58.1224 60.6563L41.454 51.6952L49.0932 50.1945C49.9711 50.0208 50.4482 49.1542 50.196 48.5197L48.355 43.6114C48.2912 43.4449 48.1718 43.2917 47.9967 43.1762L13.6477 20.3492C12.1236 19.3474 9.33899 19.9499 7.53597 21.3829C6.10814 22.5258 5.4494 23.5163 5.83826 24.4102L7.68592 29.3114C7.77486 29.5683 7.95264 29.8007 8.20203 30.037C9.01123 30.7834 18.9005 39.5838 25.0715 45.0691L11.4227 47.6994C10.5449 47.8731 10.0797 48.7342 10.3067 49.364L10.3293 49.3862L12.1477 54.2356L12.1663 54.3086C12.2446 54.5132 12.3919 54.6903 12.6333 54.8081L32.7208 64.7634L23.9665 66.7829C23.1112 66.9789 22.6699 67.829 22.9075 68.4376L22.93 68.4599L24.7485 73.3093L24.7591 73.3737C24.8414 73.5887 25.0006 73.7726 25.2593 73.8865" fill="#60BBE3"/>
<path d="M55.9158 76.3718L44.0221 82.5187L25.4191 73.9506C24.456 73.5019 24.828 72.0632 25.9837 71.7977L39.0182 68.7818C39.4237 68.6854 39.5715 68.1827 39.232 68.0132L12.845 54.9287C11.8819 54.4556 12.32 52.9948 13.4889 52.7761L29.1955 49.7344C29.5587 49.6614 29.7501 49.2363 29.5017 49.0129C26.0982 45.98 9.47707 31.1951 8.42271 30.2152C7.2534 29.1294 7.81835 27.9275 9.61426 26.4986C11.4102 25.0698 14.1785 24.4675 15.6846 25.472L49.8955 48.2327C50.7186 48.7781 50.2448 50.109 49.1446 50.3247L38.618 52.3982C37.7952 52.5599 37.4838 53.5725 38.1404 53.9259L59.9924 65.683C60.8921 66.1608 60.4897 67.5443 59.3829 67.8037L47.8831 70.5712C47.0761 70.7623 46.803 71.7654 47.4596 72.0945L55.8986 76.3756L55.9105 76.3702L55.9158 76.3718Z" fill="#FFFF00"/>
</svg>
