<svg width="61" height="57" viewBox="0 0 61 57" fill="none" xmlns="http://www.w3.org/2000/svg">
<path d="M35.5642 0L0.734299 27.7831L16.315 33.0368L51.0703 5.11639L35.5642 0Z" fill="#60BBE3"/>
<path d="M16.3191 33.0407L0.738438 27.783L10.622 51.67L26.1517 56.8021L60.9541 28.9954L51.0705 5.11633L16.3152 33.0407H16.3191Z" fill="#FFFF00"/>
<path d="M16.3191 33.0407L26.1556 56.8021L60.958 28.9954L51.0744 5.11633L16.3191 33.0407Z" fill="#FFFF00"/>
<path d="M10.6222 51.6661L26.1519 56.7982L16.3154 33.0368L0.734688 27.7792L10.6183 51.6661H10.6222Z" fill="#FFFF00"/>
<path d="M22.4202 16.6282C23.2246 18.5704 20.788 21.4111 16.9782 22.9884C13.1684 24.5618 9.43701 24.2675 8.63266 22.3253C7.83225 20.3831 10.2688 17.5424 14.0747 15.9651C17.8845 14.3918 21.6198 14.686 22.4202 16.6282Z" fill="#60BBE3"/>
<path d="M22.4201 16.6322L23.9857 20.4224C24.79 22.3646 22.3534 25.2053 18.5436 26.7826C14.7338 28.356 11.0024 28.0617 10.1981 26.1195L8.63258 22.3293C9.43692 24.2715 13.1683 24.5657 16.9781 22.9924C20.7879 21.419 23.2206 18.5744 22.4201 16.6322Z" fill="#FFFF00"/>
<path d="M39.9119 2.7152C40.7163 4.65739 38.2797 7.49809 34.4699 9.07538C30.6601 10.6487 26.9248 10.3545 26.1244 8.41229C25.32 6.4701 27.7684 3.63333 31.5703 2.05996C35.3723 0.490517 39.1154 0.780863 39.9119 2.7152Z" fill="#60BBE3"/>
<path d="M41.481 6.5053C42.2814 8.44749 39.8487 11.2882 36.0389 12.8655C32.2291 14.4388 28.4977 14.1446 27.6934 12.2024L26.1279 8.41217C26.9322 10.3544 30.6636 10.6486 34.4734 9.07526C38.2832 7.5019 40.7159 4.65728 39.9154 2.71509L41.481 6.5053Z" fill="#FFFF00"/>
</svg>
