<svg width="91" height="43" viewBox="0 0 91 43" fill="none" xmlns="http://www.w3.org/2000/svg">
<path d="M78.5761 20.1951C73.7775 18.4727 68.3747 21.3212 66.5071 26.5239C64.6434 31.7266 67.0132 37.3492 71.8196 39.0716C76.6182 40.7902 82.021 37.9456 83.8848 32.7428C85.7563 27.5284 83.3786 21.9176 78.5722 20.1951H78.5761Z" fill="#60BBE3"/>
<path d="M78.5758 20.1912L81.4518 21.2152C84.1081 22.1608 86.0228 24.3149 86.8782 26.9241C87.5727 29.0311 87.5844 31.4402 86.7566 33.7629C85.9208 36.0818 84.3945 37.9377 82.5151 39.1187C80.1884 40.5939 77.3477 41.0412 74.6875 40.0956L71.8115 39.0716C74.6208 40.0799 77.642 39.5267 80.0276 37.8357C81.7226 36.6546 83.1037 34.9008 83.8806 32.7349C84.6574 30.5691 84.7045 28.3366 84.1474 26.3591C83.3666 23.5419 81.3851 21.1956 78.5719 20.1912H78.5758Z" fill="#FFFF00"/>
<path d="M86.8782 26.9359C89.5934 28.2778 90.8685 31.6717 89.7307 34.8342C88.5928 37.9966 85.4618 39.8093 82.5112 39.1305C84.3867 37.9495 85.9287 36.1015 86.7527 33.7709C87.5884 31.452 87.5805 29.0351 86.8743 26.932" fill="#60BBE3"/>
<path d="M63.1954 8.16929L79.3175 23.6087L77.3282 36.2506L71.4153 35.6856L68.5236 33.096L69.5791 41.5671C69.6929 42.4106 68.9631 43.0149 68.2333 42.9364C68.2333 42.9364 68.2137 42.9286 68.2019 42.9364L62.34 42.3675C62.1046 42.3518 61.8653 42.2655 61.6495 42.0771L45.9079 28.6074L47.2145 36.1093C47.3636 36.9725 46.6299 37.6238 45.8648 37.5415L39.999 36.9843C39.7989 36.9647 39.5909 36.8901 39.4065 36.7528L2.37154 10.0212C0.74324 8.8363 0.315566 6.08192 1.1513 4.05341C1.81831 2.44081 2.6148 1.59331 3.70164 1.74241L9.56352 2.31133C9.86956 2.33487 10.1834 2.44866 10.5287 2.62129C11.6195 3.19807 24.6302 10.3665 32.7442 14.8433L30.3665 1.44421C30.2174 0.581017 30.9472 -0.0585254 31.6966 0.00425235L31.7241 0.0160227L37.5192 0.561399H37.6016C37.8449 0.581017 38.0921 0.686957 38.304 0.883138L56.384 17.3152L55.203 8.64011C55.0813 7.78869 55.815 7.17661 56.5448 7.25508L56.5723 7.26685L62.3675 7.81616H62.442C62.701 7.83971 62.9521 7.94956 63.1679 8.16143" fill="#60BBE3"/>
<path d="M77.3203 36.2623L79.3095 23.6204L63.1992 8.18495C62.3595 7.38453 60.9823 8.08294 61.1393 9.23255L62.8971 22.2001C62.952 22.6003 62.4733 22.8632 62.1673 22.5846L38.3313 0.906652C37.4642 0.118006 36.091 0.879193 36.2989 2.02881L39.0376 17.5114C39.1004 17.8684 38.7237 18.1509 38.3902 17.9704C33.8977 15.4986 11.9686 3.39814 10.5326 2.64481C8.94741 1.80516 7.88804 2.61735 7.05623 4.64978C6.22443 6.67829 6.64033 9.42088 8.27255 10.6019L45.2997 37.3256C46.1864 37.9691 47.4184 37.2079 47.2262 36.1211L45.4252 25.7392C45.284 24.9309 46.2335 24.3973 46.8613 24.9231L67.574 42.6539C68.4215 43.3837 69.732 42.6813 69.5868 41.5749L68.1508 30.114C68.0488 29.3097 69.0022 28.8114 69.5986 29.3489L77.3203 36.2584V36.2662H77.3163L77.3203 36.2623Z" fill="#FFFF00"/>
</svg>
