<svg width="50" height="61" viewBox="0 0 50 61" fill="none" xmlns="http://www.w3.org/2000/svg">
<path d="M34.1558 60.5728L48.426 41.7787L31.1621 40.4525L16.9312 59.223L34.1558 60.5728Z" fill="#FFFF00"/>
<path d="M31.162 40.4564L31.8918 3.56659L29.2433 0.00393677L0.734375 37.4548L16.9271 59.2269L31.1581 40.4564H31.162Z" fill="#60BBE3"/>
<path d="M46.4678 1.27913L29.2432 2.28882e-05L31.8955 3.56267L49.1241 4.8457L46.4678 1.2752V1.27913Z" fill="#60BBE3"/>
<path d="M49.1205 4.84573L31.8919 3.5627L31.1621 40.4525L48.426 41.7787L49.1244 4.84573H49.1205Z" fill="#FFFF00"/>
<path d="M29.0551 58.8778C27.7681 57.1474 29.5651 53.6476 33.0571 51.0502C36.5531 48.4527 40.4296 47.7543 41.7126 49.4729C42.9957 51.1953 41.2104 54.7109 37.7184 57.3083C34.2224 59.9057 30.3459 60.6042 29.0551 58.8778Z" fill="#FFFF00"/>
<path d="M39.021 45.8553C37.7341 44.125 33.8654 44.8313 30.3655 47.4287C26.8735 50.0261 25.0843 53.5339 26.3634 55.2563L29.059 58.8739C27.7681 57.1436 29.5651 53.6437 33.0571 51.0463C36.553 48.4489 40.4335 47.7505 41.7126 49.4729L39.021 45.8553Z" fill="#60BBE3"/>
</svg>
