<svg width="169" height="82" viewBox="0 0 169 82" fill="none" xmlns="http://www.w3.org/2000/svg">
<path d="M97.6013 14.6671C97.4306 14.5187 97.2816 14.3471 97.1588 14.1572L97.3688 14.3672L96.6188 13.8798C96.5145 13.8111 96.4291 13.7175 96.3702 13.6075C96.3112 13.4975 96.2807 13.3745 96.2813 13.2497C96.2213 10.3922 96.1388 7.54225 96.1163 4.68475L96.5813 5.47961L90.0338 1.88727H91.0163L84.5213 5.59222C84.3646 5.68096 84.1876 5.72754 84.0075 5.72754C83.8275 5.72754 83.6505 5.68096 83.4938 5.59222C81.3188 4.38472 79.1513 3.14712 76.9838 1.92462H78.0113L71.4938 5.5697L72.0113 4.68475V14.0297C72.0133 14.1606 71.9891 14.2906 71.9402 14.412C71.8912 14.5335 71.8185 14.6439 71.7262 14.7369C71.634 14.8298 71.5241 14.9033 71.4031 14.9531C71.282 15.003 71.1522 15.0283 71.0213 15.0273H61.6688L62.5163 14.5397L58.8263 21.0346V20.1046L62.4713 26.6298C62.5503 26.7666 62.5919 26.9217 62.5919 27.0797C62.5919 27.2376 62.5503 27.3929 62.4713 27.5297L58.7813 34.0322V33.1472L62.4338 39.6722L61.6838 39.2221H71.0363C71.2617 39.2241 71.4773 39.3152 71.636 39.4753C71.7947 39.6355 71.8838 39.8517 71.8838 40.0772L71.9288 49.4222L71.4713 48.6722L77.9963 52.3098H77.0213L83.5163 48.6121C83.6593 48.5313 83.8208 48.4889 83.985 48.4889C84.1493 48.4889 84.3108 48.5313 84.4538 48.6121L90.9788 52.2572H90.0038L96.4913 48.5522L95.9738 49.4447L95.9213 40.0997C95.9203 39.9592 95.9471 39.8198 96.0002 39.6898C96.0533 39.5597 96.1316 39.4415 96.2306 39.3419C96.3295 39.2422 96.4473 39.1629 96.577 39.1089C96.7067 39.055 96.8458 39.0273 96.9863 39.0273H106.346L105.379 39.5898L109.046 33.0797V34.1746L105.364 27.6647C105.268 27.4968 105.217 27.3069 105.217 27.1135C105.217 26.9201 105.268 26.73 105.364 26.5622L109.076 20.0823V21.1397C108.476 20.0447 107.861 18.9646 107.276 17.8621L105.499 14.5772L106.346 15.0646C103.519 15.0646 100.384 14.9222 97.6013 14.7347V14.6671ZM98.2913 13.3997C100.361 13.2572 102.191 13.1522 104.246 13.1072L106.346 13.0622C106.518 13.0614 106.687 13.1069 106.834 13.194C106.982 13.2812 107.104 13.4066 107.186 13.5571L109.084 16.7747C109.721 17.8472 110.329 18.9347 110.951 20.0147C111.043 20.1757 111.092 20.358 111.092 20.5435C111.092 20.729 111.043 20.9111 110.951 21.0721L107.321 27.6046V26.4946L110.989 33.0123C111.081 33.1799 111.13 33.3683 111.13 33.5598C111.13 33.7513 111.081 33.9396 110.989 34.1072L107.306 40.6097C107.211 40.7801 107.071 40.9221 106.902 41.0209C106.734 41.1198 106.542 41.172 106.346 41.1722H96.9938L97.7438 40.8572L98.0513 40.1072L98.0213 49.4372C98.0222 49.6194 97.9739 49.7985 97.8815 49.9556C97.7891 50.1127 97.656 50.2419 97.4963 50.3297L90.9638 53.9372C90.8174 54.02 90.652 54.0635 90.4838 54.0635C90.3156 54.0635 90.1502 54.02 90.0038 53.9372L83.5088 50.2397H84.4463L77.9213 53.8846C77.7826 53.9622 77.6264 54.0029 77.4675 54.0029C77.3087 54.0029 77.1525 53.9622 77.0138 53.8846L70.5188 50.1872C70.3862 50.1108 70.2753 50.0018 70.1965 49.8706C70.1178 49.7394 70.0738 49.5902 70.0688 49.4372V40.0922L70.9238 40.9471H61.5713C61.4186 40.945 61.2691 40.9032 61.1375 40.8256C61.006 40.748 60.897 40.6374 60.8213 40.5048L57.1313 34.0096C57.0536 33.8751 57.0127 33.7226 57.0127 33.5673C57.0127 33.4119 57.0536 33.2592 57.1313 33.1247L60.7763 26.6072V27.5072L57.0863 21.0123C57.0068 20.8715 56.965 20.7127 56.965 20.551C56.965 20.3894 57.0068 20.2305 57.0863 20.0898C57.0863 20.0898 60.7313 13.5721 60.7388 13.5646C60.8218 13.4146 60.9435 13.2897 61.0913 13.2026C61.239 13.1156 61.4073 13.0697 61.5788 13.0697H70.9313L70.2263 13.3546L69.9338 14.0598V4.71478C69.9305 4.53298 69.977 4.35371 70.0682 4.19641C70.1594 4.03911 70.2919 3.90961 70.4513 3.82214L76.9463 0.132202C77.1037 0.0455393 77.2804 0 77.46 0C77.6397 0 77.8164 0.0455393 77.9738 0.132202C80.1488 1.3547 82.3238 2.56213 84.4838 3.80713H83.4638L89.9963 0.169739C90.1454 0.0827655 90.3149 0.0368042 90.4875 0.0368042C90.6602 0.0368042 90.8297 0.0827655 90.9788 0.169739L97.4438 3.91974C97.5872 3.99896 97.7066 4.11513 97.7898 4.25629C97.8729 4.39745 97.9166 4.5583 97.9163 4.72211C97.9163 7.57961 97.8038 10.4297 97.7438 13.2872L97.4063 12.6572C97.7545 12.8754 98.081 13.1265 98.3813 13.4072C98.3813 13.4072 98.3363 13.4072 98.2913 13.4072V13.3997Z" fill="#191817"/>
<path d="M88.1213 68.337C91.1756 67.6367 94.2721 67.1356 97.3913 66.837L96.5813 67.4295C98.0288 64.362 99.7463 60.972 101.156 57.8895C101.666 56.8245 102.131 55.7445 102.611 54.672L103.519 55.9094C98.8613 56.5469 94.2263 57.4096 89.5538 57.9496L90.4313 57.3045C89.7235 58.8733 88.8829 60.3788 87.9188 61.8045C87.8033 61.9608 87.6316 62.0662 87.4399 62.0984C87.2482 62.1306 87.0516 62.087 86.8913 61.977C86.7777 61.8918 86.6906 61.7761 86.6401 61.6434C86.5896 61.5106 86.5779 61.3662 86.6063 61.227C86.8214 60.3868 87.0869 59.5602 87.4013 58.7519C87.7013 57.9494 88.0388 57.1545 88.3913 56.3745C88.4679 56.2036 88.5864 56.0548 88.7359 55.942C88.8854 55.8292 89.061 55.7561 89.2463 55.7294C93.9188 55.0919 98.6288 54.7321 103.309 54.1771C103.463 54.1587 103.619 54.1817 103.761 54.2437C103.902 54.3057 104.025 54.4045 104.116 54.5299C104.207 54.6553 104.263 54.8027 104.278 54.9569C104.293 55.1111 104.267 55.2664 104.201 55.407C103.699 56.472 103.189 57.5295 102.701 58.6095C101.861 60.4695 100.676 63.1696 99.8663 65.0746C99.3938 66.1471 98.9438 67.2344 98.4563 68.3069C98.383 68.4673 98.2703 68.6065 98.1287 68.7114C97.987 68.8163 97.8211 68.8836 97.6463 68.907C94.5507 69.3983 91.4268 69.6913 88.2938 69.7844C88.1317 69.7612 87.9817 69.6857 87.8666 69.5693C87.7515 69.4528 87.6777 69.3017 87.6564 69.1393C87.6352 68.977 87.6677 68.8122 87.7489 68.67C87.8301 68.5279 87.9557 68.4161 88.1063 68.352L88.1213 68.337Z" fill="#191817"/>
<path d="M82.8038 79.947C82.0538 74.8845 82.8038 69.8069 82.6838 64.7219C82.7963 59.6519 81.8513 54.5221 82.8038 49.4971C82.8533 49.3056 82.9764 49.1414 83.1464 49.0402C83.3164 48.9391 83.5194 48.9093 83.7113 48.9571C85.5563 49.4446 84.1613 62.3371 84.3788 64.7071C84.2963 69.7921 84.9938 74.8695 84.2513 79.932C84.2081 80.0908 84.1139 80.2311 83.9831 80.3311C83.8523 80.4311 83.6922 80.4853 83.5276 80.4853C83.3629 80.4853 83.2028 80.4311 83.072 80.3311C82.9412 80.2311 82.847 80.0908 82.8038 79.932V79.947Z" fill="#191817"/>
<path d="M77.3288 69.5896L69.4163 68.742C69.266 68.7244 69.1227 68.6682 69.0005 68.5789C68.8782 68.4895 68.7812 68.37 68.7188 68.2321C66.4688 64.0846 64.6988 59.727 62.8163 55.4145C62.7431 55.2656 62.7121 55.0995 62.7267 54.9342C62.7413 54.7689 62.8009 54.6108 62.8991 54.477C62.9973 54.3432 63.1303 54.2389 63.2837 54.1754C63.437 54.112 63.6048 54.0917 63.7688 54.117C64.9313 54.297 66.0938 54.4695 67.2638 54.6195C69.2738 54.9045 72.2063 55.2571 74.2613 55.4821L77.7788 55.8421C77.9425 55.8639 78.0978 55.928 78.2292 56.0279C78.3607 56.1278 78.464 56.2602 78.5288 56.4121C80.5013 60.6196 82.8938 64.8721 84.1613 69.3571C84.2056 69.5438 84.1767 69.7404 84.0804 69.9064C83.9842 70.0724 83.8279 70.1952 83.6438 70.2495C83.4973 70.2866 83.343 70.2785 83.2011 70.2263C83.0592 70.1741 82.9364 70.0803 82.8488 69.9571C82.1842 68.9779 81.5854 67.9556 81.0563 66.8971C79.5563 63.8596 78.0563 60.3795 76.7213 57.2445L77.4713 57.8145L73.9838 57.2745C70.5938 56.787 66.8663 56.2845 63.4838 55.9395L64.4363 54.6495C66.4688 58.887 68.6138 63.0871 70.2938 67.4896L69.5963 66.9719L77.5163 68.187C77.667 68.2512 77.7925 68.3629 77.8738 68.5051C77.955 68.6473 77.9875 68.812 77.9662 68.9744C77.945 69.1367 77.8712 69.2878 77.7561 69.4043C77.641 69.5208 77.4909 69.5963 77.3288 69.6195V69.5896Z" fill="#191817"/>
<path d="M90.0039 24.5297C89.8164 23.2322 89.6814 21.8747 89.5839 20.5097L90.4914 21.4171C89.2314 21.4171 87.9714 21.4173 86.7414 21.3723C86.5011 21.3645 86.2708 21.2744 86.0889 21.1172C85.1439 20.2697 84.2289 19.3847 83.2989 18.5222H84.7164C83.7789 19.3847 82.8564 20.2547 81.9039 21.1022C81.7324 21.2609 81.5075 21.3493 81.2739 21.3497L77.5239 21.4396L78.4539 20.5097C78.4539 20.5622 78.2364 24.2597 78.2439 24.3197C78.2359 24.526 78.1501 24.7215 78.0039 24.8672C77.1339 25.7772 76.2689 26.6921 75.4089 27.6121V26.4348L77.9664 29.2172C78.1036 29.3675 78.1833 29.5614 78.1914 29.7647L78.3714 33.5147L77.5239 32.6671C78.7764 32.6671 80.0364 32.7422 81.2739 32.7647C81.4844 32.7632 81.6879 32.8409 81.8439 32.9822L84.6639 35.4946H83.2989L86.0214 32.9372C86.1971 32.7718 86.4255 32.6735 86.6664 32.6596C87.9414 32.5771 89.2089 32.5246 90.4839 32.4721L89.4189 33.5372L89.5464 29.7872C89.5544 29.5222 89.6583 29.269 89.8389 29.0748C90.6989 28.1448 91.5789 27.2372 92.4789 26.3522V27.7698C91.6089 26.7423 90.7614 25.6548 90.0039 24.5673V24.5297ZM91.3389 23.9747C95.6289 27.4997 94.8339 26.6673 91.4964 30.5598L91.7964 29.8098L91.6389 33.5598C91.6277 33.8399 91.5108 34.1054 91.3119 34.303C91.1129 34.5005 90.8466 34.6155 90.5664 34.6247C89.3139 34.6772 88.0539 34.7146 86.8164 34.7296L87.4989 34.4447L84.6789 36.9721C84.4948 37.1473 84.2505 37.2451 83.9964 37.2451C83.7423 37.2451 83.4979 37.1473 83.3139 36.9721L80.5914 34.3471L81.1914 34.5947C79.9314 34.5122 78.6639 34.4597 77.4414 34.3997C77.221 34.3902 77.0125 34.2975 76.858 34.1402C76.7034 33.9829 76.6144 33.7727 76.6089 33.5523L76.4964 29.8023L76.7214 30.3497L74.1414 27.5898C73.9922 27.4301 73.9092 27.2195 73.9092 27.0009C73.9092 26.7823 73.9922 26.572 74.1414 26.4122C74.9889 25.4822 75.8439 24.5523 76.6839 23.6148L76.4439 24.1923L76.5189 20.4423C76.5243 20.2032 76.6202 19.975 76.7872 19.8038C76.9542 19.6326 77.18 19.5311 77.4189 19.5198L81.1689 19.3248L80.5089 19.5947C84.6114 15.8072 83.3289 15.7847 87.4614 19.5947L86.7864 19.3173C88.0764 19.3773 89.3589 19.4521 90.6489 19.5646C90.8743 19.5835 91.0844 19.6866 91.2373 19.8534C91.3902 20.0202 91.4747 20.2385 91.4739 20.4648C91.4739 21.6198 91.4289 22.7823 91.3389 24.0048V23.9747Z" fill="#191817"/>
<path d="M30.4108 67.6348C33.4649 66.9339 36.5615 66.4329 39.6808 66.1348L38.8633 66.7349C40.3108 63.6674 42.0283 60.2699 43.4458 57.1874C43.9483 56.1299 44.4208 55.0498 44.9008 53.9698L45.8008 55.2073C41.1433 55.8523 36.5083 56.7072 31.8433 57.2472L32.7208 56.6024C32.0146 58.172 31.174 59.6776 30.2083 61.1024C30.1036 61.2304 29.9594 61.3202 29.7983 61.3578C29.6371 61.3954 29.4681 61.3786 29.3175 61.3102C29.1668 61.2417 29.0431 61.1254 28.9654 60.9793C28.8878 60.8332 28.8607 60.6655 28.8883 60.5023C29.1058 59.6652 29.3712 58.8414 29.6833 58.0348C29.9833 57.2248 30.3208 56.4373 30.6733 55.6498C30.7511 55.4784 30.871 55.3294 31.0217 55.2166C31.1725 55.1038 31.3494 55.0309 31.5358 55.0048C36.2083 54.3673 40.9108 54.0074 45.5983 53.4524C45.7525 53.4357 45.9083 53.46 46.0499 53.5231C46.1915 53.5861 46.3139 53.6857 46.4046 53.8115C46.4953 53.9372 46.551 54.0847 46.5662 54.239C46.5813 54.3933 46.5553 54.5488 46.4908 54.6898C45.9883 55.7473 45.4708 56.8123 44.9908 57.8848C44.1583 59.7448 42.9733 62.4449 42.1633 64.3499C41.6908 65.4299 41.2408 66.5173 40.7458 67.5823C40.6737 67.7434 40.5613 67.8833 40.4195 67.9884C40.2776 68.0935 40.111 68.1603 39.9358 68.1823C36.8407 68.6781 33.7166 68.9711 30.5833 69.0598C30.4217 69.0354 30.2725 68.959 30.1583 68.842C30.0442 68.725 29.9714 68.5739 29.951 68.4117C29.9306 68.2496 29.9638 68.0851 30.0454 67.9435C30.1271 67.8019 30.2527 67.6909 30.4033 67.6273L30.4108 67.6348Z" fill="#191817"/>
<path d="M25.0934 79.2299C24.3434 74.6174 25.0484 69.9824 24.9659 65.3474C25.0784 60.7199 24.1334 56.0399 25.0934 51.4649C25.1194 51.3698 25.1639 51.2809 25.2244 51.2031C25.2849 51.1252 25.3601 51.0599 25.4458 51.0112C25.5314 50.9624 25.6259 50.9311 25.7237 50.9189C25.8215 50.9067 25.9208 50.9138 26.0159 50.9399C27.8309 51.5699 26.4509 63.0224 26.6609 65.3474C26.5859 69.9824 27.2834 74.6174 26.5409 79.2299C26.4977 79.3888 26.4034 79.5291 26.2726 79.6291C26.1418 79.7291 25.9818 79.7833 25.8171 79.7833C25.6525 79.7833 25.4924 79.7291 25.3616 79.6291C25.2308 79.5291 25.1365 79.3888 25.0934 79.2299Z" fill="#191817"/>
<path d="M19.6484 68.8723L11.7359 68.0249C11.585 68.0087 11.4411 67.9531 11.3187 67.8636C11.1962 67.774 11.0995 67.6538 11.0384 67.5149C8.78838 63.3749 7.01837 59.0099 5.13587 54.6974C5.08313 54.5873 5.05294 54.4679 5.04708 54.346C5.04121 54.2241 5.05979 54.1021 5.10172 53.9875C5.14366 53.8729 5.20809 53.7679 5.29124 53.6786C5.37439 53.5892 5.47456 53.5175 5.58588 53.4675C5.74419 53.3998 5.91859 53.3789 6.08838 53.4074C7.25338 53.5874 8.41588 53.7523 9.57588 53.9023C11.5934 54.1873 14.5259 54.5399 16.5809 54.7649L20.0909 55.1249C20.2546 55.1468 20.4098 55.2107 20.5413 55.3106C20.6728 55.4105 20.776 55.5431 20.8409 55.6949C22.8134 59.9099 25.2059 64.1549 26.4734 68.6399C26.5199 68.8277 26.492 69.0261 26.3955 69.1938C26.2991 69.3616 26.1416 69.4856 25.9559 69.5399C25.8086 69.5762 25.6537 69.5669 25.5118 69.5134C25.3699 69.4598 25.2475 69.3643 25.1609 69.2398C24.4966 68.259 23.8954 67.2371 23.3609 66.1799C21.8609 63.1799 20.3609 59.6623 19.0334 56.5273L19.7834 57.0973L16.2959 56.5574C12.9134 56.0699 9.18588 55.5674 5.79588 55.2299L6.74838 53.9324C8.78838 58.1699 10.9334 62.37 12.6059 66.7725L11.9084 66.2548L19.7759 67.4399C19.9264 67.5035 20.0521 67.6145 20.1338 67.7561C20.2154 67.8977 20.2486 68.0621 20.2282 68.2243C20.2078 68.3865 20.135 68.5376 20.0209 68.6546C19.9067 68.7716 19.7575 68.8479 19.5959 68.8723H19.6484Z" fill="#191817"/>
<path d="M25.8733 2.19745C23.6875 4.7166 21.3613 7.11045 18.9058 9.36749L19.2208 8.42249C19.5658 10.455 20.0383 13.4174 20.3533 15.4949L20.2333 15.165C21.4033 17.1975 22.5583 19.2374 23.7583 21.2549L22.4083 21.0899C22.7308 20.8124 23.1583 20.1449 23.6683 20.1899C25.1083 20.1899 26.5483 20.1899 27.9883 20.1899C28.4908 20.1449 28.9708 20.8499 29.3158 21.1274L27.9433 21.2999C29.1433 19.2674 30.3058 17.2125 31.4758 15.165L31.3483 15.5024C31.7158 13.1474 32.0458 10.7775 32.4583 8.42249L32.7958 9.42737C30.3051 7.20512 27.9906 4.79297 25.8733 2.21246V2.19745ZM25.8733 0.75C28.8562 2.87971 31.6742 5.23129 34.3033 7.78491C34.4383 7.90983 34.5399 8.06662 34.5989 8.24084C34.6578 8.41507 34.6722 8.60125 34.6408 8.78247C34.2358 11.1525 33.7558 13.4999 33.3133 15.8624C32.1583 18.0299 30.6808 20.0474 29.4508 22.1924C29.3929 22.2921 29.3156 22.3792 29.2234 22.4485C29.1312 22.5179 29.0261 22.568 28.9142 22.5959C28.8023 22.6239 28.686 22.6291 28.572 22.6113C28.4581 22.5935 28.3489 22.5532 28.2508 22.4925C27.9461 22.2334 27.6557 21.9579 27.3808 21.6674L27.9883 21.915C26.5483 21.915 25.1083 21.915 23.6683 21.915L24.2758 21.6674L23.6308 22.32C23.468 22.4808 23.2484 22.5709 23.0196 22.5709C22.7907 22.5709 22.5711 22.4808 22.4083 22.32C21.1033 20.16 19.6333 18.0449 18.4558 15.8249C18.0808 13.7474 17.4958 10.8225 17.1583 8.77496C17.1287 8.60304 17.1427 8.42645 17.1991 8.26135C17.2554 8.09625 17.3523 7.94791 17.4808 7.82996C20.1398 5.31054 22.942 2.94666 25.8733 0.75Z" fill="#191817"/>
<path d="M43.0333 9.30735C39.7063 9.54587 36.3683 9.5934 33.0358 9.4498L33.9358 9.00742C32.7358 10.6949 30.9358 13.1174 29.7283 14.8049L29.8783 14.4898C29.2708 16.7398 28.6483 18.9898 28.0708 21.2398L27.2308 20.1673C27.6358 20.1673 28.3033 20.0699 28.5883 20.4149C29.6383 21.4649 30.7008 22.4998 31.7758 23.5198C32.1733 23.8498 32.0083 24.6824 32.0458 25.1249L30.9508 24.2698C33.2608 23.6773 35.5483 23.0398 37.8433 22.4098L37.5133 22.5673C39.4408 21.1573 41.3458 19.7174 43.2958 18.3449L42.8308 19.2899C42.6407 15.9572 42.7084 12.6146 43.0333 9.29233V9.30735ZM44.0533 8.28745C44.6612 11.9019 44.9921 15.5574 45.0433 19.2223C45.0494 19.4059 45.0102 19.5883 44.9291 19.7531C44.848 19.918 44.7275 20.0602 44.5783 20.1673C42.6208 21.5548 40.6108 22.8748 38.6308 24.2323C36.2683 24.9823 33.7783 25.3423 31.3858 25.9873C31.1591 26.0443 30.919 26.0092 30.7181 25.8897C30.5172 25.7703 30.3716 25.5763 30.3133 25.35C30.2758 25.23 30.3133 24.3074 30.3133 24.1574L30.5758 24.7799C29.5333 23.7224 28.4758 22.6873 27.4033 21.6598L28.0033 21.9074H27.2533C27.1398 21.9094 27.027 21.8887 26.9215 21.8466C26.816 21.8045 26.72 21.742 26.639 21.6624C26.558 21.5828 26.4937 21.4877 26.4498 21.383C26.4059 21.2782 26.3833 21.1658 26.3833 21.0523C26.9833 18.6148 27.4408 16.0949 28.1758 13.7024C29.3683 11.9624 31.0258 9.48734 32.2408 7.79984C32.3398 7.65645 32.4737 7.5407 32.6298 7.46329C32.786 7.38589 32.9592 7.3493 33.1333 7.35728C36.7932 7.45599 40.4443 7.76669 44.0683 8.28745H44.0533Z" fill="#191817"/>
<path d="M43.5133 19.4775C41.2633 20.1075 39.1108 20.6251 36.8608 21.0376L37.2208 20.9025C35.2033 22.1175 33.1858 23.3175 31.1458 24.5025L31.3408 22.8976C31.6483 23.2276 32.2183 23.6475 32.1733 24.1575L32.0983 28.5524C32.1016 28.6752 32.0792 28.7973 32.0327 28.9109C31.9862 29.0246 31.9166 29.1273 31.8283 29.2125L31.1383 29.8799L30.9583 28.4475C32.9908 29.73 35.0608 30.9525 37.1158 32.1975L36.8233 32.0926C39.1858 32.4676 41.5408 32.8426 43.9033 33.2251L43.0633 33.51C45.1033 31.2 47.9983 27.9526 50.0533 25.7101V27.2101C47.6796 24.7975 45.4933 22.2074 43.5133 19.4625V19.4775ZM43.9708 18.105C46.7232 20.4483 49.2978 22.993 51.6733 25.7176C51.8609 25.9223 51.965 26.1899 51.965 26.4676C51.965 26.7453 51.8609 27.0129 51.6733 27.2176C50.4883 28.5001 49.2733 29.7449 48.0583 31.0049L44.4208 34.7549C44.3185 34.8703 44.188 34.9573 44.0421 35.0073C43.8962 35.0572 43.7399 35.0685 43.5883 35.04C41.1508 34.5225 38.6533 34.2375 36.2458 33.6375C34.1683 32.4225 32.1133 31.1776 30.0208 29.9926C29.9 29.9224 29.797 29.8252 29.7198 29.7087C29.6427 29.5922 29.5935 29.4596 29.5761 29.3209C29.5586 29.1823 29.5735 29.0415 29.6194 28.9095C29.6653 28.7775 29.7411 28.6578 29.8408 28.5599L30.5083 27.87L30.2383 28.5301L30.1483 24.135L30.4483 24.885L29.9008 24.36C29.7877 24.2525 29.7011 24.1201 29.648 23.9733C29.595 23.8265 29.5768 23.6693 29.595 23.5143C29.6132 23.3593 29.6672 23.2106 29.7529 23.0801C29.8385 22.9496 29.9533 22.8409 30.0883 22.7625C32.0883 21.5275 34.1008 20.3126 36.1258 19.1176C38.7068 18.5861 41.3243 18.2501 43.9558 18.1125L43.9708 18.105Z" fill="#191817"/>
<path d="M37.7833 30.2026L30.9208 28.8L32.1958 27.8025V28.5525C32.1994 28.692 32.174 28.8308 32.121 28.9599C32.0681 29.089 31.9888 29.2057 31.8883 29.3025L28.7083 32.34C28.3633 32.7225 27.6133 32.5651 27.2083 32.5801L28.1158 31.41C28.6858 33.7575 29.2333 36.1126 29.8108 38.4526L29.6833 38.16L33.8008 44.0251L33.0508 43.6651C35.6608 43.5526 40.9108 43.2901 43.5133 43.1251L42.5533 44.0851L42.6508 38.8351L42.8233 33.5851L43.2958 34.545C41.3614 33.209 39.522 31.7406 37.7908 30.1501L37.7833 30.2026ZM38.3908 28.8901C40.5436 30.0339 42.6137 31.327 44.5858 32.7601C44.7386 32.8678 44.8619 33.0122 44.9444 33.1799C45.027 33.3476 45.0661 33.5333 45.0583 33.7201L44.8408 38.9701L44.5408 44.2201C44.5351 44.4729 44.4321 44.7138 44.2533 44.8926C44.0745 45.0714 43.8336 45.1744 43.5808 45.1801C40.9633 45.1801 35.7208 45.3375 33.0808 45.42C32.9364 45.4275 32.7924 45.3994 32.6616 45.3379C32.5307 45.2764 32.4171 45.1835 32.3308 45.0675L28.1833 39.2251C27.4333 36.8401 26.9008 34.35 26.2108 31.9275C26.1759 31.7915 26.172 31.6495 26.1994 31.5118C26.2267 31.3741 26.2847 31.2444 26.3689 31.1321C26.4531 31.0198 26.5615 30.9277 26.686 30.8629C26.8105 30.7981 26.948 30.7622 27.0883 30.7576H27.9733L27.2908 31.035L30.3283 27.8625L30.0208 28.6125V27.8625V27.7801C30.0273 27.6301 30.0678 27.4834 30.1393 27.3513C30.2108 27.2192 30.3114 27.1051 30.4336 27.0177C30.5557 26.9302 30.6961 26.8716 30.8442 26.8465C30.9923 26.8213 31.1442 26.8302 31.2883 26.8725L38.2633 28.95L38.3908 28.8901Z" fill="#191817"/>
<path d="M31.6484 37.53C30.2384 35.61 28.9634 33.6449 27.7259 31.6274L29.3684 31.8299L28.7984 32.4074C28.701 32.5072 28.5842 32.586 28.4552 32.6389C28.3262 32.6917 28.1878 32.7176 28.0484 32.7148H23.6534C23.1059 32.7148 22.7009 32.1674 22.3559 31.8449L23.9759 31.6424L20.1734 37.7623L20.2934 37.4549C19.8284 39.7949 19.4384 42.1498 19.0109 44.5048L18.7559 43.7548C20.6759 45.5173 24.5759 49.0049 26.5334 50.7599H25.1759C27.0434 48.9374 30.8534 45.3223 32.7734 43.5523L32.4284 44.5649C31.999 42.2517 31.7359 39.9106 31.6409 37.5598L31.6484 37.53ZM33.0059 37.0273C33.7127 39.3628 34.2614 41.7432 34.6484 44.1523C34.6801 44.3365 34.6651 44.5257 34.6049 44.7026C34.5446 44.8795 34.4409 45.0385 34.3034 45.1649C32.3759 46.9574 28.4834 50.4824 26.5109 52.2224C26.3297 52.3884 26.0929 52.4805 25.8471 52.4805C25.6014 52.4805 25.3646 52.3884 25.1834 52.2224L21.4334 48.5925L17.6309 44.9924C17.5312 44.8969 17.4555 44.7791 17.4099 44.6487C17.3642 44.5184 17.35 44.3793 17.3684 44.2424C17.8334 41.7974 18.1184 39.2774 18.6359 36.8549L22.2284 30.6073C22.3081 30.4736 22.4169 30.3597 22.5468 30.2739C22.6766 30.188 22.8242 30.1325 22.9784 30.1116C23.1327 30.0907 23.2897 30.105 23.4377 30.1532C23.5857 30.2014 23.721 30.2823 23.8334 30.39L24.4034 30.9449L23.6534 30.6448H28.0484L27.2984 30.9525L27.8759 30.39C27.9731 30.2892 28.0896 30.209 28.2185 30.1543C28.3473 30.0996 28.4859 30.0715 28.6259 30.0715C28.7659 30.0715 28.9044 30.0996 29.0333 30.1543C29.1621 30.209 29.2786 30.2892 29.3759 30.39C30.7053 32.5518 31.9195 34.7823 33.0134 37.0724L33.0059 37.0273Z" fill="#191817"/>
<path d="M23.3983 32.3323C22.2208 31.3873 21.0358 30.3299 19.8658 29.2499C19.4683 28.9199 19.5883 28.2523 19.5583 27.8098L20.8108 28.7848C18.8308 29.3473 15.9433 30.0524 13.9183 30.5549L14.2633 30.3899C12.5533 31.5824 10.0858 33.2548 8.34577 34.4398L8.73577 33.6448C8.80327 37.1323 8.90077 40.6198 9.07327 44.1448L8.24077 43.3124C11.7283 43.4324 15.2158 43.4624 18.7408 43.5299L17.8483 43.9723C18.8458 42.4723 20.8483 39.5399 21.9208 38.0774L21.7483 38.4524C22.2899 36.0932 22.9736 33.769 23.7958 31.4924L24.5983 32.5348C24.2052 32.5045 23.8144 32.4494 23.4283 32.3698L23.3983 32.3323ZM23.9533 30.9897C24.6058 30.6897 25.4533 30.7723 25.4083 31.6498C25.0599 34.116 24.5589 36.5582 23.9083 38.9623C23.8788 39.0961 23.8198 39.2217 23.7358 39.3298C22.7083 40.7848 20.6083 43.7098 19.5433 45.1423C19.4434 45.2843 19.3091 45.3988 19.1531 45.4748C18.997 45.5509 18.8242 45.5862 18.6508 45.5774C15.1633 45.3899 11.6683 45.1574 8.15077 45.0074C7.93309 44.9998 7.72651 44.9094 7.57319 44.7547C7.41987 44.6 7.33138 44.3925 7.32578 44.1748C7.32578 42.4273 7.21328 40.6873 7.13828 38.9248C7.06328 37.1623 6.97327 35.4448 6.87577 33.6748C6.86971 33.5299 6.89938 33.3857 6.96215 33.2549C7.02493 33.1242 7.11889 33.0107 7.23577 32.9248C9.11077 31.6348 11.4658 29.6549 13.4008 28.5224C15.4408 28.0199 18.2833 27.2399 20.3083 26.8124C20.458 26.7699 20.6156 26.7631 20.7684 26.793C20.9212 26.8228 21.0648 26.8882 21.1875 26.9839C21.3102 27.0797 21.4087 27.203 21.4749 27.3439C21.541 27.4848 21.573 27.6392 21.5683 27.7947V28.5447L21.2833 27.8473C22.1833 28.8373 23.0758 29.8497 23.9683 30.9822L23.9533 30.9897Z" fill="#191817"/>
<path d="M19.8882 28.8298C19.7232 27.3298 19.6332 25.7473 19.5657 24.1573C19.5207 23.6398 20.0907 23.2498 20.3832 22.9048L20.5782 24.4872C18.5307 23.3397 16.5357 22.1022 14.5257 20.8947L14.8782 21.0298C12.8382 20.6623 9.90574 20.0998 7.83574 19.7098L8.67573 19.4247C6.26073 21.9372 3.86074 24.4722 1.51324 27.0597V25.8823C3.89824 28.4323 6.34323 30.9222 8.75823 33.4422L7.82073 33.1198C8.99073 32.9023 10.1682 32.6623 11.3382 32.4523L14.8707 31.8298L14.4807 31.9722C16.5204 30.6955 18.6342 29.541 20.8107 28.5148L20.6457 29.8348C20.3769 29.5143 20.1265 29.1787 19.8957 28.8298H19.8882ZM21.2232 28.2748C22.0482 28.6123 22.5732 29.3548 21.6732 29.9623C19.6524 31.5029 17.5018 32.8654 15.2457 34.0347C13.1532 34.3797 10.2132 34.8898 8.13573 35.1823C7.97078 35.2061 7.80251 35.1892 7.64561 35.133C7.48872 35.0768 7.34798 34.983 7.23573 34.8598C4.90323 32.2498 2.59324 29.6097 0.230736 27.0447C0.08254 26.8874 0 26.6796 0 26.4635C0 26.2474 0.08254 26.0396 0.230736 25.8823C1.43824 24.6148 2.61574 23.3322 3.79324 22.0422C4.97074 20.7522 6.14823 19.4623 7.30323 18.1573C7.40351 18.0475 7.52886 17.9634 7.66859 17.9125C7.80833 17.8615 7.9583 17.8451 8.10574 17.8647C10.2132 18.2172 13.1532 18.6147 15.2232 18.9822C17.4282 20.0772 19.4982 21.4722 21.6132 22.7322C21.7294 22.7993 21.8308 22.8893 21.9114 22.9966C21.992 23.1038 22.0502 23.2262 22.0824 23.3564C22.1146 23.4866 22.1202 23.622 22.0989 23.7545C22.0775 23.8869 22.0297 24.0137 21.9582 24.1273C21.7386 24.3795 21.5031 24.6174 21.2532 24.8397L21.5382 24.1423C21.4782 25.4848 21.3882 26.8273 21.2157 28.2598L21.2232 28.2748Z" fill="#191817"/>
<path d="M19.8883 23.8797C20.8258 22.7022 21.8833 21.5172 22.9633 20.3472C23.3083 19.9422 24.0433 20.0773 24.5008 20.0323L23.5258 21.2997C22.9708 19.3497 22.2808 16.4997 21.7858 14.5047L21.9433 14.8572C20.7583 13.1472 19.0858 10.6798 17.9008 8.93976L18.6958 9.32977C15.2083 9.39727 11.7133 9.49474 8.23334 9.66724L9.06584 8.82733C8.94584 12.3148 8.91584 15.8098 8.84834 19.3273L8.40584 18.4422L11.3608 20.4598L14.3008 22.5148L13.9258 22.3423C16.243 22.8758 18.5269 23.5444 20.7658 24.3448L19.7158 25.1624C19.7445 24.7414 19.8021 24.3228 19.8883 23.9097V23.8797ZM21.2233 24.4347C21.5083 25.1322 21.5158 26.0172 20.5633 25.9797C18.1401 25.6263 15.7406 25.1254 13.3783 24.4797C13.2457 24.4471 13.1207 24.3884 13.0108 24.3073C11.5558 23.2798 8.63084 21.1797 7.19834 20.1147C7.05495 20.0157 6.9391 19.8819 6.8617 19.7258C6.78429 19.5696 6.74786 19.3963 6.75584 19.2222C6.95084 15.7272 7.18335 12.2397 7.32585 8.72223C7.33712 8.5052 7.4299 8.30049 7.58564 8.14893C7.74138 7.99736 7.94859 7.91022 8.16584 7.90485C9.90584 7.90485 11.6533 7.79234 13.4158 7.70984C15.1783 7.62734 16.9033 7.55227 18.6658 7.44727C18.8106 7.4425 18.9544 7.47267 19.0849 7.53534C19.2155 7.59801 19.329 7.69133 19.4158 7.80725C20.7133 9.68975 22.6933 12.0447 23.8258 13.9797C24.3208 15.9822 25.0858 18.7873 25.5133 20.7823C25.5479 20.9129 25.5558 21.049 25.5366 21.1827C25.5173 21.3164 25.4713 21.4448 25.4013 21.5603C25.3313 21.6758 25.2387 21.7762 25.1291 21.8551C25.0195 21.934 24.8951 21.9899 24.7633 22.0197C24.4036 22.0385 24.0431 22.0385 23.6833 22.0197L24.3808 21.7273C23.3908 22.6348 22.3708 23.5199 21.2383 24.4124L21.2233 24.4347Z" fill="#191817"/>
<path d="M28.1909 20.5572C29.5346 21.3586 30.7401 22.3716 31.7609 23.5572C31.9268 23.7362 32.0157 23.9734 32.0084 24.2173L31.8884 28.4623C31.8895 28.5807 31.8668 28.6981 31.8217 28.8076C31.7766 28.9171 31.71 29.0165 31.6259 29.0998C30.5909 30.0673 29.5934 31.0723 28.5884 32.0998C28.4282 32.2573 28.213 32.346 27.9884 32.3472L23.7434 32.4148C23.5151 32.4171 23.2947 32.331 23.1284 32.1747L20.0384 29.2648C19.9373 29.1688 19.8581 29.052 19.8063 28.9226C19.7546 28.7931 19.7314 28.654 19.7384 28.5148L19.6934 24.2697C19.6938 24.1301 19.7218 23.9919 19.7759 23.8632C19.8299 23.7345 19.9089 23.6177 20.0084 23.5197L23.0084 20.5197C23.1106 20.4144 23.233 20.3309 23.3684 20.2741C23.5037 20.2174 23.6491 20.1888 23.7959 20.1897C25.2928 20.0789 26.7976 20.2286 28.2434 20.6323L28.1909 20.5572ZM27.6434 21.8998C26.3821 22.2883 25.06 22.4409 23.7434 22.3498L24.4934 22.0197L21.4934 25.0197L21.8159 24.2697L21.7709 28.5148L21.4634 27.7648L24.3809 30.8547L23.7359 30.5848L27.9809 30.6522L27.3809 30.8998C28.3709 29.8873 29.3684 28.8898 30.3809 27.8998L30.1109 28.5373L29.9909 24.2922L30.2984 25.0422C29.2554 24.1763 28.3677 23.1391 27.6734 21.9748L27.6434 21.8998Z" fill="#191817"/>
<path d="M124.077 28.2166C122.119 30.5566 120.064 32.7165 117.934 34.9065L118.204 33.8791C118.857 36.2791 119.547 38.6715 120.162 41.0865L119.464 40.3965L126.634 42.5191L125.772 42.7441C130.879 37.7566 136.504 31.9216 141.462 26.7991L142.212 28.6066C136.077 28.6066 130.279 28.9066 124.077 28.2166ZM123.522 26.8815C129.574 26.2065 136.054 26.454 142.212 26.4915C142.353 26.4895 142.493 26.5159 142.623 26.5692C142.754 26.6224 142.873 26.7014 142.972 26.8015C143.071 26.9016 143.15 27.0208 143.202 27.1518C143.254 27.2828 143.28 27.4229 143.277 27.564C143.273 27.8455 143.16 28.1146 142.962 28.314L138.942 32.2066C136.624 34.4566 133.279 37.7191 130.947 40.0291L127.017 44.0041C126.907 44.1139 126.77 44.1925 126.62 44.2321C126.469 44.2716 126.311 44.2707 126.162 44.2291L118.932 42.3316C118.765 42.2892 118.612 42.2028 118.489 42.0815C118.366 41.9602 118.278 41.8082 118.234 41.6415C117.484 39.2565 116.854 36.8566 116.172 34.4566C116.119 34.277 116.116 34.0864 116.164 33.9053C116.211 33.7242 116.307 33.5594 116.442 33.429L118.122 31.8016C119.839 30.1516 121.722 28.4115 123.522 26.8965V26.8815Z" fill="#191817"/>
<path d="M123.537 28.2165C121.737 26.7165 119.854 24.9615 118.137 23.319L116.457 21.684C116.322 21.5541 116.225 21.3894 116.177 21.2081C116.13 21.0269 116.133 20.836 116.187 20.6564C116.869 18.2639 117.529 15.8566 118.249 13.4716C118.293 13.3048 118.381 13.1529 118.504 13.0316C118.627 12.9103 118.78 12.8238 118.947 12.7814L126.177 10.8839C126.326 10.8416 126.485 10.8401 126.635 10.8797C126.785 10.9193 126.922 10.9985 127.032 11.109L130.962 15.0915C133.302 17.409 136.624 20.6564 138.957 22.9064L142.977 26.7991C143.076 26.8974 143.154 27.0141 143.208 27.1428C143.261 27.2715 143.289 27.4097 143.289 27.5491C143.289 27.6885 143.261 27.8265 143.208 27.9552C143.154 28.0839 143.076 28.2008 142.977 28.2991C142.778 28.4999 142.509 28.6155 142.227 28.6215C136.069 28.659 129.589 28.914 123.537 28.2315V28.2165ZM124.092 26.8815C130.287 26.1915 136.092 26.4615 142.227 26.4915L141.477 28.2991C136.519 23.1766 130.894 17.3416 125.787 12.3541L126.649 12.5789L119.479 14.7015L120.177 14.0116C119.562 16.4266 118.872 18.8189 118.219 21.2189L117.949 20.1915C120.079 22.3515 122.134 24.5415 124.092 26.8815Z" fill="#191817"/>
<path d="M160.347 26.9115C162.297 24.579 164.359 22.4116 166.482 20.2216L166.212 21.249C165.559 18.849 164.877 16.4566 164.262 14.0416L164.952 14.7315L157.789 12.609L158.644 12.3839C153.544 17.3714 147.912 23.2064 142.962 28.3289L142.212 26.5215C148.347 26.5215 154.144 26.2215 160.347 26.9115ZM160.894 28.2465C154.842 28.9215 148.369 28.6741 142.212 28.6366C142.002 28.6374 141.797 28.5758 141.622 28.4597C141.447 28.3435 141.311 28.1781 141.231 27.9843C141.15 27.7905 141.129 27.5772 141.17 27.3715C141.212 27.1657 141.313 26.9768 141.462 26.8289L145.474 22.9365C147.799 20.6865 151.144 17.424 153.469 15.1215L157.407 11.139C157.516 11.0285 157.653 10.9493 157.804 10.9097C157.954 10.8702 158.112 10.8716 158.262 10.914L165.492 12.8115C165.659 12.8528 165.811 12.9389 165.933 13.0605C166.054 13.1821 166.14 13.3345 166.182 13.5014C166.932 15.8864 167.562 18.294 168.244 20.6865C168.299 20.8659 168.303 21.0571 168.255 21.2385C168.207 21.42 168.11 21.5846 167.974 21.7141L166.302 23.349C164.584 24.9915 162.702 26.7315 160.894 28.2465Z" fill="#191817"/>
<path d="M160.894 26.9117C162.702 28.4117 164.584 30.1667 166.302 31.8167L167.974 33.4441C168.109 33.5741 168.206 33.7388 168.254 33.92C168.301 34.1013 168.298 34.2922 168.244 34.4717C167.562 36.8717 166.909 39.2716 166.182 41.6566C166.139 41.8228 166.052 41.9745 165.931 42.0959C165.81 42.2172 165.658 42.3039 165.492 42.3467L158.262 44.2442C158.112 44.2874 157.954 44.2892 157.803 44.2496C157.653 44.2099 157.516 44.1304 157.407 44.0192L153.469 40.0442C151.137 37.7192 147.814 34.4717 145.474 32.2217L141.462 28.3291C141.313 28.1812 141.212 27.9924 141.17 27.7867C141.129 27.581 141.15 27.3677 141.231 27.1739C141.311 26.9801 141.447 26.8147 141.622 26.6985C141.797 26.5824 142.002 26.5208 142.212 26.5216C148.369 26.5216 154.842 26.2367 160.894 26.9117ZM160.347 28.2467C154.144 28.9367 148.347 28.6667 142.212 28.6367L142.962 26.8291C147.912 31.9516 153.544 37.7866 158.644 42.7741L157.789 42.5492L164.952 40.4267L164.262 41.1166C164.877 38.7016 165.559 36.3092 166.212 33.9092L166.482 34.9366C164.352 32.7766 162.304 30.5867 160.347 28.2467Z" fill="#191817"/>
<path d="M142.879 45.7142C145.212 47.6717 147.379 49.7267 149.569 51.8567L148.534 51.5866C150.942 50.9266 153.334 50.2442 155.749 49.6292L155.059 50.3267L157.182 43.1566L157.407 44.0192C152.419 38.9117 146.584 33.2866 141.462 28.3291L143.269 27.5791C143.269 33.7141 143.569 39.5117 142.879 45.7142ZM141.544 46.2692C140.862 40.2092 141.117 33.7366 141.154 27.5791C141.152 27.438 141.179 27.2981 141.232 27.1675C141.285 27.0368 141.364 26.9183 141.464 26.8188C141.564 26.7194 141.684 26.6412 141.815 26.5889C141.946 26.5365 142.086 26.5111 142.227 26.5142C142.508 26.5174 142.777 26.6304 142.977 26.8291L146.869 30.8492C149.119 33.1667 152.382 36.5116 154.684 38.8441L158.659 42.7741C158.772 42.8823 158.853 43.019 158.894 43.1696C158.935 43.3202 158.934 43.479 158.892 43.6292L156.994 50.8591C156.95 51.0257 156.864 51.1778 156.743 51.3002C156.621 51.4226 156.47 51.5112 156.304 51.5568C153.919 52.3068 151.512 52.9293 149.119 53.6193C148.939 53.6697 148.749 53.6711 148.569 53.6237C148.388 53.5762 148.224 53.4815 148.092 53.3492L146.457 51.6692C144.807 49.9517 143.074 48.0692 141.559 46.2692H141.544Z" fill="#191817"/>
<path d="M142.879 46.2691C141.379 48.0691 139.624 49.9515 137.974 51.669L136.347 53.349C136.215 53.482 136.051 53.5773 135.87 53.6248C135.689 53.6723 135.499 53.6704 135.319 53.6191C132.919 52.9291 130.519 52.2766 128.134 51.5566C127.968 51.511 127.817 51.4225 127.696 51.3001C127.575 51.1777 127.488 51.0255 127.444 50.859L125.547 43.6291C125.504 43.4795 125.503 43.3211 125.543 43.1708C125.582 43.0204 125.661 42.8834 125.772 42.774L129.747 38.844C132.072 36.504 135.319 33.1815 137.569 30.849L141.462 26.829C141.61 26.6802 141.799 26.5788 142.004 26.5376C142.21 26.4965 142.423 26.5175 142.617 26.5979C142.811 26.6783 142.976 26.8144 143.092 26.9892C143.209 27.1639 143.27 27.3692 143.269 27.579C143.307 33.7365 143.554 40.2091 142.879 46.2691ZM141.544 45.7141C140.854 39.5116 141.124 33.714 141.154 27.579L142.962 28.329C137.839 33.2865 132.004 38.9116 127.017 44.0191L127.242 43.1565L129.364 50.3265L128.674 49.6291C131.082 50.2441 133.482 50.9265 135.882 51.5865L134.854 51.8565C137.014 49.7265 139.204 47.6716 141.544 45.7141Z" fill="#191817"/>
<path d="M141.537 9.46653C139.197 7.50903 137.037 5.45407 134.847 3.32407L135.874 3.59397C133.474 4.25397 131.074 4.93655 128.667 5.55155L129.357 4.8541L127.234 12.024L127.009 11.1615C131.997 16.269 137.824 21.894 142.954 26.8515L141.147 27.6015C141.147 21.4665 140.847 15.669 141.537 9.46653ZM142.872 8.91153C143.547 14.9715 143.299 21.444 143.262 27.6015C143.263 27.8113 143.201 28.0167 143.085 28.1914C142.969 28.3662 142.803 28.5023 142.61 28.5827C142.416 28.6631 142.202 28.6842 141.997 28.643C141.791 28.6018 141.602 28.5003 141.454 28.3515L137.562 24.3316C135.312 22.0141 132.049 18.669 129.739 16.3365L125.764 12.4065C125.654 12.2966 125.576 12.1597 125.536 12.0095C125.497 11.8593 125.498 11.7012 125.539 11.5515L127.437 4.32144C127.479 4.15423 127.565 4.00152 127.687 3.87888C127.808 3.75624 127.96 3.66819 128.127 3.624C130.512 2.874 132.912 2.2515 135.312 1.5615C135.492 1.51106 135.682 1.50946 135.862 1.55692C136.043 1.60438 136.207 1.69927 136.339 1.83158L137.967 3.51157C139.617 5.22907 141.357 7.11153 142.872 8.91153Z" fill="#191817"/>
<path d="M141.537 8.88907C143.037 7.08907 144.784 5.20661 146.434 3.48911L148.069 1.80912C148.201 1.67681 148.366 1.58192 148.546 1.53446C148.727 1.487 148.917 1.4886 149.097 1.53903C151.489 2.22903 153.897 2.88153 156.282 3.60153C156.448 3.64714 156.599 3.73565 156.72 3.85807C156.841 3.98048 156.928 4.13264 156.972 4.29917L158.869 11.5291C158.911 11.6794 158.911 11.8379 158.87 11.9883C158.829 12.1387 158.749 12.2754 158.637 12.384L154.662 16.314C152.344 18.654 149.097 21.9766 146.847 24.3091L142.954 28.329C142.755 28.5269 142.485 28.6379 142.204 28.6379C141.923 28.6379 141.654 28.5269 141.454 28.329C141.353 28.232 141.274 28.1156 141.219 27.9866C141.165 27.8576 141.138 27.7189 141.139 27.579C141.102 21.4215 140.847 14.9491 141.529 8.88907H141.537ZM142.872 9.44406C143.562 15.6466 143.292 21.444 143.262 27.579L141.454 26.829C146.577 21.8715 152.412 16.2466 157.399 11.1391L157.174 12.0015L155.052 4.83164L155.742 5.52909C153.327 4.91409 150.934 4.23151 148.527 3.57151L149.562 3.30161C147.402 5.43161 145.212 7.48656 142.872 9.44406Z" fill="#191817"/>
<path d="M146.787 78.9991C149.842 78.3019 152.938 77.8009 156.057 77.4991L155.247 78.0991C156.687 75.0316 158.412 71.6341 159.822 68.5516C160.332 67.4941 160.797 66.4141 161.277 65.3416L162.184 66.5715C157.527 67.2165 152.892 68.0717 148.219 68.6192L149.097 67.9741C148.389 69.5429 147.548 71.0484 146.584 72.4741C146.469 72.6304 146.297 72.7356 146.105 72.7678C145.914 72.8 145.717 72.7566 145.557 72.6466C145.443 72.5614 145.356 72.4458 145.306 72.313C145.255 72.1802 145.243 72.0358 145.272 71.8966C145.486 71.0585 145.751 70.2344 146.067 69.4291C146.367 68.6191 146.704 67.8316 147.049 67.0516C147.125 66.8785 147.244 66.728 147.395 66.6149C147.546 66.5018 147.724 66.4299 147.912 66.4066C152.584 65.7616 157.294 65.4092 161.974 64.8467C162.128 64.83 162.284 64.8543 162.426 64.9174C162.567 64.9804 162.69 65.08 162.781 65.2057C162.871 65.3315 162.927 65.479 162.942 65.6333C162.957 65.7876 162.931 65.9431 162.867 66.0841C162.364 67.1491 161.854 68.2066 161.367 69.2866C160.527 71.1391 159.342 73.8392 158.532 75.7442C158.059 76.8242 157.609 77.9116 157.122 78.9766C157.049 79.1373 156.936 79.2769 156.795 79.382C156.653 79.487 156.487 79.5539 156.312 79.5766C153.217 80.0741 150.093 80.3697 146.959 80.4615C146.797 80.4383 146.647 80.3629 146.532 80.2464C146.417 80.1299 146.343 79.9788 146.322 79.8165C146.301 79.6541 146.333 79.4893 146.414 79.3472C146.496 79.205 146.621 79.0933 146.772 79.0291L146.787 78.9991Z" fill="#191817"/>
<path d="M136.009 80.244L128.097 79.4039C127.955 79.3872 127.819 79.3361 127.702 79.2551C127.584 79.174 127.488 79.0654 127.422 78.9388C126.619 77.3413 125.074 74.1615 124.324 72.5415C123.432 70.689 122.262 68.0415 121.392 66.1215C121.333 65.9981 121.299 65.8642 121.292 65.7276C121.285 65.591 121.306 65.4542 121.353 65.3257C121.4 65.1971 121.472 65.0794 121.565 64.9791C121.658 64.8787 121.77 64.7979 121.894 64.7414C122.072 64.6593 122.27 64.6307 122.464 64.659L136.452 66.6164C136.597 66.6382 136.735 66.6956 136.852 66.7832C136.97 66.8709 137.064 66.9862 137.127 67.119L140.044 73.5464L143.044 79.9439L141.334 80.3114C141.334 67.0514 140.704 48.3614 141.507 35.3114C141.55 35.1525 141.644 35.0122 141.775 34.9122C141.906 34.8122 142.066 34.7581 142.231 34.7581C142.395 34.7581 142.555 34.8122 142.686 34.9122C142.817 35.0122 142.911 35.1525 142.954 35.3114C143.479 42.8114 143.337 50.3114 143.337 57.8114L143.127 80.3114C143.123 80.5137 143.051 80.7087 142.923 80.8651C142.795 81.0215 142.617 81.1303 142.42 81.1736C142.222 81.217 142.016 81.1924 141.834 81.1041C141.652 81.0157 141.505 80.8685 141.417 80.6864L138.522 74.2513L135.522 67.854L136.212 68.3564L122.194 66.7215L123.267 65.2215L124.767 68.424C126.147 71.3715 127.767 75.0839 129.042 78.1064L128.344 77.5965L136.212 78.7739C136.362 78.838 136.488 78.9497 136.569 79.0919C136.65 79.2341 136.683 79.399 136.662 79.5614C136.64 79.7238 136.567 79.8747 136.452 79.9911C136.336 80.1076 136.186 80.1833 136.024 80.2065L136.009 80.244Z" fill="#191817"/>
</svg>
