<svg width="46" height="57" viewBox="0 0 46 57" fill="none" xmlns="http://www.w3.org/2000/svg">
<path d="M31.3204 0L44.7004 17.6L28.5405 18.84L15.1904 1.25L31.3204 0Z" fill="#60BBE3"/>
<path d="M28.52 18.83L29.2 53.37L26.7 56.71L0 21.65L15.19 1.25L28.52 18.82V18.83Z" fill="#011C58"/>
<path d="M42.8502 55.5099L26.7002 56.7099L29.1802 53.3699L45.3102 52.1699L42.8502 55.5099Z" fill="#011C58"/>
<path d="M45.3305 52.1701L29.2005 53.3801L28.5205 18.8401L44.7005 17.6001L45.3505 52.1801L45.3305 52.1701Z" fill="#60BBE3"/>
<path d="M26.5399 1.58979C25.3399 3.20979 27.0199 6.4898 30.2899 8.9198C33.5599 11.3498 37.1899 11.9998 38.3899 10.3898C39.5899 8.77981 37.9199 5.48979 34.6499 3.05979C31.3799 0.629789 27.7499 -0.0302125 26.5399 1.58979Z" fill="#60BBE3"/>
<path d="M35.8705 13.7798C34.6705 15.3998 31.0505 14.7798 27.7705 12.3098C24.4905 9.83984 22.8306 6.59986 24.0306 4.97986L26.5505 1.58984C25.3405 3.20984 27.0206 6.48986 30.2906 8.91986C33.5606 11.3499 37.2005 12.0098 38.3905 10.3998L35.8705 13.7899V13.7798Z" fill="#011C58"/>
</svg>
