<svg width="57" height="54" viewBox="0 0 57 54" fill="none" xmlns="http://www.w3.org/2000/svg">
<path d="M32.6101 0L0.00012207 26L14.5801 30.92L47.1201 4.79L32.6101 0Z" fill="#011C58"/>
<path d="M14.5899 30.9303L-0.000114441 26.0003L9.24989 48.3603L23.7899 53.1703L56.3799 27.1703L47.1199 4.82031L14.5899 30.9303Z" fill="#60BBE3"/>
<path d="M14.5899 30.9301L23.7899 53.1801L56.3799 27.1801L47.1199 4.83008L14.5899 30.9301Z" fill="#60BBE3"/>
<path d="M9.25005 48.37L23.79 53.17L14.59 30.93L4.57764e-05 26L9.25005 48.37Z" fill="#60BBE3"/>
<path d="M20.2997 15.5701C21.0497 17.3901 18.7697 20.0501 15.1997 21.5201C11.6297 22.9901 8.13967 22.7201 7.38967 20.9001C6.63967 19.0801 8.86966 16.4201 12.4897 15.0001C16.1097 13.5801 19.5497 13.7501 20.2997 15.5701Z" fill="#011C58"/>
<path d="M20.3004 15.5703L21.7704 19.1203C22.5204 20.9403 20.2404 23.6003 16.6704 25.0703C13.1004 26.5403 9.61038 26.2703 8.86038 24.4503L7.39038 20.9003C8.14038 22.7203 11.6404 23.0003 15.2004 21.5203C18.7604 20.0403 21.0504 17.3903 20.3004 15.5703Z" fill="#60BBE3"/>
<path d="M36.6795 2.53998C37.4295 4.35998 35.1495 7.01998 31.5795 8.53998C28.0095 10.06 24.5195 9.73998 23.7695 7.91998C23.0195 6.09998 25.3095 3.39998 28.8695 1.92998C32.4295 0.459984 35.9295 0.729984 36.6795 2.53998Z" fill="#011C58"/>
<path d="M38.14 6.09004C38.89 7.91004 36.62 10.57 33.05 12.04C29.48 13.51 25.99 13.24 25.24 11.42L23.77 7.87004C24.52 9.69004 28.02 9.97004 31.58 8.49004C35.14 7.01004 37.43 4.36004 36.68 2.54004L38.14 6.09004Z" fill="#60BBE3"/>
</svg>
