<svg width="84" height="41" viewBox="0 0 84 41" fill="none" xmlns="http://www.w3.org/2000/svg">
<path d="M72.8811 18.9076C68.3811 17.2976 63.3311 19.9676 61.5811 24.8376C59.8311 29.7076 62.0511 34.9676 66.5811 36.5876C71.1111 38.2076 76.1311 35.5276 77.8811 30.6576C79.6311 25.7876 77.3811 20.5276 72.8811 18.9076Z" fill="#011C58"/>
<path d="M72.8808 18.9077L75.5708 19.9077C76.7719 20.3488 77.8551 21.061 78.7362 21.9889C79.6173 22.9168 80.2724 24.0354 80.6508 25.2577C81.3156 27.3453 81.2765 29.5935 80.5394 31.6568C79.8023 33.72 78.408 35.484 76.5708 36.6777C75.4991 37.3779 74.2816 37.8239 73.0112 37.9816C71.7408 38.1393 70.4511 38.0046 69.2408 37.5877L66.5508 36.5877C67.8305 37.0328 69.1993 37.1597 70.5391 36.9576C71.8788 36.7555 73.1493 36.2305 74.2408 35.4277C75.9047 34.2443 77.1665 32.5798 77.8566 30.658C78.5466 28.7363 78.6318 26.6493 78.1008 24.6777C77.7597 23.3666 77.107 22.1573 76.1982 21.1527C75.2893 20.1481 74.1513 19.3779 72.8808 18.9077Z" fill="#60BBE3"/>
<path d="M80.6515 25.2278C81.888 25.9571 82.8315 27.0947 83.3195 28.4448C83.8075 29.7948 83.8094 31.2728 83.325 32.6242C82.8406 33.9755 81.9002 35.1156 80.6656 35.8483C79.4311 36.5809 77.9798 36.8601 76.5615 36.6378C78.3987 35.4441 79.793 33.68 80.5301 31.6168C81.2673 29.5536 81.3064 27.3054 80.6415 25.2178" fill="#011C58"/>
<path d="M58.4711 7.64769L73.5711 22.1077L71.7111 33.9377L66.1711 33.3777L63.4711 30.9477L64.4711 38.8777C64.4956 39.0497 64.48 39.2251 64.4256 39.3901C64.3712 39.5551 64.2795 39.7054 64.1576 39.8293C64.0357 39.9531 63.8869 40.0471 63.7228 40.1041C63.5586 40.1611 63.3835 40.1794 63.2111 40.1577L57.7211 39.6277C57.4594 39.6302 57.2049 39.5419 57.0011 39.3777L42.2911 26.7877L43.5111 33.7877C43.5439 33.9638 43.5347 34.1452 43.4843 34.3171C43.4338 34.489 43.3436 34.6466 43.2209 34.7771C43.0981 34.9077 42.9464 35.0074 42.7779 35.0683C42.6094 35.1292 42.4289 35.1496 42.2511 35.1277L36.7611 34.6077C36.5583 34.5849 36.3652 34.509 36.2011 34.3877L1.53112 9.37768C0.0011183 8.27768 -0.388882 5.69768 0.391118 3.79768C1.02112 2.28768 1.76112 1.49768 2.78112 1.63768L8.27112 2.16768C8.58694 2.20573 8.89249 2.30419 9.17112 2.45769C10.1711 2.99769 22.3711 9.70769 29.9711 13.8977L27.7411 1.37768C27.7052 1.19971 27.7119 1.01576 27.7607 0.840881C27.8095 0.665998 27.899 0.505159 28.0219 0.37152C28.1448 0.237881 28.2976 0.135243 28.4678 0.0720055C28.638 0.00876819 28.8208 -0.0132717 29.0011 0.00768969L34.4311 0.517684H34.5111C34.7566 0.544393 34.9858 0.653692 35.1611 0.827682L52.1011 16.2177L51.0011 8.09769C50.9794 7.92525 50.9966 7.75013 51.0517 7.58527C51.1067 7.4204 51.1981 7.27002 51.319 7.14522C51.44 7.02041 51.5875 6.92438 51.7505 6.86423C51.9136 6.80407 52.0881 6.78133 52.2611 6.79768L57.6811 7.31769H57.7511C58.0119 7.33891 58.2565 7.45236 58.4411 7.63768" fill="#011C58"/>
<path d="M71.7014 33.9477L73.5614 22.1177L58.4814 7.66773C58.3102 7.49632 58.089 7.3839 57.8496 7.34673C57.6103 7.30956 57.3653 7.34958 57.1502 7.46102C56.9352 7.57245 56.7612 7.74949 56.6535 7.96646C56.5458 8.18344 56.5101 8.42906 56.5514 8.66773L58.2014 20.8077C58.2152 20.8928 58.2018 20.98 58.1632 21.057C58.1246 21.134 58.0627 21.1969 57.9863 21.2367C57.9099 21.2766 57.823 21.2914 57.7377 21.279C57.6525 21.2666 57.5733 21.2277 57.5114 21.1677L35.2014 0.857731C35.0283 0.698649 34.8102 0.596981 34.5771 0.566654C34.3439 0.536326 34.1071 0.578828 33.8991 0.688328C33.691 0.797827 33.5219 0.968971 33.4149 1.17832C33.3079 1.38766 33.2683 1.62497 33.3014 1.85773L35.8614 16.3777C35.8745 16.4537 35.866 16.5318 35.8368 16.6031C35.8076 16.6744 35.7589 16.736 35.6962 16.7809C35.6336 16.8258 35.5596 16.8521 35.4827 16.8568C35.4058 16.8616 35.3291 16.8446 35.2614 16.8077C31.0514 14.4877 10.5214 3.16774 9.17139 2.45774C7.82139 1.74774 6.70139 2.45774 5.92139 4.33774C5.14139 6.21774 5.53139 8.80773 7.06139 9.90773L41.7214 34.9077C41.9068 35.0429 42.1283 35.1196 42.3576 35.1279C42.5869 35.1361 42.8135 35.0756 43.0081 34.9541C43.2027 34.8326 43.3565 34.6557 43.4498 34.446C43.5431 34.2364 43.5715 34.0036 43.5314 33.7777L41.8414 24.0577C41.8111 23.8901 41.8339 23.7172 41.9064 23.5631C41.9789 23.4089 42.0977 23.2812 42.2461 23.1976C42.3945 23.1141 42.5653 23.0788 42.7347 23.0967C42.9041 23.1147 43.0637 23.1849 43.1914 23.2977L62.5814 39.8977C62.7554 40.0493 62.9713 40.1445 63.2006 40.1707C63.4299 40.1969 63.6617 40.1529 63.8654 40.0445C64.0691 39.9361 64.2352 39.7685 64.3416 39.5637C64.448 39.359 64.4898 39.1267 64.4614 38.8977L63.1214 28.1677C63.1013 28.0034 63.1314 27.8368 63.2079 27.6899C63.2843 27.543 63.4034 27.4227 63.5495 27.3447C63.6956 27.2668 63.8618 27.2349 64.0264 27.2533C64.1909 27.2717 64.3461 27.3395 64.4714 27.4477L71.7114 33.9177L71.7014 33.9477Z" fill="#60BBE3"/>
</svg>
