<svg width="485" height="80" viewBox="0 0 485 80" fill="none" xmlns="http://www.w3.org/2000/svg">
<g clip-path="url(#clip0_104_1034)">
<path d="M30.9881 45.9792C31.8319 50.7098 31.6181 55.5417 31.9725 60.2892C32.1862 65.0648 33.1819 69.8517 32.7656 74.6104C32.7396 74.73 32.6752 74.8378 32.5824 74.9174C32.4895 74.9971 32.3732 75.0444 32.2511 75.052C32.129 75.0597 32.0077 75.0273 31.9056 74.9597C31.8036 74.8922 31.7263 74.7933 31.6856 74.6779C31.0837 72.3323 31.1231 69.9304 30.9768 67.5342C30.8643 62.7529 30.5944 57.9717 30.1275 53.2186C29.8827 50.8363 29.8094 48.4395 29.9081 46.0467C29.9342 45.9271 29.9985 45.8193 30.0913 45.7396C30.1842 45.6599 30.3005 45.6127 30.4226 45.6051C30.5447 45.5975 30.666 45.6298 30.7681 45.6973C30.8701 45.7648 30.9474 45.8638 30.9881 45.9792Z" fill="#151616"/>
<path d="M30.87 58.8099C32.2189 57.3948 33.4901 55.9076 34.6781 54.355C35.1337 53.8487 35.4712 53.2693 36.2137 53.1174C36.3175 53.0994 36.424 53.1058 36.5249 53.136C36.6258 53.1661 36.7183 53.2192 36.7952 53.2912C36.8721 53.3632 36.9312 53.452 36.9679 53.5507C37.0047 53.6494 37.018 53.7552 37.0069 53.86C36.9056 54.6137 36.3431 54.9849 35.8819 55.4743C34.4038 56.7555 32.9973 58.1169 31.6687 59.5524C31.5636 59.6152 31.4409 59.642 31.3192 59.6287C31.1975 59.6154 31.0834 59.5628 30.9944 59.4788C30.9053 59.3949 30.846 59.284 30.8256 59.1633C30.8052 59.0426 30.8247 58.9185 30.8812 58.8099H30.87Z" fill="#151616"/>
<path d="M31.5111 69.2499C30.1274 68.7211 29.2611 67.5624 28.1361 66.6737C26.9804 65.8412 25.9433 64.8553 25.0536 63.743C24.9632 63.6292 24.9202 63.4848 24.9339 63.3401C24.9475 63.1954 25.0166 63.0616 25.1268 62.9667C25.2146 62.8962 25.3216 62.8536 25.434 62.8446C25.5463 62.8356 25.6588 62.8605 25.7568 62.9161C26.3714 63.2784 26.9666 63.6727 27.5399 64.0974C28.6649 64.9411 29.6268 66.0042 30.7799 66.8424C31.2693 67.3149 32.968 68.5299 31.9724 69.2105C31.9034 69.2486 31.8272 69.2718 31.7487 69.2786C31.6703 69.2854 31.5912 69.2756 31.5168 69.2499H31.5111Z" fill="#151616"/>
<path d="M64.6593 41.5412C64.9181 47.1662 64.0968 52.6843 63.8887 58.2699C63.5231 63.8331 63.9337 69.4749 62.9325 74.9818C62.8944 75.0998 62.8184 75.2019 62.7164 75.2722C62.6143 75.3426 62.4918 75.3773 62.368 75.3708C62.2442 75.3644 62.126 75.3173 62.0318 75.2367C61.9375 75.1562 61.8725 75.0468 61.8468 74.9256C61.4193 69.3456 62.4093 63.7768 62.6175 58.2024C62.9606 52.6281 62.7356 47.0256 63.5737 41.485C63.6118 41.367 63.6878 41.2649 63.7898 41.1945C63.8919 41.1242 64.0143 41.0896 64.1381 41.096C64.2619 41.1024 64.3802 41.1495 64.4744 41.23C64.5687 41.3105 64.6337 41.4199 64.6593 41.5412Z" fill="#151616"/>
<path d="M63.0844 56.5879L58.3706 50.5522" stroke="#151616" stroke-width="1.6875" stroke-linecap="round" stroke-linejoin="round"/>
<path d="M62.4825 67.2247L68.7038 61.4366C68.7872 61.3693 68.8925 61.3348 68.9996 61.3398C69.1067 61.3448 69.2083 61.3888 69.2852 61.4636C69.362 61.5384 69.4088 61.6388 69.4167 61.7457C69.4247 61.8527 69.3931 61.9588 69.3281 62.0441L63.7031 68.406C63.6256 68.4854 63.5331 68.5487 63.4311 68.5924C63.329 68.6361 63.2194 68.6593 63.1084 68.6606C62.9974 68.6619 62.8872 68.6413 62.7842 68.6C62.6811 68.5587 62.5872 68.4976 62.5078 68.42C62.4284 68.3425 62.365 68.25 62.3214 68.148C62.2777 68.0459 62.2545 67.9363 62.2532 67.8253C62.2519 67.7143 62.2725 67.6041 62.3138 67.5011C62.355 67.3981 62.4162 67.3041 62.4937 67.2247H62.4825Z" fill="#151616"/>
<path d="M44.6006 75.5836C42.6037 65.588 40.8656 54.5462 39.2175 44.4493C39.1954 44.327 39.2051 44.2011 39.2456 44.0836C39.8925 42.323 40.5225 40.5343 41.1806 38.8018C42.525 35.3086 43.5937 31.7593 44.7469 28.1986C45.3431 26.6236 45.9393 24.4074 46.6031 22.8211C46.6486 22.723 46.7182 22.638 46.8053 22.5741C46.8925 22.5101 46.9944 22.4692 47.1016 22.4551C47.2088 22.4411 47.3178 22.4544 47.4185 22.4938C47.5192 22.5332 47.6083 22.5974 47.6775 22.6805C48.6169 23.8617 49.0444 25.1218 49.8094 26.3649L55.9969 37.148C56.0687 37.2742 56.0982 37.4201 56.0812 37.5643C55.5187 43.1893 54.3937 51.2274 54 56.7792C53.6175 63.158 52.47 69.7167 51.6544 76.0449L50.8669 75.1561C53.7075 75.2011 56.5481 75.2686 59.3944 75.4092C59.5135 75.4416 59.6187 75.5123 59.6937 75.6104C59.7687 75.7085 59.8093 75.8286 59.8093 75.9521C59.8093 76.0756 59.7687 76.1956 59.6937 76.2937C59.6187 76.3918 59.5135 76.4625 59.3944 76.4949C56.5481 76.6355 53.7075 76.703 50.8669 76.748C50.7541 76.7488 50.6426 76.7256 50.5395 76.6799C50.4365 76.6342 50.3444 76.5671 50.2693 76.483C50.1943 76.3989 50.138 76.2998 50.1043 76.1922C50.0705 76.0847 50.0601 75.9712 50.0737 75.8593C50.7487 69.5593 51.9469 62.9836 52.38 56.6724C52.8469 51.0193 54.0956 43.0993 54.7369 37.4068L54.8212 37.8174C53.4825 35.4605 49.9894 29.2786 48.69 26.9949C47.9981 25.8699 47.4637 24.4918 46.6762 23.5074L47.7562 23.3612C47.4165 24.205 47.1236 25.0669 46.8787 25.943C46.5469 26.9218 45.8437 28.9692 45.5512 29.9142C44.1731 34.8699 42.3506 39.7186 40.6631 44.5392L40.6912 44.1737C41.9231 51.413 43.4419 60.3399 44.5331 67.5568C44.9269 70.1611 45.3094 72.7655 45.6581 75.3811C45.6443 75.503 45.5911 75.6169 45.5065 75.7057C45.422 75.7945 45.3108 75.8533 45.1898 75.873C45.0688 75.8927 44.9446 75.8724 44.8362 75.8151C44.7278 75.7578 44.6412 75.6666 44.5894 75.5555L44.6006 75.5836Z" fill="#151616"/>
<path d="M47.3568 76.4448C46.6874 67.5461 47.0587 58.6304 46.8843 49.7204C46.7718 43.0379 46.4793 36.3611 46.4006 29.6786C46.3491 27.4471 46.4186 25.2144 46.6087 22.9904C46.6428 22.8736 46.7138 22.7709 46.8112 22.6979C46.9086 22.6249 47.027 22.5854 47.1487 22.5854C47.2704 22.5854 47.3888 22.6249 47.4862 22.6979C47.5835 22.7709 47.6546 22.8736 47.6887 22.9904C48.2062 27.4286 48.0881 31.8892 48.1387 36.3498C48.0824 45.2598 48.1949 54.1679 48.4762 63.0742C48.5606 67.5292 48.6843 71.9842 48.4424 76.4392C48.41 76.5584 48.3393 76.6635 48.2412 76.7385C48.1431 76.8135 48.0231 76.8541 47.8996 76.8541C47.7761 76.8541 47.6561 76.8135 47.558 76.7385C47.4599 76.6635 47.3892 76.5584 47.3568 76.4392V76.4448Z" fill="#151616"/>
<path d="M55.0125 37.8906L47.9025 44.8769" stroke="#151616" stroke-width="1.6875" stroke-linecap="round" stroke-linejoin="round"/>
<path d="M47.8237 49.7083L54.27 44.0327" stroke="#151616" stroke-width="1.6875" stroke-linecap="round" stroke-linejoin="round"/>
<path d="M47.2837 60.1146L41.8105 54.439" stroke="#151616" stroke-width="1.6875" stroke-linecap="round" stroke-linejoin="round"/>
<path d="M133.357 76.883L123.519 76.928C123.442 76.9283 123.366 76.9117 123.296 76.8793C123.226 76.847 123.163 76.7996 123.113 76.7406C123.064 76.6817 123.027 76.6125 123.007 76.5379C122.987 76.4634 122.983 76.3854 122.996 76.3093C123.446 73.5812 123.486 70.7405 124.087 67.9055C124.774 65.1268 125.308 62.4774 125.724 59.6536V59.918L122.406 48.1899L122.889 48.6624L115.301 46.8005L116.156 46.2718L112.905 60.8968V60.5311L117.906 76.1911C117.94 76.2991 117.949 76.4138 117.931 76.5257C117.912 76.6376 117.868 76.7437 117.801 76.8353C117.734 76.9268 117.647 77.0013 117.546 77.0526C117.445 77.1039 117.333 77.1306 117.219 77.1305L101.317 77.1755C101.194 77.1758 101.072 77.1463 100.963 77.0895C100.853 77.0326 100.759 76.9501 100.688 76.849C100.618 76.7479 100.573 76.6311 100.557 76.5088C100.541 76.3864 100.555 76.2619 100.597 76.1461L111.004 47.3405L110.959 47.6837L109.029 25.6561L110.047 26.3874L102.009 28.328L102.572 27.8949L94.8319 43.223L94.9219 42.8011C95.0456 45.6136 95.1975 48.4261 95.2931 51.1936C95.5687 59.018 96.0019 68.5637 96.4462 76.3712C96.4525 76.4487 96.4425 76.5267 96.417 76.6002C96.3916 76.6737 96.3511 76.7412 96.2983 76.7983C96.2454 76.8554 96.1813 76.9009 96.1099 76.9319C96.0386 76.963 95.9615 76.9789 95.8837 76.9786H89.4206C89.3412 76.9791 89.2626 76.9628 89.19 76.9308C89.1174 76.8987 89.0524 76.8516 88.9993 76.7926C88.9461 76.7336 88.9061 76.6641 88.8818 76.5885C88.8574 76.513 88.8494 76.4332 88.8581 76.3543C88.8581 76.4386 92.5537 23.5636 92.565 24.368L87.5418 0.782402H88.8075L80.4487 36.2818C80.3925 34.9993 85.7756 76.1405 85.77 75.8424C85.7827 75.9445 85.7736 76.0481 85.7433 76.1464C85.7129 76.2447 85.662 76.3355 85.594 76.4126C85.5259 76.4898 85.4421 76.5515 85.3484 76.5938C85.2546 76.6361 85.1529 76.658 85.05 76.658H65.925C65.8128 76.6578 65.7021 76.6321 65.6013 76.5829C65.5004 76.5337 65.412 76.4623 65.3427 76.3741C65.2735 76.2859 65.2251 76.1831 65.2012 76.0734C65.1773 75.9638 65.1786 75.8502 65.205 75.7412L69.705 57.443V57.758L66.5831 40.6805L67.4887 41.243L60.12 43.4311L60.5925 42.9249C59.9512 45.6474 58.3087 52.6055 57.69 55.238C57.6169 55.5024 57.42 56.4024 57.3637 56.6442C57.6197 58.1802 57.7868 59.7297 57.8644 61.2849C58.32 66.1842 59.2931 70.9768 59.9569 75.8649C59.9654 75.928 59.9613 75.9923 59.945 76.0539C59.9287 76.1155 59.9004 76.1733 59.8617 76.2239C59.8231 76.2746 59.7748 76.3171 59.7197 76.3491C59.6646 76.3811 59.6038 76.402 59.5406 76.4105C59.413 76.4277 59.2839 76.3935 59.1816 76.3154C59.0793 76.2373 59.0121 76.1218 58.995 75.9943C58.365 71.8486 57.4987 67.6918 56.9306 63.5124C56.6662 61.898 56.5706 59.8955 56.3681 58.2699C56.3681 57.6005 55.9856 56.948 56.1656 56.2336C56.3625 55.3843 57.1781 51.7336 57.3862 50.8393L59.2481 42.6155C59.2738 42.4963 59.3313 42.3863 59.4145 42.2972C59.4977 42.2081 59.6035 42.1431 59.7206 42.1093L67.0781 39.8593C67.2594 39.805 67.4547 39.8249 67.6213 39.9145C67.788 40.0042 67.9122 40.1562 67.9669 40.3374C67.9331 40.3374 71.19 57.4317 71.1675 57.4824C71.1872 57.5845 71.1872 57.6896 71.1675 57.7918L66.6675 76.0899L65.9475 75.173H85.0725L84.3581 75.9886L79.1268 36.1749C79.0537 35.9386 87.5643 0.692416 87.5643 0.444916C87.5951 0.299874 87.6747 0.169799 87.7899 0.0764618C87.9051 -0.0168759 88.0489 -0.0678711 88.1972 -0.0678711C88.3454 -0.0678711 88.4892 -0.0168759 88.6044 0.0764618C88.7196 0.169799 88.7992 0.299874 88.83 0.444916L93.8081 24.0699C93.8812 24.1205 90.0112 76.3037 90.0281 76.3824L89.4656 75.7636H95.8837L95.3212 76.3655L94.8712 67.9786C94.4268 59.9124 93.7462 50.8843 93.2737 42.8236C93.2641 42.678 93.2933 42.5325 93.3581 42.4018L101.098 27.0736C101.155 26.9651 101.235 26.8702 101.332 26.7955C101.429 26.7207 101.541 26.6679 101.661 26.6405L109.699 24.7111C109.911 24.6602 110.135 24.6956 110.322 24.8094C110.508 24.9233 110.642 25.1064 110.694 25.3186C110.751 25.3861 112.601 47.3799 112.635 47.4699C112.641 47.5883 112.624 47.7068 112.584 47.8186L102.099 76.5962L101.379 75.5667L117.281 75.6174L116.589 76.5568L111.628 60.8855C111.594 60.766 111.594 60.6394 111.628 60.5199L114.868 45.8949C114.889 45.8028 114.927 45.7157 114.982 45.6388C115.036 45.5618 115.106 45.4965 115.186 45.4468C115.266 45.397 115.356 45.3637 115.449 45.3489C115.542 45.3341 115.637 45.3381 115.729 45.3605L123.306 47.2842C123.421 47.3135 123.526 47.3726 123.611 47.4556C123.696 47.5385 123.757 47.6424 123.789 47.7568L126.996 59.5186C126.894 61.0036 126.512 62.4549 126.27 63.9624C125.977 65.3686 125.584 66.7299 125.286 68.0799C124.684 70.7574 124.611 73.5868 124.121 76.4161L123.598 75.7918L133.436 75.8424C133.565 75.8424 133.688 75.8934 133.778 75.9841C133.869 76.0748 133.92 76.1978 133.92 76.3261C133.92 76.4544 133.869 76.5775 133.778 76.6682C133.688 76.7589 133.565 76.8099 133.436 76.8099L133.357 76.883Z" fill="#151616"/>
<path d="M119.216 46.8791C120.06 51.6097 119.846 56.4416 120.195 61.1891C120.414 65.9647 121.41 70.7234 120.994 75.5103C120.97 75.6321 120.906 75.7425 120.812 75.8242C120.719 75.9059 120.601 75.9544 120.477 75.9621C120.353 75.9698 120.23 75.9363 120.127 75.8668C120.024 75.7973 119.947 75.6957 119.908 75.5778C119.312 73.2322 119.346 70.836 119.205 68.4397C119.093 63.6528 118.817 58.8772 118.35 54.1184C118.108 51.736 118.035 49.3394 118.131 46.9466C118.155 46.8248 118.219 46.7144 118.312 46.6327C118.406 46.551 118.524 46.5024 118.647 46.4947C118.771 46.487 118.894 46.5205 118.997 46.59C119.1 46.6596 119.177 46.7612 119.216 46.8791Z" fill="#151616"/>
<path d="M119.093 59.7096C120.443 58.2945 121.716 56.8073 122.906 55.2546C123.362 54.7483 123.699 54.169 124.442 54.0227C124.546 54.0033 124.652 54.0086 124.754 54.0383C124.855 54.0679 124.948 54.1212 125.025 54.1936C125.101 54.266 125.16 54.3555 125.196 54.4548C125.231 54.5542 125.243 54.6605 125.229 54.7652C125.128 55.5133 124.571 55.8902 124.104 56.3739C122.629 57.6566 121.225 59.0179 119.897 60.4521C119.792 60.5174 119.668 60.5462 119.545 60.5341C119.422 60.5219 119.306 60.4694 119.216 60.3848C119.125 60.3003 119.065 60.1883 119.045 60.0662C119.025 59.9442 119.046 59.8188 119.104 59.7096H119.093Z" fill="#151616"/>
<path d="M119.717 70.1493C118.333 69.6205 117.467 68.4618 116.342 67.5731C115.183 66.7437 114.146 65.7575 113.259 64.6425C113.169 64.5287 113.126 64.3843 113.14 64.2396C113.153 64.0949 113.222 63.9611 113.332 63.8662C113.42 63.7956 113.527 63.753 113.64 63.744C113.752 63.735 113.864 63.7599 113.962 63.8155C114.591 64.1856 115.197 64.5913 115.779 65.0306C116.904 65.8687 117.872 66.9318 119.025 67.7699C119.509 68.2424 121.207 69.4574 120.217 70.138C120.148 70.1761 120.072 70.1994 119.994 70.2062C119.915 70.2129 119.836 70.2032 119.762 70.1775L119.717 70.1493Z" fill="#151616"/>
<path d="M152.904 42.4407C153.169 48.0657 152.342 53.5894 152.139 59.1694C151.768 64.7382 152.179 70.3745 151.183 75.887C151.145 76.005 151.069 76.107 150.967 76.1774C150.865 76.2477 150.743 76.2824 150.619 76.276C150.495 76.2696 150.377 76.2224 150.283 76.1419C150.188 76.0614 150.123 75.952 150.098 75.8307C149.67 70.2451 150.66 64.6763 150.868 59.102C151.211 53.5276 150.986 47.9251 151.824 42.3845C151.864 42.2689 151.94 42.1695 152.042 42.1012C152.143 42.0328 152.264 41.9993 152.386 42.0056C152.508 42.012 152.624 42.0579 152.718 42.1364C152.811 42.2149 152.877 42.3217 152.904 42.4407Z" fill="#151616"/>
<path d="M151.307 57.488L146.593 51.458" stroke="#151616" stroke-width="1.6875" stroke-linecap="round" stroke-linejoin="round"/>
<path d="M150.71 68.1303L156.932 62.3365C157.015 62.2692 157.12 62.2347 157.228 62.2397C157.335 62.2447 157.436 62.2888 157.513 62.3635C157.59 62.4383 157.637 62.5387 157.645 62.6456C157.653 62.7526 157.621 62.8587 157.556 62.944L151.931 69.3059C151.857 69.395 151.764 69.4677 151.66 69.5195C151.556 69.5713 151.443 69.6009 151.326 69.6068C151.21 69.6126 151.094 69.5943 150.986 69.5532C150.877 69.5121 150.778 69.4489 150.695 69.3677C150.612 69.2865 150.546 69.189 150.502 69.0813C150.459 68.9736 150.438 68.858 150.441 68.7419C150.444 68.6257 150.471 68.5114 150.52 68.4062C150.57 68.3009 150.64 68.207 150.727 68.1303H150.71Z" fill="#151616"/>
<path d="M135.579 77.3445C134.916 68.4457 135.287 59.5301 135.113 50.6201C135 43.9376 134.708 37.2607 134.623 30.5782C134.577 28.3468 134.647 26.1144 134.831 23.8901C134.864 23.7709 134.934 23.6657 135.032 23.5907C135.131 23.5157 135.251 23.4751 135.374 23.4751C135.498 23.4751 135.618 23.5157 135.716 23.5907C135.814 23.6657 135.884 23.7709 135.917 23.8901C136.434 28.3282 136.316 32.7889 136.361 37.2495C136.305 46.1595 136.419 55.0676 136.704 63.9739C136.789 68.4289 136.913 72.8839 136.665 77.3389C136.633 77.458 136.562 77.5632 136.464 77.6382C136.366 77.7132 136.246 77.7539 136.122 77.7539C135.999 77.7539 135.879 77.7132 135.781 77.6382C135.682 77.5632 135.612 77.458 135.579 77.3389V77.3445Z" fill="#151616"/>
<path d="M143.241 38.79L136.131 45.7763" stroke="#151616" stroke-width="1.6875" stroke-linecap="round" stroke-linejoin="round"/>
<path d="M136.052 50.6144L142.492 44.9331" stroke="#151616" stroke-width="1.6875" stroke-linecap="round" stroke-linejoin="round"/>
<path d="M135.512 61.015L130.039 55.3394" stroke="#151616" stroke-width="1.6875" stroke-linecap="round" stroke-linejoin="round"/>
<path d="M233.55 42.7503C233.814 48.3472 232.987 53.8991 232.785 59.4791C232.419 65.0478 232.824 70.6841 231.829 76.1966C231.791 76.3145 231.715 76.4167 231.613 76.487C231.511 76.5574 231.388 76.592 231.264 76.5856C231.14 76.5792 231.022 76.532 230.928 76.4515C230.834 76.371 230.769 76.2616 230.743 76.1403C230.316 70.5547 231.306 64.9916 231.514 59.4116C231.857 53.8372 231.632 48.2347 232.47 42.6941C232.51 42.5786 232.586 42.4791 232.687 42.4107C232.788 42.3424 232.909 42.3089 233.031 42.3152C233.153 42.3216 233.27 42.3675 233.363 42.446C233.457 42.5245 233.522 42.6313 233.55 42.7503Z" fill="#151616"/>
<path d="M231.975 57.8027L227.261 51.7671" stroke="#151616" stroke-width="1.6875" stroke-linecap="round" stroke-linejoin="round"/>
<path d="M231.379 68.4403L237.6 62.6465C237.683 62.5792 237.789 62.5448 237.896 62.5498C238.003 62.5548 238.105 62.5988 238.181 62.6736C238.258 62.7484 238.305 62.8487 238.313 62.9557C238.321 63.0626 238.289 63.1687 238.224 63.254L232.599 69.6159C232.525 69.705 232.432 69.7777 232.328 69.8295C232.224 69.8812 232.111 69.911 231.995 69.9168C231.879 69.9226 231.763 69.9044 231.654 69.8633C231.545 69.8221 231.446 69.7589 231.363 69.6777C231.28 69.5965 231.214 69.499 231.171 69.3913C231.127 69.2836 231.106 69.1681 231.109 69.0519C231.112 68.9357 231.139 68.8214 231.188 68.7161C231.238 68.6109 231.308 68.517 231.396 68.4403H231.379Z" fill="#151616"/>
<path d="M246.583 77.6483H234.771C234.636 77.6483 234.507 77.5949 234.413 77.5C234.318 77.405 234.264 77.2763 234.264 77.142C234.264 77.0239 238.714 58.8383 238.725 58.7145V58.9452L235.536 41.8789L236.278 42.3345L228.921 44.5845L229.331 44.1458L227.452 52.3639C227.261 53.3651 226.401 56.8639 226.221 57.7582C226.131 58.0732 226.344 58.4276 226.367 58.827C226.468 59.592 226.552 60.717 226.642 61.4876C227.081 66.7357 228.212 71.8489 228.965 77.0745C228.979 77.1696 228.972 77.2665 228.945 77.3587C228.918 77.4509 228.872 77.5362 228.809 77.6088C228.746 77.6814 228.668 77.7396 228.58 77.7794C228.493 77.8192 228.398 77.8397 228.302 77.8395H221.884C221.706 77.8397 221.536 77.7713 221.408 77.6486C221.28 77.5259 221.205 77.3585 221.197 77.1814C221.107 77.3051 219.021 24.3064 219.043 25.2064L211.359 1.62078L212.743 1.49142L208.417 36.9908C208.271 35.5902 218.222 76.8383 218.227 76.512C218.257 76.6301 218.26 76.7535 218.235 76.8727C218.21 76.992 218.158 77.1039 218.083 77.2C218.008 77.2961 217.912 77.3738 217.803 77.4271C217.693 77.4805 217.573 77.508 217.451 77.5077H203.557C203.434 77.5062 203.312 77.4768 203.201 77.4216C203.09 77.3664 202.993 77.2868 202.918 77.1889C202.842 77.091 202.789 76.9772 202.764 76.8561C202.738 76.735 202.74 76.6097 202.77 76.4895C204.024 71.6914 205.549 67.0339 206.623 62.202C206.899 60.9589 207.225 59.2095 207.54 57.9833L207.703 57.4995C207.725 57.4395 207.74 57.3773 207.748 57.3139C207.377 54.0402 206.572 46.9864 206.196 43.6339L206.758 44.3314L199.654 42.1264L200.7 41.5639L195.542 58.6414V58.2927L196.701 67.4389L197.826 76.5964C197.841 76.7091 197.832 76.8239 197.799 76.9327C197.765 77.0415 197.709 77.1417 197.633 77.2263C197.557 77.3109 197.463 77.3779 197.358 77.4226C197.254 77.4673 197.141 77.4887 197.027 77.4852L184.882 77.0464C184.704 77.0405 184.536 76.9645 184.414 76.8349C184.291 76.7053 184.225 76.5326 184.23 76.3545C184.237 76.2698 184.256 76.1865 184.286 76.107L187.768 68.3051L191.211 60.4864L191.166 60.7733L189.63 46.1483L190.339 46.6489L182.537 48.5445L182.936 48.1957L178.335 59.9689L178.374 59.7214C178.453 61.0996 178.504 62.5339 178.599 63.8671C178.695 65.2002 178.948 66.5839 179.089 67.9958C179.364 70.8477 179.089 73.6208 179.229 76.3602C179.235 76.4414 179.223 76.5229 179.196 76.5996C179.168 76.6762 179.125 76.7464 179.069 76.8056C179.013 76.8648 178.945 76.9117 178.87 76.9435C178.795 76.9752 178.714 76.9911 178.633 76.9902H168.795C168.715 76.9909 168.637 76.9758 168.563 76.9459C168.489 76.916 168.422 76.8718 168.366 76.8159C168.309 76.7599 168.264 76.6933 168.234 76.6199C168.203 76.5465 168.187 76.4678 168.187 76.3882C168.12 76.3039 177.041 45.1583 177.036 45.0458V45.3495C176.608 43.5945 176.214 41.8508 175.759 40.0789C174.634 35.7195 173.931 31.152 172.896 26.7589C172.759 25.8917 172.571 25.0333 172.333 24.1883L173.402 24.4246C172.491 25.4258 171.799 26.8152 170.977 27.9345L163.541 38.7402L163.654 38.3745V47.937C163.654 51.1039 163.789 54.3045 163.614 57.4995C163.271 63.8108 163.659 70.1614 163.676 76.5458C163.678 76.7214 163.61 76.8906 163.488 77.0169C163.366 77.1431 163.199 77.2164 163.024 77.2208L154.142 77.5245C154.037 77.5264 153.934 77.5045 153.839 77.4602C153.744 77.416 153.661 77.3507 153.595 77.2693C153.529 77.1879 153.483 77.0925 153.46 76.9905C153.437 76.8885 153.437 76.7826 153.461 76.6808L157.933 58.377V58.6695L154.766 41.5976L155.661 42.1601L148.297 44.3708L148.787 43.8533C148.033 47.1383 146.452 53.9783 145.716 57.207L145.654 57.4602V57.5726C145.663 57.692 145.682 57.8105 145.71 57.927C145.759 58.1122 145.799 58.3 145.828 58.4895C146.042 60.3795 146.166 62.3764 146.424 64.2608C146.987 68.4458 147.791 72.5464 148.399 76.7482C148.412 76.8518 148.404 76.9571 148.373 77.057C148.343 77.157 148.292 77.2494 148.223 77.3281C148.155 77.4068 148.07 77.47 147.975 77.5136C147.881 77.5571 147.777 77.5801 147.673 77.5808H139.106C138.911 77.5808 138.723 77.5031 138.585 77.3649C138.447 77.2267 138.369 77.0393 138.369 76.8439C139.112 70.3695 140.276 63.9851 140.681 57.567C140.872 54.3045 141.379 51.0871 141.806 47.9033L142.965 38.2901L143.055 38.7289C141.778 36.4789 138.161 30.1395 136.907 27.912C136.221 26.787 135.697 25.4033 134.91 24.4189L136.035 24.2614C135.472 25.6283 134.786 28.0302 134.241 29.4871C133.971 30.2352 133.627 31.377 133.397 32.1533C132.058 36.6533 130.354 41.0183 128.796 45.417C130.005 51.4302 132.609 69.0421 133.858 76.3096C133.867 76.43 133.831 76.5494 133.756 76.6444C133.681 76.7393 133.574 76.8029 133.455 76.8226C133.336 76.8424 133.213 76.8168 133.112 76.751C133.011 76.6852 132.938 76.5839 132.907 76.467C131.614 68.5526 128.728 52.932 127.614 45.012C129.302 40.1633 131.147 35.3764 132.542 30.432C132.829 29.487 133.571 27.3889 133.881 26.427C134.141 25.5009 134.452 24.5901 134.814 23.6989C134.863 23.5977 134.936 23.5102 135.028 23.4442C135.119 23.3782 135.225 23.3357 135.336 23.3207C135.447 23.3057 135.561 23.3184 135.666 23.3579C135.771 23.3974 135.865 23.4624 135.939 23.547C136.884 24.7283 137.317 25.9827 138.088 27.2258C139.359 29.4252 142.948 35.7195 144.276 38.0201C144.352 38.153 144.383 38.3068 144.366 38.4589C143.865 44.1177 142.543 52.1052 142.183 57.6627C141.756 64.1708 140.597 70.5495 139.837 76.9283L139.106 76.1014H147.634L146.908 76.9395C146.098 71.3989 144.934 65.8301 144.512 60.222C144.469 59.5502 144.386 58.8816 144.264 58.2195C144.182 57.9097 144.161 57.5868 144.202 57.2689C144.242 57.0495 144.484 56.0877 144.534 55.8402L145.485 51.7283L147.386 43.5158C147.416 43.3945 147.477 43.283 147.562 43.1923C147.648 43.1016 147.756 43.0347 147.876 42.9982L155.239 40.7933C155.335 40.7648 155.435 40.7571 155.534 40.7707C155.633 40.7843 155.728 40.8189 155.813 40.8721C155.898 40.9254 155.97 40.996 156.025 41.0794C156.08 41.1628 156.117 41.2571 156.133 41.3558L159.277 58.4277C159.297 58.5241 159.297 58.6237 159.277 58.7202L154.777 77.0127L154.091 76.1746L162.979 75.8877L162.326 76.5627C162.326 70.2289 161.927 63.8445 162.287 57.4376C162.461 54.2989 162.354 51.132 162.332 47.937V38.3745C162.334 38.2427 162.373 38.114 162.444 38.0032C164.081 35.6407 168.311 29.4926 169.897 27.2033C170.803 25.977 171.394 24.7001 172.457 23.5414C172.533 23.4622 172.628 23.4039 172.733 23.3721C172.839 23.3403 172.95 23.336 173.057 23.3597C173.165 23.3834 173.264 23.4344 173.346 23.5075C173.428 23.5807 173.49 23.6737 173.526 23.7777C173.786 24.6735 173.991 25.5846 174.139 26.5058L174.701 29.1664C175.421 32.7045 176.034 36.2764 176.951 39.7751C177.356 41.6145 177.975 43.5045 178.222 45.4001C178.222 45.4001 169.369 76.5739 169.357 76.5795L168.795 75.8089H178.633L178.037 76.4389C177.896 73.6264 178.172 70.8139 177.907 68.1308C177.491 65.2898 177.267 62.4239 177.238 59.5527L181.89 47.8077C181.926 47.722 181.981 47.6459 182.051 47.5854C182.121 47.5248 182.205 47.4815 182.295 47.4589L190.102 45.5689C190.182 45.5471 190.266 45.5433 190.348 45.5577C190.43 45.572 190.507 45.6044 190.575 45.6522C190.642 45.7 190.699 45.7622 190.74 45.8344C190.781 45.9065 190.805 45.9869 190.811 46.0695L192.33 60.6945C192.338 60.7906 192.322 60.8871 192.285 60.9758L188.91 68.8508L185.535 76.7258L184.967 75.7189L197.111 75.9158L196.307 76.8046L195.092 67.6751L193.922 58.5289C193.905 58.4101 193.915 58.2892 193.95 58.1746L199.125 41.1083C199.156 41.0027 199.207 40.9044 199.277 40.8188C199.346 40.7333 199.431 40.6623 199.528 40.61C199.625 40.5577 199.731 40.5251 199.84 40.5141C199.95 40.5031 200.06 40.5138 200.166 40.5458L207.27 42.762C207.421 42.812 207.554 42.9043 207.654 43.028C207.754 43.1517 207.816 43.3015 207.832 43.4595C208.147 46.272 208.957 53.3876 209.256 56.0933C209.256 56.3239 209.396 57.2182 209.385 57.4039C209.342 57.791 209.243 58.1699 209.092 58.5289C209.031 58.7314 208.929 59.2433 208.873 59.4908C208.237 62.5789 207.495 65.7514 206.623 68.7833C205.864 71.5171 205.037 74.2114 204.334 76.9227L203.552 75.9101H217.446L216.664 76.9058C216.664 76.6301 206.826 37.0751 206.91 36.8107L211.32 1.32264C211.331 1.2298 211.36 1.14006 211.406 1.05863C211.452 0.977194 211.514 0.905684 211.588 0.848169C211.661 0.790655 211.746 0.748305 211.836 0.723543C211.926 0.698782 212.02 0.692109 212.113 0.703905C212.248 0.719091 212.375 0.77279 212.48 0.858606C212.584 0.944423 212.662 1.0587 212.704 1.18765L220.404 24.7845C220.629 24.8464 222.457 77.0239 222.592 77.1364L221.912 76.4783H228.33L227.666 77.2376C226.862 71.7026 225.709 66.1339 225.298 60.5258C225.264 60.1658 225.174 59.322 225.146 58.9789C225.048 58.6107 224.986 58.234 224.961 57.8539C224.994 57.4151 225.231 56.6108 225.321 56.1664C225.945 53.5339 227.571 46.5701 228.189 43.8533C228.212 43.7501 228.262 43.655 228.335 43.5778C228.407 43.5006 228.498 43.4442 228.6 43.4145L235.969 41.2208C236.047 41.1934 236.13 41.1836 236.213 41.1922C236.295 41.2009 236.375 41.2276 236.446 41.2706C236.517 41.3137 236.578 41.3718 236.623 41.441C236.669 41.5102 236.699 41.5886 236.711 41.6708L239.833 58.7482C239.847 58.8245 239.847 58.9027 239.833 58.9789L235.333 77.2658L234.838 76.6414H246.651C246.779 76.6414 246.902 76.6923 246.993 76.7831C247.083 76.8738 247.134 76.9968 247.134 77.1252C247.134 77.2534 247.083 77.3765 246.993 77.4672C246.902 77.558 246.779 77.6089 246.651 77.6089L246.583 77.6483Z" fill="#151616"/>
<path d="M187.487 47.0311C187.172 51.8968 185.799 56.5936 185.006 61.3636C184.067 66.1224 183.881 71.0499 182.34 75.6624C182.287 75.7741 182.199 75.8652 182.089 75.9218C181.979 75.9783 181.854 75.9972 181.732 75.9755C181.611 75.9537 181.5 75.8925 181.417 75.8014C181.333 75.7102 181.282 75.5942 181.271 75.4712C181.271 73.0187 181.834 70.6562 182.301 68.2712C183.343 63.5274 184.213 58.7574 184.911 53.9611C185.245 51.5548 185.748 49.1752 186.418 46.8399C186.471 46.7283 186.559 46.6371 186.669 46.5805C186.779 46.5239 186.904 46.5051 187.026 46.5269C187.147 46.5486 187.258 46.6098 187.342 46.7009C187.425 46.7921 187.476 46.9081 187.487 47.0311Z" fill="#151616"/>
<path d="M184.168 60.4243C183.004 58.9907 181.761 57.6235 180.444 56.3292C180.028 55.8455 179.516 55.4629 179.488 54.7373C179.486 54.6327 179.507 54.529 179.551 54.4339C179.594 54.3388 179.659 54.2547 179.739 54.1881C179.82 54.1215 179.915 54.0741 180.016 54.0494C180.118 54.0247 180.224 54.0233 180.326 54.0455C181.035 54.2142 181.311 54.7879 181.704 55.2942C182.72 56.8367 183.822 58.3203 185.006 59.7379C185.055 59.8504 185.067 59.9758 185.038 60.0951C185.009 60.2145 184.942 60.3211 184.847 60.3988C184.752 60.4766 184.635 60.5212 184.512 60.5257C184.389 60.5303 184.269 60.4947 184.168 60.4243Z" fill="#151616"/>
<path d="M182.514 69.3059C183.386 68.0121 184.764 67.3428 185.934 66.3753C187.049 65.3606 188.291 64.4963 189.63 63.8046C189.758 63.7391 189.907 63.7254 190.045 63.7662C190.183 63.807 190.3 63.8993 190.372 64.024C190.426 64.1254 190.446 64.2406 190.432 64.3541C190.418 64.4677 190.37 64.5743 190.294 64.6596C188.797 66.3865 186.851 67.5453 185.124 69.0022C184.562 69.379 182.942 70.8921 182.458 69.7783C182.435 69.6999 182.428 69.6175 182.438 69.5363C182.447 69.4551 182.473 69.3767 182.514 69.3059Z" fill="#151616"/>
<path d="M203.445 42.3118C203.625 47.9368 202.747 53.4605 202.432 59.0405C201.982 64.6093 202.309 70.2568 201.234 75.758C201.195 75.8758 201.117 75.9773 201.014 76.0464C200.911 76.1155 200.787 76.1485 200.663 76.1401C200.539 76.1318 200.422 76.0825 200.328 76.0002C200.235 75.9178 200.172 75.807 200.149 75.6849C199.806 70.0599 200.874 64.5361 201.161 58.9561C201.589 53.3818 201.442 47.7737 202.359 42.2443C202.398 42.1264 202.475 42.0248 202.578 41.9553C202.681 41.8858 202.804 41.8523 202.928 41.86C203.052 41.8677 203.17 41.9162 203.263 41.9979C203.357 42.0797 203.421 42.19 203.445 42.3118Z" fill="#151616"/>
<path d="M202.157 57.353L207.579 51.3174" stroke="#151616" stroke-width="1.6875" stroke-linecap="round" stroke-linejoin="round"/>
<path d="M200.194 69.1316L195.289 62.781C195.231 62.6915 195.208 62.584 195.223 62.4787C195.239 62.3734 195.293 62.2774 195.374 62.2086C195.455 62.1397 195.558 62.1027 195.665 62.1046C195.771 62.1064 195.874 62.1469 195.952 62.2185L201.476 68.0291C201.55 68.1133 201.607 68.2113 201.643 68.3173C201.679 68.4234 201.693 68.5355 201.686 68.6473C201.679 68.759 201.649 68.8683 201.6 68.9687C201.55 69.0692 201.482 69.159 201.397 69.2328C201.313 69.3067 201.215 69.3633 201.109 69.3993C201.003 69.4353 200.891 69.4501 200.779 69.4428C200.667 69.4355 200.558 69.4062 200.458 69.3567C200.357 69.3072 200.267 69.2383 200.194 69.1541V69.1316Z" fill="#151616"/>
<path d="M165.381 77.2655C166.022 68.2655 167.687 59.4455 168.812 50.5298C169.667 43.8417 170.353 37.1368 171.247 30.4543C171.525 28.223 171.917 26.0075 172.423 23.8167C172.46 23.6779 172.549 23.5587 172.672 23.4834C172.794 23.408 172.941 23.3824 173.081 23.4117C173.204 23.4447 173.312 23.5183 173.387 23.6204C173.463 23.7226 173.502 23.8473 173.497 23.9742C173.362 28.4742 172.597 32.9123 171.996 37.3673C170.638 46.2548 169.453 55.163 168.441 64.0917C167.878 68.5467 167.349 73.013 166.455 77.423C166.407 77.536 166.323 77.6301 166.217 77.6911C166.11 77.752 165.986 77.7764 165.864 77.7604C165.743 77.7445 165.629 77.6891 165.542 77.6028C165.455 77.5164 165.398 77.4039 165.381 77.2824V77.2655Z" fill="#151616"/>
<path d="M163.339 38.79L169.627 45.7763" stroke="#151616" stroke-width="1.6875" stroke-linecap="round" stroke-linejoin="round"/>
<path d="M169.138 50.6144L163.361 44.9331" stroke="#151616" stroke-width="1.6875" stroke-linecap="round" stroke-linejoin="round"/>
<path d="M168.452 61.015L174.589 55.3394" stroke="#151616" stroke-width="1.6875" stroke-linecap="round" stroke-linejoin="round"/>
<path d="M86.6643 73.345C86.2762 61.285 86.9174 49.2362 87.0187 37.1762C87.2437 25.1219 86.7037 13.0506 87.5812 1.01308C87.6136 0.893923 87.6843 0.788773 87.7824 0.713776C87.8805 0.638778 88.0005 0.598145 88.124 0.598145C88.2475 0.598145 88.3675 0.638778 88.4656 0.713776C88.5637 0.788773 88.6344 0.893923 88.6668 1.01308C89.0493 7.03746 88.7906 13.0675 88.7006 19.0975C88.3706 31.1462 88.2112 43.2006 88.2225 55.2606C88.1662 61.285 88.1549 67.315 87.7724 73.3394C87.7585 73.4786 87.6931 73.6076 87.5891 73.7012C87.485 73.7949 87.3499 73.8464 87.2099 73.8456C87.0771 73.834 86.9528 73.7756 86.859 73.6809C86.7653 73.5861 86.7082 73.4611 86.6981 73.3281L86.6643 73.345Z" fill="#151616"/>
<path d="M87.0806 44.6009L80.5275 35.8203" stroke="#151616" stroke-width="1.6875" stroke-linecap="round" stroke-linejoin="round"/>
<path d="M87.3788 28.8232L92.8519 23.9294C92.9358 23.8572 93.0439 23.8194 93.1545 23.8235C93.2651 23.8277 93.3701 23.8735 93.4483 23.9517C93.5266 24.03 93.5724 24.135 93.5765 24.2456C93.5807 24.3562 93.5429 24.4643 93.4707 24.5482L88.5713 30.0157C88.494 30.0985 88.4009 30.165 88.2974 30.2111C88.1939 30.2573 88.0822 30.2821 87.9689 30.2841C87.8556 30.2861 87.743 30.2652 87.638 30.2228C87.5329 30.1804 87.4375 30.1172 87.3574 30.0371C87.2772 29.957 87.2141 29.8615 87.1716 29.7564C87.1292 29.6514 87.1084 29.5388 87.1104 29.4255C87.1124 29.3123 87.1372 29.2006 87.1833 29.0971C87.2294 28.9936 87.2959 28.9004 87.3788 28.8232Z" fill="#151616"/>
<path d="M218.784 74.1663C217.029 62.1738 216.304 50.0632 215.038 38.0144C213.913 25.9544 211.989 13.9563 211.477 1.84007C211.498 1.71844 211.558 1.60693 211.648 1.52277C211.738 1.43861 211.854 1.38647 211.977 1.37432C212.099 1.36217 212.223 1.3907 212.328 1.45555C212.433 1.5204 212.513 1.61792 212.557 1.73316C213.621 7.70691 214.048 13.7538 214.644 19.7894C215.679 31.8606 216.885 43.915 218.261 55.9525C218.891 61.9825 219.566 68.0013 219.864 74.0595C219.865 74.2003 219.813 74.3361 219.718 74.4403C219.623 74.5444 219.493 74.6093 219.352 74.622C219.219 74.6241 219.09 74.5789 218.987 74.4944C218.884 74.41 218.814 74.2917 218.79 74.1607L218.784 74.1663Z" fill="#151616"/>
<path d="M215.938 45.3661L208.389 36.5854" stroke="#151616" stroke-width="1.6875" stroke-linecap="round" stroke-linejoin="round"/>
<path d="M214.481 29.6274L219.386 24.7167C219.465 24.6488 219.566 24.6116 219.67 24.6118C219.774 24.6121 219.875 24.6498 219.953 24.7181C220.032 24.7864 220.083 24.8807 220.098 24.9837C220.112 25.0867 220.089 25.1916 220.033 25.2792L215.741 30.7355C215.667 30.8182 215.578 30.8855 215.478 30.9337C215.378 30.9819 215.27 31.0099 215.159 31.0162C214.935 31.0288 214.716 30.9521 214.549 30.803C214.382 30.6538 214.281 30.4443 214.268 30.2207C214.255 29.997 214.332 29.7775 214.481 29.6105V29.6274Z" fill="#151616"/>
<path d="M45.1349 75.9828L35.2968 76.056C35.1476 76.056 35.0045 75.9967 34.899 75.8912C34.7935 75.7858 34.7343 75.6427 34.7343 75.4935C35.173 72.7316 35.2349 69.8685 35.8311 66.9885C36.523 64.2097 37.0518 61.5604 37.468 58.7366V59.0179L34.1493 47.2897L34.6555 47.7791L27.0843 45.906L27.9449 45.3773L24.6937 60.0023V59.6366L29.7562 75.2853C29.7912 75.3993 29.7992 75.5199 29.7793 75.6375C29.7595 75.7551 29.7125 75.8664 29.642 75.9626C29.5715 76.0588 29.4795 76.1371 29.3733 76.1914C29.2672 76.2457 29.1498 76.2745 29.0305 76.2754L18.8437 76.3148C18.6408 76.3166 18.445 76.2406 18.2964 76.1025C18.1479 75.9644 18.0578 75.7747 18.0449 75.5722C17.7693 71.8766 16.4305 54.6923 16.2111 51.3454C15.9974 46.491 15.823 41.631 15.3843 36.7879C15.5418 37.4291 7.66114 13.2304 7.68364 13.3541L8.90991 13.236L4.58428 48.7185L4.53927 48.3641C6.2999 52.7572 10.7661 63.9172 12.4143 68.1753C13.2805 70.3803 14.1524 72.5797 14.9961 74.796C15.0365 74.8985 15.0512 75.0093 15.0389 75.1188C15.0266 75.2283 14.9877 75.3332 14.9256 75.4242C14.8634 75.5152 14.78 75.5895 14.6824 75.6408C14.5849 75.6921 14.4763 75.7188 14.3661 75.7185C10.9068 75.6847 3.93178 75.606 0.472406 75.5273C0.344108 75.5273 0.221057 75.4762 0.130337 75.3855C0.039616 75.2948 -0.0113525 75.1718 -0.0113525 75.0435C-0.0113525 74.9152 0.039616 74.7921 0.130337 74.7014C0.221057 74.6107 0.344108 74.5597 0.472406 74.5597C3.94303 74.4866 10.9011 74.4022 14.3661 74.3685L13.7361 75.2966C12.8305 73.1085 11.953 70.9035 11.0643 68.7098C9.37677 64.5248 4.91615 53.241 3.18927 48.8929C3.14398 48.7826 3.12847 48.6623 3.14428 48.5441L7.59366 13.056C7.61026 12.9128 7.67544 12.7797 7.77833 12.6788C7.88122 12.5779 8.01559 12.5153 8.15904 12.5014C8.3025 12.4876 8.44636 12.5234 8.56662 12.6029C8.68688 12.6823 8.77628 12.8005 8.8199 12.9379C8.85928 13.1066 16.4755 36.5347 16.4699 36.681C16.7512 41.5353 17.3024 46.3673 17.8086 51.1991C18.0786 54.4448 19.3105 71.8485 19.5805 75.4316L18.7818 74.6891L28.9687 74.7341L28.2487 75.7241L23.3155 60.0416C23.2822 59.922 23.2822 59.7956 23.3155 59.676L26.5612 45.051C26.5823 44.9594 26.6214 44.8729 26.6763 44.7966C26.7312 44.7202 26.8007 44.6556 26.8808 44.6064C26.9608 44.5572 27.0499 44.5244 27.1428 44.51C27.2357 44.4955 27.3305 44.4997 27.4218 44.5223L35.0043 46.4179C35.1252 46.4477 35.2359 46.5093 35.3249 46.5963C35.4139 46.6834 35.478 46.7927 35.5105 46.9129C35.5105 46.9129 38.7112 58.6747 38.7168 58.6803C38.3527 61.5826 37.7888 64.4563 37.0293 67.281C36.4274 69.9585 36.3599 72.7823 35.8705 75.6116L35.308 74.9591L45.1461 75.0379C45.2744 75.0379 45.3975 75.0888 45.4882 75.1795C45.5789 75.2703 45.6299 75.3933 45.6299 75.5216C45.6299 75.6499 45.5789 75.7729 45.4882 75.8636C45.3975 75.9544 45.2744 76.0054 45.1461 76.0054L45.1349 75.9828Z" fill="#151616"/>
<path d="M15.7106 72.5234C13.8375 62.7753 12.9937 52.8865 11.6044 43.0653C10.35 33.2328 8.31937 23.4903 7.66687 13.5847C7.68338 13.4628 7.73942 13.3496 7.8264 13.2625C7.91337 13.1755 8.02649 13.1194 8.14841 13.1028C8.27034 13.0862 8.39434 13.11 8.50142 13.1706C8.6085 13.2313 8.69275 13.3253 8.74125 13.4384C9.86625 18.2872 10.35 23.2203 10.9912 28.1366C12.15 37.9878 13.4756 47.8128 14.9681 57.6116C15.66 62.5166 16.3913 67.4216 16.7513 72.3772C16.7347 72.4991 16.6787 72.6123 16.5917 72.6993C16.5048 72.7863 16.3916 72.8425 16.2697 72.8591C16.1478 72.8757 16.0238 72.8518 15.9167 72.7912C15.8096 72.7306 15.7254 72.6365 15.6769 72.5234H15.7106Z" fill="#151616"/>
<path d="M13.3537 53.7692L4.6012 48.313" stroke="#151616" stroke-width="1.6875" stroke-linecap="round" stroke-linejoin="round"/>
<path d="M11.6268 41.0294L15.5643 36.4676C15.6383 36.3892 15.7386 36.3408 15.8459 36.3317C15.9533 36.3225 16.0603 36.3532 16.1466 36.4178C16.2328 36.4825 16.2922 36.5766 16.3134 36.6823C16.3347 36.7879 16.3163 36.8977 16.2618 36.9907L12.9656 42.0532C12.9027 42.1507 12.8205 42.2342 12.7239 42.2985C12.6274 42.3628 12.5186 42.4064 12.4044 42.4268C12.2902 42.4471 12.1731 42.4438 12.0603 42.4168C11.9475 42.3898 11.8414 42.3399 11.7488 42.2701C11.6561 42.2003 11.5788 42.1122 11.5218 42.0112C11.4647 41.9102 11.4291 41.7986 11.4171 41.6832C11.4051 41.5678 11.4171 41.4512 11.4522 41.3407C11.4873 41.2301 11.5448 41.128 11.6212 41.0407L11.6268 41.0294Z" fill="#151616"/>
<path d="M98.235 73.1476C98.7975 65.3457 100.423 57.6788 101.481 49.9388C102.673 42.2157 103.106 34.3632 104.917 26.7525C104.966 26.6393 105.051 26.5454 105.159 26.485C105.266 26.4247 105.391 26.4014 105.513 26.4186C105.635 26.4359 105.748 26.4928 105.834 26.5805C105.921 26.6683 105.976 26.7821 105.992 26.9044C105.581 34.7232 103.781 42.3732 102.746 50.1188C101.576 57.8476 100.963 65.655 99.3094 73.305C99.2601 73.4184 99.1749 73.5123 99.0669 73.5724C98.9589 73.6324 98.8342 73.6552 98.7119 73.6373C98.5897 73.6194 98.4767 73.5617 98.3905 73.4732C98.3043 73.3847 98.2497 73.2703 98.235 73.1476Z" fill="#151616"/>
<path d="M94.0499 42.8403L101.7 50.1472" stroke="#151616" stroke-width="1.6875" stroke-linecap="round" stroke-linejoin="round"/>
<path d="M101.239 54.6646L94.7981 48.9834" stroke="#151616" stroke-width="1.6875" stroke-linecap="round" stroke-linejoin="round"/>
<path d="M110.604 37.1421L103.494 44.1283" stroke="#151616" stroke-width="1.6875" stroke-linecap="round" stroke-linejoin="round"/>
<path d="M268.425 48.0885C269.269 52.8192 269.055 57.6229 269.404 62.3985C269.623 67.1741 270.619 71.961 270.202 76.7198C270.178 76.8416 270.114 76.9519 270.021 77.0337C269.927 77.1154 269.81 77.1639 269.686 77.1716C269.562 77.1793 269.439 77.1458 269.336 77.0763C269.233 77.0068 269.156 76.9052 269.117 76.7873C268.521 74.4417 268.554 72.0397 268.414 69.6435C268.301 64.8622 268.026 60.081 267.559 55.3279C267.317 52.9454 267.243 50.5488 267.339 48.156C267.364 48.0342 267.427 47.9238 267.521 47.8421C267.614 47.7604 267.732 47.7119 267.856 47.7042C267.98 47.6965 268.103 47.73 268.206 47.7995C268.309 47.869 268.386 47.9707 268.425 48.0885Z" fill="#151616"/>
<path d="M268.301 60.9195C269.652 59.5044 270.925 58.0173 272.115 56.4645C272.57 55.9583 272.902 55.3789 273.65 55.227C273.754 55.2088 273.86 55.215 273.961 55.2452C274.062 55.2753 274.154 55.3286 274.231 55.4007C274.307 55.4728 274.366 55.5618 274.402 55.6605C274.438 55.7593 274.45 55.8651 274.438 55.9695C274.337 56.7233 273.78 57.0945 273.313 57.5783C271.839 58.8643 270.435 60.2275 269.106 61.662C269 61.7273 268.877 61.7561 268.753 61.7439C268.63 61.7318 268.515 61.6794 268.424 61.5948C268.334 61.5102 268.274 61.3982 268.254 61.2761C268.234 61.1541 268.254 61.0287 268.312 60.9195H268.301Z" fill="#151616"/>
<path d="M268.948 71.3588C267.564 70.7963 266.698 69.6714 265.573 68.777C264.413 67.9498 263.374 66.9653 262.485 65.8519C262.395 65.7375 262.353 65.5927 262.368 65.448C262.383 65.3032 262.453 65.1698 262.564 65.0757C262.651 65.0063 262.757 64.9645 262.868 64.9555C262.979 64.9464 263.091 64.9707 263.188 65.0251C263.804 65.386 264.399 65.7804 264.971 66.2063C266.096 67.0501 267.064 68.1132 268.211 68.9513C268.701 69.4238 270.399 70.6389 269.409 71.3195C269.34 71.3576 269.264 71.3808 269.186 71.3875C269.107 71.3943 269.028 71.3845 268.954 71.3588H268.948Z" fill="#151616"/>
<path d="M302.091 43.6556C302.355 49.2806 301.528 54.7987 301.326 60.3787C300.954 65.9475 301.365 71.5837 300.364 77.0962C300.324 77.2117 300.248 77.3112 300.147 77.3796C300.045 77.4479 299.925 77.4815 299.803 77.4751C299.681 77.4688 299.564 77.4229 299.47 77.3444C299.377 77.2659 299.311 77.159 299.284 77.04C298.856 71.4544 299.846 65.8912 300.049 60.3169C300.398 54.7425 300.173 49.14 301.011 43.5994C301.05 43.4839 301.127 43.3844 301.228 43.3161C301.329 43.2477 301.45 43.2141 301.572 43.2205C301.694 43.2268 301.81 43.2727 301.904 43.3512C301.998 43.4297 302.063 43.5366 302.091 43.6556Z" fill="#151616"/>
<path d="M300.516 58.6972L295.802 52.6616" stroke="#151616" stroke-width="1.6875" stroke-linecap="round" stroke-linejoin="round"/>
<path d="M299.914 69.3341L306.141 63.546C306.224 63.4786 306.329 63.4442 306.436 63.4492C306.543 63.4542 306.645 63.4982 306.722 63.573C306.799 63.6478 306.846 63.7481 306.854 63.8551C306.861 63.962 306.83 64.0681 306.765 64.1534L301.14 70.5153C301.062 70.5947 300.97 70.6581 300.868 70.7018C300.766 70.7454 300.656 70.7686 300.545 70.7699C300.434 70.7713 300.324 70.7507 300.221 70.7094C300.118 70.6681 300.024 70.607 299.945 70.5294C299.865 70.4519 299.802 70.3594 299.758 70.2574C299.714 70.1553 299.691 70.0456 299.69 69.9346C299.689 69.8236 299.709 69.7135 299.751 69.6105C299.792 69.5074 299.853 69.4135 299.931 69.3341H299.914Z" fill="#151616"/>
<path d="M282.032 77.693C280.035 67.6973 278.302 56.6555 276.654 46.5586C276.62 46.4391 276.62 46.3125 276.654 46.193C277.301 44.4323 277.926 42.6436 278.589 40.9111C279.934 37.418 280.997 33.8686 282.156 30.308C282.718 28.733 283.342 26.5167 284.006 24.9304C284.051 24.8312 284.121 24.7452 284.209 24.6804C284.296 24.6155 284.399 24.5741 284.507 24.5601C284.615 24.546 284.725 24.5597 284.826 24.5999C284.928 24.6401 285.017 24.7054 285.086 24.7898C286.026 25.9711 286.447 27.2311 287.218 28.4742C288.506 30.7242 292.072 36.9117 293.406 39.2574C293.477 39.3836 293.507 39.5294 293.49 39.6736C292.927 45.2986 291.802 53.3367 291.403 58.8886C291.021 65.2617 289.879 71.8261 289.063 78.1542L288.27 77.2655C291.116 77.3105 293.957 77.3779 296.797 77.5186C296.917 77.5509 297.022 77.6216 297.097 77.7197C297.172 77.8178 297.212 77.9379 297.212 78.0614C297.212 78.1849 297.172 78.3049 297.097 78.403C297.022 78.5011 296.917 78.5718 296.797 78.6042C293.985 78.7448 291.116 78.8067 288.27 78.8573C288.158 78.8572 288.046 78.8335 287.944 78.7875C287.841 78.7415 287.749 78.6743 287.675 78.5904C287.6 78.5065 287.543 78.4077 287.509 78.3006C287.475 78.1934 287.464 78.0803 287.477 77.9686C288.152 71.663 289.356 65.0873 289.783 58.7817C290.25 53.1286 291.504 45.203 292.146 39.5161L292.23 39.9267C290.891 37.5698 287.392 31.388 286.093 29.1042C285.401 27.9792 284.872 26.6011 284.079 25.6111L285.159 25.4649C284.822 26.311 284.531 27.1748 284.287 28.0523C283.956 29.0311 283.252 31.0786 282.954 32.0236C281.582 36.9792 279.754 41.8279 278.066 46.6486L278.1 46.283C279.326 53.5224 280.851 62.4436 281.942 69.6661C282.336 72.2705 282.718 74.8748 283.067 77.4905C283.055 77.6143 283.003 77.7308 282.918 77.8216C282.833 77.9125 282.72 77.9725 282.597 77.9925C282.474 78.0124 282.348 77.9911 282.239 77.9318C282.129 77.8725 282.043 77.7786 281.992 77.6648L282.032 77.693Z" fill="#151616"/>
<path d="M284.788 78.531C284.124 69.6322 284.496 60.7166 284.321 51.8066C284.209 45.1241 283.916 38.4472 283.832 31.7647C283.786 29.5332 283.855 27.3009 284.04 25.0766C284.072 24.9574 284.143 24.8522 284.241 24.7773C284.339 24.7023 284.459 24.6616 284.583 24.6616C284.706 24.6616 284.826 24.7023 284.924 24.7773C285.022 24.8522 285.093 24.9574 285.126 25.0766C285.643 29.5203 285.525 33.9809 285.57 38.4359C285.514 47.3497 285.628 56.2597 285.913 65.1659C285.997 69.6209 286.121 74.0703 285.874 78.531C285.841 78.6501 285.771 78.7553 285.672 78.8303C285.574 78.9053 285.454 78.946 285.331 78.946C285.207 78.946 285.087 78.9053 284.989 78.8303C284.891 78.7553 284.82 78.6501 284.788 78.531Z" fill="#151616"/>
<path d="M292.449 40L285.339 46.9862" stroke="#151616" stroke-width="1.6875" stroke-linecap="round" stroke-linejoin="round"/>
<path d="M285.255 51.8177L291.701 46.1421" stroke="#151616" stroke-width="1.6875" stroke-linecap="round" stroke-linejoin="round"/>
<path d="M284.721 62.224L279.247 56.5483" stroke="#151616" stroke-width="1.6875" stroke-linecap="round" stroke-linejoin="round"/>
<path d="M370.794 78.992L360.956 79.037C360.879 79.0373 360.803 79.0207 360.732 78.9883C360.662 78.956 360.6 78.9086 360.55 78.8496C360.5 78.7907 360.464 78.7215 360.444 78.6469C360.424 78.5724 360.42 78.4944 360.433 78.4183C360.877 75.6902 360.922 72.8495 361.519 70.0145C362.204 67.2934 362.75 64.5392 363.156 61.7626V62.027L359.831 50.2989L360.321 50.7714L352.727 48.9095L353.587 48.3808L350.336 63.0058V62.6401L355.337 78.3001C355.371 78.4081 355.38 78.5228 355.362 78.6347C355.344 78.7467 355.299 78.8527 355.232 78.9443C355.166 79.0358 355.078 79.1103 354.977 79.1616C354.876 79.2129 354.764 79.2396 354.651 79.2395L338.754 79.2845C338.631 79.2845 338.509 79.2548 338.4 79.1979C338.29 79.1411 338.196 79.0587 338.125 78.9579C338.054 78.857 338.008 78.7405 337.991 78.6182C337.974 78.4959 337.987 78.3714 338.029 78.2551L348.435 49.4439L348.39 49.7927L346.438 27.7708L347.456 28.5021L339.424 30.4426L339.986 30.0039L332.235 45.3433L332.319 44.9214C332.449 47.7339 332.595 50.5127 332.696 53.3139C332.972 61.1327 333.405 70.6783 333.821 78.4914C333.827 78.5685 333.816 78.6459 333.79 78.7188C333.764 78.7916 333.724 78.8584 333.671 78.9149C333.618 78.9714 333.554 79.0163 333.483 79.047C333.413 79.0777 333.336 79.0935 333.259 79.0933H326.852C326.773 79.0937 326.695 79.0775 326.623 79.0458C326.551 79.014 326.486 78.9675 326.433 78.9092C326.38 78.8508 326.34 78.782 326.315 78.7071C326.29 78.6322 326.281 78.553 326.289 78.4745C326.289 78.5589 329.979 25.6783 329.996 26.4883L324.973 2.90267H326.239L317.88 38.402C317.818 37.1195 323.207 78.2608 323.196 77.957C323.209 78.0591 323.201 78.1629 323.171 78.2615C323.142 78.3601 323.091 78.4512 323.024 78.5289C322.956 78.6066 322.873 78.669 322.779 78.712C322.686 78.755 322.584 78.7775 322.481 78.7782H303.328C303.216 78.778 303.105 78.7523 303.004 78.7031C302.904 78.6539 302.815 78.5826 302.746 78.4944C302.677 78.4061 302.628 78.3033 302.604 78.1937C302.58 78.0841 302.582 77.9705 302.608 77.8614L307.108 59.5633V59.8726L303.981 42.7951L304.886 43.3576L297.517 45.5458L297.996 45.0395L295.093 57.347C295.02 57.617 294.817 58.517 294.761 58.7589C295.023 60.2941 295.19 61.8439 295.262 63.3995C295.723 68.2989 296.691 73.0914 297.354 77.9739C297.364 78.0967 297.327 78.2187 297.25 78.3149C297.173 78.4111 297.062 78.4742 296.94 78.4914C296.818 78.5087 296.694 78.4787 296.593 78.4076C296.492 78.3365 296.423 78.2297 296.398 78.1089C295.768 73.9633 294.896 69.8064 294.334 65.6271C294.069 64.0127 293.974 62.0101 293.771 60.3845C293.771 59.7151 293.383 59.0626 293.569 58.3483C293.76 57.4989 294.576 53.8483 294.789 52.9539L296.646 44.7302C296.672 44.6105 296.731 44.5003 296.815 44.4112C296.899 44.3221 297.006 44.2574 297.124 44.2239L304.481 41.9739C304.661 41.9211 304.854 41.9411 305.019 42.0294C305.185 42.1178 305.308 42.2676 305.364 42.4464C305.331 42.4464 308.587 59.5464 308.565 59.597C308.588 59.6989 308.588 59.8045 308.565 59.9064L304.065 78.2045L303.345 77.2877H322.498L321.784 78.1033L316.552 38.2895C316.474 38.0532 324.99 2.80142 324.99 2.55392C325.031 2.38746 325.136 2.24391 325.283 2.15443C325.429 2.06495 325.605 2.03668 325.772 2.07574C325.891 2.10333 326 2.16468 326.086 2.25242C326.172 2.34015 326.231 2.45061 326.256 2.57074L331.234 26.1957C331.307 26.2464 327.437 78.4295 327.459 78.5082L326.897 77.8895H333.321L332.758 78.4914L332.308 70.1045C331.869 62.0383 331.183 53.0102 330.711 44.9495C330.702 44.8034 330.733 44.6577 330.801 44.5277L338.541 29.1995C338.597 29.0906 338.677 28.9953 338.774 28.9204C338.871 28.8456 338.983 28.793 339.103 28.7664L347.141 26.837C347.246 26.811 347.356 26.8062 347.463 26.8227C347.57 26.8393 347.673 26.8769 347.766 26.9333C347.858 26.9898 347.939 27.0641 348.002 27.1518C348.066 27.2396 348.112 27.3391 348.137 27.4445C348.193 27.512 350.044 49.5058 350.077 49.5958C350.088 49.7139 350.073 49.833 350.032 49.9445L339.547 78.722L338.827 77.6926L354.724 77.7376L354.037 78.6827L349.071 63.0114C349.04 62.8915 349.04 62.7657 349.071 62.6458L352.316 48.0208C352.337 47.9288 352.375 47.8419 352.43 47.7651C352.485 47.6884 352.554 47.6234 352.635 47.5741C352.715 47.5248 352.804 47.4921 352.897 47.478C352.991 47.4639 353.086 47.4686 353.177 47.492L360.754 49.4158C360.869 49.445 360.974 49.5041 361.059 49.5871C361.144 49.67 361.205 49.7739 361.237 49.8882L364.444 61.6501C364.337 63.1351 363.954 64.5864 363.718 66.0939C363.426 67.5002 363.026 68.8614 362.728 70.2057C362.126 72.8889 362.059 75.7183 361.569 78.542L361.046 77.9233L370.884 77.9739C371.012 77.9754 371.134 78.0268 371.225 78.1172C371.315 78.2076 371.367 78.3298 371.368 78.4576C371.365 78.585 371.313 78.7065 371.223 78.7966C371.133 78.8867 371.012 78.9385 370.884 78.9414L370.794 78.992Z" fill="#151616"/>
<path d="M356.647 48.9885C357.491 53.7191 357.277 58.551 357.632 63.2985C357.851 68.0741 358.841 72.8329 358.425 77.6197C358.399 77.7393 358.335 77.8471 358.242 77.9268C358.149 78.0065 358.033 78.0537 357.91 78.0613C357.788 78.0689 357.667 78.0366 357.565 77.9691C357.463 77.9016 357.386 77.8026 357.345 77.6872C356.743 75.3416 356.782 72.9398 356.642 70.5435C356.524 65.7623 356.254 60.981 355.787 56.2278C355.542 53.8455 355.469 51.4488 355.567 49.056C355.593 48.9364 355.658 48.8287 355.751 48.749C355.844 48.6693 355.96 48.622 356.082 48.6144C356.204 48.6067 356.325 48.6391 356.427 48.7067C356.529 48.7742 356.607 48.8731 356.647 48.9885Z" fill="#151616"/>
<path d="M356.529 61.8197C357.878 60.4046 359.149 58.9174 360.337 57.3647C360.793 56.8584 361.131 56.2791 361.873 56.1272C361.977 56.1092 362.083 56.1155 362.184 56.1457C362.285 56.1758 362.378 56.229 362.454 56.3009C362.531 56.3729 362.59 56.4617 362.627 56.5604C362.664 56.6591 362.677 56.765 362.666 56.8697C362.565 57.6234 362.002 57.9947 361.541 58.484C360.064 59.7638 358.659 61.1253 357.334 62.5622C357.229 62.6275 357.105 62.6563 356.982 62.6442C356.858 62.632 356.743 62.5795 356.652 62.4949C356.562 62.4104 356.502 62.2984 356.482 62.1763C356.462 62.0543 356.482 61.9289 356.541 61.8197H356.529Z" fill="#151616"/>
<path d="M357.171 72.2591C355.793 71.7303 354.921 70.5716 353.796 69.6828C352.64 68.8504 351.603 67.8645 350.713 66.7522C350.643 66.6504 350.609 66.5284 350.616 66.4051C350.622 66.2819 350.669 66.1642 350.749 66.0702C350.829 65.9762 350.937 65.9111 351.058 65.8849C351.179 65.8587 351.305 65.8729 351.416 65.9253C352.031 66.2876 352.626 66.6819 353.199 67.1066C354.324 67.9503 355.286 69.0134 356.439 69.8516C356.929 70.3241 358.627 71.5391 357.637 72.2197C357.567 72.2564 357.49 72.2787 357.411 72.2855C357.332 72.2923 357.252 72.2833 357.176 72.2591H357.171Z" fill="#151616"/>
<path d="M390.319 44.5505C390.583 50.1755 389.756 55.6936 389.548 61.2792C389.182 66.8423 389.593 72.4843 388.592 77.9911C388.554 78.1091 388.478 78.2112 388.376 78.2815C388.274 78.3519 388.151 78.3865 388.027 78.3801C387.904 78.3737 387.785 78.3266 387.691 78.2461C387.597 78.1656 387.532 78.0561 387.506 77.9348C387.084 72.3548 388.069 66.7861 388.277 61.2117C388.62 55.6373 388.395 50.0349 389.233 44.4942C389.271 44.3763 389.347 44.2742 389.449 44.2038C389.551 44.1335 389.674 44.0988 389.798 44.1052C389.921 44.1117 390.04 44.1588 390.134 44.2393C390.228 44.3198 390.293 44.4292 390.319 44.5505Z" fill="#151616"/>
<path d="M388.744 59.5971L384.03 53.5615" stroke="#151616" stroke-width="1.6875" stroke-linecap="round" stroke-linejoin="round"/>
<path d="M388.142 70.2339L394.369 64.4457C394.449 64.3637 394.559 64.317 394.674 64.3159C394.789 64.3149 394.9 64.3595 394.982 64.4401C395.064 64.5206 395.111 64.6305 395.112 64.7455C395.113 64.8605 395.068 64.9712 394.988 65.0533L389.363 71.4151C389.285 71.4945 389.193 71.5579 389.09 71.6016C388.988 71.6453 388.879 71.6684 388.768 71.6697C388.657 71.671 388.547 71.6504 388.444 71.6091C388.341 71.5679 388.247 71.5067 388.167 71.4292C388.088 71.3516 388.024 71.2592 387.981 71.1571C387.937 71.0551 387.914 70.9454 387.913 70.8344C387.911 70.7234 387.932 70.6133 387.973 70.5102C388.014 70.4072 388.076 70.3133 388.153 70.2339H388.142Z" fill="#151616"/>
<path d="M373.016 79.4539C372.352 70.5551 372.724 61.6395 372.544 52.7295C372.431 46.047 372.144 39.3701 372.06 32.6876C372.008 30.4561 372.078 28.2235 372.268 25.9995C372.3 25.8803 372.371 25.7751 372.469 25.7001C372.567 25.6251 372.687 25.5845 372.811 25.5845C372.934 25.5845 373.054 25.6251 373.152 25.7001C373.251 25.7751 373.321 25.8803 373.354 25.9995C373.865 30.4376 373.753 34.8982 373.798 39.3589C373.742 48.2689 373.854 57.177 374.135 66.0832C374.22 70.5382 374.344 74.9932 374.102 79.4482C374.069 79.5674 373.999 79.6726 373.901 79.7476C373.802 79.8226 373.682 79.8633 373.559 79.8633C373.435 79.8633 373.315 79.8226 373.217 79.7476C373.119 79.6726 373.048 79.5674 373.016 79.4482V79.4539Z" fill="#151616"/>
<path d="M380.672 40.8994L373.562 47.8857" stroke="#151616" stroke-width="1.6875" stroke-linecap="round" stroke-linejoin="round"/>
<path d="M373.483 52.7181L379.929 47.0425" stroke="#151616" stroke-width="1.6875" stroke-linecap="round" stroke-linejoin="round"/>
<path d="M372.943 63.1244L367.47 57.4487" stroke="#151616" stroke-width="1.6875" stroke-linecap="round" stroke-linejoin="round"/>
<path d="M470.987 44.8596C471.251 50.4565 470.424 56.0084 470.216 61.5884C469.851 67.1571 470.261 72.7933 469.26 78.3058C469.222 78.4238 469.146 78.5259 469.044 78.5963C468.942 78.6666 468.819 78.7013 468.696 78.6949C468.572 78.6885 468.454 78.6413 468.359 78.5608C468.265 78.4803 468.2 78.3709 468.174 78.2496C467.753 72.664 468.737 67.0952 468.945 61.5209C469.288 55.9465 469.063 50.344 469.901 44.8034C469.939 44.6854 470.015 44.5833 470.117 44.5129C470.219 44.4426 470.342 44.4079 470.466 44.4143C470.59 44.4207 470.708 44.4679 470.802 44.5484C470.896 44.6289 470.961 44.7383 470.987 44.8596Z" fill="#151616"/>
<path d="M469.412 59.9121L464.698 53.8765" stroke="#151616" stroke-width="1.6875" stroke-linecap="round" stroke-linejoin="round"/>
<path d="M468.81 70.5491L475.037 64.7553C475.117 64.6732 475.227 64.6266 475.342 64.6255C475.457 64.6245 475.568 64.6691 475.65 64.7497C475.732 64.8302 475.779 64.9401 475.78 65.0551C475.781 65.1701 475.736 65.2807 475.656 65.3628L470.031 71.7247C469.954 71.8083 469.862 71.8757 469.76 71.923C469.657 71.9702 469.546 71.9963 469.433 71.9997C469.319 72.0032 469.207 71.9838 469.101 71.9429C468.996 71.9019 468.9 71.8402 468.819 71.7614C468.738 71.6826 468.673 71.5882 468.629 71.484C468.586 71.3798 468.563 71.2678 468.563 71.1547C468.563 71.0416 468.586 70.9297 468.631 70.8256C468.675 70.7216 468.74 70.6276 468.821 70.5491H468.81Z" fill="#151616"/>
<path d="M484.014 79.7575H472.202C472.068 79.7575 471.939 79.7041 471.844 79.6092C471.749 79.5142 471.696 79.3855 471.696 79.2512C471.696 79.1331 476.139 60.9475 476.156 60.8237V61.0544L472.961 43.9881L473.704 44.4381L466.346 46.6881L466.762 46.2493L464.878 54.4674C464.692 55.4687 463.832 58.9337 463.646 59.8619C463.556 60.1769 463.77 60.5312 463.798 60.9249C463.894 61.6955 463.978 62.8205 464.068 63.5912C464.507 68.8393 465.637 73.9525 466.397 79.1781C466.411 79.2732 466.404 79.3701 466.377 79.4623C466.349 79.5545 466.303 79.6398 466.24 79.7124C466.177 79.7849 466.099 79.8431 466.012 79.8829C465.924 79.9227 465.829 79.9433 465.733 79.9431H459.309C459.133 79.9433 458.963 79.8757 458.836 79.7542C458.708 79.6327 458.632 79.4667 458.623 79.2906C458.533 79.4143 456.446 26.4155 456.474 27.3155L448.779 3.7187L450.163 3.58371L445.837 39.0887C445.691 37.6881 455.647 78.9362 455.653 78.61C455.682 78.7284 455.684 78.8519 455.658 78.9711C455.632 79.0903 455.58 79.2021 455.504 79.298C455.429 79.3939 455.333 79.4714 455.223 79.5247C455.114 79.578 454.993 79.6057 454.871 79.6056H440.977C440.854 79.6063 440.731 79.5785 440.62 79.5242C440.509 79.47 440.412 79.3908 440.336 79.2928C440.26 79.1948 440.208 79.0808 440.184 78.9594C440.16 78.838 440.164 78.7126 440.196 78.5931C441.45 73.7893 442.969 69.1374 444.049 64.3055C444.319 63.0624 444.651 61.3131 444.966 60.0868L445.129 59.6031C445.151 59.5431 445.166 59.4808 445.174 59.4175C444.802 56.1437 443.998 49.0843 443.616 45.7374L444.178 46.4349L437.074 44.23L438.114 43.6675L432.962 60.7449V60.3962L434.121 69.5425L435.246 78.7C435.26 78.8127 435.25 78.9274 435.216 79.0359C435.182 79.1444 435.125 79.2442 435.048 79.3283C434.972 79.4123 434.878 79.4787 434.773 79.5227C434.668 79.5667 434.555 79.5873 434.441 79.5831L422.302 79.1499C422.214 79.1478 422.127 79.1281 422.046 79.092C421.965 79.056 421.893 79.0044 421.832 78.94C421.771 78.8757 421.724 78.8 421.693 78.7173C421.661 78.6346 421.647 78.5464 421.65 78.4581C421.651 78.3726 421.67 78.2883 421.706 78.2106L425.182 70.4087L428.631 62.59L428.586 62.8712L427.05 48.2462L427.759 48.7468L419.951 50.6425L420.356 50.2937L415.716 62.0387L415.755 61.7968C415.834 63.1749 415.89 64.6093 415.986 65.9368C416.081 67.2643 416.329 68.6593 416.469 70.0712C416.751 72.923 416.469 75.6962 416.616 78.4355C416.619 78.5169 416.607 78.5983 416.578 78.6746C416.55 78.7509 416.506 78.8206 416.45 78.8795C416.393 78.9384 416.326 78.9852 416.251 79.0172C416.176 79.0492 416.095 79.0656 416.014 79.0655H406.176C406.016 79.0655 405.863 79.0022 405.75 78.8893C405.637 78.7764 405.574 78.6233 405.574 78.4637C405.506 78.3793 414.422 47.2337 414.416 47.1212V47.4249C413.989 45.6643 413.601 43.9262 413.139 42.1543C412.014 37.7949 411.311 33.2275 410.282 28.8343C410.145 27.9653 409.957 27.105 409.719 26.258L410.788 26.4943C409.871 27.5012 409.185 28.8906 408.358 30.0043L400.967 40.8437L401.085 40.4781V50.0406C401.085 53.2074 401.226 56.4081 401.046 59.6031C400.702 65.9087 401.091 72.2593 401.113 78.6493C401.113 78.8245 401.045 78.9929 400.923 79.1188C400.802 79.2448 400.636 79.3185 400.461 79.3243L391.579 79.6224C391.474 79.6261 391.37 79.6057 391.274 79.5625C391.179 79.5193 391.094 79.4546 391.028 79.3734C390.961 79.2923 390.915 79.1969 390.891 79.0947C390.868 78.9925 390.868 78.8863 390.892 78.7843L395.392 60.4806V60.7731L392.226 43.7012L393.126 44.2637L385.762 46.4743L386.246 45.9568C385.498 49.2418 383.912 56.0818 383.175 59.3049L383.119 59.5637L383.091 59.6706C383.094 59.7906 383.113 59.9096 383.147 60.0249C383.147 60.1768 383.231 60.3681 383.259 60.5874C383.473 62.4774 383.602 64.4743 383.861 66.3587C384.424 70.5437 385.228 74.6387 385.836 78.8406C385.849 78.9444 385.84 79.0499 385.81 79.1501C385.78 79.2504 385.729 79.3431 385.661 79.4223C385.592 79.5014 385.508 79.5652 385.413 79.6094C385.318 79.6536 385.215 79.6772 385.11 79.6787H376.582C376.387 79.6787 376.198 79.6013 376.059 79.4632C375.92 79.3252 375.841 79.1378 375.84 78.9418C376.588 72.4674 377.747 66.083 378.157 59.6649C378.349 56.4024 378.849 53.185 379.282 49.9956L380.447 40.388L380.531 40.8268C379.26 38.5768 375.637 32.2374 374.389 30.0043C373.697 28.8793 373.174 27.5012 372.392 26.5168L373.517 26.3593C372.954 27.7262 372.268 30.1281 371.722 31.585C371.452 32.3275 371.104 33.475 370.879 34.2512C369.54 38.7512 367.836 43.1162 366.272 47.5149C367.487 53.5281 370.086 71.14 371.334 78.4075C371.355 78.5343 371.325 78.6641 371.25 78.7686C371.175 78.873 371.062 78.9435 370.935 78.9643C370.808 78.9852 370.678 78.9548 370.574 78.8799C370.469 78.805 370.399 78.6918 370.378 78.565C369.084 70.6506 366.199 55.03 365.085 47.11C366.772 42.2612 368.623 37.4743 370.018 32.5299C370.299 31.5849 371.047 29.4868 371.357 28.5249C371.613 27.5978 371.925 26.6868 372.291 25.7968C372.338 25.6945 372.411 25.6058 372.502 25.5389C372.593 25.472 372.7 25.4291 372.812 25.414C372.924 25.3988 373.038 25.4121 373.143 25.4525C373.249 25.4928 373.342 25.559 373.416 25.6449C374.366 26.8262 374.794 28.0806 375.564 29.3237C376.841 31.5231 380.43 37.8118 381.752 40.118C381.828 40.2509 381.86 40.4047 381.842 40.5568C381.341 46.2156 380.019 54.1975 379.659 59.7606C379.232 66.2631 378.079 72.6418 377.319 79.0262L376.588 78.1993H385.116L384.39 79.0318C383.58 73.4968 382.416 67.9281 381.994 62.32C381.948 61.6484 381.865 60.9799 381.746 60.3174C381.658 60.0086 381.637 59.6845 381.684 59.3669C381.718 59.1475 381.96 58.1856 382.011 57.9324L382.961 53.8262L384.868 45.6137C384.895 45.4921 384.954 45.38 385.039 45.289C385.124 45.198 385.232 45.1314 385.352 45.0962L392.721 42.8912C392.816 42.8627 392.917 42.855 393.016 42.8686C393.115 42.8822 393.21 42.9168 393.295 42.97C393.38 43.0233 393.452 43.0939 393.507 43.1773C393.562 43.2607 393.599 43.355 393.615 43.4537L396.754 60.5256C396.776 60.6218 396.776 60.7219 396.754 60.8181L392.254 79.1106L391.573 78.2725L400.455 77.9856L399.802 78.6606C399.802 72.3212 399.409 65.9424 399.763 59.5356C399.943 56.3912 399.836 53.2243 399.814 50.0349V40.4724C399.813 40.3402 399.852 40.2109 399.926 40.1012C401.563 37.7387 405.793 31.5906 407.374 29.3012C408.279 28.0749 408.876 26.7981 409.933 25.6393C410.009 25.5601 410.104 25.5018 410.21 25.47C410.315 25.4382 410.426 25.4339 410.534 25.4576C410.641 25.4813 410.74 25.5323 410.822 25.6055C410.904 25.6786 410.966 25.7717 411.002 25.8756C411.262 26.772 411.468 27.6829 411.621 28.6037L412.183 31.2643C412.903 34.8024 413.522 38.3743 414.433 41.873C414.838 43.7124 415.462 45.6024 415.71 47.498C415.71 47.498 406.851 78.6718 406.845 78.6775L406.282 77.9068H416.121L415.524 78.5368C415.384 75.7243 415.659 72.9118 415.395 70.2287C414.977 67.3861 414.755 64.518 414.731 61.6449L419.383 49.9056C419.416 49.8184 419.471 49.7409 419.541 49.68C419.612 49.6191 419.697 49.5768 419.788 49.5568L427.59 47.6668C427.67 47.645 427.754 47.6412 427.835 47.6556C427.917 47.67 427.995 47.7023 428.062 47.7501C428.13 47.798 428.186 47.8602 428.227 47.9324C428.268 48.0045 428.292 48.0848 428.299 48.1675L429.817 62.7925C429.828 62.8904 429.812 62.9893 429.772 63.0793L426.397 70.9543L423.022 78.8293L422.426 77.8956L434.576 78.0924L433.772 78.9812L432.562 69.8406L431.387 60.6887C431.375 60.5714 431.387 60.4529 431.421 60.34L436.59 43.2737C436.621 43.1681 436.672 43.0698 436.742 42.9842C436.811 42.8987 436.896 42.8278 436.993 42.7755C437.09 42.7232 437.196 42.6905 437.305 42.6795C437.415 42.6685 437.525 42.6792 437.631 42.7112L444.735 44.9275C444.885 44.9792 445.017 45.072 445.116 45.1954C445.216 45.3187 445.279 45.4676 445.297 45.6249C445.607 48.4374 446.422 55.553 446.721 58.253C446.721 58.4893 446.856 59.3781 446.844 59.5693C446.801 59.9558 446.705 60.3344 446.557 60.6943C446.496 60.8968 446.394 61.4143 446.338 61.6562C445.702 64.7499 444.954 67.9225 444.088 70.9543C443.323 73.6881 442.496 76.3824 441.799 79.0937L441.011 78.0812H454.905L454.123 79.0768C454.123 78.8068 444.291 39.2518 444.369 38.9874L448.785 3.49932C448.809 3.31204 448.905 3.14163 449.054 3.02484C449.202 2.90806 449.39 2.85425 449.578 2.87495C449.707 2.89857 449.827 2.95646 449.926 3.04256C450.025 3.12866 450.099 3.2398 450.141 3.36432L457.802 26.9556C458.027 27.0119 459.861 79.195 459.996 79.3074L459.309 78.6493H465.733L465.069 79.4143C464.265 73.8793 463.106 68.3106 462.696 62.7024C462.662 62.3424 462.577 61.4987 462.544 61.1499C462.45 60.7812 462.389 60.4046 462.364 60.0249C462.364 59.5918 462.634 58.7874 462.718 58.3374C463.342 55.6993 464.968 48.7412 465.592 46.0243C465.612 45.9198 465.662 45.8232 465.734 45.7455C465.807 45.6679 465.9 45.6124 466.003 45.5856L473.372 43.3862C473.451 43.3588 473.534 43.3492 473.617 43.3581C473.7 43.3671 473.78 43.3943 473.851 43.4379C473.922 43.4815 473.983 43.5404 474.028 43.6103C474.074 43.6801 474.103 43.7592 474.114 43.8418L477.231 60.9193C477.248 60.9952 477.248 61.074 477.231 61.1499L472.731 79.4368L472.236 78.8068H484.048C484.176 78.8068 484.299 78.8578 484.39 78.9485C484.481 79.0393 484.532 79.1623 484.532 79.2906C484.532 79.4189 484.481 79.5419 484.39 79.6326C484.299 79.7234 484.176 79.7743 484.048 79.7743L484.014 79.7575Z" fill="#151616"/>
<path d="M424.918 49.1177C424.603 53.9833 423.231 58.6802 422.437 63.4502C421.504 68.2089 421.312 73.1308 419.771 77.7489C419.718 77.8606 419.63 77.9517 419.52 78.0083C419.411 78.0649 419.285 78.0837 419.164 78.062C419.042 78.0402 418.931 77.9791 418.848 77.8879C418.764 77.7968 418.713 77.6807 418.702 77.5577C418.702 75.1052 419.265 72.7427 419.737 70.352C420.772 65.6158 421.656 60.8458 422.342 56.0477C422.68 53.6418 423.186 51.2623 423.855 48.9264C423.909 48.8174 423.997 48.7289 424.106 48.6742C424.215 48.6195 424.338 48.6016 424.458 48.6231C424.578 48.6447 424.688 48.7046 424.771 48.7938C424.853 48.883 424.905 48.9966 424.918 49.1177Z" fill="#151616"/>
<path d="M421.599 62.5336C420.439 61.0988 419.198 59.7315 417.881 58.4386C417.459 57.9492 416.953 57.5723 416.925 56.8467C416.923 56.7421 416.944 56.6384 416.988 56.5433C417.031 56.4481 417.096 56.3641 417.176 56.2975C417.257 56.2309 417.352 56.1834 417.453 56.1587C417.555 56.134 417.661 56.1327 417.763 56.1548C418.466 56.3236 418.742 56.8973 419.141 57.4036C420.155 58.946 421.256 60.4296 422.438 61.8473C422.487 61.9597 422.498 62.0852 422.469 62.2045C422.44 62.3238 422.373 62.4305 422.279 62.5082C422.184 62.586 422.066 62.6305 421.943 62.6351C421.821 62.6397 421.7 62.6041 421.599 62.5336Z" fill="#151616"/>
<path d="M419.951 71.4159C420.817 70.1222 422.201 69.4528 423.366 68.4853C424.482 67.4714 425.724 66.6055 427.061 65.9091C427.191 65.8424 427.341 65.8285 427.481 65.8705C427.62 65.9125 427.738 66.0069 427.809 66.134C427.862 66.236 427.882 66.3515 427.867 66.4651C427.852 66.5787 427.802 66.6849 427.725 66.7697C426.234 68.4965 424.282 69.6497 422.556 71.1122C421.993 71.4891 420.373 73.0022 419.889 71.8884C419.864 71.8099 419.857 71.727 419.868 71.6453C419.878 71.5637 419.907 71.4854 419.951 71.4159Z" fill="#151616"/>
<path d="M440.904 44.4207C441.09 50.0457 440.207 55.5694 439.892 61.1494C439.447 66.7182 439.774 72.3657 438.694 77.8669C438.652 77.9823 438.575 78.081 438.472 78.1481C438.37 78.2152 438.248 78.247 438.126 78.2388C438.004 78.2305 437.888 78.1826 437.795 78.1022C437.703 78.0219 437.639 77.9136 437.614 77.7938C437.265 72.1688 438.334 66.6451 438.626 61.0651C439.048 55.4907 438.907 49.8826 439.824 44.3532C439.865 44.2378 439.942 44.1389 440.044 44.0714C440.146 44.0039 440.268 43.9715 440.39 43.9791C440.512 43.9868 440.628 44.034 440.721 44.1137C440.814 44.1934 440.878 44.3012 440.904 44.4207Z" fill="#151616"/>
<path d="M439.588 59.4624L445.016 53.4268" stroke="#151616" stroke-width="1.6875" stroke-linecap="round" stroke-linejoin="round"/>
<path d="M437.63 71.2192L432.725 64.8742C432.655 64.7863 432.622 64.6747 432.633 64.5629C432.643 64.4511 432.697 64.3478 432.783 64.2748C432.868 64.2018 432.978 64.1648 433.09 64.1717C433.203 64.1786 433.308 64.2288 433.384 64.3117L438.913 70.1223C438.987 70.2065 439.043 70.3044 439.079 70.4105C439.115 70.5166 439.13 70.6287 439.123 70.7405C439.116 70.8523 439.086 70.9615 439.037 71.062C438.987 71.1625 438.918 71.2521 438.834 71.326C438.75 71.3999 438.652 71.4565 438.546 71.4925C438.44 71.5285 438.328 71.5433 438.216 71.536C438.104 71.5287 437.995 71.4994 437.894 71.4499C437.794 71.4003 437.704 71.3315 437.63 71.2473V71.2192Z" fill="#151616"/>
<path d="M402.818 79.3752C403.453 70.3752 405.118 61.5551 406.243 52.6339C407.104 45.9514 407.79 39.2464 408.679 32.5639C408.955 30.3303 409.35 28.1128 409.86 25.9208C409.898 25.783 409.988 25.6651 410.11 25.5909C410.232 25.5167 410.378 25.4919 410.518 25.5214C410.641 25.5544 410.749 25.628 410.824 25.7301C410.9 25.8322 410.939 25.9569 410.934 26.0839C410.799 30.5839 410.034 35.022 409.433 39.477C408.079 48.3645 406.894 57.2726 405.877 66.2014C405.315 70.6564 404.786 75.1171 403.892 79.5327C403.844 79.6457 403.76 79.7398 403.653 79.8008C403.547 79.8617 403.423 79.886 403.301 79.8701C403.18 79.8542 403.066 79.7988 402.979 79.7124C402.892 79.6261 402.835 79.5136 402.818 79.3921V79.3752Z" fill="#151616"/>
<path d="M400.77 40.8994L407.059 47.8857" stroke="#151616" stroke-width="1.6875" stroke-linecap="round" stroke-linejoin="round"/>
<path d="M406.569 52.7181L400.792 47.0425" stroke="#151616" stroke-width="1.6875" stroke-linecap="round" stroke-linejoin="round"/>
<path d="M405.883 63.1244L412.026 57.4487" stroke="#151616" stroke-width="1.6875" stroke-linecap="round" stroke-linejoin="round"/>
<path d="M324.101 75.4488C323.708 63.3944 324.354 51.3456 324.45 39.2856C324.681 27.2312 324.135 15.16 325.012 3.12246C325.045 3.0033 325.116 2.89815 325.214 2.82315C325.312 2.74815 325.432 2.70752 325.555 2.70752C325.679 2.70752 325.799 2.74815 325.897 2.82315C325.995 2.89815 326.066 3.0033 326.098 3.12246C326.481 9.14684 326.227 15.1768 326.137 21.2069C325.807 33.2556 325.646 45.31 325.654 57.37C325.603 63.3944 325.592 69.4244 325.209 75.4488C325.195 75.588 325.13 75.717 325.026 75.8106C324.922 75.9042 324.787 75.9557 324.647 75.955C324.514 75.942 324.39 75.8822 324.298 75.7864C324.205 75.6906 324.149 75.5649 324.141 75.4319L324.101 75.4488Z" fill="#151616"/>
<path d="M324.512 46.7103L317.964 37.9297" stroke="#151616" stroke-width="1.6875" stroke-linecap="round" stroke-linejoin="round"/>
<path d="M324.81 30.9329L330.289 26.0391C330.37 25.9578 330.48 25.9121 330.595 25.9121C330.71 25.9121 330.821 25.9578 330.902 26.0391C330.983 26.1204 331.029 26.2307 331.029 26.3457C331.029 26.4606 330.983 26.5709 330.902 26.6522L326.002 32.1254C325.925 32.2083 325.832 32.2747 325.729 32.3208C325.625 32.367 325.513 32.3918 325.4 32.3938C325.287 32.3958 325.174 32.375 325.069 32.3325C324.964 32.2901 324.869 32.2269 324.788 32.1468C324.708 32.0667 324.645 31.9712 324.603 31.8661C324.56 31.7611 324.54 31.6485 324.542 31.5353C324.544 31.422 324.568 31.3103 324.614 31.2068C324.661 31.1033 324.727 31.0101 324.81 30.9329Z" fill="#151616"/>
<path d="M456.221 76.2816C454.466 64.2835 453.741 52.1785 452.469 40.1297C451.344 28.0697 449.421 16.0716 448.909 3.95537C448.929 3.83373 448.989 3.72223 449.08 3.63807C449.17 3.55391 449.285 3.5017 449.408 3.48955C449.531 3.4774 449.654 3.506 449.759 3.57085C449.864 3.6357 449.945 3.73322 449.989 3.84846C451.052 9.82221 451.485 15.8691 452.076 21.9047C453.111 33.9759 454.318 46.0303 455.698 58.0678C456.328 64.0922 456.997 70.1166 457.301 76.1747C457.302 76.3164 457.249 76.4531 457.153 76.5573C457.057 76.6616 456.925 76.7259 456.784 76.7372C456.65 76.7394 456.521 76.6942 456.418 76.6097C456.315 76.5253 456.245 76.407 456.221 76.276V76.2816Z" fill="#151616"/>
<path d="M453.369 47.4754L445.826 38.6948" stroke="#151616" stroke-width="1.6875" stroke-linecap="round" stroke-linejoin="round"/>
<path d="M451.912 31.7372L456.817 26.8209C456.897 26.7578 456.997 26.7245 457.099 26.7267C457.201 26.7289 457.299 26.7665 457.376 26.833C457.453 26.8996 457.505 26.9909 457.522 27.0913C457.539 27.1917 457.521 27.295 457.47 27.3834L453.172 32.8397C453.099 32.9224 453.009 32.9897 452.909 33.0379C452.809 33.0861 452.701 33.1141 452.59 33.1204C452.367 33.133 452.147 33.0563 451.98 32.9072C451.813 32.758 451.712 32.5485 451.699 32.3249C451.687 32.1012 451.763 31.8818 451.912 31.7147V31.7372Z" fill="#151616"/>
<path d="M282.566 78.0864L272.728 78.1652C272.579 78.1652 272.436 78.1059 272.33 78.0005C272.225 77.895 272.166 77.7519 272.166 77.6027C272.604 74.8408 272.661 71.9777 273.291 69.0977C273.977 66.2852 274.511 63.6696 274.922 60.8459V61.1215L271.592 49.4046L272.104 49.8996L264.516 48.0096L265.376 47.4809L262.125 62.1059V61.7402L267.187 77.3889C267.223 77.5021 267.231 77.622 267.211 77.7389C267.192 77.8558 267.145 77.9666 267.075 78.0623C267.005 78.1579 266.914 78.2359 266.808 78.2899C266.703 78.344 266.586 78.3725 266.467 78.3733L256.275 78.4184C256.072 78.4202 255.876 78.3442 255.728 78.2061C255.579 78.068 255.489 77.8782 255.476 77.6758C255.206 73.9802 253.862 56.7958 253.648 53.449C253.429 48.5946 253.26 43.7346 252.816 38.8915C252.979 39.5271 245.092 15.3339 245.115 15.4577L246.347 15.3396L242.061 50.8446L242.016 50.4902C243.771 54.8833 248.242 66.0433 249.891 70.3014C250.751 72.5064 251.623 74.7058 252.467 76.9221C252.507 77.0246 252.522 77.1354 252.51 77.2449C252.497 77.3544 252.458 77.4592 252.396 77.5502C252.334 77.6412 252.251 77.7156 252.153 77.7669C252.056 77.8182 251.947 77.8449 251.837 77.8446C248.383 77.8108 241.402 77.7264 237.943 77.6533C237.815 77.6533 237.692 77.6024 237.601 77.5116C237.51 77.4209 237.459 77.2978 237.459 77.1695C237.459 77.0412 237.51 76.9183 237.601 76.8275C237.692 76.7368 237.815 76.6858 237.943 76.6858C241.414 76.6127 248.372 76.5283 251.837 76.4946L251.212 77.4227C250.301 75.2346 249.429 73.0295 248.541 70.8358C246.853 66.6508 242.387 55.3614 240.666 51.0189C240.623 50.9079 240.608 50.7884 240.621 50.6702L245.076 15.1821C245.083 15.0983 245.108 15.017 245.147 14.9429C245.187 14.8689 245.242 14.8036 245.307 14.7511C245.373 14.6985 245.449 14.6598 245.53 14.6372C245.611 14.6146 245.695 14.6086 245.779 14.6196C245.898 14.6349 246.01 14.6837 246.103 14.7604C246.196 14.8371 246.265 14.9384 246.302 15.0527C246.336 15.2215 253.952 38.6439 253.952 38.7958C254.233 43.6502 254.779 48.4821 255.285 53.314C255.561 56.5596 256.792 73.9577 257.062 77.5464L256.258 76.804L266.451 76.849L265.725 77.8333L260.792 62.1565C260.761 62.0365 260.761 61.9108 260.792 61.7908L264.037 47.1658C264.058 47.0738 264.097 46.9869 264.151 46.9102C264.206 46.8335 264.276 46.7685 264.356 46.7192C264.436 46.6698 264.525 46.6372 264.619 46.6231C264.712 46.609 264.807 46.6138 264.898 46.6371L272.481 48.5271C272.602 48.5576 272.713 48.6194 272.803 48.7062C272.892 48.7931 272.958 48.902 272.992 49.0221C272.992 49.0221 276.193 60.7896 276.199 60.7952C275.819 63.6846 275.244 66.5449 274.477 69.3564C273.881 72.0339 273.808 74.8633 273.319 77.6927L272.756 77.0402L282.594 77.1189C282.713 77.1318 282.823 77.188 282.902 77.2767C282.982 77.3655 283.026 77.4806 283.026 77.5999C283.026 77.7191 282.982 77.8342 282.902 77.923C282.823 78.0118 282.713 78.068 282.594 78.0808L282.566 78.0864Z" fill="#151616"/>
<path d="M253.147 74.6272C251.274 64.8847 250.425 54.9903 249.041 45.1746C247.781 35.3421 245.756 25.5997 245.104 15.6941C245.12 15.5721 245.176 15.4589 245.263 15.3719C245.35 15.2848 245.463 15.2288 245.585 15.2122C245.707 15.1956 245.831 15.2194 245.938 15.28C246.045 15.3406 246.13 15.4347 246.178 15.5478C247.303 20.3966 247.792 25.3297 248.428 30.2459C249.579 40.0972 250.905 49.9222 252.405 59.721C253.091 64.6259 253.822 69.5309 254.188 74.4809C254.172 74.6029 254.115 74.716 254.029 74.8031C253.942 74.8901 253.828 74.9462 253.706 74.9628C253.585 74.9794 253.461 74.9555 253.353 74.8949C253.246 74.8343 253.162 74.7403 253.114 74.6272H253.147Z" fill="#151616"/>
<path d="M250.791 55.8786L242.032 50.4224" stroke="#151616" stroke-width="1.6875" stroke-linecap="round" stroke-linejoin="round"/>
<path d="M249.058 43.1388L252.996 38.5769C253.065 38.4852 253.168 38.4247 253.282 38.4089C253.396 38.3931 253.511 38.4232 253.603 38.4925C253.695 38.5619 253.755 38.6649 253.771 38.7789C253.787 38.8928 253.757 39.0083 253.687 39.1001L250.397 44.1626C250.263 44.3416 250.063 44.4599 249.841 44.4916C249.62 44.5232 249.395 44.4656 249.216 44.3313C249.037 44.197 248.918 43.9972 248.887 43.7757C248.855 43.5541 248.913 43.3291 249.047 43.1501L249.058 43.1388Z" fill="#151616"/>
<path d="M335.672 75.257C336.234 67.4495 337.854 59.7882 338.918 52.0426C340.11 44.3251 340.537 36.4725 342.349 28.8619C342.398 28.7487 342.482 28.6547 342.59 28.5944C342.697 28.5341 342.822 28.5107 342.944 28.528C343.066 28.5453 343.179 28.6021 343.266 28.6899C343.352 28.7777 343.408 28.8915 343.423 29.0138C343.013 36.8269 341.213 44.4826 340.178 52.2282C339.013 59.9569 338.4 67.7588 336.746 75.4144C336.697 75.5277 336.612 75.6217 336.504 75.6817C336.396 75.7418 336.271 75.7646 336.149 75.7467C336.027 75.7288 335.914 75.6711 335.827 75.5826C335.741 75.4941 335.687 75.3797 335.672 75.257Z" fill="#151616"/>
<path d="M331.487 44.9497L339.137 52.2566" stroke="#151616" stroke-width="1.6875" stroke-linecap="round" stroke-linejoin="round"/>
<path d="M338.676 56.774L332.229 51.0928" stroke="#151616" stroke-width="1.6875" stroke-linecap="round" stroke-linejoin="round"/>
<path d="M348.041 39.2515L340.931 46.2321" stroke="#151616" stroke-width="1.6875" stroke-linecap="round" stroke-linejoin="round"/>
</g>
<defs>
<clipPath id="clip0_104_1034">
<rect width="484.498" height="79.9594" fill="white"/>
</clipPath>
</defs>
</svg>
