<svg width="181" height="54" viewBox="0 0 181 54" fill="none" xmlns="http://www.w3.org/2000/svg">
<path d="M32.0952 52.8749L0.702113 53.0436C0.539221 53.042 0.381821 52.9845 0.256412 52.8805C0.131002 52.7765 0.0452384 52.6326 0.0135452 52.4728C-0.0181481 52.313 0.00616465 52.1471 0.0823985 52.0032C0.158632 51.8592 0.282129 51.746 0.432107 51.6824L34.424 37.3555L34.0696 37.6592L41.8884 24.9805C41.9491 24.8821 42.0312 24.7987 42.1286 24.7364C42.226 24.6741 42.3361 24.6344 42.4509 24.6205L55.5065 22.5055C55.6385 22.4826 55.7741 22.4942 55.9002 22.5392L73.5178 28.8842L72.6121 29.1823L81.1002 16.5149C81.1491 16.4483 81.2057 16.3879 81.269 16.3349L102.166 0.157345C102.262 0.0833983 102.375 0.0335818 102.494 0.0120512C102.613 -0.00947949 102.736 -0.00208114 102.852 0.0336118L134.178 9.91111C134.337 9.9611 134.474 10.0644 134.566 10.2036L149.557 32.743L149.225 32.4786L179.887 44.5049C179.966 44.5353 180.039 44.5812 180.1 44.64C180.162 44.6988 180.211 44.7693 180.245 44.8473C180.279 44.9253 180.297 45.0093 180.298 45.0944C180.3 45.1795 180.284 45.264 180.252 45.343C180.213 45.4418 180.151 45.5298 180.071 45.5993C179.99 45.6689 179.894 45.7179 179.791 45.7423C177.158 46.3048 174.537 46.9405 171.916 47.5592L164.041 49.4042L148.291 53.0942C148.237 53.1022 148.182 53.1022 148.128 53.0942C138.115 53.0942 112.932 53.1786 103.28 53.0942C99.5502 53.0549 92.0296 52.9536 88.3284 52.858C88.2092 52.8256 88.104 52.7549 88.029 52.6568C87.954 52.5587 87.9134 52.4387 87.9134 52.3152C87.9134 52.1917 87.954 52.0716 88.029 51.9735C88.104 51.8754 88.2092 51.8047 88.3284 51.7723C92.0577 51.6823 99.5502 51.5755 103.28 51.5417C112.499 51.4742 139.117 51.4686 147.942 51.5417C156.942 49.4999 170.588 46.513 179.476 44.443L179.386 45.6861L148.69 33.7667C148.556 33.7128 148.441 33.6209 148.358 33.5024L133.323 11.0024L133.717 11.2948L102.408 1.46235L103.088 1.34421L82.214 17.5498L82.3827 17.3698L73.8777 30.0486C73.7821 30.1927 73.6408 30.3005 73.4766 30.3545C73.3123 30.4086 73.1346 30.4058 72.9721 30.3467L55.3434 24.0298L55.7371 24.0692L42.6815 26.1786L43.244 25.8186L35.3971 38.4805C35.3147 38.6172 35.1904 38.7237 35.0427 38.7842L1.00024 52.9986L0.724618 51.6373L32.1177 51.8005C32.2369 51.8329 32.3421 51.9036 32.4171 52.0017C32.4921 52.0998 32.5327 52.2198 32.5327 52.3433C32.5327 52.4668 32.4921 52.5868 32.4171 52.6849C32.3421 52.783 32.2369 52.8537 32.1177 52.8861L32.0952 52.8749Z" fill="#000309"/>
</svg>
