<svg width="106" height="57" viewBox="0 0 106 57" fill="none" xmlns="http://www.w3.org/2000/svg">
<path d="M84.9343 56.0331L77.3743 54.2631C76.6743 54.0931 75.9943 52.8131 75.4943 50.3531L73.4943 40.8431L72.3442 41.1631C71.415 41.4469 70.4328 41.5119 69.4742 41.3531L61.7443 39.5431H61.6943C61.5991 39.5191 61.5055 39.4891 61.4142 39.4531H61.3342C61.2452 39.4218 61.161 39.378 61.0842 39.3231C61.0583 39.3322 61.0301 39.3322 61.0043 39.3231C60.9284 39.2779 60.8579 39.2243 60.7942 39.1631C60.79 39.1467 60.79 39.1295 60.7942 39.1131C60.7213 39.0525 60.6573 38.9818 60.6042 38.9031C59.8942 37.9031 60.4543 36.0231 62.2443 33.9031L65.8843 29.0631L69.4543 24.3331C69.5451 24.2173 69.6092 24.0828 69.642 23.9393C69.6749 23.7959 69.6756 23.6469 69.6442 23.5031L68.5743 17.6831L67.4642 11.6831C66.8842 9.19309 67.1043 7.39309 67.9543 6.68309C68.0342 6.61101 68.1213 6.54736 68.2142 6.4931C68.3741 6.40974 68.5463 6.35235 68.7242 6.32309C68.8538 6.30795 68.9847 6.30795 69.1142 6.32309C69.2801 6.33101 69.4445 6.35785 69.6042 6.40309L77.3243 8.21309C78.2548 8.49331 79.1073 8.98632 79.8143 9.65309L80.7043 10.4531L86.7043 2.8031C87.0943 2.3031 87.4642 1.89309 87.7942 1.54309C87.9742 1.36309 88.1242 1.20309 88.2742 1.06309C88.4163 0.927316 88.5666 0.800404 88.7242 0.683088C88.8554 0.581918 88.9923 0.48843 89.1343 0.40309C89.2671 0.279836 89.4259 0.187992 89.599 0.134337C89.7721 0.0806813 89.955 0.0665873 90.1343 0.0930922L97.7043 1.8631C99.0243 2.1731 99.7643 3.86309 99.1243 6.57309L95.5342 21.8831C95.5095 21.9764 95.5135 22.0749 95.5456 22.1659C95.5777 22.2568 95.6364 22.336 95.7142 22.3931L104.654 29.5131C105.069 29.8449 105.381 30.2875 105.554 30.7895C105.728 31.2915 105.755 31.8323 105.634 32.3493C105.513 32.8664 105.247 33.3384 104.868 33.7108C104.49 34.0831 104.013 34.3405 103.494 34.4531L92.3243 36.8731C92.2279 36.8881 92.1385 36.9328 92.0686 37.0009C91.9987 37.069 91.9518 37.1571 91.9343 37.2531L88.3342 52.5731C87.6842 55.3431 86.3342 56.4831 84.9742 56.1531" fill="#011C58"/>
<path d="M20.4937 20.8029C24.1437 21.6629 27.9637 18.7529 29.0037 14.3129C30.0437 9.87285 27.9137 5.58285 24.2637 4.73285C20.6137 3.88285 16.7937 6.78286 15.7537 11.2229C14.7137 15.6629 16.8337 19.9529 20.4937 20.8029Z" fill="#011C58"/>
<path d="M65.8738 28.963L22.5237 18.163C20.2137 17.623 18.8837 14.903 19.5237 12.093C20.1637 9.28303 22.5937 7.46303 24.8937 8.00303L68.5338 17.563L69.6138 23.383C69.6451 23.5268 69.6444 23.6758 69.6115 23.8193C69.5787 23.9627 69.5146 24.0972 69.4238 24.213L65.8538 28.953L65.8738 28.963Z" fill="#60BBE3"/>
<path d="M8.33388 1.43329C4.85388 0.613287 1.24386 3.37329 0.253858 7.59329C-0.736142 11.8133 1.25386 15.8933 4.75386 16.7033L20.4839 20.8033C16.8339 19.9433 14.7139 15.6533 15.7539 11.2233C16.7939 6.7933 20.6039 3.88329 24.2539 4.73329L8.33388 1.42329V1.43329Z" fill="#60BBE3"/>
<path d="M20.2842 10.253C20.7205 9.44098 21.402 8.78731 22.2316 8.38511C23.0611 7.98292 23.9963 7.85271 24.9042 8.01304L68.5442 17.573L69.1842 20.963L20.2842 10.2431V10.253Z" fill="#011C58"/>
<path d="M2.44434 3.46304C3.16035 2.63704 4.08326 2.01646 5.11835 1.66499C6.15343 1.31351 7.26343 1.24381 8.33435 1.46304L24.2544 4.76304C23.156 4.54831 22.0209 4.61948 20.958 4.96971C19.895 5.31993 18.9399 5.93746 18.1844 6.76304L2.44434 3.46304Z" fill="#011C58"/>
<path d="M77.3838 54.2928C76.6738 54.1228 76.0038 52.8429 75.4938 50.3829L73.4938 40.8728L72.7938 37.4828C72.7849 37.4316 72.7651 37.3829 72.7357 37.3401C72.7063 37.2972 72.6679 37.2612 72.6232 37.2346C72.5786 37.208 72.5287 37.1914 72.477 37.1859C72.4253 37.1804 72.373 37.1862 72.3238 37.2029L64.6738 39.3829C62.5238 39.9229 61.1738 39.6429 60.6238 38.8529C59.9138 37.8529 60.4738 35.9729 62.2638 33.8529L65.9037 29.0229L69.4637 24.2928C69.6364 24.053 69.7082 23.755 69.6637 23.4628L68.5837 17.6429L67.4737 11.6429C66.9037 9.15285 67.1237 7.35285 67.9737 6.64285C68.1869 6.44595 68.456 6.32015 68.7438 6.28285C68.8733 6.26743 69.0042 6.26743 69.1338 6.28285C69.2972 6.2817 69.4596 6.30877 69.6138 6.36285C70.5121 6.65896 71.3371 7.14304 72.0337 7.78285L78.0337 13.1629C78.1068 13.2355 78.2057 13.2763 78.3088 13.2763C78.4118 13.2763 78.5107 13.2355 78.5837 13.1629L80.6738 10.3329L86.6738 2.68284C87.0138 2.2464 87.3777 1.82909 87.7638 1.43284C87.9338 1.25285 88.0938 1.08285 88.2438 0.952849C88.3825 0.817299 88.5295 0.690389 88.6838 0.572844C88.8158 0.468103 88.9563 0.374453 89.1037 0.292846C89.2419 0.179432 89.4022 0.0959752 89.5743 0.0477742C89.7465 -0.000426836 89.9268 -0.0123188 90.1037 0.0128468C90.8837 0.192847 91.1038 1.73285 90.4238 4.45285L86.8337 19.7628C86.8141 19.8562 86.8205 19.9531 86.8522 20.0431C86.884 20.133 86.9399 20.2125 87.0138 20.2729L95.9538 27.3929C96.3723 27.7226 96.688 28.1649 96.8638 28.6679C97.0397 29.1708 97.0684 29.7135 96.9466 30.2322C96.8248 30.7509 96.5575 31.2241 96.1762 31.5962C95.7949 31.9683 95.3153 32.2238 94.7938 32.3329L83.6738 34.7529C83.5779 34.7692 83.4893 34.8143 83.4197 34.8822C83.35 34.9501 83.3026 35.0375 83.2837 35.1329L79.6738 50.4529C79.0238 53.1929 78.2037 54.4528 77.4037 54.2928" fill="#60BBE3"/>
<path d="M81.2142 18.643L78.0342 17.903C78.1028 17.9171 78.174 17.9114 78.2395 17.8866C78.305 17.8618 78.3621 17.8189 78.4042 17.763L79.0442 16.973L85.0442 9.54299C85.9442 8.44299 86.3942 8.663 86.0442 10.053L85.0442 14.163L81.5442 18.513C81.5025 18.5663 81.4466 18.6068 81.3829 18.6298C81.3192 18.6528 81.2504 18.6574 81.1842 18.643" fill="#011C58"/>
<path d="M77.0642 43.4733L75.0642 34.1833L74.8442 33.1833C74.8296 33.1162 74.7966 33.0544 74.749 33.005C74.7013 32.9555 74.6408 32.9203 74.5742 32.9033L77.7542 33.6433C77.8221 33.6611 77.8835 33.6978 77.9313 33.7491C77.9791 33.8005 78.0113 33.8644 78.0242 33.9333L79.2242 39.3733L78.2242 43.4833C77.9042 44.8733 77.3842 44.8633 77.0842 43.4833L77.0642 43.4733Z" fill="#011C58"/>
<path d="M66.3336 34.6332C65.3836 34.8332 65.1136 34.3832 65.6936 33.6332L72.3736 24.9432C72.4705 24.8247 72.539 24.6855 72.5737 24.5364C72.6083 24.3873 72.6083 24.2323 72.5736 24.0832L70.4636 13.4132C70.2836 12.4732 70.7436 12.2032 71.4636 12.7932L73.7136 14.5632L75.7136 24.8432C75.7427 24.9925 75.74 25.1463 75.7055 25.2945C75.671 25.4427 75.6057 25.582 75.5136 25.7032L69.1236 34.0332L66.3236 34.6332H66.3336Z" fill="#011C58"/>
</svg>
