<svg width="93" height="51" viewBox="0 0 93 51" fill="none" xmlns="http://www.w3.org/2000/svg">
<g clip-path="url(#clip0_145_17143)">
<path d="M16.8719 27.4389C12.9344 27.4896 4.91311 27.5796 0.964364 27.6021C0.800994 27.6018 0.642746 27.5451 0.516362 27.4416C0.389977 27.3381 0.303238 27.1941 0.270817 27.034C0.238396 26.8738 0.262259 26.7075 0.338418 26.5629C0.414577 26.4184 0.53834 26.3046 0.688744 26.2408L17.9069 18.9283L17.5525 19.2377L21.49 12.8027C21.5507 12.7043 21.6328 12.6209 21.7302 12.5586C21.8276 12.4963 21.9377 12.4567 22.0525 12.4427L28.6675 11.3683C28.7996 11.3482 28.9345 11.3598 29.0612 11.4021L37.9881 14.6252L37.0825 14.9233L41.3912 8.50518C41.4385 8.43734 41.4953 8.3767 41.56 8.32518L52.1575 0.12958C52.2529 0.0562097 52.3647 0.00709552 52.4832 -0.0134821C52.6018 -0.0340597 52.7236 -0.0254965 52.8381 0.0114431L68.7175 5.0233C68.8766 5.07329 69.0137 5.1766 69.1056 5.31581L76.6937 16.7514L76.3619 16.4814L91.8925 22.6014C91.9727 22.632 92.0461 22.6781 92.1085 22.737C92.1709 22.796 92.221 22.8667 92.256 22.9451C92.2911 23.0235 92.3102 23.108 92.3125 23.1938C92.3148 23.2796 92.3001 23.365 92.2694 23.4452C92.23 23.5442 92.1668 23.632 92.0853 23.7006C92.0039 23.7693 91.9067 23.8168 91.8025 23.8389C90.4637 24.1258 89.1362 24.4464 87.8087 24.7671L83.8262 25.7289L75.8669 27.6527C75.811 27.6612 75.754 27.6612 75.6981 27.6527C70.6356 27.6527 57.8556 27.7146 52.9562 27.6527L49.165 27.5683C47.905 27.5177 46.6394 27.4896 45.3794 27.4221C45.2602 27.3897 45.155 27.319 45.08 27.2209C45.005 27.1228 44.9644 27.0027 44.9644 26.8793C44.9644 26.7558 45.005 26.6357 45.08 26.5376C45.155 26.4395 45.2602 26.3688 45.3794 26.3364C46.6394 26.2689 47.905 26.2352 49.165 26.1846C51.5894 26.1058 58.0356 26.0496 60.5331 26.0327C60.28 26.0327 76.4631 26.0327 75.5069 26.0946C78.0494 25.5321 85.03 24.0358 87.5162 23.4846C88.8494 23.1977 90.1825 22.9221 91.51 22.5789L91.42 23.8164L75.85 17.8202C75.7138 17.77 75.5975 17.6773 75.5181 17.5558L67.885 6.1483L68.2787 6.44081L52.3881 1.45144L53.0744 1.32771L42.4994 9.55146L42.6625 9.37145L38.3706 15.8008C38.275 15.9449 38.1337 16.0527 37.9694 16.1068C37.8052 16.1608 37.6275 16.1581 37.465 16.0989L28.5269 12.8983L28.9206 12.9321L22.3 14.0008L22.8625 13.6408L18.8744 20.0533C18.7923 20.1916 18.6681 20.3 18.52 20.3627L1.25124 27.5346L0.981255 26.1733L8.93498 26.2408L16.8887 26.3421C17.0079 26.3745 17.1131 26.4452 17.1881 26.5433C17.2631 26.6414 17.3037 26.7614 17.3037 26.8849C17.3037 27.0084 17.2631 27.1284 17.1881 27.2265C17.1131 27.3246 17.0079 27.3953 16.8887 27.4277L16.8719 27.4389Z" fill="#181917"/>
<path d="M22.2044 41.3044C20.8151 42.7501 18.8744 43.2676 17.2207 44.2913C15.5051 45.1857 14.1157 46.7944 12.1582 47.1038C12.0443 47.1142 11.9297 47.0923 11.8277 47.0405C11.7257 46.9887 11.6404 46.9091 11.5816 46.811C11.5229 46.7128 11.493 46.6001 11.4955 46.4857C11.498 46.3713 11.5327 46.26 11.5957 46.1644C12.8557 44.6119 14.9426 44.2126 16.5794 43.1776C17.5357 42.8007 21.8444 39.1501 22.3338 40.7926C22.3531 40.8807 22.3509 40.9722 22.3274 41.0594C22.3039 41.1465 22.2598 41.2267 22.1988 41.2932L22.2044 41.3044Z" fill="#181917"/>
<path d="M12.1131 40.3656C14.0593 40.8437 15.4881 42.2668 17.1756 43.1781C18.8068 44.2131 20.8937 44.6124 22.1593 46.1649C22.22 46.2608 22.2529 46.3718 22.2543 46.4853C22.2557 46.5988 22.2256 46.7104 22.1673 46.8078C22.1089 46.9052 22.0248 46.9844 21.9241 47.0368C21.8233 47.0892 21.71 47.1125 21.5968 47.1043C19.6225 46.7893 18.2218 45.1749 16.5343 44.2918C15.7187 43.6393 10.4256 41.7662 11.59 40.5006C11.6565 40.4395 11.7367 40.3954 11.8238 40.3719C11.9109 40.3484 12.0024 40.3463 12.0906 40.3656H12.1131Z" fill="#181917"/>
<path d="M16.3318 49.5504C15.7693 47.6266 16.2981 45.686 16.2362 43.7397C16.3149 41.8047 15.6174 39.8022 16.3318 37.9291C16.3671 37.858 16.4161 37.7946 16.4759 37.7425C16.5358 37.6904 16.6054 37.6507 16.6806 37.6256C16.7559 37.6005 16.8354 37.5906 16.9146 37.5963C16.9937 37.6021 17.0709 37.6234 17.1418 37.6591C17.7043 38.0247 17.7043 38.8347 17.7043 39.3803C17.7324 40.8372 17.5018 42.2885 17.4962 43.7397C17.3443 44.7691 18.3624 50.2928 16.6862 49.9272C16.6004 49.9 16.5225 49.8526 16.4589 49.7889C16.3952 49.7253 16.3478 49.6474 16.3205 49.5616L16.3318 49.5504Z" fill="#181917"/>
<path d="M34.9788 34.1043C33.5894 35.5443 31.6488 36.0618 29.995 37.0912C28.2794 37.9856 26.89 39.5943 24.9325 39.9037C24.8186 39.9141 24.704 39.8922 24.6021 39.8404C24.5001 39.7886 24.4148 39.709 24.356 39.6109C24.2972 39.5127 24.2674 39.3999 24.2699 39.2856C24.2723 39.1712 24.307 39.0599 24.37 38.9644C25.63 37.4119 27.7169 37.0125 29.3538 35.9775C30.31 35.6006 34.6188 31.9444 35.1081 33.5925C35.1275 33.6806 35.1253 33.7722 35.1018 33.8593C35.0783 33.9464 35.0342 34.0266 34.9732 34.0931L34.9788 34.1043Z" fill="#181917"/>
<path d="M24.9155 33.1654C26.8617 33.6435 28.2905 35.0666 29.978 35.9779C31.6092 37.0129 33.7017 37.4122 34.9617 38.9647C35.0224 39.0607 35.0553 39.1715 35.0567 39.285C35.0581 39.3985 35.0279 39.5102 34.9696 39.6076C34.9113 39.705 34.8271 39.7843 34.7264 39.8366C34.6257 39.889 34.5124 39.9123 34.3992 39.9041C32.4248 39.5835 31.0242 37.9747 29.3367 37.0916C28.5211 36.4391 23.228 34.5604 24.3923 33.3004C24.4588 33.2393 24.539 33.1952 24.6262 33.1717C24.7133 33.1483 24.8048 33.1461 24.893 33.1654H24.9155Z" fill="#181917"/>
<path d="M29.1343 42.3452C28.5718 40.4271 29.1006 38.4808 29.0387 36.5402C29.1175 34.6052 28.42 32.6027 29.1343 30.7296C29.2057 30.5861 29.3309 30.4766 29.4826 30.425C29.6343 30.3733 29.8003 30.3838 29.9443 30.4539C30.5068 30.8252 30.5068 31.6296 30.5068 32.1808C30.535 33.6377 30.3044 35.0889 30.2987 36.5402C30.1469 37.5696 31.165 43.0877 29.4887 42.7277C29.4024 42.6999 29.324 42.6516 29.2603 42.587C29.1966 42.5223 29.1496 42.4432 29.1231 42.3564L29.1343 42.3452Z" fill="#181917"/>
<path d="M47.663 41.8612C46.2793 43.3012 44.3331 43.8243 42.6793 44.8481C40.9918 45.7425 39.5743 47.3512 37.6168 47.6606C37.5029 47.671 37.3883 47.649 37.2863 47.5972C37.1843 47.5454 37.099 47.4658 37.0403 47.3677C36.9815 47.2696 36.9516 47.1568 36.9541 47.0424C36.9566 46.9281 36.9913 46.8167 37.0543 46.7212C38.3143 45.1687 40.4293 44.7693 42.038 43.7343C42.9943 43.3574 47.303 39.7012 47.7924 41.3493C47.8117 41.4375 47.8095 41.529 47.786 41.6161C47.7625 41.7033 47.7184 41.7835 47.6574 41.85L47.663 41.8612Z" fill="#181917"/>
<path d="M37.5999 40.9212C39.5462 41.3993 40.9749 42.8225 42.6624 43.7337C44.2993 44.7687 46.3861 45.1681 47.6461 46.7206C47.7068 46.8165 47.7397 46.9274 47.7411 47.0409C47.7425 47.1544 47.7124 47.2661 47.6541 47.3635C47.5958 47.4609 47.5116 47.5401 47.4109 47.5925C47.3102 47.6448 47.1969 47.6682 47.0836 47.66C45.1093 47.3394 43.7086 45.7306 42.0211 44.8475C41.2055 44.195 35.9124 42.3162 37.0768 41.0562C37.1433 40.9952 37.2235 40.9511 37.3106 40.9276C37.3978 40.9041 37.4893 40.9019 37.5774 40.9212H37.5999Z" fill="#181917"/>
<path d="M41.8188 50.1077C41.2563 48.1839 41.785 46.2433 41.7231 44.297C41.8075 42.362 41.1044 40.3596 41.8188 38.4864C41.8901 38.3429 42.0153 38.2334 42.167 38.1818C42.3187 38.1302 42.4847 38.1406 42.6288 38.2108C43.1913 38.582 43.1913 39.3864 43.1913 39.9377C43.1913 41.3945 42.9944 42.8458 42.9888 44.297C42.8313 45.3264 43.8494 50.8445 42.1731 50.4845C42.0874 50.4573 42.0094 50.4099 41.9458 50.3462C41.8822 50.2826 41.8348 50.2047 41.8075 50.1189L41.8188 50.1077Z" fill="#181917"/>
</g>
<defs>
<clipPath id="clip0_145_17143">
<rect width="92.0644" height="50.49" fill="white" transform="translate(0.25)"/>
</clipPath>
</defs>
</svg>
