<svg width="221" height="101" viewBox="0 0 221 101" fill="none" xmlns="http://www.w3.org/2000/svg">
<path d="M32.0952 99.8749L0.702113 100.044C0.539221 100.042 0.381821 99.9845 0.256412 99.8805C0.131002 99.7765 0.0452384 99.6326 0.0135452 99.4728C-0.0181481 99.313 0.00616465 99.1471 0.0823985 99.0032C0.158632 98.8592 0.282129 98.746 0.432107 98.6824L34.424 84.3555L34.0696 84.6592L41.8884 71.9805C41.9491 71.8821 42.0312 71.7987 42.1286 71.7364C42.226 71.6741 42.3361 71.6344 42.4509 71.6205L55.5065 69.5055C55.6385 69.4826 55.7741 69.4942 55.9002 69.5392L73.5178 75.8842L72.6121 76.1823L81.1002 63.5149C81.1491 63.4483 81.2057 63.3879 81.269 63.3349L102.166 47.1573C102.262 47.0834 102.375 47.0336 102.494 47.0121C102.613 46.9905 102.736 46.9979 102.852 47.0336L134.178 56.9111C134.337 56.9611 134.474 57.0644 134.566 57.2036L149.557 79.743L149.225 79.4786L179.887 91.5049C179.966 91.5353 180.039 91.5812 180.1 91.64C180.162 91.6988 180.211 91.7693 180.245 91.8473C180.279 91.9253 180.297 92.0093 180.298 92.0944C180.3 92.1795 180.284 92.264 180.252 92.343C180.213 92.4418 180.151 92.5298 180.071 92.5993C179.99 92.6689 179.894 92.7179 179.791 92.7423C177.158 93.3048 174.537 93.9405 171.916 94.5592L164.041 96.4042L148.291 100.094C148.237 100.102 148.182 100.102 148.128 100.094C138.115 100.094 112.932 100.179 103.28 100.094C99.5502 100.055 92.0296 99.9536 88.3284 99.858C88.2092 99.8256 88.104 99.7549 88.029 99.6568C87.954 99.5587 87.9134 99.4387 87.9134 99.3152C87.9134 99.1917 87.954 99.0716 88.029 98.9735C88.104 98.8754 88.2092 98.8047 88.3284 98.7723C92.0577 98.6823 99.5502 98.5755 103.28 98.5417C112.499 98.4742 139.117 98.4686 147.942 98.5417C156.942 96.4999 170.588 93.513 179.476 91.443L179.386 92.6861L148.69 80.7667C148.556 80.7128 148.441 80.6209 148.358 80.5024L133.323 58.0024L133.717 58.2948L102.408 48.4623L103.088 48.3442L82.214 64.5498L82.3827 64.3698L73.8777 77.0486C73.7821 77.1927 73.6408 77.3005 73.4766 77.3545C73.3123 77.4086 73.1346 77.4058 72.9721 77.3467L55.3434 71.0298L55.7371 71.0692L42.6815 73.1786L43.244 72.8186L35.3971 85.4805C35.3147 85.6172 35.1904 85.7237 35.0427 85.7842L1.00024 99.9986L0.724618 98.6373L32.1177 98.8005C32.2369 98.8329 32.3421 98.9036 32.4171 99.0017C32.4921 99.0998 32.5327 99.2198 32.5327 99.3433C32.5327 99.4668 32.4921 99.5868 32.4171 99.6849C32.3421 99.783 32.2369 99.8537 32.1177 99.8861L32.0952 99.8749Z" fill="#000309"/>
<g clip-path="url(#clip0_106_720)">
<path d="M144.872 27.4389C140.934 27.4896 132.913 27.5796 128.964 27.6021C128.801 27.6018 128.643 27.5451 128.516 27.4416C128.39 27.3381 128.303 27.1941 128.271 27.034C128.238 26.8738 128.262 26.7075 128.338 26.5629C128.415 26.4184 128.538 26.3046 128.689 26.2408L145.907 18.9283L145.552 19.2377L149.49 12.8027C149.551 12.7043 149.633 12.6209 149.73 12.5586C149.828 12.4963 149.938 12.4567 150.052 12.4427L156.667 11.3683C156.8 11.3482 156.935 11.3598 157.061 11.4021L165.988 14.6252L165.083 14.9233L169.391 8.50518C169.438 8.43734 169.495 8.3767 169.56 8.32518L180.157 0.12958C180.253 0.0562097 180.365 0.00709552 180.483 -0.0134821C180.602 -0.0340597 180.724 -0.0254965 180.838 0.0114431L196.717 5.0233C196.877 5.07329 197.014 5.1766 197.106 5.31581L204.694 16.7514L204.362 16.4814L219.893 22.6014C219.973 22.632 220.046 22.6781 220.109 22.737C220.171 22.796 220.221 22.8667 220.256 22.9451C220.291 23.0235 220.31 23.108 220.313 23.1938C220.315 23.2796 220.3 23.365 220.269 23.4452C220.23 23.5442 220.167 23.632 220.085 23.7006C220.004 23.7693 219.907 23.8168 219.802 23.8389C218.464 24.1258 217.136 24.4464 215.809 24.7671L211.826 25.7289L203.867 27.6527C203.811 27.6612 203.754 27.6612 203.698 27.6527C198.636 27.6527 185.856 27.7146 180.956 27.6527L177.165 27.5683C175.905 27.5177 174.639 27.4896 173.379 27.4221C173.26 27.3897 173.155 27.319 173.08 27.2209C173.005 27.1228 172.964 27.0027 172.964 26.8793C172.964 26.7558 173.005 26.6357 173.08 26.5376C173.155 26.4395 173.26 26.3688 173.379 26.3364C174.639 26.2689 175.905 26.2352 177.165 26.1846C179.589 26.1058 186.036 26.0496 188.533 26.0327C188.28 26.0327 204.463 26.0327 203.507 26.0946C206.049 25.5321 213.03 24.0358 215.516 23.4846C216.849 23.1977 218.183 22.9221 219.51 22.5789L219.42 23.8164L203.85 17.8202C203.714 17.77 203.597 17.6773 203.518 17.5558L195.885 6.1483L196.279 6.44081L180.388 1.45144L181.074 1.32771L170.499 9.55146L170.662 9.37145L166.371 15.8008C166.275 15.9449 166.134 16.0527 165.969 16.1068C165.805 16.1608 165.628 16.1581 165.465 16.0989L156.527 12.8983L156.921 12.9321L150.3 14.0008L150.862 13.6408L146.874 20.0533C146.792 20.1916 146.668 20.3 146.52 20.3627L129.251 27.5346L128.981 26.1733L136.935 26.2408L144.889 26.3421C145.008 26.3745 145.113 26.4452 145.188 26.5433C145.263 26.6414 145.304 26.7614 145.304 26.8849C145.304 27.0084 145.263 27.1284 145.188 27.2265C145.113 27.3246 145.008 27.3953 144.889 27.4277L144.872 27.4389Z" fill="#181917"/>
<path d="M150.204 41.3044C148.815 42.7501 146.874 43.2676 145.221 44.2913C143.505 45.1857 142.116 46.7944 140.158 47.1038C140.044 47.1142 139.93 47.0923 139.828 47.0405C139.726 46.9887 139.64 46.9091 139.582 46.811C139.523 46.7128 139.493 46.6001 139.496 46.4857C139.498 46.3713 139.533 46.26 139.596 46.1644C140.856 44.6119 142.943 44.2126 144.579 43.1776C145.536 42.8007 149.844 39.1501 150.334 40.7926C150.353 40.8807 150.351 40.9722 150.327 41.0594C150.304 41.1465 150.26 41.2267 150.199 41.2932L150.204 41.3044Z" fill="#181917"/>
<path d="M140.113 40.3656C142.059 40.8437 143.488 42.2668 145.176 43.1781C146.807 44.2131 148.894 44.6124 150.159 46.1649C150.22 46.2608 150.253 46.3718 150.254 46.4853C150.256 46.5988 150.226 46.7104 150.167 46.8078C150.109 46.9052 150.025 46.9844 149.924 47.0368C149.823 47.0892 149.71 47.1125 149.597 47.1043C147.623 46.7893 146.222 45.1749 144.534 44.2918C143.719 43.6393 138.426 41.7662 139.59 40.5006C139.657 40.4395 139.737 40.3954 139.824 40.3719C139.911 40.3484 140.003 40.3463 140.091 40.3656H140.113Z" fill="#181917"/>
<path d="M144.332 49.5508C143.769 47.6271 144.298 45.6865 144.236 43.7402C144.315 41.8052 143.617 39.8027 144.332 37.9296C144.367 37.8585 144.416 37.7951 144.476 37.743C144.536 37.6909 144.605 37.6512 144.681 37.6261C144.756 37.601 144.835 37.591 144.915 37.5968C144.994 37.6025 145.071 37.6239 145.142 37.6596C145.704 38.0252 145.704 38.8352 145.704 39.3808C145.732 40.8377 145.502 42.289 145.496 43.7402C145.344 44.7696 146.362 50.2933 144.686 49.9277C144.6 49.9005 144.522 49.853 144.459 49.7894C144.395 49.7258 144.348 49.6479 144.321 49.5621L144.332 49.5508Z" fill="#181917"/>
<path d="M162.979 34.1039C161.589 35.5439 159.649 36.0614 157.995 37.0907C156.279 37.9851 154.89 39.5939 152.933 39.9032C152.819 39.9136 152.704 39.8917 152.602 39.8399C152.5 39.7881 152.415 39.7085 152.356 39.6104C152.297 39.5122 152.267 39.3995 152.27 39.2851C152.272 39.1707 152.307 39.0594 152.37 38.9639C153.63 37.4114 155.717 37.012 157.354 35.977C158.31 35.6001 162.619 31.9439 163.108 33.592C163.128 33.6802 163.125 33.7717 163.102 33.8588C163.078 33.9459 163.034 34.0261 162.973 34.0926L162.979 34.1039Z" fill="#181917"/>
<path d="M152.916 33.1649C154.862 33.643 156.291 35.0661 157.978 35.9774C159.609 37.0124 161.702 37.4117 162.962 38.9642C163.022 39.0602 163.055 39.171 163.057 39.2845C163.058 39.398 163.028 39.5097 162.97 39.6071C162.911 39.7045 162.827 39.7838 162.726 39.8361C162.626 39.8885 162.512 39.9118 162.399 39.9036C160.425 39.583 159.024 37.9742 157.337 37.0911C156.521 36.4386 151.228 34.5599 152.392 33.2999C152.459 33.2389 152.539 33.1948 152.626 33.1713C152.713 33.1478 152.805 33.1456 152.893 33.1649H152.916Z" fill="#181917"/>
<path d="M157.134 42.3452C156.572 40.4271 157.101 38.4808 157.039 36.5402C157.118 34.6052 156.42 32.6027 157.134 30.7296C157.206 30.5861 157.331 30.4766 157.483 30.425C157.634 30.3733 157.8 30.3838 157.944 30.4539C158.507 30.8252 158.507 31.6296 158.507 32.1808C158.535 33.6377 158.304 35.0889 158.299 36.5402C158.147 37.5696 159.165 43.0877 157.489 42.7277C157.402 42.6999 157.324 42.6516 157.26 42.587C157.197 42.5223 157.15 42.4432 157.123 42.3564L157.134 42.3452Z" fill="#181917"/>
<path d="M175.663 41.8612C174.279 43.3012 172.333 43.8243 170.679 44.8481C168.992 45.7425 167.574 47.3512 165.617 47.6606C165.503 47.671 165.388 47.649 165.286 47.5972C165.184 47.5454 165.099 47.4658 165.04 47.3677C164.981 47.2696 164.952 47.1568 164.954 47.0424C164.957 46.9281 164.991 46.8167 165.054 46.7212C166.314 45.1687 168.429 44.7693 170.038 43.7343C170.994 43.3574 175.303 39.7012 175.792 41.3493C175.812 41.4375 175.81 41.529 175.786 41.6161C175.763 41.7033 175.718 41.7835 175.657 41.85L175.663 41.8612Z" fill="#181917"/>
<path d="M165.6 40.9217C167.546 41.3998 168.975 42.823 170.662 43.7342C172.299 44.7692 174.386 45.1686 175.646 46.7211C175.707 46.817 175.74 46.9279 175.741 47.0414C175.743 47.1549 175.712 47.2666 175.654 47.364C175.596 47.4613 175.512 47.5406 175.411 47.593C175.31 47.6453 175.197 47.6687 175.084 47.6605C173.109 47.3399 171.709 45.7311 170.021 44.848C169.206 44.1955 163.912 42.3167 165.077 41.0567C165.143 40.9957 165.224 40.9516 165.311 40.9281C165.398 40.9046 165.489 40.9024 165.577 40.9217H165.6Z" fill="#181917"/>
<path d="M169.819 50.1077C169.256 48.1839 169.785 46.2433 169.723 44.297C169.808 42.362 169.104 40.3596 169.819 38.4864C169.89 38.3429 170.015 38.2334 170.167 38.1818C170.319 38.1302 170.485 38.1406 170.629 38.2108C171.191 38.582 171.191 39.3864 171.191 39.9377C171.191 41.3945 170.994 42.8458 170.989 44.297C170.831 45.3264 171.849 50.8445 170.173 50.4845C170.087 50.4573 170.009 50.4099 169.946 50.3462C169.882 50.2826 169.835 50.2047 169.808 50.1189L169.819 50.1077Z" fill="#181917"/>
</g>
<defs>
<clipPath id="clip0_106_720">
<rect width="92.0644" height="50.49" fill="white" transform="translate(128.25)"/>
</clipPath>
</defs>
</svg>
