<svg width="35" height="35" viewBox="0 0 35 35" fill="none" xmlns="http://www.w3.org/2000/svg">
<g clip-path="url(#clip0_16_60)">
<path d="M25.1694 14.209L17.8364 21.5391L17.4829 21.8926L9.79834 14.208L9.00342 15.0029L16.8335 22.8369L16.8345 22.8379L16.9019 22.8984C16.971 22.9554 17.0484 23.0016 17.1313 23.0361C17.2422 23.0822 17.3609 23.1064 17.481 23.1064C17.6011 23.1064 17.7206 23.0823 17.8315 23.0361C17.9145 23.0016 17.992 22.9554 18.061 22.8984L18.1274 22.8379L18.1284 22.8359L25.9634 15.0029L25.1694 14.209Z" fill="black" stroke="black"/>
</g>
<circle cx="17.5" cy="17.5" r="16.5" stroke="black" stroke-opacity="0.99" stroke-width="2"/>
<defs>
<clipPath id="clip0_16_60">
<rect width="17" height="34" fill="white" transform="matrix(-4.37114e-08 1 1 4.37114e-08 0 9)"/>
</clipPath>
</defs>
</svg>
