<svg width="198" height="93" viewBox="0 0 198 93" fill="none" xmlns="http://www.w3.org/2000/svg">
<path d="M197.799 54.9418C197.799 66.9437 188.07 76.6731 176.068 76.6731C164.066 76.6731 154.337 66.9437 154.337 54.9418C154.337 42.9399 164.066 33.2104 176.068 33.2104C188.07 33.2104 197.799 42.9399 197.799 54.9418Z" fill="#011C58"/>
<rect width="12.8337" height="26.6546" transform="translate(169.337 41.2104)" fill="#011C58"/>
<g clip-path="url(#clip0_106_829)">
<path d="M181.528 47.8945H181.46C181.266 49.4035 180.856 50.597 178.731 50.8165V50.8988C180.856 51.1183 181.263 52.3117 181.46 53.8207H181.528C181.722 52.3117 182.132 51.1183 184.253 50.8988V50.8165C182.128 50.597 181.722 49.4035 181.528 47.8945Z" fill="white"/>
<path d="M171.022 41.2104H170.932C170.67 43.2441 170.121 44.8526 167.254 45.1509V45.2607C170.118 45.559 170.667 47.1675 170.932 49.2012H171.022C171.284 47.1675 171.833 45.559 174.701 45.2607V45.1509C171.836 44.8526 171.287 43.2441 171.022 41.2104Z" fill="white"/>
<path d="M177.798 53.4708H177.759C177.646 54.3351 177.413 55.0175 176.196 55.1444V55.1924C177.413 55.3193 177.646 56.0018 177.759 56.866H177.798C177.911 56.0018 178.143 55.3193 179.361 55.1924V55.1444C178.143 55.0175 177.911 54.3351 177.798 53.4708Z" fill="white"/>
<path d="M180.217 44.5988C179.7 44.05 179.119 43.7242 178.721 43.7242C178.579 43.7242 178.463 43.7654 178.379 43.8546C178.314 43.9232 167.58 55.3194 167.518 55.3845C167.205 55.7172 167.518 56.5917 168.219 57.3359C168.92 58.0801 169.743 58.4128 170.057 58.0801C170.118 58.0149 180.856 46.6153 180.917 46.5501C181.231 46.2175 180.917 45.343 180.217 44.5988ZM177.358 48.8719C177.223 48.6421 177.052 48.4055 176.842 48.1826C176.632 47.9597 176.409 47.7745 176.193 47.6339L178.857 44.8045C179.015 44.88 179.267 45.0446 179.532 45.3258C179.8 45.6105 179.952 45.8745 180.023 46.0426L177.358 48.8719Z" fill="white"/>
</g>
<path d="M174.592 66.3273H173.761L176.164 59.7819H176.982L179.386 66.3273H178.555L176.599 60.8174H176.548L174.592 66.3273ZM174.898 63.7705H178.248V64.4736H174.898V63.7705Z" fill="white"/>
<path d="M172.914 59.7819V66.3273H172.121V59.7819H172.914Z" fill="white"/>
<path d="M109.663 72.4754L109.213 69.3254V65.4104H111.403V69.3254L110.953 72.4754H109.663ZM110.308 76.4504C109.543 76.4504 108.928 75.8354 108.928 75.0704C108.928 74.3054 109.543 73.6904 110.308 73.6904C111.073 73.6904 111.688 74.3054 111.688 75.0704C111.688 75.8354 111.073 76.4504 110.308 76.4504Z" fill="#011C58"/>
<path d="M97.8987 76.2105L95.6937 68.4855V68.1105H97.7637L98.9637 73.1355H99.2037L100.809 68.1105H102.849L104.454 73.1355H104.694L105.894 68.1105H107.964V68.4855L105.759 76.2105H103.509L101.949 71.2905H101.709L100.149 76.2105H97.8987Z" fill="#011C58"/>
<path d="M90.757 76.4505C88.852 76.4505 87.112 75.2955 86.707 73.4655V70.8555C87.112 69.0255 88.852 67.8705 90.757 67.8705C92.662 67.8705 94.402 69.0255 94.807 70.8555V73.4655C94.402 75.2955 92.662 76.4505 90.757 76.4505ZM90.757 74.5605C91.672 74.5605 92.512 74.0805 92.707 73.2255V71.0955C92.512 70.2405 91.672 69.7605 90.757 69.7605C89.842 69.7605 89.002 70.2405 88.807 71.0955V73.2255C89.002 74.0805 89.842 74.5605 90.757 74.5605Z" fill="#011C58"/>
<path d="M77.5459 76.2105V68.1105H79.1959L79.6309 69.1605C80.0959 68.3655 80.9659 67.8705 82.0309 67.8705C83.9209 67.8705 85.0759 69.1905 85.0759 71.1255V76.2105H82.9759V71.2905C82.8259 70.3005 82.2409 69.8205 81.3709 69.8205C80.5009 69.8205 79.8109 70.3455 79.6459 71.2905V76.2105H77.5459Z" fill="#011C58"/>
<path d="M71.2843 76.2105C69.5593 76.2105 68.4943 75.3555 68.4943 73.6305V70.0605H67.2643V68.1105H68.4943V67.8105L69.4843 66.0105H70.5943V68.1105H72.4543V70.0605H70.5943V73.3005C70.5943 73.9155 70.8493 74.2605 71.4643 74.2605H72.3193V76.2105H71.2843Z" fill="#011C58"/>
<path d="M63.6445 76.2105V68.1105H65.7445V76.2105H63.6445ZM64.6945 67.0305C63.9295 67.0305 63.3145 66.4155 63.3145 65.6505C63.3145 64.8855 63.9295 64.2705 64.6945 64.2705C65.4595 64.2705 66.0744 64.8855 66.0744 65.6505C66.0744 66.4155 65.4595 67.0305 64.6945 67.0305Z" fill="#011C58"/>
<path d="M51.473 79.5105V77.5605H52.628C53.348 77.5605 53.678 77.3055 53.678 76.8255C53.678 76.6455 53.573 76.3005 53.408 75.8505L50.603 68.4855V68.1105H52.763L54.713 73.6005H54.953L56.828 68.1105H58.973V68.4855L55.433 77.8005C54.968 79.0305 54.278 79.5105 52.553 79.5105H51.473Z" fill="#011C58"/>
<path d="M45.1582 76.2105V68.1105H46.8082L47.2582 69.1905C47.5432 68.5455 48.0382 68.1105 48.8182 68.1105H49.7482V70.1205H48.5932C47.8282 70.1205 47.3782 70.5105 47.2582 71.2755V76.2105H45.1582Z" fill="#011C58"/>
<path d="M39.7184 76.2104V67.4204H36.7184V65.4104H44.9684V67.4204H41.9684V76.2104H39.7184Z" fill="#011C58"/>
<path d="M144.957 56.8205L144.852 54.2705H145.392C146.352 54.2705 147.087 53.8805 147.207 52.8305C147.222 52.7705 147.237 52.7255 147.237 52.5455V52.0205C147.237 51.9455 147.222 51.8255 147.207 51.7655C147.072 50.9555 146.442 50.4605 145.527 50.4605C144.522 50.4605 143.847 50.9405 143.412 51.9155L142.287 51.2555C142.827 49.9655 143.937 49.2155 145.557 49.2155C147.297 49.2155 148.437 50.1305 148.632 51.6155C148.647 51.6605 148.662 51.7955 148.662 51.8555V52.6055C148.662 52.7705 148.647 52.8155 148.647 52.8455C148.512 54.2705 147.582 55.1555 146.217 55.3205L145.992 56.8205H144.957ZM145.482 60.4205C144.927 60.4205 144.477 59.9705 144.477 59.4155C144.477 58.8605 144.927 58.4255 145.482 58.4255C146.037 58.4255 146.472 58.8605 146.472 59.4155C146.472 59.9705 146.037 60.4205 145.482 60.4205Z" fill="#011C58"/>
<path d="M134.59 60.2104V52.1104H135.655L135.985 53.1754C136.435 52.4854 137.26 51.9154 138.445 51.9154C140.335 51.9154 141.43 53.0854 141.43 55.0204V60.2104H140.035V55.0954C139.975 54.0454 139.375 53.2054 138.1 53.2054C137.125 53.2054 136.345 53.7754 135.985 54.6904V60.2104H134.59Z" fill="#011C58"/>
<path d="M128.739 60.4204C126.909 60.4204 125.214 59.2954 124.839 57.3004C124.809 57.1354 124.794 56.9854 124.794 56.8054V55.5304C124.794 55.3504 124.809 55.1854 124.839 55.0354C125.214 53.0404 126.909 51.9154 128.739 51.9154C130.584 51.9154 132.264 53.0404 132.654 55.0354C132.669 55.1854 132.699 55.3504 132.699 55.5304V56.8054C132.699 56.9854 132.669 57.1354 132.654 57.3004C132.264 59.2954 130.584 60.4204 128.739 60.4204ZM128.739 59.1604C129.879 59.1604 131.019 58.4704 131.274 57.1654C131.289 57.0304 131.304 56.8804 131.304 56.7154V55.6204C131.304 55.4554 131.289 55.3054 131.274 55.1704C131.019 53.8504 129.879 53.1754 128.739 53.1754C127.599 53.1754 126.474 53.8504 126.219 55.1704C126.189 55.3054 126.189 55.4554 126.189 55.6204V56.7154C126.189 56.8804 126.189 57.0304 126.219 57.1654C126.474 58.4704 127.599 59.1604 128.739 59.1604Z" fill="#011C58"/>
<path d="M121.495 60.2104V52.1104H122.89V60.2104H121.495ZM122.2 50.6704C121.645 50.6704 121.195 50.2204 121.195 49.6654C121.195 49.1104 121.645 48.6604 122.2 48.6604C122.755 48.6604 123.19 49.1104 123.19 49.6654C123.19 50.2204 122.755 50.6704 122.2 50.6704Z" fill="#011C58"/>
<path d="M116.572 60.4204C115.207 60.4204 114.067 59.7754 113.467 58.7104L114.487 57.8554C114.847 58.6954 115.732 59.2204 116.572 59.2204C117.427 59.2204 118.042 58.8604 118.207 58.2604C118.207 58.1854 118.222 58.1104 118.222 58.0354V57.8104C118.222 57.7654 118.207 57.7054 118.207 57.6454C118.087 57.2254 117.742 56.9554 116.887 56.7304L115.642 56.4154C114.592 56.1454 113.977 55.5904 113.797 54.7504C113.782 54.6604 113.767 54.5704 113.767 54.4804V53.9554C113.767 53.8804 113.782 53.7904 113.797 53.7154C114.052 52.6654 115.222 51.9154 116.662 51.9154C117.922 51.9154 118.912 52.4254 119.572 53.3854L118.612 54.1804C118.132 53.4304 117.502 53.1154 116.617 53.1154C115.867 53.1154 115.282 53.4304 115.132 53.9404C115.117 54.0004 115.117 54.0454 115.117 54.1054V54.2404C115.117 54.2854 115.132 54.3304 115.132 54.3754C115.252 54.8404 115.642 55.1254 116.392 55.3054L117.517 55.5754C118.657 55.8454 119.272 56.3704 119.527 57.1354C119.557 57.2404 119.587 57.3604 119.587 57.4804V58.1854C119.587 58.3354 119.572 58.4554 119.527 58.5904C119.182 59.7004 118.102 60.4204 116.572 60.4204Z" fill="#011C58"/>
<path d="M108.516 60.2105V52.1105H109.581L109.896 53.1155C110.211 52.5005 110.781 52.1105 111.576 52.1105H112.491V53.4455H111.441C110.571 53.4455 109.971 53.8805 109.911 55.0355V60.2105H108.516Z" fill="#011C58"/>
<path d="M103.03 60.4204C100.855 60.4204 99.5502 59.1004 99.1452 57.2254C99.1302 57.0904 99.1152 56.9254 99.1152 56.7904V55.5454C99.1152 55.4104 99.1302 55.2604 99.1452 55.1254C99.5652 53.2804 100.87 51.9154 102.955 51.9154C105.01 51.9154 106.285 53.1454 106.615 54.9454C106.645 55.0804 106.66 55.2454 106.66 55.3804V56.4004L106.48 56.5804H100.495C100.645 58.1854 101.56 59.1604 103.03 59.1604C104.11 59.1604 104.77 58.7704 105.4 57.9454L106.36 58.8004C105.625 59.8054 104.59 60.4204 103.03 60.4204ZM100.525 55.4554H105.31C105.22 54.1054 104.29 53.1454 102.97 53.1454C101.575 53.1454 100.72 54.1204 100.525 55.4554Z" fill="#011C58"/>
<path d="M93.5382 60.2105L90.4332 52.3655V52.1105H91.8732L94.2732 58.6355H94.4682L96.8982 52.1105H98.3082V52.3655L95.2182 60.2105H93.5382Z" fill="#011C58"/>
<path d="M81.4139 60.4205C79.7039 60.4205 78.5039 59.4455 78.0689 57.7805C77.9639 57.2855 77.9189 56.7455 77.9189 56.1605C77.9189 55.6055 77.9639 55.0655 78.0539 54.5705C78.4889 52.9205 79.6739 51.9155 81.5189 51.9155C82.5989 51.9155 83.5289 52.3205 84.1439 53.0555V48.5105H85.5389V60.2105H84.4889L84.1439 59.1905C83.4989 60.0455 82.6739 60.4205 81.4139 60.4205ZM81.8189 59.1605C82.9439 59.1605 83.6639 58.7255 84.1439 57.6455V54.7655C83.6789 53.7605 82.8089 53.1755 81.8189 53.1755C80.5439 53.1755 79.7039 53.8955 79.3889 55.0355C79.3289 55.3955 79.2839 55.7705 79.2839 56.1605C79.2839 56.5655 79.3289 56.9255 79.3889 57.2855C79.7039 58.4555 80.5289 59.1605 81.8189 59.1605Z" fill="#011C58"/>
<path d="M72.913 60.4204C70.738 60.4204 69.433 59.1004 69.028 57.2254C69.013 57.0904 68.998 56.9254 68.998 56.7904V55.5454C68.998 55.4104 69.013 55.2604 69.028 55.1254C69.448 53.2804 70.753 51.9154 72.838 51.9154C74.893 51.9154 76.168 53.1454 76.498 54.9454C76.528 55.0804 76.543 55.2454 76.543 55.3804V56.4004L76.363 56.5804H70.378C70.528 58.1854 71.443 59.1604 72.913 59.1604C73.993 59.1604 74.653 58.7704 75.283 57.9454L76.243 58.8004C75.508 59.8054 74.473 60.4204 72.913 60.4204ZM70.408 55.4554H75.193C75.103 54.1054 74.173 53.1454 72.853 53.1454C71.458 53.1454 70.603 54.1204 70.408 55.4554Z" fill="#011C58"/>
<path d="M61.6567 60.2105V58.9505L65.8417 53.5955V53.4005H61.8067V52.1105H67.6117V53.3705L63.4267 58.7405V58.9205H67.7617V60.2105H61.6567Z" fill="#011C58"/>
<path d="M58.4625 60.2104V52.1104H59.8575V60.2104H58.4625ZM59.1675 50.6704C58.6125 50.6704 58.1625 50.2204 58.1625 49.6654C58.1625 49.1104 58.6125 48.6604 59.1675 48.6604C59.7225 48.6604 60.1575 49.1104 60.1575 49.6654C60.1575 50.2204 59.7225 50.6704 59.1675 50.6704Z" fill="#011C58"/>
<path d="M52.647 60.2105V52.1105H53.712L54.027 53.1155C54.342 52.5005 54.912 52.1105 55.707 52.1105H56.622V53.4455H55.572C54.702 53.4455 54.102 53.8805 54.042 55.0355V60.2105H52.647Z" fill="#011C58"/>
<path d="M46.5324 60.4205C45.0624 60.4205 43.9524 59.5505 43.8324 58.2755V57.3455C44.0274 56.0405 45.1524 55.2155 46.8174 55.2155C47.6274 55.2155 48.3324 55.4105 48.9324 55.7555V54.9455C48.9324 53.8505 48.5574 53.4005 47.4174 53.4005H44.5524V52.1105H47.5074C49.5924 52.1105 50.3274 53.0105 50.3274 54.9305V60.2105H49.2624L48.9474 59.1455C48.3174 60.0155 47.5674 60.4205 46.5324 60.4205ZM46.8024 59.1755C47.6574 59.1755 48.2874 58.8905 48.9324 58.1405V57.0155C48.4074 56.5805 47.7924 56.3705 46.9074 56.3705C45.9024 56.3705 45.2724 56.8055 45.1824 57.5855V57.9905C45.2574 58.6955 45.9324 59.1755 46.8024 59.1755Z" fill="#011C58"/>
<path d="M30.7036 60.2104V52.1104H31.7686L32.0986 53.1754C32.5636 52.3804 33.4336 51.9154 34.4236 51.9154C35.4736 51.9154 36.2986 52.4404 36.7186 53.3854C37.2736 52.4254 38.1436 51.9154 39.2536 51.9154C40.9486 51.9154 41.9686 53.0404 41.9686 54.9004V60.2104H40.5736V54.9904C40.5136 53.8654 39.8836 53.2054 38.8486 53.2054C38.0386 53.2054 37.3936 53.7004 37.0336 54.6604V60.2104H35.6386V54.9904C35.5786 53.8204 34.9936 53.2054 33.9286 53.2054C33.1036 53.2054 32.4586 53.7004 32.0986 54.6604V60.2104H30.7036Z" fill="#011C58"/>
<path d="M17.1099 60.2104V52.1104H18.1749L18.5049 53.1754C18.9699 52.3804 19.8399 51.9154 20.8299 51.9154C21.8799 51.9154 22.7049 52.4404 23.1249 53.3854C23.6799 52.4254 24.5499 51.9154 25.6599 51.9154C27.3549 51.9154 28.3749 53.0404 28.3749 54.9004V60.2104H26.9799V54.9904C26.9199 53.8654 26.2899 53.2054 25.2549 53.2054C24.4449 53.2054 23.7999 53.7004 23.4399 54.6604V60.2104H22.0449V54.9904C21.9849 53.8204 21.3999 53.2054 20.3349 53.2054C19.5099 53.2054 18.8649 53.7004 18.5049 54.6604V60.2104H17.1099Z" fill="#011C58"/>
<path d="M10.9379 60.4205C9.0629 60.4205 7.9679 59.3105 7.9679 57.3755V52.1105H9.3629V57.2405C9.4229 58.2755 10.0529 59.1305 11.2829 59.1305C12.2579 59.1305 12.9779 58.5605 13.3229 57.6455V52.1105H14.7179V60.2105H13.6679L13.3379 59.1455C12.9029 59.8505 12.1679 60.4205 10.9379 60.4205Z" fill="#011C58"/>
<path d="M3.105 60.4204C1.74 60.4204 0.6 59.7754 0 58.7104L1.02 57.8554C1.38 58.6954 2.265 59.2204 3.105 59.2204C3.96 59.2204 4.575 58.8604 4.74 58.2604C4.74 58.1854 4.755 58.1104 4.755 58.0354V57.8104C4.755 57.7654 4.74 57.7054 4.74 57.6454C4.62 57.2254 4.275 56.9554 3.42 56.7304L2.175 56.4154C1.125 56.1454 0.51 55.5904 0.33 54.7504C0.315 54.6604 0.299999 54.5704 0.299999 54.4804V53.9554C0.299999 53.8804 0.315 53.7904 0.33 53.7154C0.585 52.6654 1.755 51.9154 3.195 51.9154C4.455 51.9154 5.445 52.4254 6.105 53.3854L5.145 54.1804C4.665 53.4304 4.035 53.1154 3.15 53.1154C2.4 53.1154 1.815 53.4304 1.665 53.9404C1.65 54.0004 1.65 54.0454 1.65 54.1054V54.2404C1.65 54.2854 1.665 54.3304 1.665 54.3754C1.785 54.8404 2.175 55.1254 2.925 55.3054L4.05 55.5754C5.19 55.8454 5.805 56.3704 6.06 57.1354C6.09 57.2404 6.12 57.3604 6.12 57.4804V58.1854C6.12 58.3354 6.105 58.4554 6.06 58.5904C5.715 59.7004 4.635 60.4204 3.105 60.4204Z" fill="#011C58"/>
<path d="M120.507 44.4205C119.037 44.4205 117.927 43.5505 117.807 42.2755V41.3455C118.002 40.0405 119.127 39.2155 120.792 39.2155C121.602 39.2155 122.307 39.4105 122.907 39.7555V38.9455C122.907 37.8505 122.532 37.4005 121.392 37.4005H118.527V36.1105H121.482C123.567 36.1105 124.302 37.0105 124.302 38.9305V44.2105H123.237L122.922 43.1455C122.292 44.0155 121.542 44.4205 120.507 44.4205ZM120.777 43.1755C121.632 43.1755 122.262 42.8905 122.907 42.1405V41.0155C122.382 40.5805 121.767 40.3705 120.882 40.3705C119.877 40.3705 119.247 40.8055 119.157 41.5855V41.9905C119.232 42.6955 119.907 43.1755 120.777 43.1755Z" fill="#011C58"/>
<path d="M108.045 44.4205C106.335 44.4205 105.135 43.4455 104.7 41.7805C104.595 41.2855 104.55 40.7455 104.55 40.1605C104.55 39.6055 104.595 39.0655 104.685 38.5705C105.12 36.9205 106.305 35.9155 108.15 35.9155C109.23 35.9155 110.16 36.3205 110.775 37.0555V32.5105H112.17V44.2105H111.12L110.775 43.1905C110.13 44.0455 109.305 44.4205 108.045 44.4205ZM108.45 43.1605C109.575 43.1605 110.295 42.7255 110.775 41.6455V38.7655C110.31 37.7605 109.44 37.1755 108.45 37.1755C107.175 37.1755 106.335 37.8955 106.02 39.0355C105.96 39.3955 105.915 39.7705 105.915 40.1605C105.915 40.5655 105.96 40.9255 106.02 41.2855C106.335 42.4555 107.16 43.1605 108.45 43.1605Z" fill="#011C58"/>
<path d="M99.5439 44.4204C97.3689 44.4204 96.0639 43.1004 95.6589 41.2254C95.6439 41.0904 95.6289 40.9254 95.6289 40.7904V39.5454C95.6289 39.4104 95.6439 39.2604 95.6589 39.1254C96.0789 37.2804 97.3839 35.9154 99.4689 35.9154C101.524 35.9154 102.799 37.1454 103.129 38.9454C103.159 39.0804 103.174 39.2454 103.174 39.3804V40.4004L102.994 40.5804H97.0089C97.1589 42.1854 98.0739 43.1604 99.5439 43.1604C100.624 43.1604 101.284 42.7704 101.914 41.9454L102.874 42.8004C102.139 43.8054 101.104 44.4204 99.5439 44.4204ZM97.0389 39.4554H101.824C101.734 38.1054 100.804 37.1454 99.4839 37.1454C98.0889 37.1454 97.2339 38.1204 97.0389 39.4554Z" fill="#011C58"/>
<path d="M90.623 44.4204C88.448 44.4204 87.143 43.1004 86.738 41.2254C86.723 41.0904 86.708 40.9254 86.708 40.7904V39.5454C86.708 39.4104 86.723 39.2604 86.738 39.1254C87.158 37.2804 88.463 35.9154 90.548 35.9154C92.603 35.9154 93.878 37.1454 94.208 38.9454C94.238 39.0804 94.253 39.2454 94.253 39.3804V40.4004L94.073 40.5804H88.088C88.238 42.1854 89.153 43.1604 90.623 43.1604C91.703 43.1604 92.363 42.7704 92.993 41.9454L93.953 42.8004C93.218 43.8054 92.183 44.4204 90.623 44.4204ZM88.118 39.4554H92.903C92.813 38.1054 91.883 37.1454 90.563 37.1454C89.168 37.1454 88.313 38.1204 88.118 39.4554Z" fill="#011C58"/>
<path d="M78.0181 44.2104V36.1104H79.0831L79.4131 37.1754C79.8631 36.4854 80.6881 35.9154 81.8731 35.9154C83.7631 35.9154 84.8581 37.0854 84.8581 39.0204V44.2104H83.4631V39.0954C83.4031 38.0454 82.8031 37.2054 81.5281 37.2054C80.5531 37.2054 79.7731 37.7754 79.4131 38.6904V44.2104H78.0181Z" fill="#011C58"/>
<path d="M68.1254 44.4205C66.2504 44.4205 65.1554 43.3105 65.1554 41.3755V36.1105H66.5504V41.2405C66.6104 42.2755 67.2404 43.1305 68.4704 43.1305C69.4454 43.1305 70.1654 42.5605 70.5104 41.6455V36.1105H71.9054V44.2105H70.8554L70.5254 43.1455C70.0904 43.8505 69.3554 44.4205 68.1254 44.4205Z" fill="#011C58"/>
<path d="M59.3639 44.4204C57.5339 44.4204 55.8389 43.2954 55.4639 41.3004C55.4339 41.1354 55.4189 40.9854 55.4189 40.8054V39.5304C55.4189 39.3504 55.4339 39.1854 55.4639 39.0354C55.8389 37.0404 57.5339 35.9154 59.3639 35.9154C61.2089 35.9154 62.8889 37.0404 63.2789 39.0354C63.2939 39.1854 63.3239 39.3504 63.3239 39.5304V40.8054C63.3239 40.9854 63.2939 41.1354 63.2789 41.3004C62.8889 43.2954 61.2089 44.4204 59.3639 44.4204ZM59.3639 43.1604C60.5039 43.1604 61.6439 42.4704 61.8989 41.1654C61.9139 41.0304 61.9289 40.8804 61.9289 40.7154V39.6204C61.9289 39.4554 61.9139 39.3054 61.8989 39.1704C61.6439 37.8504 60.5039 37.1754 59.3639 37.1754C58.2239 37.1754 57.0989 37.8504 56.8439 39.1704C56.8139 39.3054 56.8139 39.4554 56.8139 39.6204V40.7154C56.8139 40.8804 56.8139 41.0304 56.8439 41.1654C57.0989 42.4704 58.2239 43.1604 59.3639 43.1604Z" fill="#011C58"/>
<path d="M47.6533 47.5105V46.2205H48.5983C49.4833 46.2205 49.9183 45.8905 49.9183 45.1405C49.9183 44.8705 49.8133 44.5855 49.6333 44.1055L46.6483 36.3655V36.1105H48.1033L50.6083 42.9355H50.7883L53.0233 36.1105H54.4333V36.3655L51.2233 45.5305C50.6983 47.0605 50.0983 47.5105 48.5683 47.5105H47.6533Z" fill="#011C58"/>
<path d="M38.3141 44.4204C36.4841 44.4204 34.7891 43.2954 34.4141 41.3004C34.3841 41.1354 34.3691 40.9854 34.3691 40.8054V39.5304C34.3691 39.3504 34.3841 39.1854 34.4141 39.0354C34.7891 37.0404 36.4841 35.9154 38.3141 35.9154C40.1591 35.9154 41.8391 37.0404 42.2291 39.0354C42.2441 39.1854 42.2741 39.3504 42.2741 39.5304V40.8054C42.2741 40.9854 42.2441 41.1354 42.2291 41.3004C41.8391 43.2954 40.1591 44.4204 38.3141 44.4204ZM38.3141 43.1604C39.4541 43.1604 40.5941 42.4704 40.8491 41.1654C40.8641 41.0304 40.8791 40.8804 40.8791 40.7154V39.6204C40.8791 39.4554 40.8641 39.3054 40.8491 39.1704C40.5941 37.8504 39.4541 37.1754 38.3141 37.1754C37.1741 37.1754 36.0491 37.8504 35.7941 39.1704C35.7641 39.3054 35.7641 39.4554 35.7641 39.6204V40.7154C35.7641 40.8804 35.7641 41.0304 35.7941 41.1654C36.0491 42.4704 37.1741 43.1604 38.3141 43.1604Z" fill="#011C58"/>
<path d="M24.5687 44.2104V33.4104H28.0187C30.7337 33.4104 32.4587 34.9104 32.8187 37.3404C32.8337 37.4604 32.8337 37.5654 32.8337 37.6854V39.9054C32.8337 40.0254 32.8337 40.1304 32.8187 40.2354C32.4587 42.6954 30.7187 44.2104 28.0187 44.2104H24.5687ZM28.0337 42.8754C29.9837 42.8754 31.1087 41.8704 31.3337 40.0404C31.3337 39.9204 31.3487 39.8004 31.3487 39.6654V37.9554C31.3487 37.8354 31.3337 37.7004 31.3337 37.5804C31.1087 35.7654 29.9687 34.7454 28.0337 34.7454H26.0537V42.8754H28.0337Z" fill="#011C58"/>
<path d="M156.169 70.0635C154.284 71.7572 152.216 73.1992 149.838 74.2891C146.484 75.8319 142.692 76.6929 138.374 76.7127C134.324 76.7304 130.031 75.9926 125.352 73.9365C123.932 73.3166 122.539 72.5656 121.195 71.5137C120.83 72.7217 120.928 72.9981 122.38 73.9394C124.153 75.0977 125.959 75.9284 127.745 76.5707C132.236 78.2133 136.265 78.5724 140.108 78.4115C145.771 78.1681 150.419 76.496 154.387 73.8455C154.979 73.4502 155.402 72.8522 156.382 72.6451C156.153 73.673 155.989 74.5718 155.761 75.4318C155.631 75.9191 155.683 76.4514 155.951 77.0757C156.028 77.2477 156.201 77.4892 156.351 77.5875C156.635 77.7573 156.731 77.5751 156.777 77.4031C157.148 76.1889 157.508 74.9644 157.895 73.7543C158.207 72.7469 158.539 71.76 158.851 70.7526C158.878 70.683 158.899 70.6195 158.927 70.5499C159.313 69.1944 158.784 68.4596 157.027 68.0383C155.023 67.5558 153.047 67.149 151.069 66.7647C150.022 66.5582 149.936 66.8347 150.402 67.9053C150.636 68.4601 150.953 68.6381 151.426 68.7403C152.687 68.9999 153.956 69.2923 155.236 69.5949C155.489 69.6501 155.739 69.5825 156.185 70.0675" fill="#60BBE3"/>
<g clip-path="url(#clip1_106_829)">
<path d="M40.8137 10.0546L38.6989 1.28876V0.772339H41.3033L42.3853 6.44407H42.6442L43.805 0.772339H46.7697L47.9305 6.44407H48.188L49.2699 0.772339H51.8744V1.28876L49.761 10.0546H46.5122L45.4168 4.18937H45.1594L44.064 10.0546H40.8151H40.8137Z" fill="black"/>
<path d="M52.5574 7.65718V5.49177C53.0857 3.816 54.3879 2.88733 56.1024 2.88733C57.8169 2.88733 59.1191 3.81451 59.6474 5.49177V7.65718C59.1191 9.33295 57.8169 10.2616 56.1024 10.2616C54.3879 10.2616 53.0857 9.33444 52.5574 7.65718ZM57.3272 7.42501V5.72245C57.1471 5.20603 56.6828 4.89796 56.1024 4.89796C55.522 4.89796 55.0576 5.20752 54.8776 5.72245V7.42501C55.0576 7.94144 55.522 8.24951 56.1024 8.24951C56.6828 8.24951 57.1471 7.93995 57.3272 7.42501Z" fill="black"/>
<path d="M65.5242 3.09412V5.15684H64.2606C63.5775 5.15684 63.2933 5.40091 63.1787 5.91733V10.0547H60.729V3.09412H62.7917L63.1697 3.96921C63.4332 3.362 63.9124 3.09412 64.5449 3.09412H65.5242Z" fill="black"/>
<path d="M69.1731 10.0546C67.4081 10.0546 66.4154 9.12746 66.4154 7.54098V0H68.8651V7.25821C68.8651 7.72255 69.0585 7.99192 69.575 7.99192H70.3355V10.0546H69.1746H69.1731Z" fill="black"/>
<path d="M71.0546 7.81184V5.33688C71.3121 3.82928 72.4342 2.88721 73.9671 2.88721C74.7797 2.88721 75.4628 3.21016 75.8869 3.7251V0H78.3366V10.0546H76.262L75.9137 9.23015C75.4762 9.89986 74.7276 10.2615 73.7602 10.2615C72.3419 10.2615 71.324 9.34623 71.0531 7.81184H71.0546ZM75.8884 7.4249V5.72382C75.6816 5.1687 75.2827 4.89933 74.6636 4.89933C74.0445 4.89933 73.6322 5.17019 73.4388 5.72382V7.4249C73.6962 8.00531 74.0579 8.24939 74.6636 8.24939C75.2693 8.24939 75.6563 7.99043 75.8884 7.4249Z" fill="black"/>
<path d="M49.2533 22.0501V12.7678H53.3519C55.0411 12.7678 56.1886 13.5149 56.51 14.8052V17.2668C56.1752 18.5556 55.0664 19.2521 53.3519 19.2521H51.831V22.0501H49.2533ZM51.831 16.9974H53.1332C53.6228 16.9974 53.919 16.8427 54.0604 16.4423V15.6431C53.919 15.2428 53.6228 15.088 53.1332 15.088H51.831V16.9959V16.9974Z" fill="black"/>
<path d="M60.2098 22.0499C58.4447 22.0499 57.452 21.1227 57.452 19.5362V11.9952H59.9017V19.2535C59.9017 19.7178 60.0952 19.9872 60.6116 19.9872H61.3721V22.0499H60.2112H60.2098Z" fill="black"/>
<path d="M62.0017 20.7864V19.2387C62.2591 18.2326 63.2771 17.7564 64.5659 17.7564C65.1329 17.7564 65.6479 17.859 66.0616 18.0391V17.7936C66.0616 17.3292 65.8681 17.0971 65.3517 17.0971H62.6446V15.0864H65.7506C67.5156 15.0864 68.5083 15.9764 68.5083 17.5614V22.047H66.4456L66.0586 21.1704C65.7878 21.8282 65.1181 22.2524 64.1894 22.2524C62.978 22.2524 62.2814 21.6734 61.9972 20.7835H61.9987L62.0017 20.7864ZM66.0616 20.0512V19.8444C65.9202 19.6122 65.572 19.4708 65.1463 19.4708C64.7207 19.4708 64.4245 19.5988 64.2564 19.8444V20.0512C64.3844 20.2953 64.6939 20.4248 65.1463 20.4248C65.5988 20.4248 65.9455 20.2834 66.0616 20.0512Z" fill="black"/>
<path d="M69.8517 24.8866V22.8239H70.9605C71.4248 22.8239 71.6436 22.6692 71.6436 22.3343C71.6436 22.1795 71.5662 21.9607 71.4754 21.7286L69.2579 15.6059V15.0895H71.6808L72.8669 19.4843H73.1259L74.2986 15.0895H76.7215V15.6059L74.0918 23.0576C73.6155 24.4119 72.9577 24.8881 71.5781 24.8881H69.8503L69.8517 24.8866Z" fill="black"/>
<path d="M42.0006 32.5318V23.2511H45.7257C47.9045 23.2511 49.5282 24.5265 49.7991 26.4479V29.3738C49.5416 31.2817 47.9298 32.5318 45.7257 32.5318H42.0006ZM44.5783 30.2117H45.5575C46.5755 30.2117 47.0785 29.8887 47.2199 29.1535V26.6399C47.0904 25.9047 46.5755 25.5698 45.5575 25.5698H44.5783V30.2102V30.2117Z" fill="black"/>
<path d="M50.7276 31.2681V29.7203C50.9851 28.7143 52.003 28.238 53.2919 28.238C53.8589 28.238 54.3738 28.3407 54.7876 28.5208V28.2752C54.7876 27.8109 54.5941 27.5787 54.0777 27.5787H51.3705V25.5681H54.4765C56.2416 25.5681 57.2343 26.4581 57.2343 28.0431V32.5287H55.1715L54.7846 31.6521C54.5137 32.3099 53.844 32.7341 52.9153 32.7341C51.7039 32.7341 51.0074 32.1551 50.7231 31.2651H50.7246L50.7276 31.2681ZM54.7876 30.5329V30.3261C54.6462 30.0939 54.2979 29.9525 53.8723 29.9525C53.4466 29.9525 53.1505 30.082 52.9823 30.3261V30.5329C53.1118 30.777 53.4199 30.9065 53.8723 30.9065C54.3247 30.9065 54.6715 30.7651 54.7876 30.5329Z" fill="black"/>
<path d="M58.5782 35.3683V33.3056H59.6869C60.1513 33.3056 60.37 33.1508 60.37 32.816C60.37 32.6612 60.2927 32.4424 60.2019 32.2103L57.9844 26.0876V25.5712H60.4073L61.5934 29.966H61.8509L63.0236 25.5712H65.4465V26.0876L62.8167 33.5393C62.3405 34.8936 61.6827 35.3698 60.3031 35.3698H58.5752H58.5767L58.5782 35.3683Z" fill="black"/>
<path d="M42.3372 20.7254C43.6082 20.3608 44.6232 19.8443 45.4179 18.9469C45.6129 18.7267 45.7364 18.5094 45.4983 18.2713C45.2617 18.0346 45.0429 18.1522 44.8241 18.3501C43.2599 19.7699 41.4264 20.2105 39.3726 19.8146C39.0839 19.758 38.825 19.7551 38.7401 20.072C38.6583 20.3712 38.8383 20.5483 39.133 20.6331C40.2447 20.9576 41.358 20.971 42.3372 20.7239" fill="black"/>
<path d="M39.0719 15.722C38.8724 14.954 38.109 14.5046 37.3604 14.71C36.6207 14.9124 36.1861 15.6744 36.3856 16.4155C36.5865 17.1656 37.3276 17.6002 38.0762 17.4082C38.8263 17.2147 39.2668 16.4691 39.0719 15.7235" fill="black"/>
<path d="M44.7647 15.6193C45.4999 15.4169 45.9389 14.6475 45.7439 13.9108C45.5445 13.1637 44.7483 12.7142 44.0027 12.93C43.266 13.1429 42.8478 13.9048 43.0562 14.6505C43.2645 15.3916 44.0235 15.8217 44.7647 15.6178" fill="black"/>
</g>
<defs>
<clipPath id="clip0_106_829">
<rect width="17" height="17" fill="white" transform="translate(167.254 41.2104)"/>
</clipPath>
<clipPath id="clip1_106_829">
<rect width="42" height="35.3683" fill="white" transform="translate(36.3367)"/>
</clipPath>
</defs>
</svg>
