<svg width="222" height="94" viewBox="0 0 222 94" fill="none" xmlns="http://www.w3.org/2000/svg">
<circle cx="199.731" cy="55.7313" r="21.7313" fill="#011C58"/>
<rect width="12.8337" height="26.6546" transform="translate(193 42)" fill="#011C58"/>
<g clip-path="url(#clip0_106_726)">
<path d="M205.191 48.6841H205.123C204.93 50.1931 204.519 51.3865 202.394 51.606V51.6883C204.519 51.9078 204.926 53.1013 205.123 54.6102H205.191C205.385 53.1013 205.795 51.9078 207.917 51.6883V51.606C205.792 51.3865 205.385 50.1931 205.191 48.6841Z" fill="white"/>
<path d="M194.686 42H194.595C194.334 44.0337 193.785 45.6421 190.917 45.9405V46.0502C193.781 46.3486 194.33 47.957 194.595 49.9907H194.686C194.947 47.957 195.496 46.3486 198.364 46.0502V45.9405C195.5 45.6421 194.95 44.0337 194.686 42Z" fill="white"/>
<path d="M201.461 54.2604H201.422C201.309 55.1246 201.077 55.8071 199.859 55.934V55.982C201.077 56.1089 201.309 56.7913 201.422 57.6556H201.461C201.574 56.7913 201.807 56.1089 203.024 55.982V55.934C201.807 55.8071 201.574 55.1246 201.461 54.2604Z" fill="white"/>
<path d="M203.88 45.3883C203.363 44.8396 202.782 44.5138 202.385 44.5138C202.243 44.5138 202.126 44.5549 202.042 44.6441C201.978 44.7127 191.243 56.1089 191.182 56.1741C190.868 56.5067 191.182 57.3813 191.882 58.1255C192.583 58.8697 193.407 59.2023 193.72 58.8697C193.781 58.8045 204.519 47.4049 204.581 47.3397C204.894 47.007 204.581 46.1325 203.88 45.3883ZM201.022 49.6615C200.886 49.4317 200.715 49.1951 200.505 48.9721C200.295 48.7492 200.072 48.564 199.856 48.4234L202.52 45.5941C202.679 45.6695 202.93 45.8341 203.195 46.1154C203.463 46.4 203.615 46.6641 203.686 46.8321L201.022 49.6615Z" fill="white"/>
</g>
<path d="M196.502 62.026V68.5714H195.709V62.026H196.502ZM198.18 68.5714H197.349L199.752 62.026H200.57L202.974 68.5714H202.143L200.187 63.0615H200.136L198.18 68.5714ZM198.487 66.0146H201.836V66.7177H198.487V66.0146Z" fill="white"/>
<path d="M48.2321 45V34.2H51.6821C54.3971 34.2 56.1221 35.7 56.4821 38.13C56.4971 38.25 56.4971 38.355 56.4971 38.475V40.695C56.4971 40.815 56.4971 40.92 56.4821 41.025C56.1221 43.485 54.3821 45 51.6821 45H48.2321ZM51.6971 43.665C53.6471 43.665 54.7721 42.66 54.9971 40.83C54.9971 40.71 55.0121 40.59 55.0121 40.455V38.745C55.0121 38.625 54.9971 38.49 54.9971 38.37C54.7721 36.555 53.6321 35.535 51.6971 35.535H49.7171V43.665H51.6971ZM61.9775 45.21C60.1475 45.21 58.4525 44.085 58.0775 42.09C58.0475 41.925 58.0325 41.775 58.0325 41.595V40.32C58.0325 40.14 58.0475 39.975 58.0775 39.825C58.4525 37.83 60.1475 36.705 61.9775 36.705C63.8225 36.705 65.5025 37.83 65.8925 39.825C65.9075 39.975 65.9375 40.14 65.9375 40.32V41.595C65.9375 41.775 65.9075 41.925 65.8925 42.09C65.5025 44.085 63.8225 45.21 61.9775 45.21ZM61.9775 43.95C63.1175 43.95 64.2575 43.26 64.5125 41.955C64.5275 41.82 64.5425 41.67 64.5425 41.505V40.41C64.5425 40.245 64.5275 40.095 64.5125 39.96C64.2575 38.64 63.1175 37.965 61.9775 37.965C60.8375 37.965 59.7125 38.64 59.4575 39.96C59.4275 40.095 59.4275 40.245 59.4275 40.41V41.505C59.4275 41.67 59.4275 41.82 59.4575 41.955C59.7125 43.26 60.8375 43.95 61.9775 43.95ZM71.3166 48.3V47.01H72.2616C73.1466 47.01 73.5816 46.68 73.5816 45.93C73.5816 45.66 73.4766 45.375 73.2966 44.895L70.3116 37.155V36.9H71.7666L74.2716 43.725H74.4516L76.6866 36.9H78.0966V37.155L74.8866 46.32C74.3616 47.85 73.7616 48.3 72.2316 48.3H71.3166ZM83.0273 45.21C81.1973 45.21 79.5023 44.085 79.1273 42.09C79.0973 41.925 79.0823 41.775 79.0823 41.595V40.32C79.0823 40.14 79.0973 39.975 79.1273 39.825C79.5023 37.83 81.1973 36.705 83.0273 36.705C84.8723 36.705 86.5523 37.83 86.9423 39.825C86.9573 39.975 86.9873 40.14 86.9873 40.32V41.595C86.9873 41.775 86.9573 41.925 86.9423 42.09C86.5523 44.085 84.8723 45.21 83.0273 45.21ZM83.0273 43.95C84.1673 43.95 85.3073 43.26 85.5623 41.955C85.5773 41.82 85.5923 41.67 85.5923 41.505V40.41C85.5923 40.245 85.5773 40.095 85.5623 39.96C85.3073 38.64 84.1673 37.965 83.0273 37.965C81.8873 37.965 80.7623 38.64 80.5073 39.96C80.4773 40.095 80.4773 40.245 80.4773 40.41V41.505C80.4773 41.67 80.4773 41.82 80.5073 41.955C80.7623 43.26 81.8873 43.95 83.0273 43.95ZM91.7887 45.21C89.9137 45.21 88.8187 44.1 88.8187 42.165V36.9H90.2137V42.03C90.2737 43.065 90.9037 43.92 92.1337 43.92C93.1087 43.92 93.8287 43.35 94.1737 42.435V36.9H95.5687V45H94.5187L94.1887 43.935C93.7537 44.64 93.0187 45.21 91.7887 45.21ZM101.681 45V36.9H102.746L103.076 37.965C103.526 37.275 104.351 36.705 105.536 36.705C107.426 36.705 108.521 37.875 108.521 39.81V45H107.126V39.885C107.066 38.835 106.466 37.995 105.191 37.995C104.216 37.995 103.436 38.565 103.076 39.48V45H101.681ZM114.286 45.21C112.111 45.21 110.806 43.89 110.401 42.015C110.386 41.88 110.371 41.715 110.371 41.58V40.335C110.371 40.2 110.386 40.05 110.401 39.915C110.821 38.07 112.126 36.705 114.211 36.705C116.266 36.705 117.541 37.935 117.871 39.735C117.901 39.87 117.916 40.035 117.916 40.17V41.19L117.736 41.37H111.751C111.901 42.975 112.816 43.95 114.286 43.95C115.366 43.95 116.026 43.56 116.656 42.735L117.616 43.59C116.881 44.595 115.846 45.21 114.286 45.21ZM111.781 40.245H116.566C116.476 38.895 115.546 37.935 114.226 37.935C112.831 37.935 111.976 38.91 111.781 40.245ZM123.207 45.21C121.032 45.21 119.727 43.89 119.322 42.015C119.307 41.88 119.292 41.715 119.292 41.58V40.335C119.292 40.2 119.307 40.05 119.322 39.915C119.742 38.07 121.047 36.705 123.132 36.705C125.187 36.705 126.462 37.935 126.792 39.735C126.822 39.87 126.837 40.035 126.837 40.17V41.19L126.657 41.37H120.672C120.822 42.975 121.737 43.95 123.207 43.95C124.287 43.95 124.947 43.56 125.577 42.735L126.537 43.59C125.802 44.595 124.767 45.21 123.207 45.21ZM120.702 40.245H125.487C125.397 38.895 124.467 37.935 123.147 37.935C121.752 37.935 120.897 38.91 120.702 40.245ZM131.708 45.21C129.998 45.21 128.798 44.235 128.363 42.57C128.258 42.075 128.213 41.535 128.213 40.95C128.213 40.395 128.258 39.855 128.348 39.36C128.783 37.71 129.968 36.705 131.813 36.705C132.893 36.705 133.823 37.11 134.438 37.845V33.3H135.833V45H134.783L134.438 43.98C133.793 44.835 132.968 45.21 131.708 45.21ZM132.113 43.95C133.238 43.95 133.958 43.515 134.438 42.435V39.555C133.973 38.55 133.103 37.965 132.113 37.965C130.838 37.965 129.998 38.685 129.683 39.825C129.623 40.185 129.578 40.56 129.578 40.95C129.578 41.355 129.623 41.715 129.683 42.075C129.998 43.245 130.823 43.95 132.113 43.95ZM144.17 45.21C142.7 45.21 141.59 44.34 141.47 43.065V42.135C141.665 40.83 142.79 40.005 144.455 40.005C145.265 40.005 145.97 40.2 146.57 40.545V39.735C146.57 38.64 146.195 38.19 145.055 38.19H142.19V36.9H145.145C147.23 36.9 147.965 37.8 147.965 39.72V45H146.9L146.585 43.935C145.955 44.805 145.205 45.21 144.17 45.21ZM144.44 43.965C145.295 43.965 145.925 43.68 146.57 42.93V41.805C146.045 41.37 145.43 41.16 144.545 41.16C143.54 41.16 142.91 41.595 142.82 42.375V42.78C142.895 43.485 143.57 43.965 144.44 43.965ZM26.7684 61.21C25.4034 61.21 24.2634 60.565 23.6634 59.5L24.6834 58.645C25.0434 59.485 25.9284 60.01 26.7684 60.01C27.6234 60.01 28.2384 59.65 28.4034 59.05C28.4034 58.975 28.4184 58.9 28.4184 58.825V58.6C28.4184 58.555 28.4034 58.495 28.4034 58.435C28.2834 58.015 27.9384 57.745 27.0834 57.52L25.8384 57.205C24.7884 56.935 24.1734 56.38 23.9934 55.54C23.9784 55.45 23.9634 55.36 23.9634 55.27V54.745C23.9634 54.67 23.9784 54.58 23.9934 54.505C24.2484 53.455 25.4184 52.705 26.8584 52.705C28.1184 52.705 29.1084 53.215 29.7684 54.175L28.8084 54.97C28.3284 54.22 27.6984 53.905 26.8134 53.905C26.0634 53.905 25.4784 54.22 25.3284 54.73C25.3134 54.79 25.3134 54.835 25.3134 54.895V55.03C25.3134 55.075 25.3284 55.12 25.3284 55.165C25.4484 55.63 25.8384 55.915 26.5884 56.095L27.7134 56.365C28.8534 56.635 29.4684 57.16 29.7234 57.925C29.7534 58.03 29.7834 58.15 29.7834 58.27V58.975C29.7834 59.125 29.7684 59.245 29.7234 59.38C29.3784 60.49 28.2984 61.21 26.7684 61.21ZM34.6012 61.21C32.7262 61.21 31.6312 60.1 31.6312 58.165V52.9H33.0262V58.03C33.0862 59.065 33.7162 59.92 34.9462 59.92C35.9212 59.92 36.6412 59.35 36.9862 58.435V52.9H38.3812V61H37.3312L37.0012 59.935C36.5662 60.64 35.8312 61.21 34.6012 61.21ZM40.7732 61V52.9H41.8382L42.1682 53.965C42.6332 53.17 43.5032 52.705 44.4932 52.705C45.5432 52.705 46.3682 53.23 46.7882 54.175C47.3432 53.215 48.2132 52.705 49.3232 52.705C51.0182 52.705 52.0382 53.83 52.0382 55.69V61H50.6432V55.78C50.5832 54.655 49.9532 53.995 48.9182 53.995C48.1082 53.995 47.4632 54.49 47.1032 55.45V61H45.7082V55.78C45.6482 54.61 45.0632 53.995 43.9982 53.995C43.1732 53.995 42.5282 54.49 42.1682 55.45V61H40.7732ZM54.367 61V52.9H55.432L55.762 53.965C56.227 53.17 57.097 52.705 58.087 52.705C59.137 52.705 59.962 53.23 60.382 54.175C60.937 53.215 61.807 52.705 62.917 52.705C64.612 52.705 65.632 53.83 65.632 55.69V61H64.237V55.78C64.177 54.655 63.547 53.995 62.512 53.995C61.702 53.995 61.057 54.49 60.697 55.45V61H59.302V55.78C59.242 54.61 58.657 53.995 57.592 53.995C56.767 53.995 56.122 54.49 55.762 55.45V61H54.367ZM70.1957 61.21C68.7257 61.21 67.6157 60.34 67.4957 59.065V58.135C67.6907 56.83 68.8157 56.005 70.4807 56.005C71.2907 56.005 71.9957 56.2 72.5957 56.545V55.735C72.5957 54.64 72.2207 54.19 71.0807 54.19H68.2157V52.9H71.1707C73.2557 52.9 73.9907 53.8 73.9907 55.72V61H72.9257L72.6107 59.935C71.9807 60.805 71.2307 61.21 70.1957 61.21ZM70.4657 59.965C71.3207 59.965 71.9507 59.68 72.5957 58.93V57.805C72.0707 57.37 71.4557 57.16 70.5707 57.16C69.5657 57.16 68.9357 57.595 68.8457 58.375V58.78C68.9207 59.485 69.5957 59.965 70.4657 59.965ZM76.3103 61V52.9H77.3753L77.6903 53.905C78.0053 53.29 78.5753 52.9 79.3703 52.9H80.2853V54.235H79.2353C78.3653 54.235 77.7653 54.67 77.7053 55.825V61H76.3103ZM82.1258 61V52.9H83.5208V61H82.1258ZM82.8308 51.46C82.2758 51.46 81.8258 51.01 81.8258 50.455C81.8258 49.9 82.2758 49.45 82.8308 49.45C83.3858 49.45 83.8208 49.9 83.8208 50.455C83.8208 51.01 83.3858 51.46 82.8308 51.46ZM85.3201 61V59.74L89.5051 54.385V54.19H85.4701V52.9H91.2751V54.16L87.0901 59.53V59.71H91.4251V61H85.3201ZM96.5764 61.21C94.4014 61.21 93.0964 59.89 92.6914 58.015C92.6764 57.88 92.6614 57.715 92.6614 57.58V56.335C92.6614 56.2 92.6764 56.05 92.6914 55.915C93.1114 54.07 94.4164 52.705 96.5014 52.705C98.5564 52.705 99.8314 53.935 100.161 55.735C100.191 55.87 100.206 56.035 100.206 56.17V57.19L100.026 57.37H94.0414C94.1914 58.975 95.1064 59.95 96.5764 59.95C97.6564 59.95 98.3164 59.56 98.9464 58.735L99.9064 59.59C99.1714 60.595 98.1364 61.21 96.5764 61.21ZM94.0714 56.245H98.8564C98.7664 54.895 97.8364 53.935 96.5164 53.935C95.1214 53.935 94.2664 54.91 94.0714 56.245ZM105.077 61.21C103.367 61.21 102.167 60.235 101.732 58.57C101.627 58.075 101.582 57.535 101.582 56.95C101.582 56.395 101.627 55.855 101.717 55.36C102.152 53.71 103.337 52.705 105.182 52.705C106.262 52.705 107.192 53.11 107.807 53.845V49.3H109.202V61H108.152L107.807 59.98C107.162 60.835 106.337 61.21 105.077 61.21ZM105.482 59.95C106.607 59.95 107.327 59.515 107.807 58.435V55.555C107.342 54.55 106.472 53.965 105.482 53.965C104.207 53.965 103.367 54.685 103.052 55.825C102.992 56.185 102.947 56.56 102.947 56.95C102.947 57.355 102.992 57.715 103.052 58.075C103.367 59.245 104.192 59.95 105.482 59.95ZM117.202 61L114.097 53.155V52.9H115.537L117.937 59.425H118.132L120.562 52.9H121.972V53.155L118.882 61H117.202ZM126.694 61.21C124.519 61.21 123.214 59.89 122.809 58.015C122.794 57.88 122.779 57.715 122.779 57.58V56.335C122.779 56.2 122.794 56.05 122.809 55.915C123.229 54.07 124.534 52.705 126.619 52.705C128.674 52.705 129.949 53.935 130.279 55.735C130.309 55.87 130.324 56.035 130.324 56.17V57.19L130.144 57.37H124.159C124.309 58.975 125.224 59.95 126.694 59.95C127.774 59.95 128.434 59.56 129.064 58.735L130.024 59.59C129.289 60.595 128.254 61.21 126.694 61.21ZM124.189 56.245H128.974C128.884 54.895 127.954 53.935 126.634 53.935C125.239 53.935 124.384 54.91 124.189 56.245ZM132.179 61V52.9H133.244L133.559 53.905C133.874 53.29 134.444 52.9 135.239 52.9H136.154V54.235H135.104C134.234 54.235 133.634 54.67 133.574 55.825V61H132.179ZM140.235 61.21C138.87 61.21 137.73 60.565 137.13 59.5L138.15 58.645C138.51 59.485 139.395 60.01 140.235 60.01C141.09 60.01 141.705 59.65 141.87 59.05C141.87 58.975 141.885 58.9 141.885 58.825V58.6C141.885 58.555 141.87 58.495 141.87 58.435C141.75 58.015 141.405 57.745 140.55 57.52L139.305 57.205C138.255 56.935 137.64 56.38 137.46 55.54C137.445 55.45 137.43 55.36 137.43 55.27V54.745C137.43 54.67 137.445 54.58 137.46 54.505C137.715 53.455 138.885 52.705 140.325 52.705C141.585 52.705 142.575 53.215 143.235 54.175L142.275 54.97C141.795 54.22 141.165 53.905 140.28 53.905C139.53 53.905 138.945 54.22 138.795 54.73C138.78 54.79 138.78 54.835 138.78 54.895V55.03C138.78 55.075 138.795 55.12 138.795 55.165C138.915 55.63 139.305 55.915 140.055 56.095L141.18 56.365C142.32 56.635 142.935 57.16 143.19 57.925C143.22 58.03 143.25 58.15 143.25 58.27V58.975C143.25 59.125 143.235 59.245 143.19 59.38C142.845 60.49 141.765 61.21 140.235 61.21ZM145.158 61V52.9H146.553V61H145.158ZM145.863 51.46C145.308 51.46 144.858 51.01 144.858 50.455C144.858 49.9 145.308 49.45 145.863 49.45C146.418 49.45 146.853 49.9 146.853 50.455C146.853 51.01 146.418 51.46 145.863 51.46ZM152.402 61.21C150.572 61.21 148.877 60.085 148.502 58.09C148.472 57.925 148.457 57.775 148.457 57.595V56.32C148.457 56.14 148.472 55.975 148.502 55.825C148.877 53.83 150.572 52.705 152.402 52.705C154.247 52.705 155.927 53.83 156.317 55.825C156.332 55.975 156.362 56.14 156.362 56.32V57.595C156.362 57.775 156.332 57.925 156.317 58.09C155.927 60.085 154.247 61.21 152.402 61.21ZM152.402 59.95C153.542 59.95 154.682 59.26 154.937 57.955C154.952 57.82 154.967 57.67 154.967 57.505V56.41C154.967 56.245 154.952 56.095 154.937 55.96C154.682 54.64 153.542 53.965 152.402 53.965C151.262 53.965 150.137 54.64 149.882 55.96C149.852 56.095 149.852 56.245 149.852 56.41V57.505C149.852 57.67 149.852 57.82 149.882 57.955C150.137 59.26 151.262 59.95 152.402 59.95ZM158.254 61V52.9H159.319L159.649 53.965C160.099 53.275 160.924 52.705 162.109 52.705C163.999 52.705 165.094 53.875 165.094 55.81V61H163.699V55.885C163.639 54.835 163.039 53.995 161.764 53.995C160.789 53.995 160.009 54.565 159.649 55.48V61H158.254ZM168.621 57.61L168.516 55.06H169.056C170.016 55.06 170.751 54.67 170.871 53.62C170.886 53.56 170.901 53.515 170.901 53.335V52.81C170.901 52.735 170.886 52.615 170.871 52.555C170.736 51.745 170.106 51.25 169.191 51.25C168.186 51.25 167.511 51.73 167.076 52.705L165.951 52.045C166.491 50.755 167.601 50.005 169.221 50.005C170.961 50.005 172.101 50.92 172.296 52.405C172.311 52.45 172.326 52.585 172.326 52.645V53.395C172.326 53.56 172.311 53.605 172.311 53.635C172.176 55.06 171.246 55.945 169.881 56.11L169.656 57.61H168.621ZM169.146 61.21C168.591 61.21 168.141 60.76 168.141 60.205C168.141 59.65 168.591 59.215 169.146 59.215C169.701 59.215 170.136 59.65 170.136 60.205C170.136 60.76 169.701 61.21 169.146 61.21ZM63.3817 77V68.21H60.3817V66.2H68.6317V68.21H65.6317V77H63.3817ZM68.8215 77V68.9H70.4715L70.9215 69.98C71.2065 69.335 71.7015 68.9 72.4815 68.9H73.4115V70.91H72.2565C71.4915 70.91 71.0415 71.3 70.9215 72.065V77H68.8215ZM75.1364 80.3V78.35H76.2914C77.0114 78.35 77.3414 78.095 77.3414 77.615C77.3414 77.435 77.2364 77.09 77.0714 76.64L74.2664 69.275V68.9H76.4264L78.3764 74.39H78.6164L80.4914 68.9H82.6364V69.275L79.0964 78.59C78.6314 79.82 77.9414 80.3 76.2164 80.3H75.1364ZM87.3078 77V68.9H89.4078V77H87.3078ZM88.3578 67.82C87.5928 67.82 86.9778 67.205 86.9778 66.44C86.9778 65.675 87.5928 65.06 88.3578 65.06C89.1228 65.06 89.7378 65.675 89.7378 66.44C89.7378 67.205 89.1228 67.82 88.3578 67.82ZM94.9476 77C93.2226 77 92.1576 76.145 92.1576 74.42V70.85H90.9276V68.9H92.1576V68.6L93.1476 66.8H94.2576V68.9H96.1176V70.85H94.2576V74.09C94.2576 74.705 94.5126 75.05 95.1276 75.05H95.9826V77H94.9476ZM101.209 77V68.9H102.859L103.294 69.95C103.759 69.155 104.629 68.66 105.694 68.66C107.584 68.66 108.739 69.98 108.739 71.915V77H106.639V72.08C106.489 71.09 105.904 70.61 105.034 70.61C104.164 70.61 103.474 71.135 103.309 72.08V77H101.209ZM114.42 77.24C112.515 77.24 110.775 76.085 110.37 74.255V71.645C110.775 69.815 112.515 68.66 114.42 68.66C116.325 68.66 118.065 69.815 118.47 71.645V74.255C118.065 76.085 116.325 77.24 114.42 77.24ZM114.42 75.35C115.335 75.35 116.175 74.87 116.37 74.015V71.885C116.175 71.03 115.335 70.55 114.42 70.55C113.505 70.55 112.665 71.03 112.47 71.885V74.015C112.665 74.87 113.505 75.35 114.42 75.35ZM121.562 77L119.357 69.275V68.9H121.427L122.627 73.925H122.867L124.472 68.9H126.512L128.117 73.925H128.357L129.557 68.9H131.627V69.275L129.422 77H127.172L125.612 72.08H125.372L123.812 77H121.562ZM133.326 73.265L132.876 70.115V66.2H135.066V70.115L134.616 73.265H133.326ZM133.971 77.24C133.206 77.24 132.591 76.625 132.591 75.86C132.591 75.095 133.206 74.48 133.971 74.48C134.736 74.48 135.351 75.095 135.351 75.86C135.351 76.625 134.736 77.24 133.971 77.24Z" fill="#011C58"/>
<path d="M179.832 70.853C177.947 72.5468 175.879 73.9888 173.501 75.0787C170.147 76.6214 166.356 77.4825 162.037 77.5023C157.987 77.5199 153.695 76.7822 149.015 74.726C147.596 74.1061 146.203 73.3552 144.859 72.3032C144.494 73.5113 144.591 73.7877 146.044 74.729C147.816 75.8872 149.622 76.7179 151.409 77.3602C155.9 79.0029 159.929 79.3619 163.771 79.201C169.435 78.9577 174.082 77.2856 178.051 74.635C178.643 74.2397 179.065 73.6418 180.046 73.4347C179.817 74.4625 179.652 75.3614 179.424 76.2213C179.294 76.7086 179.346 77.2409 179.615 77.8653C179.692 78.0372 179.865 78.2788 180.014 78.377C180.298 78.5469 180.395 78.3646 180.44 78.1926C180.811 76.9784 181.172 75.754 181.559 74.5439C181.87 73.5365 182.203 72.5495 182.514 71.5421C182.541 71.4725 182.563 71.409 182.59 71.3394C182.976 69.9839 182.448 69.2491 180.69 68.8279C178.686 68.3453 176.71 67.9385 174.732 67.5543C173.686 67.3478 173.599 67.6242 174.065 68.6948C174.299 69.2496 174.616 69.4276 175.089 69.5298C176.35 69.7895 177.619 70.0818 178.899 70.3845C179.152 70.4397 179.403 70.372 179.848 70.8571" fill="#60BBE3"/>
<g clip-path="url(#clip1_106_726)">
<path d="M64.477 10.8441L62.3622 2.07831V1.56189H64.9666L66.0486 7.23362H66.3075L67.4684 1.56189H70.433L71.5938 7.23362H71.8513L72.9332 1.56189H75.5377V2.07831L73.4244 10.8441H70.1755L69.0802 4.97892H68.8227L67.7273 10.8441H64.4785H64.477Z" fill="black"/>
<path d="M76.2207 8.44673V6.28132C76.749 4.60555 78.0513 3.67688 79.7657 3.67688C81.4802 3.67688 82.7824 4.60406 83.3107 6.28132V8.44673C82.7824 10.1225 81.4802 11.0512 79.7657 11.0512C78.0513 11.0512 76.749 10.124 76.2207 8.44673ZM80.9906 8.21456V6.512C80.8105 5.99558 80.3461 5.68751 79.7657 5.68751C79.1853 5.68751 78.721 5.99707 78.5409 6.512V8.21456C78.721 8.73099 79.1853 9.03906 79.7657 9.03906C80.3461 9.03906 80.8105 8.7295 80.9906 8.21456Z" fill="black"/>
<path d="M89.1875 3.88367V5.94639H87.924C87.2409 5.94639 86.9566 6.19046 86.842 6.70688V10.8442H84.3923V3.88367H86.4551L86.8331 4.75876C87.0965 4.15155 87.5757 3.88367 88.2082 3.88367H89.1875Z" fill="black"/>
<path d="M92.8365 10.8442C91.0714 10.8442 90.0787 9.91701 90.0787 8.33053V0.789551H92.5284V8.04776C92.5284 8.5121 92.7219 8.78147 93.2383 8.78147H93.9988V10.8442H92.838H92.8365Z" fill="black"/>
<path d="M94.7179 8.60139V6.12643C94.9754 4.61883 96.0975 3.67676 97.6304 3.67676C98.443 3.67676 99.1261 3.99971 99.5503 4.51465V0.789551H102V10.8442H99.9253L99.5771 10.0197C99.1395 10.6894 98.3909 11.0511 97.4236 11.0511C96.0053 11.0511 94.9873 10.1358 94.7164 8.60139H94.7179ZM99.5518 8.21445V6.51337C99.3449 5.95825 98.946 5.68888 98.3269 5.68888C97.7078 5.68888 97.2956 5.95974 97.1021 6.51337V8.21445C97.3596 8.79487 97.7212 9.03894 98.3269 9.03894C98.9327 9.03894 99.3196 8.77998 99.5518 8.21445Z" fill="black"/>
<path d="M72.9166 22.8396V13.5574H77.0153C78.7044 13.5574 79.8519 14.3045 80.1733 15.5948V18.0564C79.8385 19.3452 78.7297 20.0417 77.0153 20.0417H75.4943V22.8396H72.9166ZM75.4943 17.787H76.7965C77.2861 17.787 77.5823 17.6322 77.7237 17.2319V16.4327C77.5823 16.0323 77.2861 15.8776 76.7965 15.8776H75.4943V17.7855V17.787Z" fill="black"/>
<path d="M83.8731 22.8394C82.108 22.8394 81.1154 21.9122 81.1154 20.3258V12.7848H83.565V20.043C83.565 20.5073 83.7585 20.7767 84.2749 20.7767H85.0354V22.8394H83.8746H83.8731Z" fill="black"/>
<path d="M85.665 21.576V20.0282C85.9225 19.0221 86.9404 18.5459 88.2292 18.5459C88.7963 18.5459 89.3112 18.6486 89.7249 18.8287V18.5831C89.7249 18.1188 89.5315 17.8866 89.015 17.8866H86.3079V15.876H89.4139C91.179 15.876 92.1716 16.766 92.1716 18.3509V22.8365H90.1089L89.722 21.96C89.4511 22.6178 88.7814 23.0419 87.8527 23.0419C86.6413 23.0419 85.9448 22.463 85.6605 21.573H85.662L85.665 21.576ZM89.7249 20.8408V20.6339C89.5836 20.4018 89.2353 20.2604 88.8097 20.2604C88.384 20.2604 88.0879 20.3884 87.9197 20.6339V20.8408C88.0477 21.0849 88.3572 21.2143 88.8097 21.2143C89.2621 21.2143 89.6089 21.073 89.7249 20.8408Z" fill="black"/>
<path d="M93.5151 25.6762V23.6135H94.6238C95.0882 23.6135 95.3069 23.4587 95.3069 23.1238C95.3069 22.9691 95.2295 22.7503 95.1388 22.5181L92.9213 16.3955V15.879H95.3441L96.5303 20.2738H96.7892L97.962 15.879H100.385V16.3955L97.7551 23.8471C97.2789 25.2014 96.6211 25.6777 95.2415 25.6777H93.5136L93.5151 25.6762Z" fill="black"/>
<path d="M65.6639 33.3214V24.0406H69.389C71.5678 24.0406 73.1915 25.3161 73.4624 27.2374V30.1633C73.2049 32.0713 71.5931 33.3214 69.389 33.3214H65.6639ZM68.2416 31.0012H69.2209C70.2388 31.0012 70.7419 30.6783 70.8832 29.9431V27.4294C70.7538 26.6942 70.2388 26.3593 69.2209 26.3593H68.2416V30.9997V31.0012Z" fill="black"/>
<path d="M74.3909 32.0577V30.5099C74.6484 29.5038 75.6664 29.0276 76.9552 29.0276C77.5222 29.0276 78.0372 29.1303 78.4509 29.3104V29.0648C78.4509 28.6005 78.2574 28.3683 77.741 28.3683H75.0339V26.3577H78.1398C79.9049 26.3577 80.8976 27.2476 80.8976 28.8326V33.3182H78.8349L78.4479 32.4416C78.1771 33.0995 77.5073 33.5236 76.5787 33.5236C75.3672 33.5236 74.6707 32.9447 74.3865 32.0547H74.388L74.3909 32.0577ZM78.4509 31.3225V31.1156C78.3095 30.8834 77.9613 30.7421 77.5356 30.7421C77.11 30.7421 76.8138 30.8715 76.6456 31.1156V31.3225C76.7751 31.5666 77.0832 31.696 77.5356 31.696C77.988 31.696 78.3348 31.5546 78.4509 31.3225Z" fill="black"/>
<path d="M82.2415 36.1579V34.0952H83.3503C83.8146 34.0952 84.0334 33.9404 84.0334 33.6055C84.0334 33.4508 83.956 33.232 83.8652 32.9998L81.6477 26.8771V26.3607H84.0706L85.2567 30.7555H85.5142L86.6869 26.3607H89.1098V26.8771L86.4801 34.3288C86.0038 35.6831 85.346 36.1594 83.9664 36.1594H82.2385H82.24L82.2415 36.1579Z" fill="black"/>
<path d="M66.0006 21.5149C67.2715 21.1503 68.2865 20.6339 69.0812 19.7365C69.2762 19.5162 69.3997 19.2989 69.1616 19.0608C68.925 18.8242 68.7062 18.9418 68.4874 19.1397C66.9233 20.5595 65.0898 21 63.036 20.6041C62.7472 20.5476 62.4883 20.5446 62.4035 20.8616C62.3216 21.1607 62.5017 21.3378 62.7964 21.4227C63.9081 21.7471 65.0213 21.7605 66.0006 21.5135" fill="black"/>
<path d="M62.7352 16.5115C62.5358 15.7436 61.7723 15.2941 61.0237 15.4995C60.284 15.7019 59.8495 16.4639 60.0489 17.2051C60.2498 17.9551 60.991 18.3897 61.7396 18.1977C62.4896 18.0043 62.9302 17.2586 62.7352 16.513" fill="black"/>
<path d="M68.428 16.4089C69.1632 16.2065 69.6022 15.437 69.4073 14.7004C69.2079 13.9532 68.4116 13.5038 67.666 13.7196C66.9293 13.9324 66.5111 14.6944 66.7195 15.44C66.9278 16.1812 67.6869 16.6113 68.428 16.4074" fill="black"/>
</g>
<defs>
<clipPath id="clip0_106_726">
<rect width="17" height="17" fill="white" transform="translate(190.917 42)"/>
</clipPath>
<clipPath id="clip1_106_726">
<rect width="42" height="35.3683" fill="white" transform="translate(60 0.789551)"/>
</clipPath>
</defs>
</svg>
